<?xml version="1.0" encoding="utf-8"?>
<!-- Generator: Adobe Illustrator 24.1.2, SVG Export Plug-In . SVG Version: 6.00 Build 0)  -->
<svg version="1.1" id="Layer_1" xmlns="http://www.w3.org/2000/svg" xmlns:xlink="http://www.w3.org/1999/xlink" x="0px" y="0px"
	 viewBox="0 0 16.3 18.6" style="enable-background:new 0 0 16.3 18.6;" xml:space="preserve">
<path d="M0,18.6V4.4h2.2c0-0.4,0-0.8,0-1.1c0-1.4,0.9-2.6,2.2-3C6.5-0.5,8.7,1,8.7,3.2c0,0.4,0,0.7,0,1.1h2.2v4.4h5.4v9.8H0z
	 M15.2,9.9H5.4v7.6h9.8V9.9z M4.4,17.5V8.8h5.4V5.5H1.1v12H4.4z M7.6,4.3c0-0.4,0-0.7,0-1.1c0-1-0.7-1.9-1.7-2.1
	c-1-0.2-2,0.3-2.4,1.2C3.2,3,3.3,3.7,3.3,4.3H7.6z"/>
<path d="M7.6,11h1.1c0,0.2,0,0.4,0,0.6c0,0.9,0.8,1.6,1.7,1.6c0.9,0,1.6-0.7,1.6-1.6c0-0.2,0-0.4,0-0.6H13c0.1,1.1-0.2,2-1,2.7
	c-0.9,0.7-1.9,0.8-2.9,0.3C7.9,13.3,7.5,12.2,7.6,11"/>
</svg>
