<?xml version="1.0" encoding="utf-8"?>
<!-- Generator: Adobe Illustrator 24.1.2, SVG Export Plug-In . SVG Version: 6.00 Build 0)  -->
<svg version="1.1" id="Layer_1" xmlns="http://www.w3.org/2000/svg" xmlns:xlink="http://www.w3.org/1999/xlink" x="0px" y="0px"
	 viewBox="0 0 26 29.5" style="enable-background:new 0 0 26 29.5;" xml:space="preserve">
<g id="Home_page">
	<path d="M4.4,29.5h17.3c1.4,0,2.6-1.2,2.6-2.6l0,0v-9.6h0.9c0.5,0,0.9-0.4,0.9-0.9V9.5c0-1.4-1.2-2.6-2.6-2.6h-5l0.9-0.6
		c1.6-1.1,2-3.2,0.9-4.8c-1.1-1.6-3.2-2-4.8-0.9c-0.7,0.5-1.2,1.2-1.4,2l-1,3.6l-1-3.6c-0.5-1.8-2.4-2.9-4.2-2.4S4.8,2.5,5.3,4.4
		c0.2,0.8,0.7,1.5,1.4,2l0.9,0.6h-5C1.2,6.9,0,8.1,0,9.5v6.9c0,0.5,0.4,0.9,0.9,0.9h0.9v9.6C1.7,28.3,2.8,29.5,4.4,29.5
		C4.3,29.5,4.3,29.5,4.4,29.5z M3.5,26.9v-9.6h6.9v10.5H4.4C3.9,27.8,3.5,27.4,3.5,26.9z M12.1,8.7h1.7v19.1h-1.7L12.1,8.7z
		 M22.5,26.9c0,0.5-0.4,0.9-0.9,0.9h-6V17.3h6.9V26.9z M24.2,9.5v6.1h-8.6V9.9l3.7,3.7c0.3,0.3,0.9,0.3,1.2,0c0,0,0,0,0,0
		c0.3-0.3,0.3-0.9,0-1.2l-3.7-3.7h6.6C23.9,8.7,24.2,9,24.2,9.5L24.2,9.5z M15.7,3c0.2-0.9,1.2-1.5,2.1-1.2C18.5,2,19,2.7,19,3.5
		c0,0.6-0.3,1.1-0.8,1.4l-3,2h-0.7L15.7,3z M7.7,4.9c-0.8-0.5-1-1.6-0.5-2.4C7.6,2,8.1,1.7,8.7,1.7c0.8,0,1.5,0.5,1.7,1.3l1,3.9
		h-0.7L7.7,4.9z M1.8,9.5c0-0.5,0.4-0.9,0.9-0.9h6.6l-3.7,3.8c-0.3,0.3-0.3,0.9,0,1.2c0.3,0.3,0.9,0.3,1.2,0c0,0,0,0,0,0l3.7-3.7
		v5.7H1.8V9.5z"/>
</g>
</svg>
