<?xml version="1.0" encoding="utf-8"?>
<!-- Generator: Adobe Illustrator 24.1.2, SVG Export Plug-In . SVG Version: 6.00 Build 0)  -->
<svg version="1.1" id="Layer_1" xmlns="http://www.w3.org/2000/svg" xmlns:xlink="http://www.w3.org/1999/xlink" x="0px" y="0px"
	 viewBox="0 0 33.9 24" style="enable-background:new 0 0 33.9 24;" xml:space="preserve">
<style type="text/css">
	.st0{fill:#FFFFFF;}
</style>
<g id="Categories-Bag">
	<path d="M4.5,19.4c0.8-2.1,2.1-3.1,3.9-3c1.8,0.1,3.3,1.3,3.6,3h11.1V19c0-5.4,0-10.7,0-16.1c0-0.1,0-0.2,0-0.2
		c0-0.6-0.4-1.1-1-1.1c0,0-0.1,0-0.1,0c-3.6,0-7.3,0-10.9,0c-1.7,0-3.4,0-5.2,0C5.3,1.4,4.7,1.8,4.6,2.4c0,0,0,0,0,0
		C4.5,2.8,4.1,3.1,3.7,3S3,2.5,3.1,2.1c0,0,0-0.1,0-0.1c0.3-1.2,1.3-2,2.5-2c2.4,0,4.8,0,7.2,0c2.9,0,5.9,0,8.8,0
		c1.4-0.1,2.7,0.9,2.8,2.4c0,0.1,0,0.3,0,0.4c0,1.2,0,2.4,0,3.6c0,0,0,0.1,0,0.1c0.1,0,0.3,0,0.4,0c1.7,0,3.4,0,5.1,0
		c0.4,0,0.8,0.2,1,0.6c0.9,2,1.8,4,2.7,6c0.1,0.2,0.2,0.5,0.2,0.8c0,2,0,4,0,6c0,0.7-0.3,1-1,1c-0.7,0-0.7,0-0.9,0.6
		c-0.8,2-3,2.9-4.9,2.2c-1.1-0.4-1.9-1.3-2.3-2.4c0-0.1-0.1-0.2-0.1-0.3H12c-0.4,1.8-2,3.1-3.8,3c-1.7,0-2.9-1-3.7-3
		c-0.4,0-0.7,0-1.1,0c-1.4,0-2.6-1.1-2.6-2.5c0,0,0-0.1,0-0.1c0-0.4,0.1-0.8,0.1-1.2c0-0.4,0.4-0.7,0.8-0.7c0,0,0,0,0,0
		c0.4,0,0.7,0.4,0.7,0.8c0,0,0,0,0,0c0,0.3-0.1,0.7-0.1,1c-0.1,0.6,0.3,1.1,0.9,1.2c0.1,0,0.1,0,0.2,0C3.8,19.4,4.1,19.4,4.5,19.4z
		 M32.4,14.6c-0.9-0.2-1.8-0.6-2.6-0.9c-2.2-1-3.7-3-4.2-5.3c0-0.1-0.1-0.3-0.2-0.3c-0.3,0-0.5,0-0.8,0v11.3l0.1,0
		c0.1-0.1,0.1-0.2,0.1-0.3c0.6-1.9,2.6-3.1,4.5-2.6c1.3,0.3,2.4,1.3,2.8,2.6c0,0.1,0.1,0.2,0.2,0.3l0.1,0v-1.7
		c-0.6-0.1-0.8-0.2-0.8-0.8c0-0.9,0.1-1,0.9-1.2L32.4,14.6z M8.2,17.9c-1.3,0-2.3,1-2.3,2.3s1,2.3,2.3,2.3c1.3,0,2.3-1,2.3-2.3
		c0,0,0,0,0,0C10.5,18.9,9.5,17.9,8.2,17.9z M28.5,17.9c-1.3,0-2.3,1-2.3,2.3c0,1.3,1,2.3,2.3,2.3c1.3,0,2.3-1,2.3-2.3
		C30.8,18.9,29.8,17.9,28.5,17.9C28.5,17.9,28.5,17.9,28.5,17.9L28.5,17.9z M27.1,8c0.5,2.4,2.4,4.2,4.8,4.7c0,0,0,0,0,0
		c-0.7-1.5-1.4-3-2-4.5c0-0.1-0.1-0.1-0.2-0.1C28.8,8,28,8,27.1,8L27.1,8z"/>
	<path d="M12.9,14.7c-1.1,0-2.2,0-3.2,0c-0.7,0-1-0.4-0.9-1.1C9,11.7,9.2,9.7,9.4,7.8C9.5,7.4,9.7,7,10,6.7C11,6,12,5.2,13,4.4
		c0.2-0.2,0.5-0.2,0.7-0.3c2.2,0,4.4,0,6.5,0c0.4-0.1,0.8,0.2,0.9,0.6c0,0.1,0,0.2,0,0.3c-0.2,2-0.5,4.1-0.7,6.1
		c0,0.3-0.2,0.6-0.5,0.8c-1,0.7-2,1.5-2.9,2.3c-0.3,0.2-0.6,0.3-1,0.3C15,14.7,14,14.7,12.9,14.7z M10.9,8.3l-0.6,4.8
		c0,0,0.1,0,0.1,0c1.7,0,3.3,0,5,0c0.2,0,0.2-0.1,0.3-0.3c0.2-1.5,0.3-2.9,0.5-4.4c0-0.1,0-0.2,0-0.2H10.9z M19.4,6.7
		c-0.5,0.4-1,0.8-1.5,1.2c-0.1,0.1-0.1,0.2-0.1,0.3c-0.1,0.7-0.2,1.5-0.3,2.2c-0.1,0.6-0.1,1.2-0.2,1.9c0.5-0.4,1-0.8,1.5-1.1
		c0.1-0.1,0.1-0.1,0.1-0.2C19.1,9.5,19.2,8.1,19.4,6.7L19.4,6.7z M12.5,6.7c0.1,0,0.2,0,0.2,0c1.3,0,2.6,0,3.9,0c0.1,0,0.1,0,0.2,0
		c0.4-0.3,0.8-0.6,1.3-1c-0.1,0-0.1,0-0.2,0c-1.3,0-2.6,0-4,0c-0.1,0-0.1,0-0.2,0C13.4,6,13,6.4,12.5,6.7L12.5,6.7z"/>
	<path d="M5.5,3.8c0.8,0,1.7,0,2.5,0c0.3,0,0.6,0.1,0.8,0.3c0.2,0.3,0.2,0.8-0.2,1c-0.1,0-0.1,0.1-0.2,0.1c-0.1,0-0.3,0.1-0.5,0
		c-1.6,0-3.3,0-4.9,0c-0.1,0-0.2,0-0.2,0C2.4,5.3,2.1,5,2.1,4.6c0-0.4,0.3-0.8,0.8-0.8c0,0,0,0,0,0c0.5,0,1,0,1.6,0
		C4.8,3.8,5.2,3.8,5.5,3.8L5.5,3.8z"/>
	<path d="M3,9.8c-0.7,0-1.5,0-2.2,0C0.4,9.8,0,9.5,0,9.1c0-0.2,0-0.3,0.1-0.4c0.2-0.3,0.4-0.4,0.7-0.4c1.5,0,2.9,0,4.4,0
		C5.6,8.3,6,8.6,6.1,9c0,0,0,0,0,0.1c0,0.4-0.4,0.8-0.8,0.8c0,0,0,0-0.1,0C4.5,9.8,3.7,9.8,3,9.8z"/>
	<path d="M3.2,12.9c0.4,0,0.7,0,1.1,0c0.4,0,0.8,0.3,0.8,0.7c0,0.4-0.3,0.8-0.7,0.8c0,0,0,0-0.1,0c-0.8,0-1.5,0-2.3,0
		c-0.4,0-0.8-0.3-0.8-0.7c0,0,0,0,0,0c0-0.4,0.3-0.8,0.7-0.8c0,0,0,0,0.1,0C2.4,12.9,2.8,12.9,3.2,12.9z"/>
	<path class="st0" d="M8.2,19.4c-0.4,0-0.7,0.3-0.7,0.8c0,0.4,0.3,0.7,0.8,0.7c0.4,0,0.7-0.3,0.7-0.8c0,0,0,0,0,0
		C9,19.7,8.6,19.4,8.2,19.4z"/>
	<path class="st0" d="M27.7,20.1c0,0.4,0.3,0.7,0.7,0.8c0.4,0,0.8-0.3,0.8-0.7c0-0.4-0.3-0.8-0.7-0.8c0,0,0,0-0.1,0
		C28.1,19.4,27.7,19.7,27.7,20.1C27.7,20.1,27.7,20.1,27.7,20.1z"/>
	<path d="M8.2,19.4c0.4,0,0.8,0.3,0.7,0.8c0,0.4-0.3,0.8-0.8,0.7c-0.4,0-0.8-0.3-0.7-0.8c0,0,0,0,0,0C7.5,19.7,7.8,19.4,8.2,19.4z"
		/>
	<path d="M27.7,20.1c0-0.4,0.3-0.7,0.7-0.7c0,0,0,0,0,0c0.4,0,0.8,0.3,0.8,0.7c0,0.4-0.3,0.8-0.7,0.8c0,0,0,0-0.1,0
		C28.1,20.9,27.7,20.5,27.7,20.1z"/>
</g>
</svg>
