<?xml version="1.0" standalone="no"?>
<!DOCTYPE svg PUBLIC "-//W3C//DTD SVG 1.1//EN" "http://www.w3.org/Graphics/SVG/1.1/DTD/svg11.dtd" >
<svg xmlns="http://www.w3.org/2000/svg">
<metadata>Generated by IcoMoon</metadata>
<defs>
<font id="icomoon" horiz-adv-x="1024">
<font-face units-per-em="1024" ascent="960" descent="-64" />
<missing-glyph horiz-adv-x="1024" />
<glyph unicode="&#x20;" horiz-adv-x="512" d="" />
<glyph unicode="&#xe900;" glyph-name="heart" horiz-adv-x="1139" d="M569.497-64l-16.428 10.952c-93.091 71.187-553.070 427.123-553.070 689.968-5.476 175.23 131.422 317.604 301.176 323.080 5.476 0 16.428 0 21.904 0 104.043 0 202.61-60.235 246.417-153.326 43.807 93.091 142.374 153.326 246.417 153.326 175.23 5.476 317.604-131.422 323.080-301.176 0-5.476 0-16.428 0-21.904 0-262.845-459.979-618.781-553.070-689.968l-16.428-10.952zM323.080 905.241c-142.374 5.476-262.845-104.043-268.321-246.417 0-5.476 0-16.428 0-21.904 0-224.513 416.171-553.070 514.738-629.733 98.567 76.663 514.738 405.219 514.738 629.733 5.476 142.374-104.043 262.845-246.417 268.321-5.476 0-16.428 0-21.904 0-71.187 0-169.754-32.856-219.037-180.706l-27.38-76.663-27.38 76.663c-49.283 147.85-147.85 180.706-219.037 180.706z" />
<glyph unicode="&#xe901;" glyph-name="search" horiz-adv-x="1002" d="M1002.213-25.872l-354.043 354.043c65.362 65.362 103.489 157.957 103.489 256 0 206.979-168.851 375.83-375.83 375.83s-375.83-168.851-375.83-375.83 168.851-375.83 375.83-375.83c87.149 0 168.851 32.681 234.213 81.702l354.043-354.043 38.128 38.128zM54.468 584.17c0 179.745 141.617 321.362 321.362 321.362s321.362-141.617 321.362-321.362-141.617-321.362-321.362-321.362c-179.745 0-321.362 141.617-321.362 321.362z" />
<glyph unicode="&#xe902;" glyph-name="user" horiz-adv-x="910" d="M455.111 960c-148.406 0-272.077-123.671-272.077-277.024s123.671-272.077 277.024-272.077c153.353 0 272.077 123.671 272.077 272.077 0 153.353-123.671 277.024-277.024 277.024zM603.517 519.729c-14.841-14.841-29.681-24.734-49.469-34.628-64.309-34.628-138.512-34.628-197.874 0-108.831 54.415-158.3 187.981-103.884 301.758s192.928 158.3 301.758 103.884 158.3-187.981 103.884-301.758c-14.841-29.681-29.681-49.469-54.415-69.256v0zM652.986 494.995l-197.874-39.575c54.415-4.947 103.884 0 158.3 9.894 143.459-79.15 242.396-262.184 252.29-474.899h-816.232c4.947 212.715 108.831 395.749 252.29 474.899 49.469-9.894 103.884-9.894 158.3-9.894l-197.874 39.575c-153.353-98.937-262.184-301.758-262.184-534.261v-24.734h910.222v24.734c0 232.502-103.884 435.324-257.237 534.261z" />
<glyph unicode="&#xe903;" glyph-name="zalo" d="M508.897 13.576h-328.921c-49.648-3.103-93.091 31.030-105.503 77.576-3.103 9.309-3.103 18.618-3.103 31.030 0 217.212 0 437.527 0 654.739-3.103 58.958 40.339 108.606 99.297 111.709 3.103 0 6.206 0 12.412 0h654.739c58.958 3.103 105.503-43.442 108.606-99.297 0-3.103 0-6.206 0-9.309v-654.739c3.103-58.958-40.339-108.606-96.194-111.709-3.103 0-9.309 0-12.412 0h-328.921zM338.23 184.242v0c18.618 3.103 37.236 9.309 55.855 18.618 34.133 18.618 77.576 18.618 111.709 3.103 127.224-46.545 269.964-34.133 387.879 34.133 6.206 3.103 9.309 9.309 9.309 15.515 0 62.061 0 127.224 0 189.285 0 111.709 0 220.315 0 332.024 3.103 34.133-24.824 65.164-58.958 65.164-3.103 0-3.103 0-6.206 0h-456.145c-3.103 0-9.309 0-12.412-3.103-74.473-62.061-121.018-148.945-130.327-245.139-9.309-105.503 27.927-207.903 102.4-282.376 15.515-15.515 24.824-40.339 21.721-62.061s-9.309-43.442-24.824-65.164v0zM310.303 845.188h-124.121c-34.133 6.206-68.267-18.618-71.37-52.752 0-6.206 0-12.412 0-15.515v-648.533c-3.103-34.133 21.721-65.164 55.855-71.37 6.206 0 12.412 0 15.515 0h654.739c34.133 0 62.061 24.824 65.164 58.958 0 0 0 3.103 0 3.103 0 24.824 0 46.545 0 68.267 0 3.103 0 6.206 0 9.309l-12.412-6.206c-62.061-31.030-130.327-49.648-198.594-52.752-71.37-3.103-142.739 6.206-211.006 34.133-18.618 9.309-40.339 6.206-58.958-3.103-12.412-6.206-27.927-12.412-40.339-18.618-34.133-15.515-68.267-18.618-105.503-9.309-9.309 0-18.618 9.309-18.618 18.618-3.103 9.309 3.103 18.618 12.412 21.721 31.030 12.412 49.648 43.442 49.648 77.576 0 9.309-3.103 18.618-9.309 24.824s-12.412 12.412-18.618 21.721c-111.709 130.327-127.224 313.406-43.442 459.248 18.618 27.927 40.339 52.752 58.958 80.679zM431.321 596.945h-58.958c-3.103 0-9.309 0-12.412 3.103-9.309 3.103-15.515 12.412-15.515 21.721s9.309 18.618 18.618 18.618c37.236 0 71.37 0 108.606 0 9.309 0 18.618-9.309 18.618-21.721 0-3.103 0-6.206-3.103-9.309 0-3.103-3.103-6.206-6.206-9.309l-71.37-114.812c-3.103-3.103-3.103-6.206-6.206-12.412h65.164c12.412 0 21.721-9.309 21.721-18.618 0 0 0 0 0-3.103 0-12.412-9.309-21.721-21.721-21.721 0 0 0 0 0 0h-99.297c-12.412-3.103-21.721 6.206-24.824 15.515 0 6.206 0 12.412 6.206 18.618 24.824 40.339 49.648 80.679 74.473 117.915l6.206 15.515zM595.782 569.018c3.103 3.103 3.103 3.103 6.206 3.103 9.309 6.206 21.721 3.103 27.927-6.206 3.103-3.103 3.103-6.206 3.103-9.309 0-34.133 0-68.267 0-105.503 0-9.309-6.206-15.515-12.412-18.618-9.309-3.103-18.618 0-24.824 6.206-31.030-18.618-71.37-9.309-93.091 18.618-18.618 24.824-18.618 62.061 0 86.885 18.618 31.030 58.958 40.339 93.091 24.824zM592.679 503.855c0 18.618-12.412 31.030-31.030 31.030s-31.030-12.412-31.030-31.030 12.412-31.030 31.030-31.030 31.030 12.412 31.030 31.030zM791.273 429.382c-40.339 0-71.37 31.030-71.37 71.37s31.030 71.37 71.37 71.37c40.339 0 71.37-31.030 71.37-71.37 0 0 0 0 0 0 0-37.236-34.133-68.267-71.37-71.37zM791.273 472.824c18.618 0 31.030 12.412 31.030 31.030s-12.412 31.030-31.030 31.030-31.030-12.412-31.030-31.030 12.412-31.030 31.030-31.030zM695.079 544.194v-86.885c0-15.515-6.206-24.824-21.721-24.824s-21.721 9.309-21.721 24.824v176.873c0 18.618 12.412 27.927 27.927 24.824 9.309-3.103 15.515-12.412 15.515-21.721v-93.091z" />
<glyph unicode="&#xe904;" glyph-name="facebook" d="M651.636 731.927h78.817v137.154c-33.195 3.759-71.672 5.904-110.651 5.904-1.463 0-2.926-0.003-4.387-0.009l0.226 0.001c-113.571 0-191.457-71.37-191.457-202.628v-120.708h-124.121v-153.29h124.121v-384.776h155.152v384.776h120.398l18.928 153.29h-141.498v105.503c0 44.373 12.102 74.783 73.852 74.783z" />
<glyph unicode="&#xe905;" glyph-name="instagram" d="M938.356 628.907c-0.902 37.897-8.221 73.817-20.908 107.088l0.739-2.206c-23.139 58.4-68.514 103.775-125.408 126.386l-1.506 0.528c-31.16 11.942-67.187 19.261-104.803 20.162l-0.39 0.007c-46.235 1.552-61.13 1.552-178.735 1.552s-132.189 0-178.424-2.793c-37.949-0.535-74.026-7.889-107.276-20.887l2.083 0.717c-30.055-11.070-55.733-27.665-76.969-48.731l0.014 0.014c-21.458-21.092-38.447-46.656-49.465-75.19l-0.494-1.455c-11.951-31.186-19.175-67.244-19.855-104.9l-0.004-0.293c-2.482-46.235-2.793-62.061-2.793-178.735s0-132.499 2.482-178.424c0.877-38.001 8.199-74.032 20.909-107.404l-0.74 2.211c11.434-30.122 28.435-55.802 49.929-76.926l0.030-0.030c21.162-21.346 46.703-38.314 75.167-49.45l1.477-0.509c31.159-11.908 67.18-19.224 104.786-20.162l0.407-0.008c46.235-1.862 62.061-2.482 178.735-2.482s132.189 0 178.424 2.482c38.001 0.877 74.032 8.199 107.404 20.909l-2.211-0.74c58.442 23.072 103.841 68.471 126.389 125.41l0.525 1.504c11.98 31.186 19.208 67.249 19.856 104.915l0.004 0.278c2.172 45.925 2.793 62.061 2.793 178.424s-0.31 132.499-2.172 178.735zM860.16 274.851c-0.325-28.943-5.76-56.52-15.441-82.006l0.546 1.638c-14.952-37.864-44.366-67.278-81.256-81.89l-0.975-0.34c-23.848-9.135-51.426-14.569-80.23-14.893l-0.138-0.001c-45.615-1.862-59.578-2.482-175.011-2.482s-129.396 0-175.011 2.482c-28.938 0.291-56.52 5.729-81.993 15.438l1.625-0.544c-19.479 7.013-36.149 17.591-49.99 31.060l0.031-0.030c-13.481 13.786-24.066 30.464-30.733 49.011l-0.297 0.948c-9.666 24.145-15.535 52.107-16.132 81.363l-0.004 0.246c-1.862 45.615-2.482 59.268-2.482 175.011s0 129.396 2.482 175.011c0.325 28.943 5.76 56.52 15.441 82.006l-0.546-1.638c6.778 19.556 17.393 36.268 31.034 49.963l-0.004-0.004c13.746 13.374 30.301 23.939 48.687 30.72l0.961 0.31c23.848 9.098 51.419 14.529 80.212 14.893l0.157 0.002c45.925 1.862 59.578 2.482 175.011 2.482s129.707 0 175.011-2.482c29.052-0.341 56.734-5.773 82.336-15.444l-1.657 0.549c19.347-7.091 35.902-17.656 49.68-31.061l-0.032 0.031c13.481-13.786 24.066-30.464 30.733-49.011l0.297-0.948c9.135-23.848 14.569-51.426 14.893-80.23l0.001-0.138c2.172-45.615 2.482-59.268 2.482-175.011s2.482-129.086 0.31-175.011zM507.345 672.659c-122.743-0.177-222.177-99.72-222.177-222.487 0-122.876 99.611-222.487 222.487-222.487s222.487 99.611 222.487 222.487v0c0 0 0 0 0 0 0 122.876-99.611 222.487-222.487 222.487-0.109 0-0.218 0-0.327 0h0.017zM507.345 305.881c-79.69 0-144.291 64.601-144.291 144.291s64.601 144.291 144.291 144.291c79.69 0 144.291-64.601 144.291-144.291v0c0-79.69-64.601-144.291-144.291-144.291v0zM790.652 681.658c0.001-0.092 0.001-0.201 0.001-0.309 0-28.791-23.34-52.131-52.131-52.131s-52.131 23.34-52.131 52.131c0 28.791 23.34 52.131 52.131 52.131 0.109 0 0.218 0 0.326-0.001h-0.017c28.549-0.175 51.646-23.271 51.821-51.804v-0.017z" />
<glyph unicode="&#xe906;" glyph-name="youtube" d="M871.021 443.345c-8.712 38.377-40.253 67.403-79.294 72.255l-0.454 0.046c-68.027 6.838-147.024 10.738-226.932 10.738-17.203 0-34.364-0.181-51.482-0.54l2.555 0.042c-14.563 0.317-31.724 0.498-48.927 0.498-79.908 0-158.905-3.9-236.812-11.52l9.879 0.782c-39.495-4.897-71.036-33.923-79.628-71.677l-0.119-0.624c-8.438-43.501-13.266-93.528-13.266-144.682 0-10.338 0.197-20.63 0.588-30.873l-0.045 1.475c-0.346-8.766-0.543-19.059-0.543-29.398 0-51.154 4.828-101.18 14.052-149.648l-0.786 4.966c8.597-38.508 40.173-67.672 79.292-72.564l0.456-0.047c67.992-6.633 146.982-10.415 226.855-10.415 17.231 0 34.421 0.176 51.567 0.526l-2.563-0.041c14.514-0.305 31.621-0.479 48.77-0.479 79.955 0 159.028 3.78 237.049 11.171l-9.959-0.762c39.446 5.064 70.877 34.19 79.321 71.991l0.116 0.62c8.646 43.473 13.594 93.453 13.594 144.588 0 10.372-0.204 20.696-0.607 30.968l0.046-1.477c0.346 8.766 0.543 19.059 0.543 29.398 0 51.154-4.828 101.18-14.052 149.648l0.786-4.966zM357.159 400.213h-53.372v-283.307h-49.648v283.307h-52.131v46.235h155.152zM491.52 116.907h-44.373v26.686c-11.469-16.868-29.612-28.465-50.548-30.997l-0.342-0.034c-0.778-0.077-1.682-0.121-2.596-0.121-12.016 0-22.26 7.589-26.2 18.235l-0.063 0.193c-2.44 9.668-3.841 20.768-3.841 32.194 0 1.992 0.043 3.973 0.127 5.944l-0.010-0.281v193.939h44.373v-180.907c0-10.55 0-16.136 0-17.377 0-7.137 4.655-10.55 10.55-10.55s18.308 6.827 28.238 20.79v188.044h44.373v-245.76zM660.635 190.448c0.073-2.038 0.114-4.433 0.114-6.838 0-15.052-1.624-29.726-4.706-43.854l0.248 1.353c-3.663-15.934-17.724-27.636-34.518-27.636-0.41 0-0.819 0.007-1.226 0.021l0.059-0.002c-19.152 1.735-35.614 11.936-45.788 26.785l-0.137 0.212v-23.583h-44.373v329.542h44.373v-107.675c10.367 14.938 26.82 25.027 45.692 26.67l0.233 0.016c0.348 0.012 0.757 0.019 1.167 0.019 16.794 0 30.854-11.703 34.472-27.398l0.046-0.238c2.884-12.276 4.538-26.372 4.538-40.854 0-2.984-0.070-5.951-0.209-8.901l0.016 0.417zM828.819 230.788h-89.057v-43.442c0-22.652 7.447-34.133 22.652-34.133s17.377 5.896 19.859 17.998c0.375 4.644 0.589 10.055 0.589 15.515s-0.214 10.871-0.633 16.223l0.045-0.708h45.304v-6.516c0-14.274 0-24.204 0-28.548-4.382-30.363-30.226-53.434-61.458-53.434-0.976 0-1.946 0.023-2.911 0.067l0.137-0.005c-1.080-0.065-2.343-0.102-3.615-0.102-20.186 0-38.197 9.312-49.973 23.874l-0.095 0.121c-9.113 14.433-14.521 31.996-14.521 50.822 0 2.426 0.090 4.831 0.266 7.212l-0.019-0.318v86.885c-0.202 2.348-0.317 5.081-0.317 7.841 0 18.543 5.196 35.872 14.212 50.611l-0.242-0.425c11.796 15.372 30.176 25.184 50.847 25.184 0.888 0 1.772-0.018 2.651-0.054l-0.126 0.004c0.843 0.041 1.831 0.064 2.824 0.064 20.398 0 38.497-9.841 49.81-25.034l0.117-0.165c8.774-14.313 13.97-31.643 13.97-50.185 0-2.76-0.115-5.493-0.341-8.195l0.024 0.353v-51.51zM762.104 323.879c-14.895 0-22.342-11.481-22.342-34.133v-22.652h44.373v22.652c0 24.204-8.378 34.133-22.032 34.133zM596.713 323.879c-8.841-0.465-16.641-4.564-21.996-10.818l-0.035-0.042v-149.566c5.344-6.414 13.148-10.622 21.943-11.167l0.088-0.004c13.033 0 19.549 11.171 19.549 33.202v107.365c0 21.101-6.516 31.030-19.549 31.030zM620.606 548.538c21.412 2.432 39.696 14.061 51.041 30.781l0.159 0.249v-27.307h44.994v248.242h-43.753v-189.905c-9.93-13.964-19.239-21.101-28.238-21.101s-9.619 3.724-10.55 10.55c-0.264 2.605-0.415 5.629-0.415 8.688s0.151 6.084 0.445 9.066l-0.030-0.377v183.079h-44.684v-197.353c-0.068-1.532-0.106-3.329-0.106-5.136 0-11.303 1.511-22.254 4.342-32.66l-0.202 0.87c4.194-10.456 14.245-17.705 25.989-17.705 0.354 0 0.707 0.007 1.058 0.020l-0.051-0.001zM308.441 686.933v-134.982h49.959v134.982l59.888 198.284h-50.269l-34.133-130.948-35.375 130.948h-52.441c10.55-31.030 21.411-62.061 31.030-93.091 11.089-28.43 21.86-63.583 30.254-99.648l1.087-5.544zM485.314 548.538c0.687-0.027 1.493-0.043 2.302-0.043 20.524 0 38.721 9.963 50.019 25.316l0.121 0.172c8.95 14.479 14.253 32.032 14.253 50.825 0 2.644-0.105 5.263-0.311 7.854l0.022-0.342v87.195c0.216 2.41 0.339 5.213 0.339 8.044 0 18.621-5.325 35.999-14.536 50.692l0.234-0.4c-11.418 15.525-29.615 25.488-50.139 25.488-0.81 0-1.616-0.016-2.418-0.046l0.115 0.004c-0.231 0.003-0.505 0.005-0.778 0.005-20.507 0-38.692-9.947-49.991-25.279l-0.12-0.171c-8.977-14.294-14.303-31.672-14.303-50.293 0-2.832 0.123-5.635 0.364-8.404l-0.025 0.359v-87.195c-0.216-2.41-0.339-5.213-0.339-8.044 0-18.621 5.325-35.999 14.536-50.692l-0.234 0.4c11.42-15.503 29.604-25.45 50.111-25.45 0.274 0 0.547 0.002 0.82 0.005h-0.041zM465.455 727.273c0 22.962 6.827 34.444 21.411 34.444s21.411-11.481 21.411-34.444v-104.572c0-22.962-6.827-34.444-21.411-34.444s-21.411 12.722-21.411 35.685z" />
<glyph unicode="&#xe907;" horiz-adv-x="1446" d="M192 132.267c34.133 89.6 89.6 132.267 166.4 128s140.8-55.467 153.6-128h473.6v17.067c0 230.4 0 456.533 0 686.933 0 4.267 0 8.533 0 8.533 0 25.6-17.067 46.933-42.667 46.933 0 0-4.267 0-4.267 0-153.6 0-311.467 0-465.067 0-72.533 0-145.067 0-221.867 0-25.6 8.533-51.2-8.533-55.467-34.133 0 0 0 0 0 0-4.267-17.067-21.333-29.867-38.4-25.6s-29.867 21.333-25.6 38.4c0 0 0 4.267 0 4.267 12.8 51.2 55.467 85.333 106.667 85.333 102.4 0 204.8 0 307.2 0 123.733 0 251.733 0 375.467 0 59.733 4.267 115.2-38.4 119.467-102.4 0-4.267 0-12.8 0-17.067 0-51.2 0-102.4 0-153.6 0 0 0-4.267 0-4.267 4.267 0 12.8 0 17.067 0 72.533 0 145.067 0 217.6 0 17.067 0 34.133-8.533 42.667-25.6 38.4-85.333 76.8-170.667 115.2-256 4.267-8.533 8.533-21.333 8.533-34.133 0-85.333 0-170.667 0-256 0-29.867-8.533-42.667-42.667-42.667-29.867 0-29.867 0-38.4-25.6-34.133-85.333-128-123.733-209.067-93.867-46.933 17.067-81.067 55.467-98.133 102.4 0 4.267-4.267 8.533-4.267 12.8h-537.6c-17.067-76.8-85.333-132.267-162.133-128-72.533 0-123.733 42.667-157.867 128-17.067 0-29.867 0-46.933 0-59.733 0-110.933 46.933-110.933 106.667 0 0 0 4.267 0 4.267 0 17.067 4.267 34.133 4.267 51.2s17.067 29.867 34.133 29.867c0 0 0 0 0 0 17.067 0 29.867-17.067 29.867-34.133 0 0 0 0 0 0 0-12.8-4.267-29.867-4.267-42.667-4.267-25.6 12.8-46.933 38.4-51.2 4.267 0 4.267 0 8.533 0 17.067 4.267 29.867 4.267 46.933 4.267zM1382.4 337.067c-38.4 8.533-76.8 25.6-110.933 38.4-93.867 42.667-157.867 128-179.2 226.133 0 4.267-4.267 12.8-8.533 12.8-12.8 0-21.333 0-34.133 0v-482.133h4.267c4.267 4.267 4.267 8.533 4.267 12.8 25.6 81.067 110.933 132.267 192 110.933 55.467-12.8 102.4-55.467 119.467-110.933 0-4.267 4.267-8.533 8.533-12.8h4.267v72.533c-25.6 4.267-34.133 8.533-34.133 34.133 0 38.4 4.267 42.667 38.4 51.2l-4.267 46.933zM349.867 196.267c-55.467 0-98.133-42.667-98.133-98.133s42.667-98.133 98.133-98.133c55.467 0 98.133 42.667 98.133 98.133 0 0 0 0 0 0 0 55.467-42.667 98.133-98.133 98.133zM1216 196.267c-55.467 0-98.133-42.667-98.133-98.133s42.667-98.133 98.133-98.133c55.467 0 98.133 42.667 98.133 98.133s-42.667 98.133-98.133 98.133c0 0 0 0 0 0v0zM1156.267 618.667c21.333-102.4 102.4-179.2 204.8-200.533 0 0 0 0 0 0-29.867 64-59.733 128-85.333 192 0 4.267-4.267 4.267-8.533 4.267-38.4 4.267-72.533 4.267-110.933 4.267v0z" />
<glyph unicode="&#xe908;" horiz-adv-x="1446" d="M550.4 332.8c-46.933 0-93.867 0-136.533 0-29.867 0-42.667 17.067-38.4 46.933 8.533 81.067 17.067 166.4 25.6 247.467 4.267 17.067 12.8 34.133 25.6 46.933 42.667 29.867 85.333 64 128 98.133 8.533 8.533 21.333 8.533 29.867 12.8 93.867 0 187.733 0 277.333 0 17.067 4.267 34.133-8.533 38.4-25.6 0-4.267 0-8.533 0-12.8-8.533-85.333-21.333-174.933-29.867-260.267 0-12.8-8.533-25.6-21.333-34.133-42.667-29.867-85.333-64-123.733-98.133-12.8-8.533-25.6-12.8-42.667-12.8-42.667-8.533-85.333-8.533-132.267-8.533zM465.067 605.867l-25.6-204.8c0 0 4.267 0 4.267 0 72.533 0 140.8 0 213.333 0 8.533 0 8.533 4.267 12.8 12.8 8.533 64 12.8 123.733 21.333 187.733 0 4.267 0 8.533 0 8.533h-226.133zM827.733 674.133c-21.333-17.067-42.667-34.133-64-51.2-4.267-4.267-4.267-8.533-4.267-12.8-4.267-29.867-8.533-64-12.8-93.867-4.267-25.6-4.267-51.2-8.533-81.067 21.333 17.067 42.667 34.133 64 46.933 4.267 4.267 4.267 4.267 4.267 8.533 8.533 64 12.8 123.733 21.333 183.467v0zM533.333 674.133c4.267 0 8.533 0 8.533 0 55.467 0 110.933 0 166.4 0 4.267 0 4.267 0 8.533 0 17.067 12.8 34.133 25.6 55.467 42.667-4.267 0-4.267 0-8.533 0-55.467 0-110.933 0-170.667 0-4.267 0-4.267 0-8.533 0-12.8-12.8-29.867-29.867-51.2-42.667v0z" />
<glyph unicode="&#xe909;" horiz-adv-x="1446" d="M234.667 797.867c34.133 0 72.533 0 106.667 0 12.8 0 25.6-4.267 34.133-12.8 8.533-12.8 8.533-34.133-8.533-42.667-4.267 0-4.267-4.267-8.533-4.267s-12.8-4.267-21.333 0c-68.267 0-140.8 0-209.067 0-4.267 0-8.533 0-8.533 0-17.067-4.267-29.867 8.533-29.867 25.6s12.8 34.133 34.133 34.133c0 0 0 0 0 0 21.333 0 42.667 0 68.267 0 12.8 0 29.867 0 42.667 0v0z" />
<glyph unicode="&#xe90a;" horiz-adv-x="1446" d="M128 541.867c-29.867 0-64 0-93.867 0-17.067 0-34.133 12.8-34.133 29.867 0 8.533 0 12.8 4.267 17.067 8.533 12.8 17.067 17.067 29.867 17.067 64 0 123.733 0 187.733 0 17.067 0 34.133-12.8 38.4-29.867 0 0 0 0 0-4.267 0-17.067-17.067-34.133-34.133-34.133 0 0 0 0-4.267 0-29.867 4.267-64 4.267-93.867 4.267z" />
<glyph unicode="&#xe90b;" horiz-adv-x="1446" d="M136.533 409.6c17.067 0 29.867 0 46.933 0s34.133-12.8 34.133-29.867c0-17.067-12.8-34.133-29.867-34.133 0 0 0 0-4.267 0-34.133 0-64 0-98.133 0-17.067 0-34.133 12.8-34.133 29.867 0 0 0 0 0 0 0 17.067 12.8 34.133 29.867 34.133 0 0 0 0 4.267 0 17.067 0 34.133 0 51.2 0z" />
<glyph unicode="&#xe90c;" horiz-adv-x="1446" d="M349.867 132.267c-17.067 0-29.867-12.8-29.867-34.133 0-17.067 12.8-29.867 34.133-29.867 17.067 0 29.867 12.8 29.867 34.133 0 0 0 0 0 0 0 17.067-17.067 29.867-34.133 29.867z" />
<glyph unicode="&#xe90d;" horiz-adv-x="1446" d="M1181.867 102.4c0-17.067 12.8-29.867 29.867-34.133 17.067 0 34.133 12.8 34.133 29.867s-12.8 34.133-29.867 34.133c0 0 0 0-4.267 0-12.8 0-29.867-12.8-29.867-29.867 0 0 0 0 0 0z" />
<glyph unicode="&#xe90e;" horiz-adv-x="1446" d="M349.867 132.267c17.067 0 34.133-12.8 29.867-34.133 0-17.067-12.8-34.133-34.133-29.867-17.067 0-34.133 12.8-29.867 34.133 0 0 0 0 0 0 4.267 17.067 17.067 29.867 34.133 29.867z" />
<glyph unicode="&#xe90f;" horiz-adv-x="1446" d="M1181.867 102.4c0 17.067 12.8 29.867 29.867 29.867 0 0 0 0 0 0 17.067 0 34.133-12.8 34.133-29.867s-12.8-34.133-29.867-34.133c0 0 0 0-4.267 0-12.8 0-29.867 17.067-29.867 34.133z" />
<glyph unicode="&#xe910;" glyph-name="shopping-bag" horiz-adv-x="926" d="M925.696-64h-925.696l155.648 749.568h626.688l143.36-749.568zM49.152-23.040h823.296l-126.976 667.648h-557.056l-139.264-667.648zM655.36 681.472h-40.96v131.072c0 57.344-49.152 106.496-106.496 106.496h-90.112c-61.44 0-106.496-49.152-106.496-106.496v-126.976h-40.96v126.976c0 81.92 65.536 147.456 147.456 147.456h90.112c81.92 0 147.456-65.536 147.456-147.456v-131.072z" />
<glyph unicode="&#xe911;" glyph-name="next" horiz-adv-x="530" d="M18.286-64l-18.286 20.898 493.714 491.102-493.714 493.714 18.286 18.286 512-512z" />
<glyph unicode="&#xe912;" glyph-name="prev" horiz-adv-x="530" d="M512 960l18.286-18.286-493.714-493.714 493.714-491.102-18.286-20.898-512 512z" />
<glyph unicode="&#xe913;" glyph-name="arrow-down-thin" horiz-adv-x="1898" d="M989.483-64l-989.483 943.461 80.539 80.539 908.944-862.921 828.404 862.921 80.539-80.539z" />
<glyph unicode="&#xe914;" glyph-name="arrow-up" horiz-adv-x="1761" d="M1617.92-64l-768 737.28-706.56-727.040-143.36 143.36 839.68 870.4 921.6-870.4z" />
<glyph unicode="&#xe915;" glyph-name="shopping-bags" horiz-adv-x="981" d="M730.912 59.025c68.749 0 126.643 54.276 126.643 126.643v79.604c25.329 7.237 36.184 36.184 28.947 57.894s-36.184 36.184-57.894 28.947c-25.329-7.237-36.184-36.184-28.947-57.894 3.618-14.473 14.473-25.329 28.947-28.947v-79.604c0-54.276-43.42-94.078-94.078-94.078s-94.078 43.42-94.078 94.078v79.604c25.329 7.237 36.184 36.184 28.947 57.894-7.237 25.329-36.184 36.184-57.894 28.947s-36.184-36.184-28.947-57.894c3.618-14.473 14.473-25.329 28.947-28.947v-79.604c-7.237-72.367 47.039-126.643 119.406-126.643zM839.463 323.166c10.855 0 18.092-7.237 18.092-18.092s-7.237-18.092-18.092-18.092c-10.855 0-18.092 7.237-18.092 18.092 0 0 0 0 0 0 0 10.855 7.237 18.092 18.092 18.092zM618.742 323.166c10.855 0 18.092-7.237 18.092-18.092s-7.237-18.092-18.092-18.092c-10.855 0-18.092 7.237-18.092 18.092 0 0 0 0 0 0 0 10.855 10.855 18.092 18.092 18.092zM50.657-64h890.12c21.71 0 39.802 18.092 39.802 39.802 0 0 0 3.618 0 3.618l-18.092 159.208c0 7.237-7.237 14.473-18.092 14.473-7.237 0-14.473-7.237-14.473-18.092 0 0 0 0 0 0l18.092-159.208c0-3.618-3.618-7.237-7.237-10.855 0 0 0 0 0 0h-423.35c-3.618 0-7.237 3.618-7.237 7.237 0 0 0 0 0 0l43.42 394.403c0 3.618 3.618 7.237 7.237 7.237h340.127c3.618 0 7.237-3.618 7.237-7.237l18.092-166.445c0-7.237 7.237-14.473 18.092-14.473 7.237 0 14.473 7.237 14.473 18.092 0 0 0 0 0 0l-18.092 166.445c-3.618 18.092-18.092 36.184-39.802 36.184h-166.445l-21.71 209.866c-3.618 25.329-25.329 47.039-50.657 47.039h-57.894v86.841c-7.237 115.788-97.696 209.866-213.484 209.866s-209.866-94.078-209.866-206.247c0 0 0 0 0 0v-86.841h-61.512c-25.329-3.618-47.039-21.71-50.657-47.039l-68.749-625.979c-3.618-28.947 18.092-54.276 47.039-57.894 0 0 3.618 0 3.618 0v0zM28.947-9.724l68.749 625.979c3.618 10.855 10.855 18.092 21.71 18.092h61.512v-54.276c-25.329-7.237-39.802-36.184-32.565-61.512s36.184-39.802 61.512-32.565c25.329 7.237 39.802 36.184 32.565 61.512-3.618 14.473-18.092 25.329-32.565 32.565v54.276h144.735c7.237 0 14.473 7.237 14.473 14.473s-7.237 14.473-14.473 14.473c0 0 0 0 0 0h-144.735v86.841c0 97.696 79.604 177.3 177.3 180.919s177.3-79.604 180.919-177.3c0 0 0 0 0 0v-86.841h-144.735c-7.237 0-14.473-7.237-14.473-14.473s7.237-14.473 14.473-14.473h144.735v-54.276c-25.329-7.237-39.802-36.184-32.565-61.512s36.184-39.802 61.512-32.565c25.329 7.237 39.802 36.184 32.565 61.512-3.618 14.473-18.092 25.329-32.565 32.565v50.657h57.894c10.855 0 21.71-7.237 21.71-18.092l21.71-209.866h-141.117c-18.092 0-36.184-14.473-39.802-36.184l-43.42-394.403c0-3.618 0-7.237 0-14.473h-423.35c-10.855 3.618-21.71 14.473-21.71 28.947 0-3.618 0 0 0 0v0zM195.392 551.124c10.855 0 18.092-7.237 18.092-18.092s-7.237-18.092-18.092-18.092c-10.855 0-18.092 7.237-18.092 18.092s7.237 18.092 18.092 18.092v0zM582.558 551.124c10.855 0 18.092-7.237 18.092-18.092s-7.237-18.092-18.092-18.092c-10.855 0-18.092 7.237-18.092 18.092s7.237 18.092 18.092 18.092v0z" />
<glyph unicode="&#xe916;" glyph-name="arrow-right" horiz-adv-x="1645" d="M1131.386 960l-92.045-95.88 349.004-349.004h-1388.345v-134.232h1388.345l-349.004-349.004 92.045-95.88 513.918 510.082z" />
<glyph unicode="&#xe917;" glyph-name="card" horiz-adv-x="1448" d="M1244.215 960h-1046.022c-110.108 0-198.194-88.086-198.194-203.699v0-622.108c0-110.108 88.086-203.699 203.699-203.699h1046.022c110.108 0 203.699 88.086 203.699 203.699v0 622.108c-5.505 115.613-93.591 203.699-209.204 203.699v0zM192.688 888.43h1057.032c71.57 0 132.129-60.559 132.129-132.129v-275.269h-1321.29v275.269c5.505 71.57 60.559 132.129 132.129 132.129v0zM1381.849 414.968v-192.688h-1321.29v192.688h1321.29zM1255.226 7.57h-1062.538c-71.57 0-132.129 60.559-132.129 132.129v16.516h1321.29v-16.516c0-71.57-55.054-132.129-126.624-132.129z" />
<glyph unicode="&#xe918;" glyph-name="address-book" horiz-adv-x="1019" d="M519.211 214.836v-177.878c0-52.883 43.268-96.15 96.15-96.15h230.761c52.883 0 96.15 43.268 96.15 96.15v177.878l33.653-33.653c9.615-9.615 24.038-9.615 33.653 0v0c9.615 9.615 9.615 24.038 0 33.653l-211.531 192.3c-38.46 33.653-96.15 33.653-134.61 0l-211.531-192.3c-9.615-9.615-9.615-24.038 0-33.653 4.808-4.808 9.615-9.615 14.423-9.615s14.423 0 14.423 4.808l38.46 38.46zM846.122-15.925h-230.761c-28.845 0-52.883 24.038-52.883 52.883v216.338l134.61 120.188c19.23 19.23 52.883 19.23 72.113 0l129.803-120.188v-221.146c0-24.038-24.038-48.075-52.883-48.075zM403.831 960c-221.146 0-403.831-182.685-403.831-403.831 0-81.728 24.038-158.648 67.305-225.953s91.343-124.995 149.033-182.685c57.69-62.498 110.573-124.995 158.648-197.108 4.808-9.615 19.23-14.423 33.653-9.615 9.615 4.808 14.423 19.23 4.808 33.653-48.075 72.113-100.958 139.418-163.455 201.915v0c-110.573 120.188-201.915 221.146-201.915 379.793 0 197.108 158.648 355.756 355.756 355.756s355.756-158.648 355.756-355.756c0-14.423 14.423-24.038 24.038-24.038 4.808 0 9.615 4.808 14.423 4.808 4.808 4.808 4.808 9.615 4.808 14.423 4.808 225.953-173.070 408.638-399.023 408.638v0zM403.831 796.545c-134.61 0-240.376-105.765-240.376-240.376s105.765-240.376 240.376-240.376c14.423 0 24.038 9.615 24.038 24.038s-9.615 24.038-24.038 24.038c0 0 0 0 0 0-105.765 0-192.3 86.535-192.3 192.3s86.535 192.3 192.3 192.3c105.765 0 192.3-86.535 192.3-192.3 0-14.423 9.615-24.038 24.038-24.038s24.038 9.615 24.038 24.038c0 129.803-105.765 240.376-240.376 240.376z" />
<glyph unicode="&#xe919;" glyph-name="arrow-up-thin" horiz-adv-x="1898" d="M1817.888-64l-908.944 862.921-828.404-862.921-80.539 80.539 908.944 943.461 989.483-943.461z" />
<glyph unicode="&#xe91a;" glyph-name="arrow-down" horiz-adv-x="1761" d="M921.6-64l-921.6 870.4 143.36 153.6 768-727.040 706.56 727.040 143.36-143.36z" />
<glyph unicode="&#xe91b;" glyph-name="close" d="M1.652 904.171l57.926 57.926 967.358-967.358-57.926-57.926-967.358 967.358zM1.636-11.054l967.358 967.358 57.926-57.926-967.358-967.358-57.926 57.926z" />
<glyph unicode="&#xe91c;" glyph-name="checkbox" d="M1024-64h-1024v1024h1024v-1024zM48.531-15.469h926.938v926.938h-926.938v-926.938z" />
<glyph unicode="&#xe91d;" d="M0 960h1024v-1024h-1024v1024z" />
<glyph unicode="&#xe91e;" d="M458.507 195.821l-254.726 224.159 30.567 35.662 224.159-193.592 407.562 402.468 30.567-30.567z" />
<glyph unicode="&#xe91f;" glyph-name="check" horiz-adv-x="1497" d="M550.538-64l-550.538 495.484 66.065 77.075 484.473-429.419 880.86 880.86 66.065-77.075z" />
<glyph unicode="&#xe920;" glyph-name="first" horiz-adv-x="1040" d="M992 960l48-64-448-448 448-448-48-64-512 512zM512 960l48-64-448-448 448-448-48-64-512 512z" />
<glyph unicode="&#xe921;" glyph-name="last" horiz-adv-x="1040" d="M64-64l-64 64 448 448-448 448 64 64 496-512zM544-64l-64 64 448 448-448 448 64 64 496-512z" />
</font>
</defs>
</svg>
