<?xml version="1.0" standalone="no"?>
<!DOCTYPE svg PUBLIC "-//W3C//DTD SVG 1.1//EN" "http://www.w3.org/Graphics/SVG/1.1/DTD/svg11.dtd" >
<svg xmlns="http://www.w3.org/2000/svg" xmlns:xlink="http://www.w3.org/1999/xlink" version="1.1">
<metadata>
Created by FontForge 20170731 at Sun Sep 19 04:00:45 2021
 By Aleksey,,,
Copyright (c) 1995 ParaGraph Intl., (c) 1998 ParaType Inc., ParaType Ltd. All rights reserved.
</metadata>
<defs>
<font id="SVN-FuturaBlackItalic" horiz-adv-x="1024" >
  <font-face 
    font-family="SVN-Futura Black"
    font-weight="950"
    font-style="italic"
    font-stretch="normal"
    units-per-em="2048"
    panose-1="2 11 10 2 2 2 4 9 2 3"
    ascent="1638"
    descent="-410"
    x-height="956"
    cap-height="1366"
    bbox="-748 -549 3090 2243"
    underline-thickness="102"
    underline-position="-307"
    slope="-7"
    unicode-range="U+0020-FB02"
  />
<missing-glyph horiz-adv-x="477" 
 />
    <glyph glyph-name=".notdef" horiz-adv-x="477" 
 />
    <glyph glyph-name=".null" horiz-adv-x="0" 
 />
    <glyph glyph-name="nonmarkingreturn" horiz-adv-x="682" 
 />
    <glyph glyph-name="space" unicode=" " horiz-adv-x="477" 
 />
    <glyph glyph-name="exclam" unicode="!" horiz-adv-x="827" 
d="M287 1366h495l-100 -829h-496zM385 432q116 0 195 -65.5t79 -163.5q0 -95 -78.5 -161.5t-189.5 -66.5t-191.5 69.5t-80.5 166.5q0 95 76 158t190 63z" />
    <glyph glyph-name="quotedbl" unicode="&#x22;" horiz-adv-x="851" 
d="M494 1366l-119 -549h-203l18 549h304zM877 1366l-117 -549h-205l18 549h304z" />
    <glyph glyph-name="numbersign" unicode="#" horiz-adv-x="1228" 
d="M991 612h207l-65 -239h-209l-105 -373h-274l106 373h-172l-106 -373h-271l107 373h-209l68 239h206l48 170h-205l65 238h207l98 346h269l-97 -346h172l99 346h272l-98 -346h205l-66 -238h-205zM717 612l49 170h-174l-47 -170h172z" />
    <glyph glyph-name="dollar" unicode="$" horiz-adv-x="1447" 
d="M1018 1583l-25 -197q93 -7 169 -29.5t186 -70.5l-158 -362q-147 129 -332 129q-168 0 -168 -92q0 -37 23.5 -49.5t128.5 -32.5q142 -24 218.5 -49.5t133.5 -63.5q139 -103 139 -293q0 -110 -51 -208t-145 -165q-70 -51 -134.5 -73.5t-195.5 -42.5l-29 -220h-297l29 220
q-88 12 -131 22.5t-103 34.5q-94 38 -202 98l162 371q57 -54 94 -79.5t96 -49.5q117 -51 233 -51q91 0 141 26.5t50 73.5q0 41 -30.5 60t-106.5 30q-245 34 -357 103q-69 45 -111 126.5t-42 174.5q0 186 129 308.5t358 153.5l25 197h303z" />
    <glyph glyph-name="percent" unicode="%" horiz-adv-x="2168" 
d="M547 1399q192 0 318 -99.5t126 -257.5q0 -176 -128 -291.5t-318 -115.5q-191 0 -310.5 105t-119.5 272q0 170 121 278.5t311 108.5zM639 1038q0 36 -21 59t-51 23q-37 0 -63.5 -31t-26.5 -73q0 -35 21.5 -59.5t50.5 -24.5q38 0 64 31t26 75zM1475 1366h245l-962 -1366
h-248zM1663 731q194 0 320 -100t126 -258q0 -176 -129 -292t-319 -116t-310 105.5t-120 271.5q0 171 121 280t311 109zM1755 369q0 37 -21 59.5t-51 22.5q-37 0 -63.5 -31t-26.5 -74q0 -35 21 -58.5t51 -23.5q38 0 64 30.5t26 74.5z" />
    <glyph glyph-name="ampersand" unicode="&#x26;" horiz-adv-x="1779" 
d="M1649 451l-228 -154l293 -297h-600l-72 86q-81 -41 -132 -59t-134 -37q-109 -25 -190 -25q-221 0 -365.5 126t-144.5 317q0 98 42 176.5t120 128.5q11 7 20.5 12t20.5 10t18 8t21 7.5t20 7t24 7t24.5 6.5t30.5 8t34 9q-57 69 -81 126t-24 124q0 172 146 280.5t378 108.5
q221 0 362.5 -106t141.5 -272q0 -236 -319 -359l104 -125q76 56 114 92.5t118 130.5zM799 1030q0 -23 10 -45t39 -63q58 30 81 56t23 62q0 32 -20 54t-51 22q-36 0 -59 -24t-23 -62zM797 367l-142 159q-98 -30 -98 -102q0 -38 32.5 -62t86.5 -24q52 0 121 29z" />
    <glyph glyph-name="quotesingle" unicode="'" horiz-adv-x="473" 
d="M498 1366l-119 -549h-207l18 549h308z" />
    <glyph glyph-name="parenleft" unicode="(" horiz-adv-x="876" 
d="M651 -328l-391 -143q-58 175 -82.5 268t-44.5 217q-24 163 -24 310q0 379 129 700q51 128 104.5 227t189.5 318l349 -238q-185 -301 -263.5 -539.5t-78.5 -508.5q0 -136 18 -252q19 -117 35.5 -183.5t58.5 -175.5z" />
    <glyph glyph-name="parenright" unicode=")" horiz-adv-x="876" 
d="M246 1425l391 144q58 -173 82.5 -265.5t44.5 -220.5q24 -164 24 -315q0 -372 -126 -694q-47 -122 -100.5 -219t-196.5 -326l-349 238q185 295 263.5 535t78.5 505q0 144 -18 260q-17 107 -34.5 172.5t-59.5 185.5z" />
    <glyph glyph-name="asterisk" unicode="*" horiz-adv-x="1454" 
d="M518 1358l197 -90l8 225h246l-49 -225l219 90l47 -234l-228 -51l129 -170l-215 -143l-94 192l-137 -192l-182 143l170 170l-215 51z" />
    <glyph glyph-name="plus" unicode="+" 
d="M96 573v246h312v314h266v-314h309v-246h-309v-313h-266v313h-312z" />
    <glyph glyph-name="comma" unicode="," horiz-adv-x="704" 
d="M154 375h477l-383 -703h-365z" />
    <glyph glyph-name="hyphen" unicode="-" horiz-adv-x="849" 
d="M729 358h-645l47 369h645z" />
    <glyph glyph-name="period" unicode="." horiz-adv-x="727" 
d="M336 432q110 0 187 -66t77 -161q0 -97 -79.5 -164.5t-196.5 -67.5q-112 0 -187.5 62.5t-75.5 154.5q0 98 82 170t193 72z" />
    <glyph glyph-name="slash" unicode="/" horiz-adv-x="1308" 
d="M-213 -395l1004 1888h354l-1006 -1888h-352z" />
    <glyph glyph-name="zero" unicode="0" horiz-adv-x="1447" 
d="M764 1399q183 0 331 -86t232 -239t84 -343q0 -214 -90.5 -389.5t-249 -276t-352.5 -100.5q-183 0 -327 85t-224 238t-80 347q0 217 88 392t242.5 273.5t345.5 98.5zM717 375q86 0 144.5 114t58.5 279q0 98 -39.5 156.5t-102.5 58.5q-78 0 -138 -112.5t-60 -260.5
q0 -111 35.5 -173t101.5 -62z" />
    <glyph glyph-name="one" unicode="1" horiz-adv-x="1447" 
d="M440 1366h727l-168 -1366h-503l114 944l-223 -16z" />
    <glyph glyph-name="two" unicode="2" horiz-adv-x="1447" 
d="M1128 389h183l-47 -389h-1258l678 612q6 6 19 18q40 38 61 59.5t49 56t40.5 67t12.5 66.5q0 62 -35 92q-30 26 -75 26q-66 0 -105 -61q-30 -55 -30 -117h-500q39 263 186 410q85 83 198.5 126.5t278.5 43.5q279 0 437 -146q141 -135 141 -338q0 -195 -148 -337
q-73 -67 -170 -123q-63 -38 -194 -84l6 -23q58 23 125 33q52 8 147 8z" />
    <glyph glyph-name="three" unicode="3" horiz-adv-x="1447" 
d="M172 205q-42 62 -59 114t-29 154h504q-2 -14 -2 -33q0 -59 35.5 -94t93.5 -35q62 0 104.5 40t42.5 100q0 54 -37 88t-94 34q-32 0 -47 -4l35 281q18 -6 41 -6q54 0 86.5 30t32.5 78q0 44 -29.5 74.5t-71.5 30.5q-94 0 -106 -113h-475q12 75 25 114.5t42 88.5
q56 90 137 141q163 111 396 111q159 0 287 -52t200 -145t72 -209q0 -108 -64.5 -181.5t-171.5 -90.5v-21q103 -19 163 -96t60 -192q0 -200 -169 -323.5t-445 -123.5q-187 0 -331.5 62t-225.5 178z" />
    <glyph glyph-name="four" unicode="4" horiz-adv-x="1447" 
d="M1219 633h188l-47 -373h-189l-30 -260h-457l33 260h-680l45 373l639 733h588zM690 633h84l14 115q13 117 82 270l-20 2q-45 -85 -117 -178l-94 -121q-59 -63 -127 -117l8 -14q49 26 79.5 34.5t90.5 8.5z" />
    <glyph glyph-name="five" unicode="5" horiz-adv-x="1447" 
d="M463 1366h915l-47 -385h-561l-37 -127q91 25 172 25q205 0 334 -123q113 -113 113 -275q0 -191 -138 -329q-184 -187 -583 -187q-168 0 -309 33q-134 34 -220 72l103 362q89 -42 182 -67q99 -27 219 -27q114 0 174 31q35 18 53.5 43.5t18.5 50.5q0 76 -98 112
q-64 25 -189 25q-109 0 -215 -25q-57 -15 -117 -34z" />
    <glyph glyph-name="six" unicode="6" horiz-adv-x="1447" 
d="M698 1366h695l-381 -303q-13 -10 -24.5 -19.5t-17 -14t-7.5 -5.5q-29 -23 -62 -37q-12 -5 -41 -16l6 -27q41 14 90 14q170 0 282 -121.5t112 -306.5q0 -244 -184.5 -404.5t-465.5 -160.5q-182 0 -326.5 72t-225 200.5t-80.5 290.5q0 229 165 420q65 71 148 142zM702 350
q72 0 120 51t48 129q0 68 -43 111t-110 43q-69 0 -119.5 -52t-50.5 -124t43 -115t112 -43z" />
    <glyph glyph-name="seven" unicode="7" horiz-adv-x="1447" 
d="M268 1366h1305l-909 -1366h-564l533 762q88 130 180 207l-6 14q-43 -14 -84 -14h-66h-438z" />
    <glyph glyph-name="eight" unicode="8" horiz-adv-x="1447" 
d="M1104 692l-2 -16q237 -52 237 -270q0 -189 -173 -315t-435 -126q-177 0 -323 60t-229 165t-83 232q0 135 80 216t223 93l4 17q-190 55 -190 245q0 175 160.5 290.5t404.5 115.5q165 0 301 -54t213.5 -148.5t77.5 -209.5q0 -133 -96 -217q-34 -30 -68 -45t-102 -33z
M786 844q48 0 80.5 31.5t32.5 78.5t-32 79t-79 32t-78.5 -32t-31.5 -79t31.5 -78.5t76.5 -31.5zM719 297q60 0 100.5 40t40.5 97q0 62 -39.5 103t-99.5 41t-101.5 -40t-41.5 -100t40.5 -100.5t100.5 -40.5z" />
    <glyph glyph-name="nine" unicode="9" horiz-adv-x="1447" 
d="M793 0h-672l307 248q127 98 219 141l-10 23q-53 -15 -102 -15q-172 0 -291 126.5t-119 310.5q0 162 85.5 291t238 201.5t342.5 72.5q177 0 319 -71t222.5 -199t80.5 -289q0 -99 -34.5 -202t-94.5 -177q-53 -67 -154 -158zM762 664q70 0 123 56.5t53 133.5q0 68 -44 112
t-112 44q-73 0 -124.5 -53t-51.5 -128q0 -72 44 -118.5t112 -46.5z" />
    <glyph glyph-name="colon" unicode=":" horiz-adv-x="727" 
d="M403 1010q110 0 187.5 -66.5t77.5 -161.5q0 -98 -80 -165.5t-197 -67.5q-112 0 -187 62.5t-75 156.5q0 98 82 170t192 72zM336 432q110 0 187 -66t77 -161q0 -97 -79.5 -164.5t-196.5 -67.5q-112 0 -187.5 62.5t-75.5 154.5q0 98 82 170t193 72z" />
    <glyph glyph-name="semicolon" unicode=";" horiz-adv-x="704" 
d="M154 375h477l-383 -703h-365zM461 1010q110 0 187 -66.5t77 -161.5q0 -98 -80 -165.5t-196 -67.5q-113 0 -188 62.5t-75 156.5q0 98 81.5 170t193.5 72z" />
    <glyph glyph-name="less" unicode="&#x3c;" 
d="M68 797l886 450v-262l-606 -301l604 -303l2 -262l-886 454v224z" />
    <glyph glyph-name="equal" unicode="=" 
d="M96 758v231h887v-231h-887zM96 403v232h887v-232h-887z" />
    <glyph glyph-name="greater" unicode="&#x3e;" 
d="M1010 571l-887 -452v264l606 301l-604 301l-2 262l887 -452v-224z" />
    <glyph glyph-name="question" unicode="?" horiz-adv-x="1265" 
d="M494 547l43 311q46 -16 90 -16q85 0 123 32q47 37 47 99q0 42 -27 69q-28 25 -65 25q-46 0 -72 -33q-25 -27 -25 -90h-458q22 178 143 299q149 154 422 154q270 0 422 -152q116 -122 116 -289q0 -176 -112 -288q-137 -140 -453 -140q-104 0 -194 19zM612 434
q121 0 194 -73.5t73 -163.5q0 -97 -81.5 -160.5t-191.5 -63.5q-121 0 -194.5 70t-73.5 158q0 87 75.5 160t198.5 73z" />
    <glyph glyph-name="at" unicode="@" horiz-adv-x="1499" 
d="M913 721q0 52 -26 84q-29 33 -72 33q-63 0 -113 -47q-36 -31 -60 -84.5t-24 -106.5q0 -47 29 -84q29 -33 70 -33q49 0 102 39q40 32 67 90t27 109zM999 930l23 78h182l-121 -390q-20 -56 -20 -90q0 -26 14 -36q11 -11 35 -11q30 0 62 25q66 51 97.5 146t31.5 175
q0 168 -115 277q-129 113 -295 113q-115 0 -229.5 -47t-200.5 -128q-83 -82 -135 -197.5t-52 -238.5q0 -98 34.5 -184t92.5 -143q134 -127 363 -127q199 0 375 69l22 -176q-186 -70 -409 -70q-317 0 -488 166q-82 77 -130 194t-48 259q0 324 244 559q118 114 265 175t310 61
q270 0 436 -181q134 -146 134 -354q0 -127 -41.5 -242.5t-118.5 -191.5q-105 -105 -240 -105q-86 0 -129 43q-30 30 -37 68q-46 -55 -106 -90q-64 -39 -152 -39q-104 0 -174 70q-76 76 -76 200q0 188 138 332q127 129 282 129q67 0 111 -27q46 -28 65 -71z" />
    <glyph glyph-name="A" unicode="A" horiz-adv-x="1449" 
d="M877 182h-336l-66 -182h-532l630 1366h566l254 -1366h-506zM748 741l-93 -247h189l-21 247q-4 46 -4 97q0 63 6 108h-16q-26 -113 -61 -205z" />
    <glyph glyph-name="B" unicode="B" horiz-adv-x="1394" 
d="M1085 713l2 -13q108 -23 166 -99t58 -193q0 -180 -131.5 -294t-333.5 -114h-766l168 1366h612q166 0 266.5 -48.5t151.5 -152.5q35 -75 35 -147q0 -123 -59 -201.5t-169 -103.5zM752 1038h-70l-25 -196h43q80 0 117 25t37 81q0 90 -102 90zM707 555h-84l-29 -236h33
q111 0 160 32.5t49 109.5q0 49 -30.5 71.5t-98.5 22.5z" />
    <glyph glyph-name="C" unicode="C" horiz-adv-x="1191" 
d="M850 1399q180 0 354 -64l-41 -485q-132 106 -272 106q-123 0 -212 -90t-89 -213q0 -104 76 -174.5t188 -70.5q77 0 140.5 28t127.5 88l-59 -497q-175 -62 -311 -62q-187 0 -337 87.5t-234.5 242.5t-84.5 348q0 214 98 387t270.5 271t385.5 98z" />
    <glyph glyph-name="D" unicode="D" horiz-adv-x="1523" 
d="M80 0l168 1366h463q361 0 564.5 -174.5t203.5 -486.5q0 -164 -64.5 -303t-185.5 -236q-115 -90 -251.5 -128t-350.5 -38h-547zM754 965h-62l-67 -559h69q122 0 208.5 91t86.5 220q0 109 -66 178.5t-169 69.5z" />
    <glyph glyph-name="E" unicode="E" horiz-adv-x="1124" 
d="M248 1366h897l-43 -356h-404l-18 -150h369l-41 -338h-369l-18 -155h417l-45 -367h-913z" />
    <glyph glyph-name="F" unicode="F" horiz-adv-x="1071" 
d="M248 1366h872l-45 -365h-377l-18 -149h352l-45 -360h-352l-60 -492h-495z" />
    <glyph glyph-name="G" unicode="G" horiz-adv-x="1652" 
d="M856 795h748v-13q0 -397 -226 -616q-115 -115 -252 -158t-295 -43q-161 0 -291 42t-243 155q-201 189 -201 487q0 152 55 288t154 237q39 39 87.5 73.5t122 72t175.5 59.5t217 22q224 0 385 -83t269 -263l-465 -183q-59 115 -183 115q-123 0 -208 -78q-52 -49 -82.5 -122
t-30.5 -158q0 -128 78 -209q71 -74 192 -74q26 0 51.5 4.5t60.5 18.5t63.5 46.5t43.5 80.5h-266z" />
    <glyph glyph-name="H" unicode="H" horiz-adv-x="1556" 
d="M1034 1366h496l-168 -1366h-496l62 498h-293l-60 -498h-495l168 1366h495l-57 -467h291z" />
    <glyph glyph-name="I" unicode="I" horiz-adv-x="776" 
d="M248 1366h502l-168 -1366h-502z" />
    <glyph glyph-name="J" unicode="J" horiz-adv-x="933" 
d="M412 1366h495l-112 -915q-13 -116 -41 -201.5t-95 -155.5q-121 -129 -362 -129q-224 0 -367 107l160 442q20 -45 51 -84q18 -21 35 -30t45 -9q41 0 62 29q15 26 24 94z" />
    <glyph glyph-name="K" unicode="K" horiz-adv-x="1499" 
d="M248 1366h495l-45 -354q-18 -145 -43 -238l15 -4q50 120 86 174l47 76l217 346h577l-532 -692l348 -674h-522l-174 393q-50 108 -70 201l-14 -2v-41q0 -80 -10 -158l-48 -393h-495z" />
    <glyph glyph-name="L" unicode="L" horiz-adv-x="1085" 
d="M248 1366h502l-117 -954l420 12l-52 -424h-921z" />
    <glyph glyph-name="M" unicode="M" horiz-adv-x="1941" 
d="M1276 1366h522l4 -1366h-481l27 403q7 163 47 379l-19 4l-10 -38q-24 -102 -45 -164t-66 -170l-174 -414h-311l-53 432q-3 13 -5 48t-5 55q-7 89 -7 122v27q0 63 5 102h-17l-4 -30q-24 -187 -57 -324l-101 -432h-501l397 1366h524l53 -426q11 -90 11 -152q0 -72 -13 -149
h21q17 91 43 173.5t78 215.5z" />
    <glyph glyph-name="N" unicode="N" horiz-adv-x="1662" 
d="M1135 1366h501l-168 -1366h-479l-237 471q-60 123 -109 277l-8 24h-17q9 -94 9 -164q0 -102 -6 -137l-43 -471h-498l168 1366h497l242 -514q44 -95 86 -242l12 -45l21 2l-4 45q-10 127 -10 189q0 89 8 162z" />
    <glyph glyph-name="O" unicode="O" horiz-adv-x="1654" 
d="M1382 1210q228 -187 228 -516q0 -205 -97.5 -372t-269 -262t-381.5 -95q-159 0 -301 54t-243.5 147t-160.5 222.5t-59 275.5q0 153 59 289.5t159.5 234t240 154.5t295.5 57q148 0 285 -48.5t245 -140.5zM840 395q116 0 193 83.5t77 207.5q0 109 -70 184.5t-172 75.5
q-111 0 -190.5 -84.5t-79.5 -202.5q0 -115 68.5 -189.5t173.5 -74.5z" />
    <glyph glyph-name="P" unicode="P" horiz-adv-x="1361" 
d="M815 416h-188l-52 -416h-495l168 1366h569q140 0 230.5 -24t162.5 -80q82 -66 127 -160.5t45 -202.5q0 -97 -38 -189t-105 -159q-75 -72 -173.5 -103.5t-250.5 -31.5zM750 1010h-52l-30 -254h45q188 0 188 145q0 61 -33 85t-118 24z" />
    <glyph glyph-name="Q" unicode="Q" horiz-adv-x="1660" 
d="M1475 285q-27 -31 -54 -52l178 -268l-415 -133l-90 186q-85 -32 -137.5 -42.5t-131.5 -10.5q-268 0 -467 158q-258 197 -258 541q0 208 100 376.5t275.5 263.5t390.5 95q309 0 527 -191q119 -105 173 -228.5t54 -293.5q0 -133 -35 -229.5t-110 -171.5zM764 563l348 37
q10 65 10 90q0 103 -75 179.5t-175 76.5q-115 0 -194.5 -91t-79.5 -220q0 -113 71 -189.5t175 -76.5q21 0 61 6z" />
    <glyph glyph-name="R" unicode="R" horiz-adv-x="1435" 
d="M1243 614q-43 -36 -83.5 -51.5t-119.5 -27.5l297 -535h-536l-123 330q-34 83 -53 182l-15 -2q2 -47 2 -100q0 -96 -10 -181l-27 -229h-495l168 1366h543q167 0 260 -24.5t170 -86.5q75 -63 117 -152.5t42 -187.5q0 -91 -35.5 -169t-101.5 -132zM737 999h-39l-30 -245h41
q86 0 136 36.5t50 98.5q0 110 -158 110z" />
    <glyph glyph-name="S" unicode="S" horiz-adv-x="1243" 
d="M1139 1303q30 -13 86 -46l-183 -362q-135 123 -299 123q-41 0 -67.5 -20.5t-26.5 -51.5t27.5 -47t122.5 -41q150 -39 221 -90q69 -47 109 -129t40 -176q0 -135 -80 -249.5t-217.5 -181.5t-298.5 -67q-206 0 -413 98q-50 23 -127 66l184 369q62 -75 153 -118.5t189 -43.5
q54 0 84.5 21.5t30.5 58.5q0 35 -30 56.5t-99 39.5q-128 24 -195 61q-196 94 -196 336q0 134 75 246.5t204 178t282 65.5q212 0 424 -96z" />
    <glyph glyph-name="T" unicode="T" horiz-adv-x="1001" 
d="M123 1366h975l-54 -430l-235 14l-117 -950h-502l117 950l-235 -14z" />
    <glyph glyph-name="U" unicode="U" horiz-adv-x="1552" 
d="M1024 1366h502l-92 -756q-29 -220 -65 -311t-126 -174q-93 -82 -204.5 -121t-258.5 -39q-300 0 -483 148q-82 66 -118 150.5t-36 207.5q0 44 7 109l98 786h502l-93 -756q-10 -82 -10 -100q0 -62 31.5 -94.5t91.5 -32.5q71 0 107 47.5t53 161.5z" />
    <glyph glyph-name="V" unicode="V" horiz-adv-x="1421" 
d="M971 1366h561l-684 -1366h-430l-307 1366h518l53 -430q12 -94 12 -203q0 -75 -8 -182l21 -2q35 263 106 432z" />
    <glyph glyph-name="W" unicode="W" horiz-adv-x="2129" 
d="M1679 1366h562l-656 -1366h-418l-61 440q-16 115 -16 226q0 30 2 57l-19 2l-6 -23q-25 -126 -55 -204l-45 -123l-140 -375h-442l-274 1366h512l45 -530q8 -79 8 -181q0 -6 -4 -108h20l6 39q17 139 86 336l166 444h408l57 -520q15 -144 15 -246q0 -8 -3 -55h21
q18 146 32 211.5t52 175.5z" />
    <glyph glyph-name="X" unicode="X" horiz-adv-x="1515" 
d="M1567 1366l-518 -657l409 -709h-534l-105 223q-33 67 -55 156h-16q-19 -66 -46 -107l-28 -49l-131 -223h-600l569 729l-371 637h559l66 -172q34 -86 41 -139h12q27 83 66 149l84 162h598z" />
    <glyph glyph-name="Y" unicode="Y" horiz-adv-x="1400" 
d="M1526 1366l-576 -786l-71 -580h-492l74 592l-365 774h543l70 -223q18 -56 26 -156h19q22 74 49 129l127 250h596z" />
    <glyph glyph-name="Z" unicode="Z" horiz-adv-x="1296" 
d="M891 397l371 9l-50 -406h-1243l17 123l477 672q55 76 84 108t63 51l-6 17q-60 -18 -178 -27l-313 -8l53 430h1192l-17 -121l-505 -713q-46 -66 -71 -93t-63 -52l9 -16q20 7 33 11t32.5 6.5t26 3t40.5 2.5t48 3z" />
    <glyph glyph-name="bracketleft" unicode="[" horiz-adv-x="880" 
d="M666 1323l-191 -1548h266l-20 -170h-270h-406l231 1888h676l-20 -170h-266z" />
    <glyph glyph-name="backslash" unicode="\" horiz-adv-x="1515" 
d="M-168 -395l1292 1888h355l-1295 -1888h-352z" />
    <glyph glyph-name="bracketright" unicode="]" horiz-adv-x="880" 
d="M236 -225l190 1548h-266l20 170h676l-231 -1888h-410h-266l20 170h267z" />
    <glyph glyph-name="asciicircum" unicode="^" 
d="M539 1124l-207 -448h-295l328 690h348l329 -690h-294z" />
    <glyph glyph-name="underscore" unicode="_" 
d="M-61 -401v307h1024v-307h-1024z" />
    <glyph glyph-name="grave" unicode="`" 
d="M330 1370l239 150l236 -299l-176 -113z" />
    <glyph glyph-name="a" unicode="a" horiz-adv-x="1335" 
d="M825 956h471l-118 -956h-469q23 96 51 170l-15 6q-62 -109 -129.5 -156t-164.5 -47q-161 0 -280.5 133.5t-119.5 313.5q0 149 66.5 280.5t177 210t235.5 78.5q115 0 181.5 -47t107.5 -158l17 7q-11 93 -11 145v20zM647 336q57 0 95 42.5t38 108.5q0 54 -31.5 89.5
t-80.5 35.5q-56 0 -97 -46t-41 -109q0 -54 33 -87.5t84 -33.5z" />
    <glyph glyph-name="b" unicode="b" horiz-adv-x="1308" 
d="M225 1493h473l-57 -467q-15 -117 -57 -229l12 -9q89 201 281 201q162 0 270 -136.5t108 -340.5q0 -148 -60.5 -272t-165.5 -195.5t-230 -71.5q-201 0 -295 193l-15 -4q11 -70 11 -123v-39h-459zM664 336q54 0 89 42.5t35 108.5q0 57 -31.5 93t-80.5 36q-54 0 -90.5 -43
t-36.5 -106q0 -56 33 -93.5t82 -37.5z" />
    <glyph glyph-name="c" unicode="c" horiz-adv-x="894" 
d="M614 1010q71 0 129 -11t156 -43l-59 -401q-74 86 -168 86q-67 0 -108.5 -45t-41.5 -119q0 -66 37 -103.5t103 -37.5q83 0 159 67l-69 -393q-73 -23 -115 -30t-100 -7q-212 0 -347 133.5t-135 344.5q0 252 153.5 405.5t405.5 153.5z" />
    <glyph glyph-name="d" unicode="d" horiz-adv-x="1316" 
d="M872 1493h474l-185 -1493h-473q22 93 47 160l-16 8q-86 -195 -287 -195q-164 0 -271.5 128t-107.5 323q0 152 60.5 282t165.5 206.5t229 76.5q216 0 287 -209l18 4q-8 52 -8 72q0 97 14 207zM637 346q53 0 87.5 39.5t39.5 103.5v11q0 56 -31 89.5t-82 33.5
q-54 0 -91.5 -43.5t-37.5 -106.5q0 -54 33.5 -90.5t81.5 -36.5z" />
    <glyph glyph-name="e" unicode="e" horiz-adv-x="1228" 
d="M1171 401h-659q-2 -14 -2 -32q0 -58 26.5 -92.5t73.5 -34.5q68 0 101 80h442q-31 -82 -55.5 -122.5t-73.5 -84.5q-165 -142 -410 -142q-247 0 -402 133.5t-155 348.5q0 149 75 270t206.5 189.5t292.5 68.5q151 0 277 -64.5t198 -176t72 -244.5q0 -25 -7 -97zM643 717
q-94 0 -115 -125h215q0 125 -100 125z" />
    <glyph glyph-name="f" unicode="f" horiz-adv-x="782" 
d="M762 590l-135 12l-74 -602h-473l74 602l-123 -12l47 375l117 -21l20 166q26 188 125 287q119 119 338 119q101 0 207 -29l-45 -363q-38 17 -60 17q-36 0 -63 -27q-29 -29 -39 -113l-8 -57l137 12z" />
    <glyph glyph-name="g" unicode="g" horiz-adv-x="1318" 
d="M813 956h467l-106 -862q-20 -168 -64.5 -263t-134.5 -161q-181 -139 -453 -139q-100 0 -218 23t-218 61q-13 4 -61 25l127 311q94 -56 162 -79.5t145 -23.5q75 0 136.5 31.5t90.5 85.5q17 33 26.5 68t30.5 137l-14 4q-47 -99 -109.5 -139.5t-168.5 -40.5
q-171 0 -283.5 128t-112.5 324q0 227 136.5 385t332.5 158q110 0 178.5 -46t104.5 -148l14 4l-4 55l-2 70zM639 334q60 0 96.5 39.5t36.5 101.5q0 60 -31.5 97.5t-81.5 37.5q-57 0 -97 -43.5t-40 -105.5q0 -57 33 -92t84 -35z" />
    <glyph glyph-name="h" unicode="h" horiz-adv-x="1294" 
d="M225 1493h473l-53 -432q-17 -146 -51 -256l18 -6q108 190 303 190q128 0 215 -88t87 -217q0 -48 -9 -109l-69 -575h-475l57 463q6 27 6 63q0 72 -61 72q-47 0 -67.5 -32t-31.5 -120l-53 -446h-473z" />
    <glyph glyph-name="i" unicode="i" horiz-adv-x="679" 
d="M166 956h473l-117 -956h-473zM227 1192q-1 67 52.5 112.5t132.5 45.5q85 0 139.5 -45t56.5 -113q-5 -67 -59 -111.5t-139 -44.5q-78 0 -132.5 45.5t-50.5 110.5z" />
    <glyph glyph-name="j" unicode="j" horiz-adv-x="698" 
d="M184 956h473l-182 -1425h-473zM250 1192q-1 67 52.5 112.5t131.5 45.5q85 0 140 -45t57 -113q-5 -67 -59.5 -111.5t-139.5 -44.5q-78 0 -132 45.5t-50 110.5z" />
    <glyph glyph-name="k" unicode="k" horiz-adv-x="1331" 
d="M225 1493h473l-69 -571q-20 -157 -60 -359l15 -2q27 65 49 105.5t76 117.5l116 172h564l-412 -493l274 -463h-524l-86 186q-38 83 -54.5 128t-27.5 106l-18 -2q6 -55 6 -117q0 -34 -4 -80l-29 -221h-473z" />
    <glyph glyph-name="l" unicode="l" horiz-adv-x="669" 
d="M225 1493h473l-184 -1493h-473z" />
    <glyph glyph-name="m" unicode="m" horiz-adv-x="1849" 
d="M158 956h460q-4 -22 -8 -39.5t-7 -27.5t-12 -38.5t-16 -51.5l23 -4q62 106 130.5 150t172.5 44q211 0 246 -201h16q77 201 295 201q143 0 228.5 -84t85.5 -225q0 -39 -11 -133l-67 -547h-461l59 483q6 47 6 60q0 31 -15 51t-40 20q-42 0 -60 -32t-28 -129l-57 -453h-461
l57 471l8 51v23q0 31 -14 49t-39 18q-42 0 -61 -30.5t-29 -116.5l-57 -465h-461z" />
    <glyph glyph-name="n" unicode="n" horiz-adv-x="1296" 
d="M158 956h475q-10 -51 -14 -68t-12 -43.5t-21 -58.5l16 -4q72 115 140 162t161 47q135 0 224.5 -88.5t89.5 -222.5q0 -40 -11 -145l-65 -535h-475l57 463q6 27 6 63q0 72 -61 72q-48 0 -68.5 -31t-30.5 -121l-55 -446h-473z" />
    <glyph glyph-name="o" unicode="o" horiz-adv-x="1271" 
d="M639 983q263 0 422.5 -136.5t159.5 -361.5q0 -219 -166 -365.5t-414 -146.5q-252 0 -417 141t-165 357q0 145 75.5 262.5t208 183.5t296.5 66zM637 336q56 0 91.5 41.5t35.5 107.5q0 57 -33 95t-84 38q-54 0 -92.5 -44t-38.5 -105q0 -58 34 -95.5t87 -37.5z" />
    <glyph glyph-name="p" unicode="p" horiz-adv-x="1320" 
d="M168 956h475q-11 -64 -39 -145l19 -8q57 104 116.5 146t151.5 42q104 0 191 -64t137.5 -174t50.5 -239q0 -142 -60 -267t-161.5 -199.5t-217.5 -74.5q-113 0 -190 50.5t-109 146.5l-16 -6q6 -55 6 -117q0 -63 -10 -158l-45 -358h-475zM678 334q55 0 90 42.5t35 110.5
q0 57 -32 94t-79 37q-54 0 -90.5 -45.5t-36.5 -111.5q0 -57 31 -92t82 -35z" />
    <glyph glyph-name="q" unicode="q" horiz-adv-x="1304" 
d="M784 956h484l-176 -1425h-474l50 399q14 121 65 244l-18 8q-41 -102 -116.5 -155.5t-174.5 -53.5q-160 0 -266.5 130t-106.5 325q0 149 62.5 278.5t168 206t226.5 76.5q104 0 171.5 -48.5t108.5 -152.5l19 7q-15 63 -23 161zM631 346q54 0 91.5 42.5t37.5 103.5
q0 59 -30.5 94t-80.5 35q-55 0 -92 -42t-37 -104q0 -57 31.5 -93t79.5 -36z" />
    <glyph glyph-name="r" unicode="r" horiz-adv-x="880" 
d="M870 991q24 0 60 -8l-58 -471q-40 21 -61 28t-49 7q-175 0 -209 -266l-35 -281h-477l117 956h479q-23 -96 -53 -170l20 -10q65 120 125 167.5t141 47.5z" />
    <glyph glyph-name="s" unicode="s" horiz-adv-x="974" 
d="M555 1010q182 0 406 -86l-117 -289q-109 80 -221 80q-82 0 -82 -49q0 -42 55 -54l86 -20q108 -23 168.5 -93t60.5 -169q0 -156 -132.5 -256.5t-338.5 -100.5q-155 0 -342 70q-10 4 -24 10t-36 15t-38 16l115 289q149 -101 280 -101q76 0 76 52q0 27 -23.5 43.5
t-82.5 29.5q-144 32 -202.5 89t-58.5 161q0 156 128 259.5t323 103.5z" />
    <glyph glyph-name="t" unicode="t" horiz-adv-x="722" 
d="M741 590l-114 12l-74 -602h-473l74 602l-123 -12l47 375l117 -21l43 336h473l-41 -336l116 12z" />
    <glyph glyph-name="u" unicode="u" horiz-adv-x="1296" 
d="M784 956h476l-66 -526q-17 -134 -51 -206.5t-107 -133.5q-150 -117 -391 -117q-264 0 -407.5 106t-143.5 302q0 49 6 111l58 464h475l-58 -464q-8 -63 -8 -84q0 -31 19.5 -51.5t50.5 -20.5q43 0 60 27.5t28 109.5z" />
    <glyph glyph-name="v" unicode="v" horiz-adv-x="1157" 
d="M705 956h532l-555 -956h-399l-244 956h475l23 -282q4 -78 4 -105q0 -65 -6 -133h18q21 151 61 266z" />
    <glyph glyph-name="w" unicode="w" horiz-adv-x="1691" 
d="M1247 956h525l-506 -956h-385l-23 174q-18 140 -18 229q0 6 1 30.5t1 41.5l-17 4q-6 -23 -16.5 -62.5t-14.5 -54.5t-10.5 -40t-10.5 -37.5t-9.5 -27t-11.5 -26.5l-97 -231h-381l-235 956h481l23 -245q6 -55 6 -115q0 -76 -6 -158l20 -2q18 91 29 135q2 2 26 84l97 301
h338l39 -276q6 -53 18 -238h18q4 70 12 111t36 143z" />
    <glyph glyph-name="x" unicode="x" horiz-adv-x="1296" 
d="M766 956h577l-432 -479l332 -477h-522l-41 88q-27 57 -35 121l-14 2q-10 -31 -51 -98l-72 -113h-569l444 504l-317 452h538l33 -100q10 -30 18 -90l19 2q14 44 37 88z" />
    <glyph glyph-name="y" unicode="y" horiz-adv-x="1210" 
d="M780 956h510l-743 -1425h-508l180 346q49 86 70 118.5t63 78.5l-289 882h488l41 -266q14 -76 14 -153q0 -66 -4 -99l21 -2q31 163 69 269z" />
    <glyph glyph-name="z" unicode="z" horiz-adv-x="1054" 
d="M127 956h944l-8 -61l-295 -418q-41 -58 -117 -115l8 -22q29 14 52 18t67 4h219l-45 -362h-966l8 72l285 424q8 10 24 29t21 25t16 18t17.5 17.5t17 12.5t22.5 14l-10 19q-55 -31 -131 -31h-172z" />
    <glyph glyph-name="braceleft" unicode="{" horiz-adv-x="1030" 
d="M694 1112l-30 -252q-12 -99 -29.5 -154.5t-46 -89t-84.5 -69.5q54 -41 74 -80.5t20 -106.5q0 -27 -4 -73l-31 -252l-8 -76q-2 -16 -2 -41q0 -45 31 -60.5t121 -15.5q17 0 40 2l-28 -235l-70 -2l-65 -2h-25q-150 0 -214 51.5t-64 173.5q0 41 8 121l39 317q4 32 4 58
q0 53 -22 80t-72 38l26 226q99 18 117 92l12 47l8 72l39 315q20 161 99.5 229t248.5 68q4 0 12.5 -1t12.5 -1l66 -2l67 -2l-29 -234h-43q-102 0 -134.5 -21t-39.5 -95z" />
    <glyph glyph-name="bar" unicode="|" 
d="M379 -512v2048h266v-2048h-266z" />
    <glyph glyph-name="braceright" unicode="}" horiz-adv-x="1030" 
d="M389 -16l37 305q12 105 42.5 156.5t111.5 103.5q-55 38 -75 77.5t-20 108.5q0 26 4 72l37 305l2 25q4 32 4 43q0 44 -30 58.5t-121 14.5h-41l29 234l69 2l66 2q4 0 11 1t11 1q152 0 216.5 -51.5t64.5 -173.5q0 -18 -4 -72l-45 -369q-4 -32 -4 -57q0 -54 22 -81t72 -38
l-27 -225q-97 -21 -116 -94l-13 -47l-4 -15l-45 -370q-20 -160 -99.5 -227.5t-246.5 -67.5h-25l-65 2l-68 2l29 235q23 -2 43 -2q101 0 134 22t40 95z" />
    <glyph glyph-name="asciitilde" unicode="~" 
d="M324 524q-52 0 -82 -25t-68 -100l-145 97l14 34q54 134 122.5 192t172.5 58q72 0 213 -53q91 -33 117 -40t59 -7q51 0 80.5 21t66.5 83l150 -88q-54 -112 -92 -159.5t-101 -81.5q-62 -33 -133 -33q-30 0 -65 10t-144 47q-91 31 -116 38t-49 7z" />
    <glyph glyph-name="uni00A0" unicode="&#xa0;" horiz-adv-x="477" 
 />
    <glyph glyph-name="exclamdown" unicode="&#xa1;" horiz-adv-x="841" 
d="M567 -471h-495l102 829h496zM483 463q-116 0 -195 65.5t-79 163.5q0 95 78.5 161.5t189.5 66.5t192 -69t81 -165q0 -94 -76.5 -158.5t-190.5 -64.5z" />
    <glyph glyph-name="cent" unicode="&#xa2;" horiz-adv-x="1447" 
d="M1032 1372l-20 -172q81 -6 145 -39l-57 -395q-67 84 -162 84q-66 0 -109 -43q-43 -45 -43 -109q0 -58 39 -94q18 -17 49 -27t58 -10q92 0 162 70l-70 -391q-74 -31 -135 -37l-25 -189h-213l25 189q-130 29 -211 108q-141 130 -141 357q0 115 42 217.5t115 175.5
q58 56 142.5 94.5t185.5 48.5l18 162h205z" />
    <glyph glyph-name="sterling" unicode="&#xa3;" horiz-adv-x="1447" 
d="M971 332h258q-5 -73 -33 -147t-76 -122q-90 -90 -268 -90q-116 0 -215 41l-80 33q-4 2 -25 10.5t-29.5 11.5t-25.5 7t-31 4q-50 0 -81 -31q-20 -20 -29 -49h-232q11 126 82 227q65 91 172 133q6 16 9 36t4 33t1.5 37t0.5 32h-246l31 225h170q-41 109 -41 215
q0 182 129 311q148 148 385 148q107 0 201 -30.5t155 -90.5q105 -105 105 -279q0 -50 -13 -120h-315q6 24 6 65q0 78 -37 115q-35 35 -88 35q-67 0 -108 -41q-45 -45 -45 -119q0 -38 15.5 -94.5t20.5 -114.5h273l-31 -225h-242q0 -105 -41 -166q14 -6 42.5 -19t39 -17.5
t31 -13.5t30 -12t24 -7t25.5 -5.5t23 -1.5q42 0 68 20q22 22 31 56z" />
    <glyph glyph-name="currency" unicode="&#xa4;" horiz-adv-x="1366" 
d="M223 137l-143 144l211 211q-90 134 -90 282q0 77 21 142.5t69 138.5l-213 213l145 145l213 -213q137 90 287 90q78 0 143.5 -20.5t137.5 -67.5l210 209l144 -143l-209 -209q51 -79 71.5 -144t20.5 -143q0 -144 -88 -278l211 -211l-143 -146l-211 211q-139 -92 -291 -92
q-76 0 -143 20.5t-144 69.5zM999 772q0 117 -80.5 199t-197.5 82t-198 -82t-81 -199t81 -197.5t198 -80.5t197.5 80.5t80.5 197.5z" />
    <glyph glyph-name="yen" unicode="&#xa5;" horiz-adv-x="1447" 
d="M934 506h422l-27 -221h-422l-35 -285h-491l35 285h-402l27 221h401l13 86l-49 102h-343l29 221h209l-211 451h543l69 -223q20 -73 27 -156h16q19 65 52 129l125 250h596l-328 -451h217l-29 -221h-350l-84 -114z" />
    <glyph glyph-name="brokenbar" unicode="&#xa6;" 
d="M379 690v846h266v-846h-266zM379 -512v846h266v-846h-266z" />
    <glyph glyph-name="section" unicode="&#xa7;" horiz-adv-x="1447" 
d="M1341 1108q0 -30 -2 -57h-348v22q0 75 -44 119.5t-118 44.5q-60 0 -93.5 -27.5t-33.5 -74.5t34.5 -80t115.5 -62l96 -32q111 -39 176 -82t107 -109q59 -89 59 -184q0 -100 -59.5 -185.5t-161.5 -126.5q56 -68 78 -126t22 -142q0 -192 -136 -296.5t-384 -104.5
q-263 0 -407 110.5t-156 321.5h387v-14q0 -66 46 -110t118 -44q60 0 94.5 31t34.5 86q0 56 -39 90t-137 65q-140 43 -189 66.5t-102 71.5q-52 40 -79 106t-27 141q0 100 51.5 175.5t165.5 134.5q-57 63 -83 127t-26 143q0 180 146.5 283.5t398.5 103.5q134 0 217.5 -24.5
t150.5 -84.5q60 -54 93.5 -127.5t33.5 -148.5zM885 555q0 60 -40.5 97.5t-103.5 37.5q-69 0 -113 -37.5t-44 -97.5t41.5 -99.5t103.5 -39.5q66 0 111 39.5t45 99.5z" />
    <glyph glyph-name="dieresis" unicode="&#xa8;" 
d="M154 1315q0 88 61 149.5t147 61.5q88 0 149.5 -61.5t61.5 -149.5q0 -86 -61.5 -147.5t-149.5 -61.5q-86 0 -147 61.5t-61 147.5zM659 1315q0 88 61.5 149.5t147.5 61.5q88 0 149.5 -61.5t61.5 -149.5q0 -86 -61.5 -147.5t-149.5 -61.5q-86 0 -147.5 61.5t-61.5 147.5z
" />
    <glyph glyph-name="copyright" unicode="&#xa9;" horiz-adv-x="1556" 
d="M94 684q0 145 56.5 277t152.5 227.5t228.5 152t277.5 56.5q143 0 274 -57t226 -153t151 -228t56 -277t-56 -277t-150.5 -227.5t-226 -152t-276.5 -56.5t-277 56.5t-227.5 152.5t-152 228.5t-56.5 277.5zM1352 684q0 153 -73 282.5t-198.5 205t-273.5 75.5
q-149 0 -275.5 -75.5t-200 -205.5t-73.5 -284t73.5 -284t200 -205.5t275.5 -75.5q148 0 273.5 76.5t198.5 207t73 283.5zM1077 621l-6 -324q-88 -37 -229 -37q-183 0 -308.5 119.5t-125.5 296.5q0 180 127.5 304t312.5 124q118 0 215 -31q2 -2 8 -4l6 -328l-20 17
q-87 65 -162 65q-62 0 -104.5 -39.5t-42.5 -99.5t44 -100.5t107 -40.5q45 0 81 12.5t77 46.5z" />
    <glyph glyph-name="ordfeminine" unicode="&#xaa;" horiz-adv-x="780" 
d="M510 874h-8q-29 -37 -68 -59q-41 -24 -115 -24q-89 0 -147 51q-74 70 -74 190q0 68 27 137.5t74 116.5q80 80 200 80q56 0 99 -25q34 -21 55 -55q-2 6 -2 29v10l4 25h289l-68 -545h-287l3 18q2 13 18 51zM745 547h-694l23 188h694zM393 1065q0 -22 15 -37q16 -16 49 -16
q36 0 55 22q20 20 20 53q0 25 -18 43q-18 15 -45 15q-36 0 -59 -29q-17 -24 -17 -51z" />
    <glyph glyph-name="guillemotleft" unicode="&#xab;" horiz-adv-x="1114" 
d="M565 137l-196 -127l-295 455l393 471l174 -145l-291 -330zM997 137l-196 -127l-295 455l393 471l174 -145l-291 -330z" />
    <glyph glyph-name="logicalnot" unicode="&#xac;" 
d="M932 0h-266v307h-621v240h887v-547z" />
    <glyph glyph-name="uni00AD" unicode="&#xad;" horiz-adv-x="849" 
d="M729 358h-645l47 369h645z" />
    <glyph glyph-name="registered" unicode="&#xae;" horiz-adv-x="1581" 
d="M872 -45q-194 0 -359.5 96.5t-263 263t-97.5 363.5q0 146 57 279t153 229.5t229.5 153.5t280.5 57q117 0 227 -36t199 -102.5t156.5 -154.5t104 -198t36.5 -228q0 -197 -97.5 -363.5t-263.5 -263t-362 -96.5zM874 1249q-111 0 -214.5 -46.5t-179 -124t-120.5 -183
t-45 -219.5q0 -117 45 -223.5t120.5 -183t178.5 -122t215 -45.5t215.5 45.5t178.5 122.5t119.5 183t44.5 223q0 154 -75.5 286t-204 209.5t-278.5 77.5zM811 324h-283v723h349q148 0 231.5 -67.5t83.5 -188.5q0 -72 -33 -115.5t-108 -73.5l10 -12l20 -17l179 -249h-334
l-115 208v-208zM809 838v-107h31q65 0 65 51q0 24 -15 40t-40 16h-41z" />
    <glyph glyph-name="macron" unicode="&#xaf;" 
d="M938 1118h-696l24 205h697z" />
    <glyph glyph-name="degree" unicode="&#xb0;" horiz-adv-x="1021" 
d="M586 743q-135 0 -228 93q-92 92 -92 221q0 127 92 217q96 92 222 92q135 0 225 -90q92 -85 92 -219q0 -129 -92 -221q-93 -93 -219 -93zM438 1055q0 -57 42 -98.5t102 -41.5t101.5 41.5t41.5 98.5t-41.5 98t-101.5 41t-102 -41t-42 -98z" />
    <glyph glyph-name="plusminus" unicode="&#xb1;" 
d="M78 731v246h309v313h266v-313h312v-246h-312v-315h-266v315h-309zM78 102v246h887v-246h-887z" />
    <glyph glyph-name="twosuperior" unicode="&#xb2;" horiz-adv-x="1036" 
d="M893 817h78l-31 -262h-797l299 266q93 81 158 140l9 9l10 10t9 9.5t9.5 11t8 10.5t7.5 12t6 12.5t5.5 14t2.5 15t1 16.5q0 28 -17 52q-18 18 -49 18q-47 0 -67 -35q-16 -21 -21 -74h-293q10 153 121 252q114 105 291 105q153 0 254 -76q108 -85 108 -215q0 -101 -71 -172
q-64 -64 -215 -129l8 -19q88 29 176 29z" />
    <glyph glyph-name="threesuperior" unicode="&#xb3;" horiz-adv-x="954" 
d="M784 991v-12q43 -14 80 -51q43 -46 43 -119q0 -108 -73 -178q-55 -55 -123.5 -73.5t-157.5 -18.5q-107 0 -188 16.5t-140 71.5q-40 37 -65.5 94.5t-26.5 124.5h303q0 -47 17 -64q19 -22 57 -22q40 0 57 22q21 21 21 49q0 29 -21 50q-21 18 -57 18q-19 0 -23 -2l21 170
q16 -4 22 -4q34 0 50 20t16 45q0 30 -18 48q-14 14 -43 14q-25 0 -41 -16q-23 -23 -27 -64h-283q10 56 37 105.5t40.5 64.5t37.5 39q59 50 126.5 65t152.5 15q159 0 247 -68q88 -67 88 -178q0 -70 -47 -117q-33 -33 -82 -45z" />
    <glyph glyph-name="acute" unicode="&#xb4;" 
d="M473 1221l238 299l239 -150l-299 -262z" />
    <glyph glyph-name="mu" unicode="&#xb5;" horiz-adv-x="1353" 
d="M449 -471h-457l174 1427h475l-70 -569q0 -4 -1 -13t-1 -14q0 -34 15 -55q22 -35 71 -35t82 33q22 22 35 88l70 565h475l-117 -956h-457l2 18q0 3 23 105h-12q-16 -55 -51 -100q-31 -35 -84 -35q-49 0 -76 37q-22 36 -33 98h-12q6 -31 6 -96q0 -33 -2 -47z" />
    <glyph glyph-name="paragraph" unicode="&#xb6;" horiz-adv-x="1415" 
d="M618 -195h-249l104 838h-10q-170 0 -264 94q-80 80 -80 224q0 170 110 280q133 125 433 125h712l-28 -225h-144l-164 -1336h-250l164 1336h-170z" />
    <glyph glyph-name="periodcentered" unicode="&#xb7;" horiz-adv-x="563" 
d="M313 926q117 0 198 -70t81 -170q0 -104 -84.5 -174t-206.5 -70q-117 0 -196.5 66t-79.5 164q0 103 85.5 178.5t202.5 75.5z" />
    <glyph glyph-name="cedilla" unicode="&#xb8;" 
d="M242 -369l274 277l217 -156l-287 -264z" />
    <glyph glyph-name="onesuperior" unicode="&#xb9;" horiz-adv-x="655" 
d="M197 1380h417l-100 -819h-295l70 565l-125 -8z" />
    <glyph glyph-name="ordmasculine" unicode="&#xba;" horiz-adv-x="811" 
d="M532 1366q147 0 238 -72q86 -70 86 -186q0 -126 -86 -205q-108 -108 -315 -108q-157 0 -250 82q-78 71 -78 172q0 119 82 204q109 113 323 113zM84 735h737l-24 -188h-740zM422 1069q0 -27 14 -41q16 -16 49 -16q37 0 56 22q20 20 20 53q0 25 -18 43q-18 15 -45 15
q-30 0 -52 -19q-24 -21 -24 -57z" />
    <glyph glyph-name="guillemotright" unicode="&#xbb;" horiz-adv-x="1114" 
d="M133 809l197 127l288 -455l-393 -471l-172 146l289 325zM569 809l197 127l289 -455l-393 -471l-173 146l289 325z" />
    <glyph glyph-name="onequarter" unicode="&#xbc;" horiz-adv-x="1878" 
d="M147 1366h418l-100 -819h-295l70 565l-125 -8zM1163 1366h267l-963 -1366h-268zM1305 381h88l12 104q1 4 4.5 34.5t11.5 53.5l-10 7q-47 -60 -65 -78q-92 -97 -119 -121l2 -8q31 8 76 8zM1636 166l-14 -166h-299l29 166l-422 -10l26 217l396 446h370l-53 -438l107 10
l-29 -233z" />
    <glyph glyph-name="onehalf" unicode="&#xbd;" horiz-adv-x="1884" 
d="M147 1366h418l-100 -819h-295l70 565l-125 -8zM1679 262h78l-31 -262h-796l299 266q46 41 157 140l9 9l10 10t9 9.5t9.5 11t8 10.5t7.5 12t6 12.5t5.5 14t2.5 15t1 16.5q0 30 -16 52q-18 18 -49 18q-48 0 -68 -35q-16 -21 -21 -74h-292q10 154 120 252q114 105 291 105
q153 0 254 -76q109 -86 109 -215q0 -100 -72 -172q-64 -64 -215 -129l8 -19q88 29 176 29zM1163 1366h267l-963 -1366h-268z" />
    <glyph glyph-name="threequarters" unicode="&#xbe;" horiz-adv-x="2121" 
d="M766 989v-12q43 -14 80 -51q43 -46 43 -119q0 -107 -74 -178q-31 -31 -68.5 -51t-80 -28t-72.5 -10.5t-72 -2.5q-61 0 -106.5 4t-106.5 25t-102 59q-40 37 -65.5 94.5t-26.5 124.5h303q0 -48 16 -64q19 -22 58 -22q40 0 57 22q20 20 20 49q0 30 -20 50q-21 18 -57 18
q-19 0 -23 -2l20 170q16 -4 23 -4q33 0 49 20q17 21 17 45q0 29 -19 48q-14 14 -43 14q-24 0 -41 -17q-22 -22 -26 -63h-283q10 56 37 105.5t40.5 64.5t37.5 39q56 46 120 63t146 17q169 0 260 -68q88 -67 88 -178q0 -70 -47 -117q-33 -33 -82 -45zM1440 1366h266
l-963 -1366h-268zM1548 381h88l13 104q1 4 4.5 34.5t11.5 53.5l-10 7q-43 -55 -66 -78q-92 -97 -119 -121l3 -8q31 8 75 8zM1880 166l-14 -166h-299l28 166l-421 -10l26 217l395 446h371l-53 -438l106 10l-28 -233z" />
    <glyph glyph-name="questiondown" unicode="&#xbf;" horiz-adv-x="1275" 
d="M801 367l-43 -310q-53 17 -99 17q-84 0 -131 -47q-41 -41 -41 -103q0 -40 25 -65t70 -25q43 0 71 33q23 33 23 84h469q-8 -67 -30.5 -125.5t-52 -99.5t-53.5 -66t-48 -43q-144 -113 -402 -113q-269 0 -412 136q-116 108 -116 299q0 229 188 350q88 57 182.5 74.5
t223.5 17.5q108 0 176 -14zM684 463q-120 0 -194 69.5t-74 161.5q0 89 73.5 157.5t196.5 68.5q122 0 196 -70t74 -158q0 -90 -76.5 -159.5t-195.5 -69.5z" />
    <glyph glyph-name="Agrave" unicode="&#xc0;" horiz-adv-x="1449" 
d="M877 182h-336l-66 -182h-532l630 1366h566l254 -1366h-506zM748 741l-93 -247h189l-21 247q-4 46 -4 97q0 63 6 108h-16q-26 -113 -61 -205zM920 1452l-297 254l190 166l244 -289z" />
    <glyph glyph-name="Aacute" unicode="&#xc1;" horiz-adv-x="1449" 
d="M877 182h-336l-66 -182h-532l630 1366h566l254 -1366h-506zM748 741l-93 -247h189l-21 247q-4 46 -4 97q0 63 6 108h-16q-26 -113 -61 -205zM1186 1698l-379 -246l-117 127l324 293z" />
    <glyph glyph-name="Acircumflex" unicode="&#xc2;" horiz-adv-x="1449" 
d="M877 182h-336l-66 -182h-532l630 1366h566l254 -1366h-506zM748 741l-93 -247h189l-21 247q-4 46 -4 97q0 63 6 108h-16q-26 -113 -61 -205zM879 1599l-205 -145l-148 139l385 267l293 -267l-170 -139z" />
    <glyph glyph-name="Atilde" unicode="&#xc3;" horiz-adv-x="1449" 
d="M877 182h-336l-66 -182h-532l630 1366h566l254 -1366h-506zM748 741l-93 -247h189l-21 247q-4 46 -4 97q0 63 6 108h-16q-26 -113 -61 -205zM1075 1765l148 -94q-49 -99 -93 -135v2q-65 -59 -143 -59q-57 0 -108 32q-3 2 -17.5 9.5t-27.5 15.5q-46 18 -58 18
q-39 0 -69 -81l-148 94q44 98 84 135q59 53 139 53q50 0 105 -24l49 -25q8 -4 19.5 -9.5t17 -8.5t15 -5t20.5 -2q34 0 67 84z" />
    <glyph glyph-name="Adieresis" unicode="&#xc4;" horiz-adv-x="1449" 
d="M877 182h-336l-66 -182h-532l630 1366h566l254 -1366h-506zM748 741l-93 -247h189l-21 247q-4 46 -4 97q0 63 6 108h-16q-26 -113 -61 -205zM416 1706q0 85 59 145t146 60q85 0 144.5 -60t59.5 -145q0 -87 -59.5 -146t-144.5 -59q-88 0 -146.5 58.5t-58.5 146.5z
M922 1706q0 86 58.5 145.5t145.5 59.5q86 0 145.5 -59.5t59.5 -145.5q0 -87 -60 -146t-145 -59q-88 0 -146 58.5t-58 146.5z" />
    <glyph glyph-name="Aring" unicode="&#xc5;" horiz-adv-x="1449" 
d="M877 182h-336l-66 -182h-532l630 1366h566l254 -1366h-506zM748 741l-93 -247h189l-21 247q-4 46 -4 97q0 63 6 108h-16q-26 -113 -61 -205zM1155 1692q0 -101 -82 -166q-75 -58 -213 -58q-136 0 -211 56q-39 30 -61.5 74.5t-22.5 93.5q0 99 82 163q75 58 213 58t213 -58
q37 -30 59.5 -73.5t22.5 -89.5zM860 1761q-45 0 -72 -16q-30 -21 -30 -57q0 -34 30 -52q29 -16 72 -16q45 0 74 16t29 56q0 30 -29 53q-26 16 -74 16z" />
    <glyph glyph-name="AE" unicode="&#xc6;" horiz-adv-x="1884" 
d="M592 1366h979l63 -358h-415l24 -146h418l59 -348h-415l26 -143h416l65 -371h-913l-8 180h-338l-66 -180h-530zM768 758l-98 -269h190l-24 269q-2 18 -2 65q0 52 8 117l-23 4q-18 -92 -51 -186z" />
    <glyph glyph-name="Ccedilla" unicode="&#xc7;" horiz-adv-x="1191" 
d="M850 1399q180 0 354 -64l-41 -485q-132 106 -272 106q-123 0 -212 -90t-89 -213q0 -104 76 -174.5t188 -70.5q77 0 140.5 28t127.5 88l-59 -497q-175 -62 -311 -62q-187 0 -337 87.5t-234.5 242.5t-84.5 348q0 214 98 387t270.5 271t385.5 98zM406 -389l311 301l237 -168
l-323 -293z" />
    <glyph glyph-name="Egrave" unicode="&#xc8;" horiz-adv-x="1124" 
d="M248 1366h897l-43 -356h-404l-18 -150h369l-41 -338h-369l-18 -155h417l-45 -367h-913zM766 1452l-297 254l190 166l244 -289z" />
    <glyph glyph-name="Eacute" unicode="&#xc9;" horiz-adv-x="1124" 
d="M248 1366h897l-43 -356h-404l-18 -150h369l-41 -338h-369l-18 -155h417l-45 -367h-913zM1036 1698l-379 -246l-116 127l323 293z" />
    <glyph glyph-name="Ecircumflex" unicode="&#xca;" horiz-adv-x="1124" 
d="M248 1366h897l-43 -356h-404l-18 -150h369l-41 -338h-369l-18 -155h417l-45 -367h-913zM723 1599l-205 -145l-147 139l385 267l293 -267l-170 -139z" />
    <glyph glyph-name="Edieresis" unicode="&#xcb;" horiz-adv-x="1124" 
d="M248 1366h897l-43 -356h-404l-18 -150h369l-41 -338h-369l-18 -155h417l-45 -367h-913zM283 1706q0 86 58.5 145.5t145.5 59.5q85 0 145 -60t60 -145q0 -87 -60 -146t-145 -59q-88 0 -146 58.5t-58 146.5zM788 1706q0 85 59 145t146 60q86 0 145.5 -59.5t59.5 -145.5
q0 -87 -60 -146t-145 -59q-88 0 -146.5 58.5t-58.5 146.5z" />
    <glyph glyph-name="Igrave" unicode="&#xcc;" horiz-adv-x="776" 
d="M248 1366h502l-168 -1366h-502zM582 1452l-297 254l190 166l244 -289z" />
    <glyph glyph-name="Iacute" unicode="&#xcd;" horiz-adv-x="776" 
d="M248 1366h502l-168 -1366h-502zM838 1698l-379 -246l-117 127l324 293z" />
    <glyph glyph-name="Icircumflex" unicode="&#xce;" horiz-adv-x="776" 
d="M248 1366h502l-168 -1366h-502zM266 1466l-112 207l383 207l329 -235l-135 -179l-201 144z" />
    <glyph glyph-name="Idieresis" unicode="&#xcf;" horiz-adv-x="776" 
d="M248 1366h502l-168 -1366h-502zM78 1706q0 85 59 145t146 60q85 0 144.5 -60t59.5 -145q0 -87 -59.5 -146t-144.5 -59q-88 0 -146.5 58.5t-58.5 146.5zM584 1706q0 86 58.5 145.5t145.5 59.5q85 0 145 -60t60 -145q0 -87 -60 -146t-145 -59q-88 0 -146 58.5t-58 146.5z
" />
    <glyph glyph-name="Eth" unicode="&#xd0;" horiz-adv-x="1576" 
d="M133 0l70 573h-172l28 246h174l68 547h463q361 0 564.5 -174.5t203.5 -486.5q0 -164 -64.5 -303t-185.5 -236q-115 -90 -251.5 -128t-350.5 -38h-547zM807 965h-62l-20 -146h172l-29 -246h-170l-20 -167h70q122 0 208 91t86 220q0 109 -66 178.5t-169 69.5z" />
    <glyph glyph-name="Ntilde" unicode="&#xd1;" horiz-adv-x="1662" 
d="M1135 1366h501l-168 -1366h-479l-237 471q-60 123 -109 277l-8 24h-17q9 -94 9 -164q0 -102 -6 -137l-43 -471h-498l168 1366h497l242 -514q44 -95 86 -242l12 -45l21 2l-4 45q-10 127 -10 189q0 89 8 162zM1026 1698q25 0 39 11t31 46l170 -86q-68 -104 -117.5 -142
t-112.5 -38q-44 0 -118 27l-70 24q-47 12 -57 12q-31 0 -49 -14t-31 -49l-185 57q67 115 132 162t153 47q32 0 57.5 -6.5t85.5 -30.5q56 -20 72 -20z" />
    <glyph glyph-name="Ograve" unicode="&#xd2;" horiz-adv-x="1654" 
d="M1382 1210q228 -187 228 -516q0 -205 -97.5 -372t-269 -262t-381.5 -95q-159 0 -301 54t-243.5 147t-160.5 222.5t-59 275.5q0 153 59 289.5t159.5 234t240 154.5t295.5 57q148 0 285 -48.5t245 -140.5zM840 395q116 0 193 83.5t77 207.5q0 109 -70 184.5t-172 75.5
q-111 0 -190.5 -84.5t-79.5 -202.5q0 -115 68.5 -189.5t173.5 -74.5zM1032 1452l-297 254l191 166l243 -289z" />
    <glyph glyph-name="Oacute" unicode="&#xd3;" horiz-adv-x="1654" 
d="M1382 1210q228 -187 228 -516q0 -205 -97.5 -372t-269 -262t-381.5 -95q-159 0 -301 54t-243.5 147t-160.5 222.5t-59 275.5q0 153 59 289.5t159.5 234t240 154.5t295.5 57q148 0 285 -48.5t245 -140.5zM840 395q116 0 193 83.5t77 207.5q0 109 -70 184.5t-172 75.5
q-111 0 -190.5 -84.5t-79.5 -202.5q0 -115 68.5 -189.5t173.5 -74.5zM1323 1698l-379 -246l-117 127l324 293z" />
    <glyph glyph-name="Ocircumflex" unicode="&#xd4;" horiz-adv-x="1654" 
d="M1382 1210q228 -187 228 -516q0 -205 -97.5 -372t-269 -262t-381.5 -95q-159 0 -301 54t-243.5 147t-160.5 222.5t-59 275.5q0 153 59 289.5t159.5 234t240 154.5t295.5 57q148 0 285 -48.5t245 -140.5zM840 395q116 0 193 83.5t77 207.5q0 109 -70 184.5t-172 75.5
q-111 0 -190.5 -84.5t-79.5 -202.5q0 -115 68.5 -189.5t173.5 -74.5zM969 1599l-205 -145l-148 139l385 267l293 -267l-170 -139z" />
    <glyph glyph-name="Otilde" unicode="&#xd5;" horiz-adv-x="1654" 
d="M1382 1210q228 -187 228 -516q0 -205 -97.5 -372t-269 -262t-381.5 -95q-159 0 -301 54t-243.5 147t-160.5 222.5t-59 275.5q0 153 59 289.5t159.5 234t240 154.5t295.5 57q148 0 285 -48.5t245 -140.5zM840 395q116 0 193 83.5t77 207.5q0 109 -70 184.5t-172 75.5
q-111 0 -190.5 -84.5t-79.5 -202.5q0 -115 68.5 -189.5t173.5 -74.5zM1153 1765l147 -94q-49 -100 -92 -135v2q-65 -59 -143 -59q-58 0 -109 32q-3 2 -17.5 9.5t-27.5 15.5q-46 18 -57 18q-40 0 -70 -81l-147 94q44 98 84 135q59 53 139 53q50 0 105 -24l49 -25l19 -9.5
l17 -8.5t15 -5t20 -2q13 0 31.5 19t36.5 65z" />
    <glyph glyph-name="Odieresis" unicode="&#xd6;" horiz-adv-x="1654" 
d="M1382 1210q228 -187 228 -516q0 -205 -97.5 -372t-269 -262t-381.5 -95q-159 0 -301 54t-243.5 147t-160.5 222.5t-59 275.5q0 153 59 289.5t159.5 234t240 154.5t295.5 57q148 0 285 -48.5t245 -140.5zM840 395q116 0 193 83.5t77 207.5q0 109 -70 184.5t-172 75.5
q-111 0 -190.5 -84.5t-79.5 -202.5q0 -115 68.5 -189.5t173.5 -74.5zM426 1706q0 85 59 145t146 60q85 0 145 -60t60 -145q0 -87 -60 -146t-145 -59q-88 0 -146.5 58.5t-58.5 146.5zM932 1706q0 85 59 145t146 60q86 0 145 -59.5t59 -145.5q0 -87 -59.5 -146t-144.5 -59
q-88 0 -146.5 58.5t-58.5 146.5z" />
    <glyph glyph-name="multiply" unicode="&#xd7;" 
d="M270 354l-174 174l256 254l-256 256l189 189l256 -256l254 254l172 -174l-252 -254l258 -258l-189 -189l-258 258z" />
    <glyph glyph-name="Oslash" unicode="&#xd8;" horiz-adv-x="1736" 
d="M6 70l246 219q-113 161 -113 375q0 307 215 518q220 217 539 217q256 0 457 -131l254 219l180 -195l-242 -213q109 -174 109 -385q0 -154 -57 -286.5t-154 -229.5q-213 -213 -537 -213q-270 0 -465 137l-243 -227zM881 395q53 0 102.5 20t81.5 52q40 40 63 101.5
t23 117.5q0 50 -19.5 103t-56.5 90q-67 67 -166 67q-50 0 -100.5 -22t-87.5 -60q-36 -36 -59 -91.5t-23 -113.5q0 -56 22 -112.5t62 -91.5q31 -28 74.5 -44t83.5 -16z" />
    <glyph glyph-name="Ugrave" unicode="&#xd9;" horiz-adv-x="1552" 
d="M1024 1366h502l-92 -756q-29 -220 -65 -311t-126 -174q-93 -82 -204.5 -121t-258.5 -39q-300 0 -483 148q-82 66 -118 150.5t-36 207.5q0 44 7 109l98 786h502l-93 -756q-10 -82 -10 -100q0 -62 31.5 -94.5t91.5 -32.5q71 0 107 47.5t53 161.5zM903 1452l-297 254
l191 166l243 -289z" />
    <glyph glyph-name="Uacute" unicode="&#xda;" horiz-adv-x="1552" 
d="M1024 1366h502l-92 -756q-29 -220 -65 -311t-126 -174q-93 -82 -204.5 -121t-258.5 -39q-300 0 -483 148q-82 66 -118 150.5t-36 207.5q0 44 7 109l98 786h502l-93 -756q-10 -82 -10 -100q0 -62 31.5 -94.5t91.5 -32.5q71 0 107 47.5t53 161.5zM1241 1698l-379 -246
l-117 127l324 293z" />
    <glyph glyph-name="Ucircumflex" unicode="&#xdb;" horiz-adv-x="1552" 
d="M1024 1366h502l-92 -756q-29 -220 -65 -311t-126 -174q-93 -82 -204.5 -121t-258.5 -39q-300 0 -483 148q-82 66 -118 150.5t-36 207.5q0 44 7 109l98 786h502l-93 -756q-10 -82 -10 -100q0 -62 31.5 -94.5t91.5 -32.5q71 0 107 47.5t53 161.5zM655 1466l-112 207
l383 207l329 -235l-135 -179l-200 144z" />
    <glyph glyph-name="Udieresis" unicode="&#xdc;" horiz-adv-x="1552" 
d="M1024 1366h502l-92 -756q-29 -220 -65 -311t-126 -174q-93 -82 -204.5 -121t-258.5 -39q-300 0 -483 148q-82 66 -118 150.5t-36 207.5q0 44 7 109l98 786h502l-93 -756q-10 -82 -10 -100q0 -62 31.5 -94.5t91.5 -32.5q71 0 107 47.5t53 161.5zM436 1706q0 85 59 145
t146 60q85 0 145 -60t60 -145q0 -87 -60 -146t-145 -59q-88 0 -146.5 58.5t-58.5 146.5zM942 1706q0 85 59 145t146 60q86 0 145.5 -59.5t59.5 -145.5q0 -87 -60 -146t-145 -59q-88 0 -146.5 58.5t-58.5 146.5z" />
    <glyph glyph-name="Yacute" unicode="&#xdd;" horiz-adv-x="1400" 
d="M1526 1366l-576 -786l-71 -580h-492l74 592l-365 774h543l70 -223q18 -56 26 -156h19q22 74 49 129l127 250h596zM1137 1698l-379 -246l-117 127l324 293z" />
    <glyph glyph-name="Thorn" unicode="&#xde;" horiz-adv-x="1341" 
d="M795 238h-189l-31 -238h-495l168 1366h495l-22 -178h76q59 0 107.5 -4.5t109.5 -18t117.5 -44t103.5 -77.5q127 -127 127 -319q0 -106 -39 -197.5t-104 -154.5q-46 -46 -103 -76t-119.5 -41.5t-104 -14.5t-97.5 -3zM727 831h-51l-31 -253h45q107 0 154 47q35 35 35 102
q0 49 -29 76q-32 28 -123 28z" />
    <glyph glyph-name="germandbls" unicode="&#xdf;" horiz-adv-x="1327" 
d="M1253 1108q0 -202 -202 -307q114 -42 167.5 -122t53.5 -204q0 -152 -61 -262t-171 -160q-68 -32 -142.5 -43.5t-199.5 -11.5q-11 0 -49 1t-65 1l30 250q18 -2 50 -2q80 0 114.5 69t34.5 228q0 72 -29.5 101.5t-115.5 41.5l32 260q40 -6 60 -6q47 0 74.5 24.5t27.5 65.5
q0 44 -28.5 72.5t-71.5 28.5q-64 0 -91 -44.5t-44 -173.5l-113 -915h-473l121 983q20 163 52 247t97 146q152 140 424 140q239 0 378.5 -109.5t139.5 -298.5z" />
    <glyph glyph-name="agrave" unicode="&#xe0;" horiz-adv-x="1335" 
d="M825 956h471l-118 -956h-469q23 96 51 170l-15 6q-62 -109 -129.5 -156t-164.5 -47q-161 0 -280.5 133.5t-119.5 313.5q0 149 66.5 280.5t177 210t235.5 78.5q115 0 181.5 -47t107.5 -158l17 7q-11 93 -11 145v20zM647 336q57 0 95 42.5t38 108.5q0 54 -31.5 89.5
t-80.5 35.5q-56 0 -97 -46t-41 -109q0 -54 33 -87.5t84 -33.5zM854 1049l-297 254l191 165l243 -288z" />
    <glyph glyph-name="aacute" unicode="&#xe1;" horiz-adv-x="1335" 
d="M825 956h471l-118 -956h-469q23 96 51 170l-15 6q-62 -109 -129.5 -156t-164.5 -47q-161 0 -280.5 133.5t-119.5 313.5q0 149 66.5 280.5t177 210t235.5 78.5q115 0 181.5 -47t107.5 -158l17 7q-11 93 -11 145v20zM647 336q57 0 95 42.5t38 108.5q0 54 -31.5 89.5
t-80.5 35.5q-56 0 -97 -46t-41 -109q0 -54 33 -87.5t84 -33.5zM1128 1294l-378 -245l-117 127l323 292z" />
    <glyph glyph-name="acircumflex" unicode="&#xe2;" horiz-adv-x="1335" 
d="M825 956h471l-118 -956h-469q23 96 51 170l-15 6q-62 -109 -129.5 -156t-164.5 -47q-161 0 -280.5 133.5t-119.5 313.5q0 149 66.5 280.5t177 210t235.5 78.5q115 0 181.5 -47t107.5 -158l17 7q-11 93 -11 145v20zM647 336q57 0 95 42.5t38 108.5q0 54 -31.5 89.5
t-80.5 35.5q-56 0 -97 -46t-41 -109q0 -54 33 -87.5t84 -33.5zM825 1194l-204 -145l-148 139l385 266l293 -266l-170 -139z" />
    <glyph glyph-name="atilde" unicode="&#xe3;" horiz-adv-x="1335" 
d="M825 956h471l-118 -956h-469q23 96 51 170l-15 6q-62 -109 -129.5 -156t-164.5 -47q-161 0 -280.5 133.5t-119.5 313.5q0 149 66.5 280.5t177 210t235.5 78.5q115 0 181.5 -47t107.5 -158l17 7q-11 93 -11 145v20zM647 336q57 0 95 42.5t38 108.5q0 54 -31.5 89.5
t-80.5 35.5q-56 0 -97 -46t-41 -109q0 -54 33 -87.5t84 -33.5zM1018 1362l147 -94q-49 -100 -92 -135v2q-66 -60 -143 -60q-56 0 -109 33q-3 2 -17.5 9.5t-27.5 15.5q-46 18 -57 18q-40 0 -70 -82l-147 94q44 98 84 135q60 54 139 54q47 0 104 -25l50 -24l19 -9.5l17 -8.5
t15 -5t20 -2q13 0 31.5 19t36.5 65z" />
    <glyph glyph-name="adieresis" unicode="&#xe4;" horiz-adv-x="1335" 
d="M825 956h471l-118 -956h-469q23 96 51 170l-15 6q-62 -109 -129.5 -156t-164.5 -47q-161 0 -280.5 133.5t-119.5 313.5q0 149 66.5 280.5t177 210t235.5 78.5q115 0 181.5 -47t107.5 -158l17 7q-11 93 -11 145v20zM647 336q57 0 95 42.5t38 108.5q0 54 -31.5 89.5
t-80.5 35.5q-56 0 -97 -46t-41 -109q0 -54 33 -87.5t84 -33.5zM297 1315q0 88 61.5 149.5t147.5 61.5q88 0 149.5 -61.5t61.5 -149.5q0 -86 -61.5 -147.5t-149.5 -61.5q-86 0 -147.5 61.5t-61.5 147.5zM803 1315q0 88 61.5 149.5t147.5 61.5q88 0 149.5 -61.5t61.5 -149.5
q0 -86 -61.5 -147.5t-149.5 -61.5q-86 0 -147.5 61.5t-61.5 147.5z" />
    <glyph glyph-name="aring" unicode="&#xe5;" horiz-adv-x="1335" 
d="M825 956h471l-118 -956h-469q23 96 51 170l-15 6q-62 -109 -129.5 -156t-164.5 -47q-161 0 -280.5 133.5t-119.5 313.5q0 149 66.5 280.5t177 210t235.5 78.5q115 0 181.5 -47t107.5 -158l17 7q-11 93 -11 145v20zM647 336q57 0 95 42.5t38 108.5q0 54 -31.5 89.5
t-80.5 35.5q-56 0 -97 -46t-41 -109q0 -54 33 -87.5t84 -33.5zM1044 1321q0 -102 -81 -166q-73 -57 -213 -57q-137 0 -211 55q-39 30 -61.5 74.5t-22.5 93.5q0 100 82 164q73 57 213 57t213 -57q37 -30 59 -73.5t22 -90.5zM750 1391q-44 0 -72 -17q-31 -22 -31 -57
q0 -32 31 -51q31 -17 72 -17q43 0 73 17q29 16 29 55q0 30 -29 53q-28 17 -73 17z" />
    <glyph glyph-name="ae" unicode="&#xe6;" horiz-adv-x="1935" 
d="M1870 416h-678q-2 -10 -2 -33q0 -57 29.5 -92t76.5 -35q44 0 70 23q20 20 33 55h454q-57 -170 -194 -260q-149 -101 -352 -101q-268 0 -426 150q-81 -85 -170 -117q-92 -33 -226 -33q-210 0 -323 88q-123 98 -123 254q0 127 90 213q113 105 313 105q101 0 174 -29
q82 -37 129 -84q7 35 7 64q0 49 -19 80t-59 55q-64 39 -182 39q-181 0 -365 -94l35 272l24 9q23 9 37 13t43.5 13.5t55.5 15t60.5 11.5t72 9t75.5 3q151 0 242 -37t150 -101q29 26 55 44t74 43t116.5 38t151.5 13q260 0 416 -160q143 -153 143 -350q0 -48 -8 -84zM604 199
q75 0 113 28q47 30 47 82q0 53 -41 78q-42 29 -123 29q-77 0 -115 -27q-41 -29 -41 -82q0 -49 43 -80q40 -28 117 -28zM1212 612h222q0 52 -26 89.5t-77 37.5q-50 0 -82 -35.5t-37 -91.5z" />
    <glyph glyph-name="ccedilla" unicode="&#xe7;" horiz-adv-x="894" 
d="M614 1010q71 0 129 -11t156 -43l-59 -401q-74 86 -168 86q-67 0 -108.5 -45t-41.5 -119q0 -66 37 -103.5t103 -37.5q83 0 159 67l-69 -393q-73 -23 -115 -30t-100 -7q-212 0 -347 133.5t-135 344.5q0 252 153.5 405.5t405.5 153.5zM242 -369l274 277l217 -156l-287 -264z
" />
    <glyph glyph-name="egrave" unicode="&#xe8;" horiz-adv-x="1228" 
d="M1171 401h-659q-2 -14 -2 -32q0 -58 26.5 -92.5t73.5 -34.5q68 0 101 80h442q-31 -82 -55.5 -122.5t-73.5 -84.5q-165 -142 -410 -142q-247 0 -402 133.5t-155 348.5q0 149 75 270t206.5 189.5t292.5 68.5q151 0 277 -64.5t198 -176t72 -244.5q0 -25 -7 -97zM643 717
q-94 0 -115 -125h215q0 125 -100 125zM737 1049l-297 254l191 165l243 -288z" />
    <glyph glyph-name="eacute" unicode="&#xe9;" horiz-adv-x="1228" 
d="M1171 401h-659q-2 -14 -2 -32q0 -58 26.5 -92.5t73.5 -34.5q68 0 101 80h442q-31 -82 -55.5 -122.5t-73.5 -84.5q-165 -142 -410 -142q-247 0 -402 133.5t-155 348.5q0 149 75 270t206.5 189.5t292.5 68.5q151 0 277 -64.5t198 -176t72 -244.5q0 -25 -7 -97zM643 717
q-94 0 -115 -125h215q0 125 -100 125zM1030 1294l-379 -245l-116 127l323 292z" />
    <glyph glyph-name="ecircumflex" unicode="&#xea;" horiz-adv-x="1228" 
d="M1171 401h-659q-2 -14 -2 -32q0 -58 26.5 -92.5t73.5 -34.5q68 0 101 80h442q-31 -82 -55.5 -122.5t-73.5 -84.5q-165 -142 -410 -142q-247 0 -402 133.5t-155 348.5q0 149 75 270t206.5 189.5t292.5 68.5q151 0 277 -64.5t198 -176t72 -244.5q0 -25 -7 -97zM643 717
q-94 0 -115 -125h215q0 125 -100 125zM700 1194l-204 -145l-148 139l385 266l293 -266l-170 -139z" />
    <glyph glyph-name="edieresis" unicode="&#xeb;" horiz-adv-x="1265" 
d="M1202 414h-678q-2 -14 -2 -35q0 -60 28.5 -94.5t76.5 -34.5q68 0 102 82h455q-29 -85 -55 -127.5t-78 -85.5q-172 -146 -420 -146q-254 0 -414 137.5t-160 358.5q0 153 77 277.5t212 195t301 70.5q155 0 284.5 -66.5t204 -181.5t74.5 -252q0 -41 -8 -98zM659 737
q-95 0 -116 -127h221q-3 127 -105 127zM195 1315q0 88 61 149.5t147 61.5q88 0 149.5 -61.5t61.5 -149.5q0 -86 -61.5 -147.5t-149.5 -61.5q-86 0 -147 61.5t-61 147.5zM700 1315q0 88 61.5 149.5t147.5 61.5q88 0 149.5 -61.5t61.5 -149.5q0 -86 -61.5 -147.5t-149.5 -61.5
q-86 0 -147.5 61.5t-61.5 147.5z" />
    <glyph glyph-name="igrave" unicode="&#xec;" horiz-adv-x="679" 
d="M166 956h473l-117 -956h-473zM506 1049l-297 254l190 165l244 -288z" />
    <glyph glyph-name="iacute" unicode="&#xed;" horiz-adv-x="679" 
d="M166 956h473l-117 -956h-473zM729 1294l-379 -245l-117 127l324 292z" />
    <glyph glyph-name="icircumflex" unicode="&#xee;" horiz-adv-x="679" 
d="M166 956h473l-117 -956h-473zM176 1092l-113 206l383 207l330 -235l-135 -178l-201 143z" />
    <glyph glyph-name="idieresis" unicode="&#xef;" horiz-adv-x="679" 
d="M166 956h473l-117 -956h-473zM-18 1315q0 88 61 149.5t147 61.5q88 0 149.5 -61.5t61.5 -149.5q0 -86 -61.5 -147.5t-149.5 -61.5q-86 0 -147 61.5t-61 147.5zM487 1315q0 88 61.5 149.5t147.5 61.5q88 0 149.5 -61.5t61.5 -149.5q0 -86 -61.5 -147.5t-149.5 -61.5
q-86 0 -147.5 61.5t-61.5 147.5z" />
    <glyph glyph-name="eth" unicode="&#xf0;" horiz-adv-x="1325" 
d="M334 1296l59 228q306 -27 500 -138l268 115l68 -192l-176 -74q100 -76 157 -211q62 -146 62 -328q0 -360 -180 -557q-49 -53 -104.5 -87.5t-114.5 -51t-108.5 -22t-111.5 -5.5q-255 0 -409 113q-185 132 -185 365q0 188 144 329q161 150 418 150q181 0 317 -94
q-27 180 -174 274l-408 -160l-61 197l280 106q-107 43 -241 43zM645 334q50 0 86 31q20 18 32.5 47.5t12.5 56.5q0 63 -41 104q-31 31 -80 31q-51 0 -86 -35q-47 -47 -47 -112q0 -60 41 -95q36 -28 82 -28z" />
    <glyph glyph-name="ntilde" unicode="&#xf1;" horiz-adv-x="1296" 
d="M158 956h475q-10 -51 -14 -68t-12 -43.5t-21 -58.5l16 -4q72 115 140 162t161 47q135 0 224.5 -88.5t89.5 -222.5q0 -40 -11 -145l-65 -535h-475l57 463q6 27 6 63q0 72 -61 72q-48 0 -68.5 -31t-30.5 -121l-55 -446h-473zM899 1378l152 -78q-54 -99 -106 -142.5
t-118 -43.5q-30 0 -51.5 6t-64.5 29q-49 22 -76 22q-29 0 -49.5 -14.5t-44.5 -50.5l-158 82q75 100 128.5 139t111.5 39q45 0 106 -27l47 -20q30 -10 41 -10q36 0 70 51z" />
    <glyph glyph-name="ograve" unicode="&#xf2;" horiz-adv-x="1271" 
d="M639 983q263 0 422.5 -136.5t159.5 -361.5q0 -219 -166 -365.5t-414 -146.5q-252 0 -417 141t-165 357q0 145 75.5 262.5t208 183.5t296.5 66zM637 336q56 0 91.5 41.5t35.5 107.5q0 57 -33 95t-84 38q-54 0 -92.5 -44t-38.5 -105q0 -58 34 -95.5t87 -37.5zM735 1049
l-297 254l191 165l243 -288z" />
    <glyph glyph-name="oacute" unicode="&#xf3;" horiz-adv-x="1271" 
d="M639 983q263 0 422.5 -136.5t159.5 -361.5q0 -219 -166 -365.5t-414 -146.5q-252 0 -417 141t-165 357q0 145 75.5 262.5t208 183.5t296.5 66zM637 336q56 0 91.5 41.5t35.5 107.5q0 57 -33 95t-84 38q-54 0 -92.5 -44t-38.5 -105q0 -58 34 -95.5t87 -37.5zM1053 1294
l-379 -245l-117 127l324 292z" />
    <glyph glyph-name="ocircumflex" unicode="&#xf4;" horiz-adv-x="1271" 
d="M639 983q263 0 422.5 -136.5t159.5 -361.5q0 -219 -166 -365.5t-414 -146.5q-252 0 -417 141t-165 357q0 145 75.5 262.5t208 183.5t296.5 66zM637 336q56 0 91.5 41.5t35.5 107.5q0 57 -33 95t-84 38q-54 0 -92.5 -44t-38.5 -105q0 -58 34 -95.5t87 -37.5zM735 1194
l-205 -145l-147 139l385 266l293 -266l-170 -139z" />
    <glyph glyph-name="otilde" unicode="&#xf5;" horiz-adv-x="1271" 
d="M639 983q263 0 422.5 -136.5t159.5 -361.5q0 -219 -166 -365.5t-414 -146.5q-252 0 -417 141t-165 357q0 145 75.5 262.5t208 183.5t296.5 66zM637 336q56 0 91.5 41.5t35.5 107.5q0 57 -33 95t-84 38q-54 0 -92.5 -44t-38.5 -105q0 -58 34 -95.5t87 -37.5zM895 1362
l147 -94q-49 -100 -92 -135v2q-66 -60 -143 -60q-56 0 -109 33q-3 2 -17.5 9.5t-27.5 15.5q-46 18 -57 18q-40 0 -70 -82l-147 94q44 98 84 135q60 54 139 54q48 0 105 -25l49 -24l19 -9.5l17 -8.5t15 -5t20 -2q13 0 31.5 19t36.5 65z" />
    <glyph glyph-name="odieresis" unicode="&#xf6;" horiz-adv-x="1304" 
d="M655 1010q268 0 432 -140.5t164 -369.5q0 -148 -77.5 -269t-213.5 -189.5t-303 -68.5q-170 0 -306.5 65.5t-214 182.5t-77.5 262q0 149 77 270t213.5 189t305.5 68zM651 346q57 0 94 44t37 110q0 60 -33.5 97.5t-84.5 37.5q-56 0 -96 -45.5t-40 -108.5q0 -60 34.5 -97.5
t88.5 -37.5zM225 1315q0 88 61.5 149.5t147.5 61.5q88 0 149.5 -61.5t61.5 -149.5q0 -86 -61.5 -147.5t-149.5 -61.5q-86 0 -147.5 61.5t-61.5 147.5zM731 1315q0 88 61.5 149.5t147.5 61.5q88 0 149.5 -61.5t61.5 -149.5q0 -86 -61.5 -147.5t-149.5 -61.5
q-86 0 -147.5 61.5t-61.5 147.5z" />
    <glyph glyph-name="divide" unicode="&#xf7;" 
d="M387 1044q0 63 44.5 107.5t107.5 44.5q65 0 109 -44t44 -108q0 -63 -45 -107.5t-108 -43.5q-62 0 -107 44t-45 107zM387 348q0 63 44.5 107.5t107.5 44.5q65 0 109 -44t44 -108q0 -63 -45 -107.5t-108 -43.5q-62 0 -107 44t-45 107zM96 573v246h887v-246h-887z" />
    <glyph glyph-name="oslash" unicode="&#xf8;" horiz-adv-x="1316" 
d="M1329 940l-164 -145q92 -122 92 -295q0 -208 -145 -353q-174 -174 -457 -174q-176 0 -321 76l-191 -168l-147 162l168 152q-98 128 -98 286q0 219 149 361q80 80 197.5 124t261.5 44q177 0 319 -74l189 168zM657 346q51 0 86 35q45 45 45 119q0 64 -36 100q-35 35 -80 35
q-53 0 -90 -37q-47 -47 -47 -115q0 -61 38 -102q32 -35 84 -35z" />
    <glyph glyph-name="ugrave" unicode="&#xf9;" horiz-adv-x="1296" 
d="M784 956h476l-66 -526q-17 -134 -51 -206.5t-107 -133.5q-150 -117 -391 -117q-264 0 -407.5 106t-143.5 302q0 49 6 111l58 464h475l-58 -464q-8 -63 -8 -84q0 -31 19.5 -51.5t50.5 -20.5q43 0 60 27.5t28 109.5zM752 1049l-297 254l190 165l244 -288z" />
    <glyph glyph-name="uacute" unicode="&#xfa;" horiz-adv-x="1296" 
d="M784 956h476l-66 -526q-17 -134 -51 -206.5t-107 -133.5q-150 -117 -391 -117q-264 0 -407.5 106t-143.5 302q0 49 6 111l58 464h475l-58 -464q-8 -63 -8 -84q0 -31 19.5 -51.5t50.5 -20.5q43 0 60 27.5t28 109.5zM1057 1294l-379 -245l-117 127l324 292z" />
    <glyph glyph-name="ucircumflex" unicode="&#xfb;" horiz-adv-x="1296" 
d="M784 956h476l-66 -526q-17 -134 -51 -206.5t-107 -133.5q-150 -117 -391 -117q-264 0 -407.5 106t-143.5 302q0 49 6 111l58 464h475l-58 -464q-8 -63 -8 -84q0 -31 19.5 -51.5t50.5 -20.5q43 0 60 27.5t28 109.5zM492 1092l-113 206l383 207l330 -235l-136 -178
l-200 143z" />
    <glyph glyph-name="udieresis" unicode="&#xfc;" horiz-adv-x="1296" 
d="M784 956h476l-66 -526q-17 -134 -51 -206.5t-107 -133.5q-150 -117 -391 -117q-264 0 -407.5 106t-143.5 302q0 49 6 111l58 464h475l-58 -464q-8 -63 -8 -84q0 -31 19.5 -51.5t50.5 -20.5q43 0 60 27.5t28 109.5zM266 1315q0 88 61.5 149.5t147.5 61.5q88 0 149.5 -61.5
t61.5 -149.5q0 -86 -61.5 -147.5t-149.5 -61.5q-86 0 -147.5 61.5t-61.5 147.5zM772 1315q0 88 61.5 149.5t147.5 61.5q88 0 149.5 -61.5t61.5 -149.5q0 -86 -61.5 -147.5t-149.5 -61.5q-86 0 -147.5 61.5t-61.5 147.5z" />
    <glyph glyph-name="yacute" unicode="&#xfd;" horiz-adv-x="1210" 
d="M780 956h510l-743 -1425h-508l180 346q49 86 70 118.5t63 78.5l-289 882h488l41 -266q14 -76 14 -153q0 -66 -4 -99l21 -2q31 163 69 269zM1010 1294l-379 -245l-117 127l324 292z" />
    <glyph glyph-name="thorn" unicode="&#xfe;" horiz-adv-x="1320" 
d="M236 1493h475l-62 -483q-11 -82 -18.5 -114t-26.5 -85l19 -8q57 104 116.5 146t151.5 42q104 0 191 -64t137.5 -174t50.5 -239q0 -142 -60 -267t-161.5 -199.5t-217.5 -74.5q-113 0 -190 50.5t-109 146.5l-16 -6q6 -55 6 -117q0 -63 -10 -158l-45 -358h-475zM678 334
q55 0 90 42.5t35 110.5q0 57 -32 94t-79 37q-54 0 -90.5 -45.5t-36.5 -111.5q0 -57 31 -92t82 -35z" />
    <glyph glyph-name="ydieresis" unicode="&#xff;" horiz-adv-x="1210" 
d="M780 956h510l-743 -1425h-508l180 346q49 86 70 118.5t63 78.5l-289 882h488l41 -266q14 -76 14 -153q0 -66 -4 -99l21 -2q31 163 69 269zM205 1315q0 88 61.5 149.5t147.5 61.5q88 0 149.5 -61.5t61.5 -149.5q0 -86 -61.5 -147.5t-149.5 -61.5q-86 0 -147.5 61.5
t-61.5 147.5zM711 1315q0 88 61.5 149.5t147.5 61.5q88 0 149 -61.5t61 -149.5q0 -87 -61 -148t-149 -61q-86 0 -147.5 61.5t-61.5 147.5z" />
    <glyph glyph-name="Abreve" unicode="&#x102;" horiz-adv-x="1449" 
d="M877 182h-336l-66 -182h-532l630 1366h566l254 -1366h-506zM748 741l-93 -247h189l-21 247q-4 46 -4 97q0 63 6 108h-16q-26 -113 -61 -205zM1006 1757h221q-10 -81 -46.5 -136.5t-66.5 -76.5q-90 -90 -254 -90q-157 0 -231 90q-12 12 -26 33.5t-27.5 73t-6.5 106.5h222
q0 -52 21.5 -76t76.5 -24q99 0 117 100z" />
    <glyph glyph-name="abreve" unicode="&#x103;" horiz-adv-x="1335" 
d="M825 956h471l-118 -956h-469q23 96 51 170l-15 6q-62 -109 -129.5 -156t-164.5 -47q-161 0 -280.5 133.5t-119.5 313.5q0 149 66.5 280.5t177 210t235.5 78.5q115 0 181.5 -47t107.5 -158l17 7q-11 93 -11 145v20zM647 336q57 0 95 42.5t38 108.5q0 54 -31.5 89.5
t-80.5 35.5q-56 0 -97 -46t-41 -109q0 -54 33 -87.5t84 -33.5zM973 1352h221q-10 -81 -46.5 -136.5t-66.5 -76.5q-90 -90 -254 -90q-157 0 -231 90q-12 12 -26 33.5t-27 73t-6 106.5h221q0 -52 21.5 -76.5t76.5 -24.5q99 0 117 101z" />
    <glyph glyph-name="Dcroat" unicode="&#x110;" horiz-adv-x="1576" 
d="M133 0l62 532h-97l39 295h96l68 539h463q361 0 564.5 -174.5t203.5 -486.5q0 -164 -64.5 -303t-185.5 -236q-115 -90 -251.5 -128t-350.5 -38h-547zM807 965h-62l-18 -138h174l-37 -295h-176l-16 -126h76q122 0 208 91t86 220q0 109 -66 178.5t-169 69.5z" />
    <glyph glyph-name="dcroat" unicode="&#x111;" horiz-adv-x="1351" 
d="M872 1493h474l-23 -178h137l-28 -246h-140l-131 -1069h-473q22 93 47 160l-16 8q-86 -195 -287 -195q-164 0 -271.5 128t-107.5 323q0 152 60.5 282t165.5 206.5t229 76.5q216 0 287 -209l18 4q-8 52 -8 72q0 97 14 207v6h-233l30 246h234zM637 346q53 0 87.5 39.5
t39.5 103.5v11q0 56 -31 89.5t-82 33.5q-54 0 -91.5 -43.5t-37.5 -106.5q0 -54 33.5 -90.5t81.5 -36.5z" />
    <glyph glyph-name="Itilde" unicode="&#x128;" horiz-adv-x="776" 
d="M705 1765l147 -94q-49 -100 -92 -135v2q-65 -59 -144 -59q-57 0 -108 32q-3 2 -17.5 9.5t-27.5 15.5q-46 18 -57 18q-40 0 -70 -81l-148 94q44 98 84 135q59 53 140 53q49 0 104 -24l49 -25q8 -4 19.5 -9.5t17 -8.5t15 -5t20.5 -2q13 0 31.5 19t36.5 65zM248 1366h502
l-168 -1366h-502z" />
    <glyph glyph-name="itilde" unicode="&#x129;" horiz-adv-x="679" 
d="M166 956h473l-117 -956h-473zM604 1362l148 -94q-49 -99 -93 -135v2q-66 -60 -143 -60q-55 0 -108 33q-3 2 -18 9.5t-28 15.5q-46 18 -57 18q-39 0 -69 -82l-148 94q44 98 84 135q60 54 139 54q47 0 105 -25l49 -24q8 -4 19.5 -9.5t17 -8.5t15 -5t20.5 -2q34 0 67 84z
" />
    <glyph glyph-name="OE" unicode="&#x152;" horiz-adv-x="2015" 
d="M1149 1366h887l-43 -356h-400l-18 -150h364l-41 -338h-366l-19 -155h416l-45 -367h-903l20 170q-59 -70 -102 -103.5t-108 -64.5q-84 -37 -170 -37q-140 0 -260.5 93.5t-191.5 253.5t-71 345q0 150 51 287.5t137 237t204.5 158.5t248.5 59q182 0 312 -142q9 -10 73 -88z
M844 412q106 0 176 82.5t70 210.5q0 119 -65 193.5t-169 74.5q-110 0 -184 -83t-74 -206q0 -119 69 -195.5t177 -76.5z" />
    <glyph glyph-name="oe" unicode="&#x153;" horiz-adv-x="1935" 
d="M1870 408h-676q0 -86 35 -121q27 -27 69 -27q37 0 60 23q16 16 24 47h469q-43 -178 -194 -273q-132 -84 -320 -84q-150 0 -252 50q-91 45 -151 137q-77 -96 -166 -140q-96 -47 -223 -47q-203 0 -336 133q-69 69 -109.5 166t-40.5 199q0 105 43.5 208.5t118.5 178.5
q152 152 385 152q124 0 221 -58q85 -51 146 -139q57 80 149 137q105 60 240 60q231 0 373 -150q65 -70 103 -167t38 -204q0 -41 -6 -81zM633 350q43 0 80 37q47 47 47 121q0 59 -31 90t-76 31q-42 0 -78 -31q-49 -46 -49 -125q0 -54 33 -90q33 -33 74 -33zM1214 614h224
q-12 66 -41 95q-26 26 -70 26q-46 0 -78 -37q-31 -34 -35 -84z" />
    <glyph glyph-name="Scaron" unicode="&#x160;" horiz-adv-x="1243" 
d="M1139 1303q30 -13 86 -46l-183 -362q-135 123 -299 123q-41 0 -67.5 -20.5t-26.5 -51.5t27.5 -47t122.5 -41q150 -39 221 -90q69 -47 109 -129t40 -176q0 -135 -80 -249.5t-217.5 -181.5t-298.5 -67q-206 0 -413 98q-50 23 -127 66l184 369q62 -75 153 -118.5t189 -43.5
q54 0 84.5 21.5t30.5 58.5q0 35 -30 56.5t-99 39.5q-128 24 -195 61q-196 94 -196 336q0 134 75 246.5t204 178t282 65.5q212 0 424 -96zM999 1880l113 -207l-383 -207l-330 236l138 178l198 -143z" />
    <glyph glyph-name="scaron" unicode="&#x161;" horiz-adv-x="974" 
d="M555 1010q182 0 406 -86l-117 -289q-109 80 -221 80q-82 0 -82 -49q0 -42 55 -54l86 -20q108 -23 168.5 -93t60.5 -169q0 -156 -132.5 -256.5t-338.5 -100.5q-155 0 -342 70q-10 4 -24 10t-36 15t-38 16l115 289q149 -101 280 -101q76 0 76 52q0 27 -23.5 43.5
t-82.5 29.5q-144 32 -202.5 89t-58.5 161q0 156 128 259.5t323 103.5zM852 1505l113 -207l-383 -206l-330 235l137 178l199 -143z" />
    <glyph glyph-name="Utilde" unicode="&#x168;" horiz-adv-x="1552" 
d="M1024 1366h502l-92 -756q-29 -220 -65 -311t-126 -174q-93 -82 -204.5 -121t-258.5 -39q-300 0 -483 148q-82 66 -118 150.5t-36 207.5q0 44 7 109l98 786h502l-93 -756q-10 -82 -10 -100q0 -62 31.5 -94.5t91.5 -32.5q71 0 107 47.5t53 161.5zM1081 1765l148 -94
q-49 -100 -92 -135v2q-65 -59 -144 -59q-57 0 -108 32q-3 2 -17.5 9.5t-27.5 15.5q-46 18 -58 18q-39 0 -69 -81l-148 94q44 98 84 135q59 53 139 53q50 0 105 -24l49 -25q8 -4 19.5 -9.5t17 -8.5t15 -5t20.5 -2q34 0 67 84z" />
    <glyph glyph-name="utilde" unicode="&#x169;" horiz-adv-x="1296" 
d="M784 956h476l-66 -526q-17 -134 -51 -206.5t-107 -133.5q-150 -117 -391 -117q-264 0 -407.5 106t-143.5 302q0 49 6 111l58 464h475l-58 -464q-8 -63 -8 -84q0 -31 19.5 -51.5t50.5 -20.5q43 0 60 27.5t28 109.5zM899 1362l148 -94q-49 -99 -93 -135v2q-66 -60 -143 -60
q-56 0 -109 33q-3 2 -17.5 9.5t-27.5 15.5q-46 18 -57 18q-40 0 -70 -82l-147 94q44 98 84 135q60 54 139 54q48 0 105 -25l49 -24l19 -9.5l17 -8.5t15 -5t20 -2q13 0 31.5 19t36.5 65z" />
    <glyph glyph-name="Ydieresis" unicode="&#x178;" horiz-adv-x="1400" 
d="M1526 1366l-576 -786l-71 -580h-492l74 592l-365 774h543l70 -223q18 -56 26 -156h19q22 74 49 129l127 250h596zM377 1706q0 85 59 145t146 60q85 0 144.5 -60t59.5 -145q0 -87 -59.5 -146t-144.5 -59q-88 0 -146.5 58.5t-58.5 146.5zM883 1706q0 86 58.5 145.5
t145.5 59.5q86 0 145.5 -59.5t59.5 -145.5q0 -87 -60 -146t-145 -59q-88 0 -146 58.5t-58 146.5z" />
    <glyph glyph-name="Zcaron" unicode="&#x17d;" horiz-adv-x="1296" 
d="M891 397l371 9l-50 -406h-1243l17 123l477 672q55 76 84 108t63 51l-6 17q-60 -18 -178 -27l-313 -8l53 430h1192l-17 -121l-505 -713q-46 -66 -71 -93t-63 -52l9 -16q20 7 33 11t32.5 6.5t26 3t40.5 2.5t48 3zM1012 1880l112 -207l-383 -207l-329 236l137 178l199 -143z
" />
    <glyph glyph-name="zcaron" unicode="&#x17e;" horiz-adv-x="1054" 
d="M127 956h944l-8 -61l-295 -418q-41 -58 -117 -115l8 -22q29 14 52 18t67 4h219l-45 -362h-966l8 72l285 424q8 10 24 29t21 25t16 18t17.5 17.5t17 12.5t22.5 14l-10 19q-55 -31 -131 -31h-172zM870 1505l113 -207l-383 -206l-330 235l138 178l198 -143z" />
    <glyph glyph-name="florin" unicode="&#x192;" horiz-adv-x="1447" 
d="M952 657l-141 -598q-26 -107 -60.5 -187.5t-97.5 -139.5q-134 -127 -417 -127q-86 0 -142 12l82 346h25q97 0 135 29q46 33 65 117l136 548h-123l63 254h123l55 226q16 61 28.5 98t41.5 87t70 87q115 107 301 107q99 0 219 -46l-82 -342q-43 25 -80 25q-43 0 -68 -25
q-19 -17 -32 -65l-37 -152h141l-63 -254h-142z" />
    <glyph glyph-name="Ohorn" unicode="&#x1a0;" horiz-adv-x="1654" 
d="M1393 1513h276l-6 -53q-18 -140 -65.5 -210.5t-153.5 -98.5q166 -181 166 -457q0 -205 -97.5 -372t-269 -262t-381.5 -95q-159 0 -301 54t-243.5 147t-160.5 222.5t-59 275.5q0 153 59 289.5t159.5 234t240 154.5t295.5 57q122 0 231 -33q63 -7 139.5 -8t90.5 4
q38 5 47 14q5 5 9 11t6.5 15.5t4 16t3.5 20t3 19.5q0 1 0.5 3.5t2 16t4.5 35.5zM840 395q116 0 193 83.5t77 207.5q0 109 -70 184.5t-172 75.5q-111 0 -190.5 -84.5t-79.5 -202.5q0 -115 68.5 -189.5t173.5 -74.5z" />
    <glyph glyph-name="ohorn" unicode="&#x1a1;" horiz-adv-x="1271" 
d="M639 983q95 0 188 -22v2q140 -22 183 -11q37 5 47 15q5 5 9 11t6.5 15.5t4 16t3.5 20t3 19.5q0 1 0.5 3.5t2 16t4.5 35.5h276l-6 -53q-14 -134 -61.5 -206.5t-149.5 -101.5q72 -110 72 -258q0 -219 -166 -365.5t-414 -146.5q-252 0 -417 141t-165 357q0 145 75.5 262.5
t208 183.5t296.5 66zM637 336q56 0 91.5 41.5t35.5 107.5q0 57 -33 95t-84 38q-54 0 -92.5 -44t-38.5 -105q0 -58 34 -95.5t87 -37.5z" />
    <glyph glyph-name="Uhorn" unicode="&#x1af;" horiz-adv-x="1576" 
d="M1024 1366h438q16 3 23 10q5 5 9 11t6.5 15.5t4 16t3.5 20t3 19.5q0 1 0.5 3.5t2 16t4.5 35.5h276l-6 -53q-18 -158 -82 -231t-209 -90l-63 -529q-29 -220 -65 -311t-126 -174q-93 -82 -204.5 -121t-258.5 -39q-300 0 -483 148q-82 66 -118 150.5t-36 207.5q0 44 7 109
l98 786h502l-93 -756q-10 -82 -10 -100q0 -62 31.5 -94.5t91.5 -32.5q71 0 107 47.5t53 161.5z" />
    <glyph glyph-name="uhorn" unicode="&#x1b0;" horiz-adv-x="1368" 
d="M784 956h404q14 3 22 11q4 4 7.5 10t6 11t4.5 14t3 14t3 17t3 16q0 4 6 55h277l-7 -53q-18 -156 -80 -229.5t-202 -90.5l-37 -301q-17 -134 -51 -206.5t-107 -133.5q-150 -117 -391 -117q-264 0 -407.5 106t-143.5 302q0 49 6 111l58 464h475l-58 -464q-8 -63 -8 -84
q0 -31 19.5 -51.5t50.5 -20.5q43 0 60 27.5t28 109.5z" />
    <glyph glyph-name="afii57929" unicode="&#x2bc;" 
d="M872 1366l-258 -446h-311l174 446h395z" />
    <glyph glyph-name="circumflex" unicode="&#x2c6;" 
d="M369 1092l-113 206l383 207l330 -235l-135 -178l-201 143z" />
    <glyph glyph-name="caron" unicode="&#x2c7;" 
d="M856 1505l113 -207l-383 -206l-330 235l137 178l199 -143z" />
    <glyph glyph-name="uni02C9" unicode="&#x2c9;" 
d="M938 1118h-696l24 205h697z" />
    <glyph glyph-name="breve" unicode="&#x2d8;" 
d="M782 1415h209q-21 -124 -108 -211q-100 -100 -275 -100q-140 0 -227 63q-111 79 -115 248h209q12 -55 39 -82q33 -33 107 -33q64 0 104 31q42 31 57 84z" />
    <glyph glyph-name="dotaccent" unicode="&#x2d9;" 
d="M406 1315q0 88 61 149.5t149 61.5q86 0 147.5 -61.5t61.5 -149.5q0 -86 -61.5 -147.5t-147.5 -61.5q-88 0 -149 61t-61 148z" />
    <glyph glyph-name="ring" unicode="&#x2da;" 
d="M889 1321q0 -101 -82 -166q-73 -57 -213 -57q-137 0 -211 55q-39 30 -61.5 74.5t-22.5 93.5q0 100 82 164q73 57 213 57t213 -57q37 -30 59.5 -73.5t22.5 -90.5zM594 1391q-44 0 -72 -17q-30 -21 -30 -57q0 -33 30 -51q31 -17 72 -17q44 0 74 17q28 16 28 55q0 31 -28 53
q-28 17 -74 17z" />
    <glyph glyph-name="ogonek" unicode="&#x2db;" 
d="M483 0h168q-52 -36 -73 -63q-37 -42 -37 -82q0 -26 18 -41q19 -17 55 -17q59 0 113 47l-59 -178q-73 -43 -179 -43q-94 0 -141 47q-39 39 -39 101q0 88 72 153q22 20 102 76z" />
    <glyph glyph-name="tilde" unicode="&#x2dc;" 
d="M797 1378l151 -78q-54 -99 -106 -142.5t-117 -43.5q-31 0 -52.5 6.5t-64.5 28.5q-49 22 -76 22q-29 0 -49.5 -14.5t-44.5 -50.5l-157 82q76 100 128.5 139t110.5 39q46 0 107 -27l47 -20q30 -10 41 -10q35 0 69 51z" />
    <glyph glyph-name="hungarumlaut" unicode="&#x2dd;" 
d="M225 1221l205 299l229 -150l-272 -262zM643 1221l205 299l227 -150l-270 -262z" />
    <glyph glyph-name="acutecomb" unicode="&#x301;" horiz-adv-x="4" 
d="M-289 1313l-305 -221l-154 143l261 246z" />
    <glyph glyph-name="uni1EA0" unicode="&#x1ea0;" horiz-adv-x="1449" 
d="M438 -313q-1 67 52.5 112t132.5 45q85 0 139.5 -44.5t56.5 -112.5q-5 -67 -59 -111.5t-139 -44.5q-78 0 -132.5 45.5t-50.5 110.5zM877 182h-336l-66 -182h-532l630 1366h566l254 -1366h-506zM748 741l-93 -247h189l-21 247q-4 46 -4 97q0 63 6 108h-16
q-26 -113 -61 -205z" />
    <glyph glyph-name="uni1EA1" unicode="&#x1ea1;" horiz-adv-x="1335" 
d="M375 -313q-1 67 52 112t132 45q86 0 140.5 -44.5t56.5 -112.5q-5 -67 -59.5 -111.5t-139.5 -44.5q-78 0 -132 45.5t-50 110.5zM825 956h471l-118 -956h-469q23 96 51 170l-15 6q-62 -109 -129.5 -156t-164.5 -47q-161 0 -280.5 133.5t-119.5 313.5q0 149 66.5 280.5
t177 210t235.5 78.5q115 0 181.5 -47t107.5 -158l17 7q-11 93 -11 145v20zM647 336q57 0 95 42.5t38 108.5q0 54 -31.5 89.5t-80.5 35.5q-56 0 -97 -46t-41 -109q0 -54 33 -87.5t84 -33.5z" />
    <glyph glyph-name="uni1EA2" unicode="&#x1ea2;" horiz-adv-x="1449" 
d="M954 1454h-168l27 199q62 -13 111 8q26 15 28 39q3 14 -3.5 22t-15 9.5t-22.5 1.5q-15 0 -29 -11.5t-18 -33.5h-184q13 91 65 143q23 25 73 46t110 21q120 0 171.5 -51t39.5 -151q-10 -69 -60 -117t-110 -59zM877 182h-336l-66 -182h-532l630 1366h566l254 -1366h-506z
M748 741l-93 -247h189l-21 247q-4 46 -4 97q0 63 6 108h-16q-26 -113 -61 -205z" />
    <glyph glyph-name="uni1EA3" unicode="&#x1ea3;" horiz-adv-x="1335" 
d="M887 1049h-168l26 198q62 -13 111 8q27 15 29 39q3 14 -3.5 22t-15 9.5t-22.5 1.5q-15 0 -29 -11.5t-18 -33.5h-185q13 90 66 143q23 25 72.5 46.5t109.5 21.5q120 0 171.5 -51.5t39.5 -151.5q-10 -69 -60 -117t-110 -59zM825 956h471l-118 -956h-469q23 96 51 170l-15 6
q-62 -109 -129.5 -156t-164.5 -47q-161 0 -280.5 133.5t-119.5 313.5q0 149 66.5 280.5t177 210t235.5 78.5q115 0 181.5 -47t107.5 -158l17 7q-11 93 -11 145v20zM647 336q57 0 95 42.5t38 108.5q0 54 -31.5 89.5t-80.5 35.5q-56 0 -97 -46t-41 -109q0 -54 33 -87.5
t84 -33.5z" />
    <glyph glyph-name="uni1EA4" unicode="&#x1ea4;" horiz-adv-x="1449" 
d="M1518 2019l-379 -245l-117 127l324 292zM877 182h-336l-66 -182h-532l630 1366h566l254 -1366h-506zM748 741l-93 -247h189l-21 247q-4 46 -4 97q0 63 6 108h-16q-26 -113 -61 -205zM879 1599l-205 -145l-148 139l385 267l293 -267l-170 -139z" />
    <glyph glyph-name="uni1EA5" unicode="&#x1ea5;" horiz-adv-x="1335" 
d="M1464 1614l-379 -246l-116 127l323 293zM825 956h471l-118 -956h-469q23 96 51 170l-15 6q-62 -109 -129.5 -156t-164.5 -47q-161 0 -280.5 133.5t-119.5 313.5q0 149 66.5 280.5t177 210t235.5 78.5q115 0 181.5 -47t107.5 -158l17 7q-11 93 -11 145v20zM647 336
q57 0 95 42.5t38 108.5q0 54 -31.5 89.5t-80.5 35.5q-56 0 -97 -46t-41 -109q0 -54 33 -87.5t84 -33.5zM825 1194l-204 -145l-148 139l385 266l293 -266l-170 -139z" />
    <glyph glyph-name="uni1EA6" unicode="&#x1ea6;" horiz-adv-x="1449" 
d="M1165 1774l-297 254l191 165l244 -288zM877 182h-336l-66 -182h-532l630 1366h566l254 -1366h-506zM748 741l-93 -247h189l-21 247q-4 46 -4 97q0 63 6 108h-16q-26 -113 -61 -205zM879 1599l-205 -145l-148 139l385 267l293 -267l-170 -139z" />
    <glyph glyph-name="uni1EA7" unicode="&#x1ea7;" horiz-adv-x="1335" 
d="M1112 1368l-297 254l191 166l243 -289zM825 956h471l-118 -956h-469q23 96 51 170l-15 6q-62 -109 -129.5 -156t-164.5 -47q-161 0 -280.5 133.5t-119.5 313.5q0 149 66.5 280.5t177 210t235.5 78.5q115 0 181.5 -47t107.5 -158l17 7q-11 93 -11 145v20zM647 336
q57 0 95 42.5t38 108.5q0 54 -31.5 89.5t-80.5 35.5q-56 0 -97 -46t-41 -109q0 -54 33 -87.5t84 -33.5zM825 1194l-204 -145l-148 139l385 266l293 -266l-170 -139z" />
    <glyph glyph-name="uni1EA8" unicode="&#x1ea8;" horiz-adv-x="1449" 
d="M1284 1774h-168l27 198q62 -13 110 8q27 15 29 39q3 14 -3.5 22t-15 9.5t-22.5 1.5q-15 0 -29 -11.5t-18 -33.5h-184q13 91 65 143q23 25 72.5 46.5t109.5 21.5q120 0 171.5 -51.5t39.5 -151.5q-10 -69 -60 -117t-110 -59zM877 182h-336l-66 -182h-532l630 1366h566
l254 -1366h-506zM748 741l-93 -247h189l-21 247q-4 46 -4 97q0 63 6 108h-16q-26 -113 -61 -205zM879 1599l-205 -145l-148 139l385 267l293 -267l-170 -139z" />
    <glyph glyph-name="uni1EA9" unicode="&#x1ea9;" horiz-adv-x="1335" 
d="M1231 1368h-168l27 199q62 -13 110 8q27 15 29 39q3 14 -3.5 22t-15 9.5t-22.5 1.5q-15 0 -29 -11.5t-18 -33.5h-185q13 90 66 143q23 25 72.5 46t109.5 21q120 0 171.5 -51t39.5 -151q-10 -69 -60 -117t-110 -59zM825 956h471l-118 -956h-469q23 96 51 170l-15 6
q-62 -109 -129.5 -156t-164.5 -47q-161 0 -280.5 133.5t-119.5 313.5q0 149 66.5 280.5t177 210t235.5 78.5q115 0 181.5 -47t107.5 -158l17 7q-11 93 -11 145v20zM647 336q57 0 95 42.5t38 108.5q0 54 -31.5 89.5t-80.5 35.5q-56 0 -97 -46t-41 -109q0 -54 33 -87.5
t84 -33.5zM825 1194l-204 -145l-148 139l385 266l293 -266l-170 -139z" />
    <glyph glyph-name="uni1EAA" unicode="&#x1eaa;" horiz-adv-x="1449" 
d="M1110 2187l147 -94q-49 -100 -92 -135v2q-65 -59 -143 -59q-58 0 -109 32q-3 2 -17.5 9.5t-27.5 15.5q-46 18 -57 18q-40 0 -70 -82l-147 95q44 98 84 135q59 53 139 53q47 0 105 -25l49 -24l19 -9.5l17 -8.5t15 -5t20 -2q13 0 31.5 19t36.5 65zM877 182h-336l-66 -182
h-532l630 1366h566l254 -1366h-506zM748 741l-93 -247h189l-21 247q-4 46 -4 97q0 63 6 108h-16q-26 -113 -61 -205zM879 1599l-205 -145l-148 139l385 267l293 -267l-170 -139z" />
    <glyph glyph-name="uni1EAB" unicode="&#x1eab;" horiz-adv-x="1335" 
d="M1057 1782l147 -94q-50 -102 -92 -136v2q-65 -59 -143 -59q-56 0 -109 33q-3 2 -17.5 9t-27.5 15q-49 19 -57 19q-40 0 -70 -82l-147 94q44 98 84 135q60 54 139 54q46 0 104 -25l50 -25q8 -4 19.5 -9.5t16.5 -8t14.5 -4.5t20.5 -2q13 0 31.5 19t36.5 65zM825 956h471
l-118 -956h-469q23 96 51 170l-15 6q-62 -109 -129.5 -156t-164.5 -47q-161 0 -280.5 133.5t-119.5 313.5q0 149 66.5 280.5t177 210t235.5 78.5q115 0 181.5 -47t107.5 -158l17 7q-11 93 -11 145v20zM647 336q57 0 95 42.5t38 108.5q0 54 -31.5 89.5t-80.5 35.5
q-56 0 -97 -46t-41 -109q0 -54 33 -87.5t84 -33.5zM825 1194l-204 -145l-148 139l385 266l293 -266l-170 -139z" />
    <glyph glyph-name="uni1EAC" unicode="&#x1eac;" horiz-adv-x="1449" 
d="M438 -313q-1 67 52.5 112t132.5 45q85 0 139.5 -44.5t56.5 -112.5q-5 -67 -59 -111.5t-139 -44.5q-78 0 -132.5 45.5t-50.5 110.5zM877 182h-336l-66 -182h-532l630 1366h566l254 -1366h-506zM748 741l-93 -247h189l-21 247q-4 46 -4 97q0 63 6 108h-16
q-26 -113 -61 -205zM879 1599l-205 -145l-148 139l385 267l293 -267l-170 -139z" />
    <glyph glyph-name="uni1EAD" unicode="&#x1ead;" horiz-adv-x="1335" 
d="M375 -313q-1 67 52 112t132 45q86 0 140.5 -44.5t56.5 -112.5q-5 -67 -59.5 -111.5t-139.5 -44.5q-78 0 -132 45.5t-50 110.5zM825 956h471l-118 -956h-469q23 96 51 170l-15 6q-62 -109 -129.5 -156t-164.5 -47q-161 0 -280.5 133.5t-119.5 313.5q0 149 66.5 280.5
t177 210t235.5 78.5q115 0 181.5 -47t107.5 -158l17 7q-11 93 -11 145v20zM647 336q57 0 95 42.5t38 108.5q0 54 -31.5 89.5t-80.5 35.5q-56 0 -97 -46t-41 -109q0 -54 33 -87.5t84 -33.5zM825 1194l-204 -145l-148 139l385 266l293 -266l-170 -139z" />
    <glyph glyph-name="uni1EAE" unicode="&#x1eae;" horiz-adv-x="1449" 
d="M1251 2044l-379 -246l-116 127l323 293zM877 182h-336l-66 -182h-532l630 1366h566l254 -1366h-506zM748 741l-93 -247h189l-21 247q-4 46 -4 97q0 63 6 108h-16q-26 -113 -61 -205zM1006 1757h221q-10 -81 -46.5 -136.5t-66.5 -76.5q-90 -90 -254 -90q-157 0 -231 90
q-12 12 -26 33.5t-27.5 73t-6.5 106.5h222q0 -52 21.5 -76t76.5 -24q99 0 117 100z" />
    <glyph glyph-name="uni1EAF" unicode="&#x1eaf;" horiz-adv-x="1335" 
d="M1219 1638l-379 -245l-117 127l324 292zM825 956h471l-118 -956h-469q23 96 51 170l-15 6q-62 -109 -129.5 -156t-164.5 -47q-161 0 -280.5 133.5t-119.5 313.5q0 149 66.5 280.5t177 210t235.5 78.5q115 0 181.5 -47t107.5 -158l17 7q-11 93 -11 145v20zM647 336
q57 0 95 42.5t38 108.5q0 54 -31.5 89.5t-80.5 35.5q-56 0 -97 -46t-41 -109q0 -54 33 -87.5t84 -33.5zM973 1352h221q-10 -81 -46.5 -136.5t-66.5 -76.5q-90 -90 -254 -90q-157 0 -231 90q-12 12 -26 33.5t-27 73t-6 106.5h221q0 -52 21.5 -76.5t76.5 -24.5q99 0 117 101z
" />
    <glyph glyph-name="uni1EB0" unicode="&#x1eb0;" horiz-adv-x="1449" 
d="M922 1798l-297 254l190 166l244 -289zM877 182h-336l-66 -182h-532l630 1366h566l254 -1366h-506zM748 741l-93 -247h189l-21 247q-4 46 -4 97q0 63 6 108h-16q-26 -113 -61 -205zM1006 1757h221q-10 -81 -46.5 -136.5t-66.5 -76.5q-90 -90 -254 -90q-157 0 -231 90
q-12 12 -26 33.5t-27.5 73t-6.5 106.5h222q0 -52 21.5 -76t76.5 -24q99 0 117 100z" />
    <glyph glyph-name="uni1EB1" unicode="&#x1eb1;" horiz-adv-x="1335" 
d="M889 1393l-297 254l190 165l244 -288zM825 956h471l-118 -956h-469q23 96 51 170l-15 6q-62 -109 -129.5 -156t-164.5 -47q-161 0 -280.5 133.5t-119.5 313.5q0 149 66.5 280.5t177 210t235.5 78.5q115 0 181.5 -47t107.5 -158l17 7q-11 93 -11 145v20zM647 336
q57 0 95 42.5t38 108.5q0 54 -31.5 89.5t-80.5 35.5q-56 0 -97 -46t-41 -109q0 -54 33 -87.5t84 -33.5zM973 1352h221q-10 -81 -46.5 -136.5t-66.5 -76.5q-90 -90 -254 -90q-157 0 -231 90q-12 12 -26 33.5t-27 73t-6 106.5h221q0 -52 21.5 -76.5t76.5 -24.5q99 0 117 101z
" />
    <glyph glyph-name="uni1EB2" unicode="&#x1eb2;" horiz-adv-x="1449" 
d="M989 1798h-168l27 199q62 -13 110 8q27 15 29 39q3 14 -3.5 22t-15 9.5t-22.5 1.5q-15 0 -29 -11.5t-18 -33.5h-184q13 91 65 143q23 25 73 46.5t110 21.5q120 0 171.5 -51.5t39.5 -151.5q-10 -69 -60 -117t-110 -59zM877 182h-336l-66 -182h-532l630 1366h566l254 -1366
h-506zM748 741l-93 -247h189l-21 247q-4 46 -4 97q0 63 6 108h-16q-26 -113 -61 -205zM1006 1757h221q-10 -81 -46.5 -136.5t-66.5 -76.5q-90 -90 -254 -90q-157 0 -231 90q-12 12 -26 33.5t-27.5 73t-6.5 106.5h222q0 -52 21.5 -76t76.5 -24q99 0 117 100z" />
    <glyph glyph-name="uni1EB3" unicode="&#x1eb3;" horiz-adv-x="1335" 
d="M956 1393h-168l27 198q62 -13 111 8q26 15 28 39q3 14 -3.5 22t-15 9.5t-22.5 1.5q-15 0 -29 -11.5t-18 -33.5h-184q13 90 66 143q23 25 72.5 46.5t109.5 21.5q120 0 171.5 -51.5t39.5 -151.5q-10 -69 -60 -117t-110 -59zM825 956h471l-118 -956h-469q23 96 51 170l-15 6
q-62 -109 -129.5 -156t-164.5 -47q-161 0 -280.5 133.5t-119.5 313.5q0 149 66.5 280.5t177 210t235.5 78.5q115 0 181.5 -47t107.5 -158l17 7q-11 93 -11 145v20zM647 336q57 0 95 42.5t38 108.5q0 54 -31.5 89.5t-80.5 35.5q-56 0 -97 -46t-41 -109q0 -54 33 -87.5
t84 -33.5zM973 1352h221q-10 -81 -46.5 -136.5t-66.5 -76.5q-90 -90 -254 -90q-157 0 -231 90q-12 12 -26 33.5t-27 73t-6 106.5h221q0 -52 21.5 -76.5t76.5 -24.5q99 0 117 101z" />
    <glyph glyph-name="uni1EB4" unicode="&#x1eb4;" horiz-adv-x="1449" 
d="M1098 2101l147 -94q-49 -100 -92 -135v2q-65 -59 -143 -59q-58 0 -109 32q-3 2 -17.5 9.5t-27.5 15.5q-46 18 -57 18q-40 0 -70 -82l-147 95q44 98 84 135q59 53 139 53q47 0 104 -25l49 -24q8 -4 19.5 -9.5t17 -8.5t15 -5t20.5 -2q13 0 31.5 19t36.5 65zM877 182h-336
l-66 -182h-532l630 1366h566l254 -1366h-506zM748 741l-93 -247h189l-21 247q-4 46 -4 97q0 63 6 108h-16q-26 -113 -61 -205zM1006 1757h221q-10 -81 -46.5 -136.5t-66.5 -76.5q-90 -90 -254 -90q-157 0 -231 90q-12 12 -26 33.5t-27.5 73t-6.5 106.5h222q0 -52 21.5 -76
t76.5 -24q99 0 117 100z" />
    <glyph glyph-name="uni1EB5" unicode="&#x1eb5;" horiz-adv-x="1335" 
d="M1065 1696l147 -94q-50 -102 -92 -136v2q-65 -59 -143 -59q-56 0 -109 33q-3 2 -17.5 9t-27.5 15q-49 19 -57 19q-40 0 -70 -82l-147 94q44 98 84 135q60 54 139 54q48 0 105 -25l49 -25q8 -4 19.5 -9.5t16.5 -8t14.5 -4.5t20.5 -2q13 0 31.5 19t36.5 65zM825 956h471
l-118 -956h-469q23 96 51 170l-15 6q-62 -109 -129.5 -156t-164.5 -47q-161 0 -280.5 133.5t-119.5 313.5q0 149 66.5 280.5t177 210t235.5 78.5q115 0 181.5 -47t107.5 -158l17 7q-11 93 -11 145v20zM647 336q57 0 95 42.5t38 108.5q0 54 -31.5 89.5t-80.5 35.5
q-56 0 -97 -46t-41 -109q0 -54 33 -87.5t84 -33.5zM973 1352h221q-10 -81 -46.5 -136.5t-66.5 -76.5q-90 -90 -254 -90q-157 0 -231 90q-12 12 -26 33.5t-27 73t-6 106.5h221q0 -52 21.5 -76.5t76.5 -24.5q99 0 117 101z" />
    <glyph glyph-name="uni1EB6" unicode="&#x1eb6;" horiz-adv-x="1449" 
d="M438 -313q-1 67 52.5 112t132.5 45q85 0 139.5 -44.5t56.5 -112.5q-5 -67 -59 -111.5t-139 -44.5q-78 0 -132.5 45.5t-50.5 110.5zM877 182h-336l-66 -182h-532l630 1366h566l254 -1366h-506zM748 741l-93 -247h189l-21 247q-4 46 -4 97q0 63 6 108h-16
q-26 -113 -61 -205zM1006 1757h221q-10 -81 -46.5 -136.5t-66.5 -76.5q-90 -90 -254 -90q-157 0 -231 90q-12 12 -26 33.5t-27.5 73t-6.5 106.5h222q0 -52 21.5 -76t76.5 -24q99 0 117 100z" />
    <glyph glyph-name="uni1EB7" unicode="&#x1eb7;" horiz-adv-x="1335" 
d="M375 -313q-1 67 52 112t132 45q86 0 140.5 -44.5t56.5 -112.5q-5 -67 -59.5 -111.5t-139.5 -44.5q-78 0 -132 45.5t-50 110.5zM825 956h471l-118 -956h-469q23 96 51 170l-15 6q-62 -109 -129.5 -156t-164.5 -47q-161 0 -280.5 133.5t-119.5 313.5q0 149 66.5 280.5
t177 210t235.5 78.5q115 0 181.5 -47t107.5 -158l17 7q-11 93 -11 145v20zM647 336q57 0 95 42.5t38 108.5q0 54 -31.5 89.5t-80.5 35.5q-56 0 -97 -46t-41 -109q0 -54 33 -87.5t84 -33.5zM973 1352h221q-10 -81 -46.5 -136.5t-66.5 -76.5q-90 -90 -254 -90q-157 0 -231 90
q-12 12 -26 33.5t-27 73t-6 106.5h221q0 -52 21.5 -76.5t76.5 -24.5q99 0 117 101z" />
    <glyph glyph-name="uni1EB8" unicode="&#x1eb8;" horiz-adv-x="1124" 
d="M303 -313q-1 67 52 112t132 45q86 0 140.5 -44.5t56.5 -112.5q-5 -67 -59.5 -111.5t-139.5 -44.5q-78 0 -132 45.5t-50 110.5zM248 1366h897l-43 -356h-404l-18 -150h369l-41 -338h-369l-18 -155h417l-45 -367h-913z" />
    <glyph glyph-name="uni1EB9" unicode="&#x1eb9;" horiz-adv-x="1228" 
d="M336 -313q-1 67 52 112t132 45q86 0 140.5 -44.5t56.5 -112.5q-5 -67 -59.5 -111.5t-139.5 -44.5q-78 0 -132 45.5t-50 110.5zM1171 401h-659q-2 -14 -2 -32q0 -58 26.5 -92.5t73.5 -34.5q68 0 101 80h442q-31 -82 -55.5 -122.5t-73.5 -84.5q-165 -142 -410 -142
q-247 0 -402 133.5t-155 348.5q0 149 75 270t206.5 189.5t292.5 68.5q151 0 277 -64.5t198 -176t72 -244.5q0 -25 -7 -97zM643 717q-94 0 -115 -125h215q0 125 -100 125z" />
    <glyph glyph-name="uni1EBA" unicode="&#x1eba;" horiz-adv-x="1124" 
d="M807 1454h-168l27 199q62 -13 110 8q27 15 29 39q3 14 -3.5 22t-15 9.5t-22.5 1.5q-15 0 -29 -11.5t-18 -33.5h-185q13 90 66 143q23 25 72.5 46t109.5 21q120 0 171.5 -51t39.5 -151q-10 -69 -60 -117t-110 -59zM248 1366h897l-43 -356h-404l-18 -150h369l-41 -338h-369
l-18 -155h417l-45 -367h-913z" />
    <glyph glyph-name="uni1EBB" unicode="&#x1ebb;" horiz-adv-x="1228" 
d="M772 1049h-168l27 198q62 -13 110 8q27 15 29 39q3 14 -3.5 22t-15 9.5t-22.5 1.5q-15 0 -29 -11.5t-18 -33.5h-184q13 91 65 143q23 25 72.5 46.5t109.5 21.5q120 0 171.5 -51.5t39.5 -151.5q-10 -69 -60 -117t-110 -59zM1171 401h-659q-2 -14 -2 -32q0 -58 26.5 -92.5
t73.5 -34.5q68 0 101 80h442q-31 -82 -55.5 -122.5t-73.5 -84.5q-165 -142 -410 -142q-247 0 -402 133.5t-155 348.5q0 149 75 270t206.5 189.5t292.5 68.5q151 0 277 -64.5t198 -176t72 -244.5q0 -25 -7 -97zM643 717q-94 0 -115 -125h215q0 125 -100 125z" />
    <glyph glyph-name="uni1EBC" unicode="&#x1ebc;" horiz-adv-x="1124" 
d="M891 1765l147 -94q-49 -100 -92 -135v2q-65 -59 -143 -59q-58 0 -109 32q-3 2 -17.5 9.5t-27.5 15.5q-46 18 -57 18q-40 0 -70 -81l-147 94q44 98 84 135q59 53 139 53q49 0 104 -24l50 -25l19 -9.5l17 -8.5t15 -5t20 -2q13 0 31.5 19t36.5 65zM248 1366h897l-43 -356
h-404l-18 -150h369l-41 -338h-369l-18 -155h417l-45 -367h-913z" />
    <glyph glyph-name="uni1EBD" unicode="&#x1ebd;" horiz-adv-x="1228" 
d="M887 1362l147 -94q-49 -100 -92 -135v2q-66 -60 -143 -60q-56 0 -109 33q-3 2 -17.5 9.5t-27.5 15.5q-46 18 -57 18q-40 0 -70 -82l-147 94q44 98 84 135q60 54 139 54q46 0 104 -25l50 -24l19 -9.5l17 -8.5t15 -5t20 -2q13 0 31.5 19t36.5 65zM1171 401h-659
q-2 -14 -2 -32q0 -58 26.5 -92.5t73.5 -34.5q68 0 101 80h442q-31 -82 -55.5 -122.5t-73.5 -84.5q-165 -142 -410 -142q-247 0 -402 133.5t-155 348.5q0 149 75 270t206.5 189.5t292.5 68.5q151 0 277 -64.5t198 -176t72 -244.5q0 -25 -7 -97zM643 717q-94 0 -115 -125h215
q0 125 -100 125z" />
    <glyph glyph-name="uni1EBE" unicode="&#x1ebe;" horiz-adv-x="1124" 
d="M1362 2019l-379 -245l-117 127l324 292zM248 1366h897l-43 -356h-404l-18 -150h369l-41 -338h-369l-18 -155h417l-45 -367h-913zM723 1599l-205 -145l-147 139l385 267l293 -267l-170 -139z" />
    <glyph glyph-name="uni1EBF" unicode="&#x1ebf;" horiz-adv-x="1228" 
d="M1339 1614l-378 -246l-117 127l323 293zM1171 401h-659q-2 -14 -2 -32q0 -58 26.5 -92.5t73.5 -34.5q68 0 101 80h442q-31 -82 -55.5 -122.5t-73.5 -84.5q-165 -142 -410 -142q-247 0 -402 133.5t-155 348.5q0 149 75 270t206.5 189.5t292.5 68.5q151 0 277 -64.5
t198 -176t72 -244.5q0 -25 -7 -97zM643 717q-94 0 -115 -125h215q0 125 -100 125zM700 1194l-204 -145l-148 139l385 266l293 -266l-170 -139z" />
    <glyph glyph-name="uni1EC0" unicode="&#x1ec0;" horiz-adv-x="1124" 
d="M1010 1774l-297 254l190 165l244 -288zM248 1366h897l-43 -356h-404l-18 -150h369l-41 -338h-369l-18 -155h417l-45 -367h-913zM723 1599l-205 -145l-147 139l385 267l293 -267l-170 -139z" />
    <glyph glyph-name="uni1EC1" unicode="&#x1ec1;" horiz-adv-x="1228" 
d="M987 1368l-297 254l191 166l243 -289zM1171 401h-659q-2 -14 -2 -32q0 -58 26.5 -92.5t73.5 -34.5q68 0 101 80h442q-31 -82 -55.5 -122.5t-73.5 -84.5q-165 -142 -410 -142q-247 0 -402 133.5t-155 348.5q0 149 75 270t206.5 189.5t292.5 68.5q151 0 277 -64.5t198 -176
t72 -244.5q0 -25 -7 -97zM643 717q-94 0 -115 -125h215q0 125 -100 125zM700 1194l-204 -145l-148 139l385 266l293 -266l-170 -139z" />
    <glyph glyph-name="uni1EC2" unicode="&#x1ec2;" horiz-adv-x="1124" 
d="M1128 1774h-167l26 198q62 -13 111 8q26 15 28 39q3 14 -3.5 22t-15 9.5t-22.5 1.5q-15 0 -29 -11.5t-18 -33.5h-184q13 90 66 143q23 25 72.5 46.5t109.5 21.5q120 0 171.5 -51.5t39.5 -151.5q-10 -69 -60 -117t-110 -59zM248 1366h897l-43 -356h-404l-18 -150h369
l-41 -338h-369l-18 -155h417l-45 -367h-913zM723 1599l-205 -145l-147 139l385 267l293 -267l-170 -139z" />
    <glyph glyph-name="uni1EC3" unicode="&#x1ec3;" horiz-adv-x="1228" 
d="M1106 1368h-168l27 199q62 -13 110 8q27 15 29 39q3 14 -3.5 22t-15 9.5t-22.5 1.5q-15 0 -29 -11.5t-18 -33.5h-185q13 90 66 143q23 25 72.5 46t109.5 21q120 0 171.5 -51t39.5 -151q-10 -69 -60 -117t-110 -59zM1171 401h-659q-2 -14 -2 -32q0 -58 26.5 -92.5
t73.5 -34.5q68 0 101 80h442q-31 -82 -55.5 -122.5t-73.5 -84.5q-165 -142 -410 -142q-247 0 -402 133.5t-155 348.5q0 149 75 270t206.5 189.5t292.5 68.5q151 0 277 -64.5t198 -176t72 -244.5q0 -25 -7 -97zM643 717q-94 0 -115 -125h215q0 125 -100 125zM700 1194
l-204 -145l-148 139l385 266l293 -266l-170 -139z" />
    <glyph glyph-name="uni1EC4" unicode="&#x1ec4;" horiz-adv-x="1124" 
d="M954 2187l148 -94q-49 -100 -92 -135v2q-65 -59 -144 -59q-57 0 -108 32q-3 2 -17.5 9.5t-27.5 15.5q-46 18 -58 18q-39 0 -69 -82l-148 95q44 98 84 135q59 53 140 53q46 0 104 -25l49 -24q8 -4 19.5 -9.5t17 -8.5t15 -5t20.5 -2q34 0 67 84zM248 1366h897l-43 -356
h-404l-18 -150h369l-41 -338h-369l-18 -155h417l-45 -367h-913zM723 1599l-205 -145l-147 139l385 267l293 -267l-170 -139z" />
    <glyph glyph-name="uni1EC5" unicode="&#x1ec5;" horiz-adv-x="1228" 
d="M932 1782l147 -94q-50 -102 -92 -136v2q-65 -59 -143 -59q-56 0 -109 33q-3 2 -17.5 9t-27.5 15q-49 19 -57 19q-40 0 -70 -82l-147 94q44 98 84 135q60 54 139 54q47 0 104 -25l50 -25q8 -4 19.5 -9.5t16.5 -8t14.5 -4.5t20.5 -2q13 0 31.5 19t36.5 65zM1171 401h-659
q-2 -14 -2 -32q0 -58 26.5 -92.5t73.5 -34.5q68 0 101 80h442q-31 -82 -55.5 -122.5t-73.5 -84.5q-165 -142 -410 -142q-247 0 -402 133.5t-155 348.5q0 149 75 270t206.5 189.5t292.5 68.5q151 0 277 -64.5t198 -176t72 -244.5q0 -25 -7 -97zM643 717q-94 0 -115 -125h215
q0 125 -100 125zM700 1194l-204 -145l-148 139l385 266l293 -266l-170 -139z" />
    <glyph glyph-name="uni1EC6" unicode="&#x1ec6;" horiz-adv-x="1124" 
d="M303 -313q-1 67 52 112t132 45q86 0 140.5 -44.5t56.5 -112.5q-5 -67 -59.5 -111.5t-139.5 -44.5q-78 0 -132 45.5t-50 110.5zM248 1366h897l-43 -356h-404l-18 -150h369l-41 -338h-369l-18 -155h417l-45 -367h-913zM723 1599l-205 -145l-147 139l385 267l293 -267
l-170 -139z" />
    <glyph glyph-name="uni1EC7" unicode="&#x1ec7;" horiz-adv-x="1228" 
d="M336 -313q-1 67 52 112t132 45q86 0 140.5 -44.5t56.5 -112.5q-5 -67 -59.5 -111.5t-139.5 -44.5q-78 0 -132 45.5t-50 110.5zM1171 401h-659q-2 -14 -2 -32q0 -58 26.5 -92.5t73.5 -34.5q68 0 101 80h442q-31 -82 -55.5 -122.5t-73.5 -84.5q-165 -142 -410 -142
q-247 0 -402 133.5t-155 348.5q0 149 75 270t206.5 189.5t292.5 68.5q151 0 277 -64.5t198 -176t72 -244.5q0 -25 -7 -97zM643 717q-94 0 -115 -125h215q0 125 -100 125zM700 1194l-204 -145l-148 139l385 266l293 -266l-170 -139z" />
    <glyph glyph-name="uni1EC8" unicode="&#x1ec8;" horiz-adv-x="776" 
d="M592 1454h-168l27 199q62 -13 110 8q27 15 29 39q3 14 -3.5 22t-15 9.5t-22.5 1.5q-15 0 -29 -11.5t-18 -33.5h-185q13 90 66 143q23 25 72.5 46t109.5 21q120 0 171.5 -51t39.5 -151q-10 -69 -60 -117t-110 -59zM248 1366h502l-168 -1366h-502z" />
    <glyph glyph-name="uni1EC9" unicode="&#x1ec9;" horiz-adv-x="679" 
d="M166 956h473l-117 -956h-473zM487 1049h-168l27 198q62 -13 111 8q26 15 28 39q3 14 -3.5 22t-15 9.5t-22.5 1.5q-15 0 -29 -11.5t-18 -33.5h-184q13 90 66 143q23 25 72.5 46.5t109.5 21.5q120 0 171.5 -51.5t39.5 -151.5q-10 -69 -60 -117t-110 -59z" />
    <glyph glyph-name="uni1ECA" unicode="&#x1eca;" horiz-adv-x="776" 
d="M109 -313q-1 67 52 112t132 45q85 0 139.5 -44.5t56.5 -112.5q-5 -67 -59 -111.5t-139 -44.5q-78 0 -132 45.5t-50 110.5zM248 1366h502l-168 -1366h-502z" />
    <glyph glyph-name="uni1ECB" unicode="&#x1ecb;" horiz-adv-x="679" 
d="M57 -313q-1 67 52.5 112t132.5 45q85 0 139.5 -44.5t56.5 -112.5q-5 -67 -59 -111.5t-139 -44.5q-78 0 -132.5 45.5t-50.5 110.5zM166 956h473l-117 -956h-473zM227 1192q-1 67 52.5 112.5t132.5 45.5q85 0 139.5 -45t56.5 -113q-5 -67 -59 -111.5t-139 -44.5
q-78 0 -132.5 45.5t-50.5 110.5z" />
    <glyph glyph-name="uni1ECC" unicode="&#x1ecc;" horiz-adv-x="1654" 
d="M565 -313q-1 67 52.5 112t132.5 45q85 0 139.5 -44.5t56.5 -112.5q-5 -67 -59 -111.5t-139 -44.5q-78 0 -132.5 45.5t-50.5 110.5zM1382 1210q228 -187 228 -516q0 -205 -97.5 -372t-269 -262t-381.5 -95q-159 0 -301 54t-243.5 147t-160.5 222.5t-59 275.5
q0 153 59 289.5t159.5 234t240 154.5t295.5 57q148 0 285 -48.5t245 -140.5zM840 395q116 0 193 83.5t77 207.5q0 109 -70 184.5t-172 75.5q-111 0 -190.5 -84.5t-79.5 -202.5q0 -115 68.5 -189.5t173.5 -74.5z" />
    <glyph glyph-name="uni1ECD" unicode="&#x1ecd;" horiz-adv-x="1271" 
d="M346 -313q-1 67 52 112t132 45q86 0 140.5 -44.5t56.5 -112.5q-5 -67 -59.5 -111.5t-139.5 -44.5q-78 0 -132 45.5t-50 110.5zM639 983q263 0 422.5 -136.5t159.5 -361.5q0 -219 -166 -365.5t-414 -146.5q-252 0 -417 141t-165 357q0 145 75.5 262.5t208 183.5t296.5 66z
M637 336q56 0 91.5 41.5t35.5 107.5q0 57 -33 95t-84 38q-54 0 -92.5 -44t-38.5 -105q0 -58 34 -95.5t87 -37.5z" />
    <glyph glyph-name="uni1ECE" unicode="&#x1ece;" horiz-adv-x="1654" 
d="M1057 1454h-168l26 199q62 -13 111 8q27 15 29 39q3 14 -3.5 22t-15 9.5t-22.5 1.5q-15 0 -29 -11.5t-18 -33.5h-185q13 90 66 143q23 25 72.5 46t109.5 21q120 0 171.5 -51t39.5 -151q-10 -69 -60 -117t-110 -59zM1382 1210q228 -187 228 -516q0 -205 -97.5 -372
t-269 -262t-381.5 -95q-159 0 -301 54t-243.5 147t-160.5 222.5t-59 275.5q0 153 59 289.5t159.5 234t240 154.5t295.5 57q148 0 285 -48.5t245 -140.5zM840 395q116 0 193 83.5t77 207.5q0 109 -70 184.5t-172 75.5q-111 0 -190.5 -84.5t-79.5 -202.5q0 -115 68.5 -189.5
t173.5 -74.5z" />
    <glyph glyph-name="uni1ECF" unicode="&#x1ecf;" horiz-adv-x="1271" 
d="M809 1049h-168l27 198q62 -13 110 8q27 15 29 39q3 14 -3.5 22t-15 9.5t-22.5 1.5q-15 0 -29 -11.5t-18 -33.5h-184q13 91 65 143q23 25 72.5 46.5t109.5 21.5q120 0 171.5 -51.5t39.5 -151.5q-10 -69 -60 -117t-110 -59zM639 983q263 0 422.5 -136.5t159.5 -361.5
q0 -219 -166 -365.5t-414 -146.5q-252 0 -417 141t-165 357q0 145 75.5 262.5t208 183.5t296.5 66zM637 336q56 0 91.5 41.5t35.5 107.5q0 57 -33 95t-84 38q-54 0 -92.5 -44t-38.5 -105q0 -58 34 -95.5t87 -37.5z" />
    <glyph glyph-name="uni1ED0" unicode="&#x1ed0;" horiz-adv-x="1654" 
d="M1608 2019l-379 -245l-117 127l324 292zM1382 1210q228 -187 228 -516q0 -205 -97.5 -372t-269 -262t-381.5 -95q-159 0 -301 54t-243.5 147t-160.5 222.5t-59 275.5q0 153 59 289.5t159.5 234t240 154.5t295.5 57q148 0 285 -48.5t245 -140.5zM840 395q116 0 193 83.5
t77 207.5q0 109 -70 184.5t-172 75.5q-111 0 -190.5 -84.5t-79.5 -202.5q0 -115 68.5 -189.5t173.5 -74.5zM969 1599l-205 -145l-148 139l385 267l293 -267l-170 -139z" />
    <glyph glyph-name="uni1ED1" unicode="&#x1ed1;" horiz-adv-x="1271" 
d="M1374 1614l-379 -246l-116 127l323 293zM639 983q263 0 422.5 -136.5t159.5 -361.5q0 -219 -166 -365.5t-414 -146.5q-252 0 -417 141t-165 357q0 145 75.5 262.5t208 183.5t296.5 66zM637 336q56 0 91.5 41.5t35.5 107.5q0 57 -33 95t-84 38q-54 0 -92.5 -44t-38.5 -105
q0 -58 34 -95.5t87 -37.5zM735 1194l-205 -145l-147 139l385 266l293 -266l-170 -139z" />
    <glyph glyph-name="uni1ED2" unicode="&#x1ed2;" horiz-adv-x="1654" 
d="M1255 1774l-297 254l191 165l244 -288zM1382 1210q228 -187 228 -516q0 -205 -97.5 -372t-269 -262t-381.5 -95q-159 0 -301 54t-243.5 147t-160.5 222.5t-59 275.5q0 153 59 289.5t159.5 234t240 154.5t295.5 57q148 0 285 -48.5t245 -140.5zM840 395q116 0 193 83.5
t77 207.5q0 109 -70 184.5t-172 75.5q-111 0 -190.5 -84.5t-79.5 -202.5q0 -115 68.5 -189.5t173.5 -74.5zM969 1599l-205 -145l-148 139l385 267l293 -267l-170 -139z" />
    <glyph glyph-name="uni1ED3" unicode="&#x1ed3;" horiz-adv-x="1271" 
d="M1022 1368l-297 254l190 166l244 -289zM639 983q263 0 422.5 -136.5t159.5 -361.5q0 -219 -166 -365.5t-414 -146.5q-252 0 -417 141t-165 357q0 145 75.5 262.5t208 183.5t296.5 66zM637 336q56 0 91.5 41.5t35.5 107.5q0 57 -33 95t-84 38q-54 0 -92.5 -44t-38.5 -105
q0 -58 34 -95.5t87 -37.5zM735 1194l-205 -145l-147 139l385 266l293 -266l-170 -139z" />
    <glyph glyph-name="uni1ED4" unicode="&#x1ed4;" horiz-adv-x="1654" 
d="M1374 1774h-168l27 198q62 -13 110 8q27 15 29 39q3 14 -3.5 22t-15 9.5t-22.5 1.5q-15 0 -29 -11.5t-18 -33.5h-184q13 91 65 143q23 25 73 46.5t110 21.5q120 0 171.5 -51.5t39.5 -151.5q-10 -69 -60 -117t-110 -59zM1382 1210q228 -187 228 -516q0 -205 -97.5 -372
t-269 -262t-381.5 -95q-159 0 -301 54t-243.5 147t-160.5 222.5t-59 275.5q0 153 59 289.5t159.5 234t240 154.5t295.5 57q148 0 285 -48.5t245 -140.5zM840 395q116 0 193 83.5t77 207.5q0 109 -70 184.5t-172 75.5q-111 0 -190.5 -84.5t-79.5 -202.5q0 -115 68.5 -189.5
t173.5 -74.5zM969 1599l-205 -145l-148 139l385 267l293 -267l-170 -139z" />
    <glyph glyph-name="uni1ED5" unicode="&#x1ed5;" horiz-adv-x="1271" 
d="M1141 1368h-168l26 199q62 -13 111 8q27 15 29 39q3 14 -3.5 22t-15 9.5t-22.5 1.5q-15 0 -29 -11.5t-18 -33.5h-185q13 90 66 143q23 25 72.5 46t109.5 21q120 0 171.5 -51t39.5 -151q-10 -69 -60 -117t-110 -59zM639 983q263 0 422.5 -136.5t159.5 -361.5
q0 -219 -166 -365.5t-414 -146.5q-252 0 -417 141t-165 357q0 145 75.5 262.5t208 183.5t296.5 66zM637 336q56 0 91.5 41.5t35.5 107.5q0 57 -33 95t-84 38q-54 0 -92.5 -44t-38.5 -105q0 -58 34 -95.5t87 -37.5zM735 1194l-205 -145l-147 139l385 266l293 -266l-170 -139z
" />
    <glyph glyph-name="uni1ED6" unicode="&#x1ed6;" horiz-adv-x="1654" 
d="M1200 2187l148 -94q-49 -99 -93 -135v2q-65 -59 -143 -59q-57 0 -108 32q-3 2 -18 9.5t-28 15.5q-46 18 -57 18q-40 0 -70 -82l-147 95q44 98 84 135q59 53 139 53q47 0 105 -25l49 -24q8 -4 19.5 -9.5t17 -8.5t15 -5t20.5 -2q34 0 67 84zM1382 1210q228 -187 228 -516
q0 -205 -97.5 -372t-269 -262t-381.5 -95q-159 0 -301 54t-243.5 147t-160.5 222.5t-59 275.5q0 153 59 289.5t159.5 234t240 154.5t295.5 57q148 0 285 -48.5t245 -140.5zM840 395q116 0 193 83.5t77 207.5q0 109 -70 184.5t-172 75.5q-111 0 -190.5 -84.5t-79.5 -202.5
q0 -115 68.5 -189.5t173.5 -74.5zM969 1599l-205 -145l-148 139l385 267l293 -267l-170 -139z" />
    <glyph glyph-name="uni1ED7" unicode="&#x1ed7;" horiz-adv-x="1271" 
d="M967 1782l147 -94q-50 -102 -92 -136v2q-65 -59 -143 -59q-56 0 -109 33q-3 2 -17.5 9t-27.5 15q-49 19 -57 19q-40 0 -70 -82l-147 94q44 98 84 135q60 54 139 54q46 0 104 -25l49 -25q7 -3 19 -9t17.5 -8.5t15 -4.5t20.5 -2q13 0 31.5 19t36.5 65zM639 983
q263 0 422.5 -136.5t159.5 -361.5q0 -219 -166 -365.5t-414 -146.5q-252 0 -417 141t-165 357q0 145 75.5 262.5t208 183.5t296.5 66zM637 336q56 0 91.5 41.5t35.5 107.5q0 57 -33 95t-84 38q-54 0 -92.5 -44t-38.5 -105q0 -58 34 -95.5t87 -37.5zM735 1194l-205 -145
l-147 139l385 266l293 -266l-170 -139z" />
    <glyph glyph-name="uni1ED8" unicode="&#x1ed8;" horiz-adv-x="1654" 
d="M565 -313q-1 67 52.5 112t132.5 45q85 0 139.5 -44.5t56.5 -112.5q-5 -67 -59 -111.5t-139 -44.5q-78 0 -132.5 45.5t-50.5 110.5zM1382 1210q228 -187 228 -516q0 -205 -97.5 -372t-269 -262t-381.5 -95q-159 0 -301 54t-243.5 147t-160.5 222.5t-59 275.5
q0 153 59 289.5t159.5 234t240 154.5t295.5 57q148 0 285 -48.5t245 -140.5zM840 395q116 0 193 83.5t77 207.5q0 109 -70 184.5t-172 75.5q-111 0 -190.5 -84.5t-79.5 -202.5q0 -115 68.5 -189.5t173.5 -74.5zM969 1599l-205 -145l-148 139l385 267l293 -267l-170 -139z
" />
    <glyph glyph-name="uni1ED9" unicode="&#x1ed9;" horiz-adv-x="1271" 
d="M346 -313q-1 67 52 112t132 45q86 0 140.5 -44.5t56.5 -112.5q-5 -67 -59.5 -111.5t-139.5 -44.5q-78 0 -132 45.5t-50 110.5zM639 983q263 0 422.5 -136.5t159.5 -361.5q0 -219 -166 -365.5t-414 -146.5q-252 0 -417 141t-165 357q0 145 75.5 262.5t208 183.5t296.5 66z
M637 336q56 0 91.5 41.5t35.5 107.5q0 57 -33 95t-84 38q-54 0 -92.5 -44t-38.5 -105q0 -58 34 -95.5t87 -37.5zM735 1194l-205 -145l-147 139l385 266l293 -266l-170 -139z" />
    <glyph glyph-name="uni1EDA" unicode="&#x1eda;" horiz-adv-x="1654" 
d="M1323 1698l-379 -246l-117 127l324 293zM1393 1513h276l-6 -53q-18 -140 -65.5 -210.5t-153.5 -98.5q166 -181 166 -457q0 -205 -97.5 -372t-269 -262t-381.5 -95q-159 0 -301 54t-243.5 147t-160.5 222.5t-59 275.5q0 153 59 289.5t159.5 234t240 154.5t295.5 57
q122 0 231 -33q63 -7 139.5 -8t90.5 4q38 5 47 14q5 5 9 11t6.5 15.5t4 16t3.5 20t3 19.5q0 1 0.5 3.5t2 16t4.5 35.5zM840 395q116 0 193 83.5t77 207.5q0 109 -70 184.5t-172 75.5q-111 0 -190.5 -84.5t-79.5 -202.5q0 -115 68.5 -189.5t173.5 -74.5z" />
    <glyph glyph-name="uni1EDB" unicode="&#x1edb;" horiz-adv-x="1271" 
d="M1053 1294l-379 -245l-117 127l324 292zM639 983q95 0 188 -22v2q140 -22 183 -11q37 5 47 15q5 5 9 11t6.5 15.5t4 16t3.5 20t3 19.5q0 1 0.5 3.5t2 16t4.5 35.5h276l-6 -53q-14 -134 -61.5 -206.5t-149.5 -101.5q72 -110 72 -258q0 -219 -166 -365.5t-414 -146.5
q-252 0 -417 141t-165 357q0 145 75.5 262.5t208 183.5t296.5 66zM637 336q56 0 91.5 41.5t35.5 107.5q0 57 -33 95t-84 38q-54 0 -92.5 -44t-38.5 -105q0 -58 34 -95.5t87 -37.5z" />
    <glyph glyph-name="uni1EDC" unicode="&#x1edc;" horiz-adv-x="1654" 
d="M1032 1452l-297 254l191 166l243 -289zM1393 1513h276l-6 -53q-18 -140 -65.5 -210.5t-153.5 -98.5q166 -181 166 -457q0 -205 -97.5 -372t-269 -262t-381.5 -95q-159 0 -301 54t-243.5 147t-160.5 222.5t-59 275.5q0 153 59 289.5t159.5 234t240 154.5t295.5 57
q122 0 231 -33q63 -7 139.5 -8t90.5 4q38 5 47 14q5 5 9 11t6.5 15.5t4 16t3.5 20t3 19.5q0 1 0.5 3.5t2 16t4.5 35.5zM840 395q116 0 193 83.5t77 207.5q0 109 -70 184.5t-172 75.5q-111 0 -190.5 -84.5t-79.5 -202.5q0 -115 68.5 -189.5t173.5 -74.5z" />
    <glyph glyph-name="uni1EDD" unicode="&#x1edd;" horiz-adv-x="1271" 
d="M735 1049l-297 254l191 165l243 -288zM639 983q95 0 188 -22v2q140 -22 183 -11q37 5 47 15q5 5 9 11t6.5 15.5t4 16t3.5 20t3 19.5q0 1 0.5 3.5t2 16t4.5 35.5h276l-6 -53q-14 -134 -61.5 -206.5t-149.5 -101.5q72 -110 72 -258q0 -219 -166 -365.5t-414 -146.5
q-252 0 -417 141t-165 357q0 145 75.5 262.5t208 183.5t296.5 66zM637 336q56 0 91.5 41.5t35.5 107.5q0 57 -33 95t-84 38q-54 0 -92.5 -44t-38.5 -105q0 -58 34 -95.5t87 -37.5z" />
    <glyph glyph-name="uni1EDE" unicode="&#x1ede;" horiz-adv-x="1654" 
d="M1057 1454h-168l26 199q62 -13 111 8q27 15 29 39q3 14 -3.5 22t-15 9.5t-22.5 1.5q-15 0 -29 -11.5t-18 -33.5h-185q13 90 66 143q23 25 72.5 46t109.5 21q120 0 171.5 -51t39.5 -151q-10 -69 -60 -117t-110 -59zM1393 1513h276l-6 -53q-18 -140 -65.5 -210.5
t-153.5 -98.5q166 -181 166 -457q0 -205 -97.5 -372t-269 -262t-381.5 -95q-159 0 -301 54t-243.5 147t-160.5 222.5t-59 275.5q0 153 59 289.5t159.5 234t240 154.5t295.5 57q122 0 231 -33q63 -7 139.5 -8t90.5 4q38 5 47 14q5 5 9 11t6.5 15.5t4 16t3.5 20t3 19.5
q0 1 0.5 3.5t2 16t4.5 35.5zM840 395q116 0 193 83.5t77 207.5q0 109 -70 184.5t-172 75.5q-111 0 -190.5 -84.5t-79.5 -202.5q0 -115 68.5 -189.5t173.5 -74.5z" />
    <glyph glyph-name="uni1EDF" unicode="&#x1edf;" horiz-adv-x="1271" 
d="M809 1049h-168l27 198q62 -13 110 8q27 15 29 39q3 14 -3.5 22t-15 9.5t-22.5 1.5q-15 0 -29 -11.5t-18 -33.5h-184q13 91 65 143q23 25 72.5 46.5t109.5 21.5q120 0 171.5 -51.5t39.5 -151.5q-10 -69 -60 -117t-110 -59zM639 983q95 0 188 -22v2q140 -22 183 -11
q37 5 47 15q5 5 9 11t6.5 15.5t4 16t3.5 20t3 19.5q0 1 0.5 3.5t2 16t4.5 35.5h276l-6 -53q-14 -134 -61.5 -206.5t-149.5 -101.5q72 -110 72 -258q0 -219 -166 -365.5t-414 -146.5q-252 0 -417 141t-165 357q0 145 75.5 262.5t208 183.5t296.5 66zM637 336q56 0 91.5 41.5
t35.5 107.5q0 57 -33 95t-84 38q-54 0 -92.5 -44t-38.5 -105q0 -58 34 -95.5t87 -37.5z" />
    <glyph glyph-name="uni1EE0" unicode="&#x1ee0;" horiz-adv-x="1654" 
d="M1153 1765l147 -94q-49 -100 -92 -135v2q-65 -59 -143 -59q-58 0 -109 32q-3 2 -17.5 9.5t-27.5 15.5q-46 18 -57 18q-40 0 -70 -81l-147 94q44 98 84 135q59 53 139 53q50 0 105 -24l49 -25l19 -9.5l17 -8.5t15 -5t20 -2q13 0 31.5 19t36.5 65zM1393 1513h276l-6 -53
q-18 -140 -65.5 -210.5t-153.5 -98.5q166 -181 166 -457q0 -205 -97.5 -372t-269 -262t-381.5 -95q-159 0 -301 54t-243.5 147t-160.5 222.5t-59 275.5q0 153 59 289.5t159.5 234t240 154.5t295.5 57q122 0 231 -33q63 -7 139.5 -8t90.5 4q38 5 47 14q5 5 9 11t6.5 15.5
t4 16t3.5 20t3 19.5q0 1 0.5 3.5t2 16t4.5 35.5zM840 395q116 0 193 83.5t77 207.5q0 109 -70 184.5t-172 75.5q-111 0 -190.5 -84.5t-79.5 -202.5q0 -115 68.5 -189.5t173.5 -74.5z" />
    <glyph glyph-name="uni1EE1" unicode="&#x1ee1;" horiz-adv-x="1271" 
d="M895 1362l147 -94q-49 -100 -92 -135v2q-66 -60 -143 -60q-56 0 -109 33q-3 2 -17.5 9.5t-27.5 15.5q-46 18 -57 18q-40 0 -70 -82l-147 94q44 98 84 135q60 54 139 54q48 0 105 -25l49 -24l19 -9.5l17 -8.5t15 -5t20 -2q13 0 31.5 19t36.5 65zM639 983q95 0 188 -22v2
q140 -22 183 -11q37 5 47 15q5 5 9 11t6.5 15.5t4 16t3.5 20t3 19.5q0 1 0.5 3.5t2 16t4.5 35.5h276l-6 -53q-14 -134 -61.5 -206.5t-149.5 -101.5q72 -110 72 -258q0 -219 -166 -365.5t-414 -146.5q-252 0 -417 141t-165 357q0 145 75.5 262.5t208 183.5t296.5 66zM637 336
q56 0 91.5 41.5t35.5 107.5q0 57 -33 95t-84 38q-54 0 -92.5 -44t-38.5 -105q0 -58 34 -95.5t87 -37.5z" />
    <glyph glyph-name="uni1EE2" unicode="&#x1ee2;" horiz-adv-x="1654" 
d="M565 -313q-1 67 52.5 112t132.5 45q85 0 139.5 -44.5t56.5 -112.5q-5 -67 -59 -111.5t-139 -44.5q-78 0 -132.5 45.5t-50.5 110.5zM1393 1513h276l-6 -53q-18 -140 -65.5 -210.5t-153.5 -98.5q166 -181 166 -457q0 -205 -97.5 -372t-269 -262t-381.5 -95q-159 0 -301 54
t-243.5 147t-160.5 222.5t-59 275.5q0 153 59 289.5t159.5 234t240 154.5t295.5 57q122 0 231 -33q63 -7 139.5 -8t90.5 4q38 5 47 14q5 5 9 11t6.5 15.5t4 16t3.5 20t3 19.5q0 1 0.5 3.5t2 16t4.5 35.5zM840 395q116 0 193 83.5t77 207.5q0 109 -70 184.5t-172 75.5
q-111 0 -190.5 -84.5t-79.5 -202.5q0 -115 68.5 -189.5t173.5 -74.5z" />
    <glyph glyph-name="uni1EE3" unicode="&#x1ee3;" horiz-adv-x="1271" 
d="M346 -313q-1 67 52 112t132 45q86 0 140.5 -44.5t56.5 -112.5q-5 -67 -59.5 -111.5t-139.5 -44.5q-78 0 -132 45.5t-50 110.5zM639 983q95 0 188 -22v2q140 -22 183 -11q37 5 47 15q5 5 9 11t6.5 15.5t4 16t3.5 20t3 19.5q0 1 0.5 3.5t2 16t4.5 35.5h276l-6 -53
q-14 -134 -61.5 -206.5t-149.5 -101.5q72 -110 72 -258q0 -219 -166 -365.5t-414 -146.5q-252 0 -417 141t-165 357q0 145 75.5 262.5t208 183.5t296.5 66zM637 336q56 0 91.5 41.5t35.5 107.5q0 57 -33 95t-84 38q-54 0 -92.5 -44t-38.5 -105q0 -58 34 -95.5t87 -37.5z" />
    <glyph glyph-name="uni1EE4" unicode="&#x1ee4;" horiz-adv-x="1552" 
d="M487 -313q-1 67 52.5 112t132.5 45q85 0 139.5 -44.5t56.5 -112.5q-5 -67 -59 -111.5t-139 -44.5q-78 0 -132.5 45.5t-50.5 110.5zM1024 1366h502l-92 -756q-29 -220 -65 -311t-126 -174q-93 -82 -204.5 -121t-258.5 -39q-300 0 -483 148q-82 66 -118 150.5t-36 207.5
q0 44 7 109l98 786h502l-93 -756q-10 -82 -10 -100q0 -62 31.5 -94.5t91.5 -32.5q71 0 107 47.5t53 161.5z" />
    <glyph glyph-name="uni1EE5" unicode="&#x1ee5;" horiz-adv-x="1296" 
d="M354 -313q-1 67 52.5 112t132.5 45q85 0 139.5 -44.5t56.5 -112.5q-5 -67 -59 -111.5t-139 -44.5q-78 0 -132.5 45.5t-50.5 110.5zM784 956h476l-66 -526q-17 -134 -51 -206.5t-107 -133.5q-150 -117 -391 -117q-264 0 -407.5 106t-143.5 302q0 49 6 111l58 464h475
l-58 -464q-8 -63 -8 -84q0 -31 19.5 -51.5t50.5 -20.5q43 0 60 27.5t28 109.5z" />
    <glyph glyph-name="uni1EE6" unicode="&#x1ee6;" horiz-adv-x="1552" 
d="M983 1454h-168l27 199q62 -13 110 8q27 15 29 39q3 14 -3.5 22t-15 9.5t-22.5 1.5q-15 0 -29 -11.5t-18 -33.5h-184q13 91 65 143q23 25 72.5 46t109.5 21q120 0 171.5 -51t39.5 -151q-10 -69 -60 -117t-110 -59zM1024 1366h502l-92 -756q-29 -220 -65 -311t-126 -174
q-93 -82 -204.5 -121t-258.5 -39q-300 0 -483 148q-82 66 -118 150.5t-36 207.5q0 44 7 109l98 786h502l-93 -756q-10 -82 -10 -100q0 -62 31.5 -94.5t91.5 -32.5q71 0 107 47.5t53 161.5z" />
    <glyph glyph-name="uni1EE7" unicode="&#x1ee7;" horiz-adv-x="1296" 
d="M803 1049h-168l27 198q62 -13 110 8q27 15 29 39q3 14 -3.5 22t-15 9.5t-22.5 1.5q-15 0 -29 -11.5t-18 -33.5h-185q13 90 66 143q23 25 72.5 46.5t109.5 21.5q120 0 171.5 -51.5t39.5 -151.5q-10 -69 -60 -117t-110 -59zM784 956h476l-66 -526q-17 -134 -51 -206.5
t-107 -133.5q-150 -117 -391 -117q-264 0 -407.5 106t-143.5 302q0 49 6 111l58 464h475l-58 -464q-8 -63 -8 -84q0 -31 19.5 -51.5t50.5 -20.5q43 0 60 27.5t28 109.5z" />
    <glyph glyph-name="uni1EE8" unicode="&#x1ee8;" horiz-adv-x="1576" 
d="M1241 1698l-379 -246l-117 127l324 293zM1024 1366h438q16 3 23 10q5 5 9 11t6.5 15.5t4 16t3.5 20t3 19.5q0 1 0.5 3.5t2 16t4.5 35.5h276l-6 -53q-18 -158 -82 -231t-209 -90l-63 -529q-29 -220 -65 -311t-126 -174q-93 -82 -204.5 -121t-258.5 -39q-300 0 -483 148
q-82 66 -118 150.5t-36 207.5q0 44 7 109l98 786h502l-93 -756q-10 -82 -10 -100q0 -62 31.5 -94.5t91.5 -32.5q71 0 107 47.5t53 161.5z" />
    <glyph glyph-name="uni1EE9" unicode="&#x1ee9;" horiz-adv-x="1368" 
d="M1057 1294l-379 -245l-117 127l324 292zM784 956h404q14 3 22 11q4 4 7.5 10t6 11t4.5 14t3 14t3 17t3 16q0 4 6 55h277l-7 -53q-18 -156 -80 -229.5t-202 -90.5l-37 -301q-17 -134 -51 -206.5t-107 -133.5q-150 -117 -391 -117q-264 0 -407.5 106t-143.5 302q0 49 6 111
l58 464h475l-58 -464q-8 -63 -8 -84q0 -31 19.5 -51.5t50.5 -20.5q43 0 60 27.5t28 109.5z" />
    <glyph glyph-name="uni1EEA" unicode="&#x1eea;" horiz-adv-x="1576" 
d="M903 1452l-297 254l191 166l243 -289zM1024 1366h438q16 3 23 10q5 5 9 11t6.5 15.5t4 16t3.5 20t3 19.5q0 1 0.5 3.5t2 16t4.5 35.5h276l-6 -53q-18 -158 -82 -231t-209 -90l-63 -529q-29 -220 -65 -311t-126 -174q-93 -82 -204.5 -121t-258.5 -39q-300 0 -483 148
q-82 66 -118 150.5t-36 207.5q0 44 7 109l98 786h502l-93 -756q-10 -82 -10 -100q0 -62 31.5 -94.5t91.5 -32.5q71 0 107 47.5t53 161.5z" />
    <glyph glyph-name="uni1EEB" unicode="&#x1eeb;" horiz-adv-x="1368" 
d="M752 1049l-297 254l190 165l244 -288zM784 956h404q14 3 22 11q4 4 7.5 10t6 11t4.5 14t3 14t3 17t3 16q0 4 6 55h277l-7 -53q-18 -156 -80 -229.5t-202 -90.5l-37 -301q-17 -134 -51 -206.5t-107 -133.5q-150 -117 -391 -117q-264 0 -407.5 106t-143.5 302q0 49 6 111
l58 464h475l-58 -464q-8 -63 -8 -84q0 -31 19.5 -51.5t50.5 -20.5q43 0 60 27.5t28 109.5z" />
    <glyph glyph-name="uni1EEC" unicode="&#x1eec;" horiz-adv-x="1576" 
d="M983 1454h-168l27 199q62 -13 110 8q27 15 29 39q3 14 -3.5 22t-15 9.5t-22.5 1.5q-15 0 -29 -11.5t-18 -33.5h-184q13 91 65 143q23 25 72.5 46t109.5 21q120 0 171.5 -51t39.5 -151q-10 -69 -60 -117t-110 -59zM1024 1366h438q16 3 23 10q5 5 9 11t6.5 15.5t4 16
t3.5 20t3 19.5q0 1 0.5 3.5t2 16t4.5 35.5h276l-6 -53q-18 -158 -82 -231t-209 -90l-63 -529q-29 -220 -65 -311t-126 -174q-93 -82 -204.5 -121t-258.5 -39q-300 0 -483 148q-82 66 -118 150.5t-36 207.5q0 44 7 109l98 786h502l-93 -756q-10 -82 -10 -100
q0 -62 31.5 -94.5t91.5 -32.5q71 0 107 47.5t53 161.5z" />
    <glyph glyph-name="uni1EED" unicode="&#x1eed;" horiz-adv-x="1368" 
d="M803 1049h-168l27 198q62 -13 110 8q27 15 29 39q3 14 -3.5 22t-15 9.5t-22.5 1.5q-15 0 -29 -11.5t-18 -33.5h-185q13 90 66 143q23 25 72.5 46.5t109.5 21.5q120 0 171.5 -51.5t39.5 -151.5q-10 -69 -60 -117t-110 -59zM784 956h404q14 3 22 11q4 4 7.5 10t6 11t4.5 14
t3 14t3 17t3 16q0 4 6 55h277l-7 -53q-18 -156 -80 -229.5t-202 -90.5l-37 -301q-17 -134 -51 -206.5t-107 -133.5q-150 -117 -391 -117q-264 0 -407.5 106t-143.5 302q0 49 6 111l58 464h475l-58 -464q-8 -63 -8 -84q0 -31 19.5 -51.5t50.5 -20.5q43 0 60 27.5t28 109.5z
" />
    <glyph glyph-name="uni1EEE" unicode="&#x1eee;" horiz-adv-x="1576" 
d="M1081 1765l148 -94q-49 -100 -92 -135v2q-65 -59 -144 -59q-57 0 -108 32q-3 2 -17.5 9.5t-27.5 15.5q-46 18 -58 18q-39 0 -69 -81l-148 94q44 98 84 135q59 53 139 53q50 0 105 -24l49 -25q8 -4 19.5 -9.5t17 -8.5t15 -5t20.5 -2q34 0 67 84zM1024 1366h438q16 3 23 10
q5 5 9 11t6.5 15.5t4 16t3.5 20t3 19.5q0 1 0.5 3.5t2 16t4.5 35.5h276l-6 -53q-18 -158 -82 -231t-209 -90l-63 -529q-29 -220 -65 -311t-126 -174q-93 -82 -204.5 -121t-258.5 -39q-300 0 -483 148q-82 66 -118 150.5t-36 207.5q0 44 7 109l98 786h502l-93 -756
q-10 -82 -10 -100q0 -62 31.5 -94.5t91.5 -32.5q71 0 107 47.5t53 161.5z" />
    <glyph glyph-name="uni1EEF" unicode="&#x1eef;" horiz-adv-x="1368" 
d="M899 1362l148 -94q-49 -99 -93 -135v2q-66 -60 -143 -60q-56 0 -109 33q-3 2 -17.5 9.5t-27.5 15.5q-46 18 -57 18q-40 0 -70 -82l-147 94q44 98 84 135q60 54 139 54q48 0 105 -25l49 -24l19 -9.5l17 -8.5t15 -5t20 -2q13 0 31.5 19t36.5 65zM784 956h404q14 3 22 11
q4 4 7.5 10t6 11t4.5 14t3 14t3 17t3 16q0 4 6 55h277l-7 -53q-18 -156 -80 -229.5t-202 -90.5l-37 -301q-17 -134 -51 -206.5t-107 -133.5q-150 -117 -391 -117q-264 0 -407.5 106t-143.5 302q0 49 6 111l58 464h475l-58 -464q-8 -63 -8 -84q0 -31 19.5 -51.5t50.5 -20.5
q43 0 60 27.5t28 109.5z" />
    <glyph glyph-name="uni1EF0" unicode="&#x1ef0;" horiz-adv-x="1576" 
d="M487 -313q-1 67 52.5 112t132.5 45q85 0 139.5 -44.5t56.5 -112.5q-5 -67 -59 -111.5t-139 -44.5q-78 0 -132.5 45.5t-50.5 110.5zM1024 1366h438q16 3 23 10q5 5 9 11t6.5 15.5t4 16t3.5 20t3 19.5q0 1 0.5 3.5t2 16t4.5 35.5h276l-6 -53q-18 -158 -82 -231t-209 -90
l-63 -529q-29 -220 -65 -311t-126 -174q-93 -82 -204.5 -121t-258.5 -39q-300 0 -483 148q-82 66 -118 150.5t-36 207.5q0 44 7 109l98 786h502l-93 -756q-10 -82 -10 -100q0 -62 31.5 -94.5t91.5 -32.5q71 0 107 47.5t53 161.5z" />
    <glyph glyph-name="uni1EF1" unicode="&#x1ef1;" horiz-adv-x="1368" 
d="M354 -313q-1 67 52.5 112t132.5 45q85 0 139.5 -44.5t56.5 -112.5q-5 -67 -59 -111.5t-139 -44.5q-78 0 -132.5 45.5t-50.5 110.5zM784 956h404q14 3 22 11q4 4 7.5 10t6 11t4.5 14t3 14t3 17t3 16q0 4 6 55h277l-7 -53q-18 -156 -80 -229.5t-202 -90.5l-37 -301
q-17 -134 -51 -206.5t-107 -133.5q-150 -117 -391 -117q-264 0 -407.5 106t-143.5 302q0 49 6 111l58 464h475l-58 -464q-8 -63 -8 -84q0 -31 19.5 -51.5t50.5 -20.5q43 0 60 27.5t28 109.5z" />
    <glyph glyph-name="Ygrave" unicode="&#x1ef2;" horiz-adv-x="1400" 
d="M819 1452l-297 254l191 166l243 -289zM1526 1366l-576 -786l-71 -580h-492l74 592l-365 774h543l70 -223q18 -56 26 -156h19q22 74 49 129l127 250h596z" />
    <glyph glyph-name="ygrave" unicode="&#x1ef3;" horiz-adv-x="1210" 
d="M715 1049l-297 254l190 165l244 -288zM780 956h510l-743 -1425h-508l180 346q49 86 70 118.5t63 78.5l-289 882h488l41 -266q14 -76 14 -153q0 -66 -4 -99l21 -2q31 163 69 269z" />
    <glyph glyph-name="uni1EF4" unicode="&#x1ef4;" horiz-adv-x="1400" 
d="M408 -313q-1 67 52 112t132 45q85 0 139.5 -44.5t56.5 -112.5q-5 -67 -59 -111.5t-139 -44.5q-78 0 -132 45.5t-50 110.5zM1526 1366l-576 -786l-71 -580h-492l74 592l-365 774h543l70 -223q18 -56 26 -156h19q22 74 49 129l127 250h596z" />
    <glyph glyph-name="uni1EF5" unicode="&#x1ef5;" horiz-adv-x="1210" 
d="M840 -313q-1 67 52 112t132 45q86 0 140.5 -44.5t56.5 -112.5q-5 -67 -59.5 -111.5t-139.5 -44.5q-78 0 -132 45.5t-50 110.5zM780 956h510l-743 -1425h-508l180 346q49 86 70 118.5t63 78.5l-289 882h488l41 -266q14 -76 14 -153q0 -66 -4 -99l21 -2q31 163 69 269z" />
    <glyph glyph-name="uni1EF6" unicode="&#x1ef6;" horiz-adv-x="1400" 
d="M885 1454h-168l26 199q62 -13 111 8q27 15 29 39q3 14 -3.5 22t-15 9.5t-22.5 1.5q-15 0 -29 -11.5t-18 -33.5h-185q13 90 66 143q23 25 72.5 46t109.5 21q120 0 171.5 -51t39.5 -151q-10 -69 -60 -117t-110 -59zM1526 1366l-576 -786l-71 -580h-492l74 592l-365 774h543
l70 -223q18 -56 26 -156h19q22 74 49 129l127 250h596z" />
    <glyph glyph-name="uni1EF7" unicode="&#x1ef7;" horiz-adv-x="1210" 
d="M754 1049h-168l26 198q62 -13 111 8q27 15 29 39q3 14 -3.5 22t-15 9.5t-22.5 1.5q-15 0 -29 -11.5t-18 -33.5h-185q13 90 66 143q23 25 72.5 46.5t109.5 21.5q120 0 171.5 -51.5t39.5 -151.5q-10 -69 -60 -117t-110 -59zM780 956h510l-743 -1425h-508l180 346
q49 86 70 118.5t63 78.5l-289 882h488l41 -266q14 -76 14 -153q0 -66 -4 -99l21 -2q31 163 69 269z" />
    <glyph glyph-name="uni1EF8" unicode="&#x1ef8;" horiz-adv-x="1400" 
d="M983 1765l147 -94q-49 -100 -92 -135v2q-65 -59 -143 -59q-58 0 -109 32q-3 2 -17.5 9.5t-27.5 15.5q-46 18 -57 18q-40 0 -70 -81l-147 94q44 98 84 135q59 53 139 53q50 0 105 -24l49 -25l19 -9.5l17 -8.5t15 -5t20 -2q13 0 31.5 19t36.5 65zM1526 1366l-576 -786
l-71 -580h-492l74 592l-365 774h543l70 -223q18 -56 26 -156h19q22 74 49 129l127 250h596z" />
    <glyph glyph-name="uni1EF9" unicode="&#x1ef9;" horiz-adv-x="1210" 
d="M872 1362l148 -94q-49 -100 -92 -135v2q-66 -60 -144 -60q-55 0 -108 33q-3 2 -17.5 9.5t-27.5 15.5q-46 18 -58 18q-39 0 -69 -82l-148 94q44 98 84 135q60 54 140 54q46 0 104 -25l49 -24q8 -4 19.5 -9.5t17 -8.5t15 -5t20.5 -2q34 0 67 84zM780 956h510l-743 -1425
h-508l180 346q49 86 70 118.5t63 78.5l-289 882h488l41 -266q14 -76 14 -153q0 -66 -4 -99l21 -2q31 163 69 269z" />
    <glyph glyph-name="endash" unicode="&#x2013;" horiz-adv-x="1175" 
d="M129 389l39 307h889l-39 -307h-889z" />
    <glyph glyph-name="emdash" unicode="&#x2014;" horiz-adv-x="1910" 
d="M1753 389h-1624l39 307h1624z" />
    <glyph glyph-name="quoteleft" unicode="&#x2018;" horiz-adv-x="872" 
d="M104 690l406 676h364l-301 -676h-469z" />
    <glyph glyph-name="quoteright" unicode="&#x2019;" horiz-adv-x="872" 
d="M887 1366l-385 -676h-365l301 676h449z" />
    <glyph glyph-name="quotesinglbase" unicode="&#x201a;" horiz-adv-x="870" 
d="M285 375h477l-383 -703h-365z" />
    <glyph glyph-name="quotedblleft" unicode="&#x201c;" horiz-adv-x="1437" 
d="M690 690l385 676h365l-303 -676h-447zM123 690l385 676h364l-301 -676h-448z" />
    <glyph glyph-name="quotedblright" unicode="&#x201d;" horiz-adv-x="1437" 
d="M887 1366l-385 -676h-365l301 676h449zM1452 1366l-385 -676h-365l304 676h446z" />
    <glyph glyph-name="quotedblbase" unicode="&#x201e;" horiz-adv-x="1437" 
d="M764 348l-385 -676h-365l303 676h447zM1331 348l-385 -676h-364l301 676h448z" />
    <glyph glyph-name="dagger" unicode="&#x2020;" horiz-adv-x="1447" 
d="M823 -395h-397l141 1155h-350l43 344h350l47 389h400l-49 -389h350l-43 -344h-348z" />
    <glyph glyph-name="daggerdbl" unicode="&#x2021;" horiz-adv-x="1447" 
d="M526 426l45 375h-335l43 344h335l43 348h400l-43 -348h336l-43 -344h-336l-45 -375h336l-43 -344h-336l-60 -477h-397l57 477h-336l43 344h336z" />
    <glyph glyph-name="bullet" unicode="&#x2022;" horiz-adv-x="2048" 
d="M770 696q0 119 82 203t199 84t200.5 -84.5t83.5 -202.5t-83.5 -202t-200.5 -84t-199 83.5t-82 202.5z" />
    <glyph glyph-name="ellipsis" unicode="&#x2026;" horiz-adv-x="2181" 
d="M336 432q110 0 187 -66t77 -161q0 -97 -79.5 -164.5t-196.5 -67.5q-112 0 -187.5 62.5t-75.5 154.5q0 98 82 170t193 72zM1063 432q110 0 187 -66t77 -161q0 -97 -79.5 -164.5t-196.5 -67.5q-112 0 -187.5 62.5t-75.5 154.5q0 98 82 170t193 72zM1790 432q110 0 187 -66
t77 -161q0 -97 -79.5 -164.5t-196.5 -67.5q-112 0 -187 62.5t-75 154.5q0 98 82 170t192 72z" />
    <glyph glyph-name="perthousand" unicode="&#x2030;" horiz-adv-x="3149" 
d="M547 1399q84 0 162.5 -24.5t142.5 -69.5t102.5 -117.5t38.5 -161.5q0 -166 -129.5 -278.5t-318.5 -112.5q-191 0 -310.5 105t-119.5 272q0 170 121 278.5t311 108.5zM639 1038q0 36 -21 59t-51 23q-37 0 -63.5 -31t-26.5 -73q0 -35 21.5 -59.5t50.5 -24.5q38 0 64 31
t26 75zM1475 1366h245l-962 -1366h-248zM1663 731q79 0 156.5 -24t143 -68.5t106 -118t40.5 -164.5q0 -166 -129 -278.5t-319 -112.5t-310 105.5t-120 271.5q0 171 121 280t311 109zM1755 369q0 37 -21 59.5t-51 22.5q-37 0 -63.5 -31t-26.5 -74q0 -35 21 -58.5t51 -23.5
q38 0 64 30.5t26 74.5zM2644 731q79 0 156.5 -24t143 -68.5t106 -118t40.5 -164.5q0 -166 -129 -278.5t-319 -112.5t-310 105.5t-120 271.5q0 171 121 280t311 109zM2736 369q0 37 -21 59.5t-51 22.5q-37 0 -63.5 -31t-26.5 -74q0 -35 21 -58.5t51 -23.5q38 0 64 30.5
t26 74.5z" />
    <glyph glyph-name="guilsinglleft" unicode="&#x2039;" horiz-adv-x="679" 
d="M563 137l-196 -127l-295 455l393 471l174 -145l-291 -330z" />
    <glyph glyph-name="guilsinglright" unicode="&#x203a;" horiz-adv-x="679" 
d="M133 809l197 127l288 -455l-393 -471l-172 146l289 325z" />
    <glyph glyph-name="Euro" unicode="&#x20ac;" horiz-adv-x="1447" 
d="M1331 467l-51 -416q-184 -86 -426 -86q-285 0 -463 150q-149 127 -194 329h-195l96 185h84l6 88h-155l96 184h104q79 232 267 361q198 137 493 137q255 0 471 -115l-172 -321q-119 86 -288 86q-110 0 -181 -41q-62 -34 -106 -107h549l-97 -184h-499l-8 -88h489l-96 -185
h-361q28 -68 99 -100q68 -31 165 -31q123 0 209 39q96 41 164 115z" />
    <glyph glyph-name="trademark" unicode="&#x2122;" horiz-adv-x="1755" 
d="M104 1366h601l-31 -264l-131 6l-66 -520h-327l63 520l-141 -6zM1389 1366h335l13 -778h-318l21 325l-142 -325h-206l-48 332l-77 -332h-330l240 778h335l35 -246q5 -26 8 -84q19 62 50 135z" />
    <glyph glyph-name="fi" unicode="&#xfb01;" horiz-adv-x="1435" 
d="M549 0h-463l74 600l-129 -12l45 368l127 -12l4 43q23 233 155 365q164 164 484 164q270 0 422 -119q145 -114 145 -299q0 -24 -4 -60h-463v9q0 42 -24 69q-36 39 -105 39q-65 0 -108 -43q-9 -9 -15.5 -18.5t-11 -22.5t-6.5 -19t-5 -21.5t-3 -16.5l-11 -74l160 16
l-45 -368l-149 12zM1282 0h-463l117 956h463z" />
    <glyph glyph-name="fl" unicode="&#xfb02;" horiz-adv-x="1435" 
d="M549 0h-463l74 600l-129 -12l45 368l127 -12l4 43q22 234 153 365q164 164 474 164q123 0 235.5 -33t190.5 -99q145 -123 145 -327q0 -33 -3 -65.5t-10.5 -89t-9.5 -73.5l-100 -829h-463l113 901q12 70 12 117q0 78 -45 112q-36 25 -84 25q-66 0 -106 -43
q-6 -6 -10.5 -13t-8 -12t-6.5 -13t-4.5 -11.5t-4 -13t-3 -11.5t-2.5 -12.5t-2 -11.5l-11 -74l160 16l-45 -368l-149 12z" />
    <glyph glyph-name="CR" horiz-adv-x="477" 
 />
    <glyph glyph-name="nbspace" horiz-adv-x="477" 
 />
    <glyph glyph-name="hyphenminus" horiz-adv-x="849" 
d="M729 358h-645l47 369h645z" />
    <glyph glyph-name="dotlessi1" horiz-adv-x="679" 
d="M166 956h473l-117 -956h-473z" />
    </font>
</defs>
</svg>
