<?xml version="1.0" standalone="no"?>
<!DOCTYPE svg PUBLIC "-//W3C//DTD SVG 1.1//EN" "http://www.w3.org/Graphics/SVG/1.1/DTD/svg11.dtd" >
<svg xmlns="http://www.w3.org/2000/svg" xmlns:xlink="http://www.w3.org/1999/xlink" version="1.1">
<metadata>
Created by FontForge 20170731 at Sun Sep 19 04:00:47 2021
 By Aleksey,,,
Copyright (c) 1995 ParaGraph Intl., (c) 1998 ParaType Inc., ParaType Ltd. All rights reserved.
</metadata>
<defs>
<font id="SVN-FuturaLightItalic" horiz-adv-x="1024" >
  <font-face 
    font-family="SVN-Futura Light"
    font-weight="300"
    font-style="italic"
    font-stretch="normal"
    units-per-em="2048"
    panose-1="2 11 4 2 2 2 4 9 3 3"
    ascent="1638"
    descent="-410"
    x-height="836"
    cap-height="1366"
    bbox="-471 -512 2259 2095"
    underline-thickness="102"
    underline-position="-307"
    slope="-7"
    unicode-range="U+0020-FB02"
  />
<missing-glyph horiz-adv-x="477" 
 />
    <glyph glyph-name=".notdef" horiz-adv-x="477" 
 />
    <glyph glyph-name=".null" horiz-adv-x="0" 
 />
    <glyph glyph-name="nonmarkingreturn" horiz-adv-x="682" 
 />
    <glyph glyph-name="space" unicode=" " horiz-adv-x="477" 
 />
    <glyph glyph-name="exclam" unicode="!" horiz-adv-x="532" 
d="M342 244h-90l137 1122h90zM199 51q0 44 26 64q31 22 58 22q25 0 47 -16q20 -17 20 -49q0 -38 -24 -62t-62 -24q-24 0 -45 16q-20 14 -20 49z" />
    <glyph glyph-name="quotedbl" unicode="&#x22;" horiz-adv-x="573" 
d="M381 1366l-82 -551h-61l53 551h90zM618 1366l-81 -551h-62l53 551h90z" />
    <glyph glyph-name="numbersign" unicode="#" horiz-adv-x="1228" 
d="M768 0h-82l123 453h-336l-123 -453h-82l123 453h-241l22 77h242l90 330h-242l21 78h241l119 428h82l-119 -428h336l119 428h82l-119 -428h242l-21 -78h-241l-91 -330h242l-22 -77h-242zM831 530l91 330h-336l-90 -330h335z" />
    <glyph glyph-name="dollar" unicode="$" horiz-adv-x="1122" 
d="M1053 1208l-72 -55q-32 68 -76 100q-47 38 -117 47l-67 -550l61 -33q110 -61 158 -113q86 -89 86 -209q0 -86 -34 -169.5t-91 -137.5q-108 -104 -274 -104l-25 -203h-82l25 196q-168 4 -260 101q-70 77 -107 192l82 37q24 -107 90 -170q35 -34 89 -56t116 -22l78 635
l-49 27q-109 57 -160 113q-72 78 -72 196q0 153 90 250q52 54 124.5 80t150.5 24l22 183h82l-22 -185q95 -13 155 -59q63 -48 99 -115zM709 653l-72 -587q122 9 201 81q42 42 67 107.5t25 124.5q0 98 -72 176q-8 9 -18.5 18.5t-18.5 15.5t-22 14.5t-19.5 12t-22.5 12.5
t-20 11zM643 791l64 512q-120 7 -195 -78q-63 -69 -63 -185q0 -98 63 -161q33 -33 131 -88z" />
    <glyph glyph-name="percent" unicode="%" horiz-adv-x="1245" 
d="M188 2l979 1395l58 -33l-979 -1395zM944 524q121 0 199 -78q67 -67 67 -167q0 -131 -80 -211q-46 -48 -100 -64t-119 -16q-121 0 -188 65q-72 72 -72 176q0 60 22 115.5t58 91.5q40 42 97.5 65t115.5 23zM918 61q88 0 147 56q61 61 61 159q0 73 -43 121q-50 54 -137 54
q-91 0 -151 -60t-60 -151q0 -76 47 -127q49 -52 136 -52zM498 1378q120 0 198 -78q68 -68 68 -167q0 -131 -80 -211q-46 -48 -100 -64t-119 -16q-122 0 -189 65q-71 71 -71 176q0 60 22 115.5t58 91.5q40 42 97.5 65t115.5 23zM471 915q88 0 147 56q62 62 62 159
q0 73 -43 121q-50 54 -137 54q-92 0 -152 -60q-59 -59 -59 -151q0 -76 47 -127q49 -52 135 -52z" />
    <glyph glyph-name="ampersand" unicode="&#x26;" horiz-adv-x="1263" 
d="M1227 545l53 -64q-62 -74 -193 -198l175 -283h-115l-131 215l-55 -57q-70 -70 -164 -121q-72 -37 -132 -50.5t-135 -13.5q-84 0 -146 20.5t-114 74.5q-94 97 -94 249q0 159 121 277q31 29 73 59.5t70 47t88 51.5l119 71l-43 86q-59 112 -59 205q0 119 80 199
q78 78 196 78q122 0 189 -70q57 -61 57 -160q0 -53 -15 -96t-32 -65t-47 -52q-31 -31 -113 -90l-90 -59l274 -445q91 82 183 191zM973 287l-285 467l-131 -76q-134 -83 -186 -133q-101 -101 -101 -232q0 -112 72 -184q44 -44 94 -59t115 -15q113 0 211 56q31 18 78 53t71 59
zM682 954l45 -86l94 60q79 55 109 94q47 58 47 139q0 70 -47 107q-45 37 -113 37q-72 0 -125 -48q-55 -55 -55 -145q0 -74 45 -158z" />
    <glyph glyph-name="quotesingle" unicode="'" horiz-adv-x="335" 
d="M381 1366l-82 -551h-61l53 551h90z" />
    <glyph glyph-name="parenleft" unicode="(" horiz-adv-x="577" 
d="M543 1516l71 -48q-94 -233 -143 -436q-121 -464 -121 -827q0 -255 45 -486l-86 -47q-55 261 -55 551q0 402 131 856q65 219 158 437z" />
    <glyph glyph-name="parenright" unicode=")" horiz-adv-x="577" 
d="M324 1468l84 48q26 -125 39 -237t15.5 -172t2.5 -144q0 -400 -111 -816q-70 -250 -172 -475l-78 47q80 183 144 414q123 431 123 825q0 275 -47 510z" />
    <glyph glyph-name="asterisk" unicode="*" horiz-adv-x="1122" 
d="M428 1311l244 -90l28 272h91l-41 -272l268 90l18 -84l-272 -78l139 -217l-78 -51l-129 225l-182 -225l-65 51l192 217l-252 78z" />
    <glyph glyph-name="plus" unicode="+" 
d="M145 635v78h404v372h82v-372h403v-78h-403v-373h-82v373h-404z" />
    <glyph glyph-name="comma" unicode="," horiz-adv-x="466" 
d="M43 -281l174 414l80 -24l-203 -410z" />
    <glyph glyph-name="hyphen" unicode="-" horiz-adv-x="614" 
d="M150 377l10 94h409l-10 -94h-409z" />
    <glyph glyph-name="period" unicode="." horiz-adv-x="413" 
d="M139 51q0 43 27 64q31 22 57 22q25 0 47 -16q21 -18 21 -49q0 -37 -25 -62q-24 -24 -61 -24q-24 0 -45 16q-21 15 -21 49z" />
    <glyph glyph-name="slash" unicode="/" horiz-adv-x="1179" 
d="M2 -324l1258 1846l61 -33l-1258 -1845z" />
    <glyph glyph-name="zero" unicode="0" horiz-adv-x="1122" 
d="M719 1384q163 0 268 -110q57 -59 93 -146t48.5 -165t12.5 -158q0 -73 -11.5 -156.5t-37.5 -179.5t-77 -189.5t-120 -160.5q-142 -142 -340 -142q-155 0 -258 103q-75 75 -118.5 201.5t-43.5 273.5q0 185 61 366.5t179 307.5q148 155 344 155zM557 59q82 0 144.5 26.5
t119.5 82.5q61 61 106.5 146t70.5 174t37 170.5t12 154.5q0 262 -127 401q-81 89 -209 89q-151 0 -262 -117q-105 -110 -163.5 -281t-58.5 -348q0 -285 133 -418q42 -42 87 -61t110 -19z" />
    <glyph glyph-name="one" unicode="1" horiz-adv-x="1122" 
d="M557 0l158 1284h-213l51 82h262l-168 -1366h-90z" />
    <glyph glyph-name="two" unicode="2" horiz-adv-x="1122" 
d="M965 0h-842l596 578q145 145 199 217q83 116 83 241q0 112 -73 185q-82 82 -221 82q-152 0 -236 -91q-42 -43 -68 -104.5t-30 -128.5h-90q8 80 41 158t82 129q115 118 305 118q84 0 157.5 -26t122.5 -70q48 -44 76.5 -107t28.5 -134q0 -150 -99 -285q-32 -55 -223 -242
l-450 -438h651z" />
    <glyph glyph-name="three" unicode="3" horiz-adv-x="1122" 
d="M193 332h90q4 -56 26.5 -109.5t55.5 -89.5q71 -74 196 -74q142 0 232 97q45 49 68.5 117.5t23.5 138.5q0 124 -78 196q-35 32 -87 48.5t-106 11.5l11 82q70 0 132.5 24.5t102.5 63.5q86 80 86 221q0 118 -69 178q-66 66 -183 66q-118 0 -198 -80q-63 -70 -80 -183h-86
q8 68 37 134t73 110q100 100 265 100q155 0 249 -94q88 -88 88 -225q0 -136 -71 -225q-34 -42 -84 -75.5t-103 -51.5q95 -31 146 -111q51 -78 51 -180q0 -92 -30.5 -175.5t-86.5 -144.5q-118 -125 -309 -125q-162 0 -254 97q-93 96 -108 258z" />
    <glyph glyph-name="four" unicode="4" horiz-adv-x="1122" 
d="M1024 1411l-131 -1069h190l-10 -82h-190l-33 -260h-90l33 260h-736zM231 342h572l98 799z" />
    <glyph glyph-name="five" unicode="5" horiz-adv-x="1122" 
d="M1130 1366l-10 -82h-458l-160 -369q57 13 104 13q99 0 174 -29.5t121 -75.5q117 -113 117 -303q0 -249 -152 -401q-142 -142 -385 -142q-145 0 -250 68q-91 58 -145 158l84 33q50 -82 121 -127q80 -50 213 -50q178 0 297 119q121 124 121 324q0 157 -91 248
q-96 96 -245 96q-118 0 -226 -60l248 580h522z" />
    <glyph glyph-name="six" unicode="6" horiz-adv-x="1122" 
d="M782 1384l64 -53l-357 -430q65 33 158 33q204 0 330 -123q125 -122 125 -311q0 -108 -41.5 -212t-108.5 -173q-138 -138 -366 -138q-211 0 -336 125q-129 129 -129 326q0 138 61 248q22 39 57 84.5t60 75t84 96.5zM590 59q180 0 289 109q64 64 95.5 149t31.5 175
q0 159 -107 262q-102 98 -276 98q-167 0 -279 -104q-127 -118 -127 -314q0 -167 105 -272q103 -103 268 -103z" />
    <glyph glyph-name="seven" unicode="7" horiz-adv-x="1122" 
d="M115 29l968 1255h-825l10 82h989l-1077 -1389z" />
    <glyph glyph-name="eight" unicode="8" horiz-adv-x="1122" 
d="M817 705q74 -30 129 -99q58 -80 58 -200q0 -191 -117 -312q-110 -117 -309 -117q-175 0 -275 103q-98 102 -98 244q0 141 80 254q74 100 188 131q-66 43 -111 112q-45 68 -45 158q0 176 105 287q112 118 291 118q146 0 241 -88q95 -90 95 -237q0 -138 -68 -228
q-60 -84 -164 -126zM659 748q126 0 205 79q90 90 90 230q0 119 -75 184q-62 62 -179 62q-122 0 -196 -74q-42 -41 -66 -105.5t-24 -134.5q0 -107 67 -174q70 -67 178 -67zM573 59q158 0 248 97q88 97 88 247q0 121 -78 195q-77 72 -202 72q-146 0 -230 -84q-98 -94 -98 -250
q0 -116 72 -195q73 -82 200 -82z" />
    <glyph glyph-name="nine" unicode="9" horiz-adv-x="1122" 
d="M498 -23l-64 54l350 424q-100 -29 -166 -29q-87 0 -172 32t-145 95q-123 123 -123 309q0 107 39 206t113 173q146 143 364 143q200 0 328 -112q137 -123 137 -316q0 -108 -43 -208q-41 -95 -135 -203zM692 1303q-175 0 -291 -113q-129 -124 -129 -318q0 -152 97 -258
q57 -61 123 -83.5t149 -22.5q92 0 161.5 27t131.5 88q129 129 129 323q0 157 -100 254q-103 103 -271 103z" />
    <glyph glyph-name="colon" unicode=":" horiz-adv-x="413" 
d="M139 43q0 42 27 63q32 23 57 23t47 -16q21 -18 21 -50q0 -36 -25 -61t-61 -25q-22 0 -45 17q-21 15 -21 49zM227 768q0 42 27 63q32 23 57 23t47 -16q21 -18 21 -50q0 -36 -25 -61t-61 -25q-22 0 -45 17q-21 15 -21 49z" />
    <glyph glyph-name="semicolon" unicode=";" horiz-adv-x="466" 
d="M43 -281l174 414l80 -24l-203 -410zM231 768q0 42 27 63q32 23 57 23t47 -16q21 -18 21 -47q0 -39 -25 -64t-61 -25q-22 0 -45 17q-21 15 -21 49z" />
    <glyph glyph-name="less" unicode="&#x3c;" 
d="M174 711l889 393v-84l-799 -348l799 -348v-84l-889 393v78z" />
    <glyph glyph-name="equal" unicode="=" 
d="M145 780v78h889v-78h-889zM145 489v78h889v-78h-889z" />
    <glyph glyph-name="greater" unicode="&#x3e;" 
d="M1016 633l-889 -393v84l799 348l-799 348v84l889 -393v-78z" />
    <glyph glyph-name="question" unicode="?" horiz-adv-x="962" 
d="M745 547h82q-12 -177 -106 -244q-78 -55 -195 -55q-126 0 -202 76q-70 78 -70 174q0 123 86 209q28 27 68.5 47t74 31t105.5 30q133 35 186 88q70 77 70 197q0 102 -60 162q-55 55 -161 55q-120 0 -183 -70q-31 -32 -49 -87t-18 -116q0 -33 6 -63h-90q-6 34 -6 70
q0 160 94 254q89 94 254 94q140 0 223 -76q86 -84 86 -219q0 -154 -100 -254q-80 -74 -201 -105l-61 -16q-41 -11 -64 -18.5t-57 -24.5t-56 -39q-55 -55 -55 -147q0 -74 47 -125q49 -49 142 -49q79 0 131 39q72 57 79 182zM416 43q0 43 26 63q32 23 58 23q25 0 47 -16
q20 -17 20 -50q0 -37 -24 -61q-25 -25 -62 -25q-22 0 -45 17q-20 14 -20 49z" />
    <glyph glyph-name="at" unicode="@" horiz-adv-x="1511" 
d="M1112 846l49 160h66l-144 -455q-26 -86 -26 -125t22 -61q23 -23 66 -23q91 0 160 64q72 65 113.5 186.5t41.5 232.5q0 101 -34 187.5t-91 146.5q-74 77 -186.5 118.5t-239.5 41.5q-145 0 -273.5 -51t-219.5 -148q-90 -94 -143.5 -234t-53.5 -292q0 -234 146 -391
q153 -168 450 -168q135 0 277 37q94 23 192 78l16 -60q-113 -61 -219 -84q-139 -33 -276 -33q-161 0 -289 51.5t-211 141.5q-68 73 -111.5 183t-43.5 249q0 171 61.5 321t163.5 252q209 209 545 209q288 0 456 -168q148 -148 148 -383q0 -117 -40.5 -245t-129.5 -213
q-48 -45 -97 -65.5t-114 -20.5q-73 0 -107 34q-43 43 -32 115q-40 -64 -101 -106q-66 -47 -162 -47q-113 0 -184 71q-78 78 -78 215q0 105 44 204t110 163q58 55 117 76.5t135 21.5q99 0 157 -51t70 -135zM745 346q109 0 189 86q65 69 96 165t31 169q0 96 -51 147
q-42 54 -140 54q-110 0 -192 -82q-62 -62 -94.5 -151.5t-32.5 -160.5q0 -111 53 -167q60 -60 141 -60z" />
    <glyph glyph-name="A" unicode="A" horiz-adv-x="1200" 
d="M1077 0l-127 449h-581l-238 -449h-102l747 1407l395 -1407h-94zM412 530h516l-176 648z" />
    <glyph glyph-name="B" unicode="B" horiz-adv-x="1097" 
d="M184 0l168 1366h262q201 0 293 -92q82 -79 82 -215q0 -22 -3 -46.5t-12 -65t-32 -83t-57 -76.5q-40 -40 -97 -63q97 -25 164 -92q82 -87 82 -223q0 -89 -31 -166t-83 -129q-74 -69 -176.5 -92t-239.5 -23h-238h-82zM432 1284l-65 -536h196q36 0 57.5 1.5t60 8t72 24.5
t62.5 47q80 80 80 220q0 113 -72 176q-73 59 -223 59h-168zM356 666l-71 -584h229q128 0 207 18.5t135 79.5q82 85 82 226q0 109 -70 176q-89 84 -299 84h-213z" />
    <glyph glyph-name="C" unicode="C" horiz-adv-x="1396" 
d="M1434 1206l-15 -119q-1 1 -21.5 23.5t-39 41t-52.5 45.5t-69 46q-121 60 -254 60q-129 0 -256.5 -50t-228.5 -151q-100 -100 -152.5 -230t-52.5 -262q0 -113 42 -215.5t116 -177.5q73 -75 174 -116.5t215 -41.5q145 0 264 58q119 53 215 149l-14 -119q-88 -75 -197 -122
q-117 -48 -270 -48q-276 0 -455 179q-188 188 -188 458q0 145 58.5 290t182.5 263q222 217 549 217q157 0 279 -55q105 -55 170 -123z" />
    <glyph glyph-name="D" unicode="D" horiz-adv-x="1269" 
d="M455 0h-185h-86l168 1366h252q330 0 498 -190q141 -155 141 -426q0 -349 -213 -557q-205 -193 -575 -193zM432 1284l-147 -1202h178q184 0 300.5 48.5t197.5 129.5q190 190 190 500q0 220 -133 364q-155 160 -428 160h-158z" />
    <glyph glyph-name="E" unicode="E" horiz-adv-x="950" 
d="M1008 1366l-11 -82h-565l-61 -496h553l-11 -81h-553l-75 -625h565l-10 -82h-570h-86l168 1366h656z" />
    <glyph glyph-name="F" unicode="F" horiz-adv-x="831" 
d="M905 1366l-10 -82h-463l-61 -496h450l-10 -81h-451l-86 -707h-90l168 1366h553z" />
    <glyph glyph-name="G" unicode="G" horiz-adv-x="1583" 
d="M969 573l10 82h573q-6 -73 -25 -148t-67.5 -169t-120.5 -166q-199 -195 -489 -195q-145 0 -260 43.5t-211 139.5q-184 181 -184 450q0 175 61.5 315.5t165.5 239.5q96 96 236.5 157.5t322.5 61.5q201 0 360 -100q128 -85 207 -219l-80 -57q-75 132 -172 198
q-139 97 -319 97q-142 0 -270 -52t-218 -141q-97 -97 -149.5 -226.5t-52.5 -262.5q0 -119 42.5 -221t112.5 -175q160 -166 394 -166q130 0 246.5 48.5t203.5 136.5q130 130 164 329h-481z" />
    <glyph glyph-name="H" unicode="H" horiz-adv-x="1376" 
d="M442 1366l-71 -580h827l72 580h90l-168 -1366h-90l86 705h-828l-86 -705h-90l168 1366h90z" />
    <glyph glyph-name="I" unicode="I" horiz-adv-x="458" 
d="M352 1366h90l-168 -1366h-90z" />
    <glyph glyph-name="J" unicode="J" horiz-adv-x="548" 
d="M442 1366h90l-133 -1081q-9 -63 -15.5 -96t-24.5 -76.5t-46 -71.5q-66 -64 -180 -64q-87 0 -145 48q-53 45 -74 100l70 49q17 -54 53 -82q42 -33 102 -33q72 0 109 41q46 46 59 166z" />
    <glyph glyph-name="K" unicode="K" horiz-adv-x="1105" 
d="M442 1366l-80 -643l725 643h119l-745 -655l612 -711h-119l-563 651l-41 -35l-76 -616h-90l168 1366h90z" />
    <glyph glyph-name="L" unicode="L" horiz-adv-x="684" 
d="M352 1366h90l-157 -1284h381l-11 -82h-471z" />
    <glyph glyph-name="M" unicode="M" horiz-adv-x="1835" 
d="M260 0h-90l330 1413l436 -1263l747 1263l-18 -1413h-90l14 1098l-678 -1147l-395 1147z" />
    <glyph glyph-name="N" unicode="N" horiz-adv-x="1605" 
d="M274 0h-90l170 1380l1000 -1204l145 1190h90l-172 -1401l-999 1204z" />
    <glyph glyph-name="O" unicode="O" horiz-adv-x="1648" 
d="M981 1384q285 0 473 -188q168 -171 168 -440q0 -342 -229 -568q-117 -115 -250.5 -163t-296.5 -48q-142 0 -254 39.5t-211 135.5q-46 42 -84 97.5t-70 152t-32 204.5q0 146 59 291.5t174 263.5q223 223 553 223zM834 59q298 0 491 189q98 98 151.5 233.5t53.5 270.5
q0 237 -156 393q-72 72 -174.5 115t-226.5 43q-284 0 -475 -191q-105 -102 -157 -232.5t-52 -265.5q0 -231 149 -391q156 -164 396 -164z" />
    <glyph glyph-name="P" unicode="P" horiz-adv-x="917" 
d="M530 649h-176l-80 -649h-90l168 1366h264q181 0 277 -96q84 -84 84 -230q0 -169 -100 -276q-115 -115 -347 -115zM432 1284l-67 -553h180q170 0 252 80q82 78 82 225q0 103 -60 168q-34 37 -80 56t-76.5 21.5t-84.5 2.5h-146z" />
    <glyph glyph-name="Q" unicode="Q" horiz-adv-x="1648" 
d="M1505 0h-110l-101 125q-187 -148 -446 -148q-157 0 -276 54t-195 135q-182 185 -182 457q0 158 61.5 297.5t165.5 242.5q107 103 253 162t308 59q276 0 461 -180q178 -166 178 -444q0 -173 -80 -346q-69 -147 -184 -236zM1055 559l252 -309q105 105 153 201
q70 131 70 297q0 239 -156 395q-162 162 -413 162q-136 0 -257.5 -52t-211.5 -139q-91 -89 -147 -215.5t-56 -257.5q0 -119 48 -233.5t128 -194.5q162 -154 387 -154q200 0 387 134l-295 366h111z" />
    <glyph glyph-name="R" unicode="R" horiz-adv-x="962" 
d="M860 0h-102l-363 645h-41l-80 -645h-90l168 1366h213q191 0 289 -94q84 -84 84 -228q0 -177 -109 -286q-62 -62 -154 -87.5t-181 -25.5zM432 1284l-67 -557h131q175 0 266 82q37 37 59.5 95.5t22.5 127.5q0 120 -74 185q-74 67 -225 67h-113z" />
    <glyph glyph-name="S" unicode="S" horiz-adv-x="1052" 
d="M1018 1190l-72 -55q-20 57 -56.5 94.5t-78 51.5t-64.5 18t-45 4q-128 0 -210 -82q-80 -80 -80 -193q0 -86 57 -143q17 -17 39 -33.5t35 -24t47 -26t43 -23.5l67 -37q16 -9 58 -31.5t60 -33t45 -30t46 -38.5q82 -82 82 -207q0 -181 -127 -305q-75 -71 -156.5 -95
t-183.5 -24q-85 0 -151 22t-123 79q-76 76 -107 192l82 37q0 -1 5 -16.5t10.5 -30t15.5 -35t25 -42t34 -40.5q84 -84 213 -84q77 0 149.5 23t121.5 68q94 89 94 237q0 100 -66 166q-18 18 -44 36t-44 28t-52 28t-44 23l-94 51q-96 51 -154 112q-78 81 -78 193q0 145 105 250
q110 110 285 110q105 0 188.5 -48t122.5 -146z" />
    <glyph glyph-name="T" unicode="T" horiz-adv-x="856" 
d="M985 1284h-354l-158 -1284h-90l158 1284h-355l11 82h798z" />
    <glyph glyph-name="U" unicode="U" horiz-adv-x="1296" 
d="M350 1366h90l-104 -854q-7 -48 -9.5 -74t-3 -73.5t7 -79.5t27 -70.5t50.5 -67.5q93 -88 254 -88q189 0 296 107q43 43 70.5 105t37 111t19.5 130l105 854h90l-104 -854q-18 -142 -36 -201q-38 -125 -124 -207q-78 -76 -164.5 -101.5t-192.5 -25.5q-212 0 -325 113
q-52 52 -76.5 121.5t-23 142.5t11.5 158z" />
    <glyph glyph-name="V" unicode="V" horiz-adv-x="1044" 
d="M197 1366h98l258 -1163l532 1163h99l-662 -1421z" />
    <glyph glyph-name="W" unicode="W" horiz-adv-x="2015" 
d="M197 1366h94l233 -1159l645 1233l312 -1233l571 1159h102l-700 -1417l-311 1241l-660 -1241z" />
    <glyph glyph-name="X" unicode="X" horiz-adv-x="962" 
d="M47 0l461 696l-277 670h95l237 -584l383 584h103l-439 -670l289 -696h-94l-254 614l-401 -614h-103z" />
    <glyph glyph-name="Y" unicode="Y" horiz-adv-x="1056" 
d="M477 0l72 584l-352 782h98l309 -690l486 690h106l-557 -782l-72 -584h-90z" />
    <glyph glyph-name="Z" unicode="Z" horiz-adv-x="1134" 
d="M1227 1366l-989 -1284h809l-11 -82h-960l989 1284h-752l11 82h903z" />
    <glyph glyph-name="bracketleft" unicode="[" horiz-adv-x="569" 
d="M662 1411h-218l-204 -1657h217l-11 -82h-210h-97l226 1821h307z" />
    <glyph glyph-name="backslash" unicode="\" horiz-adv-x="1179" 
d="M1100 -324l-70 -32l-807 1845l70 33z" />
    <glyph glyph-name="bracketright" unicode="]" horiz-adv-x="569" 
d="M51 -246h217l205 1657h-217l10 82h307l-225 -1821h-92h-215z" />
    <glyph glyph-name="asciicircum" unicode="^" 
d="M608 1303l-342 -521h-94l381 584h111l380 -584h-94z" />
    <glyph glyph-name="underscore" unicode="_" 
d="M0 -238v78h1024v-78h-1024z" />
    <glyph glyph-name="grave" unicode="`" 
d="M625 956l-183 263l95 51l153 -281z" />
    <glyph glyph-name="a" unicode="a" horiz-adv-x="1060" 
d="M913 672l21 164h82l-103 -836h-82l17 129q-51 -72 -123 -109q-84 -43 -193 -43q-161 0 -266 97q-121 121 -121 303q0 107 36 201.5t106 160.5q123 115 309 115q122 0 203 -55q72 -49 114 -127zM580 776q-144 0 -236 -92q-52 -52 -82.5 -132t-30.5 -169q0 -76 26.5 -141
t70.5 -109q85 -78 213 -78q113 0 198 62q44 31 75.5 75.5t47 92t22.5 88.5t7 80q0 153 -86 239q-75 84 -225 84z" />
    <glyph glyph-name="b" unicode="b" horiz-adv-x="1060" 
d="M332 1493h82l-99 -795q49 69 117 107q85 49 195 49q176 0 282 -106q109 -109 109 -283q0 -109 -37 -205.5t-104 -163.5q-127 -119 -299 -119q-117 0 -205 60q-74 51 -121 139l-23 -176h-82zM590 55q137 0 225 88q54 54 85.5 141.5t31.5 180.5q0 133 -86 223
q-88 88 -217 88q-144 0 -240 -96q-54 -54 -84.5 -131.5t-30.5 -159.5q0 -155 95 -250q84 -84 221 -84z" />
    <glyph glyph-name="c" unicode="c" horiz-adv-x="909" 
d="M913 748l-14 -109q-52 59 -115 94q-81 43 -166 43q-168 0 -276 -108q-57 -57 -84 -133t-27 -154q0 -62 22.5 -124.5t63.5 -109.5q85 -92 236 -92q103 0 172 39q73 38 131 111l-14 -119q-63 -51 -119 -76q-72 -33 -174 -33q-184 0 -295 111q-109 109 -109 293
q0 109 39 198.5t101 149.5q132 125 331 125q23 0 45.5 -2.5t39 -5.5t34.5 -8t27 -8t22 -7.5t15 -5.5q52 -22 114 -69z" />
    <glyph glyph-name="d" unicode="d" horiz-adv-x="1062" 
d="M915 668l103 825h82l-185 -1493h-81l14 119q-14 -19 -49 -50.5t-82 -54.5q-75 -37 -174 -37q-95 0 -165.5 25.5t-125.5 85.5q-107 115 -107 303q0 206 138 344q119 119 307 119q122 0 209 -57q73 -48 116 -129zM584 776q-135 0 -230 -92q-55 -52 -86.5 -130t-31.5 -165
q0 -152 92 -248q80 -86 215 -86q140 0 237 92q57 57 85 140.5t28 171.5q0 151 -90 233q-84 84 -219 84z" />
    <glyph glyph-name="e" unicode="e" horiz-adv-x="997" 
d="M948 408h-712q-13 -78 12 -151.5t71 -119.5q82 -82 211 -82q116 0 199 60q68 48 109 131l63 -41q-59 -107 -149 -166q-86 -62 -224 -62q-175 0 -278 111q-105 114 -105 285q0 220 140 360q121 121 299 121q163 0 262 -96q120 -117 102 -350zM248 485h618q-1 64 -24 120
t-60 93q-74 78 -198 78q-145 0 -240 -100q-75 -78 -96 -191z" />
    <glyph glyph-name="f" unicode="f" horiz-adv-x="438" 
d="M530 758h-208l-93 -758h-82l93 758h-95l11 78h94l49 397q18 163 82 227q58 58 154 58q38 0 88 -13l-9 -75q-35 10 -71 10q-66 0 -105 -39q-43 -43 -59 -184l-47 -381h209z" />
    <glyph glyph-name="g" unicode="g" horiz-adv-x="1064" 
d="M938 836h82l-98 -811q-8 -58 -15 -94.5t-22 -91.5t-40.5 -101t-60.5 -84q-56 -59 -140 -92t-187 -33q-179 0 -277 98q-45 44 -74 111.5t-30 148.5h86q4 -123 74 -196q80 -84 231 -84q160 0 252 92q38 38 64.5 99t36.5 108.5t20 118.5l14 118q-54 -78 -135 -118
q-93 -48 -195 -48q-178 0 -280 107q-107 114 -107 293q0 211 135 352q68 69 144.5 97t171.5 28q134 0 227 -57q57 -35 105 -107zM590 776q-148 0 -244 -92q-56 -54 -87.5 -135.5t-31.5 -171.5q0 -133 88 -234q80 -88 230 -88q145 0 239 97q54 55 82.5 135t28.5 172
q0 151 -88 235q-38 38 -96 60t-121 22z" />
    <glyph glyph-name="h" unicode="h" horiz-adv-x="905" 
d="M147 0l185 1493h82l-99 -788q37 61 93 100q65 49 167 49q119 0 185 -63q37 -35 53.5 -82.5t14.5 -88t-4 -81.5q-1 -9 -1 -13l-65 -526h-82l65 526q10 50 2 107t-45 94q-49 49 -133 49q-105 0 -176 -71q-85 -85 -106 -271l-54 -434h-82z" />
    <glyph glyph-name="i" unicode="i" horiz-adv-x="376" 
d="M250 836h82l-103 -836h-82zM315 1038q-28 0 -47 19q-16 16 -16 45q0 44 27 65q23 23 55 23q28 0 47 -19q18 -18 18 -47q0 -37 -24 -61q-25 -25 -60 -25z" />
    <glyph glyph-name="j" unicode="j" horiz-adv-x="376" 
d="M250 836h82l-162 -1307h-82zM315 1038q-28 0 -47 19q-16 16 -16 45q0 44 27 65q23 23 55 23q28 0 47 -19q18 -18 18 -47q0 -37 -24 -61q-25 -25 -60 -25z" />
    <glyph glyph-name="k" unicode="k" horiz-adv-x="804" 
d="M332 1493h82l-125 -1016l387 359h106l-399 -367l405 -469h-104l-360 414l-50 -43l-45 -371h-82z" />
    <glyph glyph-name="l" unicode="l" horiz-adv-x="376" 
d="M332 1493h82l-185 -1493h-82z" />
    <glyph glyph-name="m" unicode="m" horiz-adv-x="1337" 
d="M147 0l103 836h82l-13 -105q33 57 82 86q59 37 138 37q96 0 153 -43q55 -41 74 -109q28 67 88 107q64 45 160 45q118 0 186 -68q57 -57 57 -155q0 -51 -10 -139l-59 -492h-82l59 485q0 6 5.5 53.5t5.5 63.5q0 74 -46 127q-45 47 -129 47q-87 0 -145 -53
q-39 -37 -57 -94.5t-31 -145.5l-59 -483h-82l59 481q10 55 10 119q0 86 -43 129q-47 47 -129 47q-91 0 -147 -59q-67 -73 -90 -248l-58 -469h-82z" />
    <glyph glyph-name="n" unicode="n" horiz-adv-x="905" 
d="M147 0l103 836h82l-17 -131q40 71 97 104q67 45 166 45q122 0 188 -66q63 -63 63 -165q0 -24 -6 -81.5t-6 -66.5l-59 -475h-82l59 487q10 95 10 111q0 82 -45 127q-47 51 -141 51q-104 0 -172 -65q-45 -42 -68 -107.5t-36 -169.5l-54 -434h-82z" />
    <glyph glyph-name="o" unicode="o" horiz-adv-x="1073" 
d="M614 854q89 0 173 -31t139 -86q104 -104 104 -288q0 -219 -137 -349q-133 -123 -342 -123q-185 0 -295 115q-111 114 -111 291q0 99 37 191t103 155q64 61 151 93t178 32zM563 55q155 0 258 95q123 115 123 290q0 20 -2 39.5t-4.5 35.5t-8 32.5t-9.5 28t-11.5 25
t-11.5 21t-12 19t-11 15t-10 12.5l-8 10q-91 98 -250 98q-146 0 -254 -94q-58 -53 -89.5 -129.5t-31.5 -157.5q0 -72 25.5 -137.5t69.5 -110.5q88 -92 237 -92z" />
    <glyph glyph-name="p" unicode="p" horiz-adv-x="1060" 
d="M248 150l-74 -621h-82l158 1307h82l-19 -146q43 68 125 113q86 51 209 51q169 0 271 -102q100 -104 100 -279q0 -237 -141 -375q-121 -121 -304 -121q-118 0 -215 60q-66 43 -110 113zM571 55q146 0 240 82q55 51 88 135.5t33 186.5q0 147 -92 239q-78 78 -201 78
q-150 0 -250 -100q-53 -53 -84 -132t-31 -173q0 -145 93 -238q81 -78 204 -78z" />
    <glyph glyph-name="q" unicode="q" horiz-adv-x="1060" 
d="M856 -471h-82l76 621q-60 -90 -145 -132q-84 -41 -195 -41q-167 0 -264 105q-101 101 -101 278q0 117 40 212t106 161q124 121 319 121q114 0 195 -51q61 -38 110 -113l19 146h82zM598 776q-154 0 -256 -106q-111 -120 -111 -303q0 -149 93 -238q77 -74 202 -74
q140 0 238 86q57 53 92 138.5t35 185.5q0 145 -86 231q-75 80 -207 80z" />
    <glyph glyph-name="r" unicode="r" horiz-adv-x="532" 
d="M147 0l103 836h82l-13 -109q29 57 80 90q52 37 123 37q43 0 82 -20l-49 -74q-21 16 -59 16q-65 0 -115 -53q-76 -83 -98 -303l-54 -420h-82z" />
    <glyph glyph-name="s" unicode="s" horiz-adv-x="700" 
d="M678 719l-74 -37q-15 45 -47 68q-8 8 -32 17t-60 9q-72 0 -117 -45q-37 -37 -37 -92q0 -44 33 -80q26 -26 86 -51l64 -27q83 -34 122 -73q56 -56 56 -148q0 -120 -74 -194q-81 -89 -229 -89q-121 0 -193 72q-57 57 -74 150l82 24q10 -71 56 -117q51 -51 131 -51
q93 0 153 54q60 60 60 141q0 61 -39 100q-29 29 -101 60l-49 20q-77 32 -121 76q-49 49 -49 121q0 91 62 153q74 74 184 74q79 0 135 -37q54 -36 72 -98z" />
    <glyph glyph-name="t" unicode="t" horiz-adv-x="397" 
d="M473 758h-145l-92 -758h-82l92 758h-92l10 78h92l37 299h82l-37 -299h145z" />
    <glyph glyph-name="u" unicode="u" horiz-adv-x="894" 
d="M248 836h82l-62 -504q-24 -162 51 -228q58 -49 144 -49q104 0 170 66q58 66 74 211l61 504h82l-70 -527q-19 -121 -39 -168q-17 -43 -45 -75q-80 -89 -237 -89q-133 0 -209 76q-91 98 -64 275z" />
    <glyph glyph-name="v" unicode="v" horiz-adv-x="798" 
d="M119 836h86l209 -695l377 695h94l-490 -887z" />
    <glyph glyph-name="w" unicode="w" horiz-adv-x="1376" 
d="M119 836h86l205 -691l378 742l199 -742l381 691h94l-495 -887l-199 741l-379 -741z" />
    <glyph glyph-name="x" unicode="x" horiz-adv-x="815" 
d="M16 0l392 438l-261 398h97l221 -344l303 344h100l-352 -398l283 -438h-97l-245 385l-340 -385h-101z" />
    <glyph glyph-name="y" unicode="y" horiz-adv-x="876" 
d="M160 -471l252 457l-293 850h90l260 -744l395 744h99l-709 -1307h-94z" />
    <glyph glyph-name="z" unicode="z" horiz-adv-x="925" 
d="M991 836l-768 -758h672l-10 -78h-848l776 758h-577l10 78h745z" />
    <glyph glyph-name="braceleft" unicode="{" horiz-adv-x="569" 
d="M150 553l8 59q55 14 88 47q46 46 59 160l47 395q18 141 76 203q43 46 99 61t135 15h14l-10 -82h-4q-35 0 -54.5 -1t-55.5 -12.5t-58 -33.5q-9 -9 -16 -19.5t-12.5 -23.5t-9 -22t-6.5 -25.5t-4 -22.5t-3.5 -24t-2.5 -19l-49 -393q-5 -39 -8.5 -59.5t-17 -58t-35.5 -60.5
q-38 -41 -97 -55q45 -18 74 -62q45 -58 29 -176l-45 -346q-6 -31 -6 -96q0 -83 32 -115q33 -33 125 -33h19l-10 -82h-19q-132 0 -186 56q-51 51 -51 170q0 2 8 102l43 348q0 1 2 18t2 20.5t1.5 18.5t0.5 20.5t-1.5 18.5t-3.5 20t-6.5 17.5t-9.5 18.5t-14 16q-28 28 -67 37z
" />
    <glyph glyph-name="bar" unicode="|" 
d="M471 -512v2048h82v-2048h-82z" />
    <glyph glyph-name="braceright" unicode="}" horiz-adv-x="569" 
d="M563 612l-8 -59q-49 -12 -84 -47q-32 -32 -43.5 -68.5t-17.5 -89.5l-45 -360q-20 -182 -91 -248q-73 -68 -219 -68h-18l10 82h14q105 0 152 47q44 44 61 185l45 358q19 129 74 184q33 33 86 54q-37 13 -67 43q-41 41 -41 114q0 23 10 105l37 311q10 90 10 119
q0 75 -39 106q-38 31 -131 31h-6l10 82h12q140 0 201 -61q47 -47 47 -136q0 -16 -14 -145l-35 -281q-10 -79 -10 -114q0 -72 35 -109q28 -28 65 -35z" />
    <glyph glyph-name="asciitilde" unicode="~" 
d="M229 399l-51 33q55 84 111 137q78 72 180 72q37 0 79.5 -13.5t63.5 -24t80 -42.5q9 -5 33 -19t31.5 -17.5t26.5 -13.5t28 -12.5t24.5 -7.5t29 -6.5t28.5 -1.5q90 0 156 66q13 13 73 94l54 -33q-42 -69 -91 -118q-43 -45 -88.5 -65.5t-109.5 -20.5q-55 0 -103 16t-141 70
q-115 71 -186 71q-77 0 -140 -55q-51 -50 -88 -109z" />
    <glyph glyph-name="uni00A0" unicode="&#xa0;" horiz-adv-x="477" 
 />
    <glyph glyph-name="exclamdown" unicode="&#xa1;" horiz-adv-x="532" 
d="M319 651h91l-140 -1122h-90zM311 823q0 43 27 64q31 22 57 22q25 0 47 -16q21 -18 21 -49q0 -37 -25 -62q-24 -24 -61 -24q-24 0 -45 16q-21 15 -21 49z" />
    <glyph glyph-name="cent" unicode="&#xa2;" horiz-adv-x="1122" 
d="M819 1341l-24 -208q74 -5 145 -35q58 -26 107 -70l-15 -108q-45 66 -106 98q-63 34 -142 37l-88 -721q84 -3 160 31t131 104l-14 -111q-51 -48 -127 -75q-82 -28 -158 -25l-29 -231h-77l28 233q-140 21 -223 111q-49 49 -78.5 124t-29.5 164q0 100 35 193t98 156
q48 48 125.5 85t179.5 37l24 211h78zM618 338l89 715q-135 -2 -230 -97q-53 -53 -81.5 -133.5t-28.5 -167.5q0 -141 82 -229q73 -73 169 -88z" />
    <glyph glyph-name="sterling" unicode="&#xa3;" horiz-adv-x="1122" 
d="M266 559l8 82h201l-33 72q-4 8 -25 54t-27 61.5t-18.5 51t-17 63.5t-4.5 58q0 71 28 143.5t85 129.5q106 106 272 106q71 0 140.5 -25t115.5 -71q76 -81 76 -209q0 -44 -6 -74h-90q6 30 6 58q0 104 -59 166q-65 73 -181 73q-121 0 -200 -79q-43 -41 -67 -99t-24 -119
q0 -70 33 -145q10 -26 34.5 -73.5t33.5 -67.5l35 -74h247l-8 -82h-219q23 -74 23 -145q0 -140 -125 -271l127 -45q6 -2 22.5 -8t21.5 -7.5t17 -5.5t17.5 -5t15.5 -3.5t16.5 -3.5t16 -1.5t18.5 -0.5q18 0 38 5t49 18t61 43.5t59 75.5l70 -45q-40 -78 -115.5 -132.5
t-165.5 -54.5q-18 0 -37.5 3t-34.5 6t-38.5 10.5t-36 12t-40.5 15.5t-40 15q-112 39 -158 39q-89 0 -197 -94l-41 65q123 117 258 117q129 125 129 256q0 77 -30 141h-236z" />
    <glyph glyph-name="currency" unicode="&#xa4;" horiz-adv-x="1122" 
d="M172 184l-49 52l184 182q-114 124 -114 299t108 293l-184 184l49 49l184 -182q62 58 143.5 86.5t157.5 28.5q74 0 153.5 -28t147.5 -87l185 182l49 -49l-185 -184q111 -121 111 -295q0 -170 -113 -293l187 -186l-49 -50l-187 187q-120 -113 -295 -113q-178 0 -299 109z
M1034 715q0 77 -30.5 151t-79.5 123q-50 53 -124 83t-149 30q-155 0 -266 -111q-115 -115 -115 -274q0 -77 30 -147.5t81 -123.5q105 -112 270 -112q162 0 271 112q112 112 112 269z" />
    <glyph glyph-name="yen" unicode="&#xa5;" horiz-adv-x="1122" 
d="M1122 801h-297l-151 -211h422l-11 -82h-423l-62 -508h-90l61 508h-409l10 82h406l-95 211h-284l10 82h237l-215 483h101l305 -686l481 686h109l-344 -483h250z" />
    <glyph glyph-name="brokenbar" unicode="&#xa6;" 
d="M471 799v737h82v-737h-82zM471 -512v737h82v-737h-82z" />
    <glyph glyph-name="section" unicode="&#xa7;" horiz-adv-x="1114" 
d="M233 27h91q-2 -6 -2 -43q0 -115 55 -170q56 -60 168 -60q121 0 186 70q29 34 45.5 83.5t16.5 94.5q0 93 -76 160q-18 16 -43 30t-43 21.5t-49.5 18.5t-44.5 16q-46 18 -65 26.5t-57 31.5t-61 48q-86 86 -86 230q0 138 72 225q67 90 188 117q-60 31 -104 96
q-47 71 -47 156q0 149 94 243q95 95 254 95q156 0 238 -82q28 -28 45.5 -60.5t24 -71.5t8 -62.5t1.5 -65.5v-11h-90v15q0 139 -59 198q-58 58 -174 58q-112 0 -178 -66q-68 -68 -68 -174q0 -84 62 -143q52 -49 180 -99q49 -20 74 -32t60.5 -34t61.5 -48q78 -83 78 -217
q0 -129 -63 -213q-72 -97 -201 -134q73 -41 115 -94q49 -65 49 -170q0 -146 -84 -237q-96 -101 -260 -101q-158 0 -236 78q-78 74 -78 223q0 36 2 54zM637 862q-115 0 -195 -76q-80 -80 -80 -206q0 -111 70 -177q69 -69 189 -69q125 0 196 78q76 76 76 206q0 112 -76 181
q-72 63 -180 63z" />
    <glyph glyph-name="dieresis" unicode="&#xa8;" 
d="M739 1071q0 30 25 55t59 25t49 -21q17 -21 17 -45q0 -32 -23 -55q-24 -26 -61 -26q-27 0 -45 18q-21 21 -21 49zM399 1071q0 30 25 55t59 25t49 -21q17 -21 17 -45q0 -32 -23 -55q-24 -26 -61 -26q-27 0 -45 18q-21 21 -21 49z" />
    <glyph glyph-name="copyright" unicode="&#xa9;" horiz-adv-x="1515" 
d="M1135 971v-109q-109 139 -265 139q-143 0 -231 -92q-94 -100 -94 -237q0 -135 94 -232q89 -92 231 -92q158 0 265 133v-106q-124 -101 -265 -101q-175 0 -288 113q-115 111 -115 281q0 187 119 299q111 108 282 108q156 0 267 -104zM1544 684q0 -134 -55 -270.5
t-158 -237.5q-92 -91 -216.5 -143.5t-272.5 -52.5t-273 52.5t-217 143.5q-103 101 -158 237.5t-55 270.5q0 133 55 268t158 238q92 91 217 143.5t273 52.5t272.5 -52.5t216.5 -143.5q103 -103 158 -238t55 -268zM842 1325q-246 0 -430 -172q-93 -89 -148 -214.5t-55 -254.5
q0 -132 54.5 -257t148.5 -214q184 -172 430 -172t430 172q94 89 148.5 214t54.5 257q0 129 -55 254.5t-148 214.5q-184 172 -430 172z" />
    <glyph glyph-name="ordfeminine" unicode="&#xaa;" horiz-adv-x="696" 
d="M705 1253l10 101h53l-68 -549h-53l10 88q-33 -44 -84 -72q-50 -28 -127 -28q-108 0 -178 65q-73 70 -73 195q0 139 84 227q82 86 215 86q71 0 133 -35q49 -28 78 -78zM487 1317q-104 0 -165 -68q-33 -35 -50.5 -88t-17.5 -104q0 -101 59 -160q55 -55 146 -55
q104 0 162 67q67 73 67 195q0 101 -55 156q-50 57 -146 57zM160 666h522l-10 -70h-522z" />
    <glyph glyph-name="guillemotleft" unicode="&#xab;" horiz-adv-x="712" 
d="M215 424l191 -258l-60 -49l-229 307l305 307l47 -49zM432 424l191 -258l-60 -49l-229 307l305 307l47 -49z" />
    <glyph glyph-name="logicalnot" unicode="&#xac;" 
d="M983 0h-82v469h-807v78h889v-547z" />
    <glyph glyph-name="uni00AD" unicode="&#xad;" horiz-adv-x="614" 
d="M150 377l10 94h409l-10 -94h-409z" />
    <glyph glyph-name="registered" unicode="&#xae;" horiz-adv-x="1515" 
d="M1098 276h-82l-240 351h-14v-351h-70v758h146q110 0 168 -53q55 -55 55 -145q0 -95 -55 -150q-58 -58 -150 -61zM762 971v-281h74q79 0 118 39q35 35 35 102q0 73 -35 105q-35 35 -114 35h-78zM1544 684q0 -134 -55 -270.5t-158 -237.5q-92 -91 -216.5 -143.5
t-272.5 -52.5t-273 52.5t-217 143.5q-103 101 -158 237.5t-55 270.5q0 133 55 268t158 238q92 91 217 143.5t273 52.5t272.5 -52.5t216.5 -143.5q103 -103 158 -238t55 -268zM842 1325q-246 0 -430 -172q-93 -89 -148 -214.5t-55 -254.5q0 -132 54.5 -257t148.5 -214
q184 -172 430 -172t430 172q94 89 148.5 214t54.5 257q0 129 -55 254.5t-148 214.5q-184 172 -430 172z" />
    <glyph glyph-name="macron" unicode="&#xaf;" 
d="M360 1010l9 80h553l-9 -80h-553z" />
    <glyph glyph-name="degree" unicode="&#xb0;" horiz-adv-x="1028" 
d="M668 1366q120 0 198 -78q64 -67 64 -164q0 -129 -80 -209q-86 -86 -217 -86q-117 0 -195 78q-65 69 -65 170q0 120 80 203q86 86 215 86zM641 903q94 0 145 51q62 59 62 160q0 82 -49 131q-47 47 -137 47q-91 0 -144 -53q-63 -57 -63 -162q0 -74 49 -123q51 -51 137 -51z
" />
    <glyph glyph-name="plusminus" unicode="&#xb1;" 
d="M123 694v78h403v371h82v-371h404v-78h-404v-370h-82v370h-403zM123 156v77h889v-77h-889z" />
    <glyph glyph-name="twosuperior" unicode="&#xb2;" horiz-adv-x="677" 
d="M647 545h-504l342 346q72 72 113 131q45 60 45 135q0 63 -37 100q-43 43 -121 43q-80 0 -120 -40q-47 -47 -58 -127h-74q14 102 78 172q67 69 181 69q115 0 180 -65q55 -55 55 -146q0 -82 -47 -153q-20 -33 -107 -125l-258 -267h340z" />
    <glyph glyph-name="threesuperior" unicode="&#xb3;" horiz-adv-x="677" 
d="M190 748h74q0 -62 37 -99q39 -39 109 -39t118 41q54 52 54 140q0 72 -45 108q-47 37 -125 37h-11l11 74q113 0 166 53q40 40 40 113q0 58 -32 90q-37 37 -99 37q-61 0 -102 -46q-30 -38 -39 -86h-74q14 90 72 148q57 57 145 57q97 0 154 -57t57 -143q0 -89 -57 -146
q-41 -41 -98 -55q1 0 8.5 -3t12 -5t13 -7t15.5 -10t15.5 -13t15.5 -17q37 -47 37 -121q0 -121 -72 -193q-66 -69 -182 -69q-105 0 -164 63q-54 57 -54 148z" />
    <glyph glyph-name="acute" unicode="&#xb4;" 
d="M780 1270l82 -51l-248 -263l-57 33z" />
    <glyph glyph-name="mu" unicode="&#xb5;" horiz-adv-x="1021" 
d="M170 -471h-82l160 1307h82l-45 -381q-13 -107 -13 -144q0 -118 68 -186q70 -70 184 -70q125 0 203 78q55 52 80 126t39 187l49 390h82l-103 -836h-81l18 152q-51 -83 -111 -125q-77 -50 -182 -50q-114 0 -184 56q-59 47 -86 127z" />
    <glyph glyph-name="paragraph" unicode="&#xb6;" horiz-adv-x="1091" 
d="M506 -195h-74l103 832h-7q-167 0 -266 86q-102 89 -102 240q0 89 29.5 164t78.5 124q67 67 162 91t217 24h473l-8 -68h-108l-187 -1493h-74l187 1493h-240z" />
    <glyph glyph-name="periodcentered" unicode="&#xb7;" horiz-adv-x="409" 
d="M193 680q0 48 30 82q33 33 80 33q39 0 64 -25q22 -22 22 -57q0 -44 -31 -80q-35 -35 -79 -35q-39 0 -64 25q-22 22 -22 57z" />
    <glyph glyph-name="cedilla" unicode="&#xb8;" 
d="M539 -102l90 -41l-244 -254l-53 32z" />
    <glyph glyph-name="onesuperior" unicode="&#xb9;" horiz-adv-x="675" 
d="M379 547l90 745h-127l35 74h180l-100 -819h-78z" />
    <glyph glyph-name="ordmasculine" unicode="&#xba;" horiz-adv-x="702" 
d="M502 1366q121 0 196 -68q76 -68 76 -192q0 -139 -86 -225q-88 -88 -229 -88q-116 0 -191 71t-75 193q0 143 92 227q85 82 217 82zM160 666h547l-11 -70h-546zM498 1317q-106 0 -174 -68q-74 -71 -74 -192q0 -92 57 -154q61 -61 158 -61q111 0 180 69q72 68 72 191
q0 95 -58 153q-62 62 -161 62z" />
    <glyph glyph-name="guillemotright" unicode="&#xbb;" horiz-adv-x="712" 
d="M383 424l-188 258l59 49l227 -307l-303 -307l-47 49zM600 424l-188 258l59 49l227 -307l-303 -307l-47 49z" />
    <glyph glyph-name="onequarter" unicode="&#xbc;" horiz-adv-x="1556" 
d="M379 547l90 745h-127l35 74h180l-100 -819h-78zM385 2l979 1395l57 -33l-979 -1395zM1497 846l-76 -617h115l-10 -73h-115l-18 -156h-78l18 156h-418zM1069 229h274l48 389z" />
    <glyph glyph-name="onehalf" unicode="&#xbd;" horiz-adv-x="1558" 
d="M379 547l90 745h-127l35 74h180l-100 -819h-78zM324 2l979 1395l57 -33l-979 -1395zM1460 0h-504l342 346q72 72 113 131q45 60 45 135q0 64 -37 101q-43 43 -121 43q-79 0 -120 -41q-47 -47 -58 -127h-73q15 104 77 172q67 69 181 69q115 0 180 -65q55 -55 55 -146
q0 -82 -47 -153q-20 -33 -107 -125l-258 -266h340z" />
    <glyph glyph-name="threequarters" unicode="&#xbe;" horiz-adv-x="1556" 
d="M190 748h74q0 -62 37 -99q39 -39 109 -39t118 41q54 52 54 140q0 72 -45 108q-47 37 -125 37h-11l11 74q113 0 166 53q40 40 40 113q0 58 -32 90q-37 37 -99 37q-61 0 -102 -46q-30 -38 -39 -86h-74q14 90 72 148q57 57 145 57q97 0 154 -57t57 -143q0 -89 -57 -146
q-41 -41 -98 -55q1 0 8.5 -3t12 -5t13 -7t15.5 -10t15.5 -13t15.5 -17q37 -47 37 -121q0 -121 -72 -193q-66 -69 -182 -69q-105 0 -164 63q-54 57 -54 148zM426 2l979 1395l57 -33l-979 -1395zM1497 846l-76 -617h115l-10 -73h-115l-18 -156h-78l18 156h-418zM1069 229h274
l48 389z" />
    <glyph glyph-name="questiondown" unicode="&#xbf;" horiz-adv-x="960" 
d="M346 356h-82q0 60 20.5 117.5t55.5 95.5q77 86 223 86q128 0 203 -75q68 -68 68 -181q0 -126 -82 -202q-12 -11 -24.5 -21t-28 -18t-26.5 -14t-30.5 -13t-28 -9.5t-31.5 -10t-30 -9.5l-78 -22q-123 -42 -174 -103q-55 -67 -55 -174q0 -100 61 -161q58 -56 158 -56
q118 0 186 68q68 71 68 194q0 36 -6 74h90q4 -36 4 -67q0 -171 -92 -263q-88 -88 -246 -88q-152 0 -236 84q-81 81 -81 213q0 125 77 224q44 53 97.5 81.5t124.5 51.5l88 24q7 2 32.5 10t40.5 13t36 17t36 26q59 54 59 153q0 80 -47 127q-57 50 -139 50q-103 0 -156 -60
q-26 -28 -40.5 -73t-14.5 -89zM524 823q0 43 27 64q31 22 57 22q25 0 47 -16q21 -18 21 -49q0 -37 -25 -62q-24 -24 -61 -24q-24 0 -45 16q-21 15 -21 49z" />
    <glyph glyph-name="Agrave" unicode="&#xc0;" horiz-adv-x="1200" 
d="M1077 0l-127 449h-581l-238 -449h-102l747 1407l395 -1407h-94zM412 530h516l-176 648zM842 1470l-211 240l65 53l191 -256z" />
    <glyph glyph-name="Aacute" unicode="&#xc1;" horiz-adv-x="1200" 
d="M1077 0l-127 449h-581l-238 -449h-102l747 1407l395 -1407h-94zM412 530h516l-176 648zM993 1710l-266 -240l-41 43l242 250z" />
    <glyph glyph-name="Acircumflex" unicode="&#xc2;" horiz-adv-x="1200" 
d="M1077 0l-127 449h-581l-238 -449h-102l747 1407l395 -1407h-94zM412 530h516l-176 648zM807 1655l-238 -185l-45 52l293 231l225 -231l-53 -52z" />
    <glyph glyph-name="Atilde" unicode="&#xc3;" horiz-adv-x="1200" 
d="M1077 0l-127 449h-581l-238 -449h-102l747 1407l395 -1407h-94zM412 530h516l-176 648zM578 1491l-46 39q27 52 58 76q45 39 98 39q25 0 48 -8t51 -23t32 -17q8 -3 24.5 -11.5t24.5 -12t21.5 -7t25.5 -3.5q28 0 62 34q35 45 35 52l43 -41q-19 -41 -64 -80
q-43 -35 -96 -35q-19 0 -37.5 5t-27.5 9.5t-42 20.5q-12 6 -30.5 16.5t-28.5 15.5t-25 9t-32 4q-9 0 -16.5 -1.5t-15.5 -6t-10.5 -6t-11.5 -10.5l-10 -9q-20 -21 -30 -49z" />
    <glyph glyph-name="Adieresis" unicode="&#xc4;" horiz-adv-x="1200" 
d="M1077 0l-127 449h-581l-238 -449h-102l747 1407l395 -1407h-94zM412 530h516l-176 648zM909 1587q0 37 27 64q24 24 57 24q34 0 54 -20q18 -21 18 -49q0 -35 -27 -62q-24 -24 -63 -24q-29 0 -47 18q-19 17 -19 49zM528 1587q0 37 27 64q24 24 57 24q34 0 54 -20
q18 -21 18 -49q0 -35 -27 -62q-24 -24 -63 -24q-29 0 -47 18q-19 17 -19 49z" />
    <glyph glyph-name="Aring" unicode="&#xc5;" horiz-adv-x="1200" 
d="M1077 0l-127 449h-581l-238 -449h-102l747 1407l395 -1407h-94zM412 530h516l-176 648zM633 1595q0 76 51 127q25 25 59.5 39.5t67.5 14.5q69 0 113 -47q41 -45 41 -107q0 -71 -52 -123q-51 -51 -127 -51q-69 0 -110 41q-43 43 -43 106zM715 1604q0 -34 20 -54
q22 -22 60 -22q42 0 65 26q23 23 23 62q0 36 -23 59q-24 21 -57 21q-37 0 -62 -25q-26 -26 -26 -67z" />
    <glyph glyph-name="AE" unicode="&#xc6;" horiz-adv-x="1744" 
d="M1071 0l-127 449h-584l-233 -449h-98l719 1366h591l25 -82h-563l141 -496h549l25 -81h-549l178 -625h559l27 -82h-660zM403 530h517l-183 644z" />
    <glyph glyph-name="Ccedilla" unicode="&#xc7;" horiz-adv-x="1396" 
d="M1434 1206l-15 -119q-1 1 -21.5 23.5t-39 41t-52.5 45.5t-69 46q-121 60 -254 60q-129 0 -256.5 -50t-228.5 -151q-100 -100 -152.5 -230t-52.5 -262q0 -113 42 -215.5t116 -177.5q73 -75 174 -116.5t215 -41.5q145 0 264 58q119 53 215 149l-14 -119q-88 -75 -197 -122
q-117 -48 -270 -48q-276 0 -455 179q-188 188 -188 458q0 145 58.5 290t182.5 263q222 217 549 217q157 0 279 -55q105 -55 170 -123zM797 -102l90 -58l-264 -254l-58 41z" />
    <glyph glyph-name="Egrave" unicode="&#xc8;" horiz-adv-x="950" 
d="M1008 1366l-11 -82h-565l-61 -496h553l-11 -81h-553l-75 -625h565l-10 -82h-570h-86l168 1366h656zM750 1470l-211 240l65 53l191 -256z" />
    <glyph glyph-name="Eacute" unicode="&#xc9;" horiz-adv-x="950" 
d="M1008 1366l-11 -82h-565l-61 -496h553l-11 -81h-553l-75 -625h565l-10 -82h-570h-86l168 1366h656zM948 1710l-266 -240l-41 43l242 250z" />
    <glyph glyph-name="Ecircumflex" unicode="&#xca;" horiz-adv-x="950" 
d="M1008 1366l-11 -82h-565l-61 -496h553l-11 -81h-553l-75 -625h565l-10 -82h-570h-86l168 1366h656zM713 1655l-238 -185l-45 52l293 231l225 -231l-53 -52z" />
    <glyph glyph-name="Edieresis" unicode="&#xcb;" horiz-adv-x="950" 
d="M1008 1366l-11 -82h-565l-61 -496h553l-11 -81h-553l-75 -625h565l-10 -82h-570h-86l168 1366h656zM821 1587q0 37 27 64q24 24 57 24t53 -20q19 -22 19 -49q0 -35 -27 -62q-24 -24 -63 -24q-29 0 -47 18q-19 17 -19 49zM440 1587q0 37 27 64q24 24 57 24q34 0 54 -20
q18 -21 18 -49q0 -35 -27 -62q-24 -24 -63 -24q-29 0 -47 18q-19 17 -19 49z" />
    <glyph glyph-name="Igrave" unicode="&#xcc;" horiz-adv-x="458" 
d="M352 1366h90l-168 -1366h-90zM457 1470l-211 240l65 53l191 -256z" />
    <glyph glyph-name="Iacute" unicode="&#xcd;" horiz-adv-x="458" 
d="M352 1366h90l-168 -1366h-90zM625 1710l-267 -240l-41 43l242 250z" />
    <glyph glyph-name="Icircumflex" unicode="&#xce;" horiz-adv-x="458" 
d="M352 1366h90l-168 -1366h-90zM426 1602l-178 -123l-66 57l258 182l213 -182l-78 -55z" />
    <glyph glyph-name="Idieresis" unicode="&#xcf;" horiz-adv-x="458" 
d="M352 1366h90l-168 -1366h-90zM479 1587q0 37 27 64q24 24 57 24t53 -20q19 -22 19 -49q0 -35 -27 -62q-24 -24 -63 -24q-29 0 -47 18q-19 17 -19 49zM217 1587q0 37 27 64q24 24 57 24t53 -20q19 -22 19 -49q0 -35 -27 -62q-24 -24 -63 -24q-29 0 -47 18q-19 17 -19 49z
" />
    <glyph glyph-name="Eth" unicode="&#xd0;" horiz-adv-x="1269" 
d="M453 0h-179h-92l88 707h-184l10 81h185l69 578h252q330 0 498 -190q141 -155 141 -426q0 -63 -8.5 -125.5t-28.5 -137.5t-62 -148.5t-102 -133.5q-205 -205 -587 -205zM430 1284l-59 -496h278l-10 -81h-279l-77 -625h178q311 0 497 178q61 59 103 135t59 150t23 122.5
t6 92.5q0 220 -133 364q-155 160 -428 160h-158z" />
    <glyph glyph-name="Ntilde" unicode="&#xd1;" horiz-adv-x="1605" 
d="M274 0h-90l170 1380l1000 -1204l145 1190h90l-172 -1401l-999 1204zM776 1468l-53 45q25 48 55 78q45 45 109 45q42 0 100 -26l49 -23q50 -22 84 -22q29 0 51 22q21 16 39 55l56 -45q-25 -49 -62 -81q-46 -41 -98 -41q-40 0 -107 28l-43 19q-53 24 -84 24q-28 0 -59 -24
q-23 -23 -37 -54z" />
    <glyph glyph-name="Ograve" unicode="&#xd2;" horiz-adv-x="1648" 
d="M981 1384q285 0 473 -188q168 -171 168 -440q0 -342 -229 -568q-117 -115 -250.5 -163t-296.5 -48q-142 0 -254 39.5t-211 135.5q-46 42 -84 97.5t-70 152t-32 204.5q0 146 59 291.5t174 263.5q223 223 553 223zM834 59q298 0 491 189q98 98 151.5 233.5t53.5 270.5
q0 237 -156 393q-72 72 -174.5 115t-226.5 43q-284 0 -475 -191q-105 -102 -157 -232.5t-52 -265.5q0 -231 149 -391q156 -164 396 -164zM1087 1470l-210 240l65 53l191 -256z" />
    <glyph glyph-name="Oacute" unicode="&#xd3;" horiz-adv-x="1648" 
d="M981 1384q285 0 473 -188q168 -171 168 -440q0 -342 -229 -568q-117 -115 -250.5 -163t-296.5 -48q-142 0 -254 39.5t-211 135.5q-46 42 -84 97.5t-70 152t-32 204.5q0 146 59 291.5t174 263.5q223 223 553 223zM834 59q298 0 491 189q98 98 151.5 233.5t53.5 270.5
q0 237 -156 393q-72 72 -174.5 115t-226.5 43q-284 0 -475 -191q-105 -102 -157 -232.5t-52 -265.5q0 -231 149 -391q156 -164 396 -164zM1300 1710l-266 -240l-41 43l242 250z" />
    <glyph glyph-name="Ocircumflex" unicode="&#xd4;" horiz-adv-x="1648" 
d="M981 1384q285 0 473 -188q168 -171 168 -440q0 -342 -229 -568q-117 -115 -250.5 -163t-296.5 -48q-142 0 -254 39.5t-211 135.5q-46 42 -84 97.5t-70 152t-32 204.5q0 146 59 291.5t174 263.5q223 223 553 223zM834 59q298 0 491 189q98 98 151.5 233.5t53.5 270.5
q0 237 -156 393q-72 72 -174.5 115t-226.5 43q-284 0 -475 -191q-105 -102 -157 -232.5t-52 -265.5q0 -231 149 -391q156 -164 396 -164zM1055 1655l-238 -185l-45 52l293 231l225 -231l-53 -52z" />
    <glyph glyph-name="Otilde" unicode="&#xd5;" horiz-adv-x="1648" 
d="M981 1384q285 0 473 -188q168 -171 168 -440q0 -342 -229 -568q-117 -115 -250.5 -163t-296.5 -48q-142 0 -254 39.5t-211 135.5q-46 42 -84 97.5t-70 152t-32 204.5q0 146 59 291.5t174 263.5q223 223 553 223zM834 59q298 0 491 189q98 98 151.5 233.5t53.5 270.5
q0 237 -156 393q-72 72 -174.5 115t-226.5 43q-284 0 -475 -191q-105 -102 -157 -232.5t-52 -265.5q0 -231 149 -391q156 -164 396 -164zM831 1491l-45 39q27 52 58 76q45 39 98 39q25 0 48 -8t51 -23t32 -17q8 -3 24.5 -11.5t24.5 -12t21.5 -7t25.5 -3.5q28 0 62 34
q35 45 35 52l43 -41q-19 -41 -64 -80q-43 -35 -96 -35q-19 0 -37.5 5t-27.5 9.5t-42 20.5q-12 6 -30.5 16.5t-28.5 15.5t-25 9t-32 4q-9 0 -16.5 -1.5t-15.5 -6t-10.5 -6t-11.5 -10.5l-10 -9q-22 -22 -31 -49z" />
    <glyph glyph-name="Odieresis" unicode="&#xd6;" horiz-adv-x="1648" 
d="M981 1384q285 0 473 -188q168 -171 168 -440q0 -342 -229 -568q-117 -115 -250.5 -163t-296.5 -48q-142 0 -254 39.5t-211 135.5q-46 42 -84 97.5t-70 152t-32 204.5q0 146 59 291.5t174 263.5q223 223 553 223zM834 59q298 0 491 189q98 98 151.5 233.5t53.5 270.5
q0 237 -156 393q-72 72 -174.5 115t-226.5 43q-284 0 -475 -191q-105 -102 -157 -232.5t-52 -265.5q0 -231 149 -391q156 -164 396 -164zM1128 1587q0 37 27 64q24 24 57 24q34 0 54 -20q18 -21 18 -49q0 -35 -27 -62q-24 -24 -63 -24q-29 0 -47 18q-19 17 -19 49zM748 1587
q0 38 26 64q24 24 57 24q34 0 54 -20q18 -21 18 -49q0 -36 -26 -62q-24 -24 -64 -24q-29 0 -47 18q-18 16 -18 49z" />
    <glyph glyph-name="multiply" unicode="&#xd7;" 
d="M221 354l320 320l-320 319l55 56l320 -320l319 320l56 -56l-320 -319l320 -320l-56 -55l-319 319l-320 -319z" />
    <glyph glyph-name="Oslash" unicode="&#xd8;" horiz-adv-x="1648" 
d="M969 1384q152 0 262.5 -44.5t202.5 -129.5l186 168l51 -63l-182 -164q70 -94 99.5 -187.5t29.5 -207.5q0 -342 -229 -568q-117 -115 -250.5 -163t-296.5 -48q-150 0 -259 40.5t-210 138.5l-187 -166l-49 61l185 164q-132 176 -132 391q0 145 59.5 291t174.5 264
q216 223 545 223zM834 59q298 0 487 189q98 98 151.5 233.5t53.5 270.5q0 181 -109 335l-977 -870q78 -78 171.5 -118t222.5 -40zM391 279l973 870q-161 154 -395 154q-284 0 -475 -191q-105 -102 -157 -232.5t-52 -265.5q0 -188 106 -335z" />
    <glyph glyph-name="Ugrave" unicode="&#xd9;" horiz-adv-x="1296" 
d="M350 1366h90l-104 -854q-7 -48 -9.5 -74t-3 -73.5t7 -79.5t27 -70.5t50.5 -67.5q93 -88 254 -88q189 0 296 107q43 43 70.5 105t37 111t19.5 130l105 854h90l-104 -854q-18 -142 -36 -201q-38 -125 -124 -207q-78 -76 -164.5 -101.5t-192.5 -25.5q-212 0 -325 113
q-52 52 -76.5 121.5t-23 142.5t11.5 158zM879 1470l-211 240l65 53l191 -256z" />
    <glyph glyph-name="Uacute" unicode="&#xda;" horiz-adv-x="1296" 
d="M350 1366h90l-104 -854q-7 -48 -9.5 -74t-3 -73.5t7 -79.5t27 -70.5t50.5 -67.5q93 -88 254 -88q189 0 296 107q43 43 70.5 105t37 111t19.5 130l105 854h90l-104 -854q-18 -142 -36 -201q-38 -125 -124 -207q-78 -76 -164.5 -101.5t-192.5 -25.5q-212 0 -325 113
q-52 52 -76.5 121.5t-23 142.5t11.5 158zM1065 1710l-266 -240l-41 43l241 250z" />
    <glyph glyph-name="Ucircumflex" unicode="&#xdb;" horiz-adv-x="1296" 
d="M350 1366h90l-104 -854q-7 -48 -9.5 -74t-3 -73.5t7 -79.5t27 -70.5t50.5 -67.5q93 -88 254 -88q189 0 296 107q43 43 70.5 105t37 111t19.5 130l105 854h90l-104 -854q-18 -142 -36 -201q-38 -125 -124 -207q-78 -76 -164.5 -101.5t-192.5 -25.5q-212 0 -325 113
q-52 52 -76.5 121.5t-23 142.5t11.5 158zM848 1610l-213 -131l-64 55l289 184l244 -184l-76 -55z" />
    <glyph glyph-name="Udieresis" unicode="&#xdc;" horiz-adv-x="1296" 
d="M350 1366h90l-104 -854q-7 -48 -9.5 -74t-3 -73.5t7 -79.5t27 -70.5t50.5 -67.5q93 -88 254 -88q189 0 296 107q43 43 70.5 105t37 111t19.5 130l105 854h90l-104 -854q-18 -142 -36 -201q-38 -125 -124 -207q-78 -76 -164.5 -101.5t-192.5 -25.5q-212 0 -325 113
q-52 52 -76.5 121.5t-23 142.5t11.5 158zM958 1587q0 37 27 64q24 24 57 24q34 0 54 -20q18 -21 18 -49q0 -35 -27 -62q-24 -24 -63 -24q-29 0 -47 18q-19 17 -19 49zM578 1587q0 38 26 64q24 24 58 24q33 0 53 -20q18 -21 18 -49q0 -36 -26 -62q-24 -24 -64 -24
q-29 0 -47 18q-18 16 -18 49z" />
    <glyph glyph-name="Yacute" unicode="&#xdd;" horiz-adv-x="1056" 
d="M477 0l72 584l-352 782h98l309 -690l486 690h106l-557 -782l-72 -584h-90zM944 1710l-266 -240l-41 43l242 250z" />
    <glyph glyph-name="Thorn" unicode="&#xde;" horiz-adv-x="917" 
d="M184 0l168 1366h90l-30 -246h174q180 0 276 -96q84 -84 84 -229q0 -84 -27 -156t-73 -121q-115 -115 -346 -115h-176l-50 -403h-90zM401 1038l-67 -553h180q170 0 252 80q82 78 82 226q0 102 -60 167q-34 37 -80 56t-76.5 21.5t-84.5 2.5h-146z" />
    <glyph glyph-name="germandbls" unicode="&#xdf;" horiz-adv-x="1007" 
d="M233 0h-81l92 758h-142l11 78h141l41 335q13 91 37.5 157t79.5 116q80 74 209 74q128 0 202 -78q72 -75 72 -211q0 -119 -51 -197q-56 -84 -148 -119q110 -35 181 -112q98 -112 98 -277q0 -218 -150 -368q-153 -153 -395 -166l10 82q90 6 181 45t151 100q20 24 33 42
t35 56.5t33.5 89t11.5 107.5q0 161 -99 260q-89 82 -247 98l8 72q53 1 103 20.5t83 49.5q74 67 74 202q0 111 -51 168q-54 58 -140 58q-90 0 -151 -56q-69 -64 -86 -200z" />
    <glyph glyph-name="agrave" unicode="&#xe0;" horiz-adv-x="1060" 
d="M913 672l21 164h82l-103 -836h-82l17 129q-51 -72 -123 -109q-84 -43 -193 -43q-161 0 -266 97q-121 121 -121 303q0 107 36 201.5t106 160.5q123 115 309 115q122 0 203 -55q72 -49 114 -127zM580 776q-144 0 -236 -92q-52 -52 -82.5 -132t-30.5 -169q0 -76 26.5 -141
t70.5 -109q85 -78 213 -78q113 0 198 62q44 31 75.5 75.5t47 92t22.5 88.5t7 80q0 153 -86 239q-75 84 -225 84zM758 983l-211 240l65 53l191 -256z" />
    <glyph glyph-name="aacute" unicode="&#xe1;" horiz-adv-x="1060" 
d="M913 672l21 164h82l-103 -836h-82l17 129q-51 -72 -123 -109q-84 -43 -193 -43q-161 0 -266 97q-121 121 -121 303q0 107 36 201.5t106 160.5q123 115 309 115q122 0 203 -55q72 -49 114 -127zM580 776q-144 0 -236 -92q-52 -52 -82.5 -132t-30.5 -169q0 -76 26.5 -141
t70.5 -109q85 -78 213 -78q113 0 198 62q44 31 75.5 75.5t47 92t22.5 88.5t7 80q0 153 -86 239q-75 84 -225 84zM920 1223l-267 -240l-41 43l242 250z" />
    <glyph glyph-name="acircumflex" unicode="&#xe2;" horiz-adv-x="1060" 
d="M913 672l21 164h82l-103 -836h-82l17 129q-51 -72 -123 -109q-84 -43 -193 -43q-161 0 -266 97q-121 121 -121 303q0 107 36 201.5t106 160.5q123 115 309 115q122 0 203 -55q72 -49 114 -127zM580 776q-144 0 -236 -92q-52 -52 -82.5 -132t-30.5 -169q0 -76 26.5 -141
t70.5 -109q85 -78 213 -78q113 0 198 62q44 31 75.5 75.5t47 92t22.5 88.5t7 80q0 153 -86 239q-75 84 -225 84zM729 1167l-237 -184l-46 51l293 232l226 -232l-54 -51z" />
    <glyph glyph-name="atilde" unicode="&#xe3;" horiz-adv-x="1060" 
d="M913 672l21 164h82l-103 -836h-82l17 129q-51 -72 -123 -109q-84 -43 -193 -43q-161 0 -266 97q-121 121 -121 303q0 107 36 201.5t106 160.5q123 115 309 115q122 0 203 -55q72 -49 114 -127zM580 776q-144 0 -236 -92q-52 -52 -82.5 -132t-30.5 -169q0 -76 26.5 -141
t70.5 -109q85 -78 213 -78q113 0 198 62q44 31 75.5 75.5t47 92t22.5 88.5t7 80q0 153 -86 239q-75 84 -225 84zM512 1014l-45 39q27 51 57 75q45 39 99 39q25 0 47.5 -7.5t51.5 -23t32 -16.5q9 -4 24.5 -12t24 -12t22 -7.5t25.5 -3.5q26 0 61 35q35 45 35 51l43 -41
q-19 -41 -63 -79q-43 -35 -97 -35q-7 0 -14 0.5t-12 1.5t-12.5 3.5t-11 3.5t-13 5t-12.5 5.5l-15 7.5l-16 8q-12 6 -30.5 16.5t-28.5 15.5t-25.5 9t-32.5 4q-9 0 -17 -1.5t-15 -6t-10 -6.5t-11 -9.5t-10 -9.5q-22 -22 -31 -49z" />
    <glyph glyph-name="adieresis" unicode="&#xe4;" horiz-adv-x="1060" 
d="M913 672l21 164h82l-103 -836h-82l17 129q-51 -72 -123 -109q-84 -43 -193 -43q-161 0 -266 97q-121 121 -121 303q0 107 36 201.5t106 160.5q123 115 309 115q122 0 203 -55q72 -49 114 -127zM580 776q-144 0 -236 -92q-52 -52 -82.5 -132t-30.5 -169q0 -76 26.5 -141
t70.5 -109q85 -78 213 -78q113 0 198 62q44 31 75.5 75.5t47 92t22.5 88.5t7 80q0 153 -86 239q-75 84 -225 84zM739 1071q0 30 25 55t59 25t49 -21q17 -21 17 -45q0 -32 -23 -55q-24 -26 -61 -26q-27 0 -45 18q-21 21 -21 49zM399 1071q0 30 25 55t59 25t49 -21
q17 -21 17 -45q0 -32 -23 -55q-24 -26 -61 -26q-27 0 -45 18q-21 21 -21 49z" />
    <glyph glyph-name="aring" unicode="&#xe5;" horiz-adv-x="1060" 
d="M913 672l21 164h82l-103 -836h-82l17 129q-51 -72 -123 -109q-84 -43 -193 -43q-161 0 -266 97q-121 121 -121 303q0 107 36 201.5t106 160.5q123 115 309 115q122 0 203 -55q72 -49 114 -127zM580 776q-144 0 -236 -92q-52 -52 -82.5 -132t-30.5 -169q0 -76 26.5 -141
t70.5 -109q85 -78 213 -78q113 0 198 62q44 31 75.5 75.5t47 92t22.5 88.5t7 80q0 153 -86 239q-75 84 -225 84zM489 1108q0 69 52 121q53 53 127 53q60 0 102 -39q39 -37 39 -100q0 -71 -49 -127q-49 -49 -127 -49q-64 0 -103 39q-41 41 -41 102zM565 1112q0 -30 19 -49
q20 -23 57 -23q41 0 68 27q24 24 24 66q0 35 -18 53q-19 22 -58 22q-32 0 -63 -24q-29 -29 -29 -72z" />
    <glyph glyph-name="ae" unicode="&#xe6;" horiz-adv-x="1628" 
d="M238 696l10 88q128 70 266 70q160 0 248 -82q70 -70 84 -162q58 111 139 168q105 76 238 76q161 0 260 -92q65 -63 90 -158.5t12 -197.5h-715q-11 -71 9.5 -146.5t68.5 -124.5q76 -80 209 -80q121 0 199 62q30 22 57.5 53t39.5 49.5t17 28.5l62 -41q-31 -48 -76.5 -95.5
t-87.5 -76.5q-89 -58 -207 -58q-127 0 -217 56q-84 54 -123 141q-27 -62 -68 -100t-79 -56q-82 -41 -209 -41q-147 0 -238 58q-106 68 -106 190q0 134 106 207q97 70 258 70q188 0 293 -90q26 213 -65 299q-71 65 -209 65q-131 0 -266 -80zM483 422q-150 0 -221 -66
q-55 -49 -55 -118q0 -40 21 -79.5t61 -64.5q64 -39 176 -39q129 0 211 56q76 58 76 151q0 78 -84 125q-62 35 -185 35zM885 483h618q-2 64 -26 127.5t-64 100.5q-72 65 -186 65q-138 0 -232 -94q-82 -89 -110 -199z" />
    <glyph glyph-name="ccedilla" unicode="&#xe7;" horiz-adv-x="909" 
d="M913 748l-14 -109q-52 59 -115 94q-81 43 -166 43q-168 0 -276 -108q-57 -57 -84 -133t-27 -154q0 -62 22.5 -124.5t63.5 -109.5q85 -92 236 -92q103 0 172 39q73 38 131 111l-14 -119q-63 -51 -119 -76q-72 -33 -174 -33q-184 0 -295 111q-109 109 -109 293
q0 109 39 198.5t101 149.5q132 125 331 125q23 0 45.5 -2.5t39 -5.5t34.5 -8t27 -8t22 -7.5t15 -5.5q52 -22 114 -69zM539 -102l90 -41l-244 -254l-53 32z" />
    <glyph glyph-name="egrave" unicode="&#xe8;" horiz-adv-x="997" 
d="M948 408h-712q-13 -78 12 -151.5t71 -119.5q82 -82 211 -82q116 0 199 60q68 48 109 131l63 -41q-59 -107 -149 -166q-86 -62 -224 -62q-175 0 -278 111q-105 114 -105 285q0 220 140 360q121 121 299 121q163 0 262 -96q120 -117 102 -350zM248 485h618q-1 64 -24 120
t-60 93q-74 78 -198 78q-145 0 -240 -100q-75 -78 -96 -191zM692 983l-211 240l66 53l190 -256z" />
    <glyph glyph-name="eacute" unicode="&#xe9;" horiz-adv-x="997" 
d="M948 408h-712q-13 -78 12 -151.5t71 -119.5q82 -82 211 -82q116 0 199 60q68 48 109 131l63 -41q-59 -107 -149 -166q-86 -62 -224 -62q-175 0 -278 111q-105 114 -105 285q0 220 140 360q121 121 299 121q163 0 262 -96q120 -117 102 -350zM248 485h618q-1 64 -24 120
t-60 93q-74 78 -198 78q-145 0 -240 -100q-75 -78 -96 -191zM866 1223l-266 -240l-41 43l242 250z" />
    <glyph glyph-name="ecircumflex" unicode="&#xea;" horiz-adv-x="997" 
d="M948 408h-712q-13 -78 12 -151.5t71 -119.5q82 -82 211 -82q116 0 199 60q68 48 109 131l63 -41q-59 -107 -149 -166q-86 -62 -224 -62q-175 0 -278 111q-105 114 -105 285q0 220 140 360q121 121 299 121q163 0 262 -96q120 -117 102 -350zM248 485h618q-1 64 -24 120
t-60 93q-74 78 -198 78q-145 0 -240 -100q-75 -78 -96 -191zM662 1167l-238 -184l-45 51l293 232l225 -232l-53 -51z" />
    <glyph glyph-name="edieresis" unicode="&#xeb;" horiz-adv-x="997" 
d="M948 408h-712q-13 -78 12 -151.5t71 -119.5q82 -82 211 -82q116 0 199 60q68 48 109 131l63 -41q-59 -107 -149 -166q-86 -62 -224 -62q-175 0 -278 111q-105 114 -105 285q0 220 140 360q121 121 299 121q163 0 262 -96q120 -117 102 -350zM248 485h618q-1 64 -24 120
t-60 93q-74 78 -198 78q-145 0 -240 -100q-75 -78 -96 -191zM709 1071q0 31 24 55q25 25 60 25q34 0 49 -21q16 -20 16 -45q0 -33 -22 -55q-24 -26 -62 -26q-27 0 -45 18q-20 20 -20 49zM369 1071q0 31 24 55q25 25 60 25q34 0 49 -21q16 -20 16 -45q0 -33 -22 -55
q-24 -26 -62 -26q-27 0 -45 18q-20 20 -20 49z" />
    <glyph glyph-name="igrave" unicode="&#xec;" horiz-adv-x="376" 
d="M250 836h82l-103 -836h-82zM299 956l-182 263l94 51l154 -281z" />
    <glyph glyph-name="iacute" unicode="&#xed;" horiz-adv-x="376" 
d="M250 836h82l-103 -836h-82zM528 1223l-266 -240l-41 43l242 250z" />
    <glyph glyph-name="icircumflex" unicode="&#xee;" horiz-adv-x="376" 
d="M250 836h82l-103 -836h-82zM322 1087l-158 -122l-55 53l227 176l182 -176l-67 -53z" />
    <glyph glyph-name="idieresis" unicode="&#xef;" horiz-adv-x="376" 
d="M250 836h82l-103 -836h-82zM403 1071q0 30 25 55t59 25q35 0 50 -21q16 -20 16 -45q0 -32 -23 -55q-24 -26 -61 -26q-27 0 -45 18q-21 21 -21 49zM63 1071q0 30 25 55t59 25q35 0 50 -21q16 -20 16 -45q0 -32 -23 -55q-24 -26 -61 -26q-27 0 -45 18q-21 21 -21 49z" />
    <glyph glyph-name="eth" unicode="&#xf0;" horiz-adv-x="1071" 
d="M379 1303l20 75q129 -16 224 -59q96 -41 170 -107l303 97l22 -68l-270 -86q84 -88 131 -209q55 -146 55 -332q0 -359 -172 -520q-125 -117 -313 -117q-180 0 -287 107q-115 107 -115 301q0 114 41 214.5t109 168.5q127 127 317 127q111 0 199 -49q75 -42 119 -111h4
q-11 119 -59 221q-51 104 -123 168l-371 -116l-16 75l325 97q-59 49 -149 84q-76 30 -164 39zM942 487q0 76 -27.5 140t-72.5 108q-82 82 -232 82q-152 0 -254 -102q-123 -119 -123 -320q0 -155 95 -250q86 -90 233 -90q146 0 248 99q61 61 97 153t36 180z" />
    <glyph glyph-name="ntilde" unicode="&#xf1;" horiz-adv-x="905" 
d="M147 0l103 836h82l-17 -131q40 71 97 104q67 45 166 45q122 0 188 -66q63 -63 63 -165q0 -24 -6 -81.5t-6 -66.5l-59 -475h-82l59 487q10 95 10 111q0 82 -45 127q-47 51 -141 51q-104 0 -172 -65q-45 -42 -68 -107.5t-36 -169.5l-54 -434h-82zM369 997l-50 39
q25 45 56 76q25 22 47 31.5t55 9.5q41 0 101 -27l49 -22q41 -23 80 -23q36 0 61 25q11 11 35 51l47 -41q-18 -40 -66 -84q-37 -33 -92 -33q-46 0 -94 25l-49 23q-46 24 -88 24q-33 0 -58 -22q-20 -20 -34 -52z" />
    <glyph glyph-name="ograve" unicode="&#xf2;" horiz-adv-x="1073" 
d="M614 854q89 0 173 -31t139 -86q104 -104 104 -288q0 -219 -137 -349q-133 -123 -342 -123q-185 0 -295 115q-111 114 -111 291q0 99 37 191t103 155q64 61 151 93t178 32zM563 55q155 0 258 95q123 115 123 290q0 20 -2 39.5t-4.5 35.5t-8 32.5t-9.5 28t-11.5 25
t-11.5 21t-12 19t-11 15t-10 12.5l-8 10q-91 98 -250 98q-146 0 -254 -94q-58 -53 -89.5 -129.5t-31.5 -157.5q0 -72 25.5 -137.5t69.5 -110.5q88 -92 237 -92zM715 983l-211 240l65 53l191 -256z" />
    <glyph glyph-name="oacute" unicode="&#xf3;" horiz-adv-x="1073" 
d="M614 854q89 0 173 -31t139 -86q104 -104 104 -288q0 -219 -137 -349q-133 -123 -342 -123q-185 0 -295 115q-111 114 -111 291q0 99 37 191t103 155q64 61 151 93t178 32zM563 55q155 0 258 95q123 115 123 290q0 20 -2 39.5t-4.5 35.5t-8 32.5t-9.5 28t-11.5 25
t-11.5 21t-12 19t-11 15t-10 12.5l-8 10q-91 98 -250 98q-146 0 -254 -94q-58 -53 -89.5 -129.5t-31.5 -157.5q0 -72 25.5 -137.5t69.5 -110.5q88 -92 237 -92zM918 1223l-267 -240l-41 43l242 250z" />
    <glyph glyph-name="ocircumflex" unicode="&#xf4;" horiz-adv-x="1073" 
d="M614 854q89 0 173 -31t139 -86q104 -104 104 -288q0 -219 -137 -349q-133 -123 -342 -123q-185 0 -295 115q-111 114 -111 291q0 99 37 191t103 155q64 61 151 93t178 32zM563 55q155 0 258 95q123 115 123 290q0 20 -2 39.5t-4.5 35.5t-8 32.5t-9.5 28t-11.5 25
t-11.5 21t-12 19t-11 15t-10 12.5l-8 10q-91 98 -250 98q-146 0 -254 -94q-58 -53 -89.5 -129.5t-31.5 -157.5q0 -72 25.5 -137.5t69.5 -110.5q88 -92 237 -92zM698 1167l-237 -184l-45 51l293 232l225 -232l-53 -51z" />
    <glyph glyph-name="otilde" unicode="&#xf5;" horiz-adv-x="1073" 
d="M614 854q89 0 173 -31t139 -86q104 -104 104 -288q0 -219 -137 -349q-133 -123 -342 -123q-185 0 -295 115q-111 114 -111 291q0 99 37 191t103 155q64 61 151 93t178 32zM563 55q155 0 258 95q123 115 123 290q0 20 -2 39.5t-4.5 35.5t-8 32.5t-9.5 28t-11.5 25
t-11.5 21t-12 19t-11 15t-10 12.5l-8 10q-91 98 -250 98q-146 0 -254 -94q-58 -53 -89.5 -129.5t-31.5 -157.5q0 -72 25.5 -137.5t69.5 -110.5q88 -92 237 -92zM492 1014l-46 39q26 50 58 75q45 39 98 39q25 0 47.5 -7.5t51.5 -23t32 -16.5q9 -4 24.5 -12t24 -12t22 -7.5
t25.5 -3.5q27 0 62 35q35 45 35 51l43 -41q-18 -40 -64 -79q-43 -35 -96 -35q-19 0 -37.5 5t-27.5 9.5t-42 20.5q-12 6 -30.5 16.5t-28.5 15.5t-25 9t-32 4q-9 0 -16.5 -1.5t-15.5 -6t-10.5 -6t-11.5 -10.5l-10 -9q-20 -21 -30 -49z" />
    <glyph glyph-name="odieresis" unicode="&#xf6;" horiz-adv-x="1073" 
d="M614 854q89 0 173 -31t139 -86q104 -104 104 -288q0 -219 -137 -349q-133 -123 -342 -123q-185 0 -295 115q-111 114 -111 291q0 99 37 191t103 155q64 61 151 93t178 32zM563 55q155 0 258 95q123 115 123 290q0 20 -2 39.5t-4.5 35.5t-8 32.5t-9.5 28t-11.5 25
t-11.5 21t-12 19t-11 15t-10 12.5l-8 10q-91 98 -250 98q-146 0 -254 -94q-58 -53 -89.5 -129.5t-31.5 -157.5q0 -72 25.5 -137.5t69.5 -110.5q88 -92 237 -92zM739 1071q0 30 25 55t59 25t49 -21q17 -21 17 -45q0 -32 -23 -55q-24 -26 -61 -26q-27 0 -45 18q-21 21 -21 49z
M399 1071q0 30 25 55t59 25t49 -21q17 -21 17 -45q0 -32 -23 -55q-24 -26 -61 -26q-27 0 -45 18q-21 21 -21 49z" />
    <glyph glyph-name="divide" unicode="&#xf7;" 
d="M518 1061q0 29 21.5 50.5t50.5 21.5t50.5 -21.5t21.5 -50.5t-21.5 -50.5t-50.5 -21.5t-50.5 21.5t-21.5 50.5zM518 287q0 29 21.5 50t50.5 21t50.5 -21t21.5 -50t-21.5 -50.5t-50.5 -21.5t-50.5 21.5t-21.5 50.5zM145 635v78h889v-78h-889z" />
    <glyph glyph-name="oslash" unicode="&#xf8;" horiz-adv-x="1073" 
d="M606 854q68 0 129 -17.5t94 -36.5t72 -48l127 114l45 -51l-127 -113q76 -112 76 -253q0 -216 -137 -349q-129 -123 -342 -123q-92 0 -159.5 26t-129.5 83l-123 -109l-45 50l125 110q-74 119 -74 246q0 100 36.5 192.5t102.5 153.5q59 57 144 91t186 34zM555 55
q155 0 258 95q123 115 123 290q0 108 -59 201l-558 -496q97 -90 236 -90zM279 199l555 493q-98 84 -236 84q-146 0 -254 -94q-58 -53 -89.5 -129.5t-31.5 -157.5q0 -98 56 -196z" />
    <glyph glyph-name="ugrave" unicode="&#xf9;" horiz-adv-x="894" 
d="M248 836h82l-62 -504q-24 -162 51 -228q58 -49 144 -49q104 0 170 66q58 66 74 211l61 504h82l-70 -527q-19 -121 -39 -168q-17 -43 -45 -75q-80 -89 -237 -89q-133 0 -209 76q-91 98 -64 275zM610 983l-211 240l66 53l190 -256z" />
    <glyph glyph-name="uacute" unicode="&#xfa;" horiz-adv-x="894" 
d="M248 836h82l-62 -504q-24 -162 51 -228q58 -49 144 -49q104 0 170 66q58 66 74 211l61 504h82l-70 -527q-19 -121 -39 -168q-17 -43 -45 -75q-80 -89 -237 -89q-133 0 -209 76q-91 98 -64 275zM823 1223l-266 -240l-41 43l242 250z" />
    <glyph glyph-name="ucircumflex" unicode="&#xfb;" horiz-adv-x="894" 
d="M248 836h82l-62 -504q-24 -162 51 -228q58 -49 144 -49q104 0 170 66q58 66 74 211l61 504h82l-70 -527q-19 -121 -39 -168q-17 -43 -45 -75q-80 -89 -237 -89q-133 0 -209 76q-91 98 -64 275zM584 1096l-203 -140l-59 52l274 192l225 -192l-71 -52z" />
    <glyph glyph-name="udieresis" unicode="&#xfc;" horiz-adv-x="894" 
d="M248 836h82l-62 -504q-24 -162 51 -228q58 -49 144 -49q104 0 170 66q58 66 74 211l61 504h82l-70 -527q-19 -121 -39 -168q-17 -43 -45 -75q-80 -89 -237 -89q-133 0 -209 76q-91 98 -64 275zM676 1071q0 31 24 55q25 25 60 25q34 0 49 -21q16 -20 16 -45q0 -33 -22 -55
q-24 -26 -62 -26q-27 0 -45 18q-20 20 -20 49zM336 1071q0 31 24 55q25 25 60 25q34 0 49 -21q16 -20 16 -45q0 -33 -22 -55q-24 -26 -62 -26q-27 0 -45 18q-20 20 -20 49z" />
    <glyph glyph-name="yacute" unicode="&#xfd;" horiz-adv-x="876" 
d="M160 -471l252 457l-293 850h90l260 -744l395 744h99l-709 -1307h-94zM819 1223l-266 -240l-41 43l242 250z" />
    <glyph glyph-name="thorn" unicode="&#xfe;" horiz-adv-x="1060" 
d="M248 150l-76 -621h-82l244 1964h82l-103 -803q43 68 125 113q86 51 209 51q169 0 271 -102q100 -104 100 -279q0 -237 -141 -375q-121 -121 -304 -121q-118 0 -215 60q-66 43 -110 113zM571 55q146 0 240 82q55 51 88 135.5t33 186.5q0 147 -92 239q-78 78 -201 78
q-150 0 -250 -100q-53 -53 -84 -132t-31 -173q0 -145 93 -238q81 -78 204 -78z" />
    <glyph glyph-name="ydieresis" unicode="&#xff;" horiz-adv-x="876" 
d="M160 -471l252 457l-293 850h90l260 -744l395 744h99l-709 -1307h-94zM666 1071q0 31 24 55q25 25 60 25q34 0 49 -21q16 -20 16 -45q0 -33 -22 -55q-24 -26 -62 -26q-27 0 -45 18q-20 20 -20 49zM326 1071q0 31 24 55q25 25 60 25q34 0 49 -21q16 -20 16 -45
q0 -33 -22 -55q-24 -26 -62 -26q-27 0 -45 18q-20 20 -20 49z" />
    <glyph glyph-name="Abreve" unicode="&#x102;" horiz-adv-x="1200" 
d="M1077 0l-127 449h-581l-238 -449h-102l747 1407l395 -1407h-94zM412 530h516l-176 648zM575 1679h74q-5 -65 29 -99.5t121 -35.5q72 -1 122 34.5t74 100.5h74q-24 -78 -84 -131q-82 -78 -203 -75q-118 2 -176 75q-36 47 -31 131z" />
    <glyph glyph-name="abreve" unicode="&#x103;" horiz-adv-x="1060" 
d="M913 672l21 164h82l-103 -836h-82l17 129q-51 -72 -123 -109q-84 -43 -193 -43q-161 0 -266 97q-121 121 -121 303q0 107 36 201.5t106 160.5q123 115 309 115q122 0 203 -55q72 -49 114 -127zM580 776q-144 0 -236 -92q-52 -52 -82.5 -132t-30.5 -169q0 -76 26.5 -141
t70.5 -109q85 -78 213 -78q113 0 198 62q44 31 75.5 75.5t47 92t22.5 88.5t7 80q0 153 -86 239q-75 84 -225 84zM522 1190h74q-5 -65 28.5 -99.5t120.5 -35.5q72 -1 122.5 34.5t74.5 100.5h74q-24 -78 -84 -131q-83 -79 -203 -76q-117 2 -176 76q-36 47 -31 131z" />
    <glyph glyph-name="Dcroat" unicode="&#x110;" horiz-adv-x="1269" 
d="M453 0h-179h-92l88 707h-184l10 81h185l69 578h252q330 0 498 -190q141 -155 141 -426q0 -63 -8.5 -125.5t-28.5 -137.5t-62 -148.5t-102 -133.5q-205 -205 -587 -205zM430 1284l-59 -496h278l-10 -81h-279l-77 -625h178q311 0 497 178q61 59 103 135t59 150t23 122.5
t6 92.5q0 220 -133 364q-155 160 -428 160h-158z" />
    <glyph glyph-name="dcroat" unicode="&#x111;" horiz-adv-x="1062" 
d="M915 668l60 483h-240l10 78h240l33 264h82l-33 -264h158l-11 -78h-157l-142 -1151h-81l14 119q-14 -19 -49 -50.5t-82 -54.5q-75 -37 -174 -37q-95 0 -165.5 25.5t-125.5 85.5q-107 115 -107 301q0 212 138 346q122 119 303 119q121 0 213 -57q76 -48 116 -129zM582 776
q-133 0 -228 -92q-55 -52 -86.5 -130t-31.5 -165q0 -152 92 -248q80 -86 215 -86q145 0 237 92q56 56 84.5 139.5t28.5 162.5q0 154 -92 243q-84 84 -219 84z" />
    <glyph glyph-name="Itilde" unicode="&#x128;" horiz-adv-x="458" 
d="M203 1491l-45 39q27 53 57 76q45 39 98 39q25 0 48 -8t51 -23t32 -17q7 -3 24 -11.5t25.5 -12t22 -7t25.5 -3.5q27 0 61 34q35 45 35 52l43 -41q-19 -41 -64 -80q-43 -35 -96 -35q-7 0 -14 0.5t-12 1.5t-12.5 3.5t-11 3.5t-13 5t-12.5 5.5l-15 7.5l-16 8
q-12 6 -30.5 16.5t-28.5 15.5t-25.5 9t-32.5 4q-9 0 -16.5 -1.5t-15.5 -6t-10.5 -6t-12.5 -10.5l-9 -9q-21 -21 -30 -49zM352 1366h90l-168 -1366h-90z" />
    <glyph glyph-name="itilde" unicode="&#x129;" horiz-adv-x="376" 
d="M250 836h82l-103 -836h-82zM102 1014l-45 39q26 50 58 75q45 39 98 39q25 0 47.5 -7.5t51.5 -23t32 -16.5q9 -4 24.5 -12t24 -12t22 -7.5t25.5 -3.5q27 0 62 35q35 45 35 51l43 -41q-18 -40 -64 -79q-43 -35 -96 -35q-19 0 -37.5 5t-27.5 9.5t-42 20.5q-12 6 -30.5 16.5
t-28.5 15.5t-25 9t-32 4q-9 0 -16.5 -1.5t-15.5 -6t-10.5 -6t-12.5 -10.5l-9 -9q-22 -22 -31 -49z" />
    <glyph glyph-name="OE" unicode="&#x152;" horiz-adv-x="2201" 
d="M2259 1366l-10 -82h-563l-62 -496h549l-10 -81h-549l-76 -625h563l-10 -82h-653l39 317q-116 -166 -263 -251q-151 -89 -354 -89q-298 0 -479 181q-91 91 -139.5 214t-48.5 259q0 148 57 293t166 254q106 106 237 156t303 50q225 0 390 -106q151 -105 217 -268l43 356
h653zM946 1303q-286 0 -469 -183q-94 -96 -142 -220t-48 -257q0 -114 41 -227t118 -195q162 -162 416 -162q268 0 453 177q100 97 156.5 232t56.5 280q0 123 -46.5 230t-119.5 177q-156 148 -416 148z" />
    <glyph glyph-name="oe" unicode="&#x153;" horiz-adv-x="1787" 
d="M1741 412h-715q-11 -76 9.5 -152.5t68.5 -124.5q76 -80 209 -80q120 0 198 62q30 22 57.5 53t40 49.5t17.5 28.5l62 -41q-32 -49 -78 -97.5t-86 -74.5q-85 -58 -219 -58q-74 0 -138 24.5t-108 66.5q-7 6 -21.5 21.5t-38 54t-38.5 81.5q-65 -113 -175 -180
q-112 -68 -249 -68q-171 0 -275 107q-56 59 -86.5 135t-30.5 152q0 97 36 190t110 164q132 129 336 129q154 0 254 -80q79 -61 120 -166q48 105 140 170q105 76 235 76q163 0 262 -92q59 -57 87.5 -150t15.5 -200zM1042 489h617q-2 62 -26 123.5t-64 98.5q-72 65 -187 65
q-137 0 -231 -94q-81 -87 -109 -193zM621 776q-167 0 -271 -104q-54 -54 -85.5 -132t-31.5 -157q0 -71 26 -135t69 -107q86 -86 219 -86q156 0 274 111q123 123 123 299q0 61 -25 123.5t-67 103.5q-84 84 -231 84z" />
    <glyph glyph-name="Scaron" unicode="&#x160;" horiz-adv-x="1052" 
d="M1018 1190l-72 -55q-20 57 -56.5 94.5t-78 51.5t-64.5 18t-45 4q-128 0 -210 -82q-80 -80 -80 -193q0 -86 57 -143q17 -17 39 -33.5t35 -24t47 -26t43 -23.5l67 -37q16 -9 58 -31.5t60 -33t45 -30t46 -38.5q82 -82 82 -207q0 -181 -127 -305q-75 -71 -156.5 -95
t-183.5 -24q-85 0 -151 22t-123 79q-76 76 -107 192l82 37q0 -1 5 -16.5t10.5 -30t15.5 -35t25 -42t34 -40.5q84 -84 213 -84q77 0 149.5 23t121.5 68q94 89 94 237q0 100 -66 166q-18 18 -44 36t-44 28t-52 28t-44 23l-94 51q-96 51 -154 112q-78 81 -78 193q0 145 105 250
q110 110 285 110q105 0 188.5 -48t122.5 -146zM731 1587l213 131l64 -55l-289 -184l-244 184l76 55z" />
    <glyph glyph-name="scaron" unicode="&#x161;" horiz-adv-x="700" 
d="M678 719l-74 -37q-15 45 -47 68q-8 8 -32 17t-60 9q-72 0 -117 -45q-37 -37 -37 -92q0 -44 33 -80q26 -26 86 -51l64 -27q83 -34 122 -73q56 -56 56 -148q0 -120 -74 -194q-81 -89 -229 -89q-121 0 -193 72q-57 57 -74 150l82 24q10 -71 56 -117q51 -51 131 -51
q93 0 153 54q60 60 60 141q0 61 -39 100q-29 29 -101 60l-49 20q-77 32 -121 76q-49 49 -49 121q0 91 62 153q74 74 184 74q79 0 135 -37q54 -36 72 -98zM502 1059l203 139l59 -53l-275 -193l-225 193l72 53z" />
    <glyph glyph-name="Utilde" unicode="&#x168;" horiz-adv-x="1296" 
d="M350 1366h90l-104 -854q-7 -48 -9.5 -74t-3 -73.5t7 -79.5t27 -70.5t50.5 -67.5q93 -88 254 -88q189 0 296 107q43 43 70.5 105t37 111t19.5 130l105 854h90l-104 -854q-18 -142 -36 -201q-38 -125 -124 -207q-78 -76 -164.5 -101.5t-192.5 -25.5q-212 0 -325 113
q-52 52 -76.5 121.5t-23 142.5t11.5 158zM612 1491l-45 39q27 52 58 76q45 39 98 39q25 0 48 -8t51 -23t32 -17q8 -3 24.5 -11.5t24.5 -12t21.5 -7t25.5 -3.5q28 0 62 34q35 45 35 52l43 -41q-19 -41 -64 -80q-43 -35 -96 -35q-19 0 -37.5 5t-27.5 9.5t-42 20.5
q-12 6 -30.5 16.5t-28.5 15.5t-25 9t-32 4q-9 0 -16.5 -1.5t-15.5 -6t-10.5 -6t-12.5 -10.5l-9 -9q-22 -22 -31 -49z" />
    <glyph glyph-name="utilde" unicode="&#x169;" horiz-adv-x="894" 
d="M248 836h82l-62 -504q-24 -162 51 -228q58 -49 144 -49q104 0 170 66q58 66 74 211l61 504h82l-70 -527q-19 -121 -39 -168q-17 -43 -45 -75q-80 -89 -237 -89q-133 0 -209 76q-91 98 -64 275zM358 1014l-45 39q26 50 58 75q45 39 98 39q25 0 47.5 -7.5t51.5 -23
t32 -16.5q9 -4 24.5 -12t24 -12t22 -7.5t25.5 -3.5q27 0 62 35q35 45 35 51l43 -41q-18 -40 -64 -79q-43 -35 -96 -35q-19 0 -37.5 5t-27.5 9.5t-42 20.5q-12 6 -30.5 16.5t-28.5 15.5t-25 9t-32 4q-9 0 -16.5 -1.5t-15.5 -6t-10.5 -6t-12.5 -10.5l-9 -9q-22 -22 -31 -49z
" />
    <glyph glyph-name="Ydieresis" unicode="&#x178;" horiz-adv-x="1056" 
d="M477 0l72 584l-352 782h98l309 -690l486 690h106l-557 -782l-72 -584h-90zM838 1587q0 38 26 64q24 24 58 24q33 0 53 -20q18 -21 18 -49q0 -36 -26 -62q-24 -24 -64 -24q-29 0 -47 18q-18 16 -18 49zM457 1587q0 38 26 64q24 24 58 24q33 0 53 -20q18 -21 18 -49
q0 -36 -26 -62q-24 -24 -64 -24q-29 0 -47 18q-18 16 -18 49z" />
    <glyph glyph-name="Zcaron" unicode="&#x17d;" horiz-adv-x="1134" 
d="M1227 1366l-989 -1284h809l-11 -82h-960l989 1284h-752l11 82h903zM788 1587l213 131l64 -55l-289 -184l-244 184l76 55z" />
    <glyph glyph-name="zcaron" unicode="&#x17e;" horiz-adv-x="925" 
d="M991 836l-768 -758h672l-10 -78h-848l776 758h-577l10 78h745zM621 1059l202 139l60 -53l-275 -193l-225 193l72 53z" />
    <glyph glyph-name="florin" unicode="&#x192;" horiz-adv-x="1122" 
d="M389 758l21 78h127l127 481q23 97 77 147q58 52 146 52q62 0 117 -29l-23 -74q-42 25 -92 25q-64 0 -103 -37q-28 -26 -43 -84l-125 -481h207l-20 -78h-207l-211 -813q-42 -163 -104 -217q-60 -56 -158 -56q-64 0 -135 29l22 76q55 -27 113 -27q63 0 102 35q34 31 76 172
l213 801h-127z" />
    <glyph glyph-name="Ohorn" unicode="&#x1a0;" horiz-adv-x="1648" 
d="M981 1384q93 0 186 -22q85 -6 143.5 -3.5t88.5 7.5q34 4 41 14q26 18 30 82l7 56h69l-4 -54q-10 -84 -44 -121t-103 -45q-28 -4 -66 -4q60 -39 125 -98q168 -171 168 -440q0 -342 -229 -568q-117 -115 -250.5 -163t-296.5 -48q-142 0 -254 39.5t-211 135.5
q-46 42 -84 97.5t-70 152t-32 204.5q0 146 59 291.5t174 263.5q223 223 553 223zM834 59q298 0 491 189q98 98 151.5 233.5t53.5 270.5q0 237 -156 393q-72 72 -174.5 115t-226.5 43q-284 0 -475 -191q-105 -102 -157 -232.5t-52 -265.5q0 -231 149 -391q156 -164 396 -164z
" />
    <glyph glyph-name="ohorn" unicode="&#x1a1;" horiz-adv-x="1073" 
d="M614 854q49 0 117 -14q119 -15 164 -4q34 4 41 14q27 19 31 82h1v2v2t0.5 3t0.5 4.5t0.5 7t1 9.5t1 12t1.5 15h69l-4 -53q-10 -84 -44.5 -122.5t-102.5 -43.5q14 -10 35 -31q104 -104 104 -288q0 -219 -137 -349q-133 -123 -342 -123q-185 0 -295 115q-111 114 -111 291
q0 99 37 191t103 155q64 61 151 93t178 32zM563 55q155 0 258 95q123 115 123 290q0 20 -2 39.5t-4.5 35.5t-8 32.5t-9.5 28t-11.5 25t-11.5 21t-12 19t-11 15t-10 12.5l-8 10q-91 98 -250 98q-146 0 -254 -94q-58 -53 -89.5 -129.5t-31.5 -157.5q0 -72 25.5 -137.5
t69.5 -110.5q88 -92 237 -92z" />
    <glyph glyph-name="Uhorn" unicode="&#x1af;" horiz-adv-x="1296" 
d="M350 1366h90l-104 -854q-7 -48 -9.5 -74t-3 -73.5t7 -79.5t27 -70.5t50.5 -67.5q93 -88 254 -88q189 0 296 107q43 43 70.5 105t37 111t19.5 130l105 854h84h2q34 4 41 14q27 19 31 82q1 1 1 2v2t0.5 3.5t0.5 5t0.5 7t1 9.5t1 12t1.5 15h69l-4 -54q-10 -84 -44.5 -122.5
t-102.5 -43.5l-96 -786q-18 -142 -36 -201q-38 -125 -124 -207q-78 -76 -164.5 -101.5t-192.5 -25.5q-212 0 -325 113q-52 52 -76.5 121.5t-23 142.5t11.5 158z" />
    <glyph glyph-name="uhorn" unicode="&#x1b0;" horiz-adv-x="894" 
d="M248 836h82l-62 -504q-24 -162 51 -228q58 -49 144 -49q104 0 170 66q58 66 74 211l61 504h82q32 5 39 14q27 19 31 82q1 1 1 2v2t0.5 3t0.5 4.5t0.5 7t1 9.5t1 12t1.5 15h69l-4 -53q-10 -84 -44.5 -122.5t-102.5 -43.5h-4l-60 -459q-19 -121 -39 -168q-17 -43 -45 -75
q-80 -89 -237 -89q-133 0 -209 76q-91 98 -64 275z" />
    <glyph glyph-name="afii57929" unicode="&#x2bc;" 
d="M524 1069l140 324l86 -33l-172 -316z" />
    <glyph glyph-name="circumflex" unicode="&#x2c6;" 
d="M647 1096l-203 -140l-59 52l274 192l226 -192l-72 -52z" />
    <glyph glyph-name="caron" unicode="&#x2c7;" 
d="M641 1059l203 139l59 -53l-274 -193l-226 193l72 53z" />
    <glyph glyph-name="uni02C9" unicode="&#x2c9;" 
d="M360 1010l9 80h553l-9 -80h-553z" />
    <glyph glyph-name="breve" unicode="&#x2d8;" 
d="M399 1174h78q0 -1 2.5 -10t3.5 -12t3.5 -11t5.5 -13t8 -12t11.5 -12.5t14.5 -11.5q42 -33 121 -33q74 0 125 33q47 30 62 82h77q-19 -73 -69 -119q-82 -74 -199 -74q-107 0 -176 57q-61 56 -68 136z" />
    <glyph glyph-name="dotaccent" unicode="&#x2d9;" 
d="M563 1069q0 37 27 64q26 26 63 26q31 0 52 -18q20 -14 20 -51t-29 -66q-25 -25 -61 -25q-29 0 -51 19q-21 21 -21 51z" />
    <glyph glyph-name="ring" unicode="&#x2da;" 
d="M489 1108q0 69 52 121q53 53 127 53q60 0 102 -39q39 -37 39 -100q0 -71 -49 -127q-49 -49 -127 -49q-64 0 -103 39q-41 41 -41 102zM565 1112q0 -30 19 -49q20 -23 57 -23q41 0 68 27q24 24 24 66q0 35 -18 53q-19 22 -58 22q-32 0 -63 -24q-29 -29 -29 -72z" />
    <glyph glyph-name="ogonek" unicode="&#x2db;" 
d="M698 -281l-26 -73q-50 -17 -94 -17q-77 0 -128 41t-51 107q0 41 21.5 84t54.5 76q39 39 86 63h82q-8 -6 -23.5 -16.5t-24.5 -17.5t-22 -18t-22 -22q-72 -72 -72 -141q0 -34 23 -57q27 -27 88 -27q46 0 108 18z" />
    <glyph glyph-name="tilde" unicode="&#x2dc;" 
d="M428 997l-49 39q27 48 55 76q47 41 103 41q40 0 100 -27l49 -22q41 -23 80 -23q36 0 61 25q11 11 35 51l47 -41q-19 -41 -65 -84q-37 -33 -92 -33q-47 0 -95 25l-49 23q-46 24 -88 24q-32 0 -57 -22q-21 -21 -35 -52z" />
    <glyph glyph-name="hungarumlaut" unicode="&#x2dd;" 
d="M666 1270l79 -51l-235 -263l-51 33zM893 1270l80 -51l-236 -263l-51 33z" />
    <glyph glyph-name="acutecomb" unicode="&#x301;" horiz-adv-x="4" 
d="M-248 1270l82 -51l-248 -263l-57 33z" />
    <glyph glyph-name="uni1EA0" unicode="&#x1ea0;" horiz-adv-x="1200" 
d="M545 -311q-32 0 -51 20t-15 51q0 34 21 54t53 20q30 0 49 -20t19 -54q-4 -32 -25.5 -51.5t-50.5 -19.5zM1077 0l-127 449h-581l-238 -449h-102l747 1407l395 -1407h-94zM412 530h516l-176 648z" />
    <glyph glyph-name="uni1EA1" unicode="&#x1ea1;" horiz-adv-x="1060" 
d="M498 -311q-32 0 -51 20t-15 51q0 34 21 54t53 20q30 0 48.5 -19.5t18.5 -54.5q-4 -32 -25 -51.5t-50 -19.5zM913 672l21 164h82l-103 -836h-82l17 129q-51 -72 -123 -109q-84 -43 -193 -43q-161 0 -266 97q-121 121 -121 303q0 107 36 201.5t106 160.5q123 115 309 115
q122 0 203 -55q72 -49 114 -127zM580 776q-144 0 -236 -92q-52 -52 -82.5 -132t-30.5 -169q0 -76 26.5 -141t70.5 -109q85 -78 213 -78q113 0 198 62q44 31 75.5 75.5t47 92t22.5 88.5t7 80q0 153 -86 239q-75 84 -225 84z" />
    <glyph glyph-name="uni1EA2" unicode="&#x1ea2;" horiz-adv-x="1200" 
d="M815 1470h-65l20 134q20 -4 45 -0.5t47 10t38 25t20 44.5q5 38 -14.5 58t-67.5 20q-40 0 -67.5 -17t-33.5 -44h-69q5 45 53 85t123 40q82 0 118 -39t25 -107q-18 -117 -162 -135zM1077 0l-127 449h-581l-238 -449h-102l747 1407l395 -1407h-94zM412 530h516l-176 648z
" />
    <glyph glyph-name="uni1EA3" unicode="&#x1ea3;" horiz-adv-x="1060" 
d="M752 983h-66l21 133q20 -4 45 -0.5t46.5 10.5t37.5 25.5t20 44.5q5 38 -14.5 58t-67.5 20q-40 0 -67 -17.5t-33 -44.5h-70q5 45 53 85t123 40q83 0 119 -38.5t25 -106.5q-18 -117 -162 -135zM913 672l21 164h82l-103 -836h-82l17 129q-51 -72 -123 -109q-84 -43 -193 -43
q-161 0 -266 97q-121 121 -121 303q0 107 36 201.5t106 160.5q123 115 309 115q122 0 203 -55q72 -49 114 -127zM580 776q-144 0 -236 -92q-52 -52 -82.5 -132t-30.5 -169q0 -76 26.5 -141t70.5 -109q85 -78 213 -78q113 0 198 62q44 31 75.5 75.5t47 92t22.5 88.5t7 80
q0 153 -86 239q-75 84 -225 84z" />
    <glyph glyph-name="uni1EA4" unicode="&#x1ea4;" horiz-adv-x="1200" 
d="M1292 1933l-266 -239l-41 43l242 250zM1077 0l-127 449h-581l-238 -449h-102l747 1407l395 -1407h-94zM412 530h516l-176 648zM807 1655l-238 -185l-45 52l293 231l225 -231l-53 -52z" />
    <glyph glyph-name="uni1EA5" unicode="&#x1ea5;" horiz-adv-x="1060" 
d="M1214 1446l-266 -240l-41 43l242 250zM913 672l21 164h82l-103 -836h-82l17 129q-51 -72 -123 -109q-84 -43 -193 -43q-161 0 -266 97q-121 121 -121 303q0 107 36 201.5t106 160.5q123 115 309 115q122 0 203 -55q72 -49 114 -127zM580 776q-144 0 -236 -92
q-52 -52 -82.5 -132t-30.5 -169q0 -76 26.5 -141t70.5 -109q85 -78 213 -78q113 0 198 62q44 31 75.5 75.5t47 92t22.5 88.5t7 80q0 153 -86 239q-75 84 -225 84zM729 1167l-237 -184l-46 51l293 232l226 -232l-54 -51z" />
    <glyph glyph-name="uni1EA6" unicode="&#x1ea6;" horiz-adv-x="1200" 
d="M1053 1694l-211 239l65 54l191 -256zM1077 0l-127 449h-581l-238 -449h-102l747 1407l395 -1407h-94zM412 530h516l-176 648zM807 1655l-238 -185l-45 52l293 231l225 -231l-53 -52z" />
    <glyph glyph-name="uni1EA7" unicode="&#x1ea7;" horiz-adv-x="1060" 
d="M975 1206l-211 240l65 53l191 -256zM913 672l21 164h82l-103 -836h-82l17 129q-51 -72 -123 -109q-84 -43 -193 -43q-161 0 -266 97q-121 121 -121 303q0 107 36 201.5t106 160.5q123 115 309 115q122 0 203 -55q72 -49 114 -127zM580 776q-144 0 -236 -92
q-52 -52 -82.5 -132t-30.5 -169q0 -76 26.5 -141t70.5 -109q85 -78 213 -78q113 0 198 62q44 31 75.5 75.5t47 92t22.5 88.5t7 80q0 153 -86 239q-75 84 -225 84zM729 1167l-237 -184l-46 51l293 232l226 -232l-54 -51z" />
    <glyph glyph-name="uni1EA8" unicode="&#x1ea8;" horiz-adv-x="1200" 
d="M1049 1694h-66l21 133q20 -4 45 -0.5t46.5 10.5t37.5 25.5t20 44.5q5 38 -14.5 58t-67.5 20q-40 0 -67 -17.5t-33 -44.5h-70q5 45 53 85t123 40q83 0 119 -38.5t25 -106.5q-6 -37 -25 -64.5t-45.5 -41.5t-48 -20.5t-43.5 -9.5zM1077 0l-127 449h-581l-238 -449h-102
l747 1407l395 -1407h-94zM412 530h516l-176 648zM807 1655l-238 -185l-45 52l293 231l225 -231l-53 -52z" />
    <glyph glyph-name="uni1EA9" unicode="&#x1ea9;" horiz-adv-x="1060" 
d="M971 1206h-66l21 133q20 -4 45 -0.5t46.5 10.5t37.5 25.5t20 44.5q5 38 -14.5 58t-67.5 20q-40 0 -67 -17t-33 -44h-70q5 45 53 85t123 40q83 0 119 -39t25 -107q-18 -117 -162 -135zM913 672l21 164h82l-103 -836h-82l17 129q-51 -72 -123 -109q-84 -43 -193 -43
q-161 0 -266 97q-121 121 -121 303q0 107 36 201.5t106 160.5q123 115 309 115q122 0 203 -55q72 -49 114 -127zM580 776q-144 0 -236 -92q-52 -52 -82.5 -132t-30.5 -169q0 -76 26.5 -141t70.5 -109q85 -78 213 -78q113 0 198 62q44 31 75.5 75.5t47 92t22.5 88.5t7 80
q0 153 -86 239q-75 84 -225 84zM729 1167l-237 -184l-46 51l293 232l226 -232l-54 -51z" />
    <glyph glyph-name="uni1EAA" unicode="&#x1eaa;" horiz-adv-x="1200" 
d="M610 1825l-45 39q26 50 58 75q45 39 98 39q25 0 47.5 -7.5t51.5 -23t32 -16.5q9 -4 24.5 -12t24 -12t22 -7.5t25.5 -3.5q27 0 62 35q34 43 34 51l43 -40q-19 -43 -63 -80q-43 -35 -96 -35q-19 0 -37.5 5t-27.5 9.5t-42 20.5q-12 6 -30.5 16.5t-28.5 15.5t-25 9t-32 4
q-9 0 -16.5 -1.5t-15.5 -6t-10.5 -6t-12.5 -10.5l-9 -9q-22 -22 -31 -49zM1077 0l-127 449h-581l-238 -449h-102l747 1407l395 -1407h-94zM412 530h516l-176 648zM807 1655l-238 -185l-45 52l293 231l225 -231l-53 -52z" />
    <glyph glyph-name="uni1EAB" unicode="&#x1eab;" horiz-adv-x="1060" 
d="M532 1337l-45 39q27 52 58 76q45 39 98 39q25 0 47.5 -7.5t51.5 -23t32 -16.5q9 -4 24.5 -12t24 -12t22 -7.5t25.5 -3.5q27 0 62 35q35 45 35 51l43 -41q-19 -41 -64 -80q-43 -35 -96 -35q-19 0 -37.5 5t-27.5 9.5t-42 20.5q-12 6 -30.5 16.5t-28.5 15.5t-25 9t-32 4
q-9 0 -16.5 -1.5t-15.5 -6t-10.5 -6t-12.5 -10.5l-9 -9q-22 -22 -31 -49zM913 672l21 164h82l-103 -836h-82l17 129q-51 -72 -123 -109q-84 -43 -193 -43q-161 0 -266 97q-121 121 -121 303q0 107 36 201.5t106 160.5q123 115 309 115q122 0 203 -55q72 -49 114 -127z
M580 776q-144 0 -236 -92q-52 -52 -82.5 -132t-30.5 -169q0 -76 26.5 -141t70.5 -109q85 -78 213 -78q113 0 198 62q44 31 75.5 75.5t47 92t22.5 88.5t7 80q0 153 -86 239q-75 84 -225 84zM729 1167l-237 -184l-46 51l293 232l226 -232l-54 -51z" />
    <glyph glyph-name="uni1EAC" unicode="&#x1eac;" horiz-adv-x="1200" 
d="M545 -311q-32 0 -51 20t-15 51q0 34 21 54t53 20q30 0 49 -20t19 -54q-4 -32 -25.5 -51.5t-50.5 -19.5zM1077 0l-127 449h-581l-238 -449h-102l747 1407l395 -1407h-94zM412 530h516l-176 648zM807 1655l-238 -185l-45 52l293 231l225 -231l-53 -52z" />
    <glyph glyph-name="uni1EAD" unicode="&#x1ead;" horiz-adv-x="1060" 
d="M498 -311q-32 0 -51 20t-15 51q0 34 21 54t53 20q30 0 48.5 -19.5t18.5 -54.5q-4 -32 -25 -51.5t-50 -19.5zM913 672l21 164h82l-103 -836h-82l17 129q-51 -72 -123 -109q-84 -43 -193 -43q-161 0 -266 97q-121 121 -121 303q0 107 36 201.5t106 160.5q123 115 309 115
q122 0 203 -55q72 -49 114 -127zM580 776q-144 0 -236 -92q-52 -52 -82.5 -132t-30.5 -169q0 -76 26.5 -141t70.5 -109q85 -78 213 -78q113 0 198 62q44 31 75.5 75.5t47 92t22.5 88.5t7 80q0 153 -86 239q-75 84 -225 84zM729 1167l-237 -184l-46 51l293 232l226 -232
l-54 -51z" />
    <glyph glyph-name="uni1EAE" unicode="&#x1eae;" horiz-adv-x="1200" 
d="M1079 1980l-266 -239l-41 43l242 250zM1077 0l-127 449h-581l-238 -449h-102l747 1407l395 -1407h-94zM412 530h516l-176 648zM575 1679h74q-5 -65 29 -99.5t121 -35.5q72 -1 122 34.5t74 100.5h74q-24 -78 -84 -131q-82 -78 -203 -75q-118 2 -176 75q-36 47 -31 131z
" />
    <glyph glyph-name="uni1EAF" unicode="&#x1eaf;" horiz-adv-x="1060" 
d="M1026 1491l-266 -240l-41 43l242 250zM913 672l21 164h82l-103 -836h-82l17 129q-51 -72 -123 -109q-84 -43 -193 -43q-161 0 -266 97q-121 121 -121 303q0 107 36 201.5t106 160.5q123 115 309 115q122 0 203 -55q72 -49 114 -127zM580 776q-144 0 -236 -92
q-52 -52 -82.5 -132t-30.5 -169q0 -76 26.5 -141t70.5 -109q85 -78 213 -78q113 0 198 62q44 31 75.5 75.5t47 92t22.5 88.5t7 80q0 153 -86 239q-75 84 -225 84zM522 1190h74q-5 -65 28.5 -99.5t120.5 -35.5q72 -1 122.5 34.5t74.5 100.5h74q-24 -78 -84 -131
q-83 -79 -203 -76q-117 2 -176 76q-36 47 -31 131z" />
    <glyph glyph-name="uni1EB0" unicode="&#x1eb0;" horiz-adv-x="1200" 
d="M844 1741l-211 239l65 54l191 -256zM1077 0l-127 449h-581l-238 -449h-102l747 1407l395 -1407h-94zM412 530h516l-176 648zM575 1679h74q-5 -65 29 -99.5t121 -35.5q72 -1 122 34.5t74 100.5h74q-24 -78 -84 -131q-82 -78 -203 -75q-118 2 -176 75q-36 47 -31 131z" />
    <glyph glyph-name="uni1EB1" unicode="&#x1eb1;" horiz-adv-x="1060" 
d="M791 1251l-211 240l65 53l191 -256zM913 672l21 164h82l-103 -836h-82l17 129q-51 -72 -123 -109q-84 -43 -193 -43q-161 0 -266 97q-121 121 -121 303q0 107 36 201.5t106 160.5q123 115 309 115q122 0 203 -55q72 -49 114 -127zM580 776q-144 0 -236 -92
q-52 -52 -82.5 -132t-30.5 -169q0 -76 26.5 -141t70.5 -109q85 -78 213 -78q113 0 198 62q44 31 75.5 75.5t47 92t22.5 88.5t7 80q0 153 -86 239q-75 84 -225 84zM522 1190h74q-5 -65 28.5 -99.5t120.5 -35.5q72 -1 122.5 34.5t74.5 100.5h74q-24 -78 -84 -131
q-83 -79 -203 -76q-117 2 -176 76q-36 47 -31 131z" />
    <glyph glyph-name="uni1EB2" unicode="&#x1eb2;" horiz-adv-x="1200" 
d="M854 1741h-66l21 133q20 -4 45 -0.5t46.5 10.5t37.5 25.5t20 44.5q10 78 -81 78q-40 0 -67.5 -17.5t-33.5 -44.5h-69q5 45 53 85t123 40q83 0 118.5 -38.5t24.5 -106.5q-18 -117 -162 -135zM1077 0l-127 449h-581l-238 -449h-102l747 1407l395 -1407h-94zM412 530h516
l-176 648zM575 1679h74q-5 -65 29 -99.5t121 -35.5q72 -1 122 34.5t74 100.5h74q-24 -78 -84 -131q-82 -78 -203 -75q-118 2 -176 75q-36 47 -31 131z" />
    <glyph glyph-name="uni1EB3" unicode="&#x1eb3;" horiz-adv-x="1060" 
d="M801 1251h-66l21 133q20 -4 45 -0.5t46.5 10.5t37.5 25.5t20 44.5q5 38 -14.5 58t-67.5 20q-40 0 -67 -17t-33 -44h-70q5 45 53 85t123 40q83 0 119 -39t25 -107q-18 -117 -162 -135zM913 672l21 164h82l-103 -836h-82l17 129q-51 -72 -123 -109q-84 -43 -193 -43
q-161 0 -266 97q-121 121 -121 303q0 107 36 201.5t106 160.5q123 115 309 115q122 0 203 -55q72 -49 114 -127zM580 776q-144 0 -236 -92q-52 -52 -82.5 -132t-30.5 -169q0 -76 26.5 -141t70.5 -109q85 -78 213 -78q113 0 198 62q44 31 75.5 75.5t47 92t22.5 88.5t7 80
q0 153 -86 239q-75 84 -225 84zM522 1190h74q-5 -65 28.5 -99.5t120.5 -35.5q72 -1 122.5 34.5t74.5 100.5h74q-24 -78 -84 -131q-83 -79 -203 -76q-117 2 -176 76q-36 47 -31 131z" />
    <glyph glyph-name="uni1EB4" unicode="&#x1eb4;" horiz-adv-x="1200" 
d="M627 1755l-45 39q27 53 57 76q45 39 98 39q25 0 47.5 -7.5t51.5 -23t32 -16.5l24 -12t25 -12t22.5 -7.5t25.5 -3.5q26 0 61 35q35 45 35 51l43 -41q-19 -41 -64 -80q-43 -35 -96 -35q-7 0 -14 0.5t-12 1.5t-12.5 3.5t-11 3.5t-13 5t-12.5 5.5l-15 7.5l-16 8
q-12 6 -30.5 16.5t-28.5 15.5t-25.5 9t-32.5 4q-9 0 -16.5 -1.5t-15.5 -6t-10.5 -6t-12.5 -10.5l-9 -9q-21 -21 -30 -49zM1077 0l-127 449h-581l-238 -449h-102l747 1407l395 -1407h-94zM412 530h516l-176 648zM575 1679h74q-5 -65 29 -99.5t121 -35.5q72 -1 122 34.5
t74 100.5h74q-24 -78 -84 -131q-82 -78 -203 -75q-118 2 -176 75q-36 47 -31 131z" />
    <glyph glyph-name="uni1EB5" unicode="&#x1eb5;" horiz-adv-x="1060" 
d="M573 1266l-45 39q26 50 58 75q45 39 98 39q25 0 47.5 -7.5t51.5 -23t32 -16.5q9 -4 24.5 -12t24 -12t22 -7.5t25.5 -3.5q27 0 62 35q35 45 35 51l43 -41q-18 -40 -64 -79q-43 -35 -96 -35q-19 0 -37.5 5t-27.5 9.5t-42 20.5q-12 6 -30.5 16.5t-28.5 15.5t-25 9t-32 4
q-9 0 -16.5 -1.5t-15.5 -6t-10.5 -6t-11.5 -10.5l-10 -9q-22 -22 -31 -49zM913 672l21 164h82l-103 -836h-82l17 129q-51 -72 -123 -109q-84 -43 -193 -43q-161 0 -266 97q-121 121 -121 303q0 107 36 201.5t106 160.5q123 115 309 115q122 0 203 -55q72 -49 114 -127z
M580 776q-144 0 -236 -92q-52 -52 -82.5 -132t-30.5 -169q0 -76 26.5 -141t70.5 -109q85 -78 213 -78q113 0 198 62q44 31 75.5 75.5t47 92t22.5 88.5t7 80q0 153 -86 239q-75 84 -225 84zM522 1190h74q-5 -65 28.5 -99.5t120.5 -35.5q72 -1 122.5 34.5t74.5 100.5h74
q-24 -78 -84 -131q-83 -79 -203 -76q-117 2 -176 76q-36 47 -31 131z" />
    <glyph glyph-name="uni1EB6" unicode="&#x1eb6;" horiz-adv-x="1200" 
d="M545 -311q-32 0 -51 20t-15 51q0 34 21 54t53 20q30 0 49 -20t19 -54q-4 -32 -25.5 -51.5t-50.5 -19.5zM1077 0l-127 449h-581l-238 -449h-102l747 1407l395 -1407h-94zM412 530h516l-176 648zM575 1679h74q-5 -65 29 -99.5t121 -35.5q72 -1 122 34.5t74 100.5h74
q-24 -78 -84 -131q-82 -78 -203 -75q-118 2 -176 75q-36 47 -31 131z" />
    <glyph glyph-name="uni1EB7" unicode="&#x1eb7;" horiz-adv-x="1060" 
d="M498 -311q-32 0 -51 20t-15 51q0 34 21 54t53 20q30 0 48.5 -19.5t18.5 -54.5q-4 -32 -25 -51.5t-50 -19.5zM913 672l21 164h82l-103 -836h-82l17 129q-51 -72 -123 -109q-84 -43 -193 -43q-161 0 -266 97q-121 121 -121 303q0 107 36 201.5t106 160.5q123 115 309 115
q122 0 203 -55q72 -49 114 -127zM580 776q-144 0 -236 -92q-52 -52 -82.5 -132t-30.5 -169q0 -76 26.5 -141t70.5 -109q85 -78 213 -78q113 0 198 62q44 31 75.5 75.5t47 92t22.5 88.5t7 80q0 153 -86 239q-75 84 -225 84zM522 1190h74q-5 -65 28.5 -99.5t120.5 -35.5
q72 -1 122.5 34.5t74.5 100.5h74q-24 -78 -84 -131q-83 -79 -203 -76q-117 2 -176 76q-36 47 -31 131z" />
    <glyph glyph-name="uni1EB8" unicode="&#x1eb8;" horiz-adv-x="950" 
d="M473 -311q-32 0 -50.5 19.5t-14.5 51.5q0 34 20.5 54t52.5 20q30 0 49 -20t19 -54q-4 -32 -25.5 -51.5t-50.5 -19.5zM1008 1366l-11 -82h-565l-61 -496h553l-11 -81h-553l-75 -625h565l-10 -82h-570h-86l168 1366h656z" />
    <glyph glyph-name="uni1EB9" unicode="&#x1eb9;" horiz-adv-x="997" 
d="M469 -311q-32 0 -51 20t-15 51q0 34 21 54t53 20q30 0 49 -20t19 -54q-4 -32 -25.5 -51.5t-50.5 -19.5zM948 408h-712q-13 -78 12 -151.5t71 -119.5q82 -82 211 -82q116 0 199 60q68 48 109 131l63 -41q-59 -107 -149 -166q-86 -62 -224 -62q-175 0 -278 111
q-105 114 -105 285q0 220 140 360q121 121 299 121q163 0 262 -96q120 -117 102 -350zM248 485h618q-1 64 -24 120t-60 93q-74 78 -198 78q-145 0 -240 -100q-75 -78 -96 -191z" />
    <glyph glyph-name="uni1EBA" unicode="&#x1eba;" horiz-adv-x="950" 
d="M735 1470h-65l20 134q20 -4 45 -0.5t47 10t38 25t20 44.5q5 38 -14.5 58t-67.5 20q-40 0 -67.5 -17t-33.5 -44h-69q5 45 53 85t123 40q82 0 118 -39t25 -107q-18 -117 -162 -135zM1008 1366l-11 -82h-565l-61 -496h553l-11 -81h-553l-75 -625h565l-10 -82h-570h-86
l168 1366h656z" />
    <glyph glyph-name="uni1EBB" unicode="&#x1ebb;" horiz-adv-x="997" 
d="M672 983h-66l21 133q20 -4 45 -0.5t46.5 10.5t37.5 25.5t20 44.5q5 38 -14.5 58t-67.5 20q-40 0 -67 -17.5t-33 -44.5h-70q5 45 53 85t123 40q83 0 119 -38.5t25 -106.5q-18 -117 -162 -135zM948 408h-712q-13 -78 12 -151.5t71 -119.5q82 -82 211 -82q116 0 199 60
q68 48 109 131l63 -41q-59 -107 -149 -166q-86 -62 -224 -62q-175 0 -278 111q-105 114 -105 285q0 220 140 360q121 121 299 121q163 0 262 -96q120 -117 102 -350zM248 485h618q-1 64 -24 120t-60 93q-74 78 -198 78q-145 0 -240 -100q-75 -78 -96 -191z" />
    <glyph glyph-name="uni1EBC" unicode="&#x1ebc;" horiz-adv-x="950" 
d="M502 1491l-45 39q27 53 57 76q45 39 98 39q25 0 48 -8t51 -23t32 -17q7 -3 24 -11.5t25.5 -12t22 -7t25.5 -3.5q27 0 61 34q35 45 35 52l43 -41q-19 -41 -64 -80q-43 -35 -96 -35q-7 0 -14 0.5t-12 1.5t-12.5 3.5t-11 3.5t-13 5t-12.5 5.5l-15 7.5l-16 8
q-12 6 -30.5 16.5t-28.5 15.5t-25.5 9t-32.5 4q-9 0 -16.5 -1.5t-15.5 -6t-10.5 -6t-11.5 -10.5l-10 -9q-20 -21 -30 -49zM1008 1366l-11 -82h-565l-61 -496h553l-11 -81h-553l-75 -625h565l-10 -82h-570h-86l168 1366h656z" />
    <glyph glyph-name="uni1EBD" unicode="&#x1ebd;" horiz-adv-x="997" 
d="M432 1014l-45 39q27 51 57 75q45 39 99 39q25 0 47.5 -7.5t51.5 -23t32 -16.5q9 -4 24.5 -12t24 -12t22 -7.5t25.5 -3.5q26 0 61 35q35 45 35 51l43 -41q-19 -41 -63 -79q-43 -35 -96 -35q-19 0 -37.5 5t-27.5 9.5t-42 20.5q-12 6 -30.5 16.5t-28.5 15.5t-25.5 9t-32.5 4
q-9 0 -17 -1.5t-15 -6t-10 -6.5t-11 -9.5t-10 -9.5q-22 -22 -31 -49zM948 408h-712q-13 -78 12 -151.5t71 -119.5q82 -82 211 -82q116 0 199 60q68 48 109 131l63 -41q-59 -107 -149 -166q-86 -62 -224 -62q-175 0 -278 111q-105 114 -105 285q0 220 140 360
q121 121 299 121q163 0 262 -96q120 -117 102 -350zM248 485h618q-1 64 -24 120t-60 93q-74 78 -198 78q-145 0 -240 -100q-75 -78 -96 -191z" />
    <glyph glyph-name="uni1EBE" unicode="&#x1ebe;" horiz-adv-x="950" 
d="M1198 1933l-266 -239l-41 43l242 250zM1008 1366l-11 -82h-565l-61 -496h553l-11 -81h-553l-75 -625h565l-10 -82h-570h-86l168 1366h656zM713 1655l-238 -185l-45 52l293 231l225 -231l-53 -52z" />
    <glyph glyph-name="uni1EBF" unicode="&#x1ebf;" horiz-adv-x="997" 
d="M1147 1446l-266 -240l-41 43l241 250zM948 408h-712q-13 -78 12 -151.5t71 -119.5q82 -82 211 -82q116 0 199 60q68 48 109 131l63 -41q-59 -107 -149 -166q-86 -62 -224 -62q-175 0 -278 111q-105 114 -105 285q0 220 140 360q121 121 299 121q163 0 262 -96
q120 -117 102 -350zM248 485h618q-1 64 -24 120t-60 93q-74 78 -198 78q-145 0 -240 -100q-75 -78 -96 -191zM662 1167l-238 -184l-45 51l293 232l225 -232l-53 -51z" />
    <glyph glyph-name="uni1EC0" unicode="&#x1ec0;" horiz-adv-x="950" 
d="M958 1694l-210 239l65 54l191 -256zM1008 1366l-11 -82h-565l-61 -496h553l-11 -81h-553l-75 -625h565l-10 -82h-570h-86l168 1366h656zM713 1655l-238 -185l-45 52l293 231l225 -231l-53 -52z" />
    <glyph glyph-name="uni1EC1" unicode="&#x1ec1;" horiz-adv-x="997" 
d="M907 1206l-211 240l66 53l190 -256zM948 408h-712q-13 -78 12 -151.5t71 -119.5q82 -82 211 -82q116 0 199 60q68 48 109 131l63 -41q-59 -107 -149 -166q-86 -62 -224 -62q-175 0 -278 111q-105 114 -105 285q0 220 140 360q121 121 299 121q163 0 262 -96
q120 -117 102 -350zM248 485h618q-1 64 -24 120t-60 93q-74 78 -198 78q-145 0 -240 -100q-75 -78 -96 -191zM662 1167l-238 -184l-45 51l293 232l225 -232l-53 -51z" />
    <glyph glyph-name="uni1EC2" unicode="&#x1ec2;" horiz-adv-x="950" 
d="M954 1694h-65l20 133q20 -4 45 -0.5t47 10.5t38 25.5t20 44.5q5 38 -14.5 58t-67.5 20q-40 0 -67 -17.5t-33 -44.5h-70q5 45 53 85t123 40q83 0 118.5 -38.5t24.5 -106.5q-6 -37 -24.5 -64.5t-45 -41.5t-48 -20.5t-43.5 -9.5zM1008 1366l-11 -82h-565l-61 -496h553
l-11 -81h-553l-75 -625h565l-10 -82h-570h-86l168 1366h656zM713 1655l-238 -185l-45 52l293 231l225 -231l-53 -52z" />
    <glyph glyph-name="uni1EC3" unicode="&#x1ec3;" horiz-adv-x="997" 
d="M903 1206h-65l20 133q20 -4 45 -0.5t47 10.5t38 25.5t20 44.5q5 38 -14.5 58t-67.5 20q-40 0 -67.5 -17t-33.5 -44h-69q5 45 53 85t123 40q82 0 118 -39t25 -107q-18 -117 -162 -135zM948 408h-712q-13 -78 12 -151.5t71 -119.5q82 -82 211 -82q116 0 199 60
q68 48 109 131l63 -41q-59 -107 -149 -166q-86 -62 -224 -62q-175 0 -278 111q-105 114 -105 285q0 220 140 360q121 121 299 121q163 0 262 -96q120 -117 102 -350zM248 485h618q-1 64 -24 120t-60 93q-74 78 -198 78q-145 0 -240 -100q-75 -78 -96 -191zM662 1167
l-238 -184l-45 51l293 232l225 -232l-53 -51z" />
    <glyph glyph-name="uni1EC4" unicode="&#x1ec4;" horiz-adv-x="950" 
d="M516 1825l-45 39q27 51 57 75q45 39 99 39q25 0 47.5 -7.5t51.5 -23t32 -16.5q9 -4 24.5 -12t24 -12t22 -7.5t25.5 -3.5q26 0 61 35q35 45 35 51l43 -40q-19 -43 -63 -80q-43 -35 -96 -35q-19 0 -37.5 5t-27.5 9.5t-42 20.5q-12 6 -30.5 16.5t-28.5 15.5t-25.5 9t-32.5 4
q-9 0 -17 -1.5t-15 -6t-10 -6.5t-11 -9.5t-10 -9.5q-22 -22 -31 -49zM1008 1366l-11 -82h-565l-61 -496h553l-11 -81h-553l-75 -625h565l-10 -82h-570h-86l168 1366h656zM713 1655l-238 -185l-45 52l293 231l225 -231l-53 -52z" />
    <glyph glyph-name="uni1EC5" unicode="&#x1ec5;" horiz-adv-x="997" 
d="M465 1337l-45 39q27 53 57 76q45 39 98 39q25 0 48 -7.5t52.5 -23t31.5 -16.5q9 -4 24.5 -12t24 -12t22 -7.5t25.5 -3.5q26 0 61 35q35 45 35 51l43 -41q-19 -43 -63 -80q-43 -35 -97 -35q-7 0 -14 0.5t-12 1.5t-12.5 3.5t-11 3.5t-13 5t-12.5 5.5l-15 7.5l-16 8
q-12 6 -30.5 16.5t-28.5 15.5t-25.5 9t-32.5 4q-9 0 -17 -1.5t-15 -6t-10 -6.5t-11 -9.5t-10 -9.5q-22 -22 -31 -49zM948 408h-712q-13 -78 12 -151.5t71 -119.5q82 -82 211 -82q116 0 199 60q68 48 109 131l63 -41q-59 -107 -149 -166q-86 -62 -224 -62q-175 0 -278 111
q-105 114 -105 285q0 220 140 360q121 121 299 121q163 0 262 -96q120 -117 102 -350zM248 485h618q-1 64 -24 120t-60 93q-74 78 -198 78q-145 0 -240 -100q-75 -78 -96 -191zM662 1167l-238 -184l-45 51l293 232l225 -232l-53 -51z" />
    <glyph glyph-name="uni1EC6" unicode="&#x1ec6;" horiz-adv-x="950" 
d="M473 -311q-32 0 -50.5 19.5t-14.5 51.5q0 34 20.5 54t52.5 20q30 0 49 -20t19 -54q-4 -32 -25.5 -51.5t-50.5 -19.5zM1008 1366l-11 -82h-565l-61 -496h553l-11 -81h-553l-75 -625h565l-10 -82h-570h-86l168 1366h656zM713 1655l-238 -185l-45 52l293 231l225 -231
l-53 -52z" />
    <glyph glyph-name="uni1EC7" unicode="&#x1ec7;" horiz-adv-x="997" 
d="M469 -311q-32 0 -51 20t-15 51q0 34 21 54t53 20q30 0 49 -20t19 -54q-4 -32 -25.5 -51.5t-50.5 -19.5zM948 408h-712q-13 -78 12 -151.5t71 -119.5q82 -82 211 -82q116 0 199 60q68 48 109 131l63 -41q-59 -107 -149 -166q-86 -62 -224 -62q-175 0 -278 111
q-105 114 -105 285q0 220 140 360q121 121 299 121q163 0 262 -96q120 -117 102 -350zM248 485h618q-1 64 -24 120t-60 93q-74 78 -198 78q-145 0 -240 -100q-75 -78 -96 -191zM662 1167l-238 -184l-45 51l293 232l225 -232l-53 -51z" />
    <glyph glyph-name="uni1EC8" unicode="&#x1ec8;" horiz-adv-x="458" 
d="M444 1470h-65l20 134q20 -4 45 -0.5t47 10t38 25t20 44.5q5 38 -14.5 58t-67.5 20q-40 0 -67 -17t-33 -44h-70q5 45 53 85t123 40q82 0 118 -39t25 -107q-18 -117 -161 -135zM352 1366h90l-168 -1366h-90z" />
    <glyph glyph-name="uni1EC9" unicode="&#x1ec9;" horiz-adv-x="376" 
d="M250 836h82l-103 -836h-82zM340 983h-66l21 133q20 -4 45 -0.5t46.5 10.5t37.5 25.5t20 44.5q5 38 -14.5 58t-67.5 20q-40 0 -67 -17.5t-33 -44.5h-69q5 45 53 85t123 40q83 0 118.5 -38.5t24.5 -106.5q-18 -117 -162 -135z" />
    <glyph glyph-name="uni1ECA" unicode="&#x1eca;" horiz-adv-x="458" 
d="M203 -311q-32 0 -51 20t-15 51q0 34 21 54t53 20q30 0 49 -20t19 -54q-4 -32 -25.5 -51.5t-50.5 -19.5zM352 1366h90l-168 -1366h-90z" />
    <glyph glyph-name="uni1ECB" unicode="&#x1ecb;" horiz-adv-x="376" 
d="M158 -311q-32 0 -51 20t-15 51q0 34 21 54t53 20q30 0 48.5 -19.5t18.5 -54.5q-4 -32 -25 -51.5t-50 -19.5zM250 836h82l-103 -836h-82zM315 1038q-28 0 -47 19q-16 16 -16 45q0 44 27 65q23 23 55 23q28 0 47 -19q18 -18 18 -47q0 -37 -24 -61q-25 -25 -60 -25z" />
    <glyph glyph-name="uni1ECC" unicode="&#x1ecc;" horiz-adv-x="1648" 
d="M770 -311q-32 0 -50.5 19.5t-14.5 51.5q0 34 20.5 54t52.5 20q30 0 49 -20t19 -54q-4 -32 -25.5 -51.5t-50.5 -19.5zM981 1384q285 0 473 -188q168 -171 168 -440q0 -342 -229 -568q-117 -115 -250.5 -163t-296.5 -48q-142 0 -254 39.5t-211 135.5q-46 42 -84 97.5
t-70 152t-32 204.5q0 146 59 291.5t174 263.5q223 223 553 223zM834 59q298 0 491 189q98 98 151.5 233.5t53.5 270.5q0 237 -156 393q-72 72 -174.5 115t-226.5 43q-284 0 -475 -191q-105 -102 -157 -232.5t-52 -265.5q0 -231 149 -391q156 -164 396 -164z" />
    <glyph glyph-name="uni1ECD" unicode="&#x1ecd;" horiz-adv-x="1073" 
d="M504 -311q-32 0 -51 20t-15 51q0 34 21 54t53 20q30 0 49 -20t19 -54q-4 -32 -25.5 -51.5t-50.5 -19.5zM614 854q89 0 173 -31t139 -86q104 -104 104 -288q0 -219 -137 -349q-133 -123 -342 -123q-185 0 -295 115q-111 114 -111 291q0 99 37 191t103 155q64 61 151 93
t178 32zM563 55q155 0 258 95q123 115 123 290q0 20 -2 39.5t-4.5 35.5t-8 32.5t-9.5 28t-11.5 25t-11.5 21t-12 19t-11 15t-10 12.5l-8 10q-91 98 -250 98q-146 0 -254 -94q-58 -53 -89.5 -129.5t-31.5 -157.5q0 -72 25.5 -137.5t69.5 -110.5q88 -92 237 -92z" />
    <glyph glyph-name="uni1ECE" unicode="&#x1ece;" horiz-adv-x="1648" 
d="M1077 1470h-65l20 134q20 -4 45 -0.5t47 10t38 25t20 44.5q5 38 -14.5 58t-67.5 20q-40 0 -67.5 -17t-33.5 -44h-69q5 45 53 85t123 40q82 0 118 -39t25 -107q-18 -117 -162 -135zM981 1384q285 0 473 -188q168 -171 168 -440q0 -342 -229 -568q-117 -115 -250.5 -163
t-296.5 -48q-142 0 -254 39.5t-211 135.5q-46 42 -84 97.5t-70 152t-32 204.5q0 146 59 291.5t174 263.5q223 223 553 223zM834 59q298 0 491 189q98 98 151.5 233.5t53.5 270.5q0 237 -156 393q-72 72 -174.5 115t-226.5 43q-284 0 -475 -191q-105 -102 -157 -232.5
t-52 -265.5q0 -231 149 -391q156 -164 396 -164z" />
    <glyph glyph-name="uni1ECF" unicode="&#x1ecf;" horiz-adv-x="1073" 
d="M729 983h-65l20 133q20 -4 45 -0.5t47 10.5t38 25.5t20 44.5q5 38 -14.5 58t-67.5 20q-40 0 -67.5 -17.5t-33.5 -44.5h-69q5 45 53 85t123 40q83 0 118.5 -38.5t24.5 -106.5q-18 -117 -162 -135zM614 854q89 0 173 -31t139 -86q104 -104 104 -288q0 -219 -137 -349
q-133 -123 -342 -123q-185 0 -295 115q-111 114 -111 291q0 99 37 191t103 155q64 61 151 93t178 32zM563 55q155 0 258 95q123 115 123 290q0 20 -2 39.5t-4.5 35.5t-8 32.5t-9.5 28t-11.5 25t-11.5 21t-12 19t-11 15t-10 12.5l-8 10q-91 98 -250 98q-146 0 -254 -94
q-58 -53 -89.5 -129.5t-31.5 -157.5q0 -72 25.5 -137.5t69.5 -110.5q88 -92 237 -92z" />
    <glyph glyph-name="uni1ED0" unicode="&#x1ed0;" horiz-adv-x="1648" 
d="M1540 1933l-266 -239l-41 43l242 250zM981 1384q285 0 473 -188q168 -171 168 -440q0 -342 -229 -568q-117 -115 -250.5 -163t-296.5 -48q-142 0 -254 39.5t-211 135.5q-46 42 -84 97.5t-70 152t-32 204.5q0 146 59 291.5t174 263.5q223 223 553 223zM834 59
q298 0 491 189q98 98 151.5 233.5t53.5 270.5q0 237 -156 393q-72 72 -174.5 115t-226.5 43q-284 0 -475 -191q-105 -102 -157 -232.5t-52 -265.5q0 -231 149 -391q156 -164 396 -164zM1055 1655l-238 -185l-45 52l293 231l225 -231l-53 -52z" />
    <glyph glyph-name="uni1ED1" unicode="&#x1ed1;" horiz-adv-x="1073" 
d="M1184 1446l-266 -240l-41 43l241 250zM614 854q89 0 173 -31t139 -86q104 -104 104 -288q0 -219 -137 -349q-133 -123 -342 -123q-185 0 -295 115q-111 114 -111 291q0 99 37 191t103 155q64 61 151 93t178 32zM563 55q155 0 258 95q123 115 123 290q0 20 -2 39.5
t-4.5 35.5t-8 32.5t-9.5 28t-11.5 25t-11.5 21t-12 19t-11 15t-10 12.5l-8 10q-91 98 -250 98q-146 0 -254 -94q-58 -53 -89.5 -129.5t-31.5 -157.5q0 -72 25.5 -137.5t69.5 -110.5q88 -92 237 -92zM698 1167l-237 -184l-45 51l293 232l225 -232l-53 -51z" />
    <glyph glyph-name="uni1ED2" unicode="&#x1ed2;" horiz-adv-x="1648" 
d="M1300 1694l-210 239l65 54l191 -256zM981 1384q285 0 473 -188q168 -171 168 -440q0 -342 -229 -568q-117 -115 -250.5 -163t-296.5 -48q-142 0 -254 39.5t-211 135.5q-46 42 -84 97.5t-70 152t-32 204.5q0 146 59 291.5t174 263.5q223 223 553 223zM834 59
q298 0 491 189q98 98 151.5 233.5t53.5 270.5q0 237 -156 393q-72 72 -174.5 115t-226.5 43q-284 0 -475 -191q-105 -102 -157 -232.5t-52 -265.5q0 -231 149 -391q156 -164 396 -164zM1055 1655l-238 -185l-45 52l293 231l225 -231l-53 -52z" />
    <glyph glyph-name="uni1ED3" unicode="&#x1ed3;" horiz-adv-x="1073" 
d="M944 1206l-211 240l66 53l190 -256zM614 854q89 0 173 -31t139 -86q104 -104 104 -288q0 -219 -137 -349q-133 -123 -342 -123q-185 0 -295 115q-111 114 -111 291q0 99 37 191t103 155q64 61 151 93t178 32zM563 55q155 0 258 95q123 115 123 290q0 20 -2 39.5
t-4.5 35.5t-8 32.5t-9.5 28t-11.5 25t-11.5 21t-12 19t-11 15t-10 12.5l-8 10q-91 98 -250 98q-146 0 -254 -94q-58 -53 -89.5 -129.5t-31.5 -157.5q0 -72 25.5 -137.5t69.5 -110.5q88 -92 237 -92zM698 1167l-237 -184l-45 51l293 232l225 -232l-53 -51z" />
    <glyph glyph-name="uni1ED4" unicode="&#x1ed4;" horiz-adv-x="1648" 
d="M1296 1694h-65l20 133q20 -4 45 -0.5t47 10.5t38 25.5t20 44.5q5 38 -14.5 58t-67.5 20q-40 0 -67 -17.5t-33 -44.5h-70q5 45 53 85t123 40q83 0 118.5 -38.5t24.5 -106.5q-6 -37 -24.5 -64.5t-45 -41.5t-48 -20.5t-43.5 -9.5zM981 1384q285 0 473 -188
q168 -171 168 -440q0 -342 -229 -568q-117 -115 -250.5 -163t-296.5 -48q-142 0 -254 39.5t-211 135.5q-46 42 -84 97.5t-70 152t-32 204.5q0 146 59 291.5t174 263.5q223 223 553 223zM834 59q298 0 491 189q98 98 151.5 233.5t53.5 270.5q0 237 -156 393
q-72 72 -174.5 115t-226.5 43q-284 0 -475 -191q-105 -102 -157 -232.5t-52 -265.5q0 -231 149 -391q156 -164 396 -164zM1055 1655l-238 -185l-45 52l293 231l225 -231l-53 -52z" />
    <glyph glyph-name="uni1ED5" unicode="&#x1ed5;" horiz-adv-x="1073" 
d="M940 1206h-66l21 133q20 -4 45 -0.5t46.5 10.5t37.5 25.5t20 44.5q10 78 -81 78q-40 0 -67.5 -17t-33.5 -44h-69q5 45 53 85t123 40q82 0 118 -39t25 -107q-18 -117 -162 -135zM614 854q89 0 173 -31t139 -86q104 -104 104 -288q0 -219 -137 -349q-133 -123 -342 -123
q-185 0 -295 115q-111 114 -111 291q0 99 37 191t103 155q64 61 151 93t178 32zM563 55q155 0 258 95q123 115 123 290q0 20 -2 39.5t-4.5 35.5t-8 32.5t-9.5 28t-11.5 25t-11.5 21t-12 19t-11 15t-10 12.5l-8 10q-91 98 -250 98q-146 0 -254 -94q-58 -53 -89.5 -129.5
t-31.5 -157.5q0 -72 25.5 -137.5t69.5 -110.5q88 -92 237 -92zM698 1167l-237 -184l-45 51l293 232l225 -232l-53 -51z" />
    <glyph glyph-name="uni1ED6" unicode="&#x1ed6;" horiz-adv-x="1648" 
d="M858 1825l-45 39q27 51 57 75q45 39 99 39q25 0 47.5 -7.5t51.5 -23t32 -16.5q9 -4 24.5 -12t24 -12t22 -7.5t25.5 -3.5q26 0 61 35q35 45 35 51l43 -40q-19 -43 -63 -80q-43 -35 -96 -35q-19 0 -37.5 5t-27.5 9.5t-42 20.5q-12 6 -30.5 16.5t-28.5 15.5t-25.5 9t-32.5 4
q-9 0 -17 -1.5t-15 -6t-10 -6.5t-11 -9.5t-10 -9.5q-22 -22 -31 -49zM981 1384q285 0 473 -188q168 -171 168 -440q0 -342 -229 -568q-117 -115 -250.5 -163t-296.5 -48q-142 0 -254 39.5t-211 135.5q-46 42 -84 97.5t-70 152t-32 204.5q0 146 59 291.5t174 263.5
q223 223 553 223zM834 59q298 0 491 189q98 98 151.5 233.5t53.5 270.5q0 237 -156 393q-72 72 -174.5 115t-226.5 43q-284 0 -475 -191q-105 -102 -157 -232.5t-52 -265.5q0 -231 149 -391q156 -164 396 -164zM1055 1655l-238 -185l-45 52l293 231l225 -231l-53 -52z" />
    <glyph glyph-name="uni1ED7" unicode="&#x1ed7;" horiz-adv-x="1073" 
d="M502 1337l-45 39q27 53 57 76q45 39 98 39q25 0 47.5 -7.5t51.5 -23t32 -16.5l24 -12t25 -12t22.5 -7.5t25.5 -3.5q26 0 61 35q35 45 35 51l43 -41q-19 -41 -64 -80q-43 -35 -96 -35q-7 0 -14 0.5t-12 1.5t-12.5 3.5t-11 3.5t-13 5t-12.5 5.5l-15 7.5l-16 8
q-12 6 -30.5 16.5t-28.5 15.5t-25.5 9t-32.5 4q-9 0 -16.5 -1.5t-15.5 -6t-10.5 -6t-11.5 -10.5l-10 -9q-20 -20 -30 -49zM614 854q89 0 173 -31t139 -86q104 -104 104 -288q0 -219 -137 -349q-133 -123 -342 -123q-185 0 -295 115q-111 114 -111 291q0 99 37 191t103 155
q64 61 151 93t178 32zM563 55q155 0 258 95q123 115 123 290q0 20 -2 39.5t-4.5 35.5t-8 32.5t-9.5 28t-11.5 25t-11.5 21t-12 19t-11 15t-10 12.5l-8 10q-91 98 -250 98q-146 0 -254 -94q-58 -53 -89.5 -129.5t-31.5 -157.5q0 -72 25.5 -137.5t69.5 -110.5q88 -92 237 -92z
M698 1167l-237 -184l-45 51l293 232l225 -232l-53 -51z" />
    <glyph glyph-name="uni1ED8" unicode="&#x1ed8;" horiz-adv-x="1648" 
d="M770 -311q-32 0 -50.5 19.5t-14.5 51.5q0 34 20.5 54t52.5 20q30 0 49 -20t19 -54q-4 -32 -25.5 -51.5t-50.5 -19.5zM981 1384q285 0 473 -188q168 -171 168 -440q0 -342 -229 -568q-117 -115 -250.5 -163t-296.5 -48q-142 0 -254 39.5t-211 135.5q-46 42 -84 97.5
t-70 152t-32 204.5q0 146 59 291.5t174 263.5q223 223 553 223zM834 59q298 0 491 189q98 98 151.5 233.5t53.5 270.5q0 237 -156 393q-72 72 -174.5 115t-226.5 43q-284 0 -475 -191q-105 -102 -157 -232.5t-52 -265.5q0 -231 149 -391q156 -164 396 -164zM1055 1655
l-238 -185l-45 52l293 231l225 -231l-53 -52z" />
    <glyph glyph-name="uni1ED9" unicode="&#x1ed9;" horiz-adv-x="1073" 
d="M504 -311q-32 0 -51 20t-15 51q0 34 21 54t53 20q30 0 49 -20t19 -54q-4 -32 -25.5 -51.5t-50.5 -19.5zM614 854q89 0 173 -31t139 -86q104 -104 104 -288q0 -219 -137 -349q-133 -123 -342 -123q-185 0 -295 115q-111 114 -111 291q0 99 37 191t103 155q64 61 151 93
t178 32zM563 55q155 0 258 95q123 115 123 290q0 20 -2 39.5t-4.5 35.5t-8 32.5t-9.5 28t-11.5 25t-11.5 21t-12 19t-11 15t-10 12.5l-8 10q-91 98 -250 98q-146 0 -254 -94q-58 -53 -89.5 -129.5t-31.5 -157.5q0 -72 25.5 -137.5t69.5 -110.5q88 -92 237 -92zM698 1167
l-237 -184l-45 51l293 232l225 -232l-53 -51z" />
    <glyph glyph-name="uni1EDA" unicode="&#x1eda;" horiz-adv-x="1648" 
d="M1300 1710l-266 -240l-41 43l242 250zM981 1384q93 0 186 -22q85 -6 143.5 -3.5t88.5 7.5q34 4 41 14q26 18 30 82l7 56h69l-4 -54q-10 -84 -44 -121t-103 -45q-28 -4 -66 -4q60 -39 125 -98q168 -171 168 -440q0 -342 -229 -568q-117 -115 -250.5 -163t-296.5 -48
q-142 0 -254 39.5t-211 135.5q-46 42 -84 97.5t-70 152t-32 204.5q0 146 59 291.5t174 263.5q223 223 553 223zM834 59q298 0 491 189q98 98 151.5 233.5t53.5 270.5q0 237 -156 393q-72 72 -174.5 115t-226.5 43q-284 0 -475 -191q-105 -102 -157 -232.5t-52 -265.5
q0 -231 149 -391q156 -164 396 -164z" />
    <glyph glyph-name="uni1EDB" unicode="&#x1edb;" horiz-adv-x="1073" 
d="M918 1223l-267 -240l-41 43l242 250zM614 854q49 0 117 -14q119 -15 164 -4q34 4 41 14q27 19 31 82h1v2v2t0.5 3t0.5 4.5t0.5 7t1 9.5t1 12t1.5 15h69l-4 -53q-10 -84 -44.5 -122.5t-102.5 -43.5q14 -10 35 -31q104 -104 104 -288q0 -219 -137 -349q-133 -123 -342 -123
q-185 0 -295 115q-111 114 -111 291q0 99 37 191t103 155q64 61 151 93t178 32zM563 55q155 0 258 95q123 115 123 290q0 20 -2 39.5t-4.5 35.5t-8 32.5t-9.5 28t-11.5 25t-11.5 21t-12 19t-11 15t-10 12.5l-8 10q-91 98 -250 98q-146 0 -254 -94q-58 -53 -89.5 -129.5
t-31.5 -157.5q0 -72 25.5 -137.5t69.5 -110.5q88 -92 237 -92z" />
    <glyph glyph-name="uni1EDC" unicode="&#x1edc;" horiz-adv-x="1648" 
d="M1087 1470l-210 240l65 53l191 -256zM981 1384q93 0 186 -22q85 -6 143.5 -3.5t88.5 7.5q34 4 41 14q26 18 30 82l7 56h69l-4 -54q-10 -84 -44 -121t-103 -45q-28 -4 -66 -4q60 -39 125 -98q168 -171 168 -440q0 -342 -229 -568q-117 -115 -250.5 -163t-296.5 -48
q-142 0 -254 39.5t-211 135.5q-46 42 -84 97.5t-70 152t-32 204.5q0 146 59 291.5t174 263.5q223 223 553 223zM834 59q298 0 491 189q98 98 151.5 233.5t53.5 270.5q0 237 -156 393q-72 72 -174.5 115t-226.5 43q-284 0 -475 -191q-105 -102 -157 -232.5t-52 -265.5
q0 -231 149 -391q156 -164 396 -164z" />
    <glyph glyph-name="uni1EDD" unicode="&#x1edd;" horiz-adv-x="1073" 
d="M715 983l-211 240l65 53l191 -256zM614 854q49 0 117 -14q119 -15 164 -4q34 4 41 14q27 19 31 82h1v2v2t0.5 3t0.5 4.5t0.5 7t1 9.5t1 12t1.5 15h69l-4 -53q-10 -84 -44.5 -122.5t-102.5 -43.5q14 -10 35 -31q104 -104 104 -288q0 -219 -137 -349q-133 -123 -342 -123
q-185 0 -295 115q-111 114 -111 291q0 99 37 191t103 155q64 61 151 93t178 32zM563 55q155 0 258 95q123 115 123 290q0 20 -2 39.5t-4.5 35.5t-8 32.5t-9.5 28t-11.5 25t-11.5 21t-12 19t-11 15t-10 12.5l-8 10q-91 98 -250 98q-146 0 -254 -94q-58 -53 -89.5 -129.5
t-31.5 -157.5q0 -72 25.5 -137.5t69.5 -110.5q88 -92 237 -92z" />
    <glyph glyph-name="uni1EDE" unicode="&#x1ede;" horiz-adv-x="1648" 
d="M1077 1470h-65l20 134q20 -4 45 -0.5t47 10t38 25t20 44.5q5 38 -14.5 58t-67.5 20q-40 0 -67.5 -17t-33.5 -44h-69q5 45 53 85t123 40q82 0 118 -39t25 -107q-18 -117 -162 -135zM981 1384q93 0 186 -22q85 -6 143.5 -3.5t88.5 7.5q34 4 41 14q26 18 30 82l7 56h69
l-4 -54q-10 -84 -44 -121t-103 -45q-28 -4 -66 -4q60 -39 125 -98q168 -171 168 -440q0 -342 -229 -568q-117 -115 -250.5 -163t-296.5 -48q-142 0 -254 39.5t-211 135.5q-46 42 -84 97.5t-70 152t-32 204.5q0 146 59 291.5t174 263.5q223 223 553 223zM834 59
q298 0 491 189q98 98 151.5 233.5t53.5 270.5q0 237 -156 393q-72 72 -174.5 115t-226.5 43q-284 0 -475 -191q-105 -102 -157 -232.5t-52 -265.5q0 -231 149 -391q156 -164 396 -164z" />
    <glyph glyph-name="uni1EDF" unicode="&#x1edf;" horiz-adv-x="1073" 
d="M729 983h-65l20 133q20 -4 45 -0.5t47 10.5t38 25.5t20 44.5q5 38 -14.5 58t-67.5 20q-40 0 -67.5 -17.5t-33.5 -44.5h-69q5 45 53 85t123 40q83 0 118.5 -38.5t24.5 -106.5q-18 -117 -162 -135zM614 854q49 0 117 -14q119 -15 164 -4q34 4 41 14q27 19 31 82h1v2v2
t0.5 3t0.5 4.5t0.5 7t1 9.5t1 12t1.5 15h69l-4 -53q-10 -84 -44.5 -122.5t-102.5 -43.5q14 -10 35 -31q104 -104 104 -288q0 -219 -137 -349q-133 -123 -342 -123q-185 0 -295 115q-111 114 -111 291q0 99 37 191t103 155q64 61 151 93t178 32zM563 55q155 0 258 95
q123 115 123 290q0 20 -2 39.5t-4.5 35.5t-8 32.5t-9.5 28t-11.5 25t-11.5 21t-12 19t-11 15t-10 12.5l-8 10q-91 98 -250 98q-146 0 -254 -94q-58 -53 -89.5 -129.5t-31.5 -157.5q0 -72 25.5 -137.5t69.5 -110.5q88 -92 237 -92z" />
    <glyph glyph-name="uni1EE0" unicode="&#x1ee0;" horiz-adv-x="1648" 
d="M831 1491l-45 39q27 52 58 76q45 39 98 39q25 0 48 -8t51 -23t32 -17q8 -3 24.5 -11.5t24.5 -12t21.5 -7t25.5 -3.5q28 0 62 34q35 45 35 52l43 -41q-19 -41 -64 -80q-43 -35 -96 -35q-19 0 -37.5 5t-27.5 9.5t-42 20.5q-12 6 -30.5 16.5t-28.5 15.5t-25 9t-32 4
q-9 0 -16.5 -1.5t-15.5 -6t-10.5 -6t-11.5 -10.5l-10 -9q-22 -22 -31 -49zM981 1384q93 0 186 -22q85 -6 143.5 -3.5t88.5 7.5q34 4 41 14q26 18 30 82l7 56h69l-4 -54q-10 -84 -44 -121t-103 -45q-28 -4 -66 -4q60 -39 125 -98q168 -171 168 -440q0 -342 -229 -568
q-117 -115 -250.5 -163t-296.5 -48q-142 0 -254 39.5t-211 135.5q-46 42 -84 97.5t-70 152t-32 204.5q0 146 59 291.5t174 263.5q223 223 553 223zM834 59q298 0 491 189q98 98 151.5 233.5t53.5 270.5q0 237 -156 393q-72 72 -174.5 115t-226.5 43q-284 0 -475 -191
q-105 -102 -157 -232.5t-52 -265.5q0 -231 149 -391q156 -164 396 -164z" />
    <glyph glyph-name="uni1EE1" unicode="&#x1ee1;" horiz-adv-x="1073" 
d="M492 1014l-46 39q26 50 58 75q45 39 98 39q25 0 47.5 -7.5t51.5 -23t32 -16.5q9 -4 24.5 -12t24 -12t22 -7.5t25.5 -3.5q27 0 62 35q35 45 35 51l43 -41q-18 -40 -64 -79q-43 -35 -96 -35q-19 0 -37.5 5t-27.5 9.5t-42 20.5q-12 6 -30.5 16.5t-28.5 15.5t-25 9t-32 4
q-9 0 -16.5 -1.5t-15.5 -6t-10.5 -6t-11.5 -10.5l-10 -9q-20 -21 -30 -49zM614 854q49 0 117 -14q119 -15 164 -4q34 4 41 14q27 19 31 82h1v2v2t0.5 3t0.5 4.5t0.5 7t1 9.5t1 12t1.5 15h69l-4 -53q-10 -84 -44.5 -122.5t-102.5 -43.5q14 -10 35 -31q104 -104 104 -288
q0 -219 -137 -349q-133 -123 -342 -123q-185 0 -295 115q-111 114 -111 291q0 99 37 191t103 155q64 61 151 93t178 32zM563 55q155 0 258 95q123 115 123 290q0 20 -2 39.5t-4.5 35.5t-8 32.5t-9.5 28t-11.5 25t-11.5 21t-12 19t-11 15t-10 12.5l-8 10q-91 98 -250 98
q-146 0 -254 -94q-58 -53 -89.5 -129.5t-31.5 -157.5q0 -72 25.5 -137.5t69.5 -110.5q88 -92 237 -92z" />
    <glyph glyph-name="uni1EE2" unicode="&#x1ee2;" horiz-adv-x="1648" 
d="M770 -311q-32 0 -50.5 19.5t-14.5 51.5q0 34 20.5 54t52.5 20q30 0 49 -20t19 -54q-4 -32 -25.5 -51.5t-50.5 -19.5zM981 1384q93 0 186 -22q85 -6 143.5 -3.5t88.5 7.5q34 4 41 14q26 18 30 82l7 56h69l-4 -54q-10 -84 -44 -121t-103 -45q-28 -4 -66 -4q60 -39 125 -98
q168 -171 168 -440q0 -342 -229 -568q-117 -115 -250.5 -163t-296.5 -48q-142 0 -254 39.5t-211 135.5q-46 42 -84 97.5t-70 152t-32 204.5q0 146 59 291.5t174 263.5q223 223 553 223zM834 59q298 0 491 189q98 98 151.5 233.5t53.5 270.5q0 237 -156 393
q-72 72 -174.5 115t-226.5 43q-284 0 -475 -191q-105 -102 -157 -232.5t-52 -265.5q0 -231 149 -391q156 -164 396 -164z" />
    <glyph glyph-name="uni1EE3" unicode="&#x1ee3;" horiz-adv-x="1073" 
d="M504 -311q-32 0 -51 20t-15 51q0 34 21 54t53 20q30 0 49 -20t19 -54q-4 -32 -25.5 -51.5t-50.5 -19.5zM614 854q49 0 117 -14q119 -15 164 -4q34 4 41 14q27 19 31 82h1v2v2t0.5 3t0.5 4.5t0.5 7t1 9.5t1 12t1.5 15h69l-4 -53q-10 -84 -44.5 -122.5t-102.5 -43.5
q14 -10 35 -31q104 -104 104 -288q0 -219 -137 -349q-133 -123 -342 -123q-185 0 -295 115q-111 114 -111 291q0 99 37 191t103 155q64 61 151 93t178 32zM563 55q155 0 258 95q123 115 123 290q0 20 -2 39.5t-4.5 35.5t-8 32.5t-9.5 28t-11.5 25t-11.5 21t-12 19t-11 15
t-10 12.5l-8 10q-91 98 -250 98q-146 0 -254 -94q-58 -53 -89.5 -129.5t-31.5 -157.5q0 -72 25.5 -137.5t69.5 -110.5q88 -92 237 -92z" />
    <glyph glyph-name="uni1EE4" unicode="&#x1ee4;" horiz-adv-x="1296" 
d="M592 -311q-32 0 -51 20t-15 51q0 34 21 54t53 20q30 0 49 -20t19 -54q-4 -32 -25.5 -51.5t-50.5 -19.5zM350 1366h90l-104 -854q-7 -48 -9.5 -74t-3 -73.5t7 -79.5t27 -70.5t50.5 -67.5q93 -88 254 -88q189 0 296 107q43 43 70.5 105t37 111t19.5 130l105 854h90
l-104 -854q-18 -142 -36 -201q-38 -125 -124 -207q-78 -76 -164.5 -101.5t-192.5 -25.5q-212 0 -325 113q-52 52 -76.5 121.5t-23 142.5t11.5 158z" />
    <glyph glyph-name="uni1EE5" unicode="&#x1ee5;" horiz-adv-x="894" 
d="M403 -311q-32 0 -50.5 19.5t-14.5 51.5q0 34 21 54t53 20q30 0 48.5 -19.5t18.5 -54.5q-4 -32 -25.5 -51.5t-50.5 -19.5zM248 836h82l-62 -504q-24 -162 51 -228q58 -49 144 -49q104 0 170 66q58 66 74 211l61 504h82l-70 -527q-19 -121 -39 -168q-17 -43 -45 -75
q-80 -89 -237 -89q-133 0 -209 76q-91 98 -64 275z" />
    <glyph glyph-name="uni1EE6" unicode="&#x1ee6;" horiz-adv-x="1296" 
d="M868 1470h-65l20 134q20 -4 45 -0.5t47 10t38 25t20 44.5q5 38 -14.5 58t-67.5 20q-40 0 -67 -17t-33 -44h-70q5 45 53 85t123 40q82 0 118 -39t25 -107q-18 -117 -161 -135zM350 1366h90l-104 -854q-7 -48 -9.5 -74t-3 -73.5t7 -79.5t27 -70.5t50.5 -67.5
q93 -88 254 -88q189 0 296 107q43 43 70.5 105t37 111t19.5 130l105 854h90l-104 -854q-18 -142 -36 -201q-38 -125 -124 -207q-78 -76 -164.5 -101.5t-192.5 -25.5q-212 0 -325 113q-52 52 -76.5 121.5t-23 142.5t11.5 158z" />
    <glyph glyph-name="uni1EE7" unicode="&#x1ee7;" horiz-adv-x="894" 
d="M604 983h-65l20 133q20 -4 45 -0.5t47 10.5t38 25.5t20 44.5q5 38 -14.5 58t-67.5 20q-40 0 -67.5 -17.5t-33.5 -44.5h-69q5 45 53 85t123 40q83 0 118.5 -38.5t24.5 -106.5q-18 -117 -162 -135zM248 836h82l-62 -504q-24 -162 51 -228q58 -49 144 -49q104 0 170 66
q58 66 74 211l61 504h82l-70 -527q-19 -121 -39 -168q-17 -43 -45 -75q-80 -89 -237 -89q-133 0 -209 76q-91 98 -64 275z" />
    <glyph glyph-name="uni1EE8" unicode="&#x1ee8;" horiz-adv-x="1296" 
d="M1065 1710l-266 -240l-41 43l241 250zM350 1366h90l-104 -854q-7 -48 -9.5 -74t-3 -73.5t7 -79.5t27 -70.5t50.5 -67.5q93 -88 254 -88q189 0 296 107q43 43 70.5 105t37 111t19.5 130l105 854h84h2q34 4 41 14q27 19 31 82q1 1 1 2v2t0.5 3.5t0.5 5t0.5 7t1 9.5t1 12
t1.5 15h69l-4 -54q-10 -84 -44.5 -122.5t-102.5 -43.5l-96 -786q-18 -142 -36 -201q-38 -125 -124 -207q-78 -76 -164.5 -101.5t-192.5 -25.5q-212 0 -325 113q-52 52 -76.5 121.5t-23 142.5t11.5 158z" />
    <glyph glyph-name="uni1EE9" unicode="&#x1ee9;" horiz-adv-x="894" 
d="M823 1223l-266 -240l-41 43l242 250zM248 836h82l-62 -504q-24 -162 51 -228q58 -49 144 -49q104 0 170 66q58 66 74 211l61 504h82q32 5 39 14q27 19 31 82q1 1 1 2v2t0.5 3t0.5 4.5t0.5 7t1 9.5t1 12t1.5 15h69l-4 -53q-10 -84 -44.5 -122.5t-102.5 -43.5h-4l-60 -459
q-19 -121 -39 -168q-17 -43 -45 -75q-80 -89 -237 -89q-133 0 -209 76q-91 98 -64 275z" />
    <glyph glyph-name="uni1EEA" unicode="&#x1eea;" horiz-adv-x="1296" 
d="M879 1470l-211 240l65 53l191 -256zM350 1366h90l-104 -854q-7 -48 -9.5 -74t-3 -73.5t7 -79.5t27 -70.5t50.5 -67.5q93 -88 254 -88q189 0 296 107q43 43 70.5 105t37 111t19.5 130l105 854h84h2q34 4 41 14q27 19 31 82q1 1 1 2v2t0.5 3.5t0.5 5t0.5 7t1 9.5t1 12
t1.5 15h69l-4 -54q-10 -84 -44.5 -122.5t-102.5 -43.5l-96 -786q-18 -142 -36 -201q-38 -125 -124 -207q-78 -76 -164.5 -101.5t-192.5 -25.5q-212 0 -325 113q-52 52 -76.5 121.5t-23 142.5t11.5 158z" />
    <glyph glyph-name="uni1EEB" unicode="&#x1eeb;" horiz-adv-x="894" 
d="M610 983l-211 240l66 53l190 -256zM248 836h82l-62 -504q-24 -162 51 -228q58 -49 144 -49q104 0 170 66q58 66 74 211l61 504h82q32 5 39 14q27 19 31 82q1 1 1 2v2t0.5 3t0.5 4.5t0.5 7t1 9.5t1 12t1.5 15h69l-4 -53q-10 -84 -44.5 -122.5t-102.5 -43.5h-4l-60 -459
q-19 -121 -39 -168q-17 -43 -45 -75q-80 -89 -237 -89q-133 0 -209 76q-91 98 -64 275z" />
    <glyph glyph-name="uni1EEC" unicode="&#x1eec;" horiz-adv-x="1296" 
d="M868 1470h-65l20 134q20 -4 45 -0.5t47 10t38 25t20 44.5q5 38 -14.5 58t-67.5 20q-40 0 -67 -17t-33 -44h-70q5 45 53 85t123 40q82 0 118 -39t25 -107q-18 -117 -161 -135zM350 1366h90l-104 -854q-7 -48 -9.5 -74t-3 -73.5t7 -79.5t27 -70.5t50.5 -67.5
q93 -88 254 -88q189 0 296 107q43 43 70.5 105t37 111t19.5 130l105 854h84h2q34 4 41 14q27 19 31 82q1 1 1 2v2t0.5 3.5t0.5 5t0.5 7t1 9.5t1 12t1.5 15h69l-4 -54q-10 -84 -44.5 -122.5t-102.5 -43.5l-96 -786q-18 -142 -36 -201q-38 -125 -124 -207
q-78 -76 -164.5 -101.5t-192.5 -25.5q-212 0 -325 113q-52 52 -76.5 121.5t-23 142.5t11.5 158z" />
    <glyph glyph-name="uni1EED" unicode="&#x1eed;" horiz-adv-x="894" 
d="M604 983h-65l20 133q20 -4 45 -0.5t47 10.5t38 25.5t20 44.5q5 38 -14.5 58t-67.5 20q-40 0 -67.5 -17.5t-33.5 -44.5h-69q5 45 53 85t123 40q83 0 118.5 -38.5t24.5 -106.5q-18 -117 -162 -135zM248 836h82l-62 -504q-24 -162 51 -228q58 -49 144 -49q104 0 170 66
q58 66 74 211l61 504h82q32 5 39 14q27 19 31 82q1 1 1 2v2t0.5 3t0.5 4.5t0.5 7t1 9.5t1 12t1.5 15h69l-4 -53q-10 -84 -44.5 -122.5t-102.5 -43.5h-4l-60 -459q-19 -121 -39 -168q-17 -43 -45 -75q-80 -89 -237 -89q-133 0 -209 76q-91 98 -64 275z" />
    <glyph glyph-name="uni1EEE" unicode="&#x1eee;" horiz-adv-x="1296" 
d="M612 1491l-45 39q27 52 58 76q45 39 98 39q25 0 48 -8t51 -23t32 -17q8 -3 24.5 -11.5t24.5 -12t21.5 -7t25.5 -3.5q28 0 62 34q35 45 35 52l43 -41q-19 -41 -64 -80q-43 -35 -96 -35q-19 0 -37.5 5t-27.5 9.5t-42 20.5q-12 6 -30.5 16.5t-28.5 15.5t-25 9t-32 4
q-9 0 -16.5 -1.5t-15.5 -6t-10.5 -6t-12.5 -10.5l-9 -9q-22 -22 -31 -49zM350 1366h90l-104 -854q-7 -48 -9.5 -74t-3 -73.5t7 -79.5t27 -70.5t50.5 -67.5q93 -88 254 -88q189 0 296 107q43 43 70.5 105t37 111t19.5 130l105 854h84h2q34 4 41 14q27 19 31 82q1 1 1 2v2
t0.5 3.5t0.5 5t0.5 7t1 9.5t1 12t1.5 15h69l-4 -54q-10 -84 -44.5 -122.5t-102.5 -43.5l-96 -786q-18 -142 -36 -201q-38 -125 -124 -207q-78 -76 -164.5 -101.5t-192.5 -25.5q-212 0 -325 113q-52 52 -76.5 121.5t-23 142.5t11.5 158z" />
    <glyph glyph-name="uni1EEF" unicode="&#x1eef;" horiz-adv-x="894" 
d="M358 1014l-45 39q26 50 58 75q45 39 98 39q25 0 47.5 -7.5t51.5 -23t32 -16.5q9 -4 24.5 -12t24 -12t22 -7.5t25.5 -3.5q27 0 62 35q35 45 35 51l43 -41q-18 -40 -64 -79q-43 -35 -96 -35q-19 0 -37.5 5t-27.5 9.5t-42 20.5q-12 6 -30.5 16.5t-28.5 15.5t-25 9t-32 4
q-9 0 -16.5 -1.5t-15.5 -6t-10.5 -6t-12.5 -10.5l-9 -9q-22 -22 -31 -49zM248 836h82l-62 -504q-24 -162 51 -228q58 -49 144 -49q104 0 170 66q58 66 74 211l61 504h82q32 5 39 14q27 19 31 82q1 1 1 2v2t0.5 3t0.5 4.5t0.5 7t1 9.5t1 12t1.5 15h69l-4 -53
q-10 -84 -44.5 -122.5t-102.5 -43.5h-4l-60 -459q-19 -121 -39 -168q-17 -43 -45 -75q-80 -89 -237 -89q-133 0 -209 76q-91 98 -64 275z" />
    <glyph glyph-name="uni1EF0" unicode="&#x1ef0;" horiz-adv-x="1296" 
d="M592 -311q-32 0 -51 20t-15 51q0 34 21 54t53 20q30 0 49 -20t19 -54q-4 -32 -25.5 -51.5t-50.5 -19.5zM350 1366h90l-104 -854q-7 -48 -9.5 -74t-3 -73.5t7 -79.5t27 -70.5t50.5 -67.5q93 -88 254 -88q189 0 296 107q43 43 70.5 105t37 111t19.5 130l105 854h84h2
q34 4 41 14q27 19 31 82q1 1 1 2v2t0.5 3.5t0.5 5t0.5 7t1 9.5t1 12t1.5 15h69l-4 -54q-10 -84 -44.5 -122.5t-102.5 -43.5l-96 -786q-18 -142 -36 -201q-38 -125 -124 -207q-78 -76 -164.5 -101.5t-192.5 -25.5q-212 0 -325 113q-52 52 -76.5 121.5t-23 142.5t11.5 158z
" />
    <glyph glyph-name="uni1EF1" unicode="&#x1ef1;" horiz-adv-x="894" 
d="M403 -311q-32 0 -50.5 19.5t-14.5 51.5q0 34 21 54t53 20q30 0 48.5 -19.5t18.5 -54.5q-4 -32 -25.5 -51.5t-50.5 -19.5zM248 836h82l-62 -504q-24 -162 51 -228q58 -49 144 -49q104 0 170 66q58 66 74 211l61 504h82q32 5 39 14q27 19 31 82q1 1 1 2v2t0.5 3t0.5 4.5
t0.5 7t1 9.5t1 12t1.5 15h69l-4 -53q-10 -84 -44.5 -122.5t-102.5 -43.5h-4l-60 -459q-19 -121 -39 -168q-17 -43 -45 -75q-80 -89 -237 -89q-133 0 -209 76q-91 98 -64 275z" />
    <glyph glyph-name="Ygrave" unicode="&#x1ef2;" horiz-adv-x="1056" 
d="M741 1470l-211 240l66 53l190 -256zM477 0l72 584l-352 782h98l309 -690l486 690h106l-557 -782l-72 -584h-90z" />
    <glyph glyph-name="ygrave" unicode="&#x1ef3;" horiz-adv-x="876" 
d="M594 983l-211 240l66 53l190 -256zM160 -471l252 457l-293 850h90l260 -744l395 744h99l-709 -1307h-94z" />
    <glyph glyph-name="uni1EF4" unicode="&#x1ef4;" horiz-adv-x="1056" 
d="M485 -311q-32 0 -50.5 19.5t-14.5 51.5q0 34 21 54t53 20q30 0 48.5 -19.5t18.5 -54.5q-4 -32 -25.5 -51.5t-50.5 -19.5zM477 0l72 584l-352 782h98l309 -690l486 690h106l-557 -782l-72 -584h-90z" />
    <glyph glyph-name="uni1EF5" unicode="&#x1ef5;" horiz-adv-x="876" 
d="M651 -311q-32 0 -50.5 19.5t-14.5 51.5q0 34 20.5 54t52.5 20q30 0 49 -20t19 -54q-4 -32 -25.5 -51.5t-50.5 -19.5zM160 -471l252 457l-293 850h90l260 -744l395 744h99l-709 -1307h-94z" />
    <glyph glyph-name="uni1EF6" unicode="&#x1ef6;" horiz-adv-x="1056" 
d="M739 1470h-65l20 134q20 -4 45 -0.5t47 10t38 25t20 44.5q5 38 -14.5 58t-67.5 20q-40 0 -67 -17t-33 -44h-70q5 45 53 85t123 40q82 0 118 -39t25 -107q-18 -117 -161 -135zM477 0l72 584l-352 782h98l309 -690l486 690h106l-557 -782l-72 -584h-90z" />
    <glyph glyph-name="uni1EF7" unicode="&#x1ef7;" horiz-adv-x="876" 
d="M588 983h-66l21 133q20 -4 45 -0.5t46.5 10.5t37.5 25.5t20 44.5q5 38 -14.5 58t-67.5 20q-40 0 -67 -17.5t-33 -44.5h-70q5 45 53 85t123 40q83 0 119 -38.5t25 -106.5q-18 -117 -162 -135zM160 -471l252 457l-293 850h90l260 -744l395 744h99l-709 -1307h-94z" />
    <glyph glyph-name="uni1EF8" unicode="&#x1ef8;" horiz-adv-x="1056" 
d="M500 1491l-45 39q27 53 57 76q45 39 98 39q25 0 48 -8t51 -23t32 -17q7 -3 24 -11.5t25.5 -12t22 -7t25.5 -3.5q27 0 61 34q35 45 35 52l43 -41q-19 -41 -64 -80q-43 -35 -96 -35q-7 0 -14 0.5t-12 1.5t-12.5 3.5t-11 3.5t-13 5t-12.5 5.5l-15 7.5l-16 8
q-12 6 -30.5 16.5t-28.5 15.5t-25.5 9t-32.5 4q-9 0 -16.5 -1.5t-15.5 -6t-10.5 -6t-11.5 -10.5l-10 -9q-20 -21 -30 -49zM477 0l72 584l-352 782h98l309 -690l486 690h106l-557 -782l-72 -584h-90z" />
    <glyph glyph-name="uni1EF9" unicode="&#x1ef9;" horiz-adv-x="876" 
d="M346 1014l-45 39q27 51 57 75q45 39 99 39q25 0 47.5 -7.5t51.5 -23t32 -16.5q9 -4 24.5 -12t24 -12t22 -7.5t25.5 -3.5q26 0 61 35q35 45 35 51l43 -41q-19 -41 -63 -79q-43 -35 -96 -35q-19 0 -37.5 5t-27.5 9.5t-42 20.5q-12 6 -30.5 16.5t-28.5 15.5t-25.5 9t-32.5 4
q-9 0 -17 -1.5t-15 -6t-10 -6.5t-11 -9.5t-10 -9.5q-22 -22 -31 -49zM160 -471l252 457l-293 850h90l260 -744l395 744h99l-709 -1307h-94z" />
    <glyph glyph-name="endash" unicode="&#x2013;" horiz-adv-x="1105" 
d="M190 385l11 78h819l-10 -78h-820z" />
    <glyph glyph-name="emdash" unicode="&#x2014;" horiz-adv-x="1515" 
d="M190 385l11 78h1229l-11 -78h-1229z" />
    <glyph glyph-name="quoteleft" unicode="&#x2018;" horiz-adv-x="466" 
d="M510 1366l-172 -414l-80 25l203 409z" />
    <glyph glyph-name="quoteright" unicode="&#x2019;" horiz-adv-x="466" 
d="M258 977l174 414l78 -25l-201 -410z" />
    <glyph glyph-name="quotesinglbase" unicode="&#x201a;" horiz-adv-x="520" 
d="M96 -281l174 414l80 -24l-203 -410z" />
    <glyph glyph-name="quotedblleft" unicode="&#x201c;" horiz-adv-x="704" 
d="M510 1366l-172 -414l-80 25l203 409zM748 1366l-173 -414l-79 25l202 409z" />
    <glyph glyph-name="quotedblright" unicode="&#x201d;" horiz-adv-x="704" 
d="M258 977l174 414l78 -25l-201 -410zM496 977l174 414l78 -25l-201 -410z" />
    <glyph glyph-name="quotedblbase" unicode="&#x201e;" horiz-adv-x="757" 
d="M96 -281l174 414l80 -24l-203 -410zM334 -281l174 414l80 -24l-203 -410z" />
    <glyph glyph-name="dagger" unicode="&#x2020;" horiz-adv-x="1122" 
d="M655 1001l62 492h90l-62 -492h328l-10 -81h-328l-153 -1248h-90l153 1248h-328l11 81h327z" />
    <glyph glyph-name="daggerdbl" unicode="&#x2021;" horiz-adv-x="1103" 
d="M563 -328h-90l68 541h-328l10 82h328l76 625h-328l10 81h328l61 492h90l-61 -492h328l-11 -81h-327l-76 -625h328l-11 -82h-327z" />
    <glyph glyph-name="bullet" unicode="&#x2022;" horiz-adv-x="2048" 
d="M821 662q0 60 24.5 119t67.5 102q44 44 108 72t124 28q55 0 106 -22t82 -58q29 -32 47.5 -80t18.5 -92q0 -127 -96 -223q-98 -98 -228 -98q-109 0 -188 79q-66 66 -66 173z" />
    <glyph glyph-name="ellipsis" unicode="&#x2026;" horiz-adv-x="1241" 
d="M967 51q0 44 26 64q31 22 58 22q25 0 47 -16q20 -17 20 -49q0 -38 -24 -62t-62 -24q-24 0 -45 16q-20 14 -20 49zM553 51q0 43 27 64q31 22 57 22q25 0 47 -16q21 -18 21 -49q0 -37 -25 -62q-24 -24 -62 -24q-24 0 -45 16q-20 14 -20 49zM139 51q0 43 27 64q31 22 57 22
q25 0 47 -16q21 -18 21 -49q0 -37 -25 -62q-24 -24 -61 -24q-24 0 -45 16q-21 15 -21 49z" />
    <glyph glyph-name="perthousand" unicode="&#x2030;" horiz-adv-x="1908" 
d="M498 1378q120 0 198 -78q68 -68 68 -167q0 -131 -80 -211q-46 -48 -100 -64t-119 -16q-122 0 -189 65q-71 71 -71 176q0 60 22 115.5t58 91.5q40 42 97.5 65t115.5 23zM471 915q88 0 147 56q62 62 62 159q0 73 -43 121q-50 54 -137 54q-92 0 -152 -60q-59 -59 -59 -151
q0 -76 47 -127q49 -52 135 -52zM188 2l979 1395l58 -33l-979 -1395zM944 524q121 0 199 -78q67 -67 67 -167q0 -131 -80 -211q-46 -48 -100 -64t-119 -16q-121 0 -188 65q-72 72 -72 176q0 60 22 115.5t58 91.5q40 42 97.5 65t115.5 23zM918 61q88 0 147 56q61 61 61 159
q0 73 -43 121q-50 54 -137 54q-91 0 -151 -60t-60 -151q0 -76 47 -127q49 -52 136 -52zM1604 524q120 0 198 -78q68 -68 68 -167q0 -131 -80 -211q-46 -48 -100 -64t-119 -16q-122 0 -189 65q-71 71 -71 176q0 60 22 115.5t58 91.5q40 42 97.5 65t115.5 23zM1577 61
q88 0 147 56q62 62 62 159q0 73 -43 121q-50 54 -137 54q-92 0 -152 -60q-59 -59 -59 -151q0 -76 47 -127q49 -52 135 -52z" />
    <glyph glyph-name="guilsinglleft" unicode="&#x2039;" horiz-adv-x="495" 
d="M469 682l-254 -258l191 -258l-60 -49l-229 307l305 307z" />
    <glyph glyph-name="guilsinglright" unicode="&#x203a;" horiz-adv-x="495" 
d="M131 166l252 258l-188 258l59 49l227 -307l-303 -307z" />
    <glyph glyph-name="Euro" unicode="&#x20ac;" horiz-adv-x="1122" 
d="M1149 1288l-49 -76q-121 91 -287 91q-105 0 -206 -45.5t-187 -143t-125 -231.5h666l-43 -82h-648q-26 -84 -30 -211h569l-43 -82h-524q0 -63 13 -124t43.5 -120.5t75 -104.5t113 -72.5t152.5 -27.5q70 0 137 18t117.5 46t76.5 46.5t46 35.5l-15 -119q-165 -109 -370 -109
q-87 0 -159 21t-121 54.5t-86.5 80.5t-59.5 94.5t-35.5 101t-18 96t-4.5 83.5h-139l43 82h94q3 125 31 211h-131l43 82h113q68 222 238 361.5t395 139.5q35 0 75.5 -4.5t112 -28t127.5 -63.5z" />
    <glyph glyph-name="trademark" unicode="&#x2122;" horiz-adv-x="1474" 
d="M621 1292h-191l-86 -704h-82l86 704h-190l10 74h463zM692 588h-78l197 839l246 -712l424 712l-13 -839h-77l6 567l-361 -612l-213 612z" />
    <glyph glyph-name="fi" unicode="&#xfb01;" horiz-adv-x="905" 
d="M530 758h-208l-93 -758h-82l93 758h-95l11 78h94l41 333q5 43 9.5 69t15 63.5t29.5 69.5t48 61q86 86 228 86q141 0 221 -74q67 -62 67 -178q0 -53 -12 -131h-82q10 45 10 116q0 91 -51 138q-51 51 -156 51q-108 0 -172 -64q-57 -64 -73 -207l-41 -333h209zM778 836h82
l-102 -836h-82z" />
    <glyph glyph-name="fl" unicode="&#xfb02;" horiz-adv-x="905" 
d="M530 758h-208l-93 -758h-82l93 758h-95l11 78h94l41 333q5 43 9.5 69t15 63.5t29.5 69.5t48 61q86 86 228 86q141 0 221 -74q67 -62 67 -178q0 -56 -8 -97l-143 -1169h-82l143 1169q6 75 6 82q0 91 -51 138q-51 51 -156 51q-108 0 -172 -64q-57 -64 -73 -207l-41 -333
h209z" />
    <glyph glyph-name="CR" horiz-adv-x="477" 
 />
    <glyph glyph-name="nbspace" horiz-adv-x="477" 
 />
    <glyph glyph-name="hyphenminus" horiz-adv-x="614" 
d="M150 377l10 94h409l-10 -94h-409z" />
    <glyph glyph-name="dotlessi1" horiz-adv-x="376" 
d="M250 836h82l-103 -836h-82z" />
    </font>
</defs>
</svg>
