<?xml version="1.0" standalone="no"?>
<!DOCTYPE svg PUBLIC "-//W3C//DTD SVG 1.1//EN" "http://www.w3.org/Graphics/SVG/1.1/DTD/svg11.dtd" >
<svg xmlns="http://www.w3.org/2000/svg" xmlns:xlink="http://www.w3.org/1999/xlink" version="1.1">
<metadata>
Created by FontForge 20170731 at Sun Sep 19 04:00:46 2021
 By Aleksey,,,
Copyright (c) 1995 ParaGraph Intl., (c) 1998 ParaType Inc., ParaType Ltd. All rights reserved.
</metadata>
<defs>
<font id="SVN-FuturaBoldItalic" horiz-adv-x="1024" >
  <font-face 
    font-family="SVN-Futura"
    font-weight="700"
    font-style="italic"
    font-stretch="normal"
    units-per-em="2048"
    panose-1="2 11 8 2 2 2 4 9 3 3"
    ascent="1638"
    descent="-410"
    x-height="913"
    cap-height="1366"
    bbox="-649 -512 2529 2243"
    underline-thickness="102"
    underline-position="-307"
    slope="-7"
    unicode-range="U+0020-FB02"
  />
<missing-glyph horiz-adv-x="477" 
 />
    <glyph glyph-name=".notdef" horiz-adv-x="477" 
 />
    <glyph glyph-name=".null" horiz-adv-x="0" 
 />
    <glyph glyph-name="nonmarkingreturn" horiz-adv-x="682" 
 />
    <glyph glyph-name="space" unicode=" " horiz-adv-x="477" 
 />
    <glyph glyph-name="exclam" unicode="!" horiz-adv-x="610" 
d="M510 457h-311l112 909h312zM131 154q0 78 54 132t132 54t132.5 -54t54.5 -132t-54.5 -132.5t-132.5 -54.5t-132 54.5t-54 132.5z" />
    <glyph glyph-name="quotedbl" unicode="&#x22;" horiz-adv-x="833" 
d="M535 1366l-117 -549h-191l21 549h287zM909 1366l-114 -549h-191l19 549h286z" />
    <glyph glyph-name="numbersign" unicode="#" horiz-adv-x="1228" 
d="M1032 604h209l-61 -227h-209l-109 -377h-262l109 377h-183l-108 -377h-262l108 377h-207l64 227h205l55 189h-205l62 225h204l101 348h262l-100 -348h182l100 348h262l-100 -348h207l-62 -225h-207zM770 604l55 189h-182l-55 -189h182z" />
    <glyph glyph-name="dollar" unicode="$" horiz-adv-x="1228" 
d="M705 1587h184l-25 -207q167 -19 301 -137l-151 -221q-51 52 -111.5 78t-114.5 26q-88 0 -129 -41q-38 -35 -38 -94q0 -53 43 -90q35 -28 129 -72l75 -34q114 -52 174 -129q68 -86 68 -213q0 -196 -125 -324q-116 -121 -291 -133l-30 -225h-185l31 221q-208 29 -365 194
l162 209q57 -61 115 -96q77 -49 168 -49q100 0 153 43q54 44 54 121q0 57 -45 96q-29 27 -125 74l-68 34q-32 17 -47.5 26t-44 28t-50.5 39.5t-40 44.5q-64 86 -64 207q0 182 115 297q99 99 252 120z" />
    <glyph glyph-name="percent" unicode="%" horiz-adv-x="1699" 
d="M379 4l971 1385l139 -31l-973 -1387zM1341 479q-77 0 -129 -47q-59 -59 -59 -141q0 -58 35 -96q44 -48 110 -48q79 0 132 56q53 53 53 133q0 74 -43 108q-35 35 -99 35zM1350 645q163 0 249 -86q80 -77 80 -205q0 -72 -24.5 -143t-73.5 -123q-59 -63 -129.5 -84.5
t-153.5 -21.5q-161 0 -247 77q-93 79 -93 220q0 73 27 142t76 118q101 106 289 106zM582 1384q163 0 249 -86q80 -77 80 -204q0 -72 -24.5 -144t-73.5 -123q-59 -63 -129.5 -84.5t-153.5 -21.5q-160 0 -247 78q-93 79 -93 219q0 73 27 142t76 118q101 106 289 106zM573 1219
q-76 0 -129 -48q-59 -59 -59 -141q0 -58 35 -96q43 -47 110 -47q80 0 132 55q53 53 53 133q0 75 -43 109q-35 35 -99 35z" />
    <glyph glyph-name="ampersand" unicode="&#x26;" horiz-adv-x="1523" 
d="M1305 690l157 -174q-89 -100 -207 -197l252 -319h-385l-102 127q-107 -92 -193 -123q-83 -35 -243 -35q-109 0 -191 22t-147 87q-99 99 -99 241q0 159 101 275q97 111 280 166q-102 112 -102 237q0 166 109 275q122 125 331 125q182 0 279 -97q86 -82 86 -210
q0 -140 -103 -248q-64 -70 -188 -127l168 -215q109 93 197 190zM864 332l-198 256q-33 -11 -71.5 -33.5t-62.5 -46.5q-53 -53 -53 -129q0 -53 35 -92q45 -45 127 -45q111 0 223 90zM815 872q64 31 107 74q55 55 55 123q0 60 -35 84q-30 27 -84 27q-59 0 -96 -37
q-37 -40 -37 -94q0 -82 90 -177z" />
    <glyph glyph-name="quotesingle" unicode="'" horiz-adv-x="458" 
d="M535 1366l-117 -549h-191l21 549h287z" />
    <glyph glyph-name="parenleft" unicode="(" horiz-adv-x="686" 
d="M559 1516l184 -111q-101 -163 -174 -358q-129 -347 -129 -699q0 -349 105 -624l-217 -101q-75 177 -105 343.5t-30 359.5q0 189 31.5 377.5t123.5 418.5q88 217 211 394z" />
    <glyph glyph-name="parenright" unicode=")" horiz-adv-x="686" 
d="M291 1415l217 101q78 -187 106.5 -354t28.5 -351q0 -193 -30 -375.5t-126 -419.5q-86 -210 -211 -393l-184 111q107 173 176 358q129 345 129 744q0 292 -106 579z" />
    <glyph glyph-name="asterisk" unicode="*" horiz-adv-x="1224" 
d="M487 1350l203 -90l12 233h203l-47 -233l225 90l39 -191l-233 -53l129 -178l-176 -119l-101 199l-147 -199l-143 119l170 176l-222 53z" />
    <glyph glyph-name="plus" unicode="+" 
d="M150 578v237h315v315h258v-315h315v-237h-315v-318h-258v318h-315z" />
    <glyph glyph-name="comma" unicode="," horiz-adv-x="718" 
d="M16 -262l297 577l279 -14l-379 -571z" />
    <glyph glyph-name="hyphen" unicode="-" horiz-adv-x="729" 
d="M150 389l32 258h525l-33 -258h-524z" />
    <glyph glyph-name="period" unicode="." horiz-adv-x="569" 
d="M111 154q0 78 54 132t132 54t132 -54t54 -132t-54 -132.5t-132 -54.5t-132 54.5t-54 132.5z" />
    <glyph glyph-name="slash" unicode="/" horiz-adv-x="1427" 
d="M-82 -377l1299 1911l231 -41l-1298 -1911z" />
    <glyph glyph-name="zero" unicode="0" horiz-adv-x="1228" 
d="M637 -31q-105 0 -190.5 27t-163.5 100q-168 161 -168 477q0 211 66.5 381.5t170.5 274.5q168 168 410 168q213 0 342 -129q158 -158 158 -471q0 -73 -8.5 -147t-31 -171.5t-74 -193t-126.5 -168.5q-86 -86 -174 -117t-211 -31zM641 240q90 0 150 63q79 79 115 219t36 279
q0 220 -88 291q-40 34 -102 34q-88 0 -156 -63q-80 -72 -121 -208.5t-41 -279.5q0 -186 74 -272q55 -63 133 -63z" />
    <glyph glyph-name="one" unicode="1" horiz-adv-x="1228" 
d="M473 0l135 1100h-194l32 266h510l-168 -1366h-315z" />
    <glyph glyph-name="two" unicode="2" horiz-adv-x="1228" 
d="M78 0l409 410q182 182 258 280q125 151 125 275q0 83 -51 127q-45 38 -123 38q-80 0 -129 -51q-47 -56 -59 -166h-315q17 200 141 334q140 150 383 150q236 0 364 -125q113 -113 113 -291q0 -155 -90 -295q-32 -47 -98.5 -120t-124.5 -128l-187 -172h432l-34 -266h-1014z
" />
    <glyph glyph-name="three" unicode="3" horiz-adv-x="1228" 
d="M526 956h-303q11 86 47.5 169t94.5 141q124 129 360 129q73 0 135 -12t103.5 -31.5t66.5 -36.5t43 -35q107 -103 107 -268q0 -115 -60 -195q-47 -61 -127 -94q64 -33 115 -107q49 -76 49 -174q0 -96 -32.5 -185.5t-96.5 -154.5q-76 -78 -168 -106.5t-213 -28.5
q-256 0 -393 137q-60 60 -100.5 149t-47.5 193h316q12 -96 57 -149q54 -59 154 -59q96 0 151 57q50 53 50 135q0 80 -54 127q-22 19 -53 28.5t-51 11t-53 1.5h-19l29 217h20q105 0 156 37q61 47 61 131q0 71 -49 109q-42 36 -114 36q-76 0 -123 -47q-48 -51 -58 -125z" />
    <glyph glyph-name="four" unicode="4" horiz-adv-x="1228" 
d="M1165 1366l-106 -862h164l-31 -250h-164l-31 -254h-303l31 254h-668l23 180l717 932h368zM420 504h336l63 522z" />
    <glyph glyph-name="five" unicode="5" horiz-adv-x="1228" 
d="M1188 1366l-33 -266h-475l-66 -180q41 8 91 8q218 0 333 -115q115 -111 115 -301q0 -237 -141 -385q-49 -51 -105.5 -84.5t-117.5 -48.5t-111 -20t-113 -5q-273 0 -493 162l106 281q76 -82 175.5 -127t193.5 -45q137 0 209 63q33 30 53 76t20 96q0 94 -71 158
q-75 65 -221 65q-149 0 -285 -71l244 739h692z" />
    <glyph glyph-name="six" unicode="6" horiz-adv-x="1228" 
d="M788 1397l306 -74l-375 -412q110 19 212 -12.5t171 -103.5q110 -117 110 -301q0 -238 -147 -381q-86 -85 -186 -114.5t-228 -29.5q-237 0 -377 105q-163 126 -163 348q0 153 73 283q8 14 17 27.5t16.5 24.5t18.5 25t17 22t19 23.5t17.5 21t19.5 22.5t18.5 20t20.5 22
t19 21zM643 227q110 0 176 66q70 70 70 180q0 40 -16 78.5t-44 64.5q-30 30 -77 45t-90 15q-102 0 -170 -68q-66 -66 -66 -164q0 -94 59 -153q64 -64 158 -64z" />
    <glyph glyph-name="seven" unicode="7" horiz-adv-x="1228" 
d="M106 41l734 1059h-586l33 266h1085l-964 -1397z" />
    <glyph glyph-name="eight" unicode="8" horiz-adv-x="1228" 
d="M942 709q85 -25 145 -82q91 -91 91 -226q0 -182 -119 -301q-42 -42 -93 -70t-107 -40.5t-100.5 -16.5t-101.5 -4q-115 0 -205 21.5t-169 83.5q-140 112 -140 286q0 79 28.5 148.5t74.5 114.5q74 74 196 100q-67 37 -112 102q-51 74 -51 176q0 165 104 269
q121 127 360 127q222 0 340 -113q55 -52 77 -113t22 -143q0 -132 -76 -219q-62 -68 -164 -100zM721 840q80 0 129 49t49 127q0 67 -47 108q-42 39 -117 39q-76 0 -123 -47q-51 -51 -51 -129q0 -49 37 -96q47 -51 123 -51zM653 219q97 0 150 53q55 51 55 138q0 94 -61 139
q-57 41 -129 41q-94 0 -156 -62q-49 -49 -49 -135q0 -81 53 -127q50 -47 137 -47z" />
    <glyph glyph-name="nine" unicode="9" horiz-adv-x="1228" 
d="M289 43l368 414q-105 -11 -200 20t-164 98q-119 112 -119 312q0 230 148 370q147 140 417 140q255 0 398 -127q129 -129 129 -316q0 -154 -82 -295q-24 -44 -66.5 -96t-130.5 -151l-393 -441zM731 1139q-113 0 -172 -66q-29 -31 -45 -78.5t-16 -91.5q0 -88 57 -145
q29 -29 74 -45.5t90 -16.5q104 0 166 62q32 32 50.5 79.5t18.5 92.5q0 93 -63 153q-64 56 -160 56z" />
    <glyph glyph-name="colon" unicode=":" horiz-adv-x="569" 
d="M98 156q0 78 54.5 132t132.5 54t132 -54t54 -132t-54 -132.5t-132 -54.5t-132.5 54.5t-54.5 132.5zM174 758q0 78 54 132t132 54t132.5 -54t54.5 -132t-54.5 -132.5t-132.5 -54.5t-132 54.5t-54 132.5z" />
    <glyph glyph-name="semicolon" unicode=";" horiz-adv-x="724" 
d="M-25 -262l297 577l279 -14l-379 -571zM266 758q0 78 54.5 132t132.5 54t132 -54t54 -132t-54 -132.5t-132 -54.5t-132.5 54.5t-54.5 132.5z" />
    <glyph glyph-name="less" unicode="&#x3c;" 
d="M119 795l889 448v-254l-617 -305l617 -305v-254l-889 448v222z" />
    <glyph glyph-name="equal" unicode="=" 
d="M150 760v225h888v-225h-888zM150 408v225h888v-225h-888z" />
    <glyph glyph-name="greater" unicode="&#x3e;" 
d="M1069 795v-222l-889 -448v254l617 305l-617 305v254z" />
    <glyph glyph-name="question" unicode="?" horiz-adv-x="1075" 
d="M694 438h-299l47 377q44 -10 95 -10q135 0 202 55q66 53 66 146q0 61 -39 100q-37 37 -98 37q-71 0 -109 -35q-50 -50 -53 -121h-307q11 83 47.5 161.5t91.5 131.5q71 70 156 93.5t184 23.5q215 0 334 -121q104 -106 104 -277q0 -185 -112 -292q-52 -48 -131.5 -75.5
t-155.5 -27.5zM324 154q0 78 54 132t132 54t132 -54t54 -132t-54 -132.5t-132 -54.5t-132 54.5t-54 132.5z" />
    <glyph glyph-name="at" unicode="@" horiz-adv-x="1503" 
d="M1071 911l27 86h172l-133 -415q-17 -65 -17 -80q0 -28 17 -45q15 -15 43 -15q35 0 80 35q59 48 90.5 149t31.5 187q0 187 -131 301q-132 111 -331 111q-130 0 -239.5 -47.5t-186.5 -128.5q-86 -90 -133.5 -211t-47.5 -246q0 -215 129 -344t392 -129q174 0 364 67l21 -155
q-158 -66 -416 -66q-312 0 -486 166q-174 162 -174 447q0 171 59 322t165 257q221 221 565 221q295 0 467 -180q139 -152 139 -377q0 -37 -4.5 -78.5t-17 -106t-45 -129t-80.5 -112.5q-92 -92 -228 -92q-84 0 -129 39q-34 27 -43 76q-42 -61 -102 -96q-64 -35 -154 -35
q-123 0 -192 69q-74 79 -74 203q0 92 38 189.5t109 166.5q108 103 254 103q54 0 110 -23.5t91 -83.5zM791 461q64 0 114 47q45 40 68.5 95t23.5 112q0 56 -30 90q-35 35 -88 35q-71 0 -123 -52q-42 -41 -65 -93.5t-23 -104.5q0 -61 37 -98q36 -31 86 -31z" />
    <glyph glyph-name="A" unicode="A" horiz-adv-x="1386" 
d="M1059 0l-70 258h-516l-129 -258h-340l721 1366h291l366 -1366h-323zM592 500h340l-111 481z" />
    <glyph glyph-name="B" unicode="B" horiz-adv-x="1216" 
d="M143 0l168 1366h437q203 0 301 -94q88 -84 88 -234q0 -128 -64 -213q-59 -79 -143 -104q89 -20 155 -82q89 -89 89 -217q0 -182 -111 -293q-129 -129 -412 -129h-508zM596 1120l-37 -309h64q123 0 174 51q47 47 47 123q0 64 -43 102q-42 33 -139 33h-66zM530 578
l-41 -332h115q147 0 205 51q49 44 49 131q0 65 -37 102q-19 19 -57 31t-64 14.5t-47 2.5h-123z" />
    <glyph glyph-name="C" unicode="C" horiz-adv-x="1239" 
d="M1202 383l-41 -340q-145 -74 -332 -74q-91 0 -171.5 17.5t-139.5 47.5t-98.5 58t-71.5 60q-184 184 -184 473q0 173 58 315.5t159 243.5q95 95 232.5 154t314.5 59q213 0 387 -99l-39 -333q-137 137 -342 137q-206 0 -324 -129q-61 -65 -92 -150.5t-31 -171.5
q0 -84 29 -157.5t78 -122.5q107 -107 289 -107q175 0 319 119z" />
    <glyph glyph-name="D" unicode="D" horiz-adv-x="1402" 
d="M311 1366h400q348 0 522 -174q74 -74 119 -188.5t45 -266.5q0 -109 -22.5 -205.5t-58.5 -163.5t-68 -109t-64 -71q-111 -105 -263.5 -146.5t-357.5 -41.5h-420zM594 1100l-102 -834h96q231 0 348 105q63 57 100 148.5t37 209.5q0 180 -98 275q-48 46 -125.5 71t-159.5 25
h-96z" />
    <glyph glyph-name="E" unicode="E" horiz-adv-x="1028" 
d="M1065 1366l-33 -266h-446l-33 -264h430l-33 -267h-430l-37 -303h455l-33 -266h-762l168 1366h754z" />
    <glyph glyph-name="F" unicode="F" horiz-adv-x="989" 
d="M1071 1366l-33 -266h-442l-33 -264h410l-33 -267h-410l-71 -569h-316l170 1366h758z" />
    <glyph glyph-name="G" unicode="G" horiz-adv-x="1570" 
d="M885 494l30 251h639q-11 -371 -211 -583q-74 -77 -163.5 -121.5t-166.5 -58t-173 -13.5q-318 0 -502 193q-174 181 -174 473q0 339 205 551q117 123 254 167t305 44q230 0 385 -101q65 -42 123 -108t98 -137l-291 -154q-46 100 -127 156q-84 57 -209 57q-89 0 -157.5 -26
t-128.5 -89q-66 -70 -100 -162t-34 -186q0 -81 29.5 -161t83.5 -132q98 -98 281 -98q132 0 217 61q82 59 116 177h-329z" />
    <glyph glyph-name="H" unicode="H" horiz-adv-x="1474" 
d="M627 1366l-64 -512h545l63 512h316l-168 -1366h-315l71 588h-545l-71 -588h-316l168 1366h316z" />
    <glyph glyph-name="I" unicode="I" horiz-adv-x="626" 
d="M317 1366h316l-168 -1366h-315z" />
    <glyph glyph-name="J" unicode="J" horiz-adv-x="849" 
d="M547 1366h315l-114 -928q-6 -54 -11 -86.5t-19.5 -91.5t-42 -107t-67.5 -83q-108 -101 -305 -101q-133 0 -217 49q-84 50 -137 140l215 196q17 -53 49 -78q32 -28 82 -28q44 0 80 28q44 39 57 158z" />
    <glyph glyph-name="K" unicode="K" horiz-adv-x="1372" 
d="M627 1366l-70 -571l500 571h377l-596 -661l505 -705h-397l-411 618l-76 -618h-316l168 1366h316z" />
    <glyph glyph-name="L" unicode="L" horiz-adv-x="917" 
d="M311 1366h316l-135 -1100h426l-33 -266h-742z" />
    <glyph glyph-name="M" unicode="M" horiz-adv-x="1814" 
d="M401 0h-315l389 1366h260l234 -817l442 817h268l50 -1366h-316l-8 815l-436 -815h-119l-240 815z" />
    <glyph glyph-name="N" unicode="N" horiz-adv-x="1630" 
d="M459 0h-316l170 1366h275l629 -889l110 889h315l-167 -1366h-275l-633 893z" />
    <glyph glyph-name="O" unicode="O" horiz-adv-x="1658" 
d="M950 1397q320 0 510 -178q91 -89 142 -213.5t51 -272.5q0 -153 -54 -299.5t-157 -253.5q-211 -211 -565 -211q-150 0 -279.5 41.5t-241.5 153.5q-192 200 -192 477q0 172 60.5 311.5t164.5 237.5q219 207 561 207zM938 1106q-201 0 -326 -131q-60 -63 -92.5 -145
t-32.5 -168q0 -176 111 -287q110 -115 299 -115q193 0 305 117q58 60 92.5 147t34.5 189q0 180 -108 286q-109 107 -283 107z" />
    <glyph glyph-name="P" unicode="P" horiz-adv-x="1171" 
d="M311 1366h461q48 0 83 -3t86.5 -12.5t98.5 -35t86 -64.5q111 -111 111 -293q0 -114 -35.5 -207t-97.5 -151q-121 -121 -406 -121h-180l-59 -479h-316zM596 1108l-47 -371h113q64 0 112.5 11.5t85.5 48.5q53 53 53 141q0 79 -45 119q-53 51 -178 51h-94z" />
    <glyph glyph-name="Q" unicode="Q" horiz-adv-x="1665" 
d="M1309 -80l-95 123q-153 -72 -344 -72q-157 0 -285 45t-233 150q-188 188 -188 473q0 171 58 312t159 239q212 207 565 207q340 0 535 -195q178 -178 178 -465q0 -176 -68 -329q-65 -143 -176 -226l176 -219zM1094 584l133 -172q108 115 108 293q0 82 -30 161.5t-88 134.5
q-109 105 -287 105q-115 0 -196.5 -39.5t-127.5 -91.5q-119 -132 -119 -320q0 -162 103 -274q114 -121 303 -121q82 0 137 29l-221 258z" />
    <glyph glyph-name="R" unicode="R" horiz-adv-x="1243" 
d="M311 1366h428q118 0 205 -24.5t158 -98.5q98 -102 98 -278q0 -186 -113 -299q-91 -88 -217 -111l353 -555h-369l-330 539l-65 -539h-316zM596 1120l-47 -375h78q120 0 184 50q70 55 70 159q0 91 -66 133q-50 33 -172 33h-47z" />
    <glyph glyph-name="S" unicode="S" horiz-adv-x="1126" 
d="M1135 1262l-158 -230q-108 98 -229 98q-92 0 -130 -34q-47 -35 -47 -99q0 -57 47 -92q28 -23 134 -71l79 -37q118 -55 181 -131q69 -89 69 -213q0 -105 -37.5 -197t-99.5 -154q-78 -76 -175 -104.5t-216 -28.5q-156 0 -272 62q-110 63 -183 145l176 225q54 -68 115 -108
q72 -45 160 -45q97 0 151 43q58 46 58 127q0 55 -39 94q-25 25 -109 61l-80 33q-26 6 -87 41.5t-105 79.5q-90 93 -90 231q0 187 123 310q134 129 368 129q223 0 396 -135z" />
    <glyph glyph-name="T" unicode="T" horiz-adv-x="942" 
d="M1055 1100h-297l-135 -1100h-316l135 1100h-297l33 266h909z" />
    <glyph glyph-name="U" unicode="U" horiz-adv-x="1454" 
d="M309 1366h316l-90 -745q-11 -79 -11 -119q0 -116 60 -176q69 -62 180 -62q133 0 201 68q31 31 52 83.5t27 86t13 90.5l94 774h315l-98 -795q-25 -179 -47 -252q-38 -121 -115 -202q-48 -50 -109 -82t-127 -45t-111 -17t-101 -4q-129 0 -238.5 29t-193.5 113
q-121 115 -121 315q0 68 16 215z" />
    <glyph glyph-name="V" unicode="V" horiz-adv-x="1388" 
d="M170 1366h328l239 -874l453 874h352l-745 -1366h-217z" />
    <glyph glyph-name="W" unicode="W" horiz-adv-x="2052" 
d="M170 1366h319l181 -905l403 905h217l178 -905l402 905h336l-631 -1366h-270l-183 829l-387 -829h-270z" />
    <glyph glyph-name="X" unicode="X" horiz-adv-x="1404" 
d="M14 0l592 725l-346 641h371l178 -389l272 389h387l-501 -641l411 -725h-370l-244 473l-363 -473h-387z" />
    <glyph glyph-name="Y" unicode="Y" horiz-adv-x="1294" 
d="M483 0l78 637l-399 729h360l223 -424l326 424h385l-579 -729l-78 -637h-316z" />
    <glyph glyph-name="Z" unicode="Z" horiz-adv-x="1261" 
d="M1378 1366l-780 -1100h578l-33 -266h-1104l782 1100h-540l32 266h1065z" />
    <glyph glyph-name="bracketleft" unicode="[" horiz-adv-x="731" 
d="M807 1292h-189l-178 -1468h189l-25 -201h-438l229 1870h439z" />
    <glyph glyph-name="backslash" unicode="\" horiz-adv-x="1185" 
d="M1196 -377l-231 -41l-832 1911l232 41z" />
    <glyph glyph-name="bracketright" unicode="]" horiz-adv-x="731" 
d="M244 1292l26 201h439l-230 -1870h-438l25 201h188l178 1468h-188z" />
    <glyph glyph-name="asciicircum" unicode="^" horiz-adv-x="1015" 
d="M584 1167l-228 -485h-270l330 684h338l329 -684h-270z" />
    <glyph glyph-name="underscore" unicode="_" 
d="M0 -377v242h1024v-242h-1024z" />
    <glyph glyph-name="grave" unicode="`" 
d="M621 1055l-277 276l211 133l211 -311z" />
    <glyph glyph-name="a" unicode="a" horiz-adv-x="1224" 
d="M909 803l9 110h294l-112 -913h-295l22 104q-58 -69 -129 -102q-67 -33 -170 -33q-89 0 -156.5 26t-125.5 87q-123 130 -123 336q0 243 147 393q133 133 336 133q111 0 178 -35q73 -33 125 -106zM670 690q-107 0 -174 -67q-70 -70 -70 -183q0 -96 59 -155q57 -62 156 -62
q106 0 168 62q78 72 78 196q0 101 -64 158q-55 51 -153 51z" />
    <glyph glyph-name="b" unicode="b" horiz-adv-x="1232" 
d="M604 1493l-86 -682q46 59 113 94q72 39 178 39q173 0 276 -98q132 -119 132 -334q0 -127 -39 -233.5t-111 -180.5q-70 -71 -151.5 -100t-186.5 -29q-115 0 -192 43q-64 36 -111 101l-8 -113h-295l186 1493h295zM705 690q-107 0 -170 -63q-76 -76 -76 -189q0 -98 59 -157
q62 -58 150 -58q100 0 168 68q36 34 56.5 86.5t20.5 103.5q0 97 -63 154q-55 55 -145 55z" />
    <glyph glyph-name="c" unicode="c" horiz-adv-x="882" 
d="M911 885l-34 -269q-92 78 -205 78q-109 0 -178 -69q-68 -71 -68 -183q0 -102 66 -161q65 -62 159 -62q105 0 187 74l-33 -270q-110 -54 -242 -54q-99 0 -173.5 28t-143.5 99q-123 133 -123 330q0 224 143 373q145 145 379 145q145 0 266 -59z" />
    <glyph glyph-name="d" unicode="d" horiz-adv-x="1232" 
d="M903 803l84 690h295l-184 -1493h-293l16 104q-49 -69 -121 -102q-67 -33 -176 -33q-168 0 -276 105q-125 125 -125 332q0 116 40.5 224t117.5 185q129 129 327 129q184 0 295 -141zM668 690q-101 0 -168 -67q-74 -74 -74 -187q0 -94 63 -157q56 -56 152 -56q107 0 170 70
q34 34 53 86t19 102q0 88 -60 148q-61 61 -155 61z" />
    <glyph glyph-name="e" unicode="e" horiz-adv-x="1110" 
d="M446 580h371q-11 79 -59 118q-45 37 -121 37q-84 0 -139 -55q-41 -45 -52 -100zM1100 399h-682q-3 -80 37 -137q45 -63 141 -63q76 0 117 26q37 25 63 82l297 -24q-65 -153 -166 -228q-115 -86 -313 -86q-107 0 -194 24t-162 99q-115 115 -115 320q0 137 46 240.5
t112 164.5q138 127 362 127q218 0 342 -117q43 -43 70.5 -102.5t36 -115.5t11.5 -113.5t-3 -96.5z" />
    <glyph glyph-name="f" unicode="f" horiz-adv-x="667" 
d="M737 676h-233l-82 -676h-295l82 676h-107l33 237h107l20 199q15 201 117 303q101 101 258 101q94 0 194 -37l-32 -254q-49 37 -105 37q-62 0 -92 -35q-39 -39 -49 -135l-21 -179h234z" />
    <glyph glyph-name="g" unicode="g" horiz-adv-x="1218" 
d="M901 803l10 110h295l-114 -917q-30 -224 -138 -332q-133 -133 -399 -133q-234 0 -354 115q-107 107 -127 250h315q13 -56 55 -91q44 -36 129 -36q105 0 162 67q49 54 62 170l12 98q-92 -129 -281 -129q-84 0 -150.5 21t-131.5 88q-123 129 -123 332q0 246 149 395
q133 133 328 133q183 0 301 -141zM655 688q-102 0 -161 -59q-30 -30 -49 -82t-19 -103q0 -101 61 -159q62 -56 148 -56q44 0 88.5 15.5t73.5 44.5q34 31 54.5 86t20.5 108q0 43 -16.5 84t-42.5 66q-55 55 -158 55z" />
    <glyph glyph-name="h" unicode="h" horiz-adv-x="1169" 
d="M307 1493h295l-86 -680q52 54 113 86q46 24 87 31.5t99 7.5q149 0 232 -78q77 -77 77 -217q0 -76 -14 -174l-55 -469h-295l49 395q12 82 12 148q0 71 -37 110q-39 39 -104 39q-88 0 -137 -49q-55 -55 -72 -192l-53 -451h-295z" />
    <glyph glyph-name="i" unicode="i" horiz-adv-x="565" 
d="M246 913h295l-113 -913h-295zM262 1227q5 68 53 113.5t115 45.5q66 0 110 -46.5t42 -112.5q-4 -67 -54 -113.5t-116 -46.5t-110 47t-40 113z" />
    <glyph glyph-name="j" unicode="j" horiz-adv-x="565" 
d="M246 913h295l-174 -1382h-295zM260 1227q5 68 53 113.5t115 45.5q66 0 110 -46.5t42 -112.5q-4 -67 -54 -113.5t-116 -46.5t-110 47t-40 113z" />
    <glyph glyph-name="k" unicode="k" horiz-adv-x="1159" 
d="M309 1493h295l-112 -915l335 335h394l-449 -419l414 -494h-379l-336 401l-53 -401h-295z" />
    <glyph glyph-name="l" unicode="l" horiz-adv-x="540" 
d="M307 1493h295l-184 -1493h-295z" />
    <glyph glyph-name="m" unicode="m" horiz-adv-x="1726" 
d="M115 0l112 913h295l-16 -106q42 60 108 94q81 35 156 35q101 0 166 -45q69 -53 94 -123q1 1 9 11.5t13.5 18.5t17.5 21t23 23.5t26.5 22.5t31.5 22q79 49 195 49q152 0 243 -84q39 -39 60 -83t24.5 -96.5t1.5 -87.5t-10 -93l-59 -492h-295l53 440q10 92 10 113
q0 67 -37 104q-33 33 -88 33q-67 0 -112 -45q-58 -58 -76 -205l-53 -440h-295l55 451q8 52 8 100q0 71 -33 104q-35 35 -94 35q-65 0 -112 -47q-25 -26 -41.5 -66.5t-22 -68t-10.5 -72.5l-53 -436h-295z" />
    <glyph glyph-name="n" unicode="n" horiz-adv-x="1161" 
d="M227 913h295l-14 -100q52 51 113 86q46 24 85.5 31.5t94.5 7.5q154 0 237 -78q78 -78 78 -217q0 -76 -14 -174l-55 -469h-295l49 395q12 82 12 148q0 71 -37 110q-39 39 -108 39q-84 0 -133 -49q-54 -54 -72 -192l-53 -451h-295z" />
    <glyph glyph-name="o" unicode="o" horiz-adv-x="1212" 
d="M690 944q112 0 214 -37t169 -104q123 -123 123 -309q0 -102 -38.5 -202.5t-108.5 -172.5q-89 -89 -192.5 -119.5t-227.5 -30.5q-52 0 -94.5 4.5t-94.5 17.5t-101 42t-91 73q-125 128 -125 322q0 102 37.5 195.5t109.5 164.5q76 74 185 115t235 41zM645 219q106 0 172 66
q76 73 76 194q0 100 -62 158q-57 57 -159 57q-95 0 -164 -63q-82 -73 -82 -195q0 -89 59 -155q62 -62 160 -62z" />
    <glyph glyph-name="p" unicode="p" horiz-adv-x="1224" 
d="M430 113l-74 -582h-295l170 1382h295l-16 -106q50 61 115 94q82 43 188 43q173 0 277 -100q56 -56 88 -146.5t32 -195.5q0 -126 -41.5 -233t-111.5 -177q-123 -123 -309 -123q-125 0 -199 39q-71 42 -119 105zM698 690q-103 0 -172 -69q-73 -73 -73 -185q0 -94 55 -149
q57 -64 154 -64q96 0 163 64q36 35 59 90t23 106q0 44 -17 87t-46 67q-59 53 -146 53z" />
    <glyph glyph-name="q" unicode="q" horiz-adv-x="1224" 
d="M901 803l12 110h295l-170 -1382h-295l70 565q-48 -57 -117 -92q-71 -35 -172 -35q-169 0 -282 113q-119 119 -119 334q0 250 151 401q124 127 338 127q100 0 166 -37q71 -35 123 -104zM672 690q-103 0 -172 -69q-74 -74 -74 -183q0 -97 55 -155q57 -60 150 -60
q95 0 164 62q82 70 82 200q0 92 -58 150q-55 55 -147 55z" />
    <glyph glyph-name="r" unicode="r" horiz-adv-x="786" 
d="M115 0l112 913h295l-26 -135q44 80 114 121q68 37 154 37q67 0 121 -14l-58 -275q-69 31 -129 31q-88 0 -151 -55q-63 -61 -88 -234l-49 -389h-295z" />
    <glyph glyph-name="s" unicode="s" horiz-adv-x="888" 
d="M877 852l-125 -182q-81 61 -172 61q-57 0 -88 -24q-21 -15 -21 -45q0 -32 29 -50q6 -6 71 -24l68 -19q34 -10 52.5 -16.5t50 -25.5t55.5 -44q67 -67 67 -174q0 -139 -86 -225q-108 -115 -321 -115q-143 0 -238 45q-72 33 -141 95l125 198q57 -53 112 -76q13 -8 49.5 -18
t77.5 -10q57 0 90 20q37 21 37 60q0 37 -28 57q-8 6 -19 10.5t-29.5 10t-23.5 6.5l-66 20q-99 28 -153 82q-62 67 -62 164q0 127 86 213q98 98 301 98q165 0 302 -92z" />
    <glyph glyph-name="t" unicode="t" horiz-adv-x="612" 
d="M684 676h-180l-84 -676h-295l84 676h-107l29 237h107l36 295h295l-37 -295h181z" />
    <glyph glyph-name="u" unicode="u" horiz-adv-x="1167" 
d="M866 913h295l-57 -493q-10 -103 -37.5 -186.5t-95.5 -147.5q-125 -117 -359 -117q-247 0 -356 105q-47 42 -72.5 107t-25.5 138q0 78 10 130l55 464h295l-53 -454q-10 -95 -10 -101q0 -69 39 -100q42 -39 120 -39q88 0 136 51q44 44 59 164z" />
    <glyph glyph-name="v" unicode="v" horiz-adv-x="1118" 
d="M111 913h307l174 -489l301 489h328l-582 -913h-176z" />
    <glyph glyph-name="w" unicode="w" horiz-adv-x="1744" 
d="M922 520l-297 -520h-189l-325 913h311l166 -485l289 485h172l190 -485l272 485h332l-551 -913h-184z" />
    <glyph glyph-name="x" unicode="x" horiz-adv-x="1269" 
d="M1294 913l-422 -419l377 -494h-372l-209 295l-269 -295h-393l479 494l-323 419h373l157 -235l209 235h393z" />
    <glyph glyph-name="y" unicode="y" horiz-adv-x="1193" 
d="M82 -469l377 586l-355 796h336l203 -499l307 499h346l-882 -1382h-332z" />
    <glyph glyph-name="z" unicode="z" horiz-adv-x="1021" 
d="M1130 913l-575 -667h457l-35 -246h-977l578 668h-412l37 245h927z" />
    <glyph glyph-name="braceleft" unicode="{" horiz-adv-x="1036" 
d="M582 557q57 -29 76.5 -71t19.5 -113q0 -28 -4 -74l-39 -328q-4 -28 -4 -34q0 -49 34.5 -68t122.5 -19h39l-26 -223q-94 -4 -154 -4q-46 0 -74 2t-67 14t-68 35q-71 59 -71 158q0 53 8 86l47 387q2 14 2 35q0 46 -23 80.5t-73 34.5l26 217q63 4 93 42.5t38 106.5l47 377
q4 35 8.5 58.5t15 56.5t30.5 62t49 52q87 66 266 66q81 0 127 -4l-27 -223h-79q-70 0 -103 -29t-41 -92l-41 -330q-11 -95 -50.5 -164.5t-104.5 -93.5z" />
    <glyph glyph-name="bar" unicode="|" horiz-adv-x="1032" 
d="M463 -512v2048h258v-2048h-258z" />
    <glyph glyph-name="braceright" unicode="}" horiz-adv-x="1036" 
d="M395 -29l41 330q26 215 154 258q-60 27 -78 66.5t-18 101.5q0 37 6 90l39 328q2 10 2 37q0 24 -10.5 40.5t-24.5 24.5t-38 12.5t-41 5.5t-44 1h-39l27 223q50 4 151 4q281 0 281 -209q0 -42 -6 -86l-45 -375q-2 -14 -2 -39q0 -47 26 -76t70 -34l-27 -217
q-31 -3 -54.5 -14.5t-37 -26t-22 -36t-12 -37t-5.5 -36.5l-49 -389q-5 -43 -8.5 -63t-14 -54.5t-29.5 -61t-48 -50.5q-83 -66 -246 -66q-84 0 -150 4l27 223h39q39 0 57.5 1t45.5 7t40.5 18t25.5 36t17 59z" />
    <glyph glyph-name="asciitilde" unicode="~" 
d="M586 461l-74 28q-8 3 -26 9.5t-27.5 9.5t-24 7t-27 5.5t-26.5 1.5q-100 0 -158 -125l-145 88l10 23q67 142 115 190q74 74 184 74q80 0 164 -35l92 -35q84 -32 141 -32q47 0 81 24.5t65 81.5l147 -86l-8 -16q-126 -254 -305 -254q-73 0 -178 41z" />
    <glyph glyph-name="uni00A0" unicode="&#xa0;" horiz-adv-x="477" 
 />
    <glyph glyph-name="exclamdown" unicode="&#xa1;" horiz-adv-x="610" 
d="M530 438l-110 -909h-320l111 909h319zM223 741q0 78 54.5 132.5t132.5 54.5t132 -54.5t54 -132.5t-54 -132t-132 -54t-132.5 54t-54.5 132z" />
    <glyph glyph-name="cent" unicode="&#xa2;" horiz-adv-x="1228" 
d="M1090 1114l-33 -266q-94 74 -197 74q-110 0 -178 -68q-72 -72 -72 -172q0 -94 60 -154q61 -61 166 -61q104 0 184 70l-35 -273q-73 -37 -168 -47l-22 -190h-185l27 204q-144 29 -238 142q-92 119 -92 286q0 117 38 213.5t101 159.5q121 121 302 135l20 185h184l-22 -193
q79 -9 160 -45z" />
    <glyph glyph-name="sterling" unicode="&#xa3;" horiz-adv-x="1228" 
d="M387 508h-225l22 188h154q-43 131 -43 248q0 197 125 322q131 131 364 131q222 0 344 -129q117 -121 117 -328q0 -37 -2 -55h-297q2 14 2 43q0 106 -51 159q-46 46 -121 46q-70 0 -119 -43q-65 -57 -65 -172q0 -57 45 -222h340l-25 -188h-299q2 -14 2 -37q0 -95 -53 -174
q73 -21 121 -41q3 -1 23 -9t27 -10.5t22.5 -7.5t28.5 -6.5t26 -1.5q49 0 78 31q29 32 37 67l213 -20q-23 -157 -109 -246q-49 -52 -101 -68t-120 -16q-55 0 -99 8.5t-112 36.5l-84 33q-72 31 -133 31q-95 0 -121 -88l-219 18q34 118 88 191q39 53 86 78.5t102 39.5
q35 60 35 134q0 42 -4 57z" />
    <glyph glyph-name="currency" unicode="&#xa4;" horiz-adv-x="1366" 
d="M264 137l-139 139l211 211q-90 112 -90 283q0 157 92 283l-213 213l139 139l213 -211q111 90 287 90q171 0 285 -90l211 211l139 -139l-209 -211q92 -117 92 -285q0 -78 -17.5 -147.5t-72.5 -135.5l211 -211l-139 -139l-211 211q-110 -92 -283 -92q-187 0 -295 90z
M764 485q118 0 199 78t81 207q0 126 -79 205q-80 80 -201 80q-125 0 -201 -80q-80 -80 -80 -205q0 -123 78 -201q40 -40 95.5 -62t107.5 -22z" />
    <glyph glyph-name="yen" unicode="&#xa5;" horiz-adv-x="1228" 
d="M494 711h-287l24 198h168l-219 457h344l187 -434l286 434h373l-338 -457h176l-24 -198h-299l-58 -72l-6 -57h346l-24 -199h-346l-47 -383h-299l47 383h-332l24 199h332l6 57z" />
    <glyph glyph-name="brokenbar" unicode="&#xa6;" horiz-adv-x="1032" 
d="M463 748v788h258v-788h-258zM463 -512v791h258v-791h-258z" />
    <glyph glyph-name="section" unicode="&#xa7;" horiz-adv-x="1175" 
d="M164 18h266q0 -86 45 -131q39 -39 107 -39q73 0 110 37q39 39 39 97q0 54 -39 90q-10 10 -21 18t-27 17t-26.5 14t-34 16.5t-34.5 16.5l-88 43q-106 52 -156 102q-90 90 -90 240q0 130 70 221q72 87 170 129q-125 77 -125 233q0 167 100 267q109 104 301 104
q216 0 316 -109q49 -52 75.5 -124t28.5 -144h-266q0 80 -39 119t-107 39q-69 0 -106 -37t-37 -94q0 -33 14.5 -56.5t46.5 -48.5q30 -22 129 -71l78 -37q121 -59 172 -125q72 -81 72 -230q0 -135 -70 -225q-54 -70 -151 -104q106 -94 106 -240q0 -168 -106 -274
q-109 -109 -303 -109q-202 0 -308 111q-50 52 -78.5 130t-33.5 154zM657 403q79 0 123 48q45 45 45 118q0 88 -47 125q-43 35 -116 35q-79 0 -121 -45q-47 -47 -47 -133q0 -64 43 -107q47 -41 120 -41z" />
    <glyph glyph-name="dieresis" unicode="&#xa8;" 
d="M279 1227q0 66 47.5 114t113.5 48t114 -48t48 -114t-48 -114t-114 -48t-113.5 48t-47.5 114zM725 1227q0 66 48 114t114 48t114 -48t48 -114t-48 -114t-114 -48t-114 48t-48 114z" />
    <glyph glyph-name="copyright" unicode="&#xa9;" horiz-adv-x="1560" 
d="M1120 1061v-250q-38 45 -92.5 73.5t-116.5 28.5q-99 0 -163 -61q-66 -60 -66 -172q0 -96 57 -160q66 -69 174 -69q68 0 121 30.5t86 69.5v-246q-110 -51 -227 -51q-201 0 -322 121q-118 125 -118 303q0 185 120 305q120 127 328 127q115 0 219 -49zM862 1270
q-100 0 -206.5 -43.5t-184.5 -116.5q-78 -76 -127 -190.5t-49 -235.5q0 -124 49 -238.5t127 -189.5q78 -73 184.5 -116.5t206.5 -43.5t206.5 43.5t184.5 116.5q78 75 127.5 190t49.5 238q0 120 -49.5 235t-127.5 191q-78 73 -184.5 116.5t-206.5 43.5zM1573 682
q0 -146 -55 -277.5t-156 -232.5q-206 -203 -500 -203t-500 203q-101 101 -155.5 232.5t-54.5 277.5q0 148 54.5 279.5t155.5 232.5q206 203 500 203t500 -203q101 -101 156 -232.5t55 -279.5z" />
    <glyph glyph-name="ordfeminine" unicode="&#xaa;" horiz-adv-x="714" 
d="M629 1350h172l-66 -541h-172l10 65q-71 -83 -178 -83q-105 0 -168 61q-73 68 -73 199q0 147 86 235q80 80 206 80q116 0 177 -80zM477 1214q-66 0 -106 -40q-39 -42 -39 -105q0 -57 33 -90q34 -37 98 -37q65 0 104 39q41 41 41 109q0 59 -37 92q-35 32 -94 32zM137 731
h588l-18 -135h-586z" />
    <glyph glyph-name="guillemotleft" unicode="&#xab;" horiz-adv-x="1093" 
d="M381 438l201 -325l-181 -97l-262 443l371 440l147 -133zM807 438l201 -325l-181 -97l-262 443l371 440l147 -133z" />
    <glyph glyph-name="logicalnot" unicode="&#xac;" 
d="M999 0h-258v305h-635v242h893v-547z" />
    <glyph glyph-name="uni00AD" unicode="&#xad;" horiz-adv-x="729" 
d="M150 389l32 258h525l-33 -258h-524z" />
    <glyph glyph-name="registered" unicode="&#xae;" horiz-adv-x="1560" 
d="M549 1083h291q166 0 245 -79q64 -64 64 -168q0 -90 -59 -156q-48 -48 -111 -62l219 -311h-272l-156 262v-262h-221v776zM770 920v-181h31q59 0 92 19q39 23 39 76q0 44 -29 65q-28 21 -104 21h-29zM862 1270q-100 0 -206.5 -43.5t-184.5 -116.5q-78 -76 -127 -190.5
t-49 -235.5q0 -124 49 -238.5t127 -189.5q78 -73 184.5 -116.5t206.5 -43.5t206.5 43.5t184.5 116.5q78 75 127.5 190t49.5 238q0 120 -49.5 235t-127.5 191q-78 73 -184.5 116.5t-206.5 43.5zM1573 682q0 -146 -55 -277.5t-156 -232.5q-206 -203 -500 -203t-500 203
q-101 101 -155.5 232.5t-54.5 277.5q0 148 54.5 279.5t155.5 232.5q206 203 500 203t500 -203q101 -101 156 -232.5t55 -279.5z" />
    <glyph glyph-name="macron" unicode="&#xaf;" 
d="M260 1112l23 184h778l-23 -184h-778z" />
    <glyph glyph-name="degree" unicode="&#xb0;" horiz-adv-x="1028" 
d="M481 1055q0 -62 45.5 -107t110.5 -45t110.5 45t45.5 107t-45.5 106.5t-110.5 44.5t-110.5 -44.5t-45.5 -106.5zM322 1055q0 130 91 220.5t224 90.5t224 -90.5t91 -220.5t-91 -221t-224 -91t-224 91t-91 221z" />
    <glyph glyph-name="plusminus" unicode="&#xb1;" 
d="M129 729v238h315v317h258v-317h316v-238h-316v-317h-258v317h-315zM129 104v238h889v-238h-889z" />
    <glyph glyph-name="twosuperior" unicode="&#xb2;" horiz-adv-x="808" 
d="M127 563l244 244q20 20 54 53.5t49 48.5t36 37.5t34.5 40t24.5 35.5q37 56 37 113q0 45 -31 71q-27 21 -67 21q-39 0 -66 -27q-31 -31 -43 -96h-192q27 141 100 209q78 78 207 78q135 0 213 -64q86 -73 86 -184q0 -84 -51 -166q-9 -15 -18.5 -28.5t-21.5 -27l-20 -22.5
t-23 -22.5t-21.5 -19.5t-24.5 -21t-23 -19l-108 -94h268l-20 -160h-623z" />
    <glyph glyph-name="threesuperior" unicode="&#xb3;" horiz-adv-x="808" 
d="M158 811h192q6 -49 35 -78q33 -33 86 -33q51 0 88 29q33 26 33 82q0 45 -37 74q-14 11 -33.5 16t-31.5 5.5t-39 0.5h-13l17 144h20q68 0 98 24q33 26 33 74q0 43 -28 65q-29 21 -64 21q-43 0 -72 -29q-16 -16 -30 -69h-185q18 108 86 176q78 78 213 78q139 0 213 -74
q62 -62 62 -164q0 -63 -31 -106q-30 -47 -84 -64q38 -17 68 -47q41 -48 41 -117q0 -127 -82 -203q-81 -79 -238 -79q-152 0 -231 79q-77 77 -86 195z" />
    <glyph glyph-name="acute" unicode="&#xb4;" 
d="M829 1464l177 -133l-347 -276l-120 98z" />
    <glyph glyph-name="mu" unicode="&#xb5;" horiz-adv-x="1167" 
d="M350 -471h-289l170 1384h295l-49 -399q-12 -111 -12 -143q0 -94 41 -135q40 -43 108 -43q74 0 117 40q26 24 42.5 67.5t22 73.5t15.5 99l55 440h295l-112 -913h-289l14 109q-19 -45 -65 -91q-45 -38 -119 -38q-72 0 -113 43q-38 38 -55 104z" />
    <glyph glyph-name="paragraph" unicode="&#xb6;" horiz-adv-x="1349" 
d="M641 -193h-221l102 850h-14q-83 0 -150.5 26.5t-111.5 70.5q-76 80 -76 207q0 87 27 161.5t75 122.5q69 73 172 97t240 24h686l-24 -199h-148l-166 -1360h-221l166 1360h-170z" />
    <glyph glyph-name="periodcentered" unicode="&#xb7;" horiz-adv-x="524" 
d="M109 684q0 94 63.5 157.5t157.5 63.5t157.5 -63.5t63.5 -157.5t-63.5 -157.5t-157.5 -63.5t-157.5 63.5t-63.5 157.5z" />
    <glyph glyph-name="cedilla" unicode="&#xb8;" 
d="M514 -94l193 -105l-258 -284l-152 82z" />
    <glyph glyph-name="onesuperior" unicode="&#xb9;" horiz-adv-x="808" 
d="M399 563l78 643h-135l20 160h324l-98 -803h-189z" />
    <glyph glyph-name="ordmasculine" unicode="&#xba;" horiz-adv-x="720" 
d="M492 1366q162 0 247 -92q72 -80 72 -191q0 -122 -82 -204q-54 -54 -118.5 -71t-141.5 -17q-148 0 -233 67q-91 81 -91 207q0 134 93 215q95 86 254 86zM483 1214q-68 0 -104 -40q-41 -47 -41 -109q0 -56 37 -90q33 -33 90 -33q63 0 113 39q40 40 40 102q0 67 -38 99
q-41 32 -97 32zM123 731h614l-16 -135h-615z" />
    <glyph glyph-name="guillemotright" unicode="&#xbb;" horiz-adv-x="1093" 
d="M401 479l-198 328l176 92l264 -440l-373 -443l-151 138zM827 479l-198 328l176 92l264 -440l-373 -443l-151 138z" />
    <glyph glyph-name="onequarter" unicode="&#xbc;" horiz-adv-x="1761" 
d="M381 547l80 659h-137l20 160h326l-101 -819h-188zM356 20l967 1369l133 -48l-967 -1370zM1604 819l-64 -512h94l-18 -151h-94l-19 -156h-180l18 156h-393l13 102l425 561h218zM1167 307h193l39 303z" />
    <glyph glyph-name="onehalf" unicode="&#xbd;" horiz-adv-x="1761" 
d="M334 563l78 643h-136l21 160h324l-99 -803h-188zM307 20l967 1369l133 -48l-967 -1370zM977 0l244 244l39.5 39.5l37.5 37.5t29.5 30t29.5 31t22.5 25.5t22.5 27.5t17 24q37 53 37 114q0 44 -31 70q-27 21 -67 21q-47 0 -74 -37q-25 -37 -35 -86h-192q27 141 100 209
q77 77 207 77q144 0 227 -77q72 -64 72 -170q0 -86 -51 -166q-9 -15 -18.5 -28.5t-21.5 -27l-20 -22.5t-23 -22.5t-21.5 -19.5t-24.5 -21t-23 -19l-108 -94h268l-21 -160h-622z" />
    <glyph glyph-name="threequarters" unicode="&#xbe;" horiz-adv-x="1761" 
d="M160 817h192q0 -51 31 -82q28 -28 82 -28q62 0 94 32q35 32 35 82q0 45 -37 72q-27 20 -94 20h-23l17 144h20q68 0 98 26q33 26 33 74q0 34 -28 62q-28 22 -68 22q-41 0 -70 -29q-14 -16 -28 -69h-185q18 108 86 176q78 78 205 78q123 0 205 -58q78 -60 78 -157
q0 -60 -31 -111q-30 -47 -84 -70q38 -17 68 -47q41 -48 41 -116q0 -121 -86 -207q-90 -88 -236 -88q-164 0 -246 86q-69 75 -69 188zM459 20l966 1369l134 -48l-967 -1370zM1270 307h192l39 303zM1706 819l-64 -512h95l-19 -151h-94l-18 -156h-181l19 156h-393l12 102
l426 561h217z" />
    <glyph glyph-name="questiondown" unicode="&#xbf;" horiz-adv-x="1075" 
d="M489 459h299l-45 -375q-35 6 -104 6q-135 0 -199 -61q-53 -46 -53 -131q0 -62 37 -101q39 -39 106 -39q64 0 101 37q43 43 47 117h307q-8 -81 -41 -162.5t-86 -134.5q-111 -111 -326 -111q-218 0 -337 117q-109 106 -109 275q0 177 113 290q108 108 270 119zM487 741
q0 78 54.5 132.5t132.5 54.5t132 -54.5t54 -132.5t-54 -132t-132 -54t-132.5 54t-54.5 132z" />
    <glyph glyph-name="Agrave" unicode="&#xc0;" horiz-adv-x="1386" 
d="M1059 0l-70 258h-516l-129 -258h-340l721 1366h291l366 -1366h-323zM592 500h340l-111 481zM924 1493l-281 256l172 141l227 -282z" />
    <glyph glyph-name="Aacute" unicode="&#xc1;" horiz-adv-x="1386" 
d="M1059 0l-70 258h-516l-129 -258h-340l721 1366h291l366 -1366h-323zM592 500h340l-111 481zM1219 1735l-373 -242l-103 123l336 274z" />
    <glyph glyph-name="Acircumflex" unicode="&#xc2;" horiz-adv-x="1386" 
d="M1059 0l-70 258h-516l-129 -258h-340l721 1366h291l366 -1366h-323zM592 500h340l-111 481zM905 1638l-192 -145l-133 113l350 268l274 -268l-149 -113z" />
    <glyph glyph-name="Atilde" unicode="&#xc3;" horiz-adv-x="1386" 
d="M1059 0l-70 258h-516l-129 -258h-340l721 1366h291l366 -1366h-323zM592 500h340l-111 481zM1128 1753l105 -84q-29 -45 -92 -108q-71 -56 -144 -54q-28 0 -88 25l-63 29q-49 22 -78 22q-52 0 -92 -70l-96 78q48 82 90 115q53 53 133 53q47 0 96 -22l59 -27
q44 -27 86 -27q54 0 84 70z" />
    <glyph glyph-name="Adieresis" unicode="&#xc4;" horiz-adv-x="1386" 
d="M1059 0l-70 258h-516l-129 -258h-340l721 1366h291l366 -1366h-323zM592 500h340l-111 481zM516 1661q0 66 48 114t114 48t114 -48t48 -114t-48 -114t-114 -48t-114 48t-48 114zM963 1661q0 66 47.5 114t113.5 48t114 -48t48 -114t-48 -114t-114 -48t-113.5 48t-47.5 114
z" />
    <glyph glyph-name="Aring" unicode="&#xc5;" horiz-adv-x="1386" 
d="M1059 0l-70 258h-516l-129 -258h-340l721 1366h291l366 -1366h-323zM592 500h340l-111 481zM1133 1694q0 -79 -56 -135q-72 -66 -182 -66t-182 66q-56 56 -56 135t56 135q71 65 182 65t182 -65q56 -56 56 -135zM895 1774q-45 0 -70 -25q-24 -24 -24 -55q0 -32 24 -56
t70 -24t70 24t24 56q0 31 -24 55q-25 25 -70 25z" />
    <glyph glyph-name="AE" unicode="&#xc6;" horiz-adv-x="1884" 
d="M1077 0l-71 264h-523l-135 -264h-336l727 1366h777l65 -266h-475l72 -264h471l69 -267h-473l84 -303h475l68 -266h-795zM604 506h344l-112 448z" />
    <glyph glyph-name="Ccedilla" unicode="&#xc7;" horiz-adv-x="1239" 
d="M1202 383l-41 -340q-145 -74 -332 -74q-91 0 -171.5 17.5t-139.5 47.5t-98.5 58t-71.5 60q-184 184 -184 473q0 173 58 315.5t159 243.5q95 95 232.5 154t314.5 59q213 0 387 -99l-39 -333q-137 137 -342 137q-206 0 -324 -129q-61 -65 -92 -150.5t-31 -171.5
q0 -84 29 -157.5t78 -122.5q107 -107 289 -107q175 0 319 119zM770 -94l205 -103l-246 -286l-164 82z" />
    <glyph glyph-name="Egrave" unicode="&#xc8;" horiz-adv-x="1028" 
d="M1065 1366l-33 -266h-446l-33 -264h430l-33 -267h-430l-37 -303h455l-33 -266h-762l168 1366h754zM766 1493l-281 256l172 141l228 -282z" />
    <glyph glyph-name="Eacute" unicode="&#xc9;" horiz-adv-x="1028" 
d="M1065 1366l-33 -266h-446l-33 -264h430l-33 -267h-430l-37 -303h455l-33 -266h-762l168 1366h754zM1026 1735l-373 -242l-102 123l336 274z" />
    <glyph glyph-name="Ecircumflex" unicode="&#xca;" horiz-adv-x="1028" 
d="M1065 1366l-33 -266h-446l-33 -264h430l-33 -267h-430l-37 -303h455l-33 -266h-762l168 1366h754zM723 1638l-193 -145l-133 113l351 268l274 -268l-150 -113z" />
    <glyph glyph-name="Edieresis" unicode="&#xcb;" horiz-adv-x="1028" 
d="M1065 1366l-33 -266h-446l-33 -264h430l-33 -267h-430l-37 -303h455l-33 -266h-762l168 1366h754zM326 1661q0 66 47.5 114t113.5 48t114 -48t48 -114t-48 -114t-114 -48t-113.5 48t-47.5 114zM772 1661q0 66 48 114t114 48t114 -48t48 -114t-48 -114t-114 -48t-114 48
t-48 114z" />
    <glyph glyph-name="Igrave" unicode="&#xcc;" horiz-adv-x="626" 
d="M317 1366h316l-168 -1366h-315zM549 1493l-281 256l172 141l228 -282z" />
    <glyph glyph-name="Iacute" unicode="&#xcd;" horiz-adv-x="626" 
d="M317 1366h316l-168 -1366h-315zM799 1735l-373 -242l-102 123l335 274z" />
    <glyph glyph-name="Icircumflex" unicode="&#xce;" horiz-adv-x="626" 
d="M317 1366h316l-168 -1366h-315zM250 1487l-131 145l420 287l352 -287l-135 -145l-234 190z" />
    <glyph glyph-name="Idieresis" unicode="&#xcf;" horiz-adv-x="626" 
d="M317 1366h316l-168 -1366h-315zM123 1661q0 66 48 114t114 48t113.5 -48t47.5 -114t-47.5 -114t-113.5 -48t-114 48t-48 114zM569 1661q0 66 48 114t114 48t114 -48t48 -114t-48 -114t-114 -48t-114 48t-48 114z" />
    <glyph glyph-name="Eth" unicode="&#xd0;" horiz-adv-x="1458" 
d="M303 846l64 520h399q348 0 522 -174q74 -74 119 -188.5t45 -266.5q0 -109 -22.5 -205.5t-58.5 -163.5t-68 -109t-64 -71q-111 -105 -263.5 -146.5t-357.5 -41.5h-419l75 621h-184l29 225h184zM649 1100l-31 -254h246l-28 -225h-246l-43 -355h96q231 0 348 105
q63 57 100 148.5t37 209.5q0 180 -98 275q-48 46 -125.5 71t-159.5 25h-96z" />
    <glyph glyph-name="Ntilde" unicode="&#xd1;" horiz-adv-x="1630" 
d="M459 0h-316l170 1366h275l629 -889l110 889h315l-167 -1366h-275l-633 893zM1315 1776l133 -103q-41 -67 -96 -119q-72 -63 -158 -63q-48 0 -127 31l-68 26q-74 31 -106 31q-63 0 -105 -80l-133 103q36 66 82 112q70 70 168 70q55 0 129 -29l70 -29q67 -28 104 -28
q34 0 57.5 18.5t49.5 59.5z" />
    <glyph glyph-name="Ograve" unicode="&#xd2;" horiz-adv-x="1658" 
d="M950 1397q320 0 510 -178q91 -89 142 -213.5t51 -272.5q0 -153 -54 -299.5t-157 -253.5q-211 -211 -565 -211q-150 0 -279.5 41.5t-241.5 153.5q-192 200 -192 477q0 172 60.5 311.5t164.5 237.5q219 207 561 207zM938 1106q-201 0 -326 -131q-60 -63 -92.5 -145
t-32.5 -168q0 -176 111 -287q110 -115 299 -115q193 0 305 117q58 60 92.5 147t34.5 189q0 180 -108 286q-109 107 -283 107zM1067 1493l-281 256l172 141l228 -282z" />
    <glyph glyph-name="Oacute" unicode="&#xd3;" horiz-adv-x="1658" 
d="M950 1397q320 0 510 -178q91 -89 142 -213.5t51 -272.5q0 -153 -54 -299.5t-157 -253.5q-211 -211 -565 -211q-150 0 -279.5 41.5t-241.5 153.5q-192 200 -192 477q0 172 60.5 311.5t164.5 237.5q219 207 561 207zM938 1106q-201 0 -326 -131q-60 -63 -92.5 -145
t-32.5 -168q0 -176 111 -287q110 -115 299 -115q193 0 305 117q58 60 92.5 147t34.5 189q0 180 -108 286q-109 107 -283 107zM1370 1735l-373 -242l-102 123l336 274z" />
    <glyph glyph-name="Ocircumflex" unicode="&#xd4;" horiz-adv-x="1658" 
d="M950 1397q320 0 510 -178q91 -89 142 -213.5t51 -272.5q0 -153 -54 -299.5t-157 -253.5q-211 -211 -565 -211q-150 0 -279.5 41.5t-241.5 153.5q-192 200 -192 477q0 172 60.5 311.5t164.5 237.5q219 207 561 207zM938 1106q-201 0 -326 -131q-60 -63 -92.5 -145
t-32.5 -168q0 -176 111 -287q110 -115 299 -115q193 0 305 117q58 60 92.5 147t34.5 189q0 180 -108 286q-109 107 -283 107zM1026 1638l-192 -145l-134 113l351 268l274 -268l-149 -113z" />
    <glyph glyph-name="Otilde" unicode="&#xd5;" horiz-adv-x="1658" 
d="M950 1397q320 0 510 -178q91 -89 142 -213.5t51 -272.5q0 -153 -54 -299.5t-157 -253.5q-211 -211 -565 -211q-150 0 -279.5 41.5t-241.5 153.5q-192 200 -192 477q0 172 60.5 311.5t164.5 237.5q219 207 561 207zM938 1106q-201 0 -326 -131q-60 -63 -92.5 -145
t-32.5 -168q0 -176 111 -287q110 -115 299 -115q193 0 305 117q58 60 92.5 147t34.5 189q0 180 -108 286q-109 107 -283 107zM1264 1753l104 -84q-29 -45 -92 -108q-71 -56 -143 -54q-29 0 -89 25l-63 29q-49 22 -78 22q-52 0 -92 -70l-96 78q48 82 90 115q53 53 133 53
q47 0 96 -22l60 -27q44 -27 86 -27q54 0 84 70z" />
    <glyph glyph-name="Odieresis" unicode="&#xd6;" horiz-adv-x="1658" 
d="M950 1397q320 0 510 -178q91 -89 142 -213.5t51 -272.5q0 -153 -54 -299.5t-157 -253.5q-211 -211 -565 -211q-150 0 -279.5 41.5t-241.5 153.5q-192 200 -192 477q0 172 60.5 311.5t164.5 237.5q219 207 561 207zM938 1106q-201 0 -326 -131q-60 -63 -92.5 -145
t-32.5 -168q0 -176 111 -287q110 -115 299 -115q193 0 305 117q58 60 92.5 147t34.5 189q0 180 -108 286q-109 107 -283 107zM608 1661q0 66 48 114t114 48t114 -48t48 -114t-48 -114t-114 -48t-114 48t-48 114zM1055 1661q0 66 48 114t114 48t113.5 -48t47.5 -114
t-47.5 -114t-113.5 -48t-114 48t-48 114z" />
    <glyph glyph-name="multiply" unicode="&#xd7;" 
d="M178 446l242 242l-242 244l178 178l242 -244l242 244l172 -172l-242 -242l242 -243l-178 -179l-242 244l-244 -242z" />
    <glyph glyph-name="Oslash" unicode="&#xd8;" horiz-adv-x="1724" 
d="M84 76l223 198q-106 175 -106 377q0 165 60.5 302.5t164.5 236.5q219 207 561 207q127 0 233 -29t212 -96l213 190l161 -172l-215 -190q99 -181 99 -365q0 -148 -54 -300t-157 -255q-211 -211 -568 -211q-137 0 -241 30t-205 101l-221 -196zM557 496l629 559
q-90 51 -211 51q-201 0 -326 -131q-60 -63 -92.5 -145t-32.5 -168q0 -96 33 -166zM1339 874l-630 -557q101 -57 225 -57q191 0 305 117q63 65 95 154t32 182q0 87 -27 161z" />
    <glyph glyph-name="Ugrave" unicode="&#xd9;" horiz-adv-x="1454" 
d="M309 1366h316l-90 -745q-11 -79 -11 -119q0 -116 60 -176q69 -62 180 -62q133 0 201 68q31 31 52 83.5t27 86t13 90.5l94 774h315l-98 -795q-25 -179 -47 -252q-38 -121 -115 -202q-48 -50 -109 -82t-127 -45t-111 -17t-101 -4q-129 0 -238.5 29t-193.5 113
q-121 115 -121 315q0 68 16 215zM934 1493l-281 256l172 141l228 -282z" />
    <glyph glyph-name="Uacute" unicode="&#xda;" horiz-adv-x="1454" 
d="M309 1366h316l-90 -745q-11 -79 -11 -119q0 -116 60 -176q69 -62 180 -62q133 0 201 68q31 31 52 83.5t27 86t13 90.5l94 774h315l-98 -795q-25 -179 -47 -252q-38 -121 -115 -202q-48 -50 -109 -82t-127 -45t-111 -17t-101 -4q-129 0 -238.5 29t-193.5 113
q-121 115 -121 315q0 68 16 215zM1249 1735l-372 -242l-103 123l336 274z" />
    <glyph glyph-name="Ucircumflex" unicode="&#xdb;" horiz-adv-x="1454" 
d="M309 1366h316l-90 -745q-11 -79 -11 -119q0 -116 60 -176q69 -62 180 -62q133 0 201 68q31 31 52 83.5t27 86t13 90.5l94 774h315l-98 -795q-25 -179 -47 -252q-38 -121 -115 -202q-48 -50 -109 -82t-127 -45t-111 -17t-101 -4q-129 0 -238.5 29t-193.5 113
q-121 115 -121 315q0 68 16 215zM641 1487l-131 145l420 287l352 -287l-135 -145l-234 190z" />
    <glyph glyph-name="Udieresis" unicode="&#xdc;" horiz-adv-x="1454" 
d="M309 1366h316l-90 -745q-11 -79 -11 -119q0 -116 60 -176q69 -62 180 -62q133 0 201 68q31 31 52 83.5t27 86t13 90.5l94 774h315l-98 -795q-25 -179 -47 -252q-38 -121 -115 -202q-48 -50 -109 -82t-127 -45t-111 -17t-101 -4q-129 0 -238.5 29t-193.5 113
q-121 115 -121 315q0 68 16 215zM526 1661q0 66 48 114t114 48t114 -48t48 -114t-48 -114t-114 -48t-114 48t-48 114zM973 1661q0 66 48 114t114 48t113.5 -48t47.5 -114t-47.5 -114t-113.5 -48t-114 48t-48 114z" />
    <glyph glyph-name="Yacute" unicode="&#xdd;" horiz-adv-x="1294" 
d="M483 0l78 637l-399 729h360l223 -424l326 424h385l-579 -729l-78 -637h-316zM1137 1735l-373 -242l-102 123l335 274z" />
    <glyph glyph-name="Thorn" unicode="&#xde;" horiz-adv-x="1171" 
d="M311 1366h316l-23 -188h129q67 0 108.5 -2.5t97.5 -13t101.5 -35t85.5 -64.5q111 -111 111 -293q0 -114 -35.5 -207t-97.5 -151q-132 -121 -428 -121h-182l-35 -291h-316zM573 920l-47 -371h117q47 0 77.5 2.5t72.5 16.5t69 40q53 53 53 142q0 78 -45 118q-54 52 -188 52
h-109z" />
    <glyph glyph-name="germandbls" unicode="&#xdf;" horiz-adv-x="1198" 
d="M418 0h-295l127 1028q34 244 141 358q124 130 340 130q213 0 336 -123q102 -105 102 -267q0 -136 -69 -217q-59 -72 -156 -98q74 -23 137 -80q109 -107 109 -274q0 -225 -129 -348q-85 -81 -209.5 -109.5t-300.5 -28.5h-12l32 254h11q161 0 233 72q30 31 47 77t17 89
q0 129 -76 182q-61 43 -180 43l32 250h11q97 0 149 39q66 51 66 135q0 77 -43 111q-39 39 -113 39q-70 0 -111 -41q-23 -22 -37.5 -55t-19.5 -58t-10 -66z" />
    <glyph glyph-name="agrave" unicode="&#xe0;" horiz-adv-x="1224" 
d="M909 803l9 110h294l-112 -913h-295l22 104q-58 -69 -129 -102q-67 -33 -170 -33q-89 0 -156.5 26t-125.5 87q-123 130 -123 336q0 243 147 393q133 133 336 133q111 0 178 -35q73 -33 125 -106zM670 690q-107 0 -174 -67q-70 -70 -70 -183q0 -96 59 -155q57 -62 156 -62
q106 0 168 62q78 72 78 196q0 101 -64 158q-55 51 -153 51zM850 1047l-281 256l172 141l228 -283z" />
    <glyph glyph-name="aacute" unicode="&#xe1;" horiz-adv-x="1224" 
d="M909 803l9 110h294l-112 -913h-295l22 104q-58 -69 -129 -102q-67 -33 -170 -33q-89 0 -156.5 26t-125.5 87q-123 130 -123 336q0 243 147 393q133 133 336 133q111 0 178 -35q73 -33 125 -106zM670 690q-107 0 -174 -67q-70 -70 -70 -183q0 -96 59 -155q57 -62 156 -62
q106 0 168 62q78 72 78 196q0 101 -64 158q-55 51 -153 51zM1124 1288l-372 -241l-103 122l336 275z" />
    <glyph glyph-name="acircumflex" unicode="&#xe2;" horiz-adv-x="1224" 
d="M909 803l9 110h294l-112 -913h-295l22 104q-58 -69 -129 -102q-67 -33 -170 -33q-89 0 -156.5 26t-125.5 87q-123 130 -123 336q0 243 147 393q133 133 336 133q111 0 178 -35q73 -33 125 -106zM670 690q-107 0 -174 -67q-70 -70 -70 -183q0 -96 59 -155q57 -62 156 -62
q106 0 168 62q78 72 78 196q0 101 -64 158q-55 51 -153 51zM805 1192l-193 -145l-133 112l350 268l275 -268l-150 -112z" />
    <glyph glyph-name="atilde" unicode="&#xe3;" horiz-adv-x="1224" 
d="M909 803l9 110h294l-112 -913h-295l22 104q-58 -69 -129 -102q-67 -33 -170 -33q-89 0 -156.5 26t-125.5 87q-123 130 -123 336q0 243 147 393q133 133 336 133q111 0 178 -35q73 -33 125 -106zM670 690q-107 0 -174 -67q-70 -70 -70 -183q0 -96 59 -155q57 -62 156 -62
q106 0 168 62q78 72 78 196q0 101 -64 158q-55 51 -153 51zM1032 1323l105 -84q-29 -45 -93 -109q-70 -55 -143 -53q-28 0 -88 25l-63 28q-51 23 -78 23q-52 0 -92 -70l-97 78q48 82 90 115q53 53 134 53q47 0 96 -22l59 -27q44 -27 86 -27q54 0 84 70z" />
    <glyph glyph-name="adieresis" unicode="&#xe4;" horiz-adv-x="1224" 
d="M909 803l9 110h294l-112 -913h-295l22 104q-58 -69 -129 -102q-67 -33 -170 -33q-89 0 -156.5 26t-125.5 87q-123 130 -123 336q0 243 147 393q133 133 336 133q111 0 178 -35q73 -33 125 -106zM670 690q-107 0 -174 -67q-70 -70 -70 -183q0 -96 59 -155q57 -62 156 -62
q106 0 168 62q78 72 78 196q0 101 -64 158q-55 51 -153 51zM319 1227q0 66 48 114t114 48t114 -48t48 -114t-48 -114t-114 -48t-114 48t-48 114zM766 1227q0 66 48 114t114 48t114 -48t48 -114t-48 -114t-114 -48t-114 48t-48 114z" />
    <glyph glyph-name="aring" unicode="&#xe5;" horiz-adv-x="1224" 
d="M909 803l9 110h294l-112 -913h-295l22 104q-58 -69 -129 -102q-67 -33 -170 -33q-89 0 -156.5 26t-125.5 87q-123 130 -123 336q0 243 147 393q133 133 336 133q111 0 178 -35q73 -33 125 -106zM670 690q-107 0 -174 -67q-70 -70 -70 -183q0 -96 59 -155q57 -62 156 -62
q106 0 168 62q78 72 78 196q0 101 -64 158q-55 51 -153 51zM676 1331q-43 0 -64 -18q-26 -26 -26 -56q0 -29 26 -55q21 -18 64 -18q42 0 63 18q27 27 27 55q0 29 -27 56q-21 18 -63 18zM909 1257q0 -78 -55 -133q-67 -63 -178 -63t-178 63q-56 56 -56 133q0 78 56 134
q67 63 178 63t178 -63q55 -55 55 -134z" />
    <glyph glyph-name="ae" unicode="&#xe6;" horiz-adv-x="1720" 
d="M1399 289l274 -19q-57 -152 -178 -231q-104 -70 -276 -70q-142 0 -232 41q-84 39 -135 113q-56 -75 -154 -121q-92 -33 -217 -33q-192 0 -284 74q-97 80 -97 211q0 163 129 252q97 65 281 65q155 0 238 -55q18 111 -54 168q-54 43 -159 43q-103 0 -236 -45l27 225
q136 37 260 37q255 0 332 -158q28 30 50 49.5t66.5 48.5t105.5 44.5t134 15.5q198 0 313 -115q121 -121 121 -327q0 -55 -8 -96h-676q0 -44 13 -91t40 -75q45 -56 148 -56q119 0 174 105zM549 393q-91 0 -137 -49q-29 -29 -29 -70q0 -37 31 -65q39 -39 123 -39q87 0 139 41
q37 34 37 80q0 32 -29 61q-46 41 -135 41zM1055 582h391q-13 65 -62 114q-46 43 -124 43q-85 0 -136 -47q-49 -43 -69 -110z" />
    <glyph glyph-name="ccedilla" unicode="&#xe7;" horiz-adv-x="882" 
d="M911 885l-34 -269q-92 78 -205 78q-109 0 -178 -69q-68 -71 -68 -183q0 -102 66 -161q65 -62 159 -62q105 0 187 74l-33 -270q-110 -54 -242 -54q-99 0 -173.5 28t-143.5 99q-123 133 -123 330q0 224 143 373q145 145 379 145q145 0 266 -59zM524 -94l193 -105l-258 -284
l-152 82z" />
    <glyph glyph-name="egrave" unicode="&#xe8;" horiz-adv-x="1110" 
d="M446 580h371q-11 79 -59 118q-45 37 -121 37q-84 0 -139 -55q-41 -45 -52 -100zM1100 399h-682q-3 -80 37 -137q45 -63 141 -63q76 0 117 26q37 25 63 82l297 -24q-65 -153 -166 -228q-115 -86 -313 -86q-107 0 -194 24t-162 99q-115 115 -115 320q0 137 46 240.5
t112 164.5q138 127 362 127q218 0 342 -117q43 -43 70.5 -102.5t36 -115.5t11.5 -113.5t-3 -96.5zM719 1047l-281 256l172 141l228 -283z" />
    <glyph glyph-name="eacute" unicode="&#xe9;" horiz-adv-x="1110" 
d="M446 580h371q-11 79 -59 118q-45 37 -121 37q-84 0 -139 -55q-41 -45 -52 -100zM1100 399h-682q-3 -80 37 -137q45 -63 141 -63q76 0 117 26q37 25 63 82l297 -24q-65 -153 -166 -228q-115 -86 -313 -86q-107 0 -194 24t-162 99q-115 115 -115 320q0 137 46 240.5
t112 164.5q138 127 362 127q218 0 342 -117q43 -43 70.5 -102.5t36 -115.5t11.5 -113.5t-3 -96.5zM1034 1288l-372 -241l-103 122l336 275z" />
    <glyph glyph-name="ecircumflex" unicode="&#xea;" horiz-adv-x="1110" 
d="M446 580h371q-11 79 -59 118q-45 37 -121 37q-84 0 -139 -55q-41 -45 -52 -100zM1100 399h-682q-3 -80 37 -137q45 -63 141 -63q76 0 117 26q37 25 63 82l297 -24q-65 -153 -166 -228q-115 -86 -313 -86q-107 0 -194 24t-162 99q-115 115 -115 320q0 137 46 240.5
t112 164.5q138 127 362 127q218 0 342 -117q43 -43 70.5 -102.5t36 -115.5t11.5 -113.5t-3 -96.5zM707 1192l-193 -145l-133 112l350 268l275 -268l-150 -112z" />
    <glyph glyph-name="edieresis" unicode="&#xeb;" horiz-adv-x="1110" 
d="M446 580h371q-11 79 -59 118q-45 37 -121 37q-84 0 -139 -55q-41 -45 -52 -100zM1100 399h-682q-3 -80 37 -137q45 -63 141 -63q76 0 117 26q37 25 63 82l297 -24q-65 -153 -166 -228q-115 -86 -313 -86q-107 0 -194 24t-162 99q-115 115 -115 320q0 137 46 240.5
t112 164.5q138 127 362 127q218 0 342 -117q43 -43 70.5 -102.5t36 -115.5t11.5 -113.5t-3 -96.5zM301 1227q0 66 48 114t114 48t114 -48t48 -114t-48 -114t-114 -48t-114 48t-48 114zM748 1227q0 66 47.5 114t113.5 48t114 -48t48 -114t-48 -114t-114 -48t-113.5 48
t-47.5 114z" />
    <glyph glyph-name="igrave" unicode="&#xec;" horiz-adv-x="565" 
d="M246 913h295l-113 -913h-295zM461 1047l-281 256l172 141l228 -283z" />
    <glyph glyph-name="iacute" unicode="&#xed;" horiz-adv-x="565" 
d="M246 913h295l-113 -913h-295zM733 1288l-373 -241l-102 122l336 275z" />
    <glyph glyph-name="icircumflex" unicode="&#xee;" horiz-adv-x="565" 
d="M248 913h295l-113 -913h-295zM440 1233l-215 -178l-121 141l361 291l291 -291l-148 -141z" />
    <glyph glyph-name="idieresis" unicode="&#xef;" horiz-adv-x="565" 
d="M248 913h295l-113 -913h-295zM98 1227q0 66 43 114t103 48q55 0 100 -44t45 -118t-45 -118t-100 -44q-60 0 -103 48t-43 114zM483 1227q0 74 45.5 118t100.5 44q60 0 102.5 -48t42.5 -114t-42.5 -114t-102.5 -48q-55 0 -100.5 44t-45.5 118z" />
    <glyph glyph-name="eth" unicode="&#xf0;" horiz-adv-x="1187" 
d="M289 1221l104 196q262 -17 445 -100l315 115l59 -156l-225 -80q93 -87 146 -209q51 -124 51 -301q0 -180 -38 -323.5t-138 -243.5q-87 -87 -185 -118.5t-215 -31.5q-227 0 -358 129q-127 127 -127 316q0 104 36.5 197t102.5 159q137 137 354 137q191 0 293 -102
q-10 93 -56 168t-120 119l-399 -162l-55 153l280 105q-133 36 -270 33zM653 670q-95 0 -155 -60q-72 -72 -72 -188q0 -95 55 -150q53 -53 140 -53q88 0 151 55q39 35 58.5 87.5t19.5 107.5q0 98 -57 152q-49 49 -140 49z" />
    <glyph glyph-name="ntilde" unicode="&#xf1;" horiz-adv-x="1161" 
d="M227 913h295l-14 -100q52 51 113 86q46 24 85.5 31.5t94.5 7.5q154 0 237 -78q78 -78 78 -217q0 -76 -14 -174l-55 -469h-295l49 395q12 82 12 148q0 71 -37 110q-39 39 -108 39q-84 0 -133 -49q-54 -54 -72 -192l-53 -451h-295zM1022 1346l127 -91q-8 -18 -32.5 -54
t-57.5 -68q-77 -70 -158 -70q-53 0 -129 31l-65 26q-64 29 -103 29q-64 0 -106 -78l-121 90q31 76 84 129q64 64 157 64q54 0 140 -33l65 -27q64 -26 107 -26q61 0 92 78z" />
    <glyph glyph-name="ograve" unicode="&#xf2;" horiz-adv-x="1212" 
d="M690 944q112 0 214 -37t169 -104q123 -123 123 -309q0 -102 -38.5 -202.5t-108.5 -172.5q-89 -89 -192.5 -119.5t-227.5 -30.5q-52 0 -94.5 4.5t-94.5 17.5t-101 42t-91 73q-125 128 -125 322q0 102 37.5 195.5t109.5 164.5q76 74 185 115t235 41zM645 219q106 0 172 66
q76 73 76 194q0 100 -62 158q-57 57 -159 57q-95 0 -164 -63q-82 -73 -82 -195q0 -89 59 -155q62 -62 160 -62zM776 1047l-280 256l172 141l227 -283z" />
    <glyph glyph-name="oacute" unicode="&#xf3;" horiz-adv-x="1212" 
d="M690 944q112 0 214 -37t169 -104q123 -123 123 -309q0 -102 -38.5 -202.5t-108.5 -172.5q-89 -89 -192.5 -119.5t-227.5 -30.5q-52 0 -94.5 4.5t-94.5 17.5t-101 42t-91 73q-125 128 -125 322q0 102 37.5 195.5t109.5 164.5q76 74 185 115t235 41zM645 219q106 0 172 66
q76 73 76 194q0 100 -62 158q-57 57 -159 57q-95 0 -164 -63q-82 -73 -82 -195q0 -89 59 -155q62 -62 160 -62zM1098 1288l-373 -241l-102 122l335 275z" />
    <glyph glyph-name="ocircumflex" unicode="&#xf4;" horiz-adv-x="1212" 
d="M690 944q112 0 214 -37t169 -104q123 -123 123 -309q0 -102 -38.5 -202.5t-108.5 -172.5q-89 -89 -192.5 -119.5t-227.5 -30.5q-52 0 -94.5 4.5t-94.5 17.5t-101 42t-91 73q-125 128 -125 322q0 102 37.5 195.5t109.5 164.5q76 74 185 115t235 41zM645 219q106 0 172 66
q76 73 76 194q0 100 -62 158q-57 57 -159 57q-95 0 -164 -63q-82 -73 -82 -195q0 -89 59 -155q62 -62 160 -62zM758 1192l-193 -145l-133 112l350 268l275 -268l-150 -112z" />
    <glyph glyph-name="otilde" unicode="&#xf5;" horiz-adv-x="1212" 
d="M690 944q112 0 214 -37t169 -104q123 -123 123 -309q0 -102 -38.5 -202.5t-108.5 -172.5q-89 -89 -192.5 -119.5t-227.5 -30.5q-52 0 -94.5 4.5t-94.5 17.5t-101 42t-91 73q-125 128 -125 322q0 102 37.5 195.5t109.5 164.5q76 74 185 115t235 41zM645 219q106 0 172 66
q76 73 76 194q0 100 -62 158q-57 57 -159 57q-95 0 -164 -63q-82 -73 -82 -195q0 -89 59 -155q62 -62 160 -62zM981 1323l104 -84q-30 -47 -92 -109q-70 -55 -143 -53q-28 0 -88 25l-64 28q-51 23 -77 23q-53 0 -93 -70l-96 78q48 82 90 115q53 53 133 53q48 0 97 -22
l59 -27q44 -27 86 -27q54 0 84 70z" />
    <glyph glyph-name="odieresis" unicode="&#xf6;" horiz-adv-x="1212" 
d="M690 944q112 0 214 -37t169 -104q123 -123 123 -309q0 -102 -38.5 -202.5t-108.5 -172.5q-89 -89 -192.5 -119.5t-227.5 -30.5q-52 0 -94.5 4.5t-94.5 17.5t-101 42t-91 73q-125 128 -125 322q0 102 37.5 195.5t109.5 164.5q76 74 185 115t235 41zM645 219q106 0 172 66
q76 73 76 194q0 100 -62 158q-57 57 -159 57q-95 0 -164 -63q-82 -73 -82 -195q0 -89 59 -155q62 -62 160 -62zM340 1227q0 66 48 114t114 48t114 -48t48 -114t-48 -114t-114 -48t-114 48t-48 114zM786 1227q0 66 48 114t114 48t114 -48t48 -114t-48 -114t-114 -48t-114 48
t-48 114z" />
    <glyph glyph-name="divide" unicode="&#xf7;" 
d="M150 578v237h888v-237h-888zM444 1044q0 62 44 106t106 44q61 0 105 -44t44 -106t-43.5 -105.5t-105.5 -43.5t-106 44t-44 105zM444 344q0 62 44 106t106 44q61 0 105 -44t44 -106t-43.5 -105.5t-105.5 -43.5t-106 44t-44 105z" />
    <glyph glyph-name="oslash" unicode="&#xf8;" horiz-adv-x="1253" 
d="M61 12l166 148q-82 116 -82 268q0 215 148 360q159 156 420 156q178 0 309 -84l180 160l101 -117l-166 -149q82 -119 82 -260q0 -227 -148 -375q-89 -89 -191 -119.5t-221 -30.5q-99 0 -169.5 16.5t-145.5 61.5l-172 -153zM901 555l-344 -307q53 -29 109 -29
q108 0 182 74q67 74 67 176q0 48 -14 86zM463 358l346 306q-43 30 -113 30q-100 0 -166 -63q-36 -33 -58.5 -83.5t-22.5 -105.5q0 -46 14 -84z" />
    <glyph glyph-name="ugrave" unicode="&#xf9;" horiz-adv-x="1167" 
d="M866 913h295l-57 -493q-10 -103 -37.5 -186.5t-95.5 -147.5q-125 -117 -359 -117q-247 0 -356 105q-47 42 -72.5 107t-25.5 138q0 78 10 130l55 464h295l-53 -454q-10 -95 -10 -101q0 -69 39 -100q42 -39 120 -39q88 0 136 51q44 44 59 164zM741 1047l-280 256l172 141
l227 -283z" />
    <glyph glyph-name="uacute" unicode="&#xfa;" horiz-adv-x="1167" 
d="M866 913h295l-57 -493q-10 -103 -37.5 -186.5t-95.5 -147.5q-125 -117 -359 -117q-247 0 -356 105q-47 42 -72.5 107t-25.5 138q0 78 10 130l55 464h295l-53 -454q-10 -95 -10 -101q0 -69 39 -100q42 -39 120 -39q88 0 136 51q44 44 59 164zM1051 1288l-373 -241
l-103 122l336 275z" />
    <glyph glyph-name="ucircumflex" unicode="&#xfb;" horiz-adv-x="1167" 
d="M866 913h295l-57 -493q-10 -103 -37.5 -186.5t-95.5 -147.5q-125 -117 -359 -117q-247 0 -356 105q-47 42 -72.5 107t-25.5 138q0 78 10 130l55 464h295l-53 -454q-10 -95 -10 -101q0 -69 39 -100q42 -39 120 -39q88 0 136 51q44 44 59 164zM698 1249l-268 -194l-127 141
l410 291l342 -291l-140 -141z" />
    <glyph glyph-name="udieresis" unicode="&#xfc;" horiz-adv-x="1167" 
d="M866 913h295l-57 -493q-10 -103 -37.5 -186.5t-95.5 -147.5q-125 -117 -359 -117q-247 0 -356 105q-47 42 -72.5 107t-25.5 138q0 78 10 130l55 464h295l-53 -454q-10 -95 -10 -101q0 -69 39 -100q42 -39 120 -39q88 0 136 51q44 44 59 164zM330 1227q0 66 48 114t114 48
t113.5 -48t47.5 -114t-47.5 -114t-113.5 -48t-114 48t-48 114zM776 1227q0 66 48 114t114 48t114 -48t48 -114t-48 -114t-114 -48t-114 48t-48 114z" />
    <glyph glyph-name="yacute" unicode="&#xfd;" horiz-adv-x="1193" 
d="M82 -469l377 586l-355 796h336l203 -499l307 499h346l-882 -1382h-332zM1034 1288l-372 -241l-103 122l336 275z" />
    <glyph glyph-name="thorn" unicode="&#xfe;" horiz-adv-x="1224" 
d="M430 113l-74 -582h-295l242 1962h295l-88 -686q50 61 115 94q82 43 188 43q173 0 277 -100q56 -56 88 -146.5t32 -195.5q0 -126 -41.5 -233t-111.5 -177q-123 -123 -309 -123q-125 0 -199 39q-71 42 -119 105zM698 690q-103 0 -172 -69q-73 -73 -73 -185q0 -94 55 -149
q57 -64 154 -64q96 0 163 64q36 35 59 90t23 106q0 44 -17 87t-46 67q-59 53 -146 53z" />
    <glyph glyph-name="ydieresis" unicode="&#xff;" horiz-adv-x="1193" 
d="M82 -469l377 586l-355 796h336l203 -499l307 499h346l-882 -1382h-332zM330 1227q0 66 48 114t114 48t113.5 -48t47.5 -114t-47.5 -114t-113.5 -48t-114 48t-48 114zM776 1227q0 66 48 114t114 48t114 -48t48 -114t-48 -114t-114 -48t-114 48t-48 114z" />
    <glyph glyph-name="Abreve" unicode="&#x102;" horiz-adv-x="1386" 
d="M1059 0l-70 258h-516l-129 -258h-340l721 1366h291l366 -1366h-323zM592 500h340l-111 481zM1085 1765h181q-34 -112 -123 -188q-93 -84 -246 -84t-217 84q-56 75 -41 188h176q-3 -45 21 -75q23 -29 82 -29q64 0 100 25q19 12 38 33t29 46z" />
    <glyph glyph-name="abreve" unicode="&#x103;" horiz-adv-x="1224" 
d="M909 803l9 110h294l-112 -913h-295l22 104q-58 -69 -129 -102q-67 -33 -170 -33q-89 0 -156.5 26t-125.5 87q-123 130 -123 336q0 243 147 393q133 133 336 133q111 0 178 -35q73 -33 125 -106zM670 690q-107 0 -174 -67q-70 -70 -70 -183q0 -96 59 -155q57 -62 156 -62
q106 0 168 62q78 72 78 196q0 101 -64 158q-55 51 -153 51zM991 1319h180q-35 -114 -122 -189q-92 -83 -246 -83t-217 83q-56 75 -41 189h176q-3 -47 20 -76t82 -29q65 0 101 25q46 28 67 80z" />
    <glyph glyph-name="Dcroat" unicode="&#x110;" horiz-adv-x="1458" 
d="M303 846l64 520h399q348 0 522 -174q74 -74 119 -188.5t45 -266.5q0 -109 -22.5 -205.5t-58.5 -163.5t-68 -109t-64 -71q-111 -105 -263.5 -146.5t-357.5 -41.5h-419l75 621h-184l29 225h184zM649 1100l-31 -254h246l-28 -225h-246l-43 -355h96q231 0 348 105
q63 57 100 148.5t37 209.5q0 180 -98 275q-48 46 -125.5 71t-159.5 25h-96z" />
    <glyph glyph-name="dcroat" unicode="&#x111;" horiz-adv-x="1245" 
d="M903 803l37 307h-244l23 193h244l24 190h295l-25 -190h140l-23 -193h-139l-137 -1110h-293l16 104q-49 -69 -121 -102q-67 -33 -176 -33q-168 0 -276 105q-125 125 -125 332q0 116 40.5 224t117.5 185q129 129 327 129q184 0 295 -141zM668 690q-101 0 -168 -67
q-74 -74 -74 -187q0 -94 63 -157q56 -56 152 -56q107 0 170 70q34 34 53 86t19 102q0 88 -60 148q-61 61 -155 61z" />
    <glyph glyph-name="Itilde" unicode="&#x128;" horiz-adv-x="626" 
d="M727 1753l104 -84q-29 -45 -92 -108q-71 -56 -143 -54q-28 0 -88 25l-64 29q-49 22 -77 22q-53 0 -93 -70l-96 78q48 82 90 115q53 53 133 53q48 0 97 -22l59 -27q44 -27 86 -27q54 0 84 70zM317 1366h316l-168 -1366h-315z" />
    <glyph glyph-name="itilde" unicode="&#x129;" horiz-adv-x="565" 
d="M246 913h295l-113 -913h-295zM639 1323l104 -84q-30 -47 -92 -109q-70 -55 -143 -53q-28 0 -88 25l-64 28q-51 23 -77 23q-53 0 -93 -70l-96 78q48 82 90 115q53 53 133 53q48 0 97 -22l59 -27q44 -27 86 -27q54 0 84 70z" />
    <glyph glyph-name="OE" unicode="&#x152;" horiz-adv-x="2113" 
d="M2150 1366l-32 -266h-457l-33 -269h424l-33 -262h-424l-36 -303h456l-33 -266h-741l21 170q-67 -85 -172 -139q-112 -60 -279 -60q-279 0 -455 166q-90 85 -141 211.5t-51 282.5q0 168 62.5 318.5t164.5 252.5q109 106 233.5 149.5t272.5 43.5q185 0 309 -68
q105 -55 172 -158l25 197h747zM881 256q106 0 181.5 37.5t117.5 85.5q125 128 125 330q0 173 -109 292q-109 109 -274 109q-102 0 -178.5 -36t-120.5 -85q-61 -63 -98.5 -156t-37.5 -190q0 -164 105 -272q107 -115 289 -115z" />
    <glyph glyph-name="oe" unicode="&#x153;" horiz-adv-x="1849" 
d="M1534 301l268 -18q-24 -72 -66 -135.5t-94 -100.5q-115 -78 -294 -78q-278 0 -387 168q-125 -168 -371 -168q-234 0 -357 133q-112 116 -112 306q0 246 174 407q142 129 362 129q240 0 371 -149q112 149 342 149q228 0 356 -113q115 -110 115 -305q0 -76 -10 -127h-676
q0 -42 14.5 -82.5t38.5 -64.5q50 -53 156 -53q121 0 170 102zM670 694q-97 0 -166 -69q-38 -40 -59 -97t-21 -112q0 -89 55 -144q53 -53 139 -53q111 0 177 74q73 78 73 205q0 88 -51 139q-57 57 -147 57zM1186 580h399q-14 74 -63 114q-50 41 -127 41q-90 0 -144 -51
q-43 -41 -65 -104z" />
    <glyph glyph-name="Scaron" unicode="&#x160;" horiz-adv-x="1126" 
d="M1135 1262l-158 -230q-108 98 -229 98q-92 0 -130 -34q-47 -35 -47 -99q0 -57 47 -92q28 -23 134 -71l79 -37q118 -55 181 -131q69 -89 69 -213q0 -105 -37.5 -197t-99.5 -154q-78 -76 -175 -104.5t-216 -28.5q-156 0 -272 62q-110 63 -183 145l176 225q54 -68 115 -108
q72 -45 160 -45q97 0 151 43q58 46 58 127q0 55 -39 94q-25 25 -109 61l-80 33q-26 6 -87 41.5t-105 79.5q-90 93 -90 231q0 187 123 310q134 129 368 129q223 0 396 -135zM741 1729l271 190l135 -143l-422 -289l-350 289l131 143z" />
    <glyph glyph-name="scaron" unicode="&#x161;" horiz-adv-x="888" 
d="M877 852l-125 -182q-81 61 -172 61q-57 0 -88 -24q-21 -15 -21 -45q0 -32 29 -50q6 -6 71 -24l68 -19q34 -10 52.5 -16.5t50 -25.5t55.5 -44q67 -67 67 -174q0 -139 -86 -225q-108 -115 -321 -115q-143 0 -238 45q-72 33 -141 95l125 198q57 -53 112 -76q13 -8 49.5 -18
t77.5 -10q57 0 90 20q37 21 37 60q0 37 -28 57q-8 6 -19 10.5t-29.5 10t-23.5 6.5l-66 20q-99 28 -153 82q-62 67 -62 164q0 127 86 213q98 98 301 98q165 0 302 -92zM555 1292l266 195l137 -139l-413 -293l-338 293l129 139z" />
    <glyph glyph-name="Utilde" unicode="&#x168;" horiz-adv-x="1454" 
d="M309 1366h316l-90 -745q-11 -79 -11 -119q0 -116 60 -176q69 -62 180 -62q133 0 201 68q31 31 52 83.5t27 86t13 90.5l94 774h315l-98 -795q-25 -179 -47 -252q-38 -121 -115 -202q-48 -50 -109 -82t-127 -45t-111 -17t-101 -4q-129 0 -238.5 29t-193.5 113
q-121 115 -121 315q0 68 16 215zM1141 1753l104 -84q-29 -45 -92 -108q-71 -56 -143 -54q-28 0 -88 25l-64 29q-49 22 -78 22q-52 0 -92 -70l-96 78q48 82 90 115q53 53 133 53q47 0 96 -22l60 -27q44 -27 86 -27q54 0 84 70z" />
    <glyph glyph-name="utilde" unicode="&#x169;" horiz-adv-x="1167" 
d="M866 913h295l-57 -493q-10 -103 -37.5 -186.5t-95.5 -147.5q-125 -117 -359 -117q-247 0 -356 105q-47 42 -72.5 107t-25.5 138q0 78 10 130l55 464h295l-53 -454q-10 -95 -10 -101q0 -69 39 -100q42 -39 120 -39q88 0 136 51q44 44 59 164zM926 1323l104 -84
q-30 -47 -92 -109q-70 -55 -143 -53q-28 0 -88 25l-64 28q-51 23 -78 23q-52 0 -92 -70l-96 78q48 82 90 115q53 53 133 53q47 0 96 -22l60 -27q44 -27 86 -27q54 0 84 70z" />
    <glyph glyph-name="Ydieresis" unicode="&#x178;" horiz-adv-x="1294" 
d="M483 0l78 637l-399 729h360l223 -424l326 424h385l-579 -729l-78 -637h-316zM434 1661q0 66 48 114t114 48t114 -48t48 -114t-48 -114t-114 -48t-114 48t-48 114zM881 1661q0 66 47.5 114t113.5 48t114 -48t48 -114t-48 -114t-114 -48t-113.5 48t-47.5 114z" />
    <glyph glyph-name="Zcaron" unicode="&#x17d;" horiz-adv-x="1261" 
d="M1378 1366l-780 -1100h578l-33 -266h-1104l782 1100h-540l32 266h1065zM819 1729l271 190l135 -143l-422 -289l-350 289l131 143z" />
    <glyph glyph-name="zcaron" unicode="&#x17e;" horiz-adv-x="1021" 
d="M1130 913l-575 -667h457l-35 -246h-977l578 668h-412l37 245h927zM637 1292l266 195l137 -139l-413 -293l-338 293l129 139z" />
    <glyph glyph-name="florin" unicode="&#x192;" horiz-adv-x="1228" 
d="M428 242l123 487h-139l43 184h141l59 236q18 73 55.5 146t86.5 120q106 101 268 101q107 0 201 -41l-66 -252q-51 34 -113 34q-59 0 -96 -34q-43 -40 -69 -152l-39 -158h209l-45 -184h-209l-140 -549q-41 -165 -80.5 -259t-103.5 -159q-71 -75 -164 -107t-223 -32
q-82 0 -135 15l65 262q46 -11 84 -11q97 0 162 58q30 26 53.5 75t34 85t37.5 135z" />
    <glyph glyph-name="Ohorn" unicode="&#x1a0;" horiz-adv-x="1658" 
d="M950 1397q320 0 510 -178q17 -17 25 -27q-41 -8 -101 -8q-144 0 -213 10l15 172q65 -10 128 -9t83 7q40 4 47 14q11 7 16.5 22.5t7 25.5t2.5 34v2t0.5 2t0.5 3.5t0.5 5t1 7t1 9.5t1.5 12t2 15h219l-6 -54q-12 -129 -58.5 -190t-146.5 -80q168 -186 168 -459
q0 -153 -54 -299.5t-157 -253.5q-211 -211 -565 -211q-150 0 -279.5 41.5t-241.5 153.5q-192 200 -192 477q0 172 60.5 311.5t164.5 237.5q219 207 561 207zM938 1106q-201 0 -326 -131q-60 -63 -92.5 -145t-32.5 -168q0 -176 111 -287q110 -115 299 -115q193 0 305 117
q58 60 92.5 147t34.5 189q0 180 -108 286q-109 107 -283 107z" />
    <glyph glyph-name="ohorn" unicode="&#x1a1;" horiz-adv-x="1212" 
d="M690 944q89 0 184 -29q108 -15 142 -6q39 4 47 15q23 16 27 82q0 4 6 55h219l-6 -53q-12 -123 -54 -183.5t-133 -83.5q74 -104 74 -247q0 -102 -38.5 -202.5t-108.5 -172.5q-89 -89 -192.5 -119.5t-227.5 -30.5q-52 0 -94.5 4.5t-94.5 17.5t-101 42t-91 73
q-125 128 -125 322q0 102 37.5 195.5t109.5 164.5q76 74 185 115t235 41zM645 219q106 0 172 66q76 73 76 194q0 100 -62 158q-57 57 -159 57q-95 0 -164 -63q-82 -73 -82 -195q0 -89 59 -155q62 -62 160 -62z" />
    <glyph glyph-name="Uhorn" unicode="&#x1af;" horiz-adv-x="1454" 
d="M309 1366h316l-90 -745q-11 -79 -11 -119q0 -116 60 -176q69 -62 180 -62q133 0 201 68q31 31 52 83.5t27 86t13 90.5l94 774h254q25 3 31 12q11 7 16.5 22.5t7 25.5t2.5 34q0 5 6 56h220l-7 -54q-14 -137 -67.5 -199.5t-169.5 -74.5l-76 -617q-25 -179 -47 -252
q-38 -121 -115 -202q-48 -50 -109 -82t-127 -45t-111 -17t-101 -4q-129 0 -238.5 29t-193.5 113q-121 115 -121 315q0 68 16 215z" />
    <glyph glyph-name="uhorn" unicode="&#x1b0;" horiz-adv-x="1191" 
d="M866 913h244q11 2 20 11q23 16 27 82q0 4 6 55h219l-6 -53q-14 -137 -66.5 -199.5t-168.5 -75.5l-37 -313q-10 -103 -37.5 -186.5t-95.5 -147.5q-125 -117 -359 -117q-247 0 -356 105q-47 42 -72.5 107t-25.5 138q0 78 10 130l55 464h295l-53 -454q-10 -95 -10 -101
q0 -69 39 -100q42 -39 120 -39q88 0 136 51q44 44 59 164z" />
    <glyph glyph-name="afii57929" unicode="&#x2bc;" 
d="M231 1008l168 426l267 -62l-254 -405z" />
    <glyph glyph-name="circumflex" unicode="&#x2c6;" 
d="M678 1249l-268 -194l-127 141l409 291l342 -291l-139 -141z" />
    <glyph glyph-name="caron" unicode="&#x2c7;" 
d="M649 1292l266 195l138 -139l-414 -293l-338 293l129 139z" />
    <glyph glyph-name="uni02C9" unicode="&#x2c9;" 
d="M260 1112l23 184h778l-23 -184h-778z" />
    <glyph glyph-name="breve" unicode="&#x2d8;" 
d="M834 1360h192q-7 -61 -34.5 -118.5t-65.5 -94.5q-90 -88 -258 -88q-170 0 -254 86q-80 83 -80 215h192q0 -46 31 -86q31 -39 113 -39q68 0 110 33q42 31 54 92z" />
    <glyph glyph-name="dotaccent" unicode="&#x2d9;" 
d="M494 1235q0 72 49 121t121 49t121 -49t49 -121t-49 -121t-121 -49t-121 49t-49 121z" />
    <glyph glyph-name="ring" unicode="&#x2da;" 
d="M666 1331q-43 0 -64 -18q-27 -27 -27 -56q0 -28 27 -55q21 -18 64 -18q42 0 63 18q27 27 27 55q0 29 -27 56q-21 18 -63 18zM899 1257q0 -78 -55 -133q-67 -63 -178 -63q-112 0 -179 63q-55 55 -55 133q0 79 55 134q67 63 179 63q111 0 178 -63q55 -55 55 -134z" />
    <glyph glyph-name="ogonek" unicode="&#x2db;" horiz-adv-x="1040" 
d="M758 -195l-56 -157q-62 -35 -139 -35q-79 0 -121 37q-47 40 -47 104q0 73 60 148q3 3 13.5 15.5t19.5 23.5t25 27.5t32 31.5h135q-27 -27 -62 -72q-40 -50 -40 -90q0 -28 20 -45q20 -18 53 -18q50 0 107 30z" />
    <glyph glyph-name="tilde" unicode="&#x2dc;" 
d="M920 1346l127 -91q-7 -17 -32.5 -53.5t-58.5 -68.5q-77 -70 -157 -70q-53 0 -129 31l-66 26q-64 29 -102 29q-65 0 -107 -78l-121 90q31 76 84 129q64 64 158 64q53 0 139 -33l66 -27q64 -26 106 -26q62 0 93 78z" />
    <glyph glyph-name="hungarumlaut" unicode="&#x2dd;" 
d="M608 1454l152 -135l-309 -277l-95 99zM977 1452l153 -133l-309 -277l-96 99z" />
    <glyph glyph-name="acutecomb" unicode="&#x301;" horiz-adv-x="4" 
d="M-358 1464l176 -133l-346 -276l-121 98z" />
    <glyph glyph-name="uni1EA0" unicode="&#x1ea0;" horiz-adv-x="1386" 
d="M506 -313q6 63 49 105t104 42q64 0 105 -42.5t35 -104.5t-51 -104t-107 -42t-101.5 42.5t-33.5 103.5zM1059 0l-70 258h-516l-129 -258h-340l721 1366h291l366 -1366h-323zM592 500h340l-111 481z" />
    <glyph glyph-name="uni1EA1" unicode="&#x1ea1;" horiz-adv-x="1224" 
d="M422 -313q6 63 49 105t104 42q64 0 105 -42.5t35 -104.5t-51 -104t-107 -42t-101.5 42.5t-33.5 103.5zM909 803l9 110h294l-112 -913h-295l22 104q-58 -69 -129 -102q-67 -33 -170 -33q-89 0 -156.5 26t-125.5 87q-123 130 -123 336q0 243 147 393q133 133 336 133
q111 0 178 -35q73 -33 125 -106zM670 690q-107 0 -174 -67q-70 -70 -70 -183q0 -96 59 -155q57 -62 156 -62q106 0 168 62q78 72 78 196q0 101 -64 158q-55 51 -153 51z" />
    <glyph glyph-name="uni1EA2" unicode="&#x1ea2;" horiz-adv-x="1386" 
d="M954 1493h-137l25 174q32 -5 65 -0.5t43 14.5q2 2 6 5t6 5l5.5 5.5l5.5 5.5t4.5 5.5t3.5 7t2.5 7.5t1.5 9q4 28 -11 37.5t-40 9.5q-48 0 -55 -49h-148q11 76 57 122q66 66 162 66q109 0 157 -49.5t34 -141.5q-11 -70 -61.5 -114.5t-114.5 -50.5zM1059 0l-70 258h-516
l-129 -258h-340l721 1366h291l366 -1366h-323zM592 500h340l-111 481z" />
    <glyph glyph-name="uni1EA3" unicode="&#x1ea3;" horiz-adv-x="1224" 
d="M854 1047h-137l24 174q32 -5 65.5 -0.5t43.5 14.5q2 1 9.5 7.5t9.5 9t7 8t6.5 11.5t2.5 13q4 28 -11 37.5t-40 9.5q-49 0 -56 -49h-147q11 77 57 123q65 65 162 65q109 0 156.5 -49t33.5 -141q-11 -70 -62 -115t-114 -51zM909 803l9 110h294l-112 -913h-295l22 104
q-58 -69 -129 -102q-67 -33 -170 -33q-89 0 -156.5 26t-125.5 87q-123 130 -123 336q0 243 147 393q133 133 336 133q111 0 178 -35q73 -33 125 -106zM670 690q-107 0 -174 -67q-70 -70 -70 -183q0 -96 59 -155q57 -62 156 -62q106 0 168 62q78 72 78 196q0 101 -64 158
q-55 51 -153 51z" />
    <glyph glyph-name="uni1EA4" unicode="&#x1ea4;" horiz-adv-x="1386" 
d="M1532 2030l-373 -242l-102 123l336 274zM1059 0l-70 258h-516l-129 -258h-340l721 1366h291l366 -1366h-323zM592 500h340l-111 481zM905 1638l-192 -145l-133 113l350 268l274 -268l-149 -113z" />
    <glyph glyph-name="uni1EA5" unicode="&#x1ea5;" horiz-adv-x="1224" 
d="M1432 1583l-373 -242l-103 123l336 275zM909 803l9 110h294l-112 -913h-295l22 104q-58 -69 -129 -102q-67 -33 -170 -33q-89 0 -156.5 26t-125.5 87q-123 130 -123 336q0 243 147 393q133 133 336 133q111 0 178 -35q73 -33 125 -106zM670 690q-107 0 -174 -67
q-70 -70 -70 -183q0 -96 59 -155q57 -62 156 -62q106 0 168 62q78 72 78 196q0 101 -64 158q-55 51 -153 51zM805 1192l-193 -145l-133 112l350 268l275 -268l-150 -112z" />
    <glyph glyph-name="uni1EA6" unicode="&#x1ea6;" horiz-adv-x="1386" 
d="M1182 1788l-281 256l172 141l227 -282zM1059 0l-70 258h-516l-129 -258h-340l721 1366h291l366 -1366h-323zM592 500h340l-111 481zM905 1638l-192 -145l-133 113l350 268l274 -268l-149 -113z" />
    <glyph glyph-name="uni1EA7" unicode="&#x1ea7;" horiz-adv-x="1224" 
d="M1081 1341l-280 256l172 142l227 -283zM909 803l9 110h294l-112 -913h-295l22 104q-58 -69 -129 -102q-67 -33 -170 -33q-89 0 -156.5 26t-125.5 87q-123 130 -123 336q0 243 147 393q133 133 336 133q111 0 178 -35q73 -33 125 -106zM670 690q-107 0 -174 -67
q-70 -70 -70 -183q0 -96 59 -155q57 -62 156 -62q106 0 168 62q78 72 78 196q0 101 -64 158q-55 51 -153 51zM805 1192l-193 -145l-133 112l350 268l275 -268l-150 -112z" />
    <glyph glyph-name="uni1EA8" unicode="&#x1ea8;" horiz-adv-x="1386" 
d="M1270 1788h-137l24 174q32 -5 65.5 -0.5t43.5 14.5q2 1 8 6.5t8 7t6 6.5t6 8.5t4 9t2 11.5q4 28 -11 38t-40 10q-48 0 -55 -50h-147q11 77 57 123q66 66 162 66q109 0 156.5 -49.5t33.5 -141.5q-11 -70 -62 -115t-114 -51zM1059 0l-70 258h-516l-129 -258h-340l721 1366
h291l366 -1366h-323zM592 500h340l-111 481zM905 1638l-192 -145l-133 113l350 268l274 -268l-149 -113z" />
    <glyph glyph-name="uni1EA9" unicode="&#x1ea9;" horiz-adv-x="1224" 
d="M1169 1341h-137l25 175q32 -5 65 -0.5t43 14.5q2 1 9.5 7.5t9.5 9t7 8t6.5 11.5t2.5 13q4 28 -11 37.5t-40 9.5q-48 0 -55 -49h-148q11 76 58 123q65 65 161 65q109 0 157 -49t34 -141q-11 -70 -62 -115t-114 -51zM909 803l9 110h294l-112 -913h-295l22 104
q-58 -69 -129 -102q-67 -33 -170 -33q-89 0 -156.5 26t-125.5 87q-123 130 -123 336q0 243 147 393q133 133 336 133q111 0 178 -35q73 -33 125 -106zM670 690q-107 0 -174 -67q-70 -70 -70 -183q0 -96 59 -155q57 -62 156 -62q106 0 168 62q78 72 78 196q0 101 -64 158
q-55 51 -153 51zM805 1192l-193 -145l-133 112l350 268l275 -268l-150 -112z" />
    <glyph glyph-name="uni1EAA" unicode="&#x1eaa;" horiz-adv-x="1386" 
d="M1167 2173l105 -84q-30 -47 -92 -109q-70 -56 -144 -53q-28 0 -88 25l-63 28q-51 23 -78 23q-52 0 -92 -70l-97 78q47 80 91 115q53 53 133 53q47 0 96 -22l59 -27q44 -27 86 -27q54 0 84 70zM1059 0l-70 258h-516l-129 -258h-340l721 1366h291l366 -1366h-323zM592 500
h340l-111 481zM905 1638l-192 -145l-133 113l350 268l274 -268l-149 -113z" />
    <glyph glyph-name="uni1EAB" unicode="&#x1eab;" horiz-adv-x="1224" 
d="M1067 1726l104 -84q-29 -45 -92 -108q-70 -55 -143 -53q-31 0 -88 24l-64 29q-49 22 -77 22q-53 0 -93 -69l-96 78q47 80 90 114q54 54 133 54q46 0 97 -23l59 -27q43 -26 86 -26q54 0 84 69zM909 803l9 110h294l-112 -913h-295l22 104q-58 -69 -129 -102
q-67 -33 -170 -33q-89 0 -156.5 26t-125.5 87q-123 130 -123 336q0 243 147 393q133 133 336 133q111 0 178 -35q73 -33 125 -106zM670 690q-107 0 -174 -67q-70 -70 -70 -183q0 -96 59 -155q57 -62 156 -62q106 0 168 62q78 72 78 196q0 101 -64 158q-55 51 -153 51z
M805 1192l-193 -145l-133 112l350 268l275 -268l-150 -112z" />
    <glyph glyph-name="uni1EAC" unicode="&#x1eac;" horiz-adv-x="1386" 
d="M506 -313q6 63 49 105t104 42q64 0 105 -42.5t35 -104.5t-51 -104t-107 -42t-101.5 42.5t-33.5 103.5zM1059 0l-70 258h-516l-129 -258h-340l721 1366h291l366 -1366h-323zM592 500h340l-111 481zM905 1638l-192 -145l-133 113l350 268l274 -268l-149 -113z" />
    <glyph glyph-name="uni1EAD" unicode="&#x1ead;" horiz-adv-x="1224" 
d="M422 -313q6 63 49 105t104 42q64 0 105 -42.5t35 -104.5t-51 -104t-107 -42t-101.5 42.5t-33.5 103.5zM909 803l9 110h294l-112 -913h-295l22 104q-58 -69 -129 -102q-67 -33 -170 -33q-89 0 -156.5 26t-125.5 87q-123 130 -123 336q0 243 147 393q133 133 336 133
q111 0 178 -35q73 -33 125 -106zM670 690q-107 0 -174 -67q-70 -70 -70 -183q0 -96 59 -155q57 -62 156 -62q106 0 168 62q78 72 78 196q0 101 -64 158q-55 51 -153 51zM805 1192l-193 -145l-133 112l350 268l275 -268l-150 -112z" />
    <glyph glyph-name="uni1EAE" unicode="&#x1eae;" horiz-adv-x="1386" 
d="M1305 2060l-373 -241l-103 123l336 274zM1059 0l-70 258h-516l-129 -258h-340l721 1366h291l366 -1366h-323zM592 500h340l-111 481zM1085 1765h181q-34 -112 -123 -188q-93 -84 -246 -84t-217 84q-56 75 -41 188h176q-3 -45 21 -75q23 -29 82 -29q64 0 100 25
q19 12 38 33t29 46z" />
    <glyph glyph-name="uni1EAF" unicode="&#x1eaf;" horiz-adv-x="1224" 
d="M1210 1614l-372 -242l-103 123l336 274zM909 803l9 110h294l-112 -913h-295l22 104q-58 -69 -129 -102q-67 -33 -170 -33q-89 0 -156.5 26t-125.5 87q-123 130 -123 336q0 243 147 393q133 133 336 133q111 0 178 -35q73 -33 125 -106zM670 690q-107 0 -174 -67
q-70 -70 -70 -183q0 -96 59 -155q57 -62 156 -62q106 0 168 62q78 72 78 196q0 101 -64 158q-55 51 -153 51zM991 1319h180q-35 -114 -122 -189q-92 -83 -246 -83t-217 83q-56 75 -41 189h176q-3 -47 20 -76t82 -29q65 0 101 25q46 28 67 80z" />
    <glyph glyph-name="uni1EB0" unicode="&#x1eb0;" horiz-adv-x="1386" 
d="M973 1819l-281 256l172 141l228 -283zM1059 0l-70 258h-516l-129 -258h-340l721 1366h291l366 -1366h-323zM592 500h340l-111 481zM1085 1765h181q-34 -112 -123 -188q-93 -84 -246 -84t-217 84q-56 75 -41 188h176q-3 -45 21 -75q23 -29 82 -29q64 0 100 25q19 12 38 33
t29 46z" />
    <glyph glyph-name="uni1EB1" unicode="&#x1eb1;" horiz-adv-x="1224" 
d="M879 1372l-281 256l172 141l227 -282zM909 803l9 110h294l-112 -913h-295l22 104q-58 -69 -129 -102q-67 -33 -170 -33q-89 0 -156.5 26t-125.5 87q-123 130 -123 336q0 243 147 393q133 133 336 133q111 0 178 -35q73 -33 125 -106zM670 690q-107 0 -174 -67
q-70 -70 -70 -183q0 -96 59 -155q57 -62 156 -62q106 0 168 62q78 72 78 196q0 101 -64 158q-55 51 -153 51zM991 1319h180q-35 -114 -122 -189q-92 -83 -246 -83t-217 83q-56 75 -41 189h176q-3 -47 20 -76t82 -29q65 0 101 25q46 28 67 80z" />
    <glyph glyph-name="uni1EB2" unicode="&#x1eb2;" horiz-adv-x="1386" 
d="M1024 1819h-137l24 174q32 -5 65.5 -0.5t43.5 14.5q2 1 9.5 7.5t9.5 9t7 8t6.5 11.5t2.5 13q4 28 -11 37.5t-40 9.5q-49 0 -56 -49h-147q11 77 57 123q66 66 162 66q109 0 156.5 -49.5t33.5 -141.5q-11 -70 -62 -115t-114 -51zM1059 0l-70 258h-516l-129 -258h-340
l721 1366h291l366 -1366h-323zM592 500h340l-111 481zM1085 1765h181q-34 -112 -123 -188q-93 -84 -246 -84t-217 84q-56 75 -41 188h176q-3 -45 21 -75q23 -29 82 -29q64 0 100 25q19 12 38 33t29 46z" />
    <glyph glyph-name="uni1EB3" unicode="&#x1eb3;" horiz-adv-x="1224" 
d="M930 1372h-137l24 174q32 -5 65.5 0t43.5 15q2 1 9.5 7.5t9.5 9t7 8t6.5 11.5t2.5 13q4 28 -11 37.5t-41 9.5q-48 0 -55 -49h-147q11 77 57 123q65 65 162 65q109 0 156.5 -49t33.5 -141q-11 -70 -62 -115t-114 -51zM909 803l9 110h294l-112 -913h-295l22 104
q-58 -69 -129 -102q-67 -33 -170 -33q-89 0 -156.5 26t-125.5 87q-123 130 -123 336q0 243 147 393q133 133 336 133q111 0 178 -35q73 -33 125 -106zM670 690q-107 0 -174 -67q-70 -70 -70 -183q0 -96 59 -155q57 -62 156 -62q106 0 168 62q78 72 78 196q0 101 -64 158
q-55 51 -153 51zM991 1319h180q-35 -114 -122 -189q-92 -83 -246 -83t-217 83q-56 75 -41 189h176q-3 -47 20 -76t82 -29q65 0 101 25q46 28 67 80z" />
    <glyph glyph-name="uni1EB4" unicode="&#x1eb4;" horiz-adv-x="1386" 
d="M1196 2066l104 -84q-29 -45 -92 -108q-70 -55 -143 -53q-31 0 -88 24l-64 29q-49 22 -77 22q-53 0 -93 -69l-96 78q47 80 90 114q54 54 133 54q46 0 97 -23l59 -27q43 -26 86 -26q54 0 84 69zM1059 0l-70 258h-516l-129 -258h-340l721 1366h291l366 -1366h-323zM592 500
h340l-111 481zM1085 1765h181q-34 -112 -123 -188q-93 -84 -246 -84t-217 84q-56 75 -41 188h176q-3 -45 21 -75q23 -29 82 -29q64 0 100 25q19 12 38 33t29 46z" />
    <glyph glyph-name="uni1EB5" unicode="&#x1eb5;" horiz-adv-x="1224" 
d="M1102 1620l104 -84q-30 -47 -92 -109q-70 -55 -143 -53q-28 0 -88 25l-64 28q-51 23 -78 23q-52 0 -92 -70l-96 78q48 82 90 115q53 53 133 53q47 0 96 -22l60 -27q44 -27 86 -27q54 0 84 70zM909 803l9 110h294l-112 -913h-295l22 104q-58 -69 -129 -102
q-67 -33 -170 -33q-89 0 -156.5 26t-125.5 87q-123 130 -123 336q0 243 147 393q133 133 336 133q111 0 178 -35q73 -33 125 -106zM670 690q-107 0 -174 -67q-70 -70 -70 -183q0 -96 59 -155q57 -62 156 -62q106 0 168 62q78 72 78 196q0 101 -64 158q-55 51 -153 51z
M991 1319h180q-35 -114 -122 -189q-92 -83 -246 -83t-217 83q-56 75 -41 189h176q-3 -47 20 -76t82 -29q65 0 101 25q46 28 67 80z" />
    <glyph glyph-name="uni1EB6" unicode="&#x1eb6;" horiz-adv-x="1386" 
d="M506 -313q6 63 49 105t104 42q64 0 105 -42.5t35 -104.5t-51 -104t-107 -42t-101.5 42.5t-33.5 103.5zM1059 0l-70 258h-516l-129 -258h-340l721 1366h291l366 -1366h-323zM592 500h340l-111 481zM1085 1765h181q-34 -112 -123 -188q-93 -84 -246 -84t-217 84
q-56 75 -41 188h176q-3 -45 21 -75q23 -29 82 -29q64 0 100 25q19 12 38 33t29 46z" />
    <glyph glyph-name="uni1EB7" unicode="&#x1eb7;" horiz-adv-x="1224" 
d="M422 -313q6 63 49 105t104 42q64 0 105 -42.5t35 -104.5t-51 -104t-107 -42t-101.5 42.5t-33.5 103.5zM909 803l9 110h294l-112 -913h-295l22 104q-58 -69 -129 -102q-67 -33 -170 -33q-89 0 -156.5 26t-125.5 87q-123 130 -123 336q0 243 147 393q133 133 336 133
q111 0 178 -35q73 -33 125 -106zM670 690q-107 0 -174 -67q-70 -70 -70 -183q0 -96 59 -155q57 -62 156 -62q106 0 168 62q78 72 78 196q0 101 -64 158q-55 51 -153 51zM991 1319h180q-35 -114 -122 -189q-92 -83 -246 -83t-217 83q-56 75 -41 189h176q-3 -47 20 -76t82 -29
q65 0 101 25q46 28 67 80z" />
    <glyph glyph-name="uni1EB8" unicode="&#x1eb8;" horiz-adv-x="1028" 
d="M338 -313q6 63 49.5 105t104.5 42q64 0 104.5 -42.5t34.5 -104.5t-51 -104t-107 -42t-101.5 42.5t-33.5 103.5zM1065 1366l-33 -266h-446l-33 -264h430l-33 -267h-430l-37 -303h455l-33 -266h-762l168 1366h754z" />
    <glyph glyph-name="uni1EB9" unicode="&#x1eb9;" horiz-adv-x="1110" 
d="M399 -313q6 63 49.5 105t104.5 42q64 0 104.5 -42.5t34.5 -104.5t-50.5 -104t-106.5 -42t-102 42.5t-34 103.5zM446 580h371q-11 79 -59 118q-45 37 -121 37q-84 0 -139 -55q-41 -45 -52 -100zM1100 399h-682q-3 -80 37 -137q45 -63 141 -63q76 0 117 26q37 25 63 82
l297 -24q-65 -153 -166 -228q-115 -86 -313 -86q-107 0 -194 24t-162 99q-115 115 -115 320q0 137 46 240.5t112 164.5q138 127 362 127q218 0 342 -117q43 -43 70.5 -102.5t36 -115.5t11.5 -113.5t-3 -96.5z" />
    <glyph glyph-name="uni1EBA" unicode="&#x1eba;" horiz-adv-x="1028" 
d="M770 1493h-137l24 174q32 -5 65.5 -0.5t43.5 14.5q2 2 6 5t6 5l5.5 5.5l5.5 5.5t4.5 5.5t3.5 7t2.5 7.5t1.5 9q4 28 -11 37.5t-40 9.5q-49 0 -56 -49h-147q11 76 57 122q66 66 162 66q109 0 156.5 -49.5t33.5 -141.5q-11 -70 -61.5 -114.5t-114.5 -50.5zM1065 1366
l-33 -266h-446l-33 -264h430l-33 -267h-430l-37 -303h455l-33 -266h-762l168 1366h754z" />
    <glyph glyph-name="uni1EBB" unicode="&#x1ebb;" horiz-adv-x="1110" 
d="M774 1047h-137l25 174q32 -5 65 -0.5t43 14.5q2 1 9.5 7.5t9.5 9t7 8t6.5 11.5t2.5 13q4 28 -11 37.5t-40 9.5q-49 0 -56 -49h-147q11 77 57 123q65 65 162 65q109 0 157 -49t34 -141q-11 -70 -62 -115t-115 -51zM446 580h371q-11 79 -59 118q-45 37 -121 37
q-84 0 -139 -55q-41 -45 -52 -100zM1100 399h-682q-3 -80 37 -137q45 -63 141 -63q76 0 117 26q37 25 63 82l297 -24q-65 -153 -166 -228q-115 -86 -313 -86q-107 0 -194 24t-162 99q-115 115 -115 320q0 137 46 240.5t112 164.5q138 127 362 127q218 0 342 -117
q43 -43 70.5 -102.5t36 -115.5t11.5 -113.5t-3 -96.5z" />
    <glyph glyph-name="uni1EBC" unicode="&#x1ebc;" horiz-adv-x="1028" 
d="M940 1753l104 -84q-29 -45 -92 -108q-71 -56 -143 -54q-28 0 -88 25l-64 29q-49 22 -77 22q-53 0 -93 -70l-96 78q48 82 90 115q53 53 133 53q48 0 97 -22l59 -27q44 -27 86 -27q54 0 84 70zM1065 1366l-33 -266h-446l-33 -264h430l-33 -267h-430l-37 -303h455l-33 -266
h-762l168 1366h754z" />
    <glyph glyph-name="uni1EBD" unicode="&#x1ebd;" horiz-adv-x="1110" 
d="M936 1323l104 -84q-30 -47 -92 -109q-70 -55 -143 -53q-28 0 -88 25l-64 28q-51 23 -78 23q-52 0 -92 -70l-96 78q48 82 90 115q53 53 133 53q48 0 97 -22l59 -27q44 -27 86 -27q54 0 84 70zM446 580h371q-11 79 -59 118q-45 37 -121 37q-84 0 -139 -55q-41 -45 -52 -100
zM1100 399h-682q-3 -80 37 -137q45 -63 141 -63q76 0 117 26q37 25 63 82l297 -24q-65 -153 -166 -228q-115 -86 -313 -86q-107 0 -194 24t-162 99q-115 115 -115 320q0 137 46 240.5t112 164.5q138 127 362 127q218 0 342 -117q43 -43 70.5 -102.5t36 -115.5t11.5 -113.5
t-3 -96.5z" />
    <glyph glyph-name="uni1EBE" unicode="&#x1ebe;" horiz-adv-x="1028" 
d="M1350 2030l-373 -242l-103 123l336 274zM1065 1366l-33 -266h-446l-33 -264h430l-33 -267h-430l-37 -303h455l-33 -266h-762l168 1366h754zM723 1638l-193 -145l-133 113l351 268l274 -268l-150 -113z" />
    <glyph glyph-name="uni1EBF" unicode="&#x1ebf;" horiz-adv-x="1110" 
d="M1333 1583l-372 -242l-103 123l336 275zM446 580h371q-11 79 -59 118q-45 37 -121 37q-84 0 -139 -55q-41 -45 -52 -100zM1100 399h-682q-3 -80 37 -137q45 -63 141 -63q76 0 117 26q37 25 63 82l297 -24q-65 -153 -166 -228q-115 -86 -313 -86q-107 0 -194 24t-162 99
q-115 115 -115 320q0 137 46 240.5t112 164.5q138 127 362 127q218 0 342 -117q43 -43 70.5 -102.5t36 -115.5t11.5 -113.5t-3 -96.5zM707 1192l-193 -145l-133 112l350 268l275 -268l-150 -112z" />
    <glyph glyph-name="uni1EC0" unicode="&#x1ec0;" horiz-adv-x="1028" 
d="M999 1788l-280 256l172 141l227 -282zM1065 1366l-33 -266h-446l-33 -264h430l-33 -267h-430l-37 -303h455l-33 -266h-762l168 1366h754zM723 1638l-193 -145l-133 113l351 268l274 -268l-150 -113z" />
    <glyph glyph-name="uni1EC1" unicode="&#x1ec1;" horiz-adv-x="1110" 
d="M983 1341l-281 256l172 142l228 -283zM446 580h371q-11 79 -59 118q-45 37 -121 37q-84 0 -139 -55q-41 -45 -52 -100zM1100 399h-682q-3 -80 37 -137q45 -63 141 -63q76 0 117 26q37 25 63 82l297 -24q-65 -153 -166 -228q-115 -86 -313 -86q-107 0 -194 24t-162 99
q-115 115 -115 320q0 137 46 240.5t112 164.5q138 127 362 127q218 0 342 -117q43 -43 70.5 -102.5t36 -115.5t11.5 -113.5t-3 -96.5zM707 1192l-193 -145l-133 112l350 268l275 -268l-150 -112z" />
    <glyph glyph-name="uni1EC2" unicode="&#x1ec2;" horiz-adv-x="1028" 
d="M1087 1788h-137l25 174q32 -5 65 -0.5t43 14.5q2 1 9.5 7.5t9.5 9t7 8t6.5 11.5t2.5 13q4 28 -11 38t-40 10q-48 0 -55 -50h-148q11 76 58 123q66 66 161 66q109 0 157 -49.5t34 -141.5q-11 -70 -62 -115t-114 -51zM1065 1366l-33 -266h-446l-33 -264h430l-33 -267h-430
l-37 -303h455l-33 -266h-762l168 1366h754zM723 1638l-193 -145l-133 113l351 268l274 -268l-150 -113z" />
    <glyph glyph-name="uni1EC3" unicode="&#x1ec3;" horiz-adv-x="1110" 
d="M1071 1341h-137l24 175q32 -5 65.5 -0.5t43.5 14.5q2 1 9.5 7.5t9.5 9t7 8t6.5 11.5t2.5 13q4 28 -11 37.5t-40 9.5q-49 0 -56 -49h-147q11 77 57 123q65 65 162 65q109 0 156.5 -49t33.5 -141q-11 -70 -62 -115t-114 -51zM446 580h371q-11 79 -59 118q-45 37 -121 37
q-84 0 -139 -55q-41 -45 -52 -100zM1100 399h-682q-3 -80 37 -137q45 -63 141 -63q76 0 117 26q37 25 63 82l297 -24q-65 -153 -166 -228q-115 -86 -313 -86q-107 0 -194 24t-162 99q-115 115 -115 320q0 137 46 240.5t112 164.5q138 127 362 127q218 0 342 -117
q43 -43 70.5 -102.5t36 -115.5t11.5 -113.5t-3 -96.5zM707 1192l-193 -145l-133 112l350 268l275 -268l-150 -112z" />
    <glyph glyph-name="uni1EC4" unicode="&#x1ec4;" horiz-adv-x="1028" 
d="M985 2173l105 -84q-29 -45 -93 -109q-70 -55 -143 -53q-28 0 -88 25l-64 28q-51 23 -77 23q-53 0 -93 -70l-96 78q48 82 90 115q53 53 133 53q48 0 97 -22l59 -27q44 -27 86 -27q54 0 84 70zM1065 1366l-33 -266h-446l-33 -264h430l-33 -267h-430l-37 -303h455l-33 -266
h-762l168 1366h754zM723 1638l-193 -145l-133 113l351 268l274 -268l-150 -113z" />
    <glyph glyph-name="uni1EC5" unicode="&#x1ec5;" horiz-adv-x="1110" 
d="M969 1726l104 -84q-29 -45 -92 -108q-70 -55 -143 -53q-31 0 -88 24l-64 29q-49 22 -78 22q-52 0 -92 -69l-96 78q47 80 90 114q54 54 133 54q45 0 96 -23l60 -27q43 -26 86 -26q54 0 84 69zM446 580h371q-11 79 -59 118q-45 37 -121 37q-84 0 -139 -55q-41 -45 -52 -100
zM1100 399h-682q-3 -80 37 -137q45 -63 141 -63q76 0 117 26q37 25 63 82l297 -24q-65 -153 -166 -228q-115 -86 -313 -86q-107 0 -194 24t-162 99q-115 115 -115 320q0 137 46 240.5t112 164.5q138 127 362 127q218 0 342 -117q43 -43 70.5 -102.5t36 -115.5t11.5 -113.5
t-3 -96.5zM707 1192l-193 -145l-133 112l350 268l275 -268l-150 -112z" />
    <glyph glyph-name="uni1EC6" unicode="&#x1ec6;" horiz-adv-x="1028" 
d="M338 -313q6 63 49.5 105t104.5 42q64 0 104.5 -42.5t34.5 -104.5t-51 -104t-107 -42t-101.5 42.5t-33.5 103.5zM1065 1366l-33 -266h-446l-33 -264h430l-33 -267h-430l-37 -303h455l-33 -266h-762l168 1366h754zM723 1638l-193 -145l-133 113l351 268l274 -268l-150 -113
z" />
    <glyph glyph-name="uni1EC7" unicode="&#x1ec7;" horiz-adv-x="1110" 
d="M399 -313q6 63 49.5 105t104.5 42q64 0 104.5 -42.5t34.5 -104.5t-50.5 -104t-106.5 -42t-102 42.5t-34 103.5zM446 580h371q-11 79 -59 118q-45 37 -121 37q-84 0 -139 -55q-41 -45 -52 -100zM1100 399h-682q-3 -80 37 -137q45 -63 141 -63q76 0 117 26q37 25 63 82
l297 -24q-65 -153 -166 -228q-115 -86 -313 -86q-107 0 -194 24t-162 99q-115 115 -115 320q0 137 46 240.5t112 164.5q138 127 362 127q218 0 342 -117q43 -43 70.5 -102.5t36 -115.5t11.5 -113.5t-3 -96.5zM707 1192l-193 -145l-133 112l350 268l275 -268l-150 -112z" />
    <glyph glyph-name="uni1EC8" unicode="&#x1ec8;" horiz-adv-x="626" 
d="M561 1493h-137l25 174q32 -5 65 -0.5t43 14.5q2 2 6 5t6 5l5.5 5.5l5.5 5.5t4.5 5.5t3.5 7t2.5 7.5t1.5 9q4 28 -11 37.5t-40 9.5q-49 0 -56 -49h-147q11 76 57 122q66 66 162 66q109 0 157 -49.5t34 -141.5q-11 -70 -62 -114.5t-115 -50.5zM317 1366h316l-168 -1366
h-315z" />
    <glyph glyph-name="uni1EC9" unicode="&#x1ec9;" horiz-adv-x="565" 
d="M246 913h295l-113 -913h-295zM477 1047h-137l25 174q32 -5 65 -0.5t43 14.5q2 1 9.5 7.5t9.5 9t7 8t6.5 11.5t2.5 13q4 28 -11 37.5t-40 9.5q-49 0 -56 -49h-147q11 77 57 123q65 65 162 65q109 0 157 -49t34 -141q-11 -70 -62 -115t-115 -51z" />
    <glyph glyph-name="uni1ECA" unicode="&#x1eca;" horiz-adv-x="626" 
d="M129 -313q6 63 49.5 105t104.5 42q64 0 104.5 -42.5t34.5 -104.5t-51 -104t-107 -42t-101.5 42.5t-33.5 103.5zM317 1366h316l-168 -1366h-315z" />
    <glyph glyph-name="uni1ECB" unicode="&#x1ecb;" horiz-adv-x="565" 
d="M100 -313q6 63 49.5 105t104.5 42q64 0 104.5 -42.5t34.5 -104.5t-50.5 -104t-106.5 -42t-102 42.5t-34 103.5zM246 913h295l-113 -913h-295zM262 1227q5 68 53 113.5t115 45.5q66 0 110 -46.5t42 -112.5q-4 -67 -54 -113.5t-116 -46.5t-110 47t-40 113z" />
    <glyph glyph-name="uni1ECC" unicode="&#x1ecc;" horiz-adv-x="1658" 
d="M643 -313q6 63 49.5 105t104.5 42q64 0 104.5 -42.5t34.5 -104.5t-51 -104t-107 -42t-101.5 42.5t-33.5 103.5zM950 1397q320 0 510 -178q91 -89 142 -213.5t51 -272.5q0 -153 -54 -299.5t-157 -253.5q-211 -211 -565 -211q-150 0 -279.5 41.5t-241.5 153.5
q-192 200 -192 477q0 172 60.5 311.5t164.5 237.5q219 207 561 207zM938 1106q-201 0 -326 -131q-60 -63 -92.5 -145t-32.5 -168q0 -176 111 -287q110 -115 299 -115q193 0 305 117q58 60 92.5 147t34.5 189q0 180 -108 286q-109 107 -283 107z" />
    <glyph glyph-name="uni1ECD" unicode="&#x1ecd;" horiz-adv-x="1212" 
d="M416 -313q6 63 49 105t104 42q64 0 105 -42.5t35 -104.5t-51 -104t-107 -42t-101.5 42.5t-33.5 103.5zM690 944q112 0 214 -37t169 -104q123 -123 123 -309q0 -102 -38.5 -202.5t-108.5 -172.5q-89 -89 -192.5 -119.5t-227.5 -30.5q-52 0 -94.5 4.5t-94.5 17.5t-101 42
t-91 73q-125 128 -125 322q0 102 37.5 195.5t109.5 164.5q76 74 185 115t235 41zM645 219q106 0 172 66q76 73 76 194q0 100 -62 158q-57 57 -159 57q-95 0 -164 -63q-82 -73 -82 -195q0 -89 59 -155q62 -62 160 -62z" />
    <glyph glyph-name="uni1ECE" unicode="&#x1ece;" horiz-adv-x="1658" 
d="M1096 1493h-138l25 174q32 -5 65.5 -0.5t43.5 14.5q1 1 6.5 6t7 6t6 5.5t5.5 7t4 7t4 9t1 9.5q4 28 -11 37.5t-40 9.5q-48 0 -55 -49h-148q10 74 58 122q66 66 162 66q109 0 156.5 -49.5t33.5 -141.5q-11 -70 -61.5 -114.5t-114.5 -50.5zM950 1397q320 0 510 -178
q91 -89 142 -213.5t51 -272.5q0 -153 -54 -299.5t-157 -253.5q-211 -211 -565 -211q-150 0 -279.5 41.5t-241.5 153.5q-192 200 -192 477q0 172 60.5 311.5t164.5 237.5q219 207 561 207zM938 1106q-201 0 -326 -131q-60 -63 -92.5 -145t-32.5 -168q0 -176 111 -287
q110 -115 299 -115q193 0 305 117q58 60 92.5 147t34.5 189q0 180 -108 286q-109 107 -283 107z" />
    <glyph glyph-name="uni1ECF" unicode="&#x1ecf;" horiz-adv-x="1212" 
d="M813 1047h-137l24 174q32 -5 65.5 -0.5t43.5 14.5q2 1 9.5 7.5t9.5 9t7 8t6.5 11.5t2.5 13q4 28 -11 37.5t-40 9.5q-49 0 -56 -49h-147q11 77 57 123q65 65 162 65q109 0 156.5 -49t33.5 -141q-11 -70 -62 -115t-114 -51zM690 944q112 0 214 -37t169 -104
q123 -123 123 -309q0 -102 -38.5 -202.5t-108.5 -172.5q-89 -89 -192.5 -119.5t-227.5 -30.5q-52 0 -94.5 4.5t-94.5 17.5t-101 42t-91 73q-125 128 -125 322q0 102 37.5 195.5t109.5 164.5q76 74 185 115t235 41zM645 219q106 0 172 66q76 73 76 194q0 100 -62 158
q-57 57 -159 57q-95 0 -164 -63q-82 -73 -82 -195q0 -89 59 -155q62 -62 160 -62z" />
    <glyph glyph-name="uni1ED0" unicode="&#x1ed0;" horiz-adv-x="1658" 
d="M1653 2030l-373 -242l-102 123l335 274zM950 1397q320 0 510 -178q91 -89 142 -213.5t51 -272.5q0 -153 -54 -299.5t-157 -253.5q-211 -211 -565 -211q-150 0 -279.5 41.5t-241.5 153.5q-192 200 -192 477q0 172 60.5 311.5t164.5 237.5q219 207 561 207zM938 1106
q-201 0 -326 -131q-60 -63 -92.5 -145t-32.5 -168q0 -176 111 -287q110 -115 299 -115q193 0 305 117q58 60 92.5 147t34.5 189q0 180 -108 286q-109 107 -283 107zM1026 1638l-192 -145l-134 113l351 268l274 -268l-149 -113z" />
    <glyph glyph-name="uni1ED1" unicode="&#x1ed1;" horiz-adv-x="1212" 
d="M1384 1583l-372 -242l-103 123l336 275zM690 944q112 0 214 -37t169 -104q123 -123 123 -309q0 -102 -38.5 -202.5t-108.5 -172.5q-89 -89 -192.5 -119.5t-227.5 -30.5q-52 0 -94.5 4.5t-94.5 17.5t-101 42t-91 73q-125 128 -125 322q0 102 37.5 195.5t109.5 164.5
q76 74 185 115t235 41zM645 219q106 0 172 66q76 73 76 194q0 100 -62 158q-57 57 -159 57q-95 0 -164 -63q-82 -73 -82 -195q0 -89 59 -155q62 -62 160 -62zM758 1192l-193 -145l-133 112l350 268l275 -268l-150 -112z" />
    <glyph glyph-name="uni1ED2" unicode="&#x1ed2;" horiz-adv-x="1658" 
d="M1303 1788l-281 256l172 141l227 -282zM950 1397q320 0 510 -178q91 -89 142 -213.5t51 -272.5q0 -153 -54 -299.5t-157 -253.5q-211 -211 -565 -211q-150 0 -279.5 41.5t-241.5 153.5q-192 200 -192 477q0 172 60.5 311.5t164.5 237.5q219 207 561 207zM938 1106
q-201 0 -326 -131q-60 -63 -92.5 -145t-32.5 -168q0 -176 111 -287q110 -115 299 -115q193 0 305 117q58 60 92.5 147t34.5 189q0 180 -108 286q-109 107 -283 107zM1026 1638l-192 -145l-134 113l351 268l274 -268l-149 -113z" />
    <glyph glyph-name="uni1ED3" unicode="&#x1ed3;" horiz-adv-x="1212" 
d="M1034 1341l-280 256l172 142l227 -283zM690 944q112 0 214 -37t169 -104q123 -123 123 -309q0 -102 -38.5 -202.5t-108.5 -172.5q-89 -89 -192.5 -119.5t-227.5 -30.5q-52 0 -94.5 4.5t-94.5 17.5t-101 42t-91 73q-125 128 -125 322q0 102 37.5 195.5t109.5 164.5
q76 74 185 115t235 41zM645 219q106 0 172 66q76 73 76 194q0 100 -62 158q-57 57 -159 57q-95 0 -164 -63q-82 -73 -82 -195q0 -89 59 -155q62 -62 160 -62zM758 1192l-193 -145l-133 112l350 268l275 -268l-150 -112z" />
    <glyph glyph-name="uni1ED4" unicode="&#x1ed4;" horiz-adv-x="1658" 
d="M1391 1788h-138l25 174q32 -5 65 -0.5t43 14.5q2 1 9.5 7.5t9.5 9t7 8t6.5 11.5t2.5 13q4 28 -11 38t-40 10q-48 0 -55 -50h-148q11 76 58 123q66 66 161 66q109 0 157 -49.5t34 -141.5q-11 -70 -62 -115t-114 -51zM950 1397q320 0 510 -178q91 -89 142 -213.5t51 -272.5
q0 -153 -54 -299.5t-157 -253.5q-211 -211 -565 -211q-150 0 -279.5 41.5t-241.5 153.5q-192 200 -192 477q0 172 60.5 311.5t164.5 237.5q219 207 561 207zM938 1106q-201 0 -326 -131q-60 -63 -92.5 -145t-32.5 -168q0 -176 111 -287q110 -115 299 -115q193 0 305 117
q58 60 92.5 147t34.5 189q0 180 -108 286q-109 107 -283 107zM1026 1638l-192 -145l-134 113l351 268l274 -268l-149 -113z" />
    <glyph glyph-name="uni1ED5" unicode="&#x1ed5;" horiz-adv-x="1212" 
d="M1122 1341h-137l25 175q32 -5 65 -0.5t43 14.5q2 1 9.5 7.5t9.5 9t7 8t6.5 11.5t2.5 13q4 28 -11 37.5t-40 9.5q-48 0 -55 -49h-148q11 77 57 123q65 65 162 65q109 0 157 -49t34 -141q-11 -70 -62 -115t-114 -51zM690 944q112 0 214 -37t169 -104q123 -123 123 -309
q0 -102 -38.5 -202.5t-108.5 -172.5q-89 -89 -192.5 -119.5t-227.5 -30.5q-52 0 -94.5 4.5t-94.5 17.5t-101 42t-91 73q-125 128 -125 322q0 102 37.5 195.5t109.5 164.5q76 74 185 115t235 41zM645 219q106 0 172 66q76 73 76 194q0 100 -62 158q-57 57 -159 57
q-95 0 -164 -63q-82 -73 -82 -195q0 -89 59 -155q62 -62 160 -62zM758 1192l-193 -145l-133 112l350 268l275 -268l-150 -112z" />
    <glyph glyph-name="uni1ED6" unicode="&#x1ed6;" horiz-adv-x="1658" 
d="M1288 2173l105 -84q-29 -45 -93 -109q-70 -55 -143 -53q-28 0 -88 25l-63 28q-51 23 -78 23q-52 0 -92 -70l-97 78q48 82 90 115q53 53 134 53q47 0 96 -22l59 -27q44 -27 86 -27q54 0 84 70zM950 1397q320 0 510 -178q91 -89 142 -213.5t51 -272.5q0 -153 -54 -299.5
t-157 -253.5q-211 -211 -565 -211q-150 0 -279.5 41.5t-241.5 153.5q-192 200 -192 477q0 172 60.5 311.5t164.5 237.5q219 207 561 207zM938 1106q-201 0 -326 -131q-60 -63 -92.5 -145t-32.5 -168q0 -176 111 -287q110 -115 299 -115q193 0 305 117q58 60 92.5 147
t34.5 189q0 180 -108 286q-109 107 -283 107zM1026 1638l-192 -145l-134 113l351 268l274 -268l-149 -113z" />
    <glyph glyph-name="uni1ED7" unicode="&#x1ed7;" horiz-adv-x="1212" 
d="M1020 1726l104 -84q-29 -45 -92 -108q-70 -55 -143 -53q-31 0 -88 24l-64 29q-49 22 -78 22q-52 0 -92 -69l-96 78q47 80 90 114q54 54 133 54q46 0 97 -23l59 -27q43 -26 86 -26q54 0 84 69zM690 944q112 0 214 -37t169 -104q123 -123 123 -309q0 -102 -38.5 -202.5
t-108.5 -172.5q-89 -89 -192.5 -119.5t-227.5 -30.5q-52 0 -94.5 4.5t-94.5 17.5t-101 42t-91 73q-125 128 -125 322q0 102 37.5 195.5t109.5 164.5q76 74 185 115t235 41zM645 219q106 0 172 66q76 73 76 194q0 100 -62 158q-57 57 -159 57q-95 0 -164 -63
q-82 -73 -82 -195q0 -89 59 -155q62 -62 160 -62zM758 1192l-193 -145l-133 112l350 268l275 -268l-150 -112z" />
    <glyph glyph-name="uni1ED8" unicode="&#x1ed8;" horiz-adv-x="1658" 
d="M643 -313q6 63 49.5 105t104.5 42q64 0 104.5 -42.5t34.5 -104.5t-51 -104t-107 -42t-101.5 42.5t-33.5 103.5zM950 1397q320 0 510 -178q91 -89 142 -213.5t51 -272.5q0 -153 -54 -299.5t-157 -253.5q-211 -211 -565 -211q-150 0 -279.5 41.5t-241.5 153.5
q-192 200 -192 477q0 172 60.5 311.5t164.5 237.5q219 207 561 207zM938 1106q-201 0 -326 -131q-60 -63 -92.5 -145t-32.5 -168q0 -176 111 -287q110 -115 299 -115q193 0 305 117q58 60 92.5 147t34.5 189q0 180 -108 286q-109 107 -283 107zM1026 1638l-192 -145
l-134 113l351 268l274 -268l-149 -113z" />
    <glyph glyph-name="uni1ED9" unicode="&#x1ed9;" horiz-adv-x="1212" 
d="M416 -313q6 63 49 105t104 42q64 0 105 -42.5t35 -104.5t-51 -104t-107 -42t-101.5 42.5t-33.5 103.5zM690 944q112 0 214 -37t169 -104q123 -123 123 -309q0 -102 -38.5 -202.5t-108.5 -172.5q-89 -89 -192.5 -119.5t-227.5 -30.5q-52 0 -94.5 4.5t-94.5 17.5t-101 42
t-91 73q-125 128 -125 322q0 102 37.5 195.5t109.5 164.5q76 74 185 115t235 41zM645 219q106 0 172 66q76 73 76 194q0 100 -62 158q-57 57 -159 57q-95 0 -164 -63q-82 -73 -82 -195q0 -89 59 -155q62 -62 160 -62zM758 1192l-193 -145l-133 112l350 268l275 -268
l-150 -112z" />
    <glyph glyph-name="uni1EDA" unicode="&#x1eda;" horiz-adv-x="1658" 
d="M1370 1735l-373 -242l-102 123l336 274zM950 1397q320 0 510 -178q17 -17 25 -27q-41 -8 -101 -8q-144 0 -213 10l15 172q65 -10 128 -9t83 7q40 4 47 14q11 7 16.5 22.5t7 25.5t2.5 34v2t0.5 2t0.5 3.5t0.5 5t1 7t1 9.5t1.5 12t2 15h219l-6 -54q-12 -129 -58.5 -190
t-146.5 -80q168 -186 168 -459q0 -153 -54 -299.5t-157 -253.5q-211 -211 -565 -211q-150 0 -279.5 41.5t-241.5 153.5q-192 200 -192 477q0 172 60.5 311.5t164.5 237.5q219 207 561 207zM938 1106q-201 0 -326 -131q-60 -63 -92.5 -145t-32.5 -168q0 -176 111 -287
q110 -115 299 -115q193 0 305 117q58 60 92.5 147t34.5 189q0 180 -108 286q-109 107 -283 107z" />
    <glyph glyph-name="uni1EDB" unicode="&#x1edb;" horiz-adv-x="1212" 
d="M1098 1288l-373 -241l-102 122l335 275zM690 944q89 0 184 -29q108 -15 142 -6q39 4 47 15q23 16 27 82q0 4 6 55h219l-6 -53q-12 -123 -54 -183.5t-133 -83.5q74 -104 74 -247q0 -102 -38.5 -202.5t-108.5 -172.5q-89 -89 -192.5 -119.5t-227.5 -30.5q-52 0 -94.5 4.5
t-94.5 17.5t-101 42t-91 73q-125 128 -125 322q0 102 37.5 195.5t109.5 164.5q76 74 185 115t235 41zM645 219q106 0 172 66q76 73 76 194q0 100 -62 158q-57 57 -159 57q-95 0 -164 -63q-82 -73 -82 -195q0 -89 59 -155q62 -62 160 -62z" />
    <glyph glyph-name="uni1EDC" unicode="&#x1edc;" horiz-adv-x="1658" 
d="M1067 1493l-281 256l172 141l228 -282zM950 1397q320 0 510 -178q17 -17 25 -27q-41 -8 -101 -8q-144 0 -213 10l15 172q65 -10 128 -9t83 7q40 4 47 14q11 7 16.5 22.5t7 25.5t2.5 34v2t0.5 2t0.5 3.5t0.5 5t1 7t1 9.5t1.5 12t2 15h219l-6 -54q-12 -129 -58.5 -190
t-146.5 -80q168 -186 168 -459q0 -153 -54 -299.5t-157 -253.5q-211 -211 -565 -211q-150 0 -279.5 41.5t-241.5 153.5q-192 200 -192 477q0 172 60.5 311.5t164.5 237.5q219 207 561 207zM938 1106q-201 0 -326 -131q-60 -63 -92.5 -145t-32.5 -168q0 -176 111 -287
q110 -115 299 -115q193 0 305 117q58 60 92.5 147t34.5 189q0 180 -108 286q-109 107 -283 107z" />
    <glyph glyph-name="uni1EDD" unicode="&#x1edd;" horiz-adv-x="1212" 
d="M776 1047l-280 256l172 141l227 -283zM690 944q89 0 184 -29q108 -15 142 -6q39 4 47 15q23 16 27 82q0 4 6 55h219l-6 -53q-12 -123 -54 -183.5t-133 -83.5q74 -104 74 -247q0 -102 -38.5 -202.5t-108.5 -172.5q-89 -89 -192.5 -119.5t-227.5 -30.5q-52 0 -94.5 4.5
t-94.5 17.5t-101 42t-91 73q-125 128 -125 322q0 102 37.5 195.5t109.5 164.5q76 74 185 115t235 41zM645 219q106 0 172 66q76 73 76 194q0 100 -62 158q-57 57 -159 57q-95 0 -164 -63q-82 -73 -82 -195q0 -89 59 -155q62 -62 160 -62z" />
    <glyph glyph-name="uni1EDE" unicode="&#x1ede;" horiz-adv-x="1658" 
d="M1096 1493h-138l25 174q32 -5 65.5 -0.5t43.5 14.5q1 1 6.5 6t7 6t6 5.5t5.5 7t4 7t4 9t1 9.5q4 28 -11 37.5t-40 9.5q-48 0 -55 -49h-148q10 74 58 122q66 66 162 66q109 0 156.5 -49.5t33.5 -141.5q-11 -70 -61.5 -114.5t-114.5 -50.5zM950 1397q320 0 510 -178
q17 -17 25 -27q-41 -8 -101 -8q-144 0 -213 10l15 172q65 -10 128 -9t83 7q40 4 47 14q11 7 16.5 22.5t7 25.5t2.5 34v2t0.5 2t0.5 3.5t0.5 5t1 7t1 9.5t1.5 12t2 15h219l-6 -54q-12 -129 -58.5 -190t-146.5 -80q168 -186 168 -459q0 -153 -54 -299.5t-157 -253.5
q-211 -211 -565 -211q-150 0 -279.5 41.5t-241.5 153.5q-192 200 -192 477q0 172 60.5 311.5t164.5 237.5q219 207 561 207zM938 1106q-201 0 -326 -131q-60 -63 -92.5 -145t-32.5 -168q0 -176 111 -287q110 -115 299 -115q193 0 305 117q58 60 92.5 147t34.5 189
q0 180 -108 286q-109 107 -283 107z" />
    <glyph glyph-name="uni1EDF" unicode="&#x1edf;" horiz-adv-x="1212" 
d="M813 1047h-137l24 174q32 -5 65.5 -0.5t43.5 14.5q2 1 9.5 7.5t9.5 9t7 8t6.5 11.5t2.5 13q4 28 -11 37.5t-40 9.5q-49 0 -56 -49h-147q11 77 57 123q65 65 162 65q109 0 156.5 -49t33.5 -141q-11 -70 -62 -115t-114 -51zM690 944q89 0 184 -29q108 -15 142 -6
q39 4 47 15q23 16 27 82q0 4 6 55h219l-6 -53q-12 -123 -54 -183.5t-133 -83.5q74 -104 74 -247q0 -102 -38.5 -202.5t-108.5 -172.5q-89 -89 -192.5 -119.5t-227.5 -30.5q-52 0 -94.5 4.5t-94.5 17.5t-101 42t-91 73q-125 128 -125 322q0 102 37.5 195.5t109.5 164.5
q76 74 185 115t235 41zM645 219q106 0 172 66q76 73 76 194q0 100 -62 158q-57 57 -159 57q-95 0 -164 -63q-82 -73 -82 -195q0 -89 59 -155q62 -62 160 -62z" />
    <glyph glyph-name="uni1EE0" unicode="&#x1ee0;" horiz-adv-x="1658" 
d="M1264 1753l104 -84q-29 -45 -92 -108q-71 -56 -143 -54q-29 0 -89 25l-63 29q-49 22 -78 22q-52 0 -92 -70l-96 78q48 82 90 115q53 53 133 53q47 0 96 -22l60 -27q44 -27 86 -27q54 0 84 70zM950 1397q320 0 510 -178q17 -17 25 -27q-41 -8 -101 -8q-144 0 -213 10
l15 172q65 -10 128 -9t83 7q40 4 47 14q11 7 16.5 22.5t7 25.5t2.5 34v2t0.5 2t0.5 3.5t0.5 5t1 7t1 9.5t1.5 12t2 15h219l-6 -54q-12 -129 -58.5 -190t-146.5 -80q168 -186 168 -459q0 -153 -54 -299.5t-157 -253.5q-211 -211 -565 -211q-150 0 -279.5 41.5t-241.5 153.5
q-192 200 -192 477q0 172 60.5 311.5t164.5 237.5q219 207 561 207zM938 1106q-201 0 -326 -131q-60 -63 -92.5 -145t-32.5 -168q0 -176 111 -287q110 -115 299 -115q193 0 305 117q58 60 92.5 147t34.5 189q0 180 -108 286q-109 107 -283 107z" />
    <glyph glyph-name="uni1EE1" unicode="&#x1ee1;" horiz-adv-x="1212" 
d="M981 1323l104 -84q-30 -47 -92 -109q-70 -55 -143 -53q-28 0 -88 25l-64 28q-51 23 -77 23q-53 0 -93 -70l-96 78q48 82 90 115q53 53 133 53q48 0 97 -22l59 -27q44 -27 86 -27q54 0 84 70zM690 944q89 0 184 -29q108 -15 142 -6q39 4 47 15q23 16 27 82q0 4 6 55h219
l-6 -53q-12 -123 -54 -183.5t-133 -83.5q74 -104 74 -247q0 -102 -38.5 -202.5t-108.5 -172.5q-89 -89 -192.5 -119.5t-227.5 -30.5q-52 0 -94.5 4.5t-94.5 17.5t-101 42t-91 73q-125 128 -125 322q0 102 37.5 195.5t109.5 164.5q76 74 185 115t235 41zM645 219
q106 0 172 66q76 73 76 194q0 100 -62 158q-57 57 -159 57q-95 0 -164 -63q-82 -73 -82 -195q0 -89 59 -155q62 -62 160 -62z" />
    <glyph glyph-name="uni1EE2" unicode="&#x1ee2;" horiz-adv-x="1658" 
d="M643 -313q6 63 49.5 105t104.5 42q64 0 104.5 -42.5t34.5 -104.5t-51 -104t-107 -42t-101.5 42.5t-33.5 103.5zM950 1397q320 0 510 -178q17 -17 25 -27q-41 -8 -101 -8q-144 0 -213 10l15 172q65 -10 128 -9t83 7q40 4 47 14q11 7 16.5 22.5t7 25.5t2.5 34v2t0.5 2
t0.5 3.5t0.5 5t1 7t1 9.5t1.5 12t2 15h219l-6 -54q-12 -129 -58.5 -190t-146.5 -80q168 -186 168 -459q0 -153 -54 -299.5t-157 -253.5q-211 -211 -565 -211q-150 0 -279.5 41.5t-241.5 153.5q-192 200 -192 477q0 172 60.5 311.5t164.5 237.5q219 207 561 207zM938 1106
q-201 0 -326 -131q-60 -63 -92.5 -145t-32.5 -168q0 -176 111 -287q110 -115 299 -115q193 0 305 117q58 60 92.5 147t34.5 189q0 180 -108 286q-109 107 -283 107z" />
    <glyph glyph-name="uni1EE3" unicode="&#x1ee3;" horiz-adv-x="1212" 
d="M416 -313q6 63 49 105t104 42q64 0 105 -42.5t35 -104.5t-51 -104t-107 -42t-101.5 42.5t-33.5 103.5zM690 944q89 0 184 -29q108 -15 142 -6q39 4 47 15q23 16 27 82q0 4 6 55h219l-6 -53q-12 -123 -54 -183.5t-133 -83.5q74 -104 74 -247q0 -102 -38.5 -202.5
t-108.5 -172.5q-89 -89 -192.5 -119.5t-227.5 -30.5q-52 0 -94.5 4.5t-94.5 17.5t-101 42t-91 73q-125 128 -125 322q0 102 37.5 195.5t109.5 164.5q76 74 185 115t235 41zM645 219q106 0 172 66q76 73 76 194q0 100 -62 158q-57 57 -159 57q-95 0 -164 -63
q-82 -73 -82 -195q0 -89 59 -155q62 -62 160 -62z" />
    <glyph glyph-name="uni1EE4" unicode="&#x1ee4;" horiz-adv-x="1454" 
d="M524 -313q6 63 49.5 105t104.5 42q64 0 104.5 -42.5t34.5 -104.5t-51 -104t-107 -42t-101.5 42.5t-33.5 103.5zM309 1366h316l-90 -745q-11 -79 -11 -119q0 -116 60 -176q69 -62 180 -62q133 0 201 68q31 31 52 83.5t27 86t13 90.5l94 774h315l-98 -795
q-25 -179 -47 -252q-38 -121 -115 -202q-48 -50 -109 -82t-127 -45t-111 -17t-101 -4q-129 0 -238.5 29t-193.5 113q-121 115 -121 315q0 68 16 215z" />
    <glyph glyph-name="uni1EE5" unicode="&#x1ee5;" horiz-adv-x="1167" 
d="M387 -313q6 63 49.5 105t104.5 42q64 0 104.5 -42.5t34.5 -104.5t-51 -104t-107 -42t-101.5 42.5t-33.5 103.5zM866 913h295l-57 -493q-10 -103 -37.5 -186.5t-95.5 -147.5q-125 -117 -359 -117q-247 0 -356 105q-47 42 -72.5 107t-25.5 138q0 78 10 130l55 464h295
l-53 -454q-10 -95 -10 -101q0 -69 39 -100q42 -39 120 -39q88 0 136 51q44 44 59 164z" />
    <glyph glyph-name="uni1EE6" unicode="&#x1ee6;" horiz-adv-x="1454" 
d="M977 1493h-137l24 174q32 -5 65.5 -0.5t43.5 14.5q2 2 6 5t6 5l5.5 5.5l5.5 5.5t4.5 5.5t3.5 7t2.5 7.5t1.5 9q4 28 -11 37.5t-41 9.5q-48 0 -55 -49h-147q11 76 57 122q66 66 162 66q109 0 156.5 -49.5t33.5 -141.5q-11 -70 -61.5 -114.5t-114.5 -50.5zM309 1366h316
l-90 -745q-11 -79 -11 -119q0 -116 60 -176q69 -62 180 -62q133 0 201 68q31 31 52 83.5t27 86t13 90.5l94 774h315l-98 -795q-25 -179 -47 -252q-38 -121 -115 -202q-48 -50 -109 -82t-127 -45t-111 -17t-101 -4q-129 0 -238.5 29t-193.5 113q-121 115 -121 315
q0 68 16 215z" />
    <glyph glyph-name="uni1EE7" unicode="&#x1ee7;" horiz-adv-x="1167" 
d="M776 1047h-137l25 174q32 -5 65 -0.5t43 14.5q2 1 9.5 7.5t9.5 9t7 8t6.5 11.5t2.5 13q4 28 -11 37.5t-40 9.5q-49 0 -56 -49h-147q11 77 57 123q65 65 162 65q109 0 157 -49t34 -141q-11 -70 -62 -115t-115 -51zM866 913h295l-57 -493q-10 -103 -37.5 -186.5
t-95.5 -147.5q-125 -117 -359 -117q-247 0 -356 105q-47 42 -72.5 107t-25.5 138q0 78 10 130l55 464h295l-53 -454q-10 -95 -10 -101q0 -69 39 -100q42 -39 120 -39q88 0 136 51q44 44 59 164z" />
    <glyph glyph-name="uni1EE8" unicode="&#x1ee8;" horiz-adv-x="1454" 
d="M1249 1735l-372 -242l-103 123l336 274zM309 1366h316l-90 -745q-11 -79 -11 -119q0 -116 60 -176q69 -62 180 -62q133 0 201 68q31 31 52 83.5t27 86t13 90.5l94 774h254q25 3 31 12q11 7 16.5 22.5t7 25.5t2.5 34q0 5 6 56h220l-7 -54q-14 -137 -67.5 -199.5
t-169.5 -74.5l-76 -617q-25 -179 -47 -252q-38 -121 -115 -202q-48 -50 -109 -82t-127 -45t-111 -17t-101 -4q-129 0 -238.5 29t-193.5 113q-121 115 -121 315q0 68 16 215z" />
    <glyph glyph-name="uni1EE9" unicode="&#x1ee9;" horiz-adv-x="1191" 
d="M1051 1288l-373 -241l-103 122l336 275zM866 913h244q11 2 20 11q23 16 27 82q0 4 6 55h219l-6 -53q-14 -137 -66.5 -199.5t-168.5 -75.5l-37 -313q-10 -103 -37.5 -186.5t-95.5 -147.5q-125 -117 -359 -117q-247 0 -356 105q-47 42 -72.5 107t-25.5 138q0 78 10 130
l55 464h295l-53 -454q-10 -95 -10 -101q0 -69 39 -100q42 -39 120 -39q88 0 136 51q44 44 59 164z" />
    <glyph glyph-name="uni1EEA" unicode="&#x1eea;" horiz-adv-x="1454" 
d="M934 1493l-281 256l172 141l228 -282zM309 1366h316l-90 -745q-11 -79 -11 -119q0 -116 60 -176q69 -62 180 -62q133 0 201 68q31 31 52 83.5t27 86t13 90.5l94 774h254q25 3 31 12q11 7 16.5 22.5t7 25.5t2.5 34q0 5 6 56h220l-7 -54q-14 -137 -67.5 -199.5
t-169.5 -74.5l-76 -617q-25 -179 -47 -252q-38 -121 -115 -202q-48 -50 -109 -82t-127 -45t-111 -17t-101 -4q-129 0 -238.5 29t-193.5 113q-121 115 -121 315q0 68 16 215z" />
    <glyph glyph-name="uni1EEB" unicode="&#x1eeb;" horiz-adv-x="1191" 
d="M741 1047l-280 256l172 141l227 -283zM866 913h244q11 2 20 11q23 16 27 82q0 4 6 55h219l-6 -53q-14 -137 -66.5 -199.5t-168.5 -75.5l-37 -313q-10 -103 -37.5 -186.5t-95.5 -147.5q-125 -117 -359 -117q-247 0 -356 105q-47 42 -72.5 107t-25.5 138q0 78 10 130
l55 464h295l-53 -454q-10 -95 -10 -101q0 -69 39 -100q42 -39 120 -39q88 0 136 51q44 44 59 164z" />
    <glyph glyph-name="uni1EEC" unicode="&#x1eec;" horiz-adv-x="1454" 
d="M977 1493h-137l24 174q32 -5 65.5 -0.5t43.5 14.5q2 2 6 5t6 5l5.5 5.5l5.5 5.5t4.5 5.5t3.5 7t2.5 7.5t1.5 9q4 28 -11 37.5t-41 9.5q-48 0 -55 -49h-147q11 76 57 122q66 66 162 66q109 0 156.5 -49.5t33.5 -141.5q-11 -70 -61.5 -114.5t-114.5 -50.5zM309 1366h316
l-90 -745q-11 -79 -11 -119q0 -116 60 -176q69 -62 180 -62q133 0 201 68q31 31 52 83.5t27 86t13 90.5l94 774h254q25 3 31 12q11 7 16.5 22.5t7 25.5t2.5 34q0 5 6 56h220l-7 -54q-14 -137 -67.5 -199.5t-169.5 -74.5l-76 -617q-25 -179 -47 -252q-38 -121 -115 -202
q-48 -50 -109 -82t-127 -45t-111 -17t-101 -4q-129 0 -238.5 29t-193.5 113q-121 115 -121 315q0 68 16 215z" />
    <glyph glyph-name="uni1EED" unicode="&#x1eed;" horiz-adv-x="1191" 
d="M776 1047h-137l25 174q32 -5 65 -0.5t43 14.5q2 1 9.5 7.5t9.5 9t7 8t6.5 11.5t2.5 13q4 28 -11 37.5t-40 9.5q-49 0 -56 -49h-147q11 77 57 123q65 65 162 65q109 0 157 -49t34 -141q-11 -70 -62 -115t-115 -51zM866 913h244q11 2 20 11q23 16 27 82q0 4 6 55h219
l-6 -53q-14 -137 -66.5 -199.5t-168.5 -75.5l-37 -313q-10 -103 -37.5 -186.5t-95.5 -147.5q-125 -117 -359 -117q-247 0 -356 105q-47 42 -72.5 107t-25.5 138q0 78 10 130l55 464h295l-53 -454q-10 -95 -10 -101q0 -69 39 -100q42 -39 120 -39q88 0 136 51q44 44 59 164z
" />
    <glyph glyph-name="uni1EEE" unicode="&#x1eee;" horiz-adv-x="1454" 
d="M1141 1753l104 -84q-29 -45 -92 -108q-71 -56 -143 -54q-28 0 -88 25l-64 29q-49 22 -78 22q-52 0 -92 -70l-96 78q48 82 90 115q53 53 133 53q47 0 96 -22l60 -27q44 -27 86 -27q54 0 84 70zM309 1366h316l-90 -745q-11 -79 -11 -119q0 -116 60 -176q69 -62 180 -62
q133 0 201 68q31 31 52 83.5t27 86t13 90.5l94 774h254q25 3 31 12q11 7 16.5 22.5t7 25.5t2.5 34q0 5 6 56h220l-7 -54q-14 -137 -67.5 -199.5t-169.5 -74.5l-76 -617q-25 -179 -47 -252q-38 -121 -115 -202q-48 -50 -109 -82t-127 -45t-111 -17t-101 -4q-129 0 -238.5 29
t-193.5 113q-121 115 -121 315q0 68 16 215z" />
    <glyph glyph-name="uni1EEF" unicode="&#x1eef;" horiz-adv-x="1191" 
d="M926 1323l104 -84q-30 -47 -92 -109q-70 -55 -143 -53q-28 0 -88 25l-64 28q-51 23 -78 23q-52 0 -92 -70l-96 78q48 82 90 115q53 53 133 53q47 0 96 -22l60 -27q44 -27 86 -27q54 0 84 70zM866 913h244q11 2 20 11q23 16 27 82q0 4 6 55h219l-6 -53
q-14 -137 -66.5 -199.5t-168.5 -75.5l-37 -313q-10 -103 -37.5 -186.5t-95.5 -147.5q-125 -117 -359 -117q-247 0 -356 105q-47 42 -72.5 107t-25.5 138q0 78 10 130l55 464h295l-53 -454q-10 -95 -10 -101q0 -69 39 -100q42 -39 120 -39q88 0 136 51q44 44 59 164z" />
    <glyph glyph-name="uni1EF0" unicode="&#x1ef0;" horiz-adv-x="1454" 
d="M524 -313q6 63 49.5 105t104.5 42q64 0 104.5 -42.5t34.5 -104.5t-51 -104t-107 -42t-101.5 42.5t-33.5 103.5zM309 1366h316l-90 -745q-11 -79 -11 -119q0 -116 60 -176q69 -62 180 -62q133 0 201 68q31 31 52 83.5t27 86t13 90.5l94 774h254q25 3 31 12q11 7 16.5 22.5
t7 25.5t2.5 34q0 5 6 56h220l-7 -54q-14 -137 -67.5 -199.5t-169.5 -74.5l-76 -617q-25 -179 -47 -252q-38 -121 -115 -202q-48 -50 -109 -82t-127 -45t-111 -17t-101 -4q-129 0 -238.5 29t-193.5 113q-121 115 -121 315q0 68 16 215z" />
    <glyph glyph-name="uni1EF1" unicode="&#x1ef1;" horiz-adv-x="1191" 
d="M387 -313q6 63 49.5 105t104.5 42q64 0 104.5 -42.5t34.5 -104.5t-51 -104t-107 -42t-101.5 42.5t-33.5 103.5zM866 913h244q11 2 20 11q23 16 27 82q0 4 6 55h219l-6 -53q-14 -137 -66.5 -199.5t-168.5 -75.5l-37 -313q-10 -103 -37.5 -186.5t-95.5 -147.5
q-125 -117 -359 -117q-247 0 -356 105q-47 42 -72.5 107t-25.5 138q0 78 10 130l55 464h295l-53 -454q-10 -95 -10 -101q0 -69 39 -100q42 -39 120 -39q88 0 136 51q44 44 59 164z" />
    <glyph glyph-name="Ygrave" unicode="&#x1ef2;" horiz-adv-x="1294" 
d="M829 1493l-280 256l172 141l227 -282zM483 0l78 637l-399 729h360l223 -424l326 424h385l-579 -729l-78 -637h-316z" />
    <glyph glyph-name="ygrave" unicode="&#x1ef3;" horiz-adv-x="1193" 
d="M729 1047l-280 256l172 141l227 -283zM82 -469l377 586l-355 796h336l203 -499l307 499h346l-882 -1382h-332z" />
    <glyph glyph-name="uni1EF4" unicode="&#x1ef4;" horiz-adv-x="1294" 
d="M465 -313q6 63 49 105t104 42q64 0 105 -42.5t35 -104.5t-51 -104t-107 -42t-101.5 42.5t-33.5 103.5zM483 0l78 637l-399 729h360l223 -424l326 424h385l-579 -729l-78 -637h-316z" />
    <glyph glyph-name="uni1EF5" unicode="&#x1ef5;" horiz-adv-x="1193" 
d="M770 -313q6 63 49.5 105t104.5 42q64 0 104.5 -42.5t34.5 -104.5t-51 -104t-107 -42t-101.5 42.5t-33.5 103.5zM82 -469l377 586l-355 796h336l203 -499l307 499h346l-882 -1382h-332z" />
    <glyph glyph-name="uni1EF6" unicode="&#x1ef6;" horiz-adv-x="1294" 
d="M868 1493h-137l25 174q32 -5 65 -0.5t43 14.5q2 2 6 5t6 5l5.5 5.5l5.5 5.5t4.5 5.5t3.5 7t2.5 7.5t1.5 9q4 28 -11 37.5t-40 9.5q-48 0 -55 -49h-148q11 76 57 122q66 66 162 66q109 0 157 -49.5t34 -141.5q-11 -70 -61.5 -114.5t-114.5 -50.5zM483 0l78 637l-399 729
h360l223 -424l326 424h385l-579 -729l-78 -637h-316z" />
    <glyph glyph-name="uni1EF7" unicode="&#x1ef7;" horiz-adv-x="1193" 
d="M778 1047h-137l25 174q32 -5 65 -0.5t43 14.5q2 1 9.5 7.5t9.5 9t7 8t6.5 11.5t2.5 13q4 28 -11 37.5t-40 9.5q-49 0 -56 -49h-147q11 77 57 123q65 65 162 65q109 0 157 -49t34 -141q-11 -70 -62 -115t-115 -51zM82 -469l377 586l-355 796h336l203 -499l307 499h346
l-882 -1382h-332z" />
    <glyph glyph-name="uni1EF8" unicode="&#x1ef8;" horiz-adv-x="1294" 
d="M1053 1753l104 -84q-29 -45 -92 -108q-71 -56 -143 -54q-28 0 -88 25l-64 29q-49 22 -78 22q-52 0 -92 -70l-96 78q48 82 90 115q53 53 133 53q47 0 96 -22l60 -27q44 -27 86 -27q54 0 84 70zM483 0l78 637l-399 729h360l223 -424l326 424h385l-579 -729l-78 -637h-316z
" />
    <glyph glyph-name="uni1EF9" unicode="&#x1ef9;" horiz-adv-x="1193" 
d="M934 1323l104 -84q-30 -47 -92 -109q-70 -55 -143 -53q-28 0 -88 25l-64 28q-51 23 -78 23q-52 0 -92 -70l-96 78q48 82 90 115q53 53 133 53q48 0 97 -22l59 -27q44 -27 86 -27q54 0 84 70zM82 -469l377 586l-355 796h336l203 -499l307 499h346l-882 -1382h-332z" />
    <glyph glyph-name="endash" unicode="&#x2013;" horiz-adv-x="1243" 
d="M193 397l28 242h957l-29 -242h-956z" />
    <glyph glyph-name="emdash" unicode="&#x2014;" horiz-adv-x="1789" 
d="M193 397l28 242h1503l-28 -242h-1503z" />
    <glyph glyph-name="quoteleft" unicode="&#x2018;" horiz-adv-x="669" 
d="M748 1366l-295 -578l-269 15l381 571z" />
    <glyph glyph-name="quoteright" unicode="&#x2019;" horiz-adv-x="806" 
d="M246 803l297 577l268 -14l-381 -571z" />
    <glyph glyph-name="quotesinglbase" unicode="&#x201a;" horiz-adv-x="806" 
d="M53 -262l297 577l268 -14l-380 -571z" />
    <glyph glyph-name="quotedblleft" unicode="&#x201c;" horiz-adv-x="1095" 
d="M1174 1366l-297 -578l-269 15l383 571zM748 1366l-295 -578l-269 15l381 571z" />
    <glyph glyph-name="quotedblright" unicode="&#x201d;" horiz-adv-x="1255" 
d="M246 803l297 577l268 -14l-381 -571zM670 803l299 577l266 -14l-381 -571z" />
    <glyph glyph-name="quotedblbase" unicode="&#x201e;" horiz-adv-x="1255" 
d="M61 -262l297 577l269 -14l-381 -571zM485 -262l299 577l267 -14l-381 -571z" />
    <glyph glyph-name="dagger" unicode="&#x2020;" horiz-adv-x="1193" 
d="M598 1079l51 414h271l-52 -414h322l-31 -237h-321l-150 -1219h-270l149 1219h-321l30 237h322z" />
    <glyph glyph-name="daggerdbl" unicode="&#x2021;" horiz-adv-x="1191" 
d="M600 1079l51 414h269l-52 -414h322l-31 -237h-321l-58 -469h322l-29 -236h-321l-64 -514h-268l63 514h-321l28 236h322l57 469h-321l31 237h321z" />
    <glyph glyph-name="bullet" unicode="&#x2022;" horiz-adv-x="2048" 
d="M805 696q0 118 84.5 202.5t202.5 84.5t202 -84t84 -203q0 -118 -84 -202t-202 -84q-119 0 -203 84t-84 202z" />
    <glyph glyph-name="ellipsis" unicode="&#x2026;" horiz-adv-x="1830" 
d="M141 156q0 78 54.5 132t132.5 54t132 -54t54 -132t-54 -132.5t-132 -54.5t-132.5 54.5t-54.5 132.5zM741 156q0 78 54.5 132t132.5 54t132 -54t54 -132t-54 -132.5t-132 -54.5t-132.5 54.5t-54.5 132.5zM1341 156q0 78 54.5 132t132.5 54t132 -54t54 -132t-54 -132.5
t-132 -54.5t-132.5 54.5t-54.5 132.5z" />
    <glyph glyph-name="perthousand" unicode="&#x2030;" horiz-adv-x="2549" 
d="M389 4l971 1385l139 -31l-973 -1387zM1352 479q-77 0 -129 -47q-60 -60 -60 -141q0 -58 35 -96q44 -48 111 -48q78 0 131 56q53 53 53 133q0 74 -43 108q-35 35 -98 35zM1360 645q164 0 250 -86q80 -77 80 -205q0 -71 -25 -142.5t-74 -123.5q-59 -63 -129 -84.5
t-153 -21.5q-162 0 -248 77q-92 79 -92 220q0 73 26.5 142t75.5 118q101 106 289 106zM582 1384q163 0 249 -86q80 -77 80 -204q0 -72 -24.5 -144t-73.5 -123q-59 -63 -129.5 -84.5t-153.5 -21.5q-160 0 -247 78q-93 79 -93 219q0 73 27 142t76 118q101 106 289 106z
M573 1219q-76 0 -129 -48q-59 -59 -59 -141q0 -58 35 -96q43 -47 110 -47q80 0 132 55q53 53 53 133q0 75 -43 109q-35 35 -99 35zM2200 645q163 0 249 -86q80 -77 80 -205q0 -72 -24.5 -143t-73.5 -123q-59 -63 -129.5 -84.5t-153.5 -21.5q-161 0 -247 77q-93 79 -93 220
q0 73 27 142t76 118q101 106 289 106zM2191 479q-77 0 -129 -47q-59 -59 -59 -141q0 -58 35 -96q44 -48 110 -48q78 0 131 56q54 54 54 133q0 74 -43 108q-35 35 -99 35z" />
    <glyph glyph-name="guilsinglleft" unicode="&#x2039;" horiz-adv-x="667" 
d="M657 760l-276 -328l201 -326l-181 -90l-262 443l359 428z" />
    <glyph glyph-name="guilsinglright" unicode="&#x203a;" horiz-adv-x="667" 
d="M401 479l-198 328l176 92l264 -440l-373 -443l-151 138z" />
    <glyph glyph-name="Euro" unicode="&#x20ac;" horiz-adv-x="1228" 
d="M1122 371l-39 -314q-140 -88 -356 -88q-114 0 -219.5 30.5t-181.5 90.5q-165 137 -176 346h-179l97 185h82q3 20 7 58t7 58h-156l96 185h105q53 171 184 288q211 187 531 187q193 0 356 -80l-143 -264q-107 67 -240 67q-134 0 -227 -55q-84 -51 -125 -143h540l-96 -185
h-497q-16 -65 -13 -116h457l-96 -185h-348q18 -93 98 -143q72 -47 198 -47q85 0 160 24.5t110.5 48.5t63.5 52z" />
    <glyph glyph-name="trademark" unicode="&#x2122;" horiz-adv-x="1568" 
d="M690 1198h-168l-76 -610h-192l76 610h-166l20 168h527zM840 588h-193l230 778h170l114 -428l234 428h168l24 -778h-192l-4 426l-232 -426h-82l-121 426z" />
    <glyph glyph-name="fi" unicode="&#xfb01;" horiz-adv-x="1173" 
d="M713 672h-197l-82 -672h-295l82 672h-106l30 241h107l18 144q15 112 42 193t89 147q119 119 340 119q107 0 201 -27.5t152 -79.5q96 -83 96 -235q0 -50 -8 -134h-295q4 15 4 58q0 79 -37 119q-42 45 -119 45q-73 0 -117 -48q-43 -49 -55 -163l-16 -138h196zM870 913h295
l-112 -913h-295z" />
    <glyph glyph-name="fl" unicode="&#xfb02;" horiz-adv-x="1175" 
d="M713 672h-197l-82 -672h-295l82 672h-106l30 241h107l18 144q15 112 42 193t89 147q112 119 340 119q48 0 98 -5t127 -31t128 -71q96 -83 96 -238q0 -25 -6 -77t-6 -78l-125 -1016h-295l127 1022q6 35 6 76q0 82 -37 119q-42 45 -119 45q-73 0 -117 -48q-43 -49 -55 -163
l-16 -138h196z" />
    <glyph glyph-name="CR" horiz-adv-x="477" 
 />
    <glyph glyph-name="nbspace" horiz-adv-x="477" 
 />
    <glyph glyph-name="hyphenminus" horiz-adv-x="729" 
d="M150 389l32 258h525l-33 -258h-524z" />
    <glyph glyph-name="dotlessi1" horiz-adv-x="565" 
d="M246 913h295l-113 -913h-295z" />
    </font>
</defs>
</svg>
