<?xml version="1.0" standalone="no"?>
<!DOCTYPE svg PUBLIC "-//W3C//DTD SVG 1.1//EN" "http://www.w3.org/Graphics/SVG/1.1/DTD/svg11.dtd" >
<svg xmlns="http://www.w3.org/2000/svg" xmlns:xlink="http://www.w3.org/1999/xlink" version="1.1">
<metadata>
Created by FontForge 20170731 at Sun Sep 19 04:00:46 2021
 By Aleksey,,,
Copyright (c) 1995 ParaGraph Intl., (c) 1998 ParaType Inc., ParaType Ltd. All rights reserved.
</metadata>
<defs>
<font id="SVN-FuturaItalic" horiz-adv-x="1024" >
  <font-face 
    font-family="SVN-Futura"
    font-weight="450"
    font-style="italic"
    font-stretch="normal"
    units-per-em="2048"
    panose-1="2 11 6 2 2 2 4 9 3 3"
    ascent="1638"
    descent="-410"
    x-height="862"
    cap-height="1366"
    bbox="-555 -512 2433 2206"
    underline-thickness="102"
    underline-position="-307"
    slope="-7"
    unicode-range="U+0020-FB02"
  />
<missing-glyph horiz-adv-x="477" 
 />
    <glyph glyph-name=".notdef" horiz-adv-x="477" 
 />
    <glyph glyph-name=".null" horiz-adv-x="0" 
 />
    <glyph glyph-name="nonmarkingreturn" horiz-adv-x="682" 
 />
    <glyph glyph-name="space" unicode=" " horiz-adv-x="477" 
 />
    <glyph glyph-name="exclam" unicode="!" horiz-adv-x="520" 
d="M403 338h-200l127 1028h200zM147 86q0 54 37 94q41 41 101 41q49 0 80 -31q32 -28 32 -81q0 -56 -41 -97q-37 -37 -94 -37q-53 0 -82 29q-33 29 -33 82z" />
    <glyph glyph-name="quotedbl" unicode="&#x22;" horiz-adv-x="749" 
d="M487 1366l-104 -549h-147l30 549h221zM819 1366l-104 -549h-148l31 549h221z" />
    <glyph glyph-name="numbersign" unicode="#" horiz-adv-x="1228" 
d="M834 0h-201l112 401h-233l-113 -401h-200l112 401h-221l51 181h221l66 229h-221l49 180h221l107 375h200l-106 -375h233l107 375h201l-107 -375h221l-49 -180h-221l-66 -229h222l-52 -181h-221zM797 582l65 229h-233l-66 -229h234z" />
    <glyph glyph-name="dollar" unicode="$" horiz-adv-x="1163" 
d="M1118 1161l-180 -98q-15 62 -61 96q-55 39 -138 39q-87 0 -153 -53q-58 -54 -58 -123q0 -60 50 -104q15 -14 33 -25t29.5 -16.5t35.5 -15.5t35 -15l110 -49q112 -50 172 -125q72 -89 72 -223q0 -207 -125 -338q-113 -118 -274 -131l-27 -205h-152l27 202q-120 13 -205 93
q-53 52 -88 132t-39 175l211 45q0 -125 47 -184q58 -72 158 -72q123 0 195 82q61 67 61 178q0 71 -53 127q-9 10 -21 19.5t-21 15.5t-25 15t-23 12.5t-25.5 12.5t-23.5 11l-105 47q-108 51 -162 109q-76 87 -76 200q0 147 109 265q100 108 258 126l21 181h151l-20 -183
q94 -13 168 -69q76 -54 112 -154z" />
    <glyph glyph-name="percent" unicode="%" horiz-adv-x="1658" 
d="M395 37l946 1352l91 -56l-947 -1356zM1319 629q139 0 229 -90q82 -82 82 -209q0 -150 -102 -252q-92 -92 -244 -92q-70 0 -126.5 18t-106.5 68q-86 86 -86 213q0 136 102 241q100 103 252 103zM1288 133q80 0 127 51q26 26 40.5 65t14.5 77q0 70 -49 116q-42 39 -108 39
q-81 0 -131 -53q-54 -54 -54 -137q0 -69 46 -115q43 -43 114 -43zM549 1378q139 0 229 -90q82 -85 82 -209q0 -154 -102 -250q-97 -94 -246 -94q-145 0 -231 86t-86 213q0 64 26.5 128t75.5 114q99 102 252 102zM518 883q80 0 127 51q26 26 40.5 64.5t14.5 76.5
q0 71 -49 117q-42 39 -108 39q-81 0 -131 -53q-54 -54 -54 -138q0 -69 45 -114q43 -43 115 -43z" />
    <glyph glyph-name="ampersand" unicode="&#x26;" horiz-adv-x="1323" 
d="M1178 641l116 -139l-184 -187l213 -315h-254l-115 168q-90 -86 -170 -131q-116 -64 -254 -64q-173 0 -276 103q-100 100 -100 258q0 167 120 293q23 23 53 46t46.5 33.5t54.5 33.5t43 26l43 27l-43 65q-61 96 -61 199q0 132 92 231q99 103 270 103q129 0 215 -82
q82 -75 82 -207q0 -100 -57 -172q-12 -16 -24.5 -29.5t-29 -27t-26 -20.5t-32 -22.5t-30.5 -21.5l-73 -49l204 -295zM848 315l-230 328q-109 -53 -174 -113q-86 -83 -86 -192q0 -74 52 -129q53 -59 137 -59q81 0 162 51q79 51 139 114zM692 905l74 47q51 30 82 74
q26 39 26 84q0 56 -38 82q-34 27 -82 27q-66 0 -109 -43q-37 -37 -37 -97q0 -54 33 -100z" />
    <glyph glyph-name="quotesingle" unicode="'" horiz-adv-x="417" 
d="M487 1366l-104 -549h-147l30 549h221z" />
    <glyph glyph-name="parenleft" unicode="(" horiz-adv-x="673" 
d="M510 -291l-195 -71q-102 313 -102 622q0 428 131 805q78 229 203 451l176 -72q-44 -85 -95.5 -208t-84.5 -218q-123 -362 -123 -715q0 -313 90 -594z" />
    <glyph glyph-name="parenright" unicode=")" horiz-adv-x="673" 
d="M299 1444l193 72q66 -183 86 -318t20 -276q0 -204 -26.5 -400.5t-108.5 -439.5q-86 -253 -203 -444l-174 71q102 181 182 420q123 390 123 786q0 132 -19 247.5t-73 281.5z" />
    <glyph glyph-name="asterisk" unicode="*" horiz-adv-x="1126" 
d="M442 1341l207 -92l19 244h159l-49 -242l234 90l30 -147l-241 -57l125 -185l-135 -96l-105 199l-158 -199l-110 96l178 181l-225 57z" />
    <glyph glyph-name="plus" unicode="+" 
d="M154 596v184h348v348h192v-348h348v-184h-348v-348h-192v348h-348z" />
    <glyph glyph-name="comma" unicode="," horiz-adv-x="655" 
d="M-12 -264l272 520l172 -70l-315 -505z" />
    <glyph glyph-name="hyphen" unicode="-" horiz-adv-x="696" 
d="M143 332l25 209h491l-24 -209h-492z" />
    <glyph glyph-name="period" unicode="." horiz-adv-x="516" 
d="M145 86q0 54 37 94q41 41 101 41q48 0 79 -31q33 -29 33 -81q0 -56 -41 -97q-37 -37 -94 -37q-53 0 -82 29q-33 29 -33 82z" />
    <glyph glyph-name="slash" unicode="/" horiz-adv-x="1406" 
d="M-37 -362l1301 1929l159 -74l-1300 -1929z" />
    <glyph glyph-name="zero" unicode="0" horiz-adv-x="1163" 
d="M588 -23q-97 0 -164 30t-123 97q-129 145 -129 420q0 88 11.5 178t38 189.5t78 194t122.5 165.5q138 138 330 138q150 0 254 -101q153 -142 153 -440q0 -487 -241 -731q-77 -77 -153 -108.5t-177 -31.5zM729 1204q-100 0 -168 -74q-83 -83 -132.5 -252t-49.5 -337
q0 -232 96 -328q49 -49 125 -49q96 0 168 72q92 92 138 262t46 323q0 249 -100 338q-53 45 -123 45z" />
    <glyph glyph-name="one" unicode="1" horiz-adv-x="1163" 
d="M512 0l143 1174h-237l139 192h332l-168 -1366h-209z" />
    <glyph glyph-name="two" unicode="2" horiz-adv-x="1163" 
d="M1012 193l-25 -193h-917l542 573q35 38 79.5 85t69 73.5t42.5 48.5q98 121 98 226q0 92 -65 147q-60 51 -158 51q-107 0 -168 -61q-32 -32 -55 -83.5t-29 -103.5h-201q12 86 47 165.5t84 133.5q121 134 334 134q188 0 303 -101q115 -100 115 -260q0 -154 -113 -305
q-40 -52 -123 -143.5t-127 -135.5l-243 -251h510z" />
    <glyph glyph-name="three" unicode="3" horiz-adv-x="1163" 
d="M465 1018h-201q27 153 119 252q114 119 313 119q180 0 285 -101q96 -96 96 -250q0 -122 -55 -204q-51 -82 -148 -121q74 -40 113 -101q43 -70 43 -168q0 -217 -129 -346q-74 -74 -157.5 -97.5t-182.5 -23.5q-97 0 -170 21.5t-135 87.5q-104 109 -113 285h201
q3 -93 64 -154q55 -55 159 -55q113 0 176 61q78 78 78 209q0 116 -80 170q-46 33 -145 33h-27l23 176h43q129 0 184 55q58 58 58 156q0 86 -62 141q-45 41 -135 41q-91 0 -145 -49q-57 -57 -70 -137z" />
    <glyph glyph-name="four" unicode="4" horiz-adv-x="1163" 
d="M1090 1466l-125 -1015h147l-22 -193h-148l-33 -258h-200l32 258h-678zM463 451h301l51 423z" />
    <glyph glyph-name="five" unicode="5" horiz-adv-x="1163" 
d="M1141 1366l-25 -192h-422l-96 -236q46 4 61 4q172 0 283 -111q117 -117 117 -313q0 -253 -148 -401q-42 -44 -92 -74t-102 -43.5t-94 -18t-91 -4.5q-171 0 -286 72q-91 58 -152 156l154 123q39 -73 112 -121q71 -45 175 -45q140 0 227 82q88 88 88 241q0 147 -86 220
q-64 61 -195 61q-137 0 -284 -90l290 690h566z" />
    <glyph glyph-name="six" unicode="6" horiz-adv-x="1163" 
d="M922 1413l151 -113l-389 -417q36 4 55 4q87 0 167.5 -33.5t135.5 -89.5q111 -111 111 -291q0 -214 -147 -358q-144 -138 -365 -138q-200 0 -324 119q-69 66 -102 150.5t-33 171.5q0 144 90 287q59 95 205 241zM694 719q-131 0 -217 -86q-84 -90 -84 -215q0 -106 72 -182
q70 -74 184 -74q119 0 207 84q92 92 92 227q0 118 -78 186q-67 60 -176 60z" />
    <glyph glyph-name="seven" unicode="7" horiz-adv-x="1163" 
d="M166 55l756 1119h-668l25 192h1015l-972 -1413z" />
    <glyph glyph-name="eight" unicode="8" horiz-adv-x="1163" 
d="M891 711q78 -38 123 -105q49 -69 49 -174q0 -104 -35 -193t-96 -147q-122 -115 -334 -115q-87 0 -157 22.5t-132 80.5q-114 109 -114 293q0 130 67 223q74 96 187 131q-61 43 -89 80q-53 71 -53 176q0 155 105 272q65 71 142.5 102.5t178.5 31.5q159 0 264 -99
q107 -101 107 -264q0 -115 -53 -195q-57 -84 -160 -120zM688 793q105 0 164 59q61 61 61 166q0 84 -57 137q-52 49 -135 49q-99 0 -164 -65q-61 -61 -61 -158q0 -80 53 -133q52 -55 139 -55zM608 162q113 0 178 67q68 68 68 187q0 90 -55 145q-57 60 -154 60
q-104 0 -174 -66q-70 -68 -70 -178q0 -90 54 -152q60 -63 153 -63z" />
    <glyph glyph-name="nine" unicode="9" horiz-adv-x="1163" 
d="M514 -47l-152 113l379 409q-30 -6 -63 -6q-159 0 -277 121q-120 120 -120 301q0 207 141 348q72 70 168.5 110t208.5 40q102 0 194.5 -33.5t151.5 -95.5q52 -52 80 -129.5t28 -159.5q0 -154 -90 -295q-61 -96 -202 -246zM745 647q125 0 207 76q92 78 92 221
q0 119 -75 191q-72 69 -187 69q-121 0 -200 -76q-93 -89 -93 -225q0 -116 74 -186q73 -70 182 -70z" />
    <glyph glyph-name="colon" unicode=":" horiz-adv-x="520" 
d="M147 84q0 54 37 94q41 41 101 41q49 0 80 -31q32 -28 32 -82q0 -55 -41 -96q-37 -37 -94 -37q-53 0 -82 29q-33 29 -33 82zM229 750q0 54 37 94q41 41 101 41q48 0 79 -31q33 -29 33 -82q0 -55 -41 -96q-37 -37 -94 -37q-53 0 -82 29q-33 29 -33 82z" />
    <glyph glyph-name="semicolon" unicode=";" horiz-adv-x="657" 
d="M-12 -264l272 520l172 -70l-315 -505zM276 750q0 54 37 94q41 41 101 41q49 0 80 -31q32 -28 32 -82q0 -55 -41 -96q-37 -37 -94 -37q-53 0 -82 29q-33 29 -33 82z" />
    <glyph glyph-name="less" unicode="&#x3c;" 
d="M391 680l676 -320v-196l-889 432v168l889 432v-197z" />
    <glyph glyph-name="equal" unicode="=" 
d="M154 778v172h888v-172h-888zM154 446v172h888v-172h-888z" />
    <glyph glyph-name="greater" unicode="&#x3e;" 
d="M801 680l-676 319v197l889 -432v-168l-889 -432v196z" />
    <glyph glyph-name="question" unicode="?" horiz-adv-x="892" 
d="M449 993h-209v19q0 83 28 159.5t78 126.5q93 93 260 93q148 0 232 -82q77 -77 77 -201q0 -115 -53 -195q-30 -43 -82.5 -80t-103.5 -59l-43 -18q-7 -3 -28 -11.5t-34 -11.5q-49 -17 -65 -24q-90 -40 -90 -117q0 -40 22 -62q23 -26 74 -26q49 0 80 31q16 17 25.5 48.5
t11.5 59.5h200q-2 -63 -26 -127.5t-66 -107.5q-87 -89 -237 -89q-134 0 -211 72q-78 74 -78 193q0 115 80 202q11 11 24 22t23.5 19t28 17.5t25.5 14t28.5 13t24.5 10.5t27 10l22 9q8 3 35.5 12.5t36.5 13t29.5 12t30.5 14t23.5 14.5t22.5 18q39 42 39 107q0 49 -29 82
q-26 32 -88 32q-72 0 -109 -49q-36 -48 -36 -147v-17zM336 84q0 54 37 94q41 41 100 41q49 0 80 -31q33 -29 33 -82q0 -55 -41 -96q-37 -37 -94 -37q-53 0 -82 29q-33 29 -33 82z" />
    <glyph glyph-name="at" unicode="@" horiz-adv-x="1499" 
d="M1081 899l33 107h139l-137 -437q-18 -50 -18 -80q0 -27 16 -49q17 -20 49 -20q58 0 109 45q61 53 93 152t32 194q0 199 -125 324q-132 129 -350 129q-135 0 -254.5 -51t-206.5 -144q-84 -87 -133 -214.5t-49 -258.5q0 -105 35.5 -197.5t99.5 -156.5q136 -144 385 -144
q217 0 426 84l18 -127q-201 -80 -446 -80q-302 0 -475 166q-94 89 -134.5 194t-40.5 238q0 186 63 336.5t169 257.5q219 219 547 219q287 0 446 -159q158 -158 158 -404q0 -62 -9.5 -125t-45 -147.5t-95.5 -144.5q-108 -103 -231 -103q-71 0 -115 41q-33 33 -41 86
q-31 -55 -92 -94q-68 -45 -162 -45q-117 0 -188 71q-82 82 -82 224q0 91 34.5 181t100.5 155q108 108 264 108q86 0 144 -43q45 -32 69 -88zM776 434q86 0 144 55q45 42 71.5 110t26.5 128q0 75 -43 121q-31 39 -103 39q-90 0 -159 -72q-38 -43 -61 -101.5t-23 -119.5
q0 -82 47 -125q35 -35 100 -35z" />
    <glyph glyph-name="A" unicode="A" horiz-adv-x="1343" 
d="M1114 0l-102 330h-584l-190 -330h-230l858 1446l469 -1446h-221zM539 526h413l-147 463z" />
    <glyph glyph-name="B" unicode="B" horiz-adv-x="1077" 
d="M332 1366h207q125 0 210.5 -23t145.5 -83q86 -89 86 -232q0 -104 -39 -178q-39 -75 -121 -119q93 -33 150 -106q59 -79 59 -189q0 -187 -108 -299q-44 -46 -99.5 -75.5t-119.5 -42t-111 -16t-109 -3.5h-116h-203zM516 1169l-47 -391h63q121 0 185 56q67 60 67 165
q0 74 -45 119q-51 51 -166 51h-57zM446 606l-49 -409h127q77 0 136.5 13.5t103.5 55.5q63 57 63 158q0 84 -61 133q-63 49 -188 49h-132z" />
    <glyph glyph-name="C" unicode="C" horiz-adv-x="1273" 
d="M1337 1292l-28 -245q-151 151 -375 151q-226 0 -371 -139q-78 -75 -125 -191.5t-47 -251.5q0 -191 119 -321q123 -129 321 -129q201 0 388 158l-29 -248q-113 -61 -201.5 -82t-175.5 -21q-136 0 -244 37t-204 133q-183 183 -183 473q0 340 226 566q213 209 540 209
q187 0 389 -99z" />
    <glyph glyph-name="D" unicode="D" horiz-adv-x="1323" 
d="M332 1366h286q69 0 126.5 -5.5t131 -21.5t142.5 -52t125 -91q99 -93 132.5 -203.5t33.5 -242.5q0 -340 -193 -533q-57 -57 -128 -98t-137.5 -63.5t-148 -35.5t-144 -16.5t-140.5 -3.5h-45h-209zM516 1169l-119 -972h90q53 0 92.5 2t100.5 11.5t109 27t101.5 51.5t94.5 82
q115 134 115 350q0 212 -113 328q-41 41 -92 67t-107.5 36.5t-94.5 13.5t-87 3h-90z" />
    <glyph glyph-name="E" unicode="E" 
d="M1085 1366l-24 -197h-545l-41 -346h529l-25 -196h-528l-54 -430h545l-24 -197h-754l168 1366h753z" />
    <glyph glyph-name="F" unicode="F" horiz-adv-x="921" 
d="M1016 1366l-25 -197h-475l-41 -346h459l-25 -196h-458l-78 -627h-209l168 1366h684z" />
    <glyph glyph-name="G" unicode="G" horiz-adv-x="1538" 
d="M940 518l25 193h563q-4 -60 -16.5 -124.5t-36.5 -144t-68.5 -156.5t-103.5 -134q-179 -179 -488 -179q-135 0 -247 40.5t-208 142.5q-74 74 -126 188t-52 266q0 163 61 311t171 255q218 215 559 215q191 0 332 -84q127 -77 215 -199l-168 -125q-64 90 -150 145
q-114 70 -250 70q-237 0 -391 -154q-84 -83 -126 -191t-42 -222q0 -100 35 -190t94 -152q123 -123 318 -123q184 0 303 108q105 92 137 244h-340z" />
    <glyph glyph-name="H" unicode="H" horiz-adv-x="1331" 
d="M541 1366l-66 -541h586l65 541h209l-168 -1366h-209l78 629h-585l-78 -629h-209l168 1366h209z" />
    <glyph glyph-name="I" unicode="I" horiz-adv-x="536" 
d="M332 1366h209l-168 -1366h-209z" />
    <glyph glyph-name="J" unicode="J" horiz-adv-x="735" 
d="M530 1366h209l-108 -885q-15 -145 -44.5 -245t-99.5 -170q-41 -41 -94.5 -63t-90 -26t-85.5 -4q-149 0 -248 74l117 172q49 -49 131 -49q69 0 121 45q34 33 52.5 96t31.5 170z" />
    <glyph glyph-name="K" unicode="K" horiz-adv-x="1200" 
d="M541 1366l-68 -528l590 528h280l-696 -618l529 -748h-275l-414 606l-45 -41l-69 -565h-209l168 1366h209z" />
    <glyph glyph-name="L" unicode="L" horiz-adv-x="806" 
d="M332 1366h209l-144 -1169h402l-25 -197h-403h-207z" />
    <glyph glyph-name="M" unicode="M" horiz-adv-x="1744" 
d="M340 0h-217l467 1468l344 -1060l610 1060l78 -1468h-209l-39 823l-506 -886l-284 888z" />
    <glyph glyph-name="N" unicode="N" horiz-adv-x="1527" 
d="M373 0h-209l178 1458l864 -1038l117 946h209l-178 -1450l-865 1038z" />
    <glyph glyph-name="O" unicode="O" horiz-adv-x="1630" 
d="M979 1391q282 0 461 -179q176 -176 176 -462q0 -191 -62 -333t-153 -233q-65 -65 -138 -109t-148 -65t-139 -29t-138 -8q-151 0 -265.5 39.5t-207.5 137.5q-85 88 -134 207t-49 257q0 163 59.5 310.5t164.5 251.5q104 104 250.5 159.5t322.5 55.5zM840 166q254 0 401 147
q78 78 122 190.5t44 233.5q0 195 -123 322q-132 139 -346 139q-228 0 -379 -151q-170 -163 -170 -418q0 -205 127 -332q121 -131 324 -131z" />
    <glyph glyph-name="P" unicode="P" horiz-adv-x="985" 
d="M332 1366h293q218 0 329 -106q101 -97 101 -267q0 -190 -117 -307q-74 -74 -177.5 -102.5t-250.5 -28.5h-70l-67 -555h-209zM516 1174l-51 -426h78q170 0 241 63q70 60 70 170q0 89 -63 145q-61 48 -187 48h-88z" />
    <glyph glyph-name="Q" unicode="Q" horiz-adv-x="1630" 
d="M1296 -27l-84 99q-152 -99 -395 -99q-283 0 -450 164q-32 30 -61.5 69.5t-59 97.5t-47 138t-17.5 170q0 173 56 314.5t151 240.5q213 224 547 224q310 0 496 -177q184 -181 184 -458q0 -181 -74 -338q-68 -140 -180 -232l186 -213h-252zM1047 541l188 -209q77 66 119 151
q53 109 53 240q0 115 -38.5 205t-100.5 149q-128 121 -330 121q-233 0 -389 -160q-77 -84 -117.5 -194.5t-40.5 -229.5q0 -194 123 -321q124 -127 317 -127q133 0 248 51l-286 324h254z" />
    <glyph glyph-name="R" unicode="R" horiz-adv-x="1093" 
d="M332 1366h243q239 0 345 -84q56 -42 93.5 -115t37.5 -174q0 -187 -119 -295q-95 -89 -234 -114l355 -584h-252l-322 559h-37l-69 -559h-209zM516 1174l-53 -435h65q156 0 238 66q84 70 84 176q0 99 -76 154q-61 39 -186 39h-72z" />
    <glyph glyph-name="S" unicode="S" horiz-adv-x="1056" 
d="M1065 1161l-180 -98q-15 61 -62 96q-49 39 -135 39q-99 0 -156 -53q-57 -54 -57 -123q0 -61 49 -104q15 -14 33 -25t29.5 -16.5t35.5 -15.5t35 -15l111 -49q112 -50 172 -125q72 -89 72 -223q0 -210 -125 -338q-131 -138 -357 -138q-174 0 -274 97q-53 52 -88 132
t-39 175l211 45q-4 -119 47 -184q55 -72 174 -72q95 0 162 57q39 33 58.5 88t19.5 113q0 73 -53 129q-9 10 -21 19.5t-21.5 16t-25 14.5t-23.5 12t-25.5 12.5t-23.5 11.5l-104 47q-108 51 -162 109q-76 87 -76 200q0 15 2 34t11 60t33.5 86.5t62.5 84.5q121 131 325 131
q143 0 236 -64q95 -63 129 -166z" />
    <glyph glyph-name="T" unicode="T" horiz-adv-x="876" 
d="M999 1169h-313l-143 -1169h-209l143 1169h-313l24 197h836z" />
    <glyph glyph-name="U" unicode="U" horiz-adv-x="1343" 
d="M336 1366h209l-94 -768q-15 -103 -15 -156q0 -130 72 -202q74 -74 192 -74q132 0 228 88q58 58 79.5 124.5t30.5 164.5l101 823h209l-109 -879q-35 -263 -192 -397q-143 -117 -363 -117q-245 0 -371 160q-90 115 -90 281q0 21 23 227z" />
    <glyph glyph-name="V" unicode="V" horiz-adv-x="1228" 
d="M176 1366h221l265 -952l497 952h230l-785 -1454z" />
    <glyph glyph-name="W" unicode="W" horiz-adv-x="1925" 
d="M176 1366h221l248 -913l490 979l235 -979l485 913h230l-789 -1454l-237 969l-479 -969z" />
    <glyph glyph-name="X" unicode="X" horiz-adv-x="1105" 
d="M20 0l519 713l-297 653h221l209 -463l329 463h234l-473 -653l323 -713h-221l-235 522l-375 -522h-234z" />
    <glyph glyph-name="Y" unicode="Y" horiz-adv-x="1105" 
d="M449 0l71 590l-352 776h233l248 -547l383 547h242l-545 -776l-72 -590h-208z" />
    <glyph glyph-name="Z" unicode="Z" horiz-adv-x="1134" 
d="M1241 1366l-815 -1169h655l-24 -197h-996l816 1169h-562l25 197h901z" />
    <glyph glyph-name="bracketleft" unicode="[" horiz-adv-x="647" 
d="M713 1309h-172l-183 -1487h172l-22 -184h-174h-199l230 1855h372z" />
    <glyph glyph-name="backslash" unicode="\" horiz-adv-x="1374" 
d="M1337 -362l-161 -74l-840 1929l160 74z" />
    <glyph glyph-name="bracketright" unicode="]" horiz-adv-x="647" 
d="M72 -178h172l182 1487h-172l25 184h372l-229 -1855h-209h-164z" />
    <glyph glyph-name="asciicircum" unicode="^" 
d="M600 1208l-266 -491h-213l350 649h258l350 -649h-213z" />
    <glyph glyph-name="underscore" unicode="_" horiz-adv-x="819" 
d="M0 -295v176h819v-176h-819z" />
    <glyph glyph-name="grave" unicode="`" 
d="M616 993l-284 295l196 94l207 -319z" />
    <glyph glyph-name="a" unicode="a" horiz-adv-x="1089" 
d="M856 762l12 100h201l-106 -862h-201l10 90q-65 -65 -115 -86q-74 -31 -157 -31q-146 0 -246 95q-53 52 -86 134t-33 177q0 104 38 207.5t112 177.5q121 121 315 121q91 0 158 -37q50 -26 98 -86zM610 705q-100 0 -172 -68q-43 -43 -69.5 -107.5t-26.5 -134.5
q0 -109 68 -180q58 -61 145 -61q113 0 188 75q42 43 65 107t23 129q0 115 -67 182q-58 58 -154 58z" />
    <glyph glyph-name="b" unicode="b" horiz-adv-x="1089" 
d="M512 1493l-90 -731q44 57 100 86q67 37 174 37q157 0 256 -99q109 -109 109 -294q0 -237 -141 -388q-123 -131 -324 -131q-99 0 -170 41q-46 23 -88 76l-10 -90h-201l184 1493h201zM643 705q-113 0 -188 -78q-41 -44 -64.5 -107t-23.5 -129q0 -111 69 -180
q57 -57 148 -57q108 0 182 77q42 43 66 105t24 127q0 116 -68 184q-58 58 -145 58z" />
    <glyph glyph-name="c" unicode="c" horiz-adv-x="864" 
d="M899 811l-27 -217q-51 51 -102 78q-62 33 -127 33q-136 0 -219 -87q-82 -85 -82 -212q0 -59 20.5 -108.5t53.5 -80.5q66 -63 178 -63q78 0 139 30l11 6q11 6 18.5 10.5t20 13t24.5 20t24 24.5l-26 -225q-94 -60 -256 -60q-182 0 -293 111q-50 47 -85.5 125t-35.5 188
q0 211 144 355q138 133 352 133q154 0 268 -74z" />
    <glyph glyph-name="d" unicode="d" horiz-adv-x="1089" 
d="M856 762l90 731h201l-184 -1493h-201l10 90q-55 -61 -110 -86q-61 -31 -148 -31q-157 0 -256 99q-58 58 -90.5 142t-32.5 181q0 106 42 210.5t116 172.5q116 107 295 107q97 0 166 -35q54 -25 102 -88zM606 705q-106 0 -174 -68q-92 -92 -92 -234q0 -117 66 -186
q58 -63 155 -63q111 0 180 69q41 41 64.5 106t23.5 132q0 109 -65 178q-66 66 -158 66z" />
    <glyph glyph-name="e" unicode="e" horiz-adv-x="1001" 
d="M772 291l158 -94q-60 -101 -160 -162q-98 -62 -242 -62q-167 0 -276 109q-117 117 -117 307q0 225 150 369q130 127 315 127q164 0 260 -101q50 -52 78.5 -130.5t28.5 -170.5q0 -46 -11 -100h-616q0 -108 63 -174q48 -55 142 -55q78 0 137 39q53 35 90 98zM371 547h401
q-11 75 -51 119q-47 47 -125 47q-82 0 -145 -51q-54 -48 -80 -115z" />
    <glyph glyph-name="f" unicode="f" horiz-adv-x="538" 
d="M635 678h-217l-84 -678h-201l84 678h-86l23 184h86l41 330q5 46 11.5 78.5t28.5 81t56 82.5q82 82 219 82q68 0 137 -29l-24 -197q-42 33 -101 33q-111 0 -131 -162l-37 -299h217z" />
    <glyph glyph-name="g" unicode="g" horiz-adv-x="1083" 
d="M850 768l12 94h201l-105 -839q-25 -255 -127 -369q-117 -125 -331 -125q-155 0 -254 82q-119 104 -131 293h194q4 -88 56 -146q49 -49 145 -49q102 0 162 60q63 63 82 217l14 110q-86 -123 -250 -123q-161 0 -272 111q-119 119 -119 307q0 105 40 203.5t114 171.5
q65 65 139 92t176 27q160 0 254 -117zM608 705q-120 0 -190 -76q-40 -40 -61 -102.5t-21 -125.5q0 -111 63 -178q69 -69 158 -69q101 0 174 73q92 92 92 240q0 111 -65 176q-62 62 -150 62z" />
    <glyph glyph-name="h" unicode="h" horiz-adv-x="995" 
d="M127 0l184 1493h201l-88 -705q28 31 86 64q65 33 147 33q131 0 205 -74q78 -78 78 -209q0 -38 -18 -178l-54 -424h-200l55 444q10 76 10 115q0 74 -39 111q-38 35 -102 35q-81 0 -129 -48q-37 -35 -54 -91t-30 -150l-51 -416h-201z" />
    <glyph glyph-name="i" unicode="i" horiz-adv-x="456" 
d="M233 862h201l-106 -862h-201zM252 1128q0 58 41 99q38 41 96 41q45 0 78 -29q31 -31 31 -74q0 -54 -39 -96q-37 -43 -101 -43q-46 0 -75 29q-31 31 -31 73z" />
    <glyph glyph-name="j" unicode="j" horiz-adv-x="456" 
d="M233 862h201l-164 -1331h-200zM246 1128q0 58 41 99q38 41 96 41q45 0 78 -29q31 -31 31 -74q0 -54 -39 -96q-37 -43 -101 -43q-47 0 -76 29q-30 30 -30 73z" />
    <glyph glyph-name="k" unicode="k" horiz-adv-x="905" 
d="M311 1493h201l-115 -920l318 289h266l-420 -360l336 -502h-250l-237 369l-41 -37l-41 -332h-201z" />
    <glyph glyph-name="l" unicode="l" horiz-adv-x="454" 
d="M311 1493h201l-184 -1493h-201z" />
    <glyph glyph-name="m" unicode="m" horiz-adv-x="1437" 
d="M127 0l106 862h201l-10 -80q45 49 84 70q62 33 141 33q73 0 123 -33q55 -35 84 -94q37 50 98 90q64 37 146 37q126 0 203 -70q77 -71 77 -207q0 -52 -16 -174l-53 -434h-201l53 434q13 84 13 121q0 80 -35 115q-27 35 -88 35q-53 0 -95 -37q-38 -33 -55 -85t-29 -139
l-55 -444h-201l56 453q10 79 10 108q0 76 -35 111q-33 33 -86 33q-63 0 -106 -43q-56 -56 -74 -218l-55 -444h-201z" />
    <glyph glyph-name="n" unicode="n" horiz-adv-x="993" 
d="M125 0l106 862h201l-10 -78q36 44 86 68q67 33 147 33q131 0 205 -74q78 -78 78 -205q0 -37 -18 -182l-54 -424h-200l55 444q10 76 10 115q0 74 -39 111q-38 35 -102 35q-81 0 -129 -48q-37 -35 -54 -91t-30 -150l-51 -416h-201z" />
    <glyph glyph-name="o" unicode="o" horiz-adv-x="1093" 
d="M641 885q192 0 307 -115q117 -121 117 -299q0 -222 -150 -365q-75 -72 -160 -102.5t-194 -30.5q-94 0 -167 25t-140 92q-119 125 -119 301q0 214 150 361q139 133 356 133zM588 154q114 0 190 82q82 92 82 223q0 111 -67 180q-66 66 -164 66q-123 0 -195 -72
q-94 -88 -94 -225q0 -107 63 -179q75 -75 185 -75z" />
    <glyph glyph-name="p" unicode="p" horiz-adv-x="1089" 
d="M340 100l-70 -569h-200l163 1331h201l-12 -94q45 57 102 82q72 35 154 35q80 0 153 -30t121 -81q109 -114 109 -293q0 -109 -40.5 -212t-105.5 -173q-116 -125 -286 -125q-117 0 -195 47q-53 31 -94 82zM631 705q-103 0 -172 -64q-44 -42 -69 -109.5t-25 -140.5
q0 -111 57 -170q67 -67 164 -67q101 0 170 69q43 43 70.5 108t27.5 134q0 110 -61 174q-60 66 -162 66z" />
    <glyph glyph-name="q" unicode="q" horiz-adv-x="1089" 
d="M856 768l12 94h201l-164 -1331h-200l69 565q-43 -58 -100 -88q-68 -35 -150 -35q-86 0 -149.5 23.5t-118.5 73.5q-121 115 -121 299q0 109 40.5 216.5t111.5 178.5q121 121 315 121q77 0 150 -33q37 -18 59.5 -35.5t44.5 -48.5zM608 705q-104 0 -172 -68
q-46 -48 -70 -115.5t-24 -138.5q0 -109 66 -172q57 -57 151 -57q109 0 176 67q42 41 69 110.5t27 133.5q0 49 -17 98t-48 80q-62 62 -158 62z" />
    <glyph glyph-name="r" unicode="r" horiz-adv-x="679" 
d="M127 0l106 862h201l-10 -78q10 15 35 36t57 38q55 27 131 27q81 0 148 -41l-99 -182q-46 30 -106 30q-82 0 -133 -51q-55 -62 -74 -195l-55 -446h-201z" />
    <glyph glyph-name="s" unicode="s" horiz-adv-x="745" 
d="M725 733l-156 -98q-14 32 -41 53q-30 21 -61 21q-45 0 -70 -25q-18 -18 -18 -45q0 -31 24 -49q5 -5 12 -9.5t13.5 -7.5t25 -11.5t33.5 -16.5l58 -29q66 -32 108 -74q66 -76 66 -178q0 -127 -86 -209q-88 -82 -242 -82q-117 0 -192 56q-9 5 -25 21t-41.5 54t-40.5 82
l174 78q16 -57 47 -84q35 -30 84 -30q51 0 80 26q33 26 33 76q0 43 -29 72q-22 22 -82 49l-55 28q-66 34 -98 66q-60 57 -60 149q0 113 78 191t213 78q88 0 150 -41q57 -37 98 -111z" />
    <glyph glyph-name="t" unicode="t" horiz-adv-x="495" 
d="M571 678h-153l-84 -678h-201l84 678h-84l23 184h84l39 316h200l-39 -316h154z" />
    <glyph glyph-name="u" unicode="u" horiz-adv-x="993" 
d="M236 862h200l-55 -448q-10 -78 -10 -101q0 -77 41 -118t112 -41q73 0 125 45q22 20 35.5 53.5t17 52.5t9.5 64l61 493h201l-62 -500q-8 -63 -15.5 -100.5t-33.5 -96t-67 -99.5q-93 -93 -273 -93q-179 0 -274 95q-80 83 -80 208q0 25 10 117z" />
    <glyph glyph-name="v" unicode="v" horiz-adv-x="917" 
d="M119 862h221l160 -491l282 491h230l-561 -923z" />
    <glyph glyph-name="w" unicode="w" horiz-adv-x="1404" 
d="M119 862h221l162 -493l311 567l172 -567l285 493h229l-563 -923l-174 550l-309 -550z" />
    <glyph glyph-name="x" unicode="x" horiz-adv-x="1015" 
d="M12 0l439 467l-258 395h233l160 -252l223 252h250l-367 -395l312 -467h-238l-209 322l-295 -322h-250z" />
    <glyph glyph-name="y" unicode="y" horiz-adv-x="987" 
d="M6 -469l410 629l-297 702h237l195 -485l301 485h229l-850 -1331h-225z" />
    <glyph glyph-name="z" unicode="z" horiz-adv-x="983" 
d="M1073 862l-639 -678h512l-22 -184h-908l643 678h-440l23 184h831z" />
    <glyph glyph-name="braceleft" unicode="{" horiz-adv-x="1028" 
d="M723 1157l-41 -344q-15 -119 -49 -166q-35 -54 -109 -82q40 -14 66 -49q46 -62 31 -199l-41 -344q-4 -34 -5 -52.5t7 -47t30 -43.5q6 -5 13.5 -8.5t17.5 -5.5t16.5 -3.5t20.5 -2t18 -0.5h21h20h17l-21 -172h-96q-134 0 -195 43q-52 36 -67 95t-4 146l47 391q7 28 1.5 74
t-26.5 68q-25 28 -69 28l20 164q61 8 94 45q10 11 17 23t11 27t6 23.5t4 27.5t3 24l47 391q16 148 88 215q35 32 83.5 48.5t81 19t83.5 2.5h97l-21 -172h-29h-18h-21.5t-19 -1t-22.5 -3t-18.5 -5t-20.5 -8t-17 -12q-18 -15 -29.5 -40.5t-14.5 -43t-7 -51.5z" />
    <glyph glyph-name="bar" unicode="|" horiz-adv-x="772" 
d="M350 -512v2048h197v-2048h-197z" />
    <glyph glyph-name="braceright" unicode="}" horiz-adv-x="1028" 
d="M465 -27l43 344q14 113 51 166q44 59 107 82q-49 22 -74 64q-26 37 -29 85t6 99l41 344q8 39 3.5 80.5t-33.5 62.5q-35 21 -129 21h-17l21 172h96q138 0 197 -39q53 -35 65.5 -96.5t3.5 -149.5l-47 -391q-8 -32 -3.5 -71.5t30.5 -65.5q27 -27 67 -33l-20 -164
q-57 -6 -88 -41q-15 -16 -26 -44t-13.5 -41t-7.5 -44l-50 -391q-7 -69 -23.5 -119.5t-55.5 -89.5q-30 -33 -77 -51t-79.5 -21t-77.5 -3h-119l21 172h28q102 0 142 34q11 10 19 21.5t13 29l7 24.5t5 30t3 24z" />
    <glyph glyph-name="asciitilde" unicode="~" 
d="M977 739l108 -67q-21 -44 -52.5 -84t-46 -54t-44.5 -40q-84 -70 -184 -70q-82 0 -207 55q-4 2 -34 16t-50.5 22.5t-52 17t-56.5 8.5q-61 0 -110 -45q-45 -39 -72 -92l-104 73q57 106 123 170q86 86 202 86q91 0 203 -59q74 -34 116 -48t81 -14q58 0 104 37q43 32 76 88z
" />
    <glyph glyph-name="uni00A0" unicode="&#xa0;" horiz-adv-x="477" 
 />
    <glyph glyph-name="exclamdown" unicode="&#xa1;" horiz-adv-x="520" 
d="M246 557h200l-127 -1028h-200zM252 784q0 55 37 95q41 41 100 41q49 0 80 -31q33 -29 33 -82q0 -55 -41 -96q-37 -37 -94 -37q-54 0 -82 28q-33 29 -33 82z" />
    <glyph glyph-name="cent" unicode="&#xa2;" horiz-adv-x="1163" 
d="M1030 1073l-26 -219q-99 107 -240 107q-129 0 -201 -72q-43 -42 -66.5 -103t-23.5 -124q0 -121 74 -191q64 -61 170 -61q141 0 244 100l-27 -217q-94 -57 -201 -60l-24 -206h-152l25 209q-120 21 -205 108q-111 114 -111 297q0 112 39.5 207t104.5 160q111 111 280 129
l27 204h151l-26 -206q98 -6 188 -62z" />
    <glyph glyph-name="sterling" unicode="&#xa3;" horiz-adv-x="1163" 
d="M1167 909h-198q4 28 4 66q0 95 -58 153q-68 68 -174 68q-108 0 -176 -68q-71 -71 -71 -184q0 -94 69 -268h266l-18 -148h-207q10 -44 10 -84q0 -58 -15.5 -107t-31.5 -75l80 -31q5 -2 28 -11t31 -12t27.5 -9.5t31.5 -9t28.5 -5t31.5 -2.5q54 0 93 39q48 61 61 90l156 -98
q-53 -101 -138 -168q-79 -63 -194 -63q-90 0 -195 41l-80 30q-7 2 -33.5 12.5t-36 13.5t-28 7t-33.5 4q-65 0 -110 -45q-30 -30 -54 -76l-165 90q48 90 114 150q67 58 176 74q50 87 50 161q0 39 -19 84h-233l18 148h160q-51 132 -51 256q0 204 133 334q71 69 151.5 96
t186.5 27q202 0 309 -105q111 -111 111 -291q0 -3 -7 -84z" />
    <glyph glyph-name="currency" unicode="&#xa4;" horiz-adv-x="1366" 
d="M281 1352l202 -203q125 98 293 98t293 -98l203 203l110 -111l-202 -203q92 -124 92 -286q0 -163 -92 -287l202 -203l-110 -110l-203 202q-125 -98 -293 -98t-293 98l-202 -202l-111 110l203 203q-92 124 -92 287q0 162 92 286l-203 203zM776 432q134 0 223 92
q88 91 88 228q0 134 -90 229q-90 90 -221 90t-221 -90t-90 -229q0 -137 88 -228q92 -92 223 -92z" />
    <glyph glyph-name="yen" unicode="&#xa5;" horiz-adv-x="1163" 
d="M1165 772h-293l-102 -151h377l-17 -144h-393l-59 -477h-193l60 477h-393l16 144h377l-66 151h-293l19 143h213l-193 451h221l232 -547l366 547h230l-303 -451h213z" />
    <glyph glyph-name="brokenbar" unicode="&#xa6;" horiz-adv-x="772" 
d="M350 799v737h197v-737h-197zM350 -512v737h197v-737h-197z" />
    <glyph glyph-name="section" unicode="&#xa7;" horiz-adv-x="1161" 
d="M1122 1075h-192q4 15 4 55q0 91 -49 140q-49 47 -135 47q-93 0 -144 -51t-51 -125q0 -84 61 -133q9 -7 19 -13t26.5 -13.5t28.5 -12.5t42 -17l50 -20q70 -29 115 -54.5t84 -68.5q80 -91 80 -223q0 -119 -72 -213q-63 -80 -149 -111q110 -92 110 -246q0 -160 -106 -266
q-112 -112 -297 -112q-170 0 -262 92q-53 53 -82 132t-29 167v8h193v-10q0 -111 53 -164q49 -49 139 -49q74 0 129 43q57 54 57 137q0 64 -51 115q-15 15 -35.5 28.5t-35 20.5t-41.5 18.5t-37 16.5l-37 16q-5 2 -31.5 13.5t-39 18t-35 18.5t-40.5 27t-34 33q-82 86 -82 213
q0 126 63 218q63 87 170 129q-121 92 -121 237q0 161 105 266q111 111 289 111q186 0 286 -100q88 -88 88 -244q0 -56 -4 -74zM664 772q-89 0 -150 -61q-59 -63 -59 -160q0 -84 49 -131q49 -49 131 -49q99 0 158 59t59 164q0 83 -55 133q-52 45 -133 45z" />
    <glyph glyph-name="dieresis" unicode="&#xa8;" 
d="M338 1165q6 54 46.5 90.5t94.5 36.5t86.5 -36.5t26.5 -90.5q-8 -54 -48.5 -90.5t-94.5 -36.5t-86 36.5t-25 90.5zM707 1165q6 54 46.5 90.5t94.5 36.5t86.5 -36.5t26.5 -90.5q-8 -54 -49 -90.5t-95 -36.5t-85.5 36.5t-24.5 90.5z" />
    <glyph glyph-name="copyright" unicode="&#xa9;" horiz-adv-x="1538" 
d="M1122 1044v-178q-106 103 -239 103q-125 0 -207 -82q-80 -80 -80 -209q0 -121 76 -197q84 -84 217 -84q132 0 233 105v-180q-114 -64 -248 -64q-190 0 -317 127q-117 121 -117 297q0 171 115 295q123 131 330 131q136 0 237 -64zM850 1290q-250 0 -422 -172t-172 -436
t172 -436t422 -172t422 172t172 436t-172 436t-422 172zM1559 682q0 -155 -53.5 -285.5t-147.5 -224.5q-92 -92 -221 -146.5t-287 -54.5t-287 54.5t-221 146.5q-94 94 -147.5 224.5t-53.5 285.5t53.5 285.5t147.5 224.5q92 92 221 146.5t287 54.5t287 -54.5t221 -146.5
q94 -94 147.5 -224.5t53.5 -285.5z" />
    <glyph glyph-name="ordfeminine" unicode="&#xaa;" horiz-adv-x="753" 
d="M670 1294l6 60h133l-66 -547h-135l6 51q-65 -65 -161 -65q-113 0 -181 73q-67 70 -67 178q0 142 92 234q88 88 211 88q106 0 162 -72zM510 1249q-64 0 -111 -47q-57 -57 -57 -149q0 -68 41 -109q37 -37 98 -37q68 0 113 45q57 57 57 150q0 69 -37 106q-38 41 -104 41z
M184 702h547l-12 -106h-547z" />
    <glyph glyph-name="guillemotleft" unicode="&#xab;" horiz-adv-x="1048" 
d="M342 440l217 -338l-145 -88l-277 435l395 442l121 -105zM723 440l217 -338l-145 -88l-277 435l395 442l121 -105z" />
    <glyph glyph-name="logicalnot" unicode="&#xac;" 
d="M979 0h-201v367h-688v180h889v-547z" />
    <glyph glyph-name="uni00AD" unicode="&#xad;" horiz-adv-x="696" 
d="M143 332l25 209h491l-24 -209h-492z" />
    <glyph glyph-name="registered" unicode="&#xae;" horiz-adv-x="1552" 
d="M1206 313h-178l-237 303v-303h-146v766h225q132 0 195 -63q57 -57 57 -158q0 -95 -55 -158q-43 -45 -115 -67zM791 950v-213h28q85 0 123 31q37 32 37 84q0 58 -39 80q-23 18 -100 18h-49zM860 1290q-250 0 -422 -172t-172 -436t172 -436t422 -172t422 172t172 436
t-172 436t-422 172zM1569 682q0 -155 -53.5 -285.5t-147.5 -224.5q-92 -92 -221 -146.5t-287 -54.5t-287 54.5t-221 146.5q-94 94 -147 224.5t-53 285.5t53 285.5t147 224.5q92 92 221 146.5t287 54.5t287 -54.5t221 -146.5q94 -94 147.5 -224.5t53.5 -285.5z" />
    <glyph glyph-name="macron" unicode="&#xaf;" 
d="M301 1040l21 160h675l-20 -160h-676z" />
    <glyph glyph-name="degree" unicode="&#xb0;" horiz-adv-x="1028" 
d="M344 1044q0 133 84 224q87 98 236 98q119 0 200 -72q82 -74 82 -200q0 -148 -88 -236q-86 -86 -229 -86q-131 0 -213 82q-72 72 -72 190zM471 1055q0 -74 47 -121q43 -43 115 -43q82 0 131 49q55 52 55 143q0 76 -45 121q-43 43 -117 43q-82 0 -133 -51q-53 -53 -53 -141
z" />
    <glyph glyph-name="plusminus" unicode="&#xb1;" 
d="M131 717v184h348v334h193v-334h348v-184h-348v-334h-193v334h-348zM131 123v184h889v-184h-889z" />
    <glyph glyph-name="twosuperior" unicode="&#xb2;" horiz-adv-x="759" 
d="M727 682l-16 -135h-594l340 332q68 65 118 125q58 72 58 129q0 51 -35 81q-36 31 -92 31q-68 0 -107 -39q-38 -38 -49 -110h-143q18 116 92 196q80 88 217 88q136 0 205 -73q61 -61 61 -160q0 -94 -65 -180q-49 -61 -142 -152l-137 -133h289z" />
    <glyph glyph-name="threesuperior" unicode="&#xb3;" horiz-adv-x="761" 
d="M162 791h143q4 -58 37 -91q32 -32 102 -32q71 0 105 34q41 41 41 105q0 58 -43 86q-26 20 -105 20h-28l16 136h49q77 0 109 26q35 31 35 76t-31 70q-28 24 -84 24q-61 0 -94 -33q-29 -29 -39 -79h-144q15 109 88 176q77 71 197 71q130 0 197 -67q57 -57 57 -150
q0 -79 -41 -127q-34 -42 -90 -57q41 -11 72 -49q34 -43 34 -113q0 -120 -73 -196q-82 -89 -232 -89q-135 0 -207 72q-71 71 -71 187z" />
    <glyph glyph-name="acute" unicode="&#xb4;" 
d="M836 1382l172 -94l-355 -295l-102 70z" />
    <glyph glyph-name="mu" unicode="&#xb5;" horiz-adv-x="1073" 
d="M270 -471h-200l163 1333h201l-45 -370q-12 -114 -12 -138q0 -91 53 -149q49 -49 133 -49q97 0 154 57q29 27 47.5 73.5t24 78t12.5 90.5l51 407h201l-107 -862h-201l17 129q-8 -21 -31.5 -56.5t-56.5 -60.5q-51 -37 -129 -37q-86 0 -135 52q-44 44 -64 123z" />
    <glyph glyph-name="paragraph" unicode="&#xb6;" horiz-adv-x="1265" 
d="M596 -197h-170l104 846h-14q-176 0 -262 92q-82 86 -82 226q0 171 100 278q69 74 167 97.5t241 23.5h608l-18 -156h-135l-174 -1407h-168l174 1407h-197z" />
    <glyph glyph-name="periodcentered" unicode="&#xb7;" horiz-adv-x="409" 
d="M129 674q0 77 59 133q52 49 121 49q64 0 105 -41q39 -42 39 -96q0 -74 -54 -131q-46 -51 -123 -51q-68 0 -106 38q-41 38 -41 99z" />
    <glyph glyph-name="cedilla" unicode="&#xb8;" 
d="M514 -109l162 -65l-244 -275l-123 66z" />
    <glyph glyph-name="onesuperior" unicode="&#xb9;" horiz-adv-x="757" 
d="M399 547l84 684h-159l102 135h225l-100 -819h-152z" />
    <glyph glyph-name="ordmasculine" unicode="&#xba;" horiz-adv-x="755" 
d="M475 791q-132 0 -205 75q-69 69 -69 187q0 133 90 223t239 90q122 0 199 -72q76 -73 76 -192q0 -135 -86 -221q-90 -90 -244 -90zM520 1249q-80 0 -129 -49q-51 -54 -51 -139q0 -72 43 -115q41 -41 109 -41q75 0 124 49q52 52 52 144q0 69 -41 110t-107 41zM184 702h549
l-12 -106h-549z" />
    <glyph glyph-name="guillemotright" unicode="&#xbb;" horiz-adv-x="1048" 
d="M424 455l-223 338l145 90l285 -434l-379 -435l-121 103zM807 455l-223 338l145 90l285 -434l-379 -435l-121 103z" />
    <glyph glyph-name="onequarter" unicode="&#xbc;" horiz-adv-x="1642" 
d="M399 547l84 684h-159l102 135h221l-100 -819h-148zM465 35l948 1354l92 -58l-948 -1354zM1212 283h160l27 211zM1593 881l-73 -590h88l-17 -135h-88l-18 -156h-148l19 156h-428z" />
    <glyph glyph-name="onehalf" unicode="&#xbd;" horiz-adv-x="1638" 
d="M399 547l84 684h-159l102 135h221l-100 -819h-148zM342 35l948 1354l92 -58l-948 -1354zM1540 135l-16 -135h-594l340 332q73 70 119 125q57 71 57 129q0 52 -35 82t-92 30q-68 0 -107 -39q-38 -38 -49 -110h-143q18 116 92 196q81 89 217 89q135 0 205 -74
q61 -61 61 -160q0 -94 -65 -180q-52 -65 -141 -152l-138 -133h289z" />
    <glyph glyph-name="threequarters" unicode="&#xbe;" horiz-adv-x="1642" 
d="M162 791h143q4 -58 37 -91q32 -32 102 -32q71 0 105 34q41 41 41 105q0 58 -43 86q-26 20 -105 20h-28l16 136h49q77 0 109 26q35 31 35 78q0 43 -31 68q-28 24 -84 24q-61 0 -94 -33q-29 -29 -39 -79h-144q15 109 88 176q77 71 197 71q130 0 197 -67q57 -57 57 -150
q0 -79 -41 -127q-34 -42 -90 -57q41 -11 72 -49q34 -43 34 -113q0 -120 -73 -196q-82 -89 -232 -89q-135 0 -207 72q-71 71 -71 187zM465 35l948 1354l92 -58l-948 -1354zM1212 283h160l27 211zM1593 881l-73 -590h88l-17 -135h-88l-18 -156h-148l19 156h-428z" />
    <glyph glyph-name="questiondown" unicode="&#xbf;" horiz-adv-x="888" 
d="M573 -98h209v-11q0 -198 -100 -294q-96 -93 -266 -93q-144 0 -230 86q-80 80 -80 203q0 63 23.5 124t67.5 108q66 70 217 125q132 46 155 69q37 30 37 80q0 42 -26 68q-26 24 -72 24q-62 0 -88 -43q-23 -38 -27 -96h-200q6 69 33 134.5t67 105.5q83 83 229 83
q138 0 209 -71q78 -71 78 -199q0 -118 -76 -194q-66 -66 -168 -103q-100 -35 -140 -52.5t-67 -41.5q-47 -47 -47 -109q0 -51 33 -84q32 -32 92 -32q72 0 109 47q12 15 18 38.5t7.5 38t2 49t0.5 40.5zM432 784q0 55 37 95q41 41 100 41q49 0 80 -31q33 -29 33 -82
q0 -55 -41 -96q-37 -37 -94 -37q-54 0 -82 28q-33 29 -33 82z" />
    <glyph glyph-name="Agrave" unicode="&#xc0;" horiz-adv-x="1343" 
d="M1114 0l-102 330h-584l-190 -330h-230l858 1446l469 -1446h-221zM539 526h413l-147 463zM938 1495l-262 229l143 121l221 -272z" />
    <glyph glyph-name="Aacute" unicode="&#xc1;" horiz-adv-x="1343" 
d="M1114 0l-102 330h-584l-190 -330h-230l858 1446l469 -1446h-221zM539 526h413l-147 463zM1149 1716l-334 -221l-84 80l297 270z" />
    <glyph glyph-name="Acircumflex" unicode="&#xc2;" horiz-adv-x="1343" 
d="M1114 0l-102 330h-584l-190 -330h-230l858 1446l469 -1446h-221zM539 526h413l-147 463zM887 1655l-203 -160l-100 88l321 256l264 -256l-120 -88z" />
    <glyph glyph-name="Atilde" unicode="&#xc3;" horiz-adv-x="1343" 
d="M1114 0l-102 330h-584l-190 -330h-230l858 1446l469 -1446h-221zM539 526h413l-147 463zM1098 1757l94 -90q-82 -141 -219 -141q-39 0 -88 22q-24 12 -39.5 22t-26.5 15q-32 12 -59 12q-19 0 -44.5 -18.5t-47.5 -52.5l-90 86q14 21 81 84q54 47 123 47q27 0 80 -17
q2 -1 24.5 -11.5t45.5 -24.5q48 -21 65 -21q69 0 101 88z" />
    <glyph glyph-name="Adieresis" unicode="&#xc4;" horiz-adv-x="1343" 
d="M1114 0l-102 330h-584l-190 -330h-230l858 1446l469 -1446h-221zM539 526h413l-147 463zM948 1614q0 57 43 100q41 41 103 41q48 0 77 -31q33 -33 33 -84q0 -60 -43 -100q-42 -39 -100 -39q-49 0 -80 31q-33 29 -33 82zM549 1614q0 57 43 100q41 41 102 41q49 0 78 -31
q33 -33 33 -84q0 -60 -43 -100q-42 -39 -100 -39q-49 0 -80 31q-33 29 -33 82z" />
    <glyph glyph-name="Aring" unicode="&#xc5;" horiz-adv-x="1343" 
d="M1114 0l-102 330h-584l-190 -330h-230l858 1446l469 -1446h-221zM539 526h413l-147 463zM682 1669q0 83 55 146q63 69 164 69q82 0 131 -49q51 -49 51 -131q0 -97 -59 -156q-61 -61 -160 -61q-80 0 -129 49q-53 53 -53 133zM795 1677q0 -37 22 -59q21 -21 55 -21
q43 0 72 29q27 27 27 70q0 32 -23 55t-55 23q-39 0 -70 -27q-28 -28 -28 -70z" />
    <glyph glyph-name="AE" unicode="&#xc6;" horiz-adv-x="1896" 
d="M1118 0l-102 326h-580l-190 -326h-226l824 1366h604l61 -197h-542l104 -325h528l62 -197h-528l139 -450h543l61 -197h-758zM551 522h405l-139 445z" />
    <glyph glyph-name="Ccedilla" unicode="&#xc7;" horiz-adv-x="1273" 
d="M1337 1292l-28 -245q-151 151 -375 151q-226 0 -371 -139q-78 -75 -125 -191.5t-47 -251.5q0 -191 119 -321q123 -129 321 -129q201 0 388 158l-29 -248q-113 -61 -201.5 -82t-175.5 -21q-136 0 -244 37t-204 133q-183 183 -183 473q0 340 226 566q213 209 540 209
q187 0 389 -99zM764 -109l168 -77l-264 -273l-123 66z" />
    <glyph glyph-name="Egrave" unicode="&#xc8;" 
d="M1085 1366l-24 -197h-545l-41 -346h529l-25 -196h-528l-54 -430h545l-24 -197h-754l168 1366h753zM766 1495l-262 229l143 121l221 -272z" />
    <glyph glyph-name="Eacute" unicode="&#xc9;" 
d="M1085 1366l-24 -197h-545l-41 -346h529l-25 -196h-528l-54 -430h545l-24 -197h-754l168 1366h753zM1030 1716l-334 -221l-84 80l297 270z" />
    <glyph glyph-name="Ecircumflex" unicode="&#xca;" 
d="M1085 1366l-24 -197h-545l-41 -346h529l-25 -196h-528l-54 -430h545l-24 -197h-754l168 1366h753zM737 1655l-202 -160l-101 88l322 256l264 -256l-121 -88z" />
    <glyph glyph-name="Edieresis" unicode="&#xcb;" 
d="M1085 1366l-24 -197h-545l-41 -346h529l-25 -196h-528l-54 -430h545l-24 -197h-754l168 1366h753zM825 1614q0 57 43 100q41 41 103 41q49 0 78 -31q32 -32 32 -84q0 -60 -43 -100q-42 -39 -100 -39q-49 0 -80 31q-33 29 -33 82zM426 1614q0 57 43 100q41 41 102 41
q49 0 78 -31q33 -33 33 -84q0 -60 -43 -100q-42 -39 -100 -39q-49 0 -80 31q-33 29 -33 82z" />
    <glyph glyph-name="Igrave" unicode="&#xcc;" horiz-adv-x="536" 
d="M332 1366h209l-168 -1366h-209zM510 1495l-262 229l143 121l221 -272z" />
    <glyph glyph-name="Iacute" unicode="&#xcd;" horiz-adv-x="536" 
d="M332 1366h209l-168 -1366h-209zM721 1716l-334 -221l-84 80l297 270z" />
    <glyph glyph-name="Icircumflex" unicode="&#xce;" horiz-adv-x="536" 
d="M332 1366h209l-168 -1366h-209zM473 1663l-182 -158l-109 101l316 268l250 -268l-134 -101z" />
    <glyph glyph-name="Idieresis" unicode="&#xcf;" horiz-adv-x="536" 
d="M332 1366h209l-168 -1366h-209zM502 1616q0 55 39 94q36 33 77 33q42 0 66 -31q25 -27 25 -67q0 -55 -37 -95q-32 -37 -78 -37q-35 0 -64 29q-28 32 -28 74zM229 1614q0 55 39 94q30 35 78 35q38 0 66 -31q24 -26 24 -67q0 -55 -37 -95q-32 -37 -77 -37q-35 0 -64 29
q-29 33 -29 72z" />
    <glyph glyph-name="Eth" unicode="&#xd0;" horiz-adv-x="1323" 
d="M266 840l66 526h286q69 0 126.5 -5.5t131 -21.5t142.5 -52t125 -91q99 -93 132.5 -203.5t33.5 -242.5q0 -340 -193 -533q-57 -57 -128 -98t-137.5 -63.5t-148 -35.5t-144 -16.5t-140.5 -3.5h-51h-203l82 664h-164l20 176h164zM516 1169l-41 -329h287l-21 -176h-286
l-58 -467h90q53 0 92.5 2t100.5 11.5t109 27t101.5 51.5t94.5 82q115 134 115 350q0 212 -113 328q-41 41 -92 67t-107.5 36.5t-94.5 13.5t-87 3h-90z" />
    <glyph glyph-name="Ntilde" unicode="&#xd1;" horiz-adv-x="1527" 
d="M373 0h-209l178 1458l864 -1038l117 946h209l-178 -1450l-865 1038zM1225 1767l106 -94q-43 -70 -98 -119q-63 -53 -156 -53q-9 0 -17 0.5t-16.5 2t-14 2t-14 3.5t-12 4t-13.5 5t-12 4.5t-13 5.5t-13 6l-43 20q-72 33 -100 33q-38 0 -70 -28q-26 -21 -45 -58l-110 84
q55 74 100 111q67 55 152 55q69 0 122 -31l39 -20q73 -39 103 -39q43 0 78 39q27 33 47 67z" />
    <glyph glyph-name="Ograve" unicode="&#xd2;" horiz-adv-x="1630" 
d="M979 1391q282 0 461 -179q176 -176 176 -462q0 -191 -62 -333t-153 -233q-65 -65 -138 -109t-148 -65t-139 -29t-138 -8q-151 0 -265.5 39.5t-207.5 137.5q-85 88 -134 207t-49 257q0 163 59.5 310.5t164.5 251.5q104 104 250.5 159.5t322.5 55.5zM840 166q254 0 401 147
q78 78 122 190.5t44 233.5q0 195 -123 322q-132 139 -346 139q-228 0 -379 -151q-170 -163 -170 -418q0 -205 127 -332q121 -131 324 -131zM1065 1495l-262 229l143 121l221 -272z" />
    <glyph glyph-name="Oacute" unicode="&#xd3;" horiz-adv-x="1630" 
d="M979 1391q282 0 461 -179q176 -176 176 -462q0 -191 -62 -333t-153 -233q-65 -65 -138 -109t-148 -65t-139 -29t-138 -8q-151 0 -265.5 39.5t-207.5 137.5q-85 88 -134 207t-49 257q0 163 59.5 310.5t164.5 251.5q104 104 250.5 159.5t322.5 55.5zM840 166q254 0 401 147
q78 78 122 190.5t44 233.5q0 195 -123 322q-132 139 -346 139q-228 0 -379 -151q-170 -163 -170 -418q0 -205 127 -332q121 -131 324 -131zM1296 1716l-333 -221l-84 80l297 270z" />
    <glyph glyph-name="Ocircumflex" unicode="&#xd4;" horiz-adv-x="1630" 
d="M979 1391q282 0 461 -179q176 -176 176 -462q0 -191 -62 -333t-153 -233q-65 -65 -138 -109t-148 -65t-139 -29t-138 -8q-151 0 -265.5 39.5t-207.5 137.5q-85 88 -134 207t-49 257q0 163 59.5 310.5t164.5 251.5q104 104 250.5 159.5t322.5 55.5zM840 166q254 0 401 147
q78 78 122 190.5t44 233.5q0 195 -123 322q-132 139 -346 139q-228 0 -379 -151q-170 -163 -170 -418q0 -205 127 -332q121 -131 324 -131zM1022 1655l-203 -160l-100 88l321 256l265 -256l-121 -88z" />
    <glyph glyph-name="Otilde" unicode="&#xd5;" horiz-adv-x="1630" 
d="M979 1391q282 0 461 -179q176 -176 176 -462q0 -191 -62 -333t-153 -233q-65 -65 -138 -109t-148 -65t-139 -29t-138 -8q-151 0 -265.5 39.5t-207.5 137.5q-85 88 -134 207t-49 257q0 163 59.5 310.5t164.5 251.5q104 104 250.5 159.5t322.5 55.5zM840 166q254 0 401 147
q78 78 122 190.5t44 233.5q0 195 -123 322q-132 139 -346 139q-228 0 -379 -151q-170 -163 -170 -418q0 -205 127 -332q121 -131 324 -131zM1247 1757l94 -90q-82 -141 -219 -141q-39 0 -88 22q-24 12 -39 22t-26 15q-32 12 -60 12q-19 0 -44.5 -18.5t-47.5 -52.5l-90 86
q12 19 82 84q54 47 123 47q27 0 80 -17q2 -1 24 -11.5t45 -24.5q48 -21 66 -21q68 0 100 88z" />
    <glyph glyph-name="Odieresis" unicode="&#xd6;" horiz-adv-x="1630" 
d="M979 1391q282 0 461 -179q176 -176 176 -462q0 -191 -62 -333t-153 -233q-65 -65 -138 -109t-148 -65t-139 -29t-138 -8q-151 0 -265.5 39.5t-207.5 137.5q-85 88 -134 207t-49 257q0 163 59.5 310.5t164.5 251.5q104 104 250.5 159.5t322.5 55.5zM840 166q254 0 401 147
q78 78 122 190.5t44 233.5q0 195 -123 322q-132 139 -346 139q-228 0 -379 -151q-170 -163 -170 -418q0 -205 127 -332q121 -131 324 -131zM1071 1614q0 57 43 100q41 41 103 41q48 0 77 -31q33 -33 33 -84q0 -60 -43 -100q-42 -39 -100 -39q-49 0 -80 31q-33 29 -33 82z
M672 1614q0 57 43 100q41 41 102 41q49 0 78 -31q33 -33 33 -84q0 -60 -43 -100q-42 -39 -101 -39q-48 0 -79 31q-33 29 -33 82z" />
    <glyph glyph-name="multiply" unicode="&#xd7;" 
d="M176 395l291 293l-291 293l129 129l293 -291l293 291l129 -129l-291 -293l291 -293l-129 -129l-293 291l-293 -291z" />
    <glyph glyph-name="Oslash" unicode="&#xd8;" horiz-adv-x="1630" 
d="M53 55l219 195q-104 172 -104 364q0 163 59 311t164 251q99 94 240.5 154.5t322.5 60.5q142 0 245 -38.5t192 -109.5l223 199l102 -117l-221 -197q58 -90 82.5 -178.5t24.5 -197.5q0 -192 -62.5 -334.5t-153.5 -233.5q-65 -65 -138 -109t-148 -65t-139 -29t-138 -8
q-148 0 -252.5 35.5t-199.5 122.5l-215 -192zM1329 981l-801 -711q131 -104 306 -104q246 0 393 147q79 79 122.5 191.5t43.5 240.5q0 127 -64 236zM434 393l793 705q-131 100 -303 100q-228 0 -379 -151q-170 -170 -170 -412q0 -131 59 -242z" />
    <glyph glyph-name="Ugrave" unicode="&#xd9;" horiz-adv-x="1343" 
d="M336 1366h209l-94 -768q-15 -103 -15 -156q0 -130 72 -202q74 -74 192 -74q132 0 228 88q58 58 79.5 124.5t30.5 164.5l101 823h209l-109 -879q-35 -263 -192 -397q-143 -117 -363 -117q-245 0 -371 160q-90 115 -90 281q0 21 23 227zM868 1495l-262 229l144 121
l221 -272z" />
    <glyph glyph-name="Uacute" unicode="&#xda;" horiz-adv-x="1343" 
d="M336 1366h209l-94 -768q-15 -103 -15 -156q0 -130 72 -202q74 -74 192 -74q132 0 228 88q58 58 79.5 124.5t30.5 164.5l101 823h209l-109 -879q-35 -263 -192 -397q-143 -117 -363 -117q-245 0 -371 160q-90 115 -90 281q0 21 23 227zM1165 1716l-334 -221l-83 80
l296 270z" />
    <glyph glyph-name="Ucircumflex" unicode="&#xdb;" horiz-adv-x="1343" 
d="M336 1366h209l-94 -768q-15 -103 -15 -156q0 -130 72 -202q74 -74 192 -74q132 0 228 88q58 58 79.5 124.5t30.5 164.5l101 823h209l-109 -879q-35 -263 -192 -397q-143 -117 -363 -117q-245 0 -371 160q-90 115 -90 281q0 21 23 227zM881 1663l-224 -168l-127 115
l371 274l305 -274l-143 -115z" />
    <glyph glyph-name="Udieresis" unicode="&#xdc;" horiz-adv-x="1343" 
d="M336 1366h209l-94 -768q-15 -103 -15 -156q0 -130 72 -202q74 -74 192 -74q132 0 228 88q58 58 79.5 124.5t30.5 164.5l101 823h209l-109 -879q-35 -263 -192 -397q-143 -117 -363 -117q-245 0 -371 160q-90 115 -90 281q0 21 23 227zM942 1614q0 57 43 100q41 41 102 41
q49 0 78 -31q33 -33 33 -84q0 -60 -43 -100q-42 -39 -100 -39q-49 0 -80 31q-33 29 -33 82zM543 1614q0 57 43 100q41 41 102 41q49 0 78 -31q33 -33 33 -84q0 -60 -43 -100q-42 -39 -101 -39q-49 0 -80 31q-32 28 -32 82z" />
    <glyph glyph-name="Yacute" unicode="&#xdd;" horiz-adv-x="1105" 
d="M449 0l71 590l-352 776h233l248 -547l383 547h242l-545 -776l-72 -590h-208zM1026 1716l-334 -221l-84 80l297 270z" />
    <glyph glyph-name="Thorn" unicode="&#xde;" horiz-adv-x="987" 
d="M332 1366h209l-25 -205h84q219 0 330 -106q100 -96 100 -267q0 -190 -117 -307q-74 -74 -177.5 -102.5t-250.5 -28.5h-69l-43 -350h-209zM492 969l-52 -426h78q171 0 242 63q69 59 69 170q0 90 -63 146q-60 47 -186 47h-88z" />
    <glyph glyph-name="germandbls" unicode="&#xdf;" horiz-adv-x="1144" 
d="M342 0h-201l84 684h-143l22 178h144l26 217q21 202 132 318q119 121 315 121q173 0 274 -99q99 -92 99 -250q0 -102 -52 -190q-50 -75 -129 -117q84 -45 131 -100q76 -87 76 -236q0 -225 -145 -376q-172 -179 -463 -179l25 193q78 0 152.5 27.5t125.5 74.5
q49 45 74.5 108t25.5 126q0 110 -69 176q-80 74 -238 74l23 182h26q123 0 185 69q26 29 40.5 71.5t14.5 84.5q0 80 -53 133q-49 47 -135 47q-95 0 -152 -57q-68 -66 -82 -190z" />
    <glyph glyph-name="agrave" unicode="&#xe0;" horiz-adv-x="1089" 
d="M856 762l12 100h201l-106 -862h-201l10 90q-65 -65 -115 -86q-74 -31 -157 -31q-146 0 -246 95q-53 52 -86 134t-33 177q0 104 38 207.5t112 177.5q121 121 315 121q91 0 158 -37q50 -26 98 -86zM610 705q-100 0 -172 -68q-43 -43 -69.5 -107.5t-26.5 -134.5
q0 -109 68 -180q58 -61 145 -61q113 0 188 75q42 43 65 107t23 129q0 115 -67 182q-58 58 -154 58zM778 983l-262 229l143 121l222 -272z" />
    <glyph glyph-name="aacute" unicode="&#xe1;" horiz-adv-x="1089" 
d="M856 762l12 100h201l-106 -862h-201l10 90q-65 -65 -115 -86q-74 -31 -157 -31q-146 0 -246 95q-53 52 -86 134t-33 177q0 104 38 207.5t112 177.5q121 121 315 121q91 0 158 -37q50 -26 98 -86zM610 705q-100 0 -172 -68q-43 -43 -69.5 -107.5t-26.5 -134.5
q0 -109 68 -180q58 -61 145 -61q113 0 188 75q42 43 65 107t23 129q0 115 -67 182q-58 58 -154 58zM1018 1204l-334 -221l-84 80l297 270z" />
    <glyph glyph-name="acircumflex" unicode="&#xe2;" horiz-adv-x="1089" 
d="M856 762l12 100h201l-106 -862h-201l10 90q-65 -65 -115 -86q-74 -31 -157 -31q-146 0 -246 95q-53 52 -86 134t-33 177q0 104 38 207.5t112 177.5q121 121 315 121q91 0 158 -37q50 -26 98 -86zM610 705q-100 0 -172 -68q-43 -43 -69.5 -107.5t-26.5 -134.5
q0 -109 68 -180q58 -61 145 -61q113 0 188 75q42 43 65 107t23 129q0 115 -67 182q-58 58 -154 58zM735 1143l-203 -160l-100 88l322 256l264 -256l-121 -88z" />
    <glyph glyph-name="atilde" unicode="&#xe3;" horiz-adv-x="1089" 
d="M856 762l12 100h201l-106 -862h-201l10 90q-65 -65 -115 -86q-74 -31 -157 -31q-146 0 -246 95q-53 52 -86 134t-33 177q0 104 38 207.5t112 177.5q121 121 315 121q91 0 158 -37q50 -26 98 -86zM610 705q-100 0 -172 -68q-43 -43 -69.5 -107.5t-26.5 -134.5
q0 -109 68 -180q58 -61 145 -61q113 0 188 75q42 43 65 107t23 129q0 115 -67 182q-58 58 -154 58zM958 1235l95 -90q-82 -141 -219 -141q-40 0 -89 22q-24 12 -39 22t-26 15q-32 12 -59 12q-19 0 -45 -18.5t-48 -52.5l-90 86q12 19 82 84q54 47 123 47q27 0 80 -17
q2 -1 24.5 -12t45.5 -25q46 -20 65 -20q68 0 100 88z" />
    <glyph glyph-name="adieresis" unicode="&#xe4;" horiz-adv-x="1089" 
d="M856 762l12 100h201l-106 -862h-201l10 90q-65 -65 -115 -86q-74 -31 -157 -31q-146 0 -246 95q-53 52 -86 134t-33 177q0 104 38 207.5t112 177.5q121 121 315 121q91 0 158 -37q50 -26 98 -86zM610 705q-100 0 -172 -68q-43 -43 -69.5 -107.5t-26.5 -134.5
q0 -109 68 -180q58 -61 145 -61q113 0 188 75q42 43 65 107t23 129q0 115 -67 182q-58 58 -154 58zM338 1165q6 54 46.5 90.5t94.5 36.5t86.5 -36.5t26.5 -90.5q-8 -54 -48.5 -90.5t-94.5 -36.5t-86 36.5t-25 90.5zM707 1165q6 54 46.5 90.5t94.5 36.5t86.5 -36.5
t26.5 -90.5q-8 -54 -49 -90.5t-95 -36.5t-85.5 36.5t-24.5 90.5z" />
    <glyph glyph-name="aring" unicode="&#xe5;" horiz-adv-x="1089" 
d="M856 762l12 100h201l-106 -862h-201l10 90q-65 -65 -115 -86q-74 -31 -157 -31q-146 0 -246 95q-53 52 -86 134t-33 177q0 104 38 207.5t112 177.5q121 121 315 121q91 0 158 -37q50 -26 98 -86zM610 705q-100 0 -172 -68q-43 -43 -69.5 -107.5t-26.5 -134.5
q0 -109 68 -180q58 -61 145 -61q113 0 188 75q42 43 65 107t23 129q0 115 -67 182q-58 58 -154 58zM463 1174q0 86 53 143q55 61 154 61q80 0 131 -47t51 -127q0 -94 -59 -153q-58 -58 -144 -58q-83 0 -137 54q-49 56 -49 127zM567 1178q0 -35 23 -58q22 -22 59 -22
q44 0 68 24q28 25 28 74q0 40 -26 59q-22 19 -57 19q-41 0 -70 -29q-25 -28 -25 -67z" />
    <glyph glyph-name="ae" unicode="&#xe6;" horiz-adv-x="1560" 
d="M287 672l22 186q135 27 244 27q112 0 186 -31q68 -31 109 -88q46 43 117 78q95 41 194 41q161 0 260 -101q107 -117 107 -301q0 -51 -10 -100h-617q0 -48 17 -95t47 -79q48 -55 141 -55q78 0 137 39q53 35 90 98l158 -94q-60 -101 -160 -162q-100 -62 -242 -62
q-111 0 -190 39q-69 34 -121 101q-51 -64 -135 -105q-77 -35 -199 -35q-142 0 -225 66q-45 32 -73.5 87t-28.5 128q0 122 88 207q94 94 276 94q143 0 232 -57q4 12 4 49q0 75 -56 123q-44 35 -143 35q-110 0 -229 -33zM500 383q-99 0 -154 -47q-37 -32 -37 -80q0 -46 49 -80
q40 -31 117 -31q86 0 137 33q58 38 58 96q0 48 -45 78q-45 31 -125 31zM930 547h401q-11 75 -51 119q-47 47 -125 47q-82 0 -145 -51q-54 -48 -80 -115z" />
    <glyph glyph-name="ccedilla" unicode="&#xe7;" horiz-adv-x="864" 
d="M899 811l-27 -217q-51 51 -102 78q-62 33 -127 33q-136 0 -219 -87q-82 -85 -82 -212q0 -59 20.5 -108.5t53.5 -80.5q66 -63 178 -63q78 0 139 30l11 6q11 6 18.5 10.5t20 13t24.5 20t24 24.5l-26 -225q-94 -60 -256 -60q-182 0 -293 111q-50 47 -85.5 125t-35.5 188
q0 211 144 355q138 133 352 133q154 0 268 -74zM494 -109l161 -65l-243 -275l-123 66z" />
    <glyph glyph-name="egrave" unicode="&#xe8;" horiz-adv-x="1001" 
d="M772 291l158 -94q-60 -101 -160 -162q-98 -62 -242 -62q-167 0 -276 109q-117 117 -117 307q0 225 150 369q130 127 315 127q164 0 260 -101q50 -52 78.5 -130.5t28.5 -170.5q0 -46 -11 -100h-616q0 -108 63 -174q48 -55 142 -55q78 0 137 39q53 35 90 98zM371 547h401
q-11 75 -51 119q-47 47 -125 47q-82 0 -145 -51q-54 -48 -80 -115zM692 983l-262 229l143 121l222 -272z" />
    <glyph glyph-name="eacute" unicode="&#xe9;" horiz-adv-x="1001" 
d="M772 291l158 -94q-60 -101 -160 -162q-98 -62 -242 -62q-167 0 -276 109q-117 117 -117 307q0 225 150 369q130 127 315 127q164 0 260 -101q50 -52 78.5 -130.5t28.5 -170.5q0 -46 -11 -100h-616q0 -108 63 -174q48 -55 142 -55q78 0 137 39q53 35 90 98zM371 547h401
q-11 75 -51 119q-47 47 -125 47q-82 0 -145 -51q-54 -48 -80 -115zM926 1204l-334 -221l-84 80l297 270z" />
    <glyph glyph-name="ecircumflex" unicode="&#xea;" horiz-adv-x="1001" 
d="M772 291l158 -94q-60 -101 -160 -162q-98 -62 -242 -62q-167 0 -276 109q-117 117 -117 307q0 225 150 369q130 127 315 127q164 0 260 -101q50 -52 78.5 -130.5t28.5 -170.5q0 -46 -11 -100h-616q0 -108 63 -174q48 -55 142 -55q78 0 137 39q53 35 90 98zM371 547h401
q-11 75 -51 119q-47 47 -125 47q-82 0 -145 -51q-54 -48 -80 -115zM653 1143l-202 -160l-101 88l322 256l264 -256l-121 -88z" />
    <glyph glyph-name="edieresis" unicode="&#xeb;" horiz-adv-x="1001" 
d="M772 291l158 -94q-60 -101 -160 -162q-98 -62 -242 -62q-167 0 -276 109q-117 117 -117 307q0 225 150 369q130 127 315 127q164 0 260 -101q50 -52 78.5 -130.5t28.5 -170.5q0 -46 -11 -100h-616q0 -108 63 -174q48 -55 142 -55q78 0 137 39q53 35 90 98zM371 547h401
q-11 75 -51 119q-47 47 -125 47q-82 0 -145 -51q-54 -48 -80 -115zM309 1165q6 54 47 90.5t95 36.5t86 -36.5t26 -90.5q-8 -54 -48.5 -90.5t-94.5 -36.5t-86 36.5t-25 90.5zM678 1165q6 54 46.5 90.5t94.5 36.5t86.5 -36.5t26.5 -90.5q-8 -54 -49 -90.5t-95 -36.5
t-85.5 36.5t-24.5 90.5z" />
    <glyph glyph-name="igrave" unicode="&#xec;" horiz-adv-x="456" 
d="M236 862h200l-106 -862h-201zM410 983l-263 229l144 121l221 -272z" />
    <glyph glyph-name="iacute" unicode="&#xed;" horiz-adv-x="456" 
d="M236 862h200l-106 -862h-201zM614 1204l-333 -221l-84 80l297 270z" />
    <glyph glyph-name="icircumflex" unicode="&#xee;" horiz-adv-x="456" 
d="M236 862h200l-106 -862h-201zM373 1163l-162 -149l-100 94l286 256l221 -256l-120 -94z" />
    <glyph glyph-name="idieresis" unicode="&#xef;" horiz-adv-x="456" 
d="M236 862h200l-106 -862h-201zM61 1165q6 54 47 90.5t95 36.5t86 -36.5t26 -90.5q-8 -54 -48.5 -90.5t-94.5 -36.5t-86 36.5t-25 90.5zM430 1165q6 54 46.5 90.5t94.5 36.5t86.5 -36.5t26.5 -90.5q-8 -54 -48.5 -90.5t-94.5 -36.5t-86 36.5t-25 90.5z" />
    <glyph glyph-name="eth" unicode="&#xf0;" horiz-adv-x="1079" 
d="M319 1214l82 158q230 -11 400 -135l272 86l35 -119l-211 -65q85 -78 131 -193q47 -119 47 -297q0 -114 -11.5 -202.5t-52.5 -186t-112 -164.5q-73 -70 -152 -96.5t-180 -26.5q-105 0 -181 24t-140 91q-113 116 -113 297q0 111 37 203.5t98 156.5q140 140 340 140
q163 0 260 -97q-29 190 -172 285l-379 -121l-34 121l288 92q-119 52 -252 49zM559 154q130 0 209 86q82 92 82 223q0 121 -78 190q-64 52 -158 52q-120 0 -194 -80q-40 -41 -61 -103.5t-21 -128.5q0 -124 65 -182q57 -57 156 -57z" />
    <glyph glyph-name="ntilde" unicode="&#xf1;" horiz-adv-x="993" 
d="M125 0l106 862h201l-10 -78q36 44 86 68q67 33 147 33q131 0 205 -74q78 -78 78 -205q0 -37 -18 -182l-54 -424h-200l55 444q10 76 10 115q0 74 -39 111q-38 35 -102 35q-81 0 -129 -48q-37 -35 -54 -91t-30 -150l-51 -416h-201zM903 1274l109 -94q-41 -70 -92 -113
q-74 -63 -164 -63q-61 0 -123 36l-41 25q-4 2 -15.5 8t-17 9t-16 7.5t-18 6.5t-17.5 4t-19 2q-46 0 -73 -35q-18 -18 -43 -59l-111 84q47 68 100 110q74 55 154 55q70 0 137 -40l31 -21q56 -37 96 -37q27 0 43 10t37 33q31 40 43 72z" />
    <glyph glyph-name="ograve" unicode="&#xf2;" horiz-adv-x="1093" 
d="M641 885q192 0 307 -115q117 -121 117 -299q0 -222 -150 -365q-75 -72 -160 -102.5t-194 -30.5q-94 0 -167 25t-140 92q-119 125 -119 301q0 214 150 361q139 133 356 133zM588 154q114 0 190 82q82 92 82 223q0 111 -67 180q-66 66 -164 66q-123 0 -195 -72
q-94 -88 -94 -225q0 -107 63 -179q75 -75 185 -75zM725 983l-262 229l143 121l221 -272z" />
    <glyph glyph-name="oacute" unicode="&#xf3;" horiz-adv-x="1093" 
d="M641 885q192 0 307 -115q117 -121 117 -299q0 -222 -150 -365q-75 -72 -160 -102.5t-194 -30.5q-94 0 -167 25t-140 92q-119 125 -119 301q0 214 150 361q139 133 356 133zM588 154q114 0 190 82q82 92 82 223q0 111 -67 180q-66 66 -164 66q-123 0 -195 -72
q-94 -88 -94 -225q0 -107 63 -179q75 -75 185 -75zM979 1204l-334 -221l-84 80l297 270z" />
    <glyph glyph-name="ocircumflex" unicode="&#xf4;" horiz-adv-x="1093" 
d="M641 885q192 0 307 -115q117 -121 117 -299q0 -222 -150 -365q-75 -72 -160 -102.5t-194 -30.5q-94 0 -167 25t-140 92q-119 125 -119 301q0 214 150 361q139 133 356 133zM588 154q114 0 190 82q82 92 82 223q0 111 -67 180q-66 66 -164 66q-123 0 -195 -72
q-94 -88 -94 -225q0 -107 63 -179q75 -75 185 -75zM698 1143l-202 -160l-101 88l322 256l264 -256l-121 -88z" />
    <glyph glyph-name="otilde" unicode="&#xf5;" horiz-adv-x="1093" 
d="M641 885q192 0 307 -115q117 -121 117 -299q0 -222 -150 -365q-75 -72 -160 -102.5t-194 -30.5q-94 0 -167 25t-140 92q-119 125 -119 301q0 214 150 361q139 133 356 133zM588 154q114 0 190 82q82 92 82 223q0 111 -67 180q-66 66 -164 66q-123 0 -195 -72
q-94 -88 -94 -225q0 -107 63 -179q75 -75 185 -75zM913 1235l95 -90q-82 -141 -220 -141q-39 0 -88 22q-24 12 -39 22t-26 15q-32 12 -60 12q-19 0 -44.5 -18.5t-47.5 -52.5l-90 86q12 19 82 84q54 47 123 47q27 0 80 -17q2 -1 24.5 -12t45.5 -25q46 -20 65 -20q68 0 100 88
z" />
    <glyph glyph-name="odieresis" unicode="&#xf6;" horiz-adv-x="1093" 
d="M641 885q192 0 307 -115q117 -121 117 -299q0 -222 -150 -365q-75 -72 -160 -102.5t-194 -30.5q-94 0 -167 25t-140 92q-119 125 -119 301q0 214 150 361q139 133 356 133zM588 154q114 0 190 82q82 92 82 223q0 111 -67 180q-66 66 -164 66q-123 0 -195 -72
q-94 -88 -94 -225q0 -107 63 -179q75 -75 185 -75zM348 1165q6 54 46.5 90.5t94.5 36.5t86.5 -36.5t26.5 -90.5q-8 -54 -48.5 -90.5t-94.5 -36.5t-86 36.5t-25 90.5zM717 1165q6 54 46.5 90.5t94.5 36.5t86.5 -36.5t26.5 -90.5q-8 -54 -49 -90.5t-95 -36.5t-85.5 36.5
t-24.5 90.5z" />
    <glyph glyph-name="divide" unicode="&#xf7;" 
d="M475 1051q0 51 36 87t87 36t87 -36t36 -87t-36 -87t-87 -36t-87 36t-36 87zM475 326q0 51 36 87t87 36t87 -36t36 -87t-36 -87t-87 -36t-87 36t-36 87zM154 596v184h888v-184h-888z" />
    <glyph glyph-name="oslash" unicode="&#xf8;" horiz-adv-x="1093" 
d="M31 14l166 150q-66 100 -66 227q0 97 37.5 193t112.5 168q139 133 354 133q164 0 280 -88l168 147l78 -94l-164 -148q64 -107 64 -231q0 -222 -150 -365q-76 -73 -160.5 -103t-197.5 -30q-87 0 -149.5 20.5t-122.5 67.5l-160 -141zM838 561l-406 -362q60 -45 148 -45
q118 0 194 82q82 85 82 219q0 59 -18 106zM356 301l406 361q-53 43 -133 43q-121 0 -199 -72q-94 -88 -94 -225q0 -63 20 -107z" />
    <glyph glyph-name="ugrave" unicode="&#xf9;" horiz-adv-x="993" 
d="M236 862h200l-55 -448q-10 -78 -10 -101q0 -77 41 -118t112 -41q73 0 125 45q22 20 35.5 53.5t17 52.5t9.5 64l61 493h201l-62 -500q-8 -63 -15.5 -100.5t-33.5 -96t-67 -99.5q-93 -93 -273 -93q-179 0 -274 95q-80 83 -80 208q0 25 10 117zM655 983l-262 229l144 121
l221 -272z" />
    <glyph glyph-name="uacute" unicode="&#xfa;" horiz-adv-x="993" 
d="M236 862h200l-55 -448q-10 -78 -10 -101q0 -77 41 -118t112 -41q73 0 125 45q22 20 35.5 53.5t17 52.5t9.5 64l61 493h201l-62 -500q-8 -63 -15.5 -100.5t-33.5 -96t-67 -99.5q-93 -93 -273 -93q-179 0 -274 95q-80 83 -80 208q0 25 10 117zM926 1204l-334 -221l-84 80
l297 270z" />
    <glyph glyph-name="ucircumflex" unicode="&#xfb;" horiz-adv-x="993" 
d="M236 862h200l-55 -448q-10 -78 -10 -101q0 -77 41 -118t112 -41q73 0 125 45q22 20 35.5 53.5t17 52.5t9.5 64l61 493h201l-62 -500q-8 -63 -15.5 -100.5t-33.5 -96t-67 -99.5q-93 -93 -273 -93q-179 0 -274 95q-80 83 -80 208q0 25 10 117zM643 1169l-201 -176l-127 107
l351 282l280 -282l-143 -107z" />
    <glyph glyph-name="udieresis" unicode="&#xfc;" horiz-adv-x="993" 
d="M236 862h200l-55 -448q-10 -78 -10 -101q0 -77 41 -118t112 -41q73 0 125 45q22 20 35.5 53.5t17 52.5t9.5 64l61 493h201l-62 -500q-8 -63 -15.5 -100.5t-33.5 -96t-67 -99.5q-93 -93 -273 -93q-179 0 -274 95q-80 83 -80 208q0 25 10 117zM322 1165q6 54 46.5 90.5
t94.5 36.5t86 -36.5t26 -90.5q-8 -54 -48.5 -90.5t-94.5 -36.5t-85.5 36.5t-24.5 90.5zM690 1165q6 54 46.5 90.5t94.5 36.5t86.5 -36.5t26.5 -90.5q-8 -54 -48.5 -90.5t-94.5 -36.5t-86 36.5t-25 90.5z" />
    <glyph glyph-name="yacute" unicode="&#xfd;" horiz-adv-x="987" 
d="M6 -469l410 629l-297 702h237l195 -485l301 485h229l-850 -1331h-225zM911 1204l-333 -221l-84 80l297 270z" />
    <glyph glyph-name="thorn" unicode="&#xfe;" horiz-adv-x="1089" 
d="M340 100l-70 -569h-200l243 1962h201l-92 -725q45 57 102 82q72 35 154 35q80 0 153 -30t121 -81q109 -114 109 -293q0 -109 -40.5 -212t-105.5 -173q-116 -125 -286 -125q-117 0 -195 47q-53 31 -94 82zM631 705q-103 0 -172 -64q-44 -42 -69 -109.5t-25 -140.5
q0 -111 57 -170q67 -67 164 -67q101 0 170 69q43 43 70.5 108t27.5 134q0 110 -61 174q-60 66 -162 66z" />
    <glyph glyph-name="ydieresis" unicode="&#xff;" horiz-adv-x="987" 
d="M6 -469l410 629l-297 702h237l195 -485l301 485h229l-850 -1331h-225zM319 1165q6 54 47 90.5t95 36.5t86 -36.5t26 -90.5q-8 -54 -48.5 -90.5t-94.5 -36.5t-86 36.5t-25 90.5zM688 1165q6 54 46.5 90.5t94.5 36.5t86.5 -36.5t26.5 -90.5q-8 -54 -48.5 -90.5t-94.5 -36.5
t-86 36.5t-25 90.5z" />
    <glyph glyph-name="Abreve" unicode="&#x102;" horiz-adv-x="1343" 
d="M1114 0l-102 330h-584l-190 -330h-230l858 1446l469 -1446h-221zM539 526h413l-147 463zM1069 1743h156q-42 -95 -101 -154q-92 -92 -241 -92q-156 0 -213 90q-33 56 -33 156h149q2 -52 26.5 -81.5t92.5 -29.5q52 0 101 29q41 27 63 82z" />
    <glyph glyph-name="abreve" unicode="&#x103;" horiz-adv-x="1089" 
d="M856 762l12 100h201l-106 -862h-201l10 90q-65 -65 -115 -86q-74 -31 -157 -31q-146 0 -246 95q-53 52 -86 134t-33 177q0 104 38 207.5t112 177.5q121 121 315 121q91 0 158 -37q50 -26 98 -86zM610 705q-100 0 -172 -68q-43 -43 -69.5 -107.5t-26.5 -134.5
q0 -109 68 -180q58 -61 145 -61q113 0 188 75q42 43 65 107t23 129q0 115 -67 182q-58 58 -154 58zM928 1229h155q-43 -97 -100 -154q-92 -92 -242 -92q-156 0 -213 90q-32 54 -32 156h149q2 -52 26.5 -81.5t92.5 -29.5q51 0 100 29q43 28 64 82z" />
    <glyph glyph-name="Dcroat" unicode="&#x110;" horiz-adv-x="1323" 
d="M256 793l76 573h286q69 0 126.5 -5.5t131 -21.5t142.5 -52t125 -91q99 -93 132.5 -203.5t33.5 -242.5q0 -340 -193 -533q-57 -57 -128 -98t-137.5 -63.5t-148 -35.5t-144 -16.5t-140.5 -3.5h-45h-209l72 616zM516 1169l-51 -376l-21 -177l-47 -419h90q53 0 92.5 2
t100.5 11.5t109 27t101.5 51.5t94.5 82q115 134 115 350q0 212 -113 328q-41 41 -92 67t-107.5 36.5t-94.5 13.5t-87 3h-90zM113 569l24 176h584l-25 -176h-583z" />
    <glyph glyph-name="dcroat" unicode="&#x111;" horiz-adv-x="1087" 
d="M854 762l45 368h-227l18 156h228l26 207h201l-27 -207h148l-19 -156h-147l-137 -1130h-201l10 90q-55 -61 -110 -86q-61 -31 -148 -31q-157 0 -256 99q-58 58 -90.5 142t-32.5 181q0 106 42 210.5t116 172.5q113 107 295 107q104 0 166 -35q64 -31 100 -88zM606 705
q-106 0 -174 -68q-92 -92 -92 -234q0 -117 66 -186q58 -63 155 -63q111 0 180 69q41 41 64.5 106t23.5 132q0 109 -65 178q-66 66 -158 66z" />
    <glyph glyph-name="Itilde" unicode="&#x128;" horiz-adv-x="536" 
d="M672 1757l94 -90q-82 -141 -219 -141q-39 0 -88 22q-24 12 -39.5 22t-26.5 15q-32 12 -59 12q-19 0 -44.5 -18.5t-47.5 -52.5l-90 86q14 21 81 84q54 47 123 47q27 0 80 -17q2 -1 24.5 -11.5t45.5 -24.5q48 -21 65 -21q69 0 101 88zM332 1366h209l-168 -1366h-209z" />
    <glyph glyph-name="itilde" unicode="&#x129;" horiz-adv-x="456" 
d="M233 862h201l-106 -862h-201zM563 1235l94 -90q-82 -141 -219 -141q-39 0 -88 22q-24 12 -39 22t-26 15q-32 12 -60 12q-19 0 -44.5 -18.5t-47.5 -52.5l-90 86q12 19 82 84q54 47 123 47q27 0 80 -17l24 -12t45 -25q46 -20 66 -20q68 0 100 88z" />
    <glyph glyph-name="OE" unicode="&#x152;" horiz-adv-x="2172" 
d="M2234 1366l-24 -197h-545l-39 -325h528l-24 -197h-528l-56 -450h545l-25 -197h-536h-217l20 166q-95 -95 -192 -137q-125 -56 -289 -56q-95 0 -168.5 11t-161.5 52t-157 114q-85 88 -134 207t-49 257q0 163 59.5 310.5t164.5 251.5q105 103 250.5 159t314.5 56
q161 0 299 -72q116 -59 184 -164l27 211h753zM846 166q238 0 393 147q78 78 122 190.5t44 233.5q0 195 -123 322q-60 63 -149 101t-197 38q-222 0 -373 -151q-170 -163 -170 -418q0 -205 127 -332q121 -131 326 -131z" />
    <glyph glyph-name="oe" unicode="&#x153;" horiz-adv-x="1730" 
d="M1501 291l158 -94q-60 -101 -160 -162q-106 -62 -246 -62q-115 0 -206 52q-72 44 -119 118q-14 -18 -29.5 -34t-28 -27t-28.5 -22t-24.5 -16t-21 -12.5t-14.5 -8.5q-93 -50 -225 -50q-189 0 -303 117q-119 119 -119 301q0 108 39.5 203t106.5 158q53 53 144 93t216 40
q121 0 211 -45q81 -39 135 -115q50 67 135 115q51 27 96 36t111 9q166 0 260 -101q107 -117 107 -301q0 -51 -10 -100h-617q0 -48 17 -95t47 -79q48 -55 141 -55q78 0 137 39q53 35 90 98zM588 154q114 0 190 82q82 90 82 223q0 111 -67 180q-66 66 -168 66q-111 0 -189 -72
q-94 -88 -94 -225q0 -106 64 -179q75 -75 182 -75zM1100 547h401q-8 78 -61 127q-42 39 -115 39q-87 0 -145 -51q-54 -48 -80 -115z" />
    <glyph glyph-name="Scaron" unicode="&#x160;" horiz-adv-x="1056" 
d="M1065 1161l-180 -98q-15 61 -62 96q-49 39 -135 39q-99 0 -156 -53q-57 -54 -57 -123q0 -61 49 -104q15 -14 33 -25t29.5 -16.5t35.5 -15.5t35 -15l111 -49q112 -50 172 -125q72 -89 72 -223q0 -210 -125 -338q-131 -138 -357 -138q-174 0 -274 97q-53 52 -88 132
t-39 175l211 45q-4 -119 47 -184q55 -72 174 -72q95 0 162 57q39 33 58.5 88t19.5 113q0 73 -53 129q-9 10 -21 19.5t-21.5 16t-25 14.5t-23.5 12t-25.5 12.5t-23.5 11.5l-104 47q-108 51 -162 109q-76 87 -76 200q0 15 2 34t11 60t33.5 86.5t62.5 84.5q121 131 325 131
q143 0 236 -64q95 -63 129 -166zM739 1716l224 168l124 -115l-370 -274l-305 274l145 115z" />
    <glyph glyph-name="scaron" unicode="&#x161;" horiz-adv-x="745" 
d="M725 733l-156 -98q-14 32 -41 53q-30 21 -61 21q-45 0 -70 -25q-18 -18 -18 -45q0 -31 24 -49q5 -5 12 -9.5t13.5 -7.5t25 -11.5t33.5 -16.5l58 -29q66 -32 108 -74q66 -76 66 -178q0 -127 -86 -209q-88 -82 -242 -82q-117 0 -192 56q-9 5 -25 21t-41.5 54t-40.5 82
l174 78q16 -57 47 -84q35 -30 84 -30q51 0 80 26q33 26 33 76q0 43 -29 72q-22 22 -82 49l-55 28q-66 34 -98 66q-60 57 -60 149q0 113 78 191t213 78q88 0 150 -41q57 -37 98 -111zM512 1206l203 176l127 -106l-348 -283l-283 283l143 106z" />
    <glyph glyph-name="Utilde" unicode="&#x168;" horiz-adv-x="1343" 
d="M336 1366h209l-94 -768q-15 -103 -15 -156q0 -130 72 -202q74 -74 192 -74q132 0 228 88q58 58 79.5 124.5t30.5 164.5l101 823h209l-109 -879q-35 -263 -192 -397q-143 -117 -363 -117q-245 0 -371 160q-90 115 -90 281q0 21 23 227zM1079 1757l95 -90
q-82 -141 -220 -141q-39 0 -88 22q-24 12 -39 22t-26 15q-32 12 -60 12q-19 0 -44.5 -18.5t-47.5 -52.5l-90 86q12 19 82 84q54 47 123 47q27 0 80 -17q2 -1 24 -11.5t45 -24.5q48 -21 66 -21q68 0 100 88z" />
    <glyph glyph-name="utilde" unicode="&#x169;" horiz-adv-x="993" 
d="M236 862h200l-55 -448q-10 -78 -10 -101q0 -77 41 -118t112 -41q73 0 125 45q22 20 35.5 53.5t17 52.5t9.5 64l61 493h201l-62 -500q-8 -63 -15.5 -100.5t-33.5 -96t-67 -99.5q-93 -93 -273 -93q-179 0 -274 95q-80 83 -80 208q0 25 10 117zM834 1235l94 -90
q-82 -141 -219 -141q-39 0 -88 22q-24 12 -39.5 22t-26.5 15q-32 12 -59 12q-19 0 -45 -18.5t-48 -52.5l-90 86q12 19 82 84q54 47 123 47q27 0 80 -17q2 -1 24.5 -12t45.5 -25q46 -20 65 -20q69 0 101 88z" />
    <glyph glyph-name="Ydieresis" unicode="&#x178;" horiz-adv-x="1105" 
d="M449 0l71 590l-352 776h233l248 -547l383 547h242l-545 -776l-72 -590h-208zM805 1614q0 57 43 100q41 41 102 41q49 0 78 -31q33 -33 33 -84q0 -60 -43 -100q-42 -39 -100 -39q-49 0 -80 31q-33 29 -33 82zM406 1614q0 57 43 100q41 41 102 41q49 0 78 -31
q33 -33 33 -84q0 -60 -44 -100q-42 -39 -100 -39q-49 0 -80 31q-32 28 -32 82z" />
    <glyph glyph-name="Zcaron" unicode="&#x17d;" horiz-adv-x="1134" 
d="M1241 1366l-815 -1169h655l-24 -197h-996l816 1169h-562l25 197h901zM801 1716l223 168l125 -115l-371 -274l-305 274l145 115z" />
    <glyph glyph-name="zcaron" unicode="&#x17e;" horiz-adv-x="983" 
d="M1073 862l-639 -678h512l-22 -184h-908l643 678h-440l23 184h831zM674 1206l203 176l127 -106l-349 -283l-282 283l143 106z" />
    <glyph glyph-name="florin" unicode="&#x192;" horiz-adv-x="1163" 
d="M1225 1497l-51 -190q-45 20 -89 20q-68 0 -108 -43q-41 -41 -68 -151l-67 -271h229l-41 -160h-229l-144 -569q-32 -131 -72 -228.5t-106 -156.5q-113 -110 -334 -110q-37 0 -55 2l47 190h13q129 0 188 55q34 33 58 90t50 154l146 573h-174l41 160h174l74 295q15 55 28 92
t43 90t68 88q97 89 241 89q59 0 138 -19z" />
    <glyph glyph-name="Ohorn" unicode="&#x1a0;" horiz-adv-x="1630" 
d="M979 1391q97 0 174 -21q191 -18 260 -2q36 5 43 14q23 16 27 82h1v2v2t0.5 3.5t0.5 5t0.5 7t1 9.5t1 12t1.5 15h156l-5 -54q-11 -117 -58.5 -173t-162.5 -62q6 -4 21 -19q176 -176 176 -462q0 -191 -62 -333t-153 -233q-65 -65 -138 -109t-148 -65t-139 -29t-138 -8
q-151 0 -265.5 39.5t-207.5 137.5q-85 88 -134 207t-49 257q0 163 59.5 310.5t164.5 251.5q104 104 250.5 159.5t322.5 55.5zM840 166q254 0 401 147q78 78 122 190.5t44 233.5q0 195 -123 322q-132 139 -346 139q-228 0 -379 -151q-170 -163 -170 -418q0 -205 127 -332
q121 -131 324 -131z" />
    <glyph glyph-name="ohorn" unicode="&#x1a1;" horiz-adv-x="1093" 
d="M641 885q88 0 158 -23q51 -9 112 -4q36 5 43 14q23 16 27 82h1v2v2t0.5 3.5t0.5 5t0.5 7t1 9.5t1 12t1.5 15h156l-4 -54q-11 -101 -44.5 -154.5t-113.5 -72.5q84 -105 84 -258q0 -222 -150 -365q-75 -72 -160 -102.5t-194 -30.5q-94 0 -167 25t-140 92q-119 125 -119 301
q0 214 150 361q139 133 356 133zM588 154q114 0 190 82q82 92 82 223q0 111 -67 180q-66 66 -164 66q-123 0 -195 -72q-94 -88 -94 -225q0 -107 63 -179q75 -75 185 -75z" />
    <glyph glyph-name="Uhorn" unicode="&#x1af;" horiz-adv-x="1343" 
d="M336 1366h209l-94 -768q-15 -103 -15 -156q0 -130 72 -202q74 -74 192 -74q132 0 228 88q58 58 79.5 124.5t30.5 164.5l101 823h159l2 1q3 1 7 1q36 5 43 14q11 7 16.5 22.5t7 25.5t2.5 34q1 1 1 2v2t0.5 3.5t0.5 5t0.5 7t1 9.5t1 12t1.5 15h156l-4 -54
q-11 -112 -54.5 -167.5t-148.5 -65.5l-92 -746q-35 -263 -192 -397q-143 -117 -363 -117q-245 0 -371 160q-90 115 -90 281q0 21 23 227z" />
    <glyph glyph-name="uhorn" unicode="&#x1b0;" horiz-adv-x="993" 
d="M236 862h200l-55 -448q-10 -78 -10 -101q0 -77 41 -118t112 -41q73 0 125 45q22 20 35.5 53.5t17 52.5t9.5 64l61 493h176q14 3 21 10q11 7 16.5 22.5t7 25.5t2.5 34h1v2v2t0.5 3.5t0.5 5t0.5 7t1 9.5t1 12t1.5 15h156l-4 -54q-11 -110 -54.5 -166.5t-144.5 -66.5
l-43 -361q-8 -63 -15.5 -100.5t-33.5 -96t-67 -99.5q-93 -93 -273 -93q-179 0 -274 95q-80 83 -80 208q0 25 10 117z" />
    <glyph glyph-name="afii57929" unicode="&#x2bc;" 
d="M369 991l233 422l176 -90l-274 -401z" />
    <glyph glyph-name="circumflex" unicode="&#x2c6;" 
d="M659 1169l-200 -176l-127 107l350 282l281 -282l-144 -107z" />
    <glyph glyph-name="caron" unicode="&#x2c7;" 
d="M653 1206l203 176l127 -106l-348 -283l-283 283l144 106z" />
    <glyph glyph-name="uni02C9" unicode="&#x2c9;" 
d="M301 1040l21 160h675l-20 -160h-676z" />
    <glyph glyph-name="breve" unicode="&#x2d8;" 
d="M836 1307h165q-36 -154 -139 -224q-78 -53 -198 -53q-132 0 -209 55q-50 36 -80.5 94.5t-36.5 127.5h158q11 -66 55 -101q38 -32 106 -32t111 32q50 38 68 101z" />
    <glyph glyph-name="dotaccent" unicode="&#x2d9;" 
d="M516 1110q0 66 45 111q39 39 98 39q50 0 86 -31q39 -33 39 -92q0 -60 -45 -105q-39 -39 -100 -39q-52 0 -86 31q-37 33 -37 86z" />
    <glyph glyph-name="ring" unicode="&#x2da;" 
d="M463 1174q0 86 53 143q55 61 154 61q80 0 131 -47t51 -127q0 -94 -59 -153q-58 -58 -144 -58q-83 0 -137 54q-49 56 -49 127zM567 1178q0 -35 23 -58q22 -22 59 -22q44 0 68 24q28 25 28 74q0 40 -26 59q-22 19 -57 19q-41 0 -70 -29q-25 -28 -25 -67z" />
    <glyph glyph-name="ogonek" unicode="&#x2db;" 
d="M494 0h149q-63 -49 -106 -92q-2 -2 -9.5 -12t-11 -14.5t-10 -14t-9.5 -16t-5.5 -16t-2.5 -17.5q0 -28 23 -41q17 -13 57 -13q41 0 105 19l-35 -131q-67 -39 -139 -39q-75 0 -125 41q-51 41 -51 110q0 81 71 152q26 30 99 84z" />
    <glyph glyph-name="tilde" unicode="&#x2dc;" 
d="M918 1274l108 -94q-41 -70 -92 -113q-74 -63 -164 -63q-61 0 -123 36l-41 25q-3 2 -18 9.5l-21 10.5t-18.5 8t-23 7t-21.5 2q-47 0 -74 -35q-18 -18 -43 -59l-111 84q46 66 101 110q74 55 153 55q70 0 138 -40l30 -21q55 -37 97 -37q18 0 33 6.5t23.5 13.5t22.5 23
q33 42 44 72z" />
    <glyph glyph-name="hungarumlaut" unicode="&#x2dd;" 
d="M645 1382l156 -94l-334 -295l-78 70zM1014 1382l155 -94l-333 -295l-78 70z" />
    <glyph glyph-name="acutecomb" unicode="&#x301;" horiz-adv-x="4" 
d="M-270 1382l172 -94l-355 -295l-102 70z" />
    <glyph glyph-name="uni1EA0" unicode="&#x1ea0;" horiz-adv-x="1343" 
d="M520 -293q0 55 37 92t90 37q46 0 72 -26q29 -26 29 -68q0 -53 -37 -90q-33 -39 -93 -39q-42 0 -69 27q-29 26 -29 67zM1114 0l-102 330h-584l-190 -330h-230l858 1446l469 -1446h-221zM539 526h413l-147 463z" />
    <glyph glyph-name="uni1EA1" unicode="&#x1ea1;" horiz-adv-x="1089" 
d="M395 -293q0 55 37 92t90 37q46 0 72 -26q29 -26 29 -68q0 -53 -37 -90q-33 -39 -92 -39q-43 0 -70 27q-29 26 -29 67zM856 762l12 100h201l-106 -862h-201l10 90q-65 -65 -115 -86q-74 -31 -157 -31q-146 0 -246 95q-53 52 -86 134t-33 177q0 104 38 207.5t112 177.5
q121 121 315 121q91 0 158 -37q50 -26 98 -86zM610 705q-100 0 -172 -68q-43 -43 -69.5 -107.5t-26.5 -134.5q0 -109 68 -180q58 -61 145 -61q113 0 188 75q42 43 65 107t23 129q0 115 -67 182q-58 58 -154 58z" />
    <glyph glyph-name="uni1EA2" unicode="&#x1ea2;" horiz-adv-x="1343" 
d="M930 1495h-113l19 152q53 -8 104 18q32 20 39 57q4 32 -14 47t-47 15q-61 0 -72 -55h-121q10 65 51 106q19 24 57.5 43.5t96.5 19.5q194 0 172 -180q-11 -68 -59.5 -110t-104.5 -47zM1114 0l-102 330h-584l-190 -330h-230l858 1446l469 -1446h-221zM539 526h413l-147 463
z" />
    <glyph glyph-name="uni1EA3" unicode="&#x1ea3;" horiz-adv-x="1089" 
d="M770 983h-113l19 152q53 -8 104 18q32 20 39 57q4 32 -14 47t-47 15q-61 0 -72 -55h-121q10 65 51 106q19 24 57.5 43.5t96.5 19.5q194 0 172 -180q-11 -68 -59.5 -110t-104.5 -47zM856 762l12 100h201l-106 -862h-201l10 90q-65 -65 -115 -86q-74 -31 -157 -31
q-146 0 -246 95q-53 52 -86 134t-33 177q0 104 38 207.5t112 177.5q121 121 315 121q91 0 158 -37q50 -26 98 -86zM610 705q-100 0 -172 -68q-43 -43 -69.5 -107.5t-26.5 -134.5q0 -109 68 -180q58 -61 145 -61q113 0 188 75q42 43 65 107t23 129q0 115 -67 182
q-58 58 -154 58z" />
    <glyph glyph-name="uni1EA4" unicode="&#x1ea4;" horiz-adv-x="1343" 
d="M1446 1999l-334 -221l-84 80l297 270zM1114 0l-102 330h-584l-190 -330h-230l858 1446l469 -1446h-221zM539 526h413l-147 463zM887 1655l-203 -160l-100 88l321 256l264 -256l-120 -88z" />
    <glyph glyph-name="uni1EA5" unicode="&#x1ea5;" horiz-adv-x="1089" 
d="M1294 1487l-333 -221l-84 80l297 270zM856 762l12 100h201l-106 -862h-201l10 90q-65 -65 -115 -86q-74 -31 -157 -31q-146 0 -246 95q-53 52 -86 134t-33 177q0 104 38 207.5t112 177.5q121 121 315 121q91 0 158 -37q50 -26 98 -86zM610 705q-100 0 -172 -68
q-43 -43 -69.5 -107.5t-26.5 -134.5q0 -109 68 -180q58 -61 145 -61q113 0 188 75q42 43 65 107t23 129q0 115 -67 182q-58 58 -154 58zM735 1143l-203 -160l-100 88l322 256l264 -256l-121 -88z" />
    <glyph glyph-name="uni1EA6" unicode="&#x1ea6;" horiz-adv-x="1343" 
d="M1157 1778l-262 229l143 121l222 -273zM1114 0l-102 330h-584l-190 -330h-230l858 1446l469 -1446h-221zM539 526h413l-147 463zM887 1655l-203 -160l-100 88l321 256l264 -256l-120 -88z" />
    <glyph glyph-name="uni1EA7" unicode="&#x1ea7;" horiz-adv-x="1089" 
d="M1006 1266l-263 229l144 121l221 -273zM856 762l12 100h201l-106 -862h-201l10 90q-65 -65 -115 -86q-74 -31 -157 -31q-146 0 -246 95q-53 52 -86 134t-33 177q0 104 38 207.5t112 177.5q121 121 315 121q91 0 158 -37q50 -26 98 -86zM610 705q-100 0 -172 -68
q-43 -43 -69.5 -107.5t-26.5 -134.5q0 -109 68 -180q58 -61 145 -61q113 0 188 75q42 43 65 107t23 129q0 115 -67 182q-58 58 -154 58zM735 1143l-203 -160l-100 88l322 256l264 -256l-121 -88z" />
    <glyph glyph-name="uni1EA8" unicode="&#x1ea8;" horiz-adv-x="1343" 
d="M1200 1778h-113l19 151q52 -8 104 19q32 20 39 57q4 32 -14 46.5t-47 14.5q-61 0 -72 -55h-121q10 65 52 107q49 63 153 63q194 0 172 -180q-11 -68 -60 -110.5t-104 -47.5zM1114 0l-102 330h-584l-190 -330h-230l858 1446l469 -1446h-221zM539 526h413l-147 463z
M887 1655l-203 -160l-100 88l321 256l264 -256l-120 -88z" />
    <glyph glyph-name="uni1EA9" unicode="&#x1ea9;" horiz-adv-x="1089" 
d="M1049 1266h-113l18 151q53 -8 105 19q32 20 39 57q4 32 -14.5 46.5t-47.5 14.5q-60 0 -71 -55h-121q10 66 51 107q19 24 57.5 43.5t96.5 19.5q194 0 172 -180q-11 -68 -60 -110.5t-104 -47.5zM856 762l12 100h201l-106 -862h-201l10 90q-65 -65 -115 -86
q-74 -31 -157 -31q-146 0 -246 95q-53 52 -86 134t-33 177q0 104 38 207.5t112 177.5q121 121 315 121q91 0 158 -37q50 -26 98 -86zM610 705q-100 0 -172 -68q-43 -43 -69.5 -107.5t-26.5 -134.5q0 -109 68 -180q58 -61 145 -61q113 0 188 75q42 43 65 107t23 129
q0 115 -67 182q-58 58 -154 58zM735 1143l-203 -160l-100 88l322 256l264 -256l-121 -88z" />
    <glyph glyph-name="uni1EAA" unicode="&#x1eaa;" horiz-adv-x="1343" 
d="M1133 2132l94 -90q-82 -141 -219 -141q-39 0 -88 22q-24 12 -39.5 22t-26.5 15q-32 12 -59 12q-19 0 -45 -18.5t-48 -52.5l-90 86q12 19 82 84q54 47 123 47q27 0 80 -17q2 -1 24.5 -12t45.5 -25q46 -20 65 -20q69 0 101 88zM1114 0l-102 330h-584l-190 -330h-230
l858 1446l469 -1446h-221zM539 526h413l-147 463zM887 1655l-203 -160l-100 88l321 256l264 -256l-120 -88z" />
    <glyph glyph-name="uni1EAB" unicode="&#x1eab;" horiz-adv-x="1089" 
d="M981 1620l94 -90q-82 -141 -219 -141q-39 0 -88 22q-24 12 -39.5 22t-26.5 15q-32 12 -59 12q-19 0 -44.5 -18.5t-47.5 -52.5l-90 86q12 19 82 84q54 47 123 47q26 0 79 -17q2 -1 24.5 -12t45.5 -25q46 -20 66 -20q68 0 100 88zM856 762l12 100h201l-106 -862h-201l10 90
q-65 -65 -115 -86q-74 -31 -157 -31q-146 0 -246 95q-53 52 -86 134t-33 177q0 104 38 207.5t112 177.5q121 121 315 121q91 0 158 -37q50 -26 98 -86zM610 705q-100 0 -172 -68q-43 -43 -69.5 -107.5t-26.5 -134.5q0 -109 68 -180q58 -61 145 -61q113 0 188 75
q42 43 65 107t23 129q0 115 -67 182q-58 58 -154 58zM735 1143l-203 -160l-100 88l322 256l264 -256l-121 -88z" />
    <glyph glyph-name="uni1EAC" unicode="&#x1eac;" horiz-adv-x="1343" 
d="M520 -293q0 55 37 92t90 37q46 0 72 -26q29 -26 29 -68q0 -53 -37 -90q-33 -39 -93 -39q-42 0 -69 27q-29 26 -29 67zM1114 0l-102 330h-584l-190 -330h-230l858 1446l469 -1446h-221zM539 526h413l-147 463zM887 1655l-203 -160l-100 88l321 256l264 -256l-120 -88z" />
    <glyph glyph-name="uni1EAD" unicode="&#x1ead;" horiz-adv-x="1089" 
d="M395 -293q0 55 37 92t90 37q46 0 72 -26q29 -26 29 -68q0 -53 -37 -90q-33 -39 -92 -39q-43 0 -70 27q-29 26 -29 67zM856 762l12 100h201l-106 -862h-201l10 90q-65 -65 -115 -86q-74 -31 -157 -31q-146 0 -246 95q-53 52 -86 134t-33 177q0 104 38 207.5t112 177.5
q121 121 315 121q91 0 158 -37q50 -26 98 -86zM610 705q-100 0 -172 -68q-43 -43 -69.5 -107.5t-26.5 -134.5q0 -109 68 -180q58 -61 145 -61q113 0 188 75q42 43 65 107t23 129q0 115 -67 182q-58 58 -154 58zM735 1143l-203 -160l-100 88l322 256l264 -256l-121 -88z" />
    <glyph glyph-name="uni1EAE" unicode="&#x1eae;" horiz-adv-x="1343" 
d="M1237 2023l-334 -221l-84 80l297 270zM1114 0l-102 330h-584l-190 -330h-230l858 1446l469 -1446h-221zM539 526h413l-147 463zM1069 1743h156q-42 -95 -101 -154q-92 -92 -241 -92q-156 0 -213 90q-33 56 -33 156h149q2 -52 26.5 -81.5t92.5 -29.5q52 0 101 29
q41 27 63 82z" />
    <glyph glyph-name="uni1EAF" unicode="&#x1eaf;" horiz-adv-x="1089" 
d="M1096 1509l-334 -221l-84 80l297 270zM856 762l12 100h201l-106 -862h-201l10 90q-65 -65 -115 -86q-74 -31 -157 -31q-146 0 -246 95q-53 52 -86 134t-33 177q0 104 38 207.5t112 177.5q121 121 315 121q91 0 158 -37q50 -26 98 -86zM610 705q-100 0 -172 -68
q-43 -43 -69.5 -107.5t-26.5 -134.5q0 -109 68 -180q58 -61 145 -61q113 0 188 75q42 43 65 107t23 129q0 115 -67 182q-58 58 -154 58zM928 1229h155q-43 -97 -100 -154q-92 -92 -242 -92q-156 0 -213 90q-32 54 -32 156h149q2 -52 26.5 -81.5t92.5 -29.5q51 0 100 29
q43 28 64 82z" />
    <glyph glyph-name="uni1EB0" unicode="&#x1eb0;" horiz-adv-x="1343" 
d="M952 1802l-262 230l144 120l221 -272zM1114 0l-102 330h-584l-190 -330h-230l858 1446l469 -1446h-221zM539 526h413l-147 463zM1069 1743h156q-42 -95 -101 -154q-92 -92 -241 -92q-156 0 -213 90q-33 56 -33 156h149q2 -52 26.5 -81.5t92.5 -29.5q52 0 101 29
q41 27 63 82z" />
    <glyph glyph-name="uni1EB1" unicode="&#x1eb1;" horiz-adv-x="1089" 
d="M811 1288l-262 230l143 120l221 -272zM856 762l12 100h201l-106 -862h-201l10 90q-65 -65 -115 -86q-74 -31 -157 -31q-146 0 -246 95q-53 52 -86 134t-33 177q0 104 38 207.5t112 177.5q121 121 315 121q91 0 158 -37q50 -26 98 -86zM610 705q-100 0 -172 -68
q-43 -43 -69.5 -107.5t-26.5 -134.5q0 -109 68 -180q58 -61 145 -61q113 0 188 75q42 43 65 107t23 129q0 115 -67 182q-58 58 -154 58zM928 1229h155q-43 -97 -100 -154q-92 -92 -242 -92q-156 0 -213 90q-32 54 -32 156h149q2 -52 26.5 -81.5t92.5 -29.5q51 0 100 29
q43 28 64 82z" />
    <glyph glyph-name="uni1EB2" unicode="&#x1eb2;" horiz-adv-x="1343" 
d="M985 1802h-113l19 152q53 -8 104 18q32 20 39 58q4 32 -14 46.5t-47 14.5q-61 0 -72 -55h-121q10 65 51 106q50 64 154 64q194 0 172 -181q-11 -68 -59.5 -110t-104.5 -47zM1114 0l-102 330h-584l-190 -330h-230l858 1446l469 -1446h-221zM539 526h413l-147 463z
M1069 1743h156q-42 -95 -101 -154q-92 -92 -241 -92q-156 0 -213 90q-33 56 -33 156h149q2 -52 26.5 -81.5t92.5 -29.5q52 0 101 29q41 27 63 82z" />
    <glyph glyph-name="uni1EB3" unicode="&#x1eb3;" horiz-adv-x="1089" 
d="M844 1288h-113l19 152q53 -8 104 18q32 20 39 58q4 32 -14.5 46.5t-47.5 14.5q-60 0 -71 -55h-121q10 65 51 106q50 64 154 64q194 0 172 -181q-11 -68 -59.5 -110t-104.5 -47zM856 762l12 100h201l-106 -862h-201l10 90q-65 -65 -115 -86q-74 -31 -157 -31
q-146 0 -246 95q-53 52 -86 134t-33 177q0 104 38 207.5t112 177.5q121 121 315 121q91 0 158 -37q50 -26 98 -86zM610 705q-100 0 -172 -68q-43 -43 -69.5 -107.5t-26.5 -134.5q0 -109 68 -180q58 -61 145 -61q113 0 188 75q42 43 65 107t23 129q0 115 -67 182
q-58 58 -154 58zM928 1229h155q-43 -97 -100 -154q-92 -92 -242 -92q-156 0 -213 90q-32 54 -32 156h149q2 -52 26.5 -81.5t92.5 -29.5q51 0 100 29q43 28 64 82z" />
    <glyph glyph-name="uni1EB4" unicode="&#x1eb4;" horiz-adv-x="1343" 
d="M1151 2034l94 -90q-83 -142 -219 -142q-37 0 -88 23q-24 12 -39.5 22t-26.5 15q-32 12 -59 12q-19 0 -44.5 -18.5t-47.5 -53.5l-90 86q12 19 82 84q54 47 123 47q29 0 79 -16q2 -1 24.5 -12t45.5 -25q46 -20 66 -20q68 0 100 88zM1114 0l-102 330h-584l-190 -330h-230
l858 1446l469 -1446h-221zM539 526h413l-147 463zM1069 1743h156q-42 -95 -101 -154q-92 -92 -241 -92q-156 0 -213 90q-33 56 -33 156h149q2 -52 26.5 -81.5t92.5 -29.5q52 0 101 29q41 27 63 82z" />
    <glyph glyph-name="uni1EB5" unicode="&#x1eb5;" horiz-adv-x="1089" 
d="M1010 1520l94 -90q-83 -142 -219 -142q-37 0 -88 23q-24 12 -39.5 22t-26.5 15q-32 12 -59 12q-19 0 -44.5 -18.5t-47.5 -53.5l-91 86q12 19 82 84q54 47 123 47q30 0 80 -16q2 -1 24.5 -12t45.5 -25q46 -20 65 -20q69 0 101 88zM856 762l12 100h201l-106 -862h-201
l10 90q-65 -65 -115 -86q-74 -31 -157 -31q-146 0 -246 95q-53 52 -86 134t-33 177q0 104 38 207.5t112 177.5q121 121 315 121q91 0 158 -37q50 -26 98 -86zM610 705q-100 0 -172 -68q-43 -43 -69.5 -107.5t-26.5 -134.5q0 -109 68 -180q58 -61 145 -61q113 0 188 75
q42 43 65 107t23 129q0 115 -67 182q-58 58 -154 58zM928 1229h155q-43 -97 -100 -154q-92 -92 -242 -92q-156 0 -213 90q-32 54 -32 156h149q2 -52 26.5 -81.5t92.5 -29.5q51 0 100 29q43 28 64 82z" />
    <glyph glyph-name="uni1EB6" unicode="&#x1eb6;" horiz-adv-x="1343" 
d="M520 -293q0 55 37 92t90 37q46 0 72 -26q29 -26 29 -68q0 -53 -37 -90q-33 -39 -93 -39q-42 0 -69 27q-29 26 -29 67zM1114 0l-102 330h-584l-190 -330h-230l858 1446l469 -1446h-221zM539 526h413l-147 463zM1069 1743h156q-42 -95 -101 -154q-92 -92 -241 -92
q-156 0 -213 90q-33 56 -33 156h149q2 -52 26.5 -81.5t92.5 -29.5q52 0 101 29q41 27 63 82z" />
    <glyph glyph-name="uni1EB7" unicode="&#x1eb7;" horiz-adv-x="1089" 
d="M395 -293q0 55 37 92t90 37q46 0 72 -26q29 -26 29 -68q0 -53 -37 -90q-33 -39 -92 -39q-43 0 -70 27q-29 26 -29 67zM856 762l12 100h201l-106 -862h-201l10 90q-65 -65 -115 -86q-74 -31 -157 -31q-146 0 -246 95q-53 52 -86 134t-33 177q0 104 38 207.5t112 177.5
q121 121 315 121q91 0 158 -37q50 -26 98 -86zM610 705q-100 0 -172 -68q-43 -43 -69.5 -107.5t-26.5 -134.5q0 -109 68 -180q58 -61 145 -61q113 0 188 75q42 43 65 107t23 129q0 115 -67 182q-58 58 -154 58zM928 1229h155q-43 -97 -100 -154q-92 -92 -242 -92
q-156 0 -213 90q-32 54 -32 156h149q2 -52 26.5 -81.5t92.5 -29.5q51 0 100 29q43 28 64 82z" />
    <glyph glyph-name="uni1EB8" unicode="&#x1eb8;" 
d="M387 -293q0 55 37 92t90 37q46 0 72 -26q28 -25 28 -68q0 -54 -36 -90q-33 -39 -93 -39q-42 0 -69 27q-29 26 -29 67zM1085 1366l-24 -197h-545l-41 -346h529l-25 -196h-528l-54 -430h545l-24 -197h-754l168 1366h753z" />
    <glyph glyph-name="uni1EB9" unicode="&#x1eb9;" horiz-adv-x="1001" 
d="M383 -293q0 55 37 92t90 37q46 0 72 -26q28 -25 28 -68q0 -53 -37 -90q-33 -39 -92 -39q-42 0 -69 27q-29 26 -29 67zM772 291l158 -94q-60 -101 -160 -162q-98 -62 -242 -62q-167 0 -276 109q-117 117 -117 307q0 225 150 369q130 127 315 127q164 0 260 -101
q50 -52 78.5 -130.5t28.5 -170.5q0 -46 -11 -100h-616q0 -108 63 -174q48 -55 142 -55q78 0 137 39q53 35 90 98zM371 547h401q-11 75 -51 119q-47 47 -125 47q-82 0 -145 -51q-54 -48 -80 -115z" />
    <glyph glyph-name="uni1EBA" unicode="&#x1eba;" 
d="M791 1495h-113l18 152q54 -8 105 18q32 20 39 57q4 32 -14.5 47t-47.5 15q-60 0 -71 -55h-121q10 65 51 106q19 24 57.5 43.5t96.5 19.5q194 0 172 -180q-11 -68 -59.5 -110t-104.5 -47zM1085 1366l-24 -197h-545l-41 -346h529l-25 -196h-528l-54 -430h545l-24 -197h-754
l168 1366h753z" />
    <glyph glyph-name="uni1EBB" unicode="&#x1ebb;" horiz-adv-x="1001" 
d="M694 983h-112l18 152q54 -8 105 18q31 19 38 57q4 32 -14 47t-47 15q-61 0 -72 -55h-121q10 64 52 106q49 63 153 63q194 0 172 -180q-11 -68 -59.5 -110t-104.5 -47zM772 291l158 -94q-60 -101 -160 -162q-98 -62 -242 -62q-167 0 -276 109q-117 117 -117 307
q0 225 150 369q130 127 315 127q164 0 260 -101q50 -52 78.5 -130.5t28.5 -170.5q0 -46 -11 -100h-616q0 -108 63 -174q48 -55 142 -55q78 0 137 39q53 35 90 98zM371 547h401q-11 75 -51 119q-47 47 -125 47q-82 0 -145 -51q-54 -48 -80 -115z" />
    <glyph glyph-name="uni1EBC" unicode="&#x1ebc;" 
d="M938 1757l94 -90q-82 -141 -219 -141q-39 0 -88 22q-24 12 -39.5 22t-26.5 15q-32 12 -59 12q-19 0 -44.5 -18.5t-47.5 -52.5l-90 86q12 19 82 84q54 47 123 47q26 0 79 -17q2 -1 24.5 -11.5t45.5 -24.5q48 -21 66 -21q68 0 100 88zM1085 1366l-24 -197h-545l-41 -346
h529l-25 -196h-528l-54 -430h545l-24 -197h-754l168 1366h753z" />
    <glyph glyph-name="uni1EBD" unicode="&#x1ebd;" horiz-adv-x="1001" 
d="M860 1235l94 -90q-82 -141 -219 -141q-39 0 -88 22q-24 12 -39 22t-26 15q-32 12 -60 12q-19 0 -44.5 -18.5t-47.5 -52.5l-90 86q12 19 82 84q54 47 123 47q27 0 80 -17l24 -12t45 -25q46 -20 66 -20q68 0 100 88zM772 291l158 -94q-60 -101 -160 -162q-98 -62 -242 -62
q-167 0 -276 109q-117 117 -117 307q0 225 150 369q130 127 315 127q164 0 260 -101q50 -52 78.5 -130.5t28.5 -170.5q0 -46 -11 -100h-616q0 -108 63 -174q48 -55 142 -55q78 0 137 39q53 35 90 98zM371 547h401q-11 75 -51 119q-47 47 -125 47q-82 0 -145 -51
q-54 -48 -80 -115z" />
    <glyph glyph-name="uni1EBE" unicode="&#x1ebe;" 
d="M1296 1999l-333 -221l-84 80l297 270zM1085 1366l-24 -197h-545l-41 -346h529l-25 -196h-528l-54 -430h545l-24 -197h-754l168 1366h753zM737 1655l-202 -160l-101 88l322 256l264 -256l-121 -88z" />
    <glyph glyph-name="uni1EBF" unicode="&#x1ebf;" horiz-adv-x="1001" 
d="M1212 1487l-333 -221l-84 80l297 270zM772 291l158 -94q-60 -101 -160 -162q-98 -62 -242 -62q-167 0 -276 109q-117 117 -117 307q0 225 150 369q130 127 315 127q164 0 260 -101q50 -52 78.5 -130.5t28.5 -170.5q0 -46 -11 -100h-616q0 -108 63 -174q48 -55 142 -55
q78 0 137 39q53 35 90 98zM371 547h401q-11 75 -51 119q-47 47 -125 47q-82 0 -145 -51q-54 -48 -80 -115zM653 1143l-202 -160l-101 88l322 256l264 -256l-121 -88z" />
    <glyph glyph-name="uni1EC0" unicode="&#x1ec0;" 
d="M1008 1778l-263 229l144 121l221 -273zM1085 1366l-24 -197h-545l-41 -346h529l-25 -196h-528l-54 -430h545l-24 -197h-754l168 1366h753zM737 1655l-202 -160l-101 88l322 256l264 -256l-121 -88z" />
    <glyph glyph-name="uni1EC1" unicode="&#x1ec1;" horiz-adv-x="1001" 
d="M924 1266l-262 229l143 121l221 -273zM772 291l158 -94q-60 -101 -160 -162q-98 -62 -242 -62q-167 0 -276 109q-117 117 -117 307q0 225 150 369q130 127 315 127q164 0 260 -101q50 -52 78.5 -130.5t28.5 -170.5q0 -46 -11 -100h-616q0 -108 63 -174q48 -55 142 -55
q78 0 137 39q53 35 90 98zM371 547h401q-11 75 -51 119q-47 47 -125 47q-82 0 -145 -51q-54 -48 -80 -115zM653 1143l-202 -160l-101 88l322 256l264 -256l-121 -88z" />
    <glyph glyph-name="uni1EC2" unicode="&#x1ec2;" 
d="M1051 1778h-113l18 151q53 -8 105 19q32 20 39 57q4 32 -14.5 46.5t-47.5 14.5q-60 0 -71 -55h-121q10 66 51 107q19 24 57.5 43.5t96.5 19.5q194 0 172 -180q-11 -68 -60 -110.5t-104 -47.5zM1085 1366l-24 -197h-545l-41 -346h529l-25 -196h-528l-54 -430h545l-24 -197
h-754l168 1366h753zM737 1655l-202 -160l-101 88l322 256l264 -256l-121 -88z" />
    <glyph glyph-name="uni1EC3" unicode="&#x1ec3;" horiz-adv-x="1001" 
d="M967 1266h-113l18 151q53 -8 105 19q32 20 39 57q4 32 -14.5 46.5t-47.5 14.5q-60 0 -71 -55h-121q10 66 51 107q19 24 57.5 43.5t96.5 19.5q194 0 172 -180q-11 -68 -60 -110.5t-104 -47.5zM772 291l158 -94q-60 -101 -160 -162q-98 -62 -242 -62q-167 0 -276 109
q-117 117 -117 307q0 225 150 369q130 127 315 127q164 0 260 -101q50 -52 78.5 -130.5t28.5 -170.5q0 -46 -11 -100h-616q0 -108 63 -174q48 -55 142 -55q78 0 137 39q53 35 90 98zM371 547h401q-11 75 -51 119q-47 47 -125 47q-82 0 -145 -51q-54 -48 -80 -115zM653 1143
l-202 -160l-101 88l322 256l264 -256l-121 -88z" />
    <glyph glyph-name="uni1EC4" unicode="&#x1ec4;" 
d="M983 2132l94 -90q-82 -141 -219 -141q-39 0 -88 22q-24 12 -39 22t-26 15q-32 12 -60 12q-19 0 -44.5 -18.5t-47.5 -52.5l-90 86q12 19 82 84q54 47 123 47q27 0 80 -17l24 -12t45 -25q46 -20 66 -20q68 0 100 88zM1085 1366l-24 -197h-545l-41 -346h529l-25 -196h-528
l-54 -430h545l-24 -197h-754l168 1366h753zM737 1655l-202 -160l-101 88l322 256l264 -256l-121 -88z" />
    <glyph glyph-name="uni1EC5" unicode="&#x1ec5;" horiz-adv-x="1001" 
d="M899 1620l94 -90q-82 -141 -219 -141q-39 0 -88 22q-24 12 -39 22t-26 15q-32 12 -60 12q-19 0 -44.5 -18.5t-47.5 -52.5l-90 86q12 19 82 84q54 47 123 47q27 0 80 -17l24 -12t45 -25q46 -20 66 -20q68 0 100 88zM772 291l158 -94q-60 -101 -160 -162q-98 -62 -242 -62
q-167 0 -276 109q-117 117 -117 307q0 225 150 369q130 127 315 127q164 0 260 -101q50 -52 78.5 -130.5t28.5 -170.5q0 -46 -11 -100h-616q0 -108 63 -174q48 -55 142 -55q78 0 137 39q53 35 90 98zM371 547h401q-11 75 -51 119q-47 47 -125 47q-82 0 -145 -51
q-54 -48 -80 -115zM653 1143l-202 -160l-101 88l322 256l264 -256l-121 -88z" />
    <glyph glyph-name="uni1EC6" unicode="&#x1ec6;" 
d="M387 -293q0 55 37 92t90 37q46 0 72 -26q28 -25 28 -68q0 -54 -36 -90q-33 -39 -93 -39q-42 0 -69 27q-29 26 -29 67zM1085 1366l-24 -197h-545l-41 -346h529l-25 -196h-528l-54 -430h545l-24 -197h-754l168 1366h753zM737 1655l-202 -160l-101 88l322 256l264 -256
l-121 -88z" />
    <glyph glyph-name="uni1EC7" unicode="&#x1ec7;" horiz-adv-x="1001" 
d="M383 -293q0 55 37 92t90 37q46 0 72 -26q28 -25 28 -68q0 -53 -37 -90q-33 -39 -92 -39q-42 0 -69 27q-29 26 -29 67zM772 291l158 -94q-60 -101 -160 -162q-98 -62 -242 -62q-167 0 -276 109q-117 117 -117 307q0 225 150 369q130 127 315 127q164 0 260 -101
q50 -52 78.5 -130.5t28.5 -170.5q0 -46 -11 -100h-616q0 -108 63 -174q48 -55 142 -55q78 0 137 39q53 35 90 98zM371 547h401q-11 75 -51 119q-47 47 -125 47q-82 0 -145 -51q-54 -48 -80 -115zM653 1143l-202 -160l-101 88l322 256l264 -256l-121 -88z" />
    <glyph glyph-name="uni1EC8" unicode="&#x1ec8;" horiz-adv-x="536" 
d="M508 1495h-113l19 152q53 -8 104 18q32 20 39 57q4 32 -14 47t-47 15q-61 0 -72 -55h-121q10 65 51 106q19 24 57.5 43.5t96.5 19.5q194 0 172 -180q-11 -68 -59.5 -110t-104.5 -47zM332 1366h209l-168 -1366h-209z" />
    <glyph glyph-name="uni1EC9" unicode="&#x1ec9;" horiz-adv-x="456" 
d="M233 862h201l-106 -862h-201zM403 983h-112l18 152q54 -8 105 18q32 20 39 57q4 32 -14.5 47t-47.5 15q-61 0 -72 -55h-120q10 65 51 106q49 63 153 63q194 0 172 -180q-11 -68 -59 -110t-104 -47z" />
    <glyph glyph-name="uni1ECA" unicode="&#x1eca;" horiz-adv-x="536" 
d="M125 -293q0 55 37 92t90 37q46 0 72 -26q28 -25 28 -68q0 -53 -37 -90q-33 -39 -92 -39q-42 0 -69 27q-29 26 -29 67zM332 1366h209l-168 -1366h-209z" />
    <glyph glyph-name="uni1ECB" unicode="&#x1ecb;" horiz-adv-x="456" 
d="M233 862h201l-106 -862h-201zM252 1128q0 58 41 99q38 41 96 41q45 0 78 -29q31 -31 31 -74q0 -54 -39 -96q-37 -43 -101 -43q-46 0 -75 29q-31 31 -31 73zM86 -293q0 55 37 92t90 37q46 0 72 -26q28 -25 28 -68q0 -53 -37 -90q-33 -39 -92 -39q-42 0 -69 27
q-29 26 -29 67z" />
    <glyph glyph-name="uni1ECC" unicode="&#x1ecc;" horiz-adv-x="1630" 
d="M659 -293q0 55 37 92t90 37q46 0 72 -26q29 -26 29 -68q0 -53 -37 -90q-33 -39 -92 -39q-43 0 -70 27q-29 26 -29 67zM979 1391q282 0 461 -179q176 -176 176 -462q0 -191 -62 -333t-153 -233q-65 -65 -138 -109t-148 -65t-139 -29t-138 -8q-151 0 -265.5 39.5
t-207.5 137.5q-85 88 -134 207t-49 257q0 163 59.5 310.5t164.5 251.5q104 104 250.5 159.5t322.5 55.5zM840 166q254 0 401 147q78 78 122 190.5t44 233.5q0 195 -123 322q-132 139 -346 139q-228 0 -379 -151q-170 -163 -170 -418q0 -205 127 -332q121 -131 324 -131z" />
    <glyph glyph-name="uni1ECD" unicode="&#x1ecd;" horiz-adv-x="1093" 
d="M395 -293q0 55 37 92t90 37q46 0 72 -26q29 -26 29 -68q0 -53 -37 -90q-33 -39 -92 -39q-43 0 -70 27q-29 26 -29 67zM641 885q192 0 307 -115q117 -121 117 -299q0 -222 -150 -365q-75 -72 -160 -102.5t-194 -30.5q-94 0 -167 25t-140 92q-119 125 -119 301
q0 214 150 361q139 133 356 133zM588 154q114 0 190 82q82 92 82 223q0 111 -67 180q-66 66 -164 66q-123 0 -195 -72q-94 -88 -94 -225q0 -107 63 -179q75 -75 185 -75z" />
    <glyph glyph-name="uni1ECE" unicode="&#x1ece;" horiz-adv-x="1630" 
d="M1057 1495h-113l19 152q53 -8 104 18q32 20 39 57q4 32 -14.5 47t-47.5 15q-60 0 -71 -55h-121q10 65 51 106q19 24 57.5 43.5t96.5 19.5q194 0 172 -180q-11 -68 -59.5 -110t-104.5 -47zM979 1391q282 0 461 -179q176 -176 176 -462q0 -191 -62 -333t-153 -233
q-65 -65 -138 -109t-148 -65t-139 -29t-138 -8q-151 0 -265.5 39.5t-207.5 137.5q-85 88 -134 207t-49 257q0 163 59.5 310.5t164.5 251.5q104 104 250.5 159.5t322.5 55.5zM840 166q254 0 401 147q78 78 122 190.5t44 233.5q0 195 -123 322q-132 139 -346 139
q-228 0 -379 -151q-170 -163 -170 -418q0 -205 127 -332q121 -131 324 -131z" />
    <glyph glyph-name="uni1ECF" unicode="&#x1ecf;" horiz-adv-x="1093" 
d="M754 983h-113l18 152q54 -8 105 18q32 20 39 57q4 32 -14.5 47t-47.5 15q-60 0 -71 -55h-121q10 65 51 106q19 24 57.5 43.5t96.5 19.5q194 0 172 -180q-11 -68 -59.5 -110t-104.5 -47zM641 885q192 0 307 -115q117 -121 117 -299q0 -222 -150 -365q-75 -72 -160 -102.5
t-194 -30.5q-94 0 -167 25t-140 92q-119 125 -119 301q0 214 150 361q139 133 356 133zM588 154q114 0 190 82q82 92 82 223q0 111 -67 180q-66 66 -164 66q-123 0 -195 -72q-94 -88 -94 -225q0 -107 63 -179q75 -75 185 -75z" />
    <glyph glyph-name="uni1ED0" unicode="&#x1ed0;" horiz-adv-x="1630" 
d="M1581 1999l-334 -221l-84 80l297 270zM979 1391q282 0 461 -179q176 -176 176 -462q0 -191 -62 -333t-153 -233q-65 -65 -138 -109t-148 -65t-139 -29t-138 -8q-151 0 -265.5 39.5t-207.5 137.5q-85 88 -134 207t-49 257q0 163 59.5 310.5t164.5 251.5
q104 104 250.5 159.5t322.5 55.5zM840 166q254 0 401 147q78 78 122 190.5t44 233.5q0 195 -123 322q-132 139 -346 139q-228 0 -379 -151q-170 -163 -170 -418q0 -205 127 -332q121 -131 324 -131zM1022 1655l-203 -160l-100 88l321 256l265 -256l-121 -88z" />
    <glyph glyph-name="uni1ED1" unicode="&#x1ed1;" horiz-adv-x="1093" 
d="M1257 1487l-333 -221l-84 80l297 270zM641 885q192 0 307 -115q117 -121 117 -299q0 -222 -150 -365q-75 -72 -160 -102.5t-194 -30.5q-94 0 -167 25t-140 92q-119 125 -119 301q0 214 150 361q139 133 356 133zM588 154q114 0 190 82q82 92 82 223q0 111 -67 180
q-66 66 -164 66q-123 0 -195 -72q-94 -88 -94 -225q0 -107 63 -179q75 -75 185 -75zM698 1143l-202 -160l-101 88l322 256l264 -256l-121 -88z" />
    <glyph glyph-name="uni1ED2" unicode="&#x1ed2;" horiz-adv-x="1630" 
d="M1292 1778l-262 229l144 121l221 -273zM979 1391q282 0 461 -179q176 -176 176 -462q0 -191 -62 -333t-153 -233q-65 -65 -138 -109t-148 -65t-139 -29t-138 -8q-151 0 -265.5 39.5t-207.5 137.5q-85 88 -134 207t-49 257q0 163 59.5 310.5t164.5 251.5
q104 104 250.5 159.5t322.5 55.5zM840 166q254 0 401 147q78 78 122 190.5t44 233.5q0 195 -123 322q-132 139 -346 139q-228 0 -379 -151q-170 -163 -170 -418q0 -205 127 -332q121 -131 324 -131zM1022 1655l-203 -160l-100 88l321 256l265 -256l-121 -88z" />
    <glyph glyph-name="uni1ED3" unicode="&#x1ed3;" horiz-adv-x="1093" 
d="M969 1266l-262 229l143 121l221 -273zM641 885q192 0 307 -115q117 -121 117 -299q0 -222 -150 -365q-75 -72 -160 -102.5t-194 -30.5q-94 0 -167 25t-140 92q-119 125 -119 301q0 214 150 361q139 133 356 133zM588 154q114 0 190 82q82 92 82 223q0 111 -67 180
q-66 66 -164 66q-123 0 -195 -72q-94 -88 -94 -225q0 -107 63 -179q75 -75 185 -75zM698 1143l-202 -160l-101 88l322 256l264 -256l-121 -88z" />
    <glyph glyph-name="uni1ED4" unicode="&#x1ed4;" horiz-adv-x="1630" 
d="M1335 1778h-112l18 151q53 -8 105 19q31 19 38 57q4 32 -14 46.5t-47 14.5q-61 0 -72 -55h-121q10 65 52 107q49 63 153 63q194 0 172 -180q-11 -68 -60 -110.5t-104 -47.5zM979 1391q282 0 461 -179q176 -176 176 -462q0 -191 -62 -333t-153 -233q-65 -65 -138 -109
t-148 -65t-139 -29t-138 -8q-151 0 -265.5 39.5t-207.5 137.5q-85 88 -134 207t-49 257q0 163 59.5 310.5t164.5 251.5q104 104 250.5 159.5t322.5 55.5zM840 166q254 0 401 147q78 78 122 190.5t44 233.5q0 195 -123 322q-132 139 -346 139q-228 0 -379 -151
q-170 -163 -170 -418q0 -205 127 -332q121 -131 324 -131zM1022 1655l-203 -160l-100 88l321 256l265 -256l-121 -88z" />
    <glyph glyph-name="uni1ED5" unicode="&#x1ed5;" horiz-adv-x="1093" 
d="M1012 1266h-113l19 151q52 -8 104 19q32 20 39 57q4 32 -14.5 46.5t-47.5 14.5q-60 0 -71 -55h-121q10 66 51 107q19 24 57.5 43.5t96.5 19.5q194 0 172 -180q-11 -68 -60 -110.5t-104 -47.5zM641 885q192 0 307 -115q117 -121 117 -299q0 -222 -150 -365
q-75 -72 -160 -102.5t-194 -30.5q-94 0 -167 25t-140 92q-119 125 -119 301q0 214 150 361q139 133 356 133zM588 154q114 0 190 82q82 92 82 223q0 111 -67 180q-66 66 -164 66q-123 0 -195 -72q-94 -88 -94 -225q0 -107 63 -179q75 -75 185 -75zM698 1143l-202 -160
l-101 88l322 256l264 -256l-121 -88z" />
    <glyph glyph-name="uni1ED6" unicode="&#x1ed6;" horiz-adv-x="1630" 
d="M1268 2132l94 -90q-82 -141 -219 -141q-39 0 -88 22q-24 12 -39.5 22t-26.5 15q-32 12 -59 12q-19 0 -44.5 -18.5t-47.5 -52.5l-90 86q14 21 81 84q54 47 123 47q27 0 80 -17q2 -1 24.5 -12t45.5 -25q46 -20 65 -20q69 0 101 88zM979 1391q282 0 461 -179
q176 -176 176 -462q0 -191 -62 -333t-153 -233q-65 -65 -138 -109t-148 -65t-139 -29t-138 -8q-151 0 -265.5 39.5t-207.5 137.5q-85 88 -134 207t-49 257q0 163 59.5 310.5t164.5 251.5q104 104 250.5 159.5t322.5 55.5zM840 166q254 0 401 147q78 78 122 190.5t44 233.5
q0 195 -123 322q-132 139 -346 139q-228 0 -379 -151q-170 -163 -170 -418q0 -205 127 -332q121 -131 324 -131zM1022 1655l-203 -160l-100 88l321 256l265 -256l-121 -88z" />
    <glyph glyph-name="uni1ED7" unicode="&#x1ed7;" horiz-adv-x="1093" 
d="M944 1620l94 -90q-82 -141 -219 -141q-39 0 -88 22q-24 12 -39 22t-26 15q-32 12 -60 12q-19 0 -44.5 -18.5t-47.5 -52.5l-90 86q12 19 82 84q54 47 123 47q27 0 80 -17l24 -12t45 -25q46 -20 66 -20q68 0 100 88zM641 885q192 0 307 -115q117 -121 117 -299
q0 -222 -150 -365q-75 -72 -160 -102.5t-194 -30.5q-94 0 -167 25t-140 92q-119 125 -119 301q0 214 150 361q139 133 356 133zM588 154q114 0 190 82q82 92 82 223q0 111 -67 180q-66 66 -164 66q-123 0 -195 -72q-94 -88 -94 -225q0 -107 63 -179q75 -75 185 -75z
M698 1143l-202 -160l-101 88l322 256l264 -256l-121 -88z" />
    <glyph glyph-name="uni1ED8" unicode="&#x1ed8;" horiz-adv-x="1630" 
d="M659 -293q0 55 37 92t90 37q46 0 72 -26q29 -26 29 -68q0 -53 -37 -90q-33 -39 -92 -39q-43 0 -70 27q-29 26 -29 67zM979 1391q282 0 461 -179q176 -176 176 -462q0 -191 -62 -333t-153 -233q-65 -65 -138 -109t-148 -65t-139 -29t-138 -8q-151 0 -265.5 39.5
t-207.5 137.5q-85 88 -134 207t-49 257q0 163 59.5 310.5t164.5 251.5q104 104 250.5 159.5t322.5 55.5zM840 166q254 0 401 147q78 78 122 190.5t44 233.5q0 195 -123 322q-132 139 -346 139q-228 0 -379 -151q-170 -163 -170 -418q0 -205 127 -332q121 -131 324 -131z
M1022 1655l-203 -160l-100 88l321 256l265 -256l-121 -88z" />
    <glyph glyph-name="uni1ED9" unicode="&#x1ed9;" horiz-adv-x="1093" 
d="M395 -293q0 55 37 92t90 37q46 0 72 -26q29 -26 29 -68q0 -53 -37 -90q-33 -39 -92 -39q-43 0 -70 27q-29 26 -29 67zM641 885q192 0 307 -115q117 -121 117 -299q0 -222 -150 -365q-75 -72 -160 -102.5t-194 -30.5q-94 0 -167 25t-140 92q-119 125 -119 301
q0 214 150 361q139 133 356 133zM588 154q114 0 190 82q82 92 82 223q0 111 -67 180q-66 66 -164 66q-123 0 -195 -72q-94 -88 -94 -225q0 -107 63 -179q75 -75 185 -75zM698 1143l-202 -160l-101 88l322 256l264 -256l-121 -88z" />
    <glyph glyph-name="uni1EDA" unicode="&#x1eda;" horiz-adv-x="1630" 
d="M1296 1716l-333 -221l-84 80l297 270zM979 1391q97 0 174 -21q191 -18 260 -2q36 5 43 14q23 16 27 82h1v2v2t0.5 3.5t0.5 5t0.5 7t1 9.5t1 12t1.5 15h156l-5 -54q-11 -117 -58.5 -173t-162.5 -62q6 -4 21 -19q176 -176 176 -462q0 -191 -62 -333t-153 -233
q-65 -65 -138 -109t-148 -65t-139 -29t-138 -8q-151 0 -265.5 39.5t-207.5 137.5q-85 88 -134 207t-49 257q0 163 59.5 310.5t164.5 251.5q104 104 250.5 159.5t322.5 55.5zM840 166q254 0 401 147q78 78 122 190.5t44 233.5q0 195 -123 322q-132 139 -346 139
q-228 0 -379 -151q-170 -163 -170 -418q0 -205 127 -332q121 -131 324 -131z" />
    <glyph glyph-name="uni1EDB" unicode="&#x1edb;" horiz-adv-x="1093" 
d="M979 1204l-334 -221l-84 80l297 270zM641 885q88 0 158 -23q51 -9 112 -4q36 5 43 14q23 16 27 82h1v2v2t0.5 3.5t0.5 5t0.5 7t1 9.5t1 12t1.5 15h156l-4 -54q-11 -101 -44.5 -154.5t-113.5 -72.5q84 -105 84 -258q0 -222 -150 -365q-75 -72 -160 -102.5t-194 -30.5
q-94 0 -167 25t-140 92q-119 125 -119 301q0 214 150 361q139 133 356 133zM588 154q114 0 190 82q82 92 82 223q0 111 -67 180q-66 66 -164 66q-123 0 -195 -72q-94 -88 -94 -225q0 -107 63 -179q75 -75 185 -75z" />
    <glyph glyph-name="uni1EDC" unicode="&#x1edc;" horiz-adv-x="1630" 
d="M1065 1495l-262 229l143 121l221 -272zM979 1391q97 0 174 -21q191 -18 260 -2q36 5 43 14q23 16 27 82h1v2v2t0.5 3.5t0.5 5t0.5 7t1 9.5t1 12t1.5 15h156l-5 -54q-11 -117 -58.5 -173t-162.5 -62q6 -4 21 -19q176 -176 176 -462q0 -191 -62 -333t-153 -233
q-65 -65 -138 -109t-148 -65t-139 -29t-138 -8q-151 0 -265.5 39.5t-207.5 137.5q-85 88 -134 207t-49 257q0 163 59.5 310.5t164.5 251.5q104 104 250.5 159.5t322.5 55.5zM840 166q254 0 401 147q78 78 122 190.5t44 233.5q0 195 -123 322q-132 139 -346 139
q-228 0 -379 -151q-170 -163 -170 -418q0 -205 127 -332q121 -131 324 -131z" />
    <glyph glyph-name="uni1EDD" unicode="&#x1edd;" horiz-adv-x="1093" 
d="M725 983l-262 229l143 121l221 -272zM641 885q88 0 158 -23q51 -9 112 -4q36 5 43 14q23 16 27 82h1v2v2t0.5 3.5t0.5 5t0.5 7t1 9.5t1 12t1.5 15h156l-4 -54q-11 -101 -44.5 -154.5t-113.5 -72.5q84 -105 84 -258q0 -222 -150 -365q-75 -72 -160 -102.5t-194 -30.5
q-94 0 -167 25t-140 92q-119 125 -119 301q0 214 150 361q139 133 356 133zM588 154q114 0 190 82q82 92 82 223q0 111 -67 180q-66 66 -164 66q-123 0 -195 -72q-94 -88 -94 -225q0 -107 63 -179q75 -75 185 -75z" />
    <glyph glyph-name="uni1EDE" unicode="&#x1ede;" horiz-adv-x="1630" 
d="M1057 1495h-113l19 152q53 -8 104 18q32 20 39 57q4 32 -14.5 47t-47.5 15q-60 0 -71 -55h-121q10 65 51 106q19 24 57.5 43.5t96.5 19.5q194 0 172 -180q-11 -68 -59.5 -110t-104.5 -47zM979 1391q97 0 174 -21q191 -18 260 -2q36 5 43 14q23 16 27 82h1v2v2t0.5 3.5
t0.5 5t0.5 7t1 9.5t1 12t1.5 15h156l-5 -54q-11 -117 -58.5 -173t-162.5 -62q6 -4 21 -19q176 -176 176 -462q0 -191 -62 -333t-153 -233q-65 -65 -138 -109t-148 -65t-139 -29t-138 -8q-151 0 -265.5 39.5t-207.5 137.5q-85 88 -134 207t-49 257q0 163 59.5 310.5
t164.5 251.5q104 104 250.5 159.5t322.5 55.5zM840 166q254 0 401 147q78 78 122 190.5t44 233.5q0 195 -123 322q-132 139 -346 139q-228 0 -379 -151q-170 -163 -170 -418q0 -205 127 -332q121 -131 324 -131z" />
    <glyph glyph-name="uni1EDF" unicode="&#x1edf;" horiz-adv-x="1093" 
d="M754 983h-113l18 152q54 -8 105 18q32 20 39 57q4 32 -14.5 47t-47.5 15q-60 0 -71 -55h-121q10 65 51 106q19 24 57.5 43.5t96.5 19.5q194 0 172 -180q-11 -68 -59.5 -110t-104.5 -47zM641 885q88 0 158 -23q51 -9 112 -4q36 5 43 14q23 16 27 82h1v2v2t0.5 3.5t0.5 5
t0.5 7t1 9.5t1 12t1.5 15h156l-4 -54q-11 -101 -44.5 -154.5t-113.5 -72.5q84 -105 84 -258q0 -222 -150 -365q-75 -72 -160 -102.5t-194 -30.5q-94 0 -167 25t-140 92q-119 125 -119 301q0 214 150 361q139 133 356 133zM588 154q114 0 190 82q82 92 82 223q0 111 -67 180
q-66 66 -164 66q-123 0 -195 -72q-94 -88 -94 -225q0 -107 63 -179q75 -75 185 -75z" />
    <glyph glyph-name="uni1EE0" unicode="&#x1ee0;" horiz-adv-x="1630" 
d="M1247 1757l94 -90q-82 -141 -219 -141q-39 0 -88 22q-24 12 -39 22t-26 15q-32 12 -60 12q-19 0 -44.5 -18.5t-47.5 -52.5l-90 86q12 19 82 84q54 47 123 47q27 0 80 -17q2 -1 24 -11.5t45 -24.5q48 -21 66 -21q68 0 100 88zM979 1391q97 0 174 -21q191 -18 260 -2
q36 5 43 14q23 16 27 82h1v2v2t0.5 3.5t0.5 5t0.5 7t1 9.5t1 12t1.5 15h156l-5 -54q-11 -117 -58.5 -173t-162.5 -62q6 -4 21 -19q176 -176 176 -462q0 -191 -62 -333t-153 -233q-65 -65 -138 -109t-148 -65t-139 -29t-138 -8q-151 0 -265.5 39.5t-207.5 137.5
q-85 88 -134 207t-49 257q0 163 59.5 310.5t164.5 251.5q104 104 250.5 159.5t322.5 55.5zM840 166q254 0 401 147q78 78 122 190.5t44 233.5q0 195 -123 322q-132 139 -346 139q-228 0 -379 -151q-170 -163 -170 -418q0 -205 127 -332q121 -131 324 -131z" />
    <glyph glyph-name="uni1EE1" unicode="&#x1ee1;" horiz-adv-x="1093" 
d="M913 1235l95 -90q-82 -141 -220 -141q-39 0 -88 22q-24 12 -39 22t-26 15q-32 12 -60 12q-19 0 -44.5 -18.5t-47.5 -52.5l-90 86q12 19 82 84q54 47 123 47q27 0 80 -17q2 -1 24.5 -12t45.5 -25q46 -20 65 -20q68 0 100 88zM641 885q88 0 158 -23q51 -9 112 -4
q36 5 43 14q23 16 27 82h1v2v2t0.5 3.5t0.5 5t0.5 7t1 9.5t1 12t1.5 15h156l-4 -54q-11 -101 -44.5 -154.5t-113.5 -72.5q84 -105 84 -258q0 -222 -150 -365q-75 -72 -160 -102.5t-194 -30.5q-94 0 -167 25t-140 92q-119 125 -119 301q0 214 150 361q139 133 356 133z
M588 154q114 0 190 82q82 92 82 223q0 111 -67 180q-66 66 -164 66q-123 0 -195 -72q-94 -88 -94 -225q0 -107 63 -179q75 -75 185 -75z" />
    <glyph glyph-name="uni1EE2" unicode="&#x1ee2;" horiz-adv-x="1630" 
d="M659 -293q0 55 37 92t90 37q46 0 72 -26q29 -26 29 -68q0 -53 -37 -90q-33 -39 -92 -39q-43 0 -70 27q-29 26 -29 67zM979 1391q97 0 174 -21q191 -18 260 -2q36 5 43 14q23 16 27 82h1v2v2t0.5 3.5t0.5 5t0.5 7t1 9.5t1 12t1.5 15h156l-5 -54q-11 -117 -58.5 -173
t-162.5 -62q6 -4 21 -19q176 -176 176 -462q0 -191 -62 -333t-153 -233q-65 -65 -138 -109t-148 -65t-139 -29t-138 -8q-151 0 -265.5 39.5t-207.5 137.5q-85 88 -134 207t-49 257q0 163 59.5 310.5t164.5 251.5q104 104 250.5 159.5t322.5 55.5zM840 166q254 0 401 147
q78 78 122 190.5t44 233.5q0 195 -123 322q-132 139 -346 139q-228 0 -379 -151q-170 -163 -170 -418q0 -205 127 -332q121 -131 324 -131z" />
    <glyph glyph-name="uni1EE3" unicode="&#x1ee3;" horiz-adv-x="1093" 
d="M395 -293q0 55 37 92t90 37q46 0 72 -26q29 -26 29 -68q0 -53 -37 -90q-33 -39 -92 -39q-43 0 -70 27q-29 26 -29 67zM641 885q88 0 158 -23q51 -9 112 -4q36 5 43 14q23 16 27 82h1v2v2t0.5 3.5t0.5 5t0.5 7t1 9.5t1 12t1.5 15h156l-4 -54q-11 -101 -44.5 -154.5
t-113.5 -72.5q84 -105 84 -258q0 -222 -150 -365q-75 -72 -160 -102.5t-194 -30.5q-94 0 -167 25t-140 92q-119 125 -119 301q0 214 150 361q139 133 356 133zM588 154q114 0 190 82q82 92 82 223q0 111 -67 180q-66 66 -164 66q-123 0 -195 -72q-94 -88 -94 -225
q0 -107 63 -179q75 -75 185 -75z" />
    <glyph glyph-name="uni1EE4" unicode="&#x1ee4;" horiz-adv-x="1343" 
d="M512 -293q0 55 37 92t90 37q46 0 72 -26q28 -25 28 -68q0 -53 -37 -90q-33 -39 -92 -39q-42 0 -69 27q-29 26 -29 67zM336 1366h209l-94 -768q-15 -103 -15 -156q0 -130 72 -202q74 -74 192 -74q132 0 228 88q58 58 79.5 124.5t30.5 164.5l101 823h209l-109 -879
q-35 -263 -192 -397q-143 -117 -363 -117q-245 0 -371 160q-90 115 -90 281q0 21 23 227z" />
    <glyph glyph-name="uni1EE5" unicode="&#x1ee5;" horiz-adv-x="993" 
d="M344 -293q0 55 37 92t90 37q46 0 72 -26q28 -25 28 -68q0 -54 -36 -90q-33 -39 -93 -39q-42 0 -69 27q-29 26 -29 67zM236 862h200l-55 -448q-10 -78 -10 -101q0 -77 41 -118t112 -41q73 0 125 45q22 20 35.5 53.5t17 52.5t9.5 64l61 493h201l-62 -500
q-8 -63 -15.5 -100.5t-33.5 -96t-67 -99.5q-93 -93 -273 -93q-179 0 -274 95q-80 83 -80 208q0 25 10 117z" />
    <glyph glyph-name="uni1EE6" unicode="&#x1ee6;" horiz-adv-x="1343" 
d="M918 1495h-113l18 152q54 -8 105 18q32 20 39 57q4 32 -14.5 47t-47.5 15q-60 0 -71 -55h-121q10 65 51 106q19 24 57.5 43.5t96.5 19.5q194 0 172 -180q-11 -68 -59.5 -110t-104.5 -47zM336 1366h209l-94 -768q-15 -103 -15 -156q0 -130 72 -202q74 -74 192 -74
q132 0 228 88q58 58 79.5 124.5t30.5 164.5l101 823h209l-109 -879q-35 -263 -192 -397q-143 -117 -363 -117q-245 0 -371 160q-90 115 -90 281q0 21 23 227z" />
    <glyph glyph-name="uni1EE7" unicode="&#x1ee7;" horiz-adv-x="993" 
d="M682 983h-113l19 152q53 -8 104 18q32 20 39 57q4 32 -14 47t-47 15q-61 0 -72 -55h-121q10 65 51 106q19 24 57.5 43.5t96.5 19.5q194 0 172 -180q-11 -68 -59.5 -110t-104.5 -47zM236 862h200l-55 -448q-10 -78 -10 -101q0 -77 41 -118t112 -41q73 0 125 45
q22 20 35.5 53.5t17 52.5t9.5 64l61 493h201l-62 -500q-8 -63 -15.5 -100.5t-33.5 -96t-67 -99.5q-93 -93 -273 -93q-179 0 -274 95q-80 83 -80 208q0 25 10 117z" />
    <glyph glyph-name="uni1EE8" unicode="&#x1ee8;" horiz-adv-x="1343" 
d="M1165 1716l-334 -221l-83 80l296 270zM336 1366h209l-94 -768q-15 -103 -15 -156q0 -130 72 -202q74 -74 192 -74q132 0 228 88q58 58 79.5 124.5t30.5 164.5l101 823h159l2 1q3 1 7 1q36 5 43 14q11 7 16.5 22.5t7 25.5t2.5 34q1 1 1 2v2t0.5 3.5t0.5 5t0.5 7t1 9.5
t1 12t1.5 15h156l-4 -54q-11 -112 -54.5 -167.5t-148.5 -65.5l-92 -746q-35 -263 -192 -397q-143 -117 -363 -117q-245 0 -371 160q-90 115 -90 281q0 21 23 227z" />
    <glyph glyph-name="uni1EE9" unicode="&#x1ee9;" horiz-adv-x="993" 
d="M926 1204l-334 -221l-84 80l297 270zM236 862h200l-55 -448q-10 -78 -10 -101q0 -77 41 -118t112 -41q73 0 125 45q22 20 35.5 53.5t17 52.5t9.5 64l61 493h176q14 3 21 10q11 7 16.5 22.5t7 25.5t2.5 34h1v2v2t0.5 3.5t0.5 5t0.5 7t1 9.5t1 12t1.5 15h156l-4 -54
q-11 -110 -54.5 -166.5t-144.5 -66.5l-43 -361q-8 -63 -15.5 -100.5t-33.5 -96t-67 -99.5q-93 -93 -273 -93q-179 0 -274 95q-80 83 -80 208q0 25 10 117z" />
    <glyph glyph-name="uni1EEA" unicode="&#x1eea;" horiz-adv-x="1343" 
d="M868 1495l-262 229l144 121l221 -272zM336 1366h209l-94 -768q-15 -103 -15 -156q0 -130 72 -202q74 -74 192 -74q132 0 228 88q58 58 79.5 124.5t30.5 164.5l101 823h159l2 1q3 1 7 1q36 5 43 14q11 7 16.5 22.5t7 25.5t2.5 34q1 1 1 2v2t0.5 3.5t0.5 5t0.5 7t1 9.5
t1 12t1.5 15h156l-4 -54q-11 -112 -54.5 -167.5t-148.5 -65.5l-92 -746q-35 -263 -192 -397q-143 -117 -363 -117q-245 0 -371 160q-90 115 -90 281q0 21 23 227z" />
    <glyph glyph-name="uni1EEB" unicode="&#x1eeb;" horiz-adv-x="993" 
d="M655 983l-262 229l144 121l221 -272zM236 862h200l-55 -448q-10 -78 -10 -101q0 -77 41 -118t112 -41q73 0 125 45q22 20 35.5 53.5t17 52.5t9.5 64l61 493h176q14 3 21 10q11 7 16.5 22.5t7 25.5t2.5 34h1v2v2t0.5 3.5t0.5 5t0.5 7t1 9.5t1 12t1.5 15h156l-4 -54
q-11 -110 -54.5 -166.5t-144.5 -66.5l-43 -361q-8 -63 -15.5 -100.5t-33.5 -96t-67 -99.5q-93 -93 -273 -93q-179 0 -274 95q-80 83 -80 208q0 25 10 117z" />
    <glyph glyph-name="uni1EEC" unicode="&#x1eec;" horiz-adv-x="1343" 
d="M918 1495h-113l18 152q54 -8 105 18q32 20 39 57q4 32 -14.5 47t-47.5 15q-60 0 -71 -55h-121q10 65 51 106q19 24 57.5 43.5t96.5 19.5q194 0 172 -180q-11 -68 -59.5 -110t-104.5 -47zM336 1366h209l-94 -768q-15 -103 -15 -156q0 -130 72 -202q74 -74 192 -74
q132 0 228 88q58 58 79.5 124.5t30.5 164.5l101 823h159l2 1q3 1 7 1q36 5 43 14q11 7 16.5 22.5t7 25.5t2.5 34q1 1 1 2v2t0.5 3.5t0.5 5t0.5 7t1 9.5t1 12t1.5 15h156l-4 -54q-11 -112 -54.5 -167.5t-148.5 -65.5l-92 -746q-35 -263 -192 -397q-143 -117 -363 -117
q-245 0 -371 160q-90 115 -90 281q0 21 23 227z" />
    <glyph glyph-name="uni1EED" unicode="&#x1eed;" horiz-adv-x="993" 
d="M682 983h-113l19 152q53 -8 104 18q32 20 39 57q4 32 -14 47t-47 15q-61 0 -72 -55h-121q10 65 51 106q19 24 57.5 43.5t96.5 19.5q194 0 172 -180q-11 -68 -59.5 -110t-104.5 -47zM236 862h200l-55 -448q-10 -78 -10 -101q0 -77 41 -118t112 -41q73 0 125 45
q22 20 35.5 53.5t17 52.5t9.5 64l61 493h176q14 3 21 10q11 7 16.5 22.5t7 25.5t2.5 34h1v2v2t0.5 3.5t0.5 5t0.5 7t1 9.5t1 12t1.5 15h156l-4 -54q-11 -110 -54.5 -166.5t-144.5 -66.5l-43 -361q-8 -63 -15.5 -100.5t-33.5 -96t-67 -99.5q-93 -93 -273 -93q-179 0 -274 95
q-80 83 -80 208q0 25 10 117z" />
    <glyph glyph-name="uni1EEE" unicode="&#x1eee;" horiz-adv-x="1343" 
d="M1079 1757l95 -90q-82 -141 -220 -141q-39 0 -88 22q-24 12 -39 22t-26 15q-32 12 -60 12q-19 0 -44.5 -18.5t-47.5 -52.5l-90 86q12 19 82 84q54 47 123 47q27 0 80 -17q2 -1 24 -11.5t45 -24.5q48 -21 66 -21q68 0 100 88zM336 1366h209l-94 -768q-15 -103 -15 -156
q0 -130 72 -202q74 -74 192 -74q132 0 228 88q58 58 79.5 124.5t30.5 164.5l101 823h159l2 1q3 1 7 1q36 5 43 14q11 7 16.5 22.5t7 25.5t2.5 34q1 1 1 2v2t0.5 3.5t0.5 5t0.5 7t1 9.5t1 12t1.5 15h156l-4 -54q-11 -112 -54.5 -167.5t-148.5 -65.5l-92 -746
q-35 -263 -192 -397q-143 -117 -363 -117q-245 0 -371 160q-90 115 -90 281q0 21 23 227z" />
    <glyph glyph-name="uni1EEF" unicode="&#x1eef;" horiz-adv-x="993" 
d="M834 1235l94 -90q-82 -141 -219 -141q-39 0 -88 22q-24 12 -39.5 22t-26.5 15q-32 12 -59 12q-19 0 -45 -18.5t-48 -52.5l-90 86q12 19 82 84q54 47 123 47q27 0 80 -17q2 -1 24.5 -12t45.5 -25q46 -20 65 -20q69 0 101 88zM236 862h200l-55 -448q-10 -78 -10 -101
q0 -77 41 -118t112 -41q73 0 125 45q22 20 35.5 53.5t17 52.5t9.5 64l61 493h176q14 3 21 10q11 7 16.5 22.5t7 25.5t2.5 34h1v2v2t0.5 3.5t0.5 5t0.5 7t1 9.5t1 12t1.5 15h156l-4 -54q-11 -110 -54.5 -166.5t-144.5 -66.5l-43 -361q-8 -63 -15.5 -100.5t-33.5 -96
t-67 -99.5q-93 -93 -273 -93q-179 0 -274 95q-80 83 -80 208q0 25 10 117z" />
    <glyph glyph-name="uni1EF0" unicode="&#x1ef0;" horiz-adv-x="1343" 
d="M512 -293q0 55 37 92t90 37q46 0 72 -26q28 -25 28 -68q0 -53 -37 -90q-33 -39 -92 -39q-42 0 -69 27q-29 26 -29 67zM336 1366h209l-94 -768q-15 -103 -15 -156q0 -130 72 -202q74 -74 192 -74q132 0 228 88q58 58 79.5 124.5t30.5 164.5l101 823h159l2 1q3 1 7 1
q36 5 43 14q11 7 16.5 22.5t7 25.5t2.5 34q1 1 1 2v2t0.5 3.5t0.5 5t0.5 7t1 9.5t1 12t1.5 15h156l-4 -54q-11 -112 -54.5 -167.5t-148.5 -65.5l-92 -746q-35 -263 -192 -397q-143 -117 -363 -117q-245 0 -371 160q-90 115 -90 281q0 21 23 227z" />
    <glyph glyph-name="uni1EF1" unicode="&#x1ef1;" horiz-adv-x="993" 
d="M344 -293q0 55 37 92t90 37q46 0 72 -26q28 -25 28 -68q0 -54 -36 -90q-33 -39 -93 -39q-42 0 -69 27q-29 26 -29 67zM236 862h200l-55 -448q-10 -78 -10 -101q0 -77 41 -118t112 -41q73 0 125 45q22 20 35.5 53.5t17 52.5t9.5 64l61 493h176q14 3 21 10q11 7 16.5 22.5
t7 25.5t2.5 34h1v2v2t0.5 3.5t0.5 5t0.5 7t1 9.5t1 12t1.5 15h156l-4 -54q-11 -110 -54.5 -166.5t-144.5 -66.5l-43 -361q-8 -63 -15.5 -100.5t-33.5 -96t-67 -99.5q-93 -93 -273 -93q-179 0 -274 95q-80 83 -80 208q0 25 10 117z" />
    <glyph glyph-name="Ygrave" unicode="&#x1ef2;" horiz-adv-x="1105" 
d="M748 1495l-263 229l144 121l221 -272zM449 0l71 590l-352 776h233l248 -547l383 547h242l-545 -776l-72 -590h-208z" />
    <glyph glyph-name="ygrave" unicode="&#x1ef3;" horiz-adv-x="987" 
d="M625 983l-263 229l144 121l221 -272zM6 -469l410 629l-297 702h237l195 -485l301 485h229l-850 -1331h-225z" />
    <glyph glyph-name="uni1EF4" unicode="&#x1ef4;" horiz-adv-x="1105" 
d="M406 -293q0 56 36 92q37 37 90 37q46 0 72 -26q29 -26 29 -68q0 -53 -37 -90q-33 -39 -92 -39q-43 0 -70 27q-28 25 -28 67zM449 0l71 590l-352 776h233l248 -547l383 547h242l-545 -776l-72 -590h-208z" />
    <glyph glyph-name="uni1EF5" unicode="&#x1ef5;" horiz-adv-x="987" 
d="M567 -293q0 55 37 92t90 37q46 0 72 -26q29 -26 29 -68q0 -53 -37 -90q-33 -39 -92 -39q-43 0 -70 27q-29 26 -29 67zM6 -469l410 629l-297 702h237l195 -485l301 485h229l-850 -1331h-225z" />
    <glyph glyph-name="uni1EF6" unicode="&#x1ef6;" horiz-adv-x="1105" 
d="M780 1495h-112l18 152q54 -8 105 18q31 19 38 57q4 32 -14 47t-47 15q-61 0 -72 -55h-121q10 64 52 106q49 63 153 63q194 0 172 -180q-11 -68 -59.5 -110t-104.5 -47zM449 0l71 590l-352 776h233l248 -547l383 547h242l-545 -776l-72 -590h-208z" />
    <glyph glyph-name="uni1EF7" unicode="&#x1ef7;" horiz-adv-x="987" 
d="M670 983h-113l18 152q54 -8 105 18q32 20 39 57q4 32 -14.5 47t-47.5 15q-60 0 -71 -55h-121q10 65 51 106q19 24 57.5 43.5t96.5 19.5q194 0 172 -180q-11 -68 -59.5 -110t-104.5 -47zM6 -469l410 629l-297 702h237l195 -485l301 485h229l-850 -1331h-225z" />
    <glyph glyph-name="uni1EF8" unicode="&#x1ef8;" horiz-adv-x="1105" 
d="M926 1757l94 -90q-82 -141 -219 -141q-39 0 -88 22q-24 12 -39.5 22t-26.5 15q-32 12 -59 12q-19 0 -44.5 -18.5t-47.5 -52.5l-90 86q14 21 81 84q54 47 123 47q27 0 80 -17q2 -1 24.5 -11.5t45.5 -24.5q48 -21 65 -21q69 0 101 88zM449 0l71 590l-352 776h233l248 -547
l383 547h242l-545 -776l-72 -590h-208z" />
    <glyph glyph-name="uni1EF9" unicode="&#x1ef9;" horiz-adv-x="987" 
d="M819 1235l94 -90q-82 -141 -219 -141q-39 0 -88 22q-24 12 -39 22t-26 15q-32 12 -60 12q-19 0 -44.5 -18.5t-47.5 -52.5l-90 86q12 19 82 84q54 47 123 47q27 0 80 -17l24 -12t45 -25q46 -20 66 -20q68 0 100 88zM6 -469l410 629l-297 702h237l195 -485l301 485h229
l-850 -1331h-225z" />
    <glyph glyph-name="uni2010" unicode="&#x2010;" horiz-adv-x="696" 
d="M143 332l25 209h491l-24 -209h-492z" />
    <glyph glyph-name="uni2011" unicode="&#x2011;" horiz-adv-x="696" 
d="M143 332l25 209h491l-24 -209h-492z" />
    <glyph glyph-name="figuredash" unicode="&#x2012;" horiz-adv-x="1269" 
d="M186 602l23 184h983l-23 -184h-983z" />
    <glyph glyph-name="endash" unicode="&#x2013;" horiz-adv-x="1269" 
d="M186 344l23 184h983l-23 -184h-983z" />
    <glyph glyph-name="emdash" unicode="&#x2014;" horiz-adv-x="1720" 
d="M186 344l23 184h1433l-22 -184h-1434z" />
    <glyph glyph-name="afii00208" unicode="&#x2015;" horiz-adv-x="1720" 
d="M186 344l23 184h1433l-22 -184h-1434z" />
    <glyph glyph-name="quoteleft" unicode="&#x2018;" horiz-adv-x="593" 
d="M659 1370l-272 -520l-172 70l315 505z" />
    <glyph glyph-name="quoteright" unicode="&#x2019;" horiz-adv-x="696" 
d="M213 915l272 521l172 -70l-315 -506z" />
    <glyph glyph-name="quotesinglbase" unicode="&#x201a;" horiz-adv-x="696" 
d="M70 -264l272 520l172 -70l-315 -505z" />
    <glyph glyph-name="quotedblleft" unicode="&#x201c;" horiz-adv-x="946" 
d="M1012 1370l-273 -520l-168 70l314 505zM655 1370l-272 -520l-168 70l313 505z" />
    <glyph glyph-name="quotedblright" unicode="&#x201d;" horiz-adv-x="1048" 
d="M213 915l272 521l168 -70l-313 -506zM569 915l273 521l168 -70l-314 -506z" />
    <glyph glyph-name="quotedblbase" unicode="&#x201e;" horiz-adv-x="1048" 
d="M70 -264l272 520l168 -70l-313 -505zM426 -264l272 520l168 -70l-313 -505z" />
    <glyph glyph-name="dagger" unicode="&#x2020;" horiz-adv-x="1161" 
d="M625 1057l55 436h201l-56 -436h283l-23 -193h-282l-152 -1226h-200l151 1226h-283l23 193h283z" />
    <glyph glyph-name="daggerdbl" unicode="&#x2021;" horiz-adv-x="1159" 
d="M623 1057l55 436h201l-56 -436h283l-23 -193h-282l-64 -514h283l-25 -192h-282l-64 -520h-200l63 520h-283l25 192h283l63 514h-283l23 193h283z" />
    <glyph glyph-name="bullet" unicode="&#x2022;" horiz-adv-x="2048" 
d="M821 659q0 116 86 215q101 109 238 109q104 0 180 -72q74 -74 74 -180q0 -123 -94 -223q-98 -98 -232 -98q-113 0 -182 73q-70 73 -70 176z" />
    <glyph glyph-name="ellipsis" unicode="&#x2026;" horiz-adv-x="1640" 
d="M176 86q0 54 37 94q41 41 100 41q49 0 80 -31q33 -29 33 -81q0 -56 -41 -97q-37 -37 -94 -37q-53 0 -82 29q-33 29 -33 82zM709 86q0 55 36 94q41 41 101 41q49 0 80 -31q32 -28 32 -81q0 -57 -40 -97q-37 -37 -95 -37q-53 0 -82 29q-32 28 -32 82zM1241 86q0 54 37 94
q41 41 100 41q49 0 80 -31q33 -29 33 -81q0 -56 -41 -97q-37 -37 -94 -37q-53 0 -82 29q-33 29 -33 82z" />
    <glyph glyph-name="perthousand" unicode="&#x2030;" horiz-adv-x="2463" 
d="M397 37l946 1352l91 -56l-947 -1356zM1321 629q139 0 229 -90q82 -82 82 -209q0 -150 -102 -252q-92 -92 -244 -92q-70 0 -126.5 18t-106.5 68q-86 86 -86 213q0 136 102 241q100 103 252 103zM1290 133q80 0 127 51q26 26 41 65t15 77q0 69 -50 116q-42 39 -108 39
q-81 0 -131 -53q-54 -54 -54 -137q0 -69 46 -115q43 -43 114 -43zM549 1378q141 0 231 -90q82 -82 82 -209q0 -146 -102 -248q-96 -96 -250 -96q-141 0 -227 86t-86 213q0 67 27.5 131.5t72.5 110.5q95 102 252 102zM520 883q80 0 127 51q26 26 40.5 64.5t14.5 76.5
q0 71 -49 117q-42 39 -108 39q-81 0 -131 -53q-54 -54 -54 -138q0 -68 46 -114q43 -43 114 -43zM2122 629q139 0 229 -90q82 -82 82 -209q0 -150 -102 -252q-92 -92 -244 -92q-148 0 -234 86t-86 213q0 63 27 126.5t76 114.5q100 103 252 103zM2091 133q80 0 127 51
q26 26 40.5 65t14.5 77q0 70 -49 116q-42 39 -108 39q-81 0 -131 -53q-54 -54 -54 -137q0 -70 45 -115q43 -43 115 -43z" />
    <glyph glyph-name="guilsinglleft" unicode="&#x2039;" horiz-adv-x="667" 
d="M342 440l217 -338l-145 -88l-277 435l395 442l121 -105z" />
    <glyph glyph-name="guilsinglright" unicode="&#x203a;" horiz-adv-x="667" 
d="M426 455l-223 338l145 90l285 -434l-379 -435l-121 103z" />
    <glyph glyph-name="fraction" unicode="&#x2044;" horiz-adv-x="450" 
d="M-201 35l949 1354l92 -58l-949 -1354z" />
    <glyph glyph-name="uni2080" unicode="&#x2080;" horiz-adv-x="757" 
d="M393 -14q-130 0 -205 90q-75 93 -75 248q0 108 34 222t113 193q95 95 221 95q102 0 174 -68q93 -93 93 -279q0 -122 -36 -232.5t-108 -182.5q-86 -86 -211 -86zM465 698q-58 0 -105 -47q-35 -35 -58.5 -85.5t-31.5 -102.5t-10 -77.5t-2 -49.5q0 -119 53 -178
q37 -37 82 -37q60 0 107 47t73.5 137t26.5 178q0 132 -53 185q-30 30 -82 30z" />
    <glyph glyph-name="uni2081" unicode="&#x2081;" horiz-adv-x="757" 
d="M332 0l84 684h-160l102 135h226l-101 -819h-151z" />
    <glyph glyph-name="uni2082" unicode="&#x2082;" horiz-adv-x="757" 
d="M657 135l-16 -135h-592l338 332q63 58 119 125q57 71 57 129q0 52 -35 82q-34 30 -92 30q-67 0 -106 -39q-38 -38 -49 -110h-144q18 116 92 196q81 89 217 89q135 0 205 -74q62 -62 62 -160q0 -93 -66 -180q-52 -65 -141 -152l-137 -133h288z" />
    <glyph glyph-name="uni2083" unicode="&#x2083;" horiz-adv-x="757" 
d="M92 244h144q4 -58 36 -90q33 -33 103 -33q69 0 104 35q41 41 41 104q0 58 -43 86q-27 21 -104 21h-29l16 135h50q76 0 108 26q35 31 35 76t-31 70q-28 24 -84 24q-62 0 -94 -32q-29 -29 -39 -80h-143q15 109 88 176q78 72 196 72q129 0 197 -68q57 -57 57 -150
q0 -79 -41 -127q-34 -42 -90 -57q41 -11 72 -49q35 -44 35 -113q0 -119 -74 -196q-82 -88 -231 -88q-136 0 -207 71q-72 72 -72 187z" />
    <glyph glyph-name="uni2084" unicode="&#x2084;" horiz-adv-x="757" 
d="M324 252h163l29 225zM713 881l-78 -629h88l-16 -135h-89l-14 -117h-147l14 117h-428z" />
    <glyph glyph-name="uni2085" unicode="&#x2085;" horiz-adv-x="757" 
d="M713 819l-17 -135h-258l-49 -125q148 17 232 -67q67 -62 67 -177q0 -153 -90 -243q-91 -86 -238 -86q-122 0 -198 57q-56 39 -101 117l123 80q20 -49 66 -86q46 -33 112 -33q82 0 127 43q52 52 52 127q0 69 -47 112q-41 35 -113 35q-102 0 -162 -69h-55l190 450h359z" />
    <glyph glyph-name="uni2086" unicode="&#x2086;" horiz-adv-x="757" 
d="M537 868l118 -88l-215 -262q64 7 118.5 -11.5t88.5 -55.5q64 -64 64 -166q0 -133 -78 -211q-51 -54 -110.5 -71t-129.5 -17q-61 0 -106 11t-90 48q-86 70 -86 195q0 82 47 159q27 45 100 131zM418 389q-69 0 -113 -41q-45 -45 -45 -108q0 -47 41 -88q41 -35 102 -35
q64 0 107 37q49 40 49 110q0 62 -41 94q-36 31 -100 31z" />
    <glyph glyph-name="uni2087" unicode="&#x2087;" horiz-adv-x="757" 
d="M74 33l477 651h-393l16 135h651l-620 -848z" />
    <glyph glyph-name="uni2088" unicode="&#x2088;" horiz-adv-x="757" 
d="M477 834q115 0 178 -66q58 -63 58 -150q0 -57 -31 -114q-32 -54 -82 -78q90 -48 90 -168q0 -128 -86 -203q-46 -43 -96.5 -56t-118.5 -13q-118 0 -188 57q-76 65 -76 166q0 72 43 139q5 7 10 13.5t9.5 11.5t10 10t9.5 8.5t10.5 8t9.5 6.5t10 6t9.5 5t9.5 4.5t8 4.5
q-71 56 -71 152q0 107 73 180q76 76 211 76zM457 702q-54 0 -88 -30q-35 -27 -35 -84q0 -37 26 -66q29 -33 84 -33q62 0 93 31q34 30 34 84q0 52 -34 76q-26 22 -80 22zM414 358q-34 0 -56 -6.5t-43 -27.5q-41 -35 -41 -91q0 -58 37 -88q28 -28 92 -28t101 37t37 98
q0 55 -41 82q-36 24 -86 24z" />
    <glyph glyph-name="uni2089" unicode="&#x2089;" horiz-adv-x="757" 
d="M324 -47l-121 86l215 262q-124 -2 -199 64q-72 66 -72 165q0 137 86 220q84 84 238 84q125 0 197 -62q80 -68 80 -188q0 -62 -29 -131q-24 -50 -86 -125zM440 430q66 0 109 35q24 20 37.5 51t13.5 62q0 51 -41 92q-35 32 -100 32q-67 0 -113 -40q-47 -44 -47 -107
q0 -54 43 -94q39 -31 98 -31z" />
    <glyph glyph-name="Euro" unicode="&#x20ac;" horiz-adv-x="1163" 
d="M1231 1313l-111 -183q-98 68 -258 68q-19 0 -39.5 -1.5t-58.5 -8t-72.5 -17t-77 -32t-77 -50.5t-67 -74.5t-52.5 -101.5h592l-80 -143h-561q-20 -67 -23 -152h506l-80 -143h-416q12 -139 110.5 -224t264.5 -85q196 0 352 117l-26 -224q-94 -46 -189 -66t-166 -20
q-142 0 -255 45t-185 123q-55 61 -90.5 148t-36.5 186h-139l80 143h61q3 85 23 152h-127l80 143h88q50 176 188 299q203 179 514 179q195 0 328 -78z" />
    <glyph glyph-name="trademark" unicode="&#x2122;" horiz-adv-x="1454" 
d="M639 1231h-172l-80 -643h-143l80 643h-172l16 135h487zM750 588h-146l273 848l188 -574l330 574l61 -848h-145l-19 422l-264 -437l-154 437z" />
    <glyph glyph-name="fi" unicode="&#xfb01;" horiz-adv-x="956" 
d="M633 678h-217l-84 -678h-201l84 678h-70l23 184h70l32 258q13 106 34 174.5t73 122.5q96 101 270 101q163 0 250 -80q82 -77 82 -228q0 -28 -8 -120h-203q8 36 8 98q0 69 -33 102q-35 35 -102 35q-75 0 -115 -43q-18 -19 -30 -50t-16.5 -56t-10.5 -76l-31 -238h217z
M741 862h201l-106 -862h-201z" />
    <glyph glyph-name="fl" unicode="&#xfb02;" horiz-adv-x="958" 
d="M633 678h-217l-84 -678h-201l84 678h-70l23 184h70l32 258q13 103 35 172.5t72 124.5q101 101 274 101q164 0 252 -88q76 -76 76 -216q0 -72 -10 -127l-133 -1087h-201l131 1075q10 92 10 115q0 65 -33 98q-37 37 -102 37q-72 0 -115 -43q-18 -19 -30 -50t-16.5 -56
t-10.5 -76l-31 -238h217z" />
    <glyph glyph-name="CR" horiz-adv-x="477" 
 />
    <glyph glyph-name="nbspace" horiz-adv-x="477" 
 />
    <glyph glyph-name="hyphenminus" horiz-adv-x="696" 
d="M143 332l25 209h491l-24 -209h-492z" />
    <glyph glyph-name="dotlessi1" horiz-adv-x="456" 
d="M236 862h200l-106 -862h-201z" />
    </font>
</defs>
</svg>
