<?xml version="1.0" standalone="no"?>
<!DOCTYPE svg PUBLIC "-//W3C//DTD SVG 1.1//EN" "http://www.w3.org/Graphics/SVG/1.1/DTD/svg11.dtd" >
<svg xmlns="http://www.w3.org/2000/svg" xmlns:xlink="http://www.w3.org/1999/xlink" version="1.1">
<metadata>
Created by FontForge 20170731 at Sun Sep 19 04:00:47 2021
 By Aleksey,,,
(c) Copyright 2005 by Tong Duc Thinh. All Rights Reserved
</metadata>
<defs>
<font id="SVN-Futura" horiz-adv-x="1181" >
  <font-face 
    font-family="SVN-Futura"
    font-weight="400"
    font-stretch="normal"
    units-per-em="2048"
    panose-1="0 0 4 0 0 0 0 0 0 0"
    ascent="1638"
    descent="-410"
    x-height="963"
    cap-height="1544"
    bbox="-135 -600 2413 2382"
    underline-thickness="153"
    underline-position="-535"
    unicode-range="U+0020-F002"
  />
<missing-glyph horiz-adv-x="1024" 
d="M897 0h-768v2322h768v-2322zM256 2195v-2066h512v2066h-512z" />
    <glyph glyph-name=".notdef" horiz-adv-x="1024" 
d="M897 0h-768v2322h768v-2322zM256 2195v-2066h512v2066h-512z" />
    <glyph glyph-name=".null" horiz-adv-x="0" 
 />
    <glyph glyph-name="nonmarkingreturn" horiz-adv-x="682" 
 />
    <glyph glyph-name="space" unicode=" " horiz-adv-x="630" 
 />
    <glyph glyph-name="exclam" unicode="!" horiz-adv-x="692" 
d="M346 203q47 0 81 -33t34 -80t-34 -82t-81 -35t-81 35t-34 82t34 80t81 33zM430 313h-168v1231h168v-1231z" />
    <glyph glyph-name="quotedbl" unicode="&#x22;" horiz-adv-x="935" 
d="M246 872l-37 672h192l-36 -672h-119zM571 872l-36 672h192l-37 -672h-119z" />
    <glyph glyph-name="numbersign" unicode="#" horiz-adv-x="1261" 
d="M410 1126l73 418h158l-74 -418h254l72 418h162l-72 -418h188v-159h-215l-59 -351h207v-159h-236l-82 -457h-155l80 457h-252l-86 -457h-154l80 457h-209v159h236l59 351h-219v159h244zM797 967h-252l-60 -351h252z" />
    <glyph glyph-name="dollar" unicode="$" horiz-adv-x="1261" 
d="M729 705v-549q97 32 153 111t56 182q0 154 -209 256zM594 948v449q-82 -17 -136.5 -82.5t-54.5 -149.5q0 -131 191 -217zM594 141v625q-166 69 -250 147q-113 104 -113 258q0 155 103 261t260 127v210h135v-210q221 -27 324 -234l-135 -88q-76 137 -189 158v-506
q179 -74 266 -158q115 -112 115 -278q0 -174 -106 -301q-110 -128 -275 -162v-226h-135v213q-166 9 -291 119q-124 115 -151 279l165 47q15 -107 93 -191q75 -81 184 -90z" />
    <glyph glyph-name="percent" unicode="%" horiz-adv-x="1632" 
d="M410 1571q142 0 243 -98q101 -94 101 -240q0 -142 -101 -240q-104 -96 -243 -96q-140 0 -244 96q-100 93 -100 240t100 240q101 98 244 98zM410 1440q-87 0 -150 -60.5t-63 -146.5t63 -145.5t150 -59.5t150 59.5t63 145.5t-63 146.5t-150 60.5zM324 27l899 1544l82 -49
l-893 -1549zM1225 647q142 0 243 -98q101 -94 101 -240q0 -141 -101 -239q-105 -97 -243 -97q-139 0 -244 97q-100 93 -100 239q0 147 100 240q101 98 244 98zM1225 516q-87 0 -150 -60.5t-63 -146.5t63 -145.5t150 -59.5t150 59.5t63 145.5t-63 146.5t-150 60.5z" />
    <glyph glyph-name="ampersand" unicode="&#x26;" horiz-adv-x="1423" 
d="M582 1059l36 -51l15 10q109 77 131 102q61 64 61 148q0 68 -49 112.5t-119 44.5q-72 0 -121 -49t-49 -121q0 -50 31 -104q4 -8 64 -92zM1407 0h-217l-166 217q-274 -244 -494 -244q-182 0 -313 119q-137 122 -137 303q0 174 117 303q65 74 262 205l18 12
q-84 117 -102 152q-51 89 -51 176q0 147 94.5 237.5t243.5 90.5q135 0 229 -82q98 -88 98 -221q0 -121 -86 -224q-46 -55 -186 -161l325 -416l175 203l124 -103l-196 -229zM922 346l-344 442l-74 -49q-125 -82 -172 -135q-84 -93 -84 -196q0 -114 80 -197q82 -82 192 -82
q104 0 217 72q61 41 185 145z" />
    <glyph glyph-name="quotesingle" unicode="'" horiz-adv-x="591" 
d="M238 872l-37 672h192l-37 -672h-118z" />
    <glyph glyph-name="parenleft" unicode="(" horiz-adv-x="587" 
d="M377 1614l145 -70q-164 -435 -164 -983t164 -983l-145 -70q-187 395 -187 1053t187 1053z" />
    <glyph glyph-name="parenright" unicode=")" horiz-adv-x="587" 
d="M66 1544l145 70q186 -393 186 -1053t-186 -1053l-145 70q163 432 163 983t-163 983z" />
    <glyph glyph-name="asterisk" unicode="*" horiz-adv-x="1212" 
d="M272 1358l271 -101l-13 287h154l-12 -287l270 101l49 -148l-278 -77l178 -226l-125 -92l-160 242l-160 -242l-124 92l180 226l-279 77z" />
    <glyph glyph-name="plus" unicode="+" horiz-adv-x="1261" 
d="M551 604v416h160v-416h415v-160h-415v-415h-160v415h-416v160h416z" />
    <glyph glyph-name="comma" unicode="," horiz-adv-x="630" 
d="M119 -307l190 532l152 -53l-232 -524z" />
    <glyph glyph-name="hyphen" unicode="-" horiz-adv-x="425" 
d="M4 418v151h420v-151h-420z" />
    <glyph glyph-name="hyphen" unicode="&#x2010;" horiz-adv-x="425" 
d="M4 418v151h420v-151h-420z" />
    <glyph glyph-name="period" unicode="." horiz-adv-x="630" 
d="M315 203q47 0 81 -33t34 -80t-34 -82t-81 -35t-80.5 34.5t-33.5 82.5q0 47 33.5 80t80.5 33z" />
    <glyph glyph-name="slash" unicode="/" horiz-adv-x="1167" 
d="M37 -260l958 1950l135 -62l-960 -1950z" />
    <glyph glyph-name="zero" unicode="0" horiz-adv-x="1261" 
d="M631 1571q267 0 424 -281q129 -231 129 -520q0 -310 -144 -541q-160 -256 -409 -256q-266 0 -422 279q-131 229 -131 518t129 520q157 281 424 281zM631 1411q-193 0 -301 -242q-83 -192 -80 -407q3 -212 86 -395q108 -234 295 -234t295 234q83 183 86 395q3 215 -80 407
q-108 242 -301 242z" />
    <glyph glyph-name="one" unicode="1" horiz-adv-x="700" 
d="M377 0v1384h-256l90 160h338v-1544h-172z" />
    <glyph glyph-name="two" unicode="2" horiz-adv-x="1261" 
d="M967 788l-535 -628h651v-160h-999l723 854q104 122 104 258q0 129 -90 213q-89 86 -217 86q-136 0 -223 -90q-85 -91 -88 -227h-172q3 205 137 342q135 135 340 135q203 0 344 -129q141 -126 141 -328q0 -189 -116 -326z" />
    <glyph glyph-name="three" unicode="3" horiz-adv-x="1261" 
d="M555 731v160q305 12 305 250q0 123 -73.5 196.5t-196.5 73.5q-233 0 -254 -248h-170q19 191 131.5 299.5t296.5 108.5q190 0 313 -117q125 -113 125 -305q0 -107 -53.5 -199t-144.5 -139q104 -49 162.5 -151.5t58.5 -227.5q0 -201 -140 -332q-139 -127 -340 -127
q-192 0 -321 117q-134 119 -137 311h168q6 -115 92 -192q85 -76 205 -76q130 0 215 88q86 89 86 221q0 143 -88.5 218.5t-239.5 70.5z" />
    <glyph glyph-name="four" unicode="4" horiz-adv-x="1261" 
d="M975 1630v-1220h190v-160h-190v-250h-172v250h-791l959 1380h4zM313 410h490v698h-4z" />
    <glyph glyph-name="five" unicode="5" horiz-adv-x="1261" 
d="M1071 1544v-160h-493l-101 -329l92 8q229 0 371 -154q143 -152 143 -385q0 -239 -163 -395t-404 -156q-309 0 -473 277l137 98q120 -215 342 -215q173 0 281 111q108 114 108 284q0 165 -110 269q-106 106 -275 106q-145 0 -293 -98l224 739h614z" />
    <glyph glyph-name="six" unicode="6" horiz-adv-x="1261" 
d="M231 872l512 699l129 -96l-356 -480l4 -4q71 23 135 23q211 0 355 -150q145 -148 145 -360q0 -224 -156 -377q-154 -154 -376 -154q-220 0 -377 154q-156 153 -156 375q0 177 141 370zM623 133q151 0 256 105q104 107 104 260t-104 254q-105 102 -256 102
q-153 0 -258 -102q-103 -103 -103 -254q0 -152 105 -260q105 -105 256 -105z" />
    <glyph glyph-name="seven" unicode="7" horiz-adv-x="1261" 
d="M72 53l876 1331h-844v160h1139l-1036 -1571z" />
    <glyph glyph-name="eight" unicode="8" horiz-adv-x="1261" 
d="M631 727q-124 0 -213 -86q-86 -86 -86 -211t86 -211q89 -86 213 -86q125 0 211 86q88 85 88 211t-88 211q-86 86 -211 86zM631 1571q186 0 309 -123t123 -307q0 -105 -51 -197t-138 -141q106 -49 167 -149t61 -222q0 -201 -135 -330q-132 -129 -336 -129q-203 0 -338 129
q-133 130 -133 330q0 122 61 222t166 149q-87 49 -137.5 141t-50.5 197q0 184 123 307t309 123zM631 1411q-110 0 -191 -78q-78 -78 -78 -188q0 -112 78 -193q78 -78 191 -78q112 0 190 78q78 81 78 193q0 111 -80 188q-78 78 -188 78z" />
    <glyph glyph-name="nine" unicode="9" horiz-adv-x="1261" 
d="M1014 674l-512 -701l-129 88l356 490l-4 4q-64 -20 -133 -20q-212 0 -356 147q-144 150 -144 362q0 224 154 375q158 152 379 152t376 -152q156 -150 156 -375q0 -175 -143 -370zM625 1411q-150 0 -256 -106q-105 -105 -105 -254q0 -151 103 -254q106 -103 258 -103
q150 0 256 103q104 101 104 254q0 151 -106 254q-103 106 -254 106z" />
    <glyph glyph-name="colon" unicode=":" horiz-adv-x="630" 
d="M315 203q47 0 81 -33t34 -80t-34 -82t-81 -35t-80.5 34.5t-33.5 82.5q0 47 33.5 80t80.5 33zM315 989q48 0 81.5 -32.5t33.5 -79.5t-34 -82t-81 -35t-80.5 34.5t-33.5 82.5q0 47 33.5 79.5t80.5 32.5z" />
    <glyph glyph-name="semicolon" unicode=";" horiz-adv-x="630" 
d="M123 -307l190 532l152 -53l-232 -524zM367 989q47 0 80.5 -32.5t33.5 -79.5q0 -48 -33.5 -82.5t-80.5 -34.5t-81 35t-34 82t33.5 79.5t81.5 32.5z" />
    <glyph glyph-name="less" unicode="&#x3c;" horiz-adv-x="1261" 
d="M135 596l991 424v-174l-753 -322l753 -321v-174l-991 424v143z" />
    <glyph glyph-name="equal" unicode="=" horiz-adv-x="1261" 
d="M135 604v160h991v-160h-991zM135 285v159h991v-159h-991z" />
    <glyph glyph-name="greater" unicode="&#x3e;" horiz-adv-x="1261" 
d="M889 524l-754 322v174l991 -424v-143l-991 -424v174z" />
    <glyph glyph-name="question" unicode="?" horiz-adv-x="999" 
d="M666 672h165q3 -154 -90 -254q-94 -101 -243 -101q-145 0 -240 95q-94 94 -94 239q0 225 280 314q149 48 179 69q82 55 82 166q0 94 -58.5 153.5t-152.5 59.5q-86 0 -143.5 -58.5t-57.5 -144.5q0 -48 12 -98h-170l-8 109q-12 153 109 256q110 94 268 94t262 -107
q106 -103 106 -262q0 -173 -110 -274q-66 -60 -273 -119q-157 -47 -157 -170q0 -69 49.5 -116.5t118.5 -47.5q79 0 127 60q39 51 39 137zM496 203q47 0 80.5 -33t33.5 -80q0 -48 -33.5 -82.5t-80.5 -34.5t-81 35t-34 82t34 80t81 33z" />
    <glyph glyph-name="at" unicode="@" horiz-adv-x="1638" 
d="M535 709q0 -108 59.5 -177t161.5 -69q133 0 209 110q67 94 67 236q0 101 -57 165t-154 64q-123 0 -207 -106q-79 -98 -79 -223zM1081 1034l29 125h145l-102 -522q-16 -88 -16 -113q0 -61 45 -61q92 0 168 155q63 126 69 236q15 262 -145 416q-156 153 -424 153
q-281 0 -455 -186q-174 -183 -174 -465q0 -290 187 -471q186 -180 477 -180q260 0 391 94l143 -104q-267 -138 -551 -138q-341 0 -569 228q-225 231 -225 571q0 337 221 569q224 230 561 230q281 0 481 -176q230 -202 230 -469q0 -222 -107 -402q-127 -214 -336 -205
q-92 3 -110 125q-125 -125 -279 -125q-144 0 -246 117q-98 110 -98 258q0 191 111 332q122 152 307 152q161 0 272 -144z" />
    <glyph glyph-name="A" unicode="A" horiz-adv-x="1431" 
d="M1229 0l-182 438h-660l-186 -438h-189l713 1618l694 -1618h-190zM457 598h522l-258 619z" />
    <glyph glyph-name="B" unicode="B" horiz-adv-x="1163" 
d="M477 717h-149v-557h172q395 0 395 282q0 275 -418 275zM514 0h-358v1544h254q516 0 516 -418q0 -198 -152 -301q133 -32 213 -142t80 -253q0 -225 -172 -336q-143 -94 -381 -94zM395 1384h-67v-520h65q177 0 254 41q107 58 107 221q0 159 -101 217q-71 41 -258 41z" />
    <glyph glyph-name="C" unicode="C" horiz-adv-x="1468" 
d="M1333 1419v-213q-199 205 -471 205q-260 0 -442 -188q-180 -186 -180 -451q0 -262 182 -450q183 -189 444 -189q262 0 467 205v-213q-211 -152 -461 -152q-333 0 -569 230q-235 229 -235 563q0 336 233 569q236 236 571 236q256 0 461 -152z" />
    <glyph glyph-name="D" unicode="D" horiz-adv-x="1388" 
d="M442 0h-286v1544h290q192 0 320 -35q158 -44 283 -151q256 -218 256 -588q0 -350 -252 -575q-131 -116 -283 -160q-125 -35 -328 -35zM328 1384v-1224h125q299 0 483 153q197 167 197 459q0 295 -197 459q-182 153 -483 153h-125z" />
    <glyph glyph-name="E" unicode="E" horiz-adv-x="1093" 
d="M956 0h-800v1544h800v-160h-628v-458h610v-160h-610v-606h628v-160z" />
    <glyph glyph-name="F" unicode="F" horiz-adv-x="978" 
d="M858 1544v-160h-530v-458h514v-160h-514v-766h-172v1544h702z" />
    <glyph glyph-name="G" unicode="G" horiz-adv-x="1679" 
d="M948 616v160h643q3 -175 -24 -289q-39 -142 -135 -256q-104 -122 -255.5 -190t-316.5 -68q-328 0 -563 232q-231 234 -231 563q0 339 233 569q234 234 571 234q399 0 654 -334l-125 -117q-204 291 -531 291q-266 0 -448 -188t-182 -457q0 -253 182 -444
q186 -189 436 -189q212 0 377 133q174 137 174 350h-459z" />
    <glyph glyph-name="H" unicode="H" horiz-adv-x="1462" 
d="M336 1544v-626h790v626h172v-1544h-172v758h-790v-758h-172v1544h172z" />
    <glyph glyph-name="I" unicode="I" horiz-adv-x="489" 
d="M160 1544h172v-1544h-172v1544z" />
    <glyph glyph-name="J" unicode="J" horiz-adv-x="643" 
d="M311 1544h172v-1222q0 -252 -77 -355q-95 -127 -267 -127q-135 0 -274 115l96 133q94 -88 182 -88q110 0 148 115q20 61 20 207v1222z" />
    <glyph glyph-name="K" unicode="K" horiz-adv-x="1251" 
d="M328 1544v-661l657 661h232l-725 -719l749 -825h-237l-633 709l-43 -43v-666h-172v1544h172z" />
    <glyph glyph-name="L" unicode="L" horiz-adv-x="768" 
d="M156 1544h172v-1384h426v-160h-598v1544z" />
    <glyph glyph-name="M" unicode="M" horiz-adv-x="1835" 
d="M219 0h-176l313 1632l562 -1296l563 1296l313 -1632h-176l-199 1044h-4l-497 -1107l-496 1107h-4z" />
    <glyph glyph-name="N" unicode="N" horiz-adv-x="1708" 
d="M338 0h-172v1610l1204 -1262v1196h172v-1614l-1204 1260v-1190z" />
    <glyph glyph-name="O" unicode="O" horiz-adv-x="1765" 
d="M883 1571q335 0 569 -234q236 -230 236 -567t-236 -567q-233 -230 -569 -230t-572 230q-233 230 -233 567t233 567q237 234 572 234zM883 1411q-271 0 -451 -186q-182 -185 -182 -453q0 -265 182 -453q183 -186 451 -186t448 186q185 188 185 453q0 267 -183 453
q-180 186 -450 186z" />
    <glyph glyph-name="P" unicode="P" horiz-adv-x="1030" 
d="M453 676h-125v-676h-172v1544h254q264 0 383 -82q174 -119 174 -352q0 -218 -152 -334q-129 -100 -362 -100zM391 1384h-63v-548h114q353 0 353 278q0 170 -127 229q-87 41 -277 41z" />
    <glyph glyph-name="Q" unicode="Q" horiz-adv-x="1765" 
d="M854 623h225l267 -279q170 179 170 428q0 267 -183 453q-180 186 -450 186q-271 0 -451 -186q-182 -185 -182 -453q0 -265 182 -453q183 -186 451 -186q193 0 344 115zM1696 -14h-219l-129 139q-202 -152 -465 -152q-336 0 -572 230q-233 230 -233 567t233 567
q237 234 572 234q337 0 571 -234t234 -571q0 -306 -224 -545z" />
    <glyph glyph-name="R" unicode="R" horiz-adv-x="1110" 
d="M379 1384h-51v-555h53q391 0 391 277q0 174 -119 235q-82 43 -274 43zM371 678h-43v-678h-172v1544h223q565 0 565 -426q0 -181 -104.5 -297t-282.5 -129l492 -692h-211z" />
    <glyph glyph-name="S" unicode="S" horiz-adv-x="1144" 
d="M993 1331l-137 -88q-94 168 -266 168q-107 0 -181.5 -68.5t-74.5 -171.5q0 -89 82 -153q46 -38 159 -88l103 -45q182 -79 260 -158q111 -108 111 -276q0 -201 -142 -340q-138 -138 -344 -138q-184 0 -314 108.5t-167 291.5l168 47q18 -125 103 -206t206 -81q128 0 223 86
t95 215q0 120 -89 197q-57 51 -196 110l-94 41q-162 70 -236 144q-100 100 -100 252q0 176 131 286q122 107 301 107q270 0 399 -240z" />
    <glyph glyph-name="T" unicode="T" horiz-adv-x="962" 
d="M942 1384h-377v-1384h-172v1384h-373v160h922v-160z" />
    <glyph glyph-name="U" unicode="U" horiz-adv-x="1402" 
d="M152 1544h172v-919q0 -133 6 -179q27 -196 200 -274q79 -39 172 -39q191 0 304 137q52 64 67 168q8 47 8 187v919h172v-966q0 -140 -22 -230q-29 -111 -113 -198q-171 -177 -416 -177q-233 0 -399 158q-92 89 -127 207q-24 82 -24 240v966z" />
    <glyph glyph-name="V" unicode="V" horiz-adv-x="1277" 
d="M12 1544h187l440 -1177l440 1177h187l-627 -1636z" />
    <glyph glyph-name="W" unicode="W" horiz-adv-x="2234" 
d="M27 1544h186l405 -1157l500 1237l500 -1237l405 1157h187l-592 -1624l-500 1243l-500 -1243z" />
    <glyph glyph-name="X" unicode="X" horiz-adv-x="1155" 
d="M27 0l456 799l-417 745h196l316 -581l315 581h197l-418 -745l456 -799h-196l-354 635l-355 -635h-196z" />
    <glyph glyph-name="Y" unicode="Y" horiz-adv-x="1214" 
d="M522 0v664l-506 880h199l393 -688l393 688h199l-506 -880v-664h-172z" />
    <glyph glyph-name="Z" unicode="Z" horiz-adv-x="1200" 
d="M1157 1544l-844 -1384h822v-160h-1106l841 1384h-735v160h1022z" />
    <glyph glyph-name="bracketleft" unicode="[" horiz-adv-x="645" 
d="M602 1462h-221v-1802h221v-152h-389v2106h389v-152z" />
    <glyph glyph-name="backslash" unicode="\" horiz-adv-x="1167" 
d="M997 -61l-960 1689l135 62l958 -1690z" />
    <glyph glyph-name="bracketright" unicode="]" horiz-adv-x="645" 
d="M43 -340h221v1802h-221v152h389v-2106h-389v152z" />
    <glyph glyph-name="asciicircum" unicode="^" horiz-adv-x="1261" 
d="M313 659h-178l422 885h148l421 -885h-182l-313 672z" />
    <glyph glyph-name="underscore" unicode="_" horiz-adv-x="1024" 
d="M0 -231h1024v-154h-1024v154z" />
    <glyph glyph-name="grave" unicode="`" horiz-adv-x="733" 
d="M473 1130l-313 316l172 78l243 -336z" />
    <glyph glyph-name="a" unicode="a" 
d="M555 838q-138 0 -227 -103q-86 -103 -86 -243q0 -150 82 -254q88 -113 233 -113q151 0 240 108q82 101 82 256q0 150 -88 248q-88 101 -236 101zM870 963h164v-963h-164v133h-4q-127 -160 -331 -160q-203 0 -336 154q-125 143 -125 352q0 215 123 359q130 151 340 151
q203 0 329 -164h4v138z" />
    <glyph glyph-name="b" unicode="b" 
d="M616 838q-138 0 -227 -103q-86 -103 -86 -243q0 -150 82 -254q88 -113 233 -113q152 0 240 108q82 101 82 256q0 150 -88 248q-88 101 -236 101zM311 0h-164v1690h164v-865h4q126 164 330 164q210 0 340 -151q123 -141 123 -357q0 -211 -125 -354q-130 -154 -336 -154
q-211 0 -332 160h-4v-133z" />
    <glyph glyph-name="c" unicode="c" horiz-adv-x="974" 
d="M870 893v-217h-4q-125 162 -299 162q-149 0 -243 -105q-97 -105 -97 -252q0 -146 90 -250q93 -106 242 -106q187 0 313 166h5v-219q-144 -99 -306 -99q-222 0 -366 144q-146 146 -146 364t148 363q151 145 366 145q160 0 297 -96z" />
    <glyph glyph-name="d" unicode="d" 
d="M555 838q-138 0 -227 -103q-86 -103 -86 -243q0 -150 82 -254q88 -113 233 -113q151 0 240 108q82 101 82 256q0 150 -88 248q-88 101 -236 101zM1034 0h-164v133h-4q-124 -160 -331 -160q-203 0 -336 154q-125 143 -125 352q0 215 123 359q130 151 340 151
q203 0 329 -164h4v865h164v-1690z" />
    <glyph glyph-name="e" unicode="e" horiz-adv-x="1062" 
d="M993 446h-755q3 -141 90 -231q90 -90 225 -90q182 0 293 199l139 -80q-145 -271 -444 -271q-212 0 -342 142q-129 141 -129 354q0 223 120 367q126 153 347 153q224 0 350 -164q118 -148 106 -379zM246 586h575q-17 107 -97 179.5t-185 72.5q-109 0 -195 -74
q-83 -71 -98 -178z" />
    <glyph glyph-name="f" unicode="f" horiz-adv-x="561" 
d="M578 811h-244v-811h-164v811h-90v152h90v383q0 179 43 249q74 121 248 121q56 0 117 -20v-166q-71 22 -111 22q-90 0 -117 -67q-16 -46 -16 -197v-325h244v-152z" />
    <glyph glyph-name="g" unicode="g" horiz-adv-x="1187" 
d="M545 838q-139 0 -228 -103q-86 -103 -86 -243q0 -150 82 -254q88 -113 234 -113q151 0 239 108q82 101 82 256q0 150 -88 248q-88 101 -235 101zM860 963h164v-916q0 -150 -12 -217q-21 -114 -86 -197q-132 -170 -373 -170q-205 0 -338 121q-132 120 -135 322h164
q1 -133 86 -212t221 -79q309 0 309 403v115h-4q-124 -160 -334 -160q-205 0 -336 152q-123 141 -123 352q0 216 125 359q132 153 340 153q205 0 328 -164h4v138z" />
    <glyph glyph-name="h" unicode="h" horiz-adv-x="1081" 
d="M156 0v1690h163l5 -844q104 143 274 143q328 0 328 -418v-571h-164v543q0 143 -31 207q-43 88 -172 88q-153 0 -205 -125q-35 -84 -35 -256v-457h-163z" />
    <glyph glyph-name="i" unicode="i" horiz-adv-x="536" 
d="M186 963h164v-963h-164v963zM268 1442q47 0 82 -35t35 -82q0 -49 -33.5 -83t-83.5 -34q-49 0 -82.5 33.5t-33.5 83.5q0 47 34.5 82t81.5 35z" />
    <glyph glyph-name="j" unicode="j" horiz-adv-x="536" 
d="M186 963h164v-1504h-164v1504zM268 1442q47 0 82 -35t35 -82q0 -49 -33.5 -83t-83.5 -34q-49 0 -82.5 33.5t-33.5 83.5q0 47 34.5 82t81.5 35z" />
    <glyph glyph-name="k" unicode="k" horiz-adv-x="962" 
d="M147 1690h164v-1084l351 357h219l-412 -410l489 -553h-217l-387 438l-43 -43v-395h-164v1690z" />
    <glyph glyph-name="l" unicode="l" horiz-adv-x="464" 
d="M152 1690h163v-1690h-163v1690z" />
    <glyph glyph-name="m" unicode="m" horiz-adv-x="1572" 
d="M156 963h163v-105h5q82 131 231 131q183 0 266 -160q86 160 289 160q307 0 307 -403v-586h-164v559q0 127 -24 186q-41 93 -152 93q-209 0 -209 -328v-510h-163v547q0 291 -173 291q-213 0 -213 -340v-498h-163v963z" />
    <glyph glyph-name="n" unicode="n" horiz-adv-x="1081" 
d="M156 963h163v-117h5q104 143 274 143q328 0 328 -418v-571h-164v543q0 143 -31 207q-43 88 -172 88q-153 0 -205 -125q-35 -84 -35 -256v-457h-163v963z" />
    <glyph glyph-name="o" unicode="o" horiz-adv-x="1150" 
d="M575 -27q-214 0 -360 146q-145 145 -145 360t145 363q144 147 360 147q217 0 361 -147q145 -148 145 -363t-145 -360q-146 -146 -361 -146zM575 838q-152 0 -247 -103t-95 -254t95 -254q94 -102 247 -102q151 0 246 102q97 105 97 254t-97 254q-95 103 -246 103z" />
    <glyph glyph-name="p" unicode="p" 
d="M616 838q-138 0 -227 -103q-86 -103 -86 -243q0 -150 82 -254q88 -113 233 -113q152 0 240 108q82 101 82 256q0 150 -88 248q-88 101 -236 101zM147 963h164v-138h4q123 164 332 164q205 0 336 -155q125 -143 125 -355q0 -215 -123 -356q-129 -150 -340 -150t-330 162
h-4v-676h-164v1504z" />
    <glyph glyph-name="q" unicode="q" 
d="M555 838q-138 0 -227 -103q-86 -103 -86 -243q0 -150 82 -254q88 -113 233 -113q151 0 240 108q82 101 82 256q0 150 -88 248q-88 101 -236 101zM870 963h164v-1504h-164v676h-4q-119 -162 -329 -162q-213 0 -340 148q-123 141 -123 356t123 359q129 153 338 153
q208 0 331 -164h4v138z" />
    <glyph glyph-name="r" unicode="r" horiz-adv-x="686" 
d="M147 963h164v-105h4q98 131 213 131q71 0 148 -45l-78 -149q-64 43 -98 43q-189 0 -189 -357v-481h-164v963z" />
    <glyph glyph-name="s" unicode="s" horiz-adv-x="817" 
d="M682 811l-137 -72q-43 99 -131 99q-45 0 -82 -32t-37 -75q0 -71 117 -123q176 -78 213 -102q116 -79 116 -219q0 -138 -94 -226t-231 -88q-122 0 -212 64.5t-128 179.5l145 62q71 -154 197 -154q68 0 111.5 40.5t43.5 106.5q0 89 -124 152q-123 57 -197 90
q-113 73 -113 203q0 120 82 196t205 76q81 0 152.5 -50t103.5 -128z" />
    <glyph glyph-name="t" unicode="t" horiz-adv-x="491" 
d="M500 811h-172v-811h-164v811h-101v152h101v346h164v-346h172v-152z" />
    <glyph glyph-name="u" unicode="u" horiz-adv-x="1048" 
d="M143 963h164v-537q0 -146 35 -211q50 -90 182 -90q133 0 183 90q34 64 34 211v537h164v-555q0 -435 -381 -435t-381 435v555z" />
    <glyph glyph-name="v" unicode="v" horiz-adv-x="948" 
d="M2 963h186l287 -648l287 648h184l-471 -1026z" />
    <glyph glyph-name="w" unicode="w" horiz-adv-x="1556" 
d="M6 963h187l284 -652l299 725l301 -725l287 652h186l-477 -1031l-297 717l-297 -717z" />
    <glyph glyph-name="x" unicode="x" horiz-adv-x="1019" 
d="M2 0l410 512l-351 451h201l252 -328l252 328h205l-353 -451l400 -512h-199l-305 391l-307 -391h-205z" />
    <glyph glyph-name="y" unicode="y" horiz-adv-x="1019" 
d="M127 -541l311 631l-442 873h190l340 -691l312 691h186l-711 -1504h-186z" />
    <glyph glyph-name="z" unicode="z" horiz-adv-x="1062" 
d="M1044 963l-692 -811h664v-152h-996l695 811h-565v152h894z" />
    <glyph glyph-name="braceleft" unicode="{" horiz-adv-x="684" 
d="M104 496v131q95 30 129 112q25 64 25 215v383q0 86 45 172q53 105 129 105h150v-152h-82q-49 0 -64 -43q-10 -33 -10 -112v-387q0 -154 -68 -263q-41 -66 -88 -96q47 -27 88 -96q68 -112 68 -264v-385q0 -80 10 -113q15 -43 64 -43h82v-152h-150q-76 0 -129 105
q-45 86 -45 172v381q0 150 -25 217q-30 83 -129 113z" />
    <glyph glyph-name="bar" unicode="|" horiz-adv-x="1167" 
d="M504 1690h160v-1690h-160v1690z" />
    <glyph glyph-name="braceright" unicode="}" horiz-adv-x="684" 
d="M580 627v-131q-99 -30 -129 -113q-25 -67 -25 -217v-381q0 -86 -45 -172q-53 -105 -129 -105h-150v152h82q51 0 66 43q8 21 8 113v385q0 152 68 264q41 69 88 96q-47 30 -88 96q-68 109 -68 263v387q0 91 -8 112q-15 43 -66 43h-82v152h150q76 0 129 -105q45 -86 45 -172
v-383q0 -151 25 -215q34 -82 129 -112z" />
    <glyph glyph-name="asciitilde" unicode="~" horiz-adv-x="1261" 
d="M276 352l-141 58q108 301 285 301q83 0 223 -93q20 -12 96 -67q64 -43 103 -43q87 0 145 199l139 -58q-102 -301 -284 -301q-72 0 -209 90q-169 111 -213 111q-82 0 -144 -197z" />
    <glyph glyph-name="euro" horiz-adv-x="1019" 
d="M1069 1296l-47 -319l-98 12q0 322 -193 322q-210 0 -330 -432h353l-43 -99h-336q-15 -64 -33 -149h301l-43 -96h-274q-13 -89 -13 -152q0 -116 43 -186q52 -88 160 -88q118 0 207 139q47 72 104 244l113 -21l-111 -385q-157 -109 -325 -109q-226 0 -340 173
q-96 146 -96 385h-152l43 96h115q5 46 24 149h-135l43 99h121q82 229 221 374q169 181 383 181q194 0 338 -138z" />
    <glyph glyph-name="exclamdown" unicode="&#xa1;" horiz-adv-x="692" 
d="M346 989q48 0 81.5 -32.5t33.5 -79.5t-34 -82t-81 -35t-81 35t-34 82t33.5 79.5t81.5 32.5zM262 649h168v-1231h-168v1231z" />
    <glyph glyph-name="cent" unicode="&#xa2;" horiz-adv-x="1261" 
d="M1006 1202v-217h-5q-108 135 -241 156v-705q145 21 246 164h4v-219q-129 -87 -250 -96v-230h-135v232q-185 21 -308 162q-122 143 -122 329q0 198 118 340q122 149 312 170v217h135v-213q129 -12 246 -90zM625 438v699q-118 -21 -191 -123q-72 -104 -72 -223
q0 -126 70 -224q74 -105 193 -129z" />
    <glyph glyph-name="sterling" unicode="&#xa3;" horiz-adv-x="1261" 
d="M426 549h-260v131h205l-39 76q-74 142 -90 180q-41 103 -41 197q0 186 133 313q131 125 323 125q202 0 324 -131t125 -332l-168 -45q-3 149 -64 237q-70 107 -212 107q-120 0 -203 -80q-82 -79 -82 -199q0 -106 67 -231l115 -217h291v-131h-246q14 -49 14 -92
q0 -105 -67 -221l10 -5q216 -88 297 -88q97 0 186 154l140 -84q-108 -238 -316 -238q-73 0 -241 60q-165 59 -234 59q-111 0 -184 -125l-133 90q120 196 299 199q65 92 65 191q0 57 -14 100z" />
    <glyph glyph-name="currency" unicode="&#xa4;" horiz-adv-x="1261" 
d="M217 938l-82 82l74 74l86 -86q161 118 336 118t336 -118l86 86l73 -74l-82 -82q109 -171 109 -324q0 -152 -109 -323l82 -82l-73 -74l-86 86q-162 -119 -336 -119t-336 119l-86 -86l-74 74l82 82q-108 169 -108 323q0 155 108 324zM631 995q-171 0 -283 -106
q-111 -105 -108 -275q3 -164 114 -272q115 -109 277 -109q159 0 274 109q114 111 117 272q3 169 -109 275t-282 106z" />
    <glyph glyph-name="yen" unicode="&#xa5;" horiz-adv-x="1261" 
d="M717 0h-172v524h-486v131h486l-113 205h-373v131h297l-317 553h199l393 -684l393 684h199l-318 -553h297v-131h-373l-112 -205h485v-131h-485v-524z" />
    <glyph glyph-name="brokenbar" unicode="&#xa6;" horiz-adv-x="1167" 
d="M504 676h160v-676h-160v676zM504 1690h160v-676h-160v676z" />
    <glyph glyph-name="section" unicode="&#xa7;" horiz-adv-x="1212" 
d="M606 823q-94 0 -159.5 -65.5t-65.5 -159.5t65.5 -160.5t159.5 -66.5t161 66.5t67 160.5q0 93 -67 159t-161 66zM215 8h166q0 -237 209 -237q211 0 211 204q0 99 -74 158q-45 33 -164 80q-56 21 -119 49q-70 30 -110 64q-125 98 -125 270q0 245 215 334q-180 88 -180 289
q0 158 116 256q113 96 271 96q86 0 167.5 -37.5t125.5 -99.5q70 -101 73 -265h-163q-12 244 -205 244q-95 0 -156 -57t-61 -150q0 -105 92 -164q50 -29 205 -84q140 -50 202 -112q93 -93 93 -254q0 -216 -216 -328q181 -91 181 -299q0 -163 -109 -258q-107 -94 -272 -94
q-358 0 -373 395z" />
    <glyph glyph-name="dieresis" unicode="&#xa8;" horiz-adv-x="956" 
d="M276 1444q47 0 79 -32t32 -79t-32 -78.5t-79 -31.5q-44 0 -77 33t-33 77q0 47 31.5 79t78.5 32zM680 1444q47 0 79 -32t32 -79t-32 -78.5t-79 -31.5q-44 0 -77.5 33t-33.5 77q0 47 32 79t79 32z" />
    <glyph glyph-name="copyright" unicode="&#xa9;" horiz-adv-x="1638" 
d="M819 -27q-341 0 -571 230q-232 232 -232 569q0 335 232 567t571 232q340 0 572 -232q231 -231 231 -567q0 -338 -231 -569q-230 -230 -572 -230zM819 96q281 0 481 197q199 196 199 479t-199 479q-200 197 -481 197t-481 -197q-199 -196 -199 -479t199 -479
q200 -197 481 -197zM1227 936h-125q-40 180 -254 180q-145 0 -232.5 -93t-87.5 -241q0 -149 89 -244.5t235 -95.5q204 0 250 187h125q-18 -145 -125 -226q-107 -84 -250 -84q-196 0 -322 132q-124 130 -124 327q0 208 118 332q120 129 326 129q147 0 249 -81.5t128 -221.5z
" />
    <glyph glyph-name="ordfeminine" unicode="&#xaa;" horiz-adv-x="708" 
d="M356 1481q-87 0 -146.5 -60.5t-59.5 -148.5q0 -95 57.5 -158t148.5 -63q96 0 152.5 60.5t56.5 158.5q0 94 -57.5 152.5t-151.5 58.5zM561 1554h107v-577h-107v80h-4q-81 -96 -215 -96q-129 0 -215 86q-84 90 -84 217q0 134 84 220.5t217 86.5q131 0 213 -98h4v81z
M668 844v-107h-625v107h625z" />
    <glyph glyph-name="guillemotleft" unicode="&#xab;" horiz-adv-x="1024" 
d="M885 842l-277 -350l277 -340l-109 -84l-344 424l344 436zM537 842l-277 -350l277 -340l-109 -84l-344 424l344 436z" />
    <glyph glyph-name="logicalnot" unicode="&#xac;" horiz-adv-x="1261" 
d="M1126 211h-159v393h-832v160h991v-553z" />
    <glyph glyph-name="sfthyphen" unicode="&#xad;" horiz-adv-x="692" 
d="M520 356h-504l68 250h504z" />
    <glyph glyph-name="registered" unicode="&#xae;" horiz-adv-x="1638" 
d="M819 -27q-341 0 -571 230q-232 232 -232 569q0 335 232 567t571 232q340 0 572 -232q231 -231 231 -567q0 -338 -231 -569q-230 -230 -572 -230zM819 96q281 0 481 197q199 196 199 479t-199 479q-200 197 -481 197t-481 -197q-199 -196 -199 -479t199 -479
q200 -197 481 -197zM936 743l264 -403h-147l-262 403h-148v-403h-123v874h381q311 0 311 -231t-276 -240zM643 1092v-226h148q151 0 190 8q109 21 109 111q0 107 -213 107h-234z" />
    <glyph glyph-name="overscore" unicode="&#xaf;" horiz-adv-x="1021" 
d="M162 1257v140h700v-140h-700z" />
    <glyph glyph-name="overscore" unicode="&#x2c9;" horiz-adv-x="1021" 
d="M162 1257v140h700v-140h-700z" />
    <glyph glyph-name="degree" unicode="&#xb0;" horiz-adv-x="819" 
d="M717 1264q0 -127 -90 -217q-91 -91 -217 -91t-217 91t-91 217t91 217q90 90 217 90t217 -90t90 -217zM618 1264q0 88 -61 148.5t-149 60.5q-86 0 -146.5 -61.5t-60.5 -147.5q0 -88 60.5 -148.5t148.5 -60.5t148 60.5t60 148.5z" />
    <glyph glyph-name="plusminus" unicode="&#xb1;" horiz-adv-x="1261" 
d="M551 707v313h160v-313h415v-160h-415v-314h-160v314h-416v160h416zM1126 0h-991v160h991v-160z" />
    <glyph glyph-name="twosuperior" unicode="&#xb2;" horiz-adv-x="755" 
d="M637 1102l-338 -367h403v-106h-649l469 512q58 64 58 155q0 76 -54 122t-135 46q-87 0 -138.5 -47.5t-51.5 -132.5h-123q4 128 91.5 207.5t217.5 79.5q129 0 219 -72q96 -78 96 -203q0 -123 -65 -194z" />
    <glyph glyph-name="threesuperior" unicode="&#xb3;" horiz-adv-x="755" 
d="M358 1063v106q77 0 127 33q60 42 60 111q0 66 -47.5 108.5t-116.5 42.5q-139 0 -154 -137h-123q27 244 279 244q121 0 199 -66q86 -71 86 -188q0 -141 -129 -203q143 -58 143 -227q0 -133 -92 -207q-83 -68 -219 -68q-122 0 -205 68q-89 71 -92 188h123q0 -72 55 -112
q49 -37 123 -37q80 0 132 48.5t52 125.5q0 83 -56.5 129t-144.5 41z" />
    <glyph glyph-name="acute" unicode="&#xb4;" horiz-adv-x="733" 
d="M160 1188l243 336l172 -78l-313 -316z" />
    <glyph glyph-name="mu" unicode="&#xb5;" horiz-adv-x="1048" 
d="M143 963h164v-537q0 -146 35 -211q50 -90 182 -90q133 0 183 90q34 64 34 211v537h164v-555q0 -435 -381 -435q-112 0 -217 97v-611h-164v1504z" />
    <glyph glyph-name="mu" unicode="&#x3bc;" horiz-adv-x="1048" 
d="M143 963h164v-537q0 -146 35 -211q50 -90 182 -90q133 0 183 90q34 64 34 211v537h164v-555q0 -435 -381 -435q-112 0 -217 97v-611h-164v1504z" />
    <glyph glyph-name="paragraph" unicode="&#xb6;" horiz-adv-x="1212" 
d="M561 1544h533v-133h-119v-1724h-133v1724h-166v-1724h-133v893q-188 0 -303 127q-104 116 -119 311q-15 198 112 358q131 168 328 168z" />
    <glyph glyph-name="ch270" unicode="&#xb7;" horiz-adv-x="509" 
d="M78 713q0 69 47.5 116.5t116.5 47.5t117.5 -47.5t48.5 -116.5t-48.5 -117.5t-117.5 -48.5t-116.5 48.5t-47.5 117.5z" />
    <glyph glyph-name="cedilla" unicode="&#xb8;" horiz-adv-x="665" 
d="M356 -47l152 -62l-234 -299l-114 58z" />
    <glyph glyph-name="onesuperior" unicode="&#xb9;" horiz-adv-x="755" 
d="M399 629v819h-166l60 106h229v-925h-123z" />
    <glyph glyph-name="ordmasculine" unicode="&#xba;" horiz-adv-x="690" 
d="M346 961q-131 0 -231 86q-99 85 -99 217q0 134 99 219q98 88 231 88q134 0 232 -88q98 -85 98 -219q0 -132 -98 -217q-100 -86 -232 -86zM346 1481q-95 0 -159 -61t-64 -154t64 -154t159 -61t159 61t64 154t-64 154t-159 61zM659 844v-107h-624v107h624z" />
    <glyph glyph-name="guillemotright" unicode="&#xbb;" horiz-adv-x="1024" 
d="M248 68l-109 84l277 340l-277 350l109 86l344 -436zM596 68l-109 84l277 340l-277 350l109 86l344 -436z" />
    <glyph glyph-name="onequarter" unicode="&#xbc;" horiz-adv-x="1892" 
d="M371 629v819h-166l59 106h230v-925h-123zM1565 979v-723h123v-106h-123v-150h-123v150h-502l623 829h2zM1147 256h295v389h-4zM428 23l899 1548l90 -49l-899 -1549z" />
    <glyph glyph-name="onehalf" unicode="&#xbd;" horiz-adv-x="1892" 
d="M371 629v819h-166l59 106h230v-925h-123zM1622 473l-338 -367h404v-106h-650l469 512q58 64 58 156q0 76 -54 122t-135 46q-87 0 -138.5 -48t-51.5 -133h-123q4 128 91.5 207.5t217.5 79.5q129 0 219 -72q97 -79 97 -202t-66 -195zM336 23l899 1548l90 -49l-899 -1549z
" />
    <glyph glyph-name="threequarters" unicode="&#xbe;" horiz-adv-x="1892" 
d="M1606 979v-723h123v-106h-123v-150h-123v150h-502l623 829h2zM1188 256h295v389h-4zM547 23l899 1548l90 -49l-899 -1549zM449 1063v106q76 0 126 33q60 42 60 111q0 66 -47.5 108.5t-116.5 42.5q-139 0 -154 -137h-122q27 244 278 244q121 0 199 -66q86 -71 86 -188
q0 -141 -129 -203q143 -58 143 -227q0 -133 -92 -207q-83 -68 -219 -68q-122 0 -205 68q-89 71 -92 188h123q0 -72 55 -112q49 -37 123 -37q80 0 132 48.5t52 125.5q0 83 -56 129t-144 41z" />
    <glyph glyph-name="questiondown" unicode="&#xbf;" horiz-adv-x="999" 
d="M334 299h-166q-3 152 90 252q94 102 244 102q141 0 237 -96q97 -97 97 -238q0 -224 -281 -313q-147 -47 -178 -69q-82 -55 -82 -166q0 -94 58.5 -153.5t152.5 -59.5q86 0 143.5 58t57.5 144q0 45 -13 99h170l8 -109q12 -154 -108 -256q-110 -94 -268 -94q-159 0 -265 106
q-104 104 -104 263q0 172 111 274q67 61 272 119q158 47 158 170q0 69 -49.5 116.5t-118.5 47.5q-79 0 -122.5 -54.5t-43.5 -142.5zM504 989q47 0 80.5 -34t33.5 -81t-33.5 -80.5t-80.5 -33.5t-81 33.5t-34 80.5t34 81t81 34z" />
    <glyph glyph-name="Agrave" unicode="&#xc0;" horiz-adv-x="1431" 
d="M725 1618l694 -1618h-190l-182 438h-660l-186 -438h-189zM457 598h522l-258 619zM596 2038l274 -275l-71 -86l-324 228z" />
    <glyph glyph-name="Aacute" unicode="&#xc1;" horiz-adv-x="1431" 
d="M1047 438l182 -438h190l-694 1618l-713 -1618h189l186 438h660zM979 598h-522l264 619zM586 1765l274 275l121 -133l-324 -228z" />
    <glyph glyph-name="Acircumflex" unicode="&#xc2;" horiz-adv-x="1431" 
d="M1229 0l-182 438h-660l-186 -438h-189l713 1618l694 -1618h-190zM457 598h522l-258 619zM539 1677l-105 105l293 254l297 -254l-104 -105l-193 168z" />
    <glyph glyph-name="Atilde" unicode="&#xc3;" horiz-adv-x="1431" 
d="M1229 0l-182 438h-660l-186 -438h-189l713 1618l694 -1618h-190zM457 598h522l-258 619zM510 1677l-94 80q64 144 180 144q68 0 141 -43q77 -44 103 -41q47 -3 92 88l94 -80q-59 -148 -190 -148q-65 0 -136 41q-71 44 -110 41q-45 3 -80 -82z" />
    <glyph glyph-name="Adieresis" unicode="&#xc4;" horiz-adv-x="1431" 
d="M1229 0l-182 438h-660l-186 -438h-189l713 1618l694 -1618h-190zM457 598h522l-258 619zM514 2025q47 0 79 -31.5t32 -78.5t-32 -79t-79 -32q-44 0 -77.5 33.5t-33.5 77.5q0 47 32 78.5t79 31.5zM918 2025q47 0 78.5 -31.5t31.5 -78.5t-31.5 -79t-78.5 -32
q-44 0 -77.5 33.5t-33.5 77.5q0 47 32 78.5t79 31.5z" />
    <glyph glyph-name="Aring" unicode="&#xc5;" horiz-adv-x="1431" 
d="M1229 0l-182 438h-660l-186 -438h-189l713 1618l694 -1618h-190zM457 598h522l-258 619zM719 2163q82 0 140.5 -58.5t58.5 -140.5q0 -85 -57 -143t-142 -58q-82 0 -141.5 59.5t-59.5 141.5t59.5 140.5t141.5 58.5zM719 2060q-41 0 -69.5 -27.5t-28.5 -68.5q0 -38 30 -68
t68 -30q41 0 68.5 28.5t27.5 69.5t-27.5 68.5t-68.5 27.5z" />
    <glyph glyph-name="AE" unicode="&#xc6;" horiz-adv-x="2048" 
d="M1227 0l-183 434h-659l-182 -434h-191l688 1544h678l70 -160h-625l193 -460h608l72 -160h-611l252 -604h627l68 -160h-805zM459 594h516l-254 608z" />
    <glyph glyph-name="Ccedilla" unicode="&#xc7;" horiz-adv-x="1468" 
d="M1333 1419v-213q-199 205 -471 205q-260 0 -442 -188q-180 -186 -180 -451q0 -262 182 -450q183 -189 444 -189q262 0 467 205v-213q-211 -152 -461 -152q-333 0 -569 230q-235 229 -235 563q0 336 233 569q236 236 571 236q256 0 461 -152zM758 -47l151 -62l-233 -299
l-115 58z" />
    <glyph glyph-name="Egrave" unicode="&#xc8;" horiz-adv-x="1093" 
d="M956 0h-800v1544h800v-160h-628v-458h610v-160h-610v-606h628v-160zM446 1993l275 -275l-72 -86l-323 228z" />
    <glyph glyph-name="Eacute" unicode="&#xc9;" horiz-adv-x="1093" 
d="M156 0h800v160h-628v606h610v160h-610v458h628v160h-800v-1544zM383 1718l274 275l121 -133l-323 -228z" />
    <glyph glyph-name="Ecircumflex" unicode="&#xca;" horiz-adv-x="1093" 
d="M956 0h-800v1544h800v-160h-628v-458h610v-160h-610v-606h628v-160zM371 1634l-105 105l293 254l297 -254l-104 -105l-193 168z" />
    <glyph glyph-name="Edieresis" unicode="&#xcb;" horiz-adv-x="1093" 
d="M956 0h-800v1544h800v-160h-628v-458h610v-160h-610v-606h628v-160zM346 2025q47 0 79 -31.5t32 -78.5t-32 -79t-79 -32q-44 0 -77 33.5t-33 77.5q0 47 31.5 78.5t78.5 31.5zM750 2025q47 0 78.5 -31.5t31.5 -78.5t-31.5 -79t-78.5 -32q-44 0 -77.5 33.5t-33.5 77.5
q0 47 32 78.5t79 31.5z" />
    <glyph glyph-name="Igrave" unicode="&#xcc;" horiz-adv-x="489" 
d="M160 1544h172v-1544h-172v1544zM127 1993l274 -275l-71 -86l-324 228z" />
    <glyph glyph-name="Iacute" unicode="&#xcd;" horiz-adv-x="489" 
d="M332 1544h-172v-1544h172v1544zM88 1718l274 275l121 -133l-323 -228z" />
    <glyph glyph-name="Icircumflex" unicode="&#xce;" horiz-adv-x="489" 
d="M160 1544h172v-1544h-172v1544zM41 1726l-117 93l320 272l323 -272l-118 -93l-205 175z" />
    <glyph glyph-name="Idieresis" unicode="&#xcf;" horiz-adv-x="489" 
d="M160 1544h172v-1544h-172v1544zM43 2025q47 0 79 -31.5t32 -78.5t-32 -79t-79 -32q-44 0 -77.5 33.5t-33.5 77.5q0 47 32 78.5t79 31.5zM446 2025q47 0 79 -31.5t32 -78.5t-32 -79t-79 -32q-44 0 -77 33.5t-33 77.5q0 47 31.5 78.5t78.5 31.5z" />
    <glyph glyph-name="Eth" unicode="&#xd0;" horiz-adv-x="1388" 
d="M442 0h-286v758h-156v160h156v626h290q192 0 320 -35q158 -44 283 -151q256 -218 256 -588q0 -350 -252 -575q-131 -116 -283 -160q-125 -35 -328 -35zM328 758v-598h125q299 0 483 153q197 167 197 459q0 295 -197 459q-182 153 -483 153h-125v-466h274v-160h-274z" />
    <glyph glyph-name="Ntilde" unicode="&#xd1;" horiz-adv-x="1708" 
d="M338 0h-172v1610l1204 -1262v1196h172v-1614l-1204 1260v-1190zM596 1786l-100 80q91 162 209 162q51 0 159 -48q109 -47 137 -47q63 0 115 99l96 -78q-67 -166 -217 -166q-50 0 -149 45q-103 47 -148 47q-59 0 -102 -94z" />
    <glyph glyph-name="Ograve" unicode="&#xd2;" horiz-adv-x="1765" 
d="M883 1571q336 0 571 -232q234 -231 234 -569q0 -336 -234 -567q-233 -230 -571 -230q-339 0 -572 230t-233 567q0 339 233 569q235 232 572 232zM883 1411q-272 0 -453 -184q-180 -183 -180 -455q0 -267 182 -455q181 -184 451 -184q269 0 450 184q183 189 183 455
q0 269 -183 455q-181 184 -450 184zM772 2019l275 -274l-72 -86l-324 227z" />
    <glyph glyph-name="Oacute" unicode="&#xd3;" horiz-adv-x="1765" 
d="M883 1571q-337 0 -572 -232q-233 -230 -233 -569q0 -337 233 -567t572 -230q338 0 571 230q234 231 234 567q0 338 -234 569q-235 232 -571 232zM883 1411q269 0 450 -184q183 -186 183 -455q0 -266 -183 -455q-181 -184 -450 -184q-270 0 -451 184q-182 188 -182 455
q0 272 180 455q181 184 453 184zM713 1747l274 274l121 -133l-324 -227z" />
    <glyph glyph-name="Ocircumflex" unicode="&#xd4;" horiz-adv-x="1765" 
d="M883 1571q336 0 571 -232q234 -231 234 -569q0 -336 -234 -567q-233 -230 -571 -230q-339 0 -572 230t-233 567q0 339 233 569q235 232 572 232zM883 1411q-272 0 -453 -184q-180 -183 -180 -455q0 -267 182 -455q181 -184 451 -184q269 0 450 184q183 189 183 455
q0 269 -183 455q-181 184 -450 184zM694 1638l-104 105l293 254l297 -254l-105 -105l-192 168z" />
    <glyph glyph-name="Otilde" unicode="&#xd5;" horiz-adv-x="1765" 
d="M883 1571q336 0 571 -232q234 -231 234 -569q0 -336 -234 -567q-233 -230 -571 -230q-339 0 -572 230t-233 567q0 339 233 569q235 232 572 232zM883 1411q-272 0 -453 -184q-180 -183 -180 -455q0 -267 182 -455q181 -184 451 -184q269 0 450 184q183 189 183 455
q0 269 -183 455q-181 184 -450 184zM670 1636l-95 80q65 144 181 144q68 0 141 -43q77 -44 102 -41q48 -3 93 88l94 -80q-59 -148 -191 -148q-64 0 -135 41q-71 44 -110 41q-45 3 -80 -82z" />
    <glyph glyph-name="Odieresis" unicode="&#xd6;" horiz-adv-x="1765" 
d="M883 1571q335 0 569 -234q236 -230 236 -567t-236 -567q-233 -230 -569 -230t-572 230q-233 230 -233 567t233 567q237 234 572 234zM883 1411q-271 0 -451 -186q-182 -185 -182 -453q0 -265 182 -453q183 -186 451 -186t448 186q185 188 185 453q0 267 -183 453
q-180 186 -450 186zM682 2025q47 0 79 -31.5t32 -78.5t-32 -79t-79 -32q-44 0 -77.5 33.5t-33.5 77.5q0 47 32 78.5t79 31.5zM1085 2025q47 0 79 -31.5t32 -78.5t-32 -79t-79 -32q-44 0 -77 33.5t-33 77.5q0 47 31.5 78.5t78.5 31.5z" />
    <glyph glyph-name="multiply" unicode="&#xd7;" horiz-adv-x="1261" 
d="M518 524l-383 383l113 113l383 -383l381 383l114 -113l-383 -383l383 -383l-114 -112l-381 383l-383 -383l-113 112z" />
    <glyph glyph-name="Oslash" unicode="&#xd8;" horiz-adv-x="1765" 
d="M1384 1399l187 186l115 -117l-183 -186q185 -226 185 -508q0 -333 -234 -567t-567 -234q-284 0 -516 185l-189 -187l-114 117l186 186q-176 218 -176 496q0 335 235 567q237 234 574 234q273 0 497 -172zM381 391l883 893q-171 127 -379 127q-270 0 -453 -186
q-182 -185 -182 -453q0 -213 131 -381zM1380 1167l-884 -893q178 -141 389 -141q266 0 446 186q185 188 185 453q0 221 -136 395z" />
    <glyph glyph-name="Ugrave" unicode="&#xd9;" horiz-adv-x="1402" 
d="M152 1544h172v-919q0 -133 6 -179q27 -196 200 -274q79 -39 172 -39q191 0 304 137q52 64 67 168q8 47 8 187v919h172v-966q0 -140 -22 -230q-29 -111 -113 -198q-171 -177 -416 -177q-233 0 -399 158q-92 89 -127 207q-24 82 -24 240v966zM563 1942l264 -252l-59 -58
l-311 201z" />
    <glyph glyph-name="Uacute" unicode="&#xda;" horiz-adv-x="1402" 
d="M324 1544h-172v-966q0 -158 24 -240q35 -118 127 -207q166 -158 399 -158q245 0 416 177q84 87 113 198q22 90 22 230v966h-172v-919q0 -140 -8 -187q-15 -104 -67 -168q-113 -137 -304 -137q-93 0 -172 39q-173 78 -200 274q-6 47 -6 179v919zM569 1718l275 275
l121 -133l-324 -228z" />
    <glyph glyph-name="Ucircumflex" unicode="&#xdb;" horiz-adv-x="1402" 
d="M152 1544h172v-919q0 -133 6 -179q27 -196 200 -274q79 -39 172 -39q191 0 304 137q52 64 67 168q8 47 8 187v919h172v-966q0 -140 -22 -230q-29 -111 -113 -198q-171 -177 -416 -177q-233 0 -399 158q-92 89 -127 207q-24 82 -24 240v966zM498 1726l-117 93l319 272
l324 -272l-119 -93l-205 175z" />
    <glyph glyph-name="Udieresis" unicode="&#xdc;" horiz-adv-x="1402" 
d="M152 1544h172v-919q0 -133 6 -179q27 -196 200 -274q79 -39 172 -39q191 0 304 137q52 64 67 168q8 47 8 187v919h172v-966q0 -140 -22 -230q-29 -111 -113 -198q-171 -177 -416 -177q-233 0 -399 158q-92 89 -127 207q-24 82 -24 240v966zM500 2025q47 0 78.5 -31.5
t31.5 -78.5t-31.5 -79t-78.5 -32q-44 0 -77.5 33.5t-33.5 77.5q0 47 32 78.5t79 31.5zM903 2025q47 0 79 -31.5t32 -78.5t-32 -79t-79 -32q-44 0 -77 33.5t-33 77.5q0 47 31.5 78.5t78.5 31.5z" />
    <glyph glyph-name="Yacute" unicode="&#xdd;" horiz-adv-x="1214" 
d="M522 664v-664h172v664l506 880h-199l-393 -688l-393 688h-199zM475 1718l275 275l120 -133l-323 -228z" />
    <glyph glyph-name="Thorn" unicode="&#xde;" horiz-adv-x="1030" 
d="M453 389h-125v-389h-172v1544h172v-287h82q265 0 383 -81q174 -119 174 -353q0 -218 -152 -334q-129 -100 -362 -100zM391 1098h-63v-549h114q353 0 353 278q0 171 -127 230q-87 41 -277 41z" />
    <glyph glyph-name="germandbls" unicode="&#xdf;" 
d="M311 0h-164v811h-90v152h90v294q0 213 80 316q113 143 326 143q171 0 285 -108q112 -106 112 -277q0 -95 -46 -176.5t-126 -122.5q153 -53 242 -194q88 -134 88 -299q0 -240 -174 -402q-175 -161 -414 -164v152q178 9 299 127t121 293q0 179 -123 284q-111 94 -297 109
v152q119 -2 192.5 65.5t73.5 183.5q0 99 -67 162.5t-168 63.5q-163 0 -213 -123q-27 -68 -27 -260v-1182z" />
    <glyph glyph-name="agrave" unicode="&#xe0;" 
d="M555 838q-141 0 -227 -103t-86 -243q0 -150 82 -254q88 -113 233 -113q151 0 240 108q82 101 82 256q0 150 -88 248q-88 101 -236 101zM870 963h164v-963h-164v133h-4q-127 -160 -331 -160q-203 0 -336 154q-125 143 -125 352q0 215 123 359q130 151 340 151
q203 0 329 -164h4v138zM514 1427l274 -274l-71 -86l-324 227z" />
    <glyph glyph-name="aacute" unicode="&#xe1;" 
d="M555 838q148 0 236 -101q88 -98 88 -248q0 -155 -82 -256q-89 -108 -240 -108q-145 0 -233 113q-82 104 -82 254q0 140 86 243t227 103zM1034 963h-164v-138h-4q-126 164 -329 164q-210 0 -340 -151q-123 -144 -123 -359q0 -209 125 -352q133 -154 336 -154
q204 0 331 160h4v-133h164v963zM438 1153l275 274l121 -133l-324 -227z" />
    <glyph glyph-name="acircumflex" unicode="&#xe2;" 
d="M555 838q-141 0 -227 -103t-86 -243q0 -150 82 -254q88 -113 233 -113q151 0 240 108q82 101 82 256q0 150 -88 248q-88 101 -236 101zM870 963h164v-963h-164v133h-4q-127 -160 -331 -160q-203 0 -336 154q-125 143 -125 352q0 215 123 359q130 151 340 151
q203 0 329 -164h4v138zM422 1047l-105 104l293 254l297 -254l-104 -104l-193 167z" />
    <glyph glyph-name="atilde" unicode="&#xe3;" 
d="M555 838q-141 0 -227 -103t-86 -243q0 -150 82 -254q88 -113 233 -113q151 0 240 108q82 101 82 256q0 150 -88 248q-88 101 -236 101zM870 963h164v-963h-164v133h-4q-127 -160 -331 -160q-203 0 -336 154q-125 143 -125 352q0 215 123 359q130 151 340 151
q203 0 329 -164h4v138zM403 1069l-94 80q64 143 180 143q69 0 142 -43q77 -44 102 -41q47 -3 92 88l95 -79q-59 -148 -191 -148q-64 0 -135 41q-71 44 -111 41q-45 3 -80 -82z" />
    <glyph glyph-name="adieresis" unicode="&#xe4;" 
d="M555 838q-138 0 -227 -103q-86 -103 -86 -243q0 -150 82 -254q88 -113 233 -113q151 0 240 108q82 101 82 256q0 150 -88 248q-88 101 -236 101zM870 963h164v-963h-164v133h-4q-127 -160 -331 -160q-203 0 -336 154q-125 143 -125 352q0 215 123 359q130 151 340 151
q203 0 329 -164h4v138zM389 1444q47 0 79 -32t32 -79t-32 -78.5t-79 -31.5q-44 0 -77 33t-33 77q0 47 31.5 79t78.5 32zM793 1444q47 0 78.5 -32t31.5 -79t-31.5 -78.5t-78.5 -31.5q-44 0 -77.5 33t-33.5 77q0 47 32 79t79 32z" />
    <glyph glyph-name="aring" unicode="&#xe5;" 
d="M555 838q-138 0 -227 -103q-86 -103 -86 -243q0 -150 82 -254q88 -113 233 -113q151 0 240 108q82 101 82 256q0 150 -88 248q-88 101 -236 101zM870 963h164v-963h-164v133h-4q-127 -160 -331 -160q-203 0 -336 154q-125 143 -125 352q0 215 123 359q130 151 340 151
q203 0 329 -164h4v138zM594 1581q82 0 140.5 -58.5t58.5 -140.5q0 -85 -57 -142.5t-142 -57.5q-82 0 -141.5 59t-59.5 141t59.5 140.5t141.5 58.5zM594 1479q-41 0 -69.5 -28t-28.5 -69q0 -38 30 -68t68 -30q41 0 68.5 28.5t27.5 69.5t-27.5 69t-68.5 28z" />
    <glyph glyph-name="ae" unicode="&#xe6;" horiz-adv-x="1726" 
d="M915 586h576q-17 107 -97.5 179.5t-185.5 72.5q-108 0 -194 -74q-84 -72 -99 -178zM467 457q-92 0 -160 -39q-84 -47 -84 -131q0 -83 84 -127q65 -35 158 -35q98 0 170 35q90 47 90 135q0 83 -92 127q-72 35 -166 35zM1657 446h-758q3 -141 90 -231q90 -90 225 -90
q182 0 293 199l140 -80q-145 -271 -445 -271q-239 0 -368 191q-108 -191 -361 -191q-162 0 -278 72q-136 83 -136 238q0 157 127 243q110 76 275 76q155 0 274 -82q-3 318 -276 318q-112 0 -295 -62v156q186 57 305 57q117 0 209 -47q103 -52 147 -151q55 91 157 144.5
t216 53.5q224 0 350 -164q118 -148 109 -379z" />
    <glyph glyph-name="ccedilla" unicode="&#xe7;" horiz-adv-x="974" 
d="M870 893v-217h-4q-125 162 -299 162q-149 0 -243 -105q-97 -105 -97 -252q0 -146 90 -250q93 -106 242 -106q187 0 313 166h5v-219q-144 -99 -306 -99q-222 0 -366 144q-146 146 -146 364t148 363q151 145 366 145q160 0 297 -96zM512 -47l152 -62l-234 -299l-115 58z
" />
    <glyph glyph-name="egrave" unicode="&#xe8;" horiz-adv-x="1062" 
d="M993 446h-755q3 -140 88 -231q90 -90 227 -90q182 0 293 199l139 -80q-145 -271 -444 -271q-212 0 -344 144q-127 139 -127 352q0 223 120 367q126 153 347 153q224 0 350 -164q118 -148 106 -379zM246 586h575q-17 107 -97 179.5t-185 72.5q-109 0 -195 -74
q-83 -71 -98 -178zM440 1427l275 -274l-72 -86l-324 227z" />
    <glyph glyph-name="eacute" unicode="&#xe9;" horiz-adv-x="1062" 
d="M993 446q12 231 -106 379q-126 164 -350 164q-221 0 -347 -153q-120 -144 -120 -367q0 -213 127 -352q132 -144 344 -144q299 0 444 271l-139 80q-111 -199 -293 -199q-137 0 -227 90q-85 91 -88 231h755zM246 586q15 107 98 178q86 74 195 74q105 0 185 -72.5t97 -179.5
h-575zM362 1153l275 274l121 -133l-324 -227z" />
    <glyph glyph-name="ecircumflex" unicode="&#xea;" horiz-adv-x="1062" 
d="M993 446h-755q3 -140 88 -231q90 -90 227 -90q182 0 293 199l139 -80q-145 -271 -444 -271q-212 0 -344 144q-127 139 -127 352q0 223 120 367q126 153 347 153q224 0 350 -164q118 -148 106 -379zM246 586h575q-17 107 -97 179.5t-185 72.5q-109 0 -195 -74
q-83 -71 -98 -178zM348 1047l-104 104l293 254l297 -254l-105 -104l-192 167z" />
    <glyph glyph-name="edieresis" unicode="&#xeb;" horiz-adv-x="1062" 
d="M993 446h-755q3 -141 90 -231q90 -90 225 -90q182 0 293 199l139 -80q-145 -271 -444 -271q-212 0 -342 142q-129 141 -129 354q0 223 120 367q126 153 347 153q224 0 350 -164q118 -148 106 -379zM246 586h575q-17 107 -97 179.5t-185 72.5q-109 0 -195 -74
q-83 -71 -98 -178zM330 1444q47 0 78.5 -32t31.5 -79t-31.5 -78.5t-78.5 -31.5q-44 0 -77.5 33t-33.5 77q0 47 32 79t79 32zM733 1444q47 0 79 -32t32 -79t-32 -78.5t-79 -31.5q-44 0 -77 33t-33 77q0 47 31.5 79t78.5 32z" />
    <glyph glyph-name="igrave" unicode="&#xec;" horiz-adv-x="536" 
d="M186 963h164v-963h-164v963zM145 1427l275 -274l-72 -86l-323 227z" />
    <glyph glyph-name="iacute" unicode="&#xed;" horiz-adv-x="536" 
d="M350 963h-164v-963h164v963zM117 1153l274 274l121 -133l-324 -227z" />
    <glyph glyph-name="icircumflex" unicode="&#xee;" horiz-adv-x="536" 
d="M186 963h164v-963h-164v963zM63 1145l-116 92l319 272l324 -272l-119 -92l-205 174z" />
    <glyph glyph-name="idieresis" unicode="&#xef;" horiz-adv-x="536" 
d="M186 963h164v-963h-164v963zM68 1444q47 0 78.5 -32t31.5 -79t-31.5 -78.5t-78.5 -31.5q-44 0 -77.5 33t-33.5 77q0 47 32 79t79 32zM471 1444q47 0 79 -32t32 -79t-32 -78.5t-79 -31.5q-44 0 -77.5 33t-33.5 77q0 47 32 79t79 32z" />
    <glyph glyph-name="eth" unicode="&#xf0;" horiz-adv-x="1148" 
d="M586 838q-153 0 -248 -103q-94 -101 -94 -254t94 -254q95 -102 248 -102q150 0 245 102q97 105 97 254t-97 254q-95 103 -245 103zM72 1614l102 76l260 -211l256 211l88 -82l-254 -211q202 -157 355 -381q191 -272 200 -516q9 -215 -135 -371t-358 -156q-215 0 -361 146
q-145 145 -145 360t145 363q144 147 361 147q65 0 139 -39l4 4q-88 174 -307 357l-246 -205l-88 84l244 203q-97 92 -260 221z" />
    <glyph glyph-name="ntilde" unicode="&#xf1;" horiz-adv-x="1081" 
d="M156 963h163v-117h5q104 143 274 143q328 0 328 -418v-571h-164v543q0 143 -31 207q-43 88 -172 88q-153 0 -205 -125q-35 -84 -35 -256v-457h-163v963zM283 1204l-101 80q91 162 209 162q54 0 160 -47q109 -47 137 -47q63 0 115 98l96 -78q-67 -166 -217 -166
q-51 0 -150 45q-103 47 -147 47q-59 0 -102 -94z" />
    <glyph glyph-name="ograve" unicode="&#xf2;" horiz-adv-x="1150" 
d="M575 -27q-218 0 -362 144q-143 143 -143 362q0 220 143 363q144 147 362 147q217 0 361 -147q145 -145 145 -363q0 -217 -145 -362q-144 -144 -361 -144zM575 838q-152 0 -247 -103t-95 -254q0 -153 95 -256q93 -100 247 -100q153 0 246 100q97 105 97 256q0 149 -97 254
q-95 103 -246 103zM481 1427l275 -274l-72 -86l-324 227z" />
    <glyph glyph-name="oacute" unicode="&#xf3;" horiz-adv-x="1150" 
d="M575 -27q217 0 361 144q145 145 145 362q0 218 -145 363q-144 147 -361 147q-218 0 -362 -147q-143 -143 -143 -363q0 -219 143 -362q144 -144 362 -144zM575 838q151 0 246 -103q97 -105 97 -254q0 -151 -97 -256q-93 -100 -246 -100q-154 0 -247 100q-95 103 -95 256
q0 151 95 254t247 103zM393 1153l275 274l120 -133l-323 -227z" />
    <glyph glyph-name="ocircumflex" unicode="&#xf4;" horiz-adv-x="1150" 
d="M575 -27q-218 0 -362 144q-143 143 -143 362q0 220 143 363q144 147 362 147q217 0 361 -147q145 -145 145 -363q0 -217 -145 -362q-144 -144 -361 -144zM575 838q-152 0 -247 -103t-95 -254q0 -153 95 -256q93 -100 247 -100q153 0 246 100q97 105 97 256q0 149 -97 254
q-95 103 -246 103zM389 1049l-104 104l293 254l296 -254l-104 -104l-192 168z" />
    <glyph glyph-name="otilde" unicode="&#xf5;" horiz-adv-x="1150" 
d="M575 -27q-218 0 -362 144q-143 143 -143 362q0 220 143 363q144 147 362 147q217 0 361 -147q145 -145 145 -363q0 -217 -145 -362q-144 -144 -361 -144zM575 838q-152 0 -247 -103t-95 -254q0 -153 95 -256q93 -100 247 -100q153 0 246 100q97 105 97 256q0 149 -97 254
q-95 103 -246 103zM360 1069l-94 80q64 143 180 143q69 0 142 -43q77 -44 102 -41q47 -3 92 88l95 -79q-59 -148 -191 -148q-64 0 -135 41q-71 44 -111 41q-45 3 -80 -82z" />
    <glyph glyph-name="odieresis" unicode="&#xf6;" horiz-adv-x="1150" 
d="M575 -27q-214 0 -360 146q-145 145 -145 360t145 363q144 147 360 147q217 0 361 -147q145 -148 145 -363t-145 -360q-146 -146 -361 -146zM575 838q-152 0 -247 -103t-95 -254t95 -254q94 -102 247 -102q151 0 246 102q97 105 97 254t-97 254q-95 103 -246 103z
M375 1444q47 0 78.5 -32t31.5 -79t-31.5 -78.5t-78.5 -31.5q-44 0 -77.5 33t-33.5 77q0 47 32 79t79 32zM778 1444q47 0 79 -32t32 -79t-32 -78.5t-79 -31.5q-44 0 -77 33t-33 77q0 47 31.5 79t78.5 32z" />
    <glyph glyph-name="divide" unicode="&#xf7;" horiz-adv-x="1261" 
d="M1126 444h-991v160h991v-160zM631 254q47 0 82 -35t35 -82q0 -49 -34 -83t-83 -34t-83 34t-34 83q0 47 35 82t82 35zM631 1028q47 0 82 -35t35 -82q0 -49 -33.5 -82.5t-83.5 -33.5t-83.5 33.5t-33.5 82.5q0 47 35 82t82 35z" />
    <glyph glyph-name="oslash" unicode="&#xf8;" horiz-adv-x="1150" 
d="M879 889l141 141l104 -102l-141 -142q98 -131 98 -307q0 -217 -145 -362q-144 -144 -361 -144q-174 0 -305 101l-145 -144l-105 105l144 143q-94 131 -94 301q0 215 145 363q144 147 360 147q163 0 304 -100zM283 289l481 493q-86 56 -189 56q-153 0 -247 -105
q-95 -103 -95 -256q0 -96 50 -188zM866 678l-483 -500q80 -53 192 -53q153 0 248 98t95 254q0 113 -52 201z" />
    <glyph glyph-name="ugrave" unicode="&#xf9;" horiz-adv-x="1048" 
d="M143 963h164v-537q0 -146 35 -211q50 -90 182 -90q133 0 183 90q34 64 34 211v537h164v-555q0 -435 -381 -435t-381 435v555zM383 1427l274 -274l-71 -86l-324 227z" />
    <glyph glyph-name="uacute" unicode="&#xfa;" horiz-adv-x="1048" 
d="M307 963h-164v-555q0 -435 381 -435t381 435v555h-164v-537q0 -147 -34 -211q-50 -90 -183 -90q-132 0 -182 90q-35 65 -35 211v537zM395 1153l275 274l121 -133l-324 -227z" />
    <glyph glyph-name="ucircumflex" unicode="&#xfb;" horiz-adv-x="1048" 
d="M143 963h164v-537q0 -146 35 -211q50 -90 182 -90q133 0 183 90q34 64 34 211v537h164v-555q0 -435 -381 -435t-381 435v555zM319 1145l-116 92l319 272l324 -272l-119 -92l-205 174z" />
    <glyph glyph-name="udieresis" unicode="&#xfc;" horiz-adv-x="1048" 
d="M143 963h164v-537q0 -146 35 -211q50 -90 182 -90q133 0 183 90q34 64 34 211v537h164v-555q0 -435 -381 -435t-381 435v555zM324 1444q47 0 78.5 -32t31.5 -79t-31.5 -78.5t-78.5 -31.5q-44 0 -77.5 33t-33.5 77q0 47 32 79t79 32zM727 1444q47 0 79 -32t32 -79
t-32 -78.5t-79 -31.5q-44 0 -77.5 33t-33.5 77q0 47 32 79t79 32z" />
    <glyph glyph-name="yacute" unicode="&#xfd;" horiz-adv-x="1019" 
d="M438 90l-311 -631h186l711 1504h-186l-312 -691l-340 691h-190zM395 1153l275 274l121 -133l-324 -227z" />
    <glyph glyph-name="thorn" unicode="&#xfe;" 
d="M147 1690h164v-865h4q123 164 332 164q205 0 336 -155q125 -143 125 -355q0 -215 -123 -356q-129 -150 -340 -150t-330 162h-4v-676h-164v2231zM616 838q-138 0 -227 -103q-86 -103 -86 -243q0 -150 82 -254q88 -113 233 -113q152 0 240 108q82 101 82 256q0 150 -88 248
q-88 101 -236 101z" />
    <glyph glyph-name="ydieresis" unicode="&#xff;" horiz-adv-x="1019" 
d="M127 -541l311 631l-442 873h190l340 -691l312 691h186l-711 -1504h-186zM309 1444q47 0 79 -32t32 -79t-32 -78.5t-79 -31.5q-44 0 -77 33t-33 77q0 47 31.5 79t78.5 32zM713 1444q47 0 78.5 -32t31.5 -79t-31.5 -78.5t-78.5 -31.5q-44 0 -77.5 33t-33.5 77q0 47 32 79
t79 32z" />
    <glyph glyph-name="glyph271" unicode="&#x102;" horiz-adv-x="1431" 
d="M1229 0l-182 438h-660l-186 -438h-189l713 1618l694 -1618h-190zM457 598h522l-258 619zM436 1862l113 77q40 -106 178 -112q138 6 178 112l111 -77q-65 -174 -287 -183q-228 9 -293 183z" />
    <glyph glyph-name="glyph272" unicode="&#x103;" 
d="M555 838q-141 0 -227 -103t-86 -243q0 -150 82 -254q88 -113 233 -113q151 0 240 108q82 101 82 256q0 150 -88 248q-88 101 -236 101zM870 963h164v-963h-164v133h-4q-127 -160 -331 -160q-203 0 -336 154q-125 143 -125 352q0 215 123 359q130 151 340 151
q203 0 329 -164h4v138zM328 1239l112 78q40 -107 178 -113q139 6 179 113l110 -78q-65 -173 -286 -182q-228 9 -293 182z" />
    <glyph glyph-name="Cacute" unicode="&#x106;" horiz-adv-x="1456" 
d="M1333 1419v-213q-199 205 -471 205q-260 0 -442 -188q-180 -186 -180 -451q0 -262 182 -450q183 -189 444 -189q262 0 467 205v-213q-211 -152 -461 -152q-333 0 -569 230q-235 229 -235 563q0 336 233 569q236 236 571 236q256 0 461 -152zM522 1710l244 336l172 -78
l-313 -315z" />
    <glyph glyph-name="cacute" unicode="&#x107;" horiz-adv-x="903" 
d="M870 893v-217h-4q-125 162 -299 162q-149 0 -243 -105q-97 -105 -97 -252q0 -146 90 -250q93 -106 242 -106q187 0 313 166h5v-219q-144 -99 -306 -99q-222 0 -366 144q-146 146 -146 364t148 363q151 145 366 145q160 0 297 -96zM115 1188l243 336l172 -78l-313 -316z
" />
    <glyph glyph-name="Ccaron" unicode="&#x10c;" horiz-adv-x="1456" 
d="M1333 1419v-213q-199 205 -471 205q-260 0 -442 -188q-180 -186 -180 -451q0 -262 182 -450q183 -189 444 -189q262 0 467 205v-213q-211 -152 -461 -152q-333 0 -569 230q-235 229 -235 563q0 336 233 569q236 236 571 236q256 0 461 -152zM1049 2032l116 -93l-319 -272
l-324 272l119 93l205 -174z" />
    <glyph glyph-name="ccaron" unicode="&#x10d;" horiz-adv-x="903" 
d="M870 893v-217h-4q-125 162 -299 162q-149 0 -243 -105q-97 -105 -97 -252q0 -146 90 -250q93 -106 242 -106q187 0 313 166h5v-219q-144 -99 -306 -99q-222 0 -366 144q-146 146 -146 364t148 363q151 145 366 145q160 0 297 -96zM641 1509l117 -92l-320 -272l-323 272
l118 92l205 -174z" />
    <glyph glyph-name="Dslash" unicode="&#x110;" horiz-adv-x="1388" 
d="M442 0h-286v686h-156v160h156v698h290q192 0 320 -35q158 -44 283 -151q256 -218 256 -588q0 -350 -252 -575q-131 -116 -283 -160q-125 -35 -328 -35zM328 686v-526h125q301 0 483 153q197 164 197 459t-197 459q-182 153 -483 153h-125v-538h342v-160h-342z" />
    <glyph glyph-name="dslash" unicode="&#x111;" 
d="M555 838q-141 0 -227 -103t-86 -243q0 -150 82 -254q88 -113 233 -113q151 0 240 108q82 101 82 256q0 150 -88 248q-88 101 -236 101zM870 825v305h-288v160h288v400h164v-400h148v-160h-148v-1130h-164v133h-4q-124 -160 -331 -160q-203 0 -336 154q-125 143 -125 352
q0 215 123 359q130 151 340 151q203 0 329 -164h4z" />
    <glyph glyph-name="Gbreve" unicode="&#x11e;" horiz-adv-x="1570" 
d="M948 616v160h643q3 -175 -24 -289q-39 -142 -135 -256q-104 -122 -255.5 -190t-316.5 -68q-328 0 -563 232q-231 234 -231 563q0 339 233 569q234 234 571 234q399 0 654 -334l-125 -117q-204 291 -531 291q-266 0 -448 -188t-182 -457q0 -253 182 -444
q186 -189 436 -189q212 0 377 133q174 137 174 350h-459zM563 1989h142q53 -140 194 -140q142 0 195 140h141q-15 -125 -111 -203q-94 -76 -225 -76q-129 0 -223 76q-98 80 -113 203z" />
    <glyph glyph-name="gbreve" unicode="&#x11f;" horiz-adv-x="1007" 
d="M545 838q-139 0 -228 -103q-86 -103 -86 -243q0 -150 82 -254q88 -113 234 -113q151 0 239 108q82 101 82 256q0 150 -88 248q-88 101 -235 101zM860 963h164v-916q0 -150 -12 -217q-21 -114 -86 -197q-132 -170 -373 -170q-205 0 -338 121q-132 120 -135 322h164
q1 -133 86 -212t221 -79q309 0 309 403v115h-4q-124 -160 -334 -160q-205 0 -336 152q-123 141 -123 352q0 216 125 359q132 153 340 153q205 0 328 -164h4v138zM154 1466h141q53 -139 194 -139q142 0 195 139h141q-15 -125 -110 -202q-94 -76 -226 -76q-129 0 -223 76
q-97 79 -112 202z" />
    <glyph glyph-name="glyph273" unicode="&#x128;" horiz-adv-x="489" 
d="M160 1544h172v-1544h-172v1544zM37 1677l-94 80q65 144 180 144q68 0 141 -43q77 -44 103 -41q47 -3 92 88l94 -80q-59 -148 -191 -148q-64 0 -135 41q-71 44 -110 41q-45 3 -80 -82z" />
    <glyph glyph-name="glyph274" unicode="&#x129;" horiz-adv-x="536" 
d="M186 963h164v-963h-164v963zM57 1069l-94 80q64 143 180 143q69 0 142 -43q77 -44 102 -41q47 -3 92 88l94 -79q-59 -148 -190 -148q-64 0 -135 41q-71 44 -111 41q-45 3 -80 -82z" />
    <glyph glyph-name="Idot" unicode="&#x130;" horiz-adv-x="878" 
d="M160 1544h172v-1544h-172v1544zM422 1989q47 0 78.5 -32t31.5 -79t-31.5 -79t-78.5 -32q-44 0 -77.5 33.5t-33.5 77.5q0 47 32 79t79 32z" />
    <glyph glyph-name="dotlessi" unicode="&#x131;" horiz-adv-x="536" 
d="M186 963h164v-963h-164v963z" />
    <glyph glyph-name="Lslash" unicode="&#x141;" horiz-adv-x="768" 
d="M328 1544v-616l266 184v-178l-266 -184v-590h426v-160h-598v657l-156 -108v178l156 111v706h172z" />
    <glyph glyph-name="lslash" unicode="&#x142;" horiz-adv-x="528" 
d="M342 1690v-740l152 111v-180l-152 -111v-770h-164v680l-149 -111v181l149 110v830h164z" />
    <glyph glyph-name="OE" unicode="&#x152;" horiz-adv-x="2437" 
d="M2300 0h-807v297h-4q-98 -153 -259 -238.5t-347 -85.5q-336 0 -572 230q-233 230 -233 567t233 567q237 234 572 234q184 0 343.5 -87t262.5 -243h4v303h807v-160h-635v-458h616v-160h-616v-606h635v-160zM883 1411q-271 0 -451 -186q-182 -185 -182 -453
q0 -265 182 -453q183 -186 451 -186t448 186q185 188 185 453q0 267 -183 453q-180 186 -450 186z" />
    <glyph glyph-name="oe" unicode="&#x153;" horiz-adv-x="1925" 
d="M1855 446h-759q3 -141 90 -231q90 -90 225 -90q182 0 293 199l139 -80q-145 -271 -444 -271q-123 0 -233.5 63.5t-164.5 166.5q-60 -107 -177 -168.5t-249 -61.5q-214 0 -360 146q-145 145 -145 360t145 363q147 150 360 147q134 -3 248 -63q119 -61 178 -170
q55 107 161.5 169t232.5 64q225 3 352 -162q120 -153 108 -381zM1110 586h576q-17 107 -97.5 179.5t-185.5 72.5q-109 0 -195 -74q-83 -71 -98 -178zM580 838q-153 0 -248 -103q-94 -101 -94 -254t94 -254q94 -102 248 -102q150 0 245 102q97 105 97 254t-97 254
q-95 103 -245 103z" />
    <glyph glyph-name="Scedilla" unicode="&#x15e;" horiz-adv-x="1343" 
d="M993 1331l-137 -88q-94 168 -266 168q-107 0 -181.5 -68.5t-74.5 -171.5q0 -89 82 -153q46 -38 159 -88l103 -45q182 -79 260 -158q111 -108 111 -276q0 -201 -142 -340q-138 -138 -344 -138q-184 0 -314 108.5t-167 291.5l168 47q18 -125 103 -206t206 -81q128 0 223 86
t95 215q0 120 -89 197q-57 51 -196 110l-94 41q-162 70 -236 144q-100 100 -100 252q0 176 131 286q122 107 301 107q270 0 399 -240zM436 -47l152 -62l-234 -299l-114 58z" />
    <glyph glyph-name="scedilla" unicode="&#x15f;" horiz-adv-x="784" 
d="M682 811l-137 -72q-43 99 -131 99q-45 0 -82 -32t-37 -75q0 -71 117 -123q176 -78 213 -102q116 -79 116 -219q0 -138 -94 -226t-231 -88q-122 0 -212 64.5t-128 179.5l145 62q71 -154 197 -154q68 0 111.5 40.5t43.5 106.5q0 89 -124 152q-123 57 -197 90
q-113 73 -113 203q0 120 82 196t205 76q81 0 152.5 -50t103.5 -128zM238 -47l151 -62l-233 -299l-115 58z" />
    <glyph glyph-name="Scaron" unicode="&#x160;" horiz-adv-x="1144" 
d="M993 1331l-137 -88q-94 168 -266 168q-107 0 -181.5 -68.5t-74.5 -171.5q0 -89 82 -153q46 -38 159 -88l103 -45q182 -79 260 -158q111 -108 111 -276q0 -201 -142 -340q-138 -138 -344 -138q-184 0 -314 108.5t-167 291.5l168 47q18 -125 103 -206t206 -81q128 0 223 86
t95 215q0 120 -89 197q-57 51 -196 110l-94 41q-162 70 -236 144q-100 100 -100 252q0 176 131 286q122 107 301 107q270 0 399 -240zM778 2091l117 -92l-320 -273l-323 273l119 92l204 -174z" />
    <glyph glyph-name="scaron" unicode="&#x161;" horiz-adv-x="817" 
d="M682 811l-137 -72q-43 99 -131 99q-45 0 -82 -32t-37 -75q0 -71 117 -123q176 -78 213 -102q116 -79 116 -219q0 -138 -94 -226t-231 -88q-122 0 -212 64.5t-128 179.5l145 62q71 -154 197 -154q68 0 111.5 40.5t43.5 106.5q0 89 -124 152q-123 57 -197 90
q-113 73 -113 203q0 120 82 196t205 76q81 0 152.5 -50t103.5 -128zM614 1509l117 -92l-319 -272l-324 272l119 92l205 -174z" />
    <glyph glyph-name="ch903" unicode="&#x168;" horiz-adv-x="1402" 
d="M152 1544h172v-919q0 -133 6 -179q27 -196 200 -274q79 -39 172 -39q191 0 304 137q52 64 67 168q8 47 8 187v919h172v-966q0 -140 -22 -230q-29 -111 -113 -198q-171 -177 -416 -177q-233 0 -399 158q-92 89 -127 207q-24 82 -24 240v966zM496 1677l-95 80
q65 144 181 144q68 0 141 -43q77 -44 102 -41q48 -3 93 88l94 -80q-59 -148 -191 -148q-64 0 -135 41q-71 44 -111 41q-44 3 -79 -82z" />
    <glyph glyph-name="ch904" unicode="&#x169;" horiz-adv-x="1048" 
d="M143 963h164v-537q0 -146 35 -211q50 -90 182 -90q133 0 183 90q34 64 34 211v537h164v-555q0 -435 -381 -435t-381 435v555zM324 1069l-95 80q64 143 181 143q68 0 141 -43q77 -44 102 -41q47 -3 92 88l95 -79q-59 -148 -191 -148q-64 0 -135 41q-71 44 -111 41
q-44 3 -79 -82z" />
    <glyph glyph-name="Ydieresis" unicode="&#x178;" horiz-adv-x="1214" 
d="M522 0v664l-506 880h199l393 -688l393 688h199l-506 -880v-664h-172zM406 2025q47 0 78.5 -31.5t31.5 -78.5t-31.5 -79t-78.5 -32q-44 0 -77.5 33.5t-33.5 77.5q0 47 32 78.5t79 31.5zM809 2025q47 0 79 -31.5t32 -78.5t-32 -79t-79 -32q-44 0 -77.5 33.5t-33.5 77.5
q0 47 32 78.5t79 31.5z" />
    <glyph glyph-name="Zcaron" unicode="&#x17d;" horiz-adv-x="1200" 
d="M1157 1544l-844 -1384h822v-160h-1106l841 1384h-735v160h1022zM805 2091l117 -92l-320 -273l-323 273l118 92l205 -174z" />
    <glyph glyph-name="zcaron" unicode="&#x17e;" horiz-adv-x="1062" 
d="M1044 963l-692 -811h664v-152h-996l695 811h-565v152h894zM737 1509l117 -92l-319 -272l-324 272l119 92l205 -174z" />
    <glyph glyph-name="florin" unicode="&#x192;" horiz-adv-x="1261" 
d="M1102 1690l-31 -154q-57 23 -102 23q-100 0 -140 -82q-25 -53 -45 -170l-51 -279h246l-23 -139h-247l-119 -643q-28 -141 -39 -191q-62 -234 -229 -307q-103 -44 -209 -35l-103 8l33 154l70 -2q161 -3 231 113q40 67 78 268l117 635h-168l22 139h172l58 324
q30 176 94 258q81 106 246 106q77 0 139 -26z" />
    <glyph glyph-name="glyph277" unicode="&#x1a0;" horiz-adv-x="1765" 
d="M883 1571q184 0 340 -72h75q91 -2 91 82q0 51 -29 111h174q18 -67 18 -115q-3 -162 -125 -215l25 -25q236 -230 236 -567t-236 -567q-233 -230 -569 -230t-572 230q-233 230 -233 567t233 567q237 234 572 234zM883 1411q-271 0 -451 -186q-182 -185 -182 -453
q0 -265 182 -453q183 -186 451 -186t448 186q185 188 185 453q0 267 -183 453q-180 186 -450 186z" />
    <glyph glyph-name="glyph278" unicode="&#x1a1;" horiz-adv-x="1150" 
d="M575 -27q-214 0 -360 146q-145 145 -145 360t145 363q144 147 360 147q131 0 238 -55h45q47 -1 66.5 20.5t19.5 40.5q0 67 -29 111h166q19 -55 19 -113q-3 -148 -127 -192q108 -138 108 -322q0 -215 -145 -360q-146 -146 -361 -146zM575 838q-152 0 -247 -103t-95 -254
t95 -254q94 -102 247 -102q151 0 246 102q97 105 97 254t-97 254q-95 103 -246 103z" />
    <glyph glyph-name="glyph279" unicode="&#x1af;" horiz-adv-x="1484" 
d="M152 1544h172v-919q0 -133 6 -179q27 -196 200 -274q79 -39 172 -39q191 0 304 137q52 64 67 168q8 47 8 187v919h170q34 3 47 25q19 29 19 57q0 51 -29 111h174q19 -71 19 -115q-3 -224 -228 -236v-808q0 -140 -22 -230q-29 -111 -113 -198q-171 -177 -416 -177
q-233 0 -399 158q-92 89 -127 207q-24 82 -24 240v966z" />
    <glyph glyph-name="glyph280" unicode="&#x1b0;" horiz-adv-x="1095" 
d="M143 963h164v-537q0 -146 35 -211q50 -90 182 -90q133 0 183 90q34 64 34 211v537h164q10 7 15 14q16 29 16 37q0 66 -29 110h166q19 -55 19 -112q-3 -183 -187 -207v-397q0 -435 -381 -435t-381 435v555z" />
    <glyph glyph-name="circumflex" unicode="&#x2c6;" horiz-adv-x="962" 
d="M276 1145l-116 92l319 272l324 -272l-119 -92l-205 174z" />
    <glyph glyph-name="caron" unicode="&#x2c7;" horiz-adv-x="962" 
d="M686 1509l117 -92l-320 -272l-323 272l119 92l204 -174z" />
    <glyph glyph-name="breve" unicode="&#x2d8;" horiz-adv-x="993" 
d="M162 1466h141q53 -139 195 -139q141 0 194 139h142q-15 -124 -111 -202q-94 -76 -225 -76q-130 0 -224 76q-97 79 -112 202z" />
    <glyph glyph-name="dotaccent" unicode="&#x2d9;" horiz-adv-x="733" 
d="M367 1466q47 0 78.5 -31.5t31.5 -78.5t-31.5 -79t-78.5 -32q-44 0 -77.5 33.5t-33.5 77.5q0 47 32 78.5t79 31.5z" />
    <glyph glyph-name="ring" unicode="&#x2da;" horiz-adv-x="716" 
d="M360 1581q82 0 140.5 -58.5t58.5 -140.5q0 -85 -57 -142.5t-142 -57.5q-82 0 -141 59t-59 141t59 140.5t141 58.5zM360 1479q-41 0 -69.5 -28t-28.5 -69q0 -38 30 -68t68 -30q41 0 69 28.5t28 69.5t-28 69t-69 28z" />
    <glyph glyph-name="ogonek" unicode="&#x2db;" horiz-adv-x="690" 
d="M330 0h131v-4q-164 -111 -164 -205q0 -92 113 -92q64 0 122 37l-20 -135q-64 -31 -129 -31q-90 0 -154 49q-69 51 -69 141q0 135 170 240z" />
    <glyph glyph-name="tilde" unicode="&#x2dc;" horiz-adv-x="1036" 
d="M260 1204l-100 80q91 162 209 162q53 0 159 -47q109 -47 138 -47q62 0 114 98l97 -78q-67 -166 -218 -166q-50 0 -149 45q-103 47 -148 47q-59 0 -102 -94z" />
    <glyph glyph-name="hungarumlaut" unicode="&#x2dd;" horiz-adv-x="956" 
d="M301 1548l156 -28l-195 -326l-82 23zM623 1548l155 -28l-194 -326l-82 23z" />
    <glyph glyph-name="glyph281" unicode="&#x1ea0;" horiz-adv-x="1431" 
d="M1229 0l-182 438h-660l-186 -438h-189l713 1618l694 -1618h-190zM457 598h522l-258 619zM723 -123q44 0 76 -31t32 -75q0 -45 -32 -78t-76 -33t-76.5 33.5t-32.5 77.5t32 75t77 31z" />
    <glyph glyph-name="glyph282" unicode="&#x1ea1;" 
d="M555 838q-141 0 -227 -103t-86 -243q0 -150 82 -254q88 -113 233 -113q151 0 240 108q82 101 82 256q0 150 -88 248q-88 101 -236 101zM870 963h164v-963h-164v133h-4q-127 -160 -331 -160q-203 0 -336 154q-125 143 -125 352q0 215 123 359q130 151 340 151
q203 0 329 -164h4v138zM569 -117q45 0 77 -31t32 -75t-32.5 -77.5t-76.5 -33.5t-76 33t-32 78q0 44 32 75t76 31z" />
    <glyph glyph-name="glyph283" unicode="&#x1ea2;" horiz-adv-x="1431" 
d="M1229 0l-182 438h-660l-186 -438h-189l713 1618l694 -1618h-190zM457 598h522l-258 619zM788 1679h-126q-4 58 6 91.5t49 58.5q3 2 15.5 10.5t16.5 12t14.5 11.5t15 13.5t10 13.5t8 15.5t2.5 15.5q0 70 -82 70q-100 0 -90 -136l-115 46q-11 104 61 170q63 51 150 51
q98 0 154 -56q55 -52 55 -147q-2 -31 -10.5 -54.5t-25.5 -42t-26 -25.5t-32 -23q-2 -2 -6 -5t-5 -4q-23 -16 -31 -32t-8 -54z" />
    <glyph glyph-name="glyph284" unicode="&#x1ea3;" 
d="M555 838q-141 0 -227 -103t-86 -243q0 -150 82 -254q88 -113 233 -113q151 0 240 108q82 101 82 256q0 150 -88 248q-88 101 -236 101zM870 963h164v-963h-164v133h-4q-127 -160 -331 -160q-203 0 -336 154q-125 143 -125 352q0 215 123 359q130 151 340 151
q203 0 329 -164h4v138zM672 1067h-127q-4 58 6 91.5t49 58.5q3 2 15.5 10.5t16.5 12t14.5 11.5t15 13.5t10 13.5t8 15.5t2.5 15.5q0 69 -82 69q-100 0 -90 -135l-115 45q-11 103 62 170q63 51 149 51q99 0 154 -55q55 -52 55 -147q-2 -31 -10.5 -55t-25.5 -42t-26.5 -26
t-31.5 -23q-2 -2 -5.5 -4.5t-4.5 -3.5q-23 -16 -31 -32t-8 -54z" />
    <glyph glyph-name="glyph285" unicode="&#x1ea4;" horiz-adv-x="1431" 
d="M1047 438l182 -438h190l-694 1618l-713 -1618h189l186 438h660zM979 598h-522l264 619zM434 1782l105 -105l188 168l193 -168l104 105l-297 254zM887 2023l274 275l121 -133l-324 -228z" />
    <glyph glyph-name="glyph286" unicode="&#x1ea5;" 
d="M555 838q148 0 236 -101q88 -98 88 -248q0 -155 -82 -256q-89 -108 -240 -108q-145 0 -233 113q-82 104 -82 254q0 140 86 243t227 103zM1034 963h-164v-138h-4q-126 164 -329 164q-210 0 -340 -151q-123 -144 -123 -359q0 -209 125 -352q133 -154 336 -154
q204 0 331 160h4v-133h164v963zM317 1151l105 -104l188 167l193 -167l104 104l-297 254zM770 1393l274 274l121 -133l-323 -227z" />
    <glyph glyph-name="glyph287" unicode="&#x1ea6;" horiz-adv-x="1431" 
d="M1229 0l-182 438h-660l-186 -438h-189l713 1618l694 -1618h-190zM457 598h522l-258 619zM539 1677l-105 105l293 254l297 -254l-104 -105l-193 168zM831 2296l275 -275l-72 -86l-323 228z" />
    <glyph glyph-name="glyph288" unicode="&#x1ea7;" 
d="M555 838q-141 0 -227 -103t-86 -243q0 -150 82 -254q88 -113 233 -113q151 0 240 108q82 101 82 256q0 150 -88 248q-88 101 -236 101zM870 963h164v-963h-164v133h-4q-127 -160 -331 -160q-203 0 -336 154q-125 143 -125 352q0 215 123 359q130 151 340 151
q203 0 329 -164h4v138zM422 1047l-105 104l293 254l297 -254l-104 -104l-193 167zM715 1665l274 -274l-71 -86l-324 227z" />
    <glyph glyph-name="glyph289" unicode="&#x1ea8;" horiz-adv-x="1431" 
d="M1229 0l-182 438h-660l-186 -438h-189l713 1618l694 -1618h-190zM457 598h522l-258 619zM539 1677l-105 105l293 254l297 -254l-104 -105l-193 168zM1051 1937h-127q-4 58 6 91.5t49 58.5q3 2 15.5 10.5t16.5 12t14.5 11.5t15 13.5t10 13.5t8 15.5t2.5 15.5q0 70 -82 70
q-100 0 -90 -135l-115 45q-11 103 62 170q63 51 149 51q98 0 154 -56q55 -52 55 -147q-2 -31 -10.5 -54.5t-25.5 -42t-26 -25.5t-32 -23q-2 -2 -5.5 -5t-4.5 -4q-23 -16 -31 -32t-8 -54z" />
    <glyph glyph-name="glyph290" unicode="&#x1ea9;" 
d="M555 838q-141 0 -227 -103t-86 -243q0 -150 82 -254q88 -113 233 -113q151 0 240 108q82 101 82 256q0 150 -88 248q-88 101 -236 101zM870 963h164v-963h-164v133h-4q-127 -160 -331 -160q-203 0 -336 154q-125 143 -125 352q0 215 123 359q130 151 340 151
q203 0 329 -164h4v138zM422 1047l-105 104l293 254l297 -254l-104 -104l-193 167zM934 1307h-127q-3 58 6.5 91t48.5 58q3 2 15.5 10.5t16.5 12t14.5 11.5t15 13.5t10 13.5t8 15.5t2.5 15.5q0 70 -82 70q-100 0 -90 -135l-115 45q-11 103 62 170q63 51 149 51q99 0 154 -55
q55 -52 55 -148q-2 -31 -10.5 -54.5t-25.5 -42t-26 -25.5t-32 -23q-2 -2 -5.5 -4.5t-4.5 -3.5q-23 -16 -31 -32t-8 -54z" />
    <glyph glyph-name="glyph291" unicode="&#x1eaa;" horiz-adv-x="1431" 
d="M1229 0l-182 438h-660l-186 -438h-189l713 1618l694 -1618h-190zM457 598h522l-258 619zM539 1677l-105 105l293 254l297 -254l-104 -105l-193 168zM512 2089l-94 80q64 143 180 143q68 0 141 -43q77 -44 103 -41q47 -3 92 88l94 -80q-58 -147 -190 -147q-65 0 -136 41
q-71 44 -110 41q-45 3 -80 -82z" />
    <glyph glyph-name="glyph292" unicode="&#x1eab;" 
d="M555 838q-141 0 -227 -103t-86 -243q0 -150 82 -254q88 -113 233 -113q151 0 240 108q82 101 82 256q0 150 -88 248q-88 101 -236 101zM870 963h164v-963h-164v133h-4q-127 -160 -331 -160q-203 0 -336 154q-125 143 -125 352q0 215 123 359q130 151 340 151
q203 0 329 -164h4v138zM422 1047l-105 104l293 254l297 -254l-104 -104l-193 167zM395 1458l-94 80q64 143 180 143q69 0 142 -43q77 -44 102 -41q47 -3 92 89l94 -80q-59 -148 -190 -148q-64 0 -135 41q-71 44 -111 41q-45 3 -80 -82z" />
    <glyph glyph-name="glyph293" unicode="&#x1eac;" horiz-adv-x="1431" 
d="M1229 0l-182 438h-660l-186 -438h-189l713 1618l694 -1618h-190zM457 598h522l-258 619zM539 1677l-105 105l293 254l297 -254l-104 -105l-193 168zM723 -123q44 0 76 -31t32 -75q0 -45 -32 -78t-76 -33t-76.5 33.5t-32.5 77.5t32 75t77 31z" />
    <glyph glyph-name="glyph294" unicode="&#x1ead;" 
d="M555 838q-141 0 -227 -103t-86 -243q0 -150 82 -254q88 -113 233 -113q151 0 240 108q82 101 82 256q0 150 -88 248q-88 101 -236 101zM870 963h164v-963h-164v133h-4q-127 -160 -331 -160q-203 0 -336 154q-125 143 -125 352q0 215 123 359q130 151 340 151
q203 0 329 -164h4v138zM422 1047l-105 104l293 254l297 -254l-104 -104l-193 167zM569 -117q45 0 77 -31t32 -75t-32.5 -77.5t-76.5 -33.5t-76 33t-32 78q0 44 32 75t76 31z" />
    <glyph glyph-name="glyph295" unicode="&#x1eae;" horiz-adv-x="1431" 
d="M1047 438l182 -438h190l-694 1618l-713 -1618h189l186 438h660zM979 598h-522l264 619zM436 1862q65 -174 293 -183q222 9 287 183l-111 77q-40 -106 -178 -112q-138 6 -178 112zM627 2023l274 275l121 -133l-324 -228z" />
    <glyph glyph-name="glyph296" unicode="&#x1eaf;" 
d="M555 838q148 0 236 -101q88 -98 88 -248q0 -155 -82 -256q-89 -108 -240 -108q-145 0 -233 113q-82 104 -82 254q0 140 86 243t227 103zM1034 963h-164v-138h-4q-126 164 -329 164q-210 0 -340 -151q-123 -144 -123 -359q0 -209 125 -352q133 -154 336 -154
q204 0 331 160h4v-133h164v963zM328 1239q65 -173 293 -182q221 9 286 182l-110 78q-40 -107 -179 -113q-138 6 -178 113zM518 1401l275 274l120 -133l-323 -227z" />
    <glyph glyph-name="glyph297" unicode="&#x1eb0;" horiz-adv-x="1431" 
d="M1229 0l-182 438h-660l-186 -438h-189l713 1618l694 -1618h-190zM457 598h522l-258 619zM436 1862l113 77q40 -106 178 -112q138 6 178 112l111 -77q-65 -174 -287 -183q-228 9 -293 183zM555 2300l274 -275l-71 -86l-324 228z" />
    <glyph glyph-name="glyph298" unicode="&#x1eb1;" 
d="M555 838q-141 0 -227 -103t-86 -243q0 -150 82 -254q88 -113 233 -113q151 0 240 108q82 101 82 256q0 150 -88 248q-88 101 -236 101zM870 963h164v-963h-164v133h-4q-127 -160 -331 -160q-203 0 -336 154q-125 143 -125 352q0 215 123 359q130 151 340 151
q203 0 329 -164h4v138zM328 1239l112 78q40 -107 178 -113q139 6 179 113l110 -78q-65 -173 -286 -182q-228 9 -293 182zM446 1677l275 -274l-72 -86l-323 227z" />
    <glyph glyph-name="glyph299" unicode="&#x1eb2;" horiz-adv-x="1431" 
d="M1229 0l-182 438h-660l-186 -438h-189l713 1618l694 -1618h-190zM457 598h522l-258 619zM436 1862l113 77q40 -106 178 -112q138 6 178 112l111 -77q-65 -174 -287 -183q-228 9 -293 183zM788 1939h-126q-4 58 6 91.5t49 58.5q3 2 15.5 10.5t16.5 12t14.5 11.5t15 13.5
t10 13.5t8 15.5t2.5 15.5q0 70 -82 70q-100 0 -90 -135l-115 45q-11 104 61 170q63 51 150 51q99 0 154 -55q55 -52 55 -148q-2 -31 -10.5 -54.5t-25.5 -42t-26 -25.5t-32 -23q-2 -2 -6 -5t-5 -4q-23 -16 -31 -32t-8 -54z" />
    <glyph glyph-name="glyph300" unicode="&#x1eb3;" 
d="M555 838q-141 0 -227 -103t-86 -243q0 -150 82 -254q88 -113 233 -113q151 0 240 108q82 101 82 256q0 150 -88 248q-88 101 -236 101zM870 963h164v-963h-164v133h-4q-127 -160 -331 -160q-203 0 -336 154q-125 143 -125 352q0 215 123 359q130 151 340 151
q203 0 329 -164h4v138zM328 1239l112 78q40 -107 178 -113q139 6 179 113l110 -78q-65 -173 -286 -182q-228 9 -293 182zM680 1317h-127q-3 58 6.5 91t48.5 58q2 2 13 9.5t14.5 10t13.5 10t13.5 12t10.5 11.5t9.5 12.5t5 13t2.5 14.5q0 69 -82 69q-100 0 -90 -135l-115 45
q-11 103 62 170q63 51 149 51q99 0 154 -55q55 -52 55 -148q-2 -31 -10.5 -54.5t-25.5 -42t-26 -25.5t-32 -23q-2 -2 -5.5 -4.5t-4.5 -3.5q-23 -16 -31 -32t-8 -54z" />
    <glyph glyph-name="glyph301" unicode="&#x1eb4;" horiz-adv-x="1431" 
d="M1229 0l-182 438h-660l-186 -438h-189l713 1618l694 -1618h-190zM457 598h522l-258 619zM436 1862l113 77q40 -106 178 -112q138 6 178 112l111 -77q-65 -174 -287 -183q-228 9 -293 183zM514 1999l-94 80q64 143 180 143q68 0 141 -43q77 -44 103 -41q47 -3 92 88
l94 -80q-59 -147 -190 -147q-64 0 -135 41q-71 44 -111 41q-45 3 -80 -82z" />
    <glyph glyph-name="glyph302" unicode="&#x1eb5;" 
d="M555 838q-141 0 -227 -103t-86 -243q0 -150 82 -254q88 -113 233 -113q151 0 240 108q82 101 82 256q0 150 -88 248q-88 101 -236 101zM870 963h164v-963h-164v133h-4q-127 -160 -331 -160q-203 0 -336 154q-125 143 -125 352q0 215 123 359q130 151 340 151
q203 0 329 -164h4v138zM328 1239l112 78q40 -107 178 -113q139 6 179 113l110 -78q-65 -173 -286 -182q-228 9 -293 182zM406 1376l-95 80q64 143 181 143q68 0 141 -43q76 -43 102 -40q47 -3 92 88l95 -80q-59 -148 -191 -148q-64 0 -135 41q-71 44 -111 41q-44 3 -79 -82z
" />
    <glyph glyph-name="glyph303" unicode="&#x1eb6;" horiz-adv-x="1431" 
d="M1229 0l-182 438h-660l-186 -438h-189l713 1618l694 -1618h-190zM457 598h522l-258 619zM436 1862l113 77q40 -106 178 -112q138 6 178 112l111 -77q-65 -174 -287 -183q-228 9 -293 183zM723 -123q44 0 76 -31t32 -75q0 -45 -32 -78t-76 -33t-76.5 33.5t-32.5 77.5
t32 75t77 31z" />
    <glyph glyph-name="glyph304" unicode="&#x1eb7;" 
d="M555 838q-141 0 -227 -103t-86 -243q0 -150 82 -254q88 -113 233 -113q151 0 240 108q82 101 82 256q0 150 -88 248q-88 101 -236 101zM870 963h164v-963h-164v133h-4q-127 -160 -331 -160q-203 0 -336 154q-125 143 -125 352q0 215 123 359q130 151 340 151
q203 0 329 -164h4v138zM328 1239l112 78q40 -107 178 -113q139 6 179 113l110 -78q-65 -173 -286 -182q-228 9 -293 182zM569 -117q45 0 77 -31t32 -75t-32.5 -77.5t-76.5 -33.5t-76 33t-32 78q0 44 32 75t76 31z" />
    <glyph glyph-name="glyph305" unicode="&#x1eb8;" horiz-adv-x="1093" 
d="M956 0h-800v1544h800v-160h-628v-458h610v-160h-610v-606h628v-160zM551 -123q44 0 76 -31t32 -75q0 -45 -32 -78t-76 -33t-76.5 33.5t-32.5 77.5t32 75t77 31z" />
    <glyph glyph-name="glyph306" unicode="&#x1eb9;" horiz-adv-x="1062" 
d="M993 446h-755q3 -140 88 -231q90 -90 227 -90q182 0 293 199l139 -80q-145 -271 -444 -271q-212 0 -344 144q-127 139 -127 352q0 223 120 367q126 153 347 153q224 0 350 -164q118 -148 106 -379zM246 586h575q-17 107 -97 179.5t-185 72.5q-109 0 -195 -74
q-83 -71 -98 -178zM539 -117q44 0 76 -31t32 -75q0 -45 -32 -78t-76 -33t-76.5 33.5t-32.5 77.5t32 75t77 31z" />
    <glyph glyph-name="glyph307" unicode="&#x1eba;" horiz-adv-x="1093" 
d="M956 0h-800v1544h800v-160h-628v-458h610v-160h-610v-606h628v-160zM623 1679h-127q-4 58 6 91.5t49 58.5q3 2 15.5 10.5t16.5 12t14.5 11.5t15 13.5t10 13.5t8 15.5t2.5 15.5q0 70 -82 70q-100 0 -90 -136l-115 46q-11 103 62 170q63 51 149 51q98 0 154 -56
q55 -52 55 -147q-2 -31 -10.5 -54.5t-25.5 -42t-26 -25.5t-32 -23q-2 -2 -5.5 -5t-4.5 -4q-23 -16 -31 -32t-8 -54z" />
    <glyph glyph-name="glyph308" unicode="&#x1ebb;" horiz-adv-x="1062" 
d="M993 446h-755q3 -140 88 -231q90 -90 227 -90q182 0 293 199l139 -80q-145 -271 -444 -271q-212 0 -344 144q-127 139 -127 352q0 223 120 367q126 153 347 153q224 0 350 -164q118 -148 106 -379zM246 586h575q-17 107 -97 179.5t-185 72.5q-109 0 -195 -74
q-83 -71 -98 -178zM602 1067h-127q-4 58 6 91.5t49 58.5q3 2 15.5 10.5t16.5 12t14.5 11.5t15 13.5t10 13.5t8 15.5t2.5 15.5q0 69 -82 69q-100 0 -90 -135l-114 45q-11 104 61 170q63 51 150 51q98 0 153 -55q55 -52 55 -147q-2 -31 -10.5 -55t-25.5 -42t-26.5 -26
t-31.5 -23q-2 -2 -5.5 -4.5t-4.5 -3.5q-23 -16 -31 -32t-8 -54z" />
    <glyph glyph-name="glyph309" unicode="&#x1ebc;" horiz-adv-x="1093" 
d="M956 0h-800v1544h800v-160h-628v-458h610v-160h-610v-606h628v-160zM338 1677l-94 80q64 144 180 144q68 0 141 -43q77 -44 103 -41q47 -3 92 88l94 -80q-59 -148 -190 -148q-65 0 -136 41q-71 44 -110 41q-45 3 -80 -82z" />
    <glyph glyph-name="glyph310" unicode="&#x1ebd;" horiz-adv-x="1062" 
d="M993 446h-755q3 -140 88 -231q90 -90 227 -90q182 0 293 199l139 -80q-145 -271 -444 -271q-212 0 -344 144q-127 139 -127 352q0 223 120 367q126 153 347 153q224 0 350 -164q118 -148 106 -379zM246 586h575q-17 107 -97 179.5t-185 72.5q-109 0 -195 -74
q-83 -71 -98 -178zM324 1069l-95 80q64 143 181 143q68 0 141 -43q77 -44 102 -41q47 -3 92 88l95 -79q-59 -148 -191 -148q-64 0 -135 41q-71 44 -111 41q-44 3 -79 -82z" />
    <glyph glyph-name="glyph311" unicode="&#x1ebe;" horiz-adv-x="1093" 
d="M156 0h800v160h-628v606h610v160h-610v458h628v160h-800v-1544zM266 1739l105 -105l188 168l193 -168l104 105l-297 254zM719 1980l274 275l121 -133l-323 -228z" />
    <glyph glyph-name="glyph312" unicode="&#x1ebf;" horiz-adv-x="1062" 
d="M993 446q12 231 -106 379q-126 164 -350 164q-221 0 -347 -153q-120 -144 -120 -367q0 -213 127 -352q132 -144 344 -144q299 0 444 271l-139 80q-111 -199 -293 -199q-137 0 -227 90q-85 91 -88 231h755zM246 586q15 107 98 178q86 74 195 74q105 0 185 -72.5t97 -179.5
h-575zM244 1151l104 -104l189 167l192 -167l105 104l-297 254zM696 1393l275 274l121 -133l-324 -227z" />
    <glyph glyph-name="glyph313" unicode="&#x1ec0;" horiz-adv-x="1093" 
d="M956 0h-800v1544h800v-160h-628v-458h610v-160h-610v-606h628v-160zM371 1634l-105 105l293 254l297 -254l-104 -105l-193 168zM664 2253l274 -275l-72 -86l-323 228z" />
    <glyph glyph-name="glyph314" unicode="&#x1ec1;" horiz-adv-x="1062" 
d="M993 446h-755q3 -140 88 -231q90 -90 227 -90q182 0 293 199l139 -80q-145 -271 -444 -271q-212 0 -344 144q-127 139 -127 352q0 223 120 367q126 153 347 153q224 0 350 -164q118 -148 106 -379zM246 586h575q-17 107 -97 179.5t-185 72.5q-109 0 -195 -74
q-83 -71 -98 -178zM348 1047l-104 104l293 254l297 -254l-105 -104l-192 167zM641 1665l274 -274l-71 -86l-324 227z" />
    <glyph glyph-name="glyph315" unicode="&#x1ec2;" horiz-adv-x="1093" 
d="M956 0h-800v1544h800v-160h-628v-458h610v-160h-610v-606h628v-160zM371 1634l-105 105l293 254l297 -254l-104 -105l-193 168zM883 1894h-127q-4 58 6 91.5t49 58.5q3 2 15.5 10.5t16.5 12t14.5 11.5t15 13.5t10 13.5t8 15.5t2.5 15.5q0 70 -82 70q-100 0 -90 -135
l-115 45q-11 103 62 170q63 51 149 51q98 0 154 -56q55 -52 55 -147q-2 -31 -10.5 -54.5t-25.5 -42t-26 -25.5t-32 -23q-2 -2 -5.5 -5t-4.5 -4q-23 -16 -31 -32t-8 -54z" />
    <glyph glyph-name="glyph316" unicode="&#x1ec3;" horiz-adv-x="1062" 
d="M993 446h-755q3 -140 88 -231q90 -90 227 -90q182 0 293 199l139 -80q-145 -271 -444 -271q-212 0 -344 144q-127 139 -127 352q0 223 120 367q126 153 347 153q224 0 350 -164q118 -148 106 -379zM246 586h575q-17 107 -97 179.5t-185 72.5q-109 0 -195 -74
q-83 -71 -98 -178zM348 1047l-104 104l293 254l297 -254l-105 -104l-192 167zM860 1307h-127q-3 58 6.5 91t48.5 58q3 2 15.5 10.5t16.5 12t14.5 11.5t15 13.5t10 13.5t8 15.5t2.5 15.5q0 70 -82 70q-100 0 -90 -135l-114 45q-11 104 61 170q63 51 150 51q98 0 153 -55
q56 -53 56 -148q-2 -25 -9.5 -47t-14 -34t-24 -27.5t-22.5 -19l-25 -17.5q-2 -2 -5.5 -4.5t-4.5 -3.5q-23 -16 -31 -32t-8 -54z" />
    <glyph glyph-name="glyph317" unicode="&#x1ec4;" horiz-adv-x="1093" 
d="M956 0h-800v1544h800v-160h-628v-458h610v-160h-610v-606h628v-160zM371 1634l-105 105l293 254l297 -254l-104 -105l-193 168zM344 2046l-94 80q64 143 180 143q68 0 141 -43q77 -44 103 -41q47 -3 92 88l94 -80q-58 -147 -190 -147q-64 0 -135 41q-71 44 -111 41
q-45 3 -80 -82z" />
    <glyph glyph-name="glyph318" unicode="&#x1ec5;" horiz-adv-x="1062" 
d="M993 446h-755q3 -140 88 -231q90 -90 227 -90q182 0 293 199l139 -80q-145 -271 -444 -271q-212 0 -344 144q-127 139 -127 352q0 223 120 367q126 153 347 153q224 0 350 -164q118 -148 106 -379zM246 586h575q-17 107 -97 179.5t-185 72.5q-109 0 -195 -74
q-83 -71 -98 -178zM348 1047l-104 104l293 254l297 -254l-105 -104l-192 167zM322 1458l-95 80q64 143 181 143q68 0 141 -43q77 -44 102 -41q47 -3 92 89l95 -80q-59 -148 -191 -148q-64 0 -135 41q-71 44 -111 41q-44 3 -79 -82z" />
    <glyph glyph-name="glyph319" unicode="&#x1ec6;" horiz-adv-x="1093" 
d="M956 0h-800v1544h800v-160h-628v-458h610v-160h-610v-606h628v-160zM371 1634l-105 105l293 254l297 -254l-104 -105l-193 168zM551 -123q44 0 76 -31t32 -75q0 -45 -32 -78t-76 -33t-76.5 33.5t-32.5 77.5t32 75t77 31z" />
    <glyph glyph-name="glyph320" unicode="&#x1ec7;" horiz-adv-x="1062" 
d="M993 446h-755q3 -140 88 -231q90 -90 227 -90q182 0 293 199l139 -80q-145 -271 -444 -271q-212 0 -344 144q-127 139 -127 352q0 223 120 367q126 153 347 153q224 0 350 -164q118 -148 106 -379zM246 586h575q-17 107 -97 179.5t-185 72.5q-109 0 -195 -74
q-83 -71 -98 -178zM348 1047l-104 104l293 254l297 -254l-105 -104l-192 167zM539 -117q44 0 76 -31t32 -75q0 -45 -32 -78t-76 -33t-76.5 33.5t-32.5 77.5t32 75t77 31z" />
    <glyph glyph-name="glyph321" unicode="&#x1ec8;" horiz-adv-x="489" 
d="M160 1544h172v-1544h-172v1544zM307 1679h-127q-3 57 7 90.5t49 59.5q3 2 13.5 9.5t14.5 10t13 10t13 11.5t10.5 11t9 13t5 13t2.5 14q0 70 -81 70q-42 0 -69 -30t-22 -106l-114 46q-11 104 61 170q63 51 150 51q97 0 153 -56q56 -53 56 -147q-2 -25 -9.5 -47t-14 -34
t-24 -27.5t-22.5 -19l-25 -17.5q-2 -2 -5.5 -5t-4.5 -4q-23 -16 -31 -32t-8 -54z" />
    <glyph glyph-name="glyph322" unicode="&#x1ec9;" horiz-adv-x="536" 
d="M186 963h164v-963h-164v963zM334 1067h-127q-4 58 6 91.5t49 58.5q3 2 15.5 10.5t16.5 12t14.5 11.5t15 13.5t10 13.5t8 15.5t2.5 15.5q0 69 -82 69q-100 0 -90 -135l-115 45q-11 103 62 170q63 51 149 51q99 0 154 -55q55 -52 55 -147q-2 -31 -10.5 -55t-25.5 -42
t-26.5 -26t-31.5 -23q-2 -2 -5.5 -4.5t-4.5 -3.5q-23 -16 -31 -32t-8 -54z" />
    <glyph glyph-name="glyph323" unicode="&#x1eca;" horiz-adv-x="489" 
d="M160 1544h172v-1544h-172v1544zM246 -123q44 0 76 -31t32 -75q0 -45 -32 -78t-76 -33t-76.5 33.5t-32.5 77.5t32 75t77 31z" />
    <glyph glyph-name="glyph324" unicode="&#x1ecb;" horiz-adv-x="536" 
d="M186 963h164v-963h-164v963zM268 1290q43 0 74 -30.5t31 -73.5q0 -44 -30.5 -74.5t-74.5 -30.5t-74 30.5t-30 74.5q0 43 30.5 73.5t73.5 30.5zM272 -117q45 0 77 -31t32 -75t-32.5 -77.5t-76.5 -33.5t-76 33t-32 78q0 44 32 75t76 31z" />
    <glyph glyph-name="glyph325" unicode="&#x1ecc;" horiz-adv-x="1765" 
d="M883 1571q336 0 571 -232q234 -231 234 -569q0 -336 -234 -567q-233 -230 -571 -230q-339 0 -572 230t-233 567q0 339 233 569q235 232 572 232zM883 1411q-272 0 -453 -184q-180 -183 -180 -455q0 -267 182 -455q181 -184 451 -184q269 0 450 184q183 189 183 455
q0 269 -183 455q-181 184 -450 184zM883 -123q44 0 76 -31t32 -75q0 -45 -32 -78t-76 -33t-76.5 33.5t-32.5 77.5t32 75t77 31z" />
    <glyph glyph-name="glyph326" unicode="&#x1ecd;" horiz-adv-x="1150" 
d="M575 -27q-218 0 -362 144q-143 143 -143 362q0 220 143 363q144 147 362 147q217 0 361 -147q145 -145 145 -363q0 -217 -145 -362q-144 -144 -361 -144zM575 838q-152 0 -247 -103t-95 -254q0 -153 95 -256q93 -100 247 -100q153 0 246 100q97 105 97 256q0 149 -97 254
q-95 103 -246 103zM578 -117q44 0 76 -31t32 -75q0 -45 -32 -78t-76 -33t-76.5 33.5t-32.5 77.5t32 75t77 31z" />
    <glyph glyph-name="glyph327" unicode="&#x1ece;" horiz-adv-x="1765" 
d="M883 1571q336 0 571 -232q234 -231 234 -569q0 -336 -234 -567q-233 -230 -571 -230q-339 0 -572 230t-233 567q0 339 233 569q235 232 572 232zM883 1411q-272 0 -453 -184q-180 -183 -180 -455q0 -267 182 -455q181 -184 451 -184q269 0 450 184q183 189 183 455
q0 269 -183 455q-181 184 -450 184zM944 1679h-127q-4 58 6 91.5t49 58.5q3 2 15.5 10.5t16.5 12t14.5 11.5t15 13.5t10 13.5t8 15.5t2.5 15.5q0 70 -82 70q-100 0 -90 -136l-114 46q-11 104 61 170q63 51 150 51q97 0 153 -56q55 -52 55 -147q-2 -31 -10.5 -54.5t-25.5 -42
t-26 -25.5t-32 -23q-2 -2 -5.5 -5t-4.5 -4q-23 -16 -31 -32t-8 -54z" />
    <glyph glyph-name="glyph328" unicode="&#x1ecf;" horiz-adv-x="1150" 
d="M575 -27q-218 0 -362 144q-143 143 -143 362q0 220 143 363q144 147 362 147q217 0 361 -147q145 -145 145 -363q0 -217 -145 -362q-144 -144 -361 -144zM575 838q-152 0 -247 -103t-95 -254q0 -153 95 -256q93 -100 247 -100q153 0 246 100q97 105 97 256q0 149 -97 254
q-95 103 -246 103zM641 1067h-127q-4 58 6 91.5t49 58.5q3 2 15.5 10.5t16.5 12t14.5 11.5t15 13.5t10 13.5t8 15.5t2.5 15.5q0 69 -82 69q-100 0 -90 -135l-114 45q-11 104 61 170q63 51 149 51q99 0 154 -55q55 -52 55 -147q-2 -31 -10.5 -55t-25.5 -42t-26.5 -26
t-31.5 -23q-2 -2 -5.5 -4.5t-4.5 -3.5q-23 -16 -31 -32t-8 -54z" />
    <glyph glyph-name="glyph329" unicode="&#x1ed0;" horiz-adv-x="1765" 
d="M883 1571q-337 0 -572 -232q-233 -230 -233 -569q0 -337 233 -567t572 -230q338 0 571 230q234 231 234 567q0 338 -234 569q-235 232 -571 232zM883 1411q269 0 450 -184q183 -186 183 -455q0 -266 -183 -455q-181 -184 -450 -184q-270 0 -451 184q-182 188 -182 455
q0 272 180 455q181 184 453 184zM590 1743l104 -105l189 168l192 -168l105 105l-297 254zM1042 1985l275 274l121 -133l-324 -228z" />
    <glyph glyph-name="glyph330" unicode="&#x1ed1;" horiz-adv-x="1150" 
d="M575 -27q217 0 361 144q145 145 145 362q0 218 -145 363q-144 147 -361 147q-218 0 -362 -147q-143 -143 -143 -363q0 -219 143 -362q144 -144 362 -144zM575 838q151 0 246 -103q97 -105 97 -254q0 -151 -97 -256q-93 -100 -246 -100q-154 0 -247 100q-95 103 -95 256
q0 151 95 254t247 103zM285 1153l104 -104l189 168l192 -168l104 104l-296 254zM737 1395l275 274l121 -133l-324 -227z" />
    <glyph glyph-name="glyph331" unicode="&#x1ed2;" horiz-adv-x="1765" 
d="M883 1571q336 0 571 -232q234 -231 234 -569q0 -336 -234 -567q-233 -230 -571 -230q-339 0 -572 230t-233 567q0 339 233 569q235 232 572 232zM883 1411q-272 0 -453 -184q-180 -183 -180 -455q0 -267 182 -455q181 -184 451 -184q269 0 450 184q183 189 183 455
q0 269 -183 455q-181 184 -450 184zM694 1638l-104 105l293 254l297 -254l-105 -105l-192 168zM987 2257l275 -275l-72 -86l-324 228z" />
    <glyph glyph-name="glyph332" unicode="&#x1ed3;" horiz-adv-x="1150" 
d="M575 -27q-218 0 -362 144q-143 143 -143 362q0 220 143 363q144 147 362 147q217 0 361 -147q145 -145 145 -363q0 -217 -145 -362q-144 -144 -361 -144zM575 838q-152 0 -247 -103t-95 -254q0 -153 95 -256q93 -100 247 -100q153 0 246 100q97 105 97 256q0 149 -97 254
q-95 103 -246 103zM389 1049l-104 104l293 254l296 -254l-104 -104l-192 168zM682 1667l274 -274l-71 -86l-324 227z" />
    <glyph glyph-name="glyph333" unicode="&#x1ed4;" horiz-adv-x="1765" 
d="M883 1571q336 0 571 -232q234 -231 234 -569q0 -336 -234 -567q-233 -230 -571 -230q-339 0 -572 230t-233 567q0 339 233 569q235 232 572 232zM883 1411q-272 0 -453 -184q-180 -183 -180 -455q0 -267 182 -455q181 -184 451 -184q269 0 450 184q183 189 183 455
q0 269 -183 455q-181 184 -450 184zM694 1638l-104 105l293 254l297 -254l-105 -105l-192 168zM1206 1898h-127q-3 57 7 90.5t49 59.5q3 2 15.5 10.5t16.5 12t14.5 11.5t15 13.5t10 13.5t8 15.5t2.5 15.5q0 70 -82 70q-101 0 -91 -135l-114 45q-11 104 61 170q63 51 150 51
q98 0 153 -55q56 -53 56 -148q-2 -25 -9.5 -47t-14 -34t-24 -27.5t-22.5 -19l-25 -17.5q-2 -2 -5.5 -4.5t-4.5 -3.5q-23 -16 -31 -32.5t-8 -54.5z" />
    <glyph glyph-name="glyph334" unicode="&#x1ed5;" horiz-adv-x="1150" 
d="M575 -27q-218 0 -362 144q-143 143 -143 362q0 220 143 363q144 147 362 147q217 0 361 -147q145 -145 145 -363q0 -217 -145 -362q-144 -144 -361 -144zM575 838q-152 0 -247 -103t-95 -254q0 -153 95 -256q93 -100 247 -100q153 0 246 100q97 105 97 256q0 149 -97 254
q-95 103 -246 103zM389 1049l-104 104l293 254l296 -254l-104 -104l-192 168zM901 1309h-127q-3 58 6.5 91t48.5 58q3 2 15.5 10.5t16.5 12t14.5 11.5t15 13.5t10 13.5t8 15.5t2.5 15.5q0 70 -82 70q-100 0 -90 -135l-114 45q-11 104 61 170q63 51 150 51q98 0 153 -55
q55 -52 55 -148q-2 -31 -10.5 -54.5t-25.5 -42t-26 -25.5t-32 -23q-2 -2 -5.5 -4.5t-4.5 -3.5q-23 -16 -31 -32t-8 -54z" />
    <glyph glyph-name="glyph335" unicode="&#x1ed6;" horiz-adv-x="1765" 
d="M883 1571q336 0 571 -232q234 -231 234 -569q0 -336 -234 -567q-233 -230 -571 -230q-339 0 -572 230t-233 567q0 339 233 569q235 232 572 232zM883 1411q-272 0 -453 -184q-180 -183 -180 -455q0 -267 182 -455q181 -184 451 -184q269 0 450 184q183 189 183 455
q0 269 -183 455q-181 184 -450 184zM694 1638l-104 105l293 254l297 -254l-105 -105l-192 168zM666 2050l-95 80q64 143 181 143q68 0 141 -43q77 -44 102 -41q47 -3 92 88l95 -79q-59 -148 -191 -148q-64 0 -135 41q-71 44 -111 41q-44 3 -79 -82z" />
    <glyph glyph-name="glyph336" unicode="&#x1ed7;" horiz-adv-x="1150" 
d="M575 -27q-218 0 -362 144q-143 143 -143 362q0 220 143 363q144 147 362 147q217 0 361 -147q145 -145 145 -363q0 -217 -145 -362q-144 -144 -361 -144zM575 838q-152 0 -247 -103t-95 -254q0 -153 95 -256q93 -100 247 -100q153 0 246 100q97 105 97 256q0 149 -97 254
q-95 103 -246 103zM389 1049l-104 104l293 254l296 -254l-104 -104l-192 168zM362 1460l-94 80q64 143 181 143q68 0 141 -43q77 -44 102 -41q47 -3 92 89l95 -80q-59 -148 -191 -148q-64 0 -135 41q-71 44 -111 41q-45 3 -80 -82z" />
    <glyph glyph-name="glyph337" unicode="&#x1ed8;" horiz-adv-x="1765" 
d="M883 1571q336 0 571 -232q234 -231 234 -569q0 -336 -234 -567q-233 -230 -571 -230q-339 0 -572 230t-233 567q0 339 233 569q235 232 572 232zM883 1411q-272 0 -453 -184q-180 -183 -180 -455q0 -267 182 -455q181 -184 451 -184q269 0 450 184q183 189 183 455
q0 269 -183 455q-181 184 -450 184zM694 1638l-104 105l293 254l297 -254l-105 -105l-192 168zM883 -123q44 0 76 -31t32 -75q0 -45 -32 -78t-76 -33t-76.5 33.5t-32.5 77.5t32 75t77 31z" />
    <glyph glyph-name="glyph338" unicode="&#x1ed9;" horiz-adv-x="1150" 
d="M575 -27q-218 0 -362 144q-143 143 -143 362q0 220 143 363q144 147 362 147q217 0 361 -147q145 -145 145 -363q0 -217 -145 -362q-144 -144 -361 -144zM575 838q-152 0 -247 -103t-95 -254q0 -153 95 -256q93 -100 247 -100q153 0 246 100q97 105 97 256q0 149 -97 254
q-95 103 -246 103zM389 1049l-104 104l293 254l296 -254l-104 -104l-192 168zM578 -117q44 0 76 -31t32 -75q0 -45 -32 -78t-76 -33t-76.5 33.5t-32.5 77.5t32 75t77 31z" />
    <glyph glyph-name="glyph339" unicode="&#x1eda;" horiz-adv-x="1765" 
d="M883 1571q-335 0 -572 -234q-233 -230 -233 -567t233 -567q236 -230 572 -230t569 230q236 230 236 567t-236 567l-25 25q122 53 125 215q0 47 -18 115h-174q29 -60 29 -111q0 -84 -91 -82h-75q-156 72 -340 72zM883 1411q270 0 450 -186q183 -186 183 -453
q0 -265 -185 -453q-180 -186 -448 -186t-451 186q-182 188 -182 453q0 268 182 453q180 186 451 186zM713 1747l274 274l121 -133l-324 -227z" />
    <glyph glyph-name="glyph340" unicode="&#x1edb;" horiz-adv-x="1150" 
d="M575 -27q215 0 361 146q145 145 145 360q0 184 -108 322q124 44 127 192q0 58 -19 113h-166q29 -44 29 -111q0 -19 -19.5 -40.5t-66.5 -20.5h-45q-107 55 -238 55q-216 0 -360 -147q-145 -148 -145 -363t145 -360q146 -146 360 -146zM575 838q151 0 246 -103
q97 -105 97 -254t-97 -254q-95 -102 -246 -102q-153 0 -247 102q-95 103 -95 254t95 254t247 103zM393 1153l275 274l120 -133l-323 -227z" />
    <glyph glyph-name="glyph341" unicode="&#x1edc;" horiz-adv-x="1765" 
d="M883 1571q184 0 340 -72h75q91 -2 91 82q0 51 -29 111h174q18 -67 18 -115q-3 -162 -125 -215l25 -25q236 -230 236 -567t-236 -567q-233 -230 -569 -230t-572 230q-233 230 -233 567t233 567q237 234 572 234zM883 1411q-271 0 -451 -186q-182 -185 -182 -453
q0 -265 182 -453q183 -186 451 -186t448 186q185 188 185 453q0 267 -183 453q-180 186 -450 186zM772 2019l275 -274l-72 -86l-324 227z" />
    <glyph glyph-name="glyph342" unicode="&#x1edd;" horiz-adv-x="1150" 
d="M575 -27q-214 0 -360 146q-145 145 -145 360t145 363q144 147 360 147q131 0 238 -55h45q47 -1 66.5 20.5t19.5 40.5q0 67 -29 111h166q19 -55 19 -113q-3 -148 -127 -192q108 -138 108 -322q0 -215 -145 -360q-146 -146 -361 -146zM575 838q-152 0 -247 -103t-95 -254
t95 -254q94 -102 247 -102q151 0 246 102q97 105 97 254t-97 254q-95 103 -246 103zM481 1427l275 -274l-72 -86l-324 227z" />
    <glyph glyph-name="glyph343" unicode="&#x1ede;" horiz-adv-x="1765" 
d="M883 1571q184 0 340 -72h75q91 -2 91 82q0 51 -29 111h174q18 -67 18 -115q-3 -162 -125 -215l25 -25q236 -230 236 -567t-236 -567q-233 -230 -569 -230t-572 230q-233 230 -233 567t233 567q237 234 572 234zM883 1411q-271 0 -451 -186q-182 -185 -182 -453
q0 -265 182 -453q183 -186 451 -186t448 186q185 188 185 453q0 267 -183 453q-180 186 -450 186zM944 1679h-127q-4 58 6 91.5t49 58.5q3 2 15.5 10.5t16.5 12t14.5 11.5t15 13.5t10 13.5t8 15.5t2.5 15.5q0 70 -82 70q-100 0 -90 -136l-114 46q-11 104 61 170
q63 51 150 51q97 0 153 -56q55 -52 55 -147q-2 -31 -10.5 -54.5t-25.5 -42t-26 -25.5t-32 -23q-2 -2 -5.5 -5t-4.5 -4q-23 -16 -31 -32t-8 -54z" />
    <glyph glyph-name="glyph344" unicode="&#x1edf;" horiz-adv-x="1150" 
d="M575 -27q-214 0 -360 146q-145 145 -145 360t145 363q144 147 360 147q131 0 238 -55h45q47 -1 66.5 20.5t19.5 40.5q0 67 -29 111h166q19 -55 19 -113q-3 -148 -127 -192q108 -138 108 -322q0 -215 -145 -360q-146 -146 -361 -146zM575 838q-152 0 -247 -103t-95 -254
t95 -254q94 -102 247 -102q151 0 246 102q97 105 97 254t-97 254q-95 103 -246 103zM641 1067h-127q-4 58 6 91.5t49 58.5q3 2 15.5 10.5t16.5 12t14.5 11.5t15 13.5t10 13.5t8 15.5t2.5 15.5q0 69 -82 69q-100 0 -90 -135l-114 45q-11 104 61 170q63 51 149 51
q99 0 154 -55q55 -52 55 -147q-2 -31 -10.5 -55t-25.5 -42t-26.5 -26t-31.5 -23q-2 -2 -5.5 -4.5t-4.5 -3.5q-23 -16 -31 -32t-8 -54z" />
    <glyph glyph-name="glyph345" unicode="&#x1ee0;" horiz-adv-x="1765" 
d="M883 1571q184 0 340 -72h75q91 -2 91 82q0 51 -29 111h174q18 -67 18 -115q-3 -162 -125 -215l25 -25q236 -230 236 -567t-236 -567q-233 -230 -569 -230t-572 230q-233 230 -233 567t233 567q237 234 572 234zM883 1411q-271 0 -451 -186q-182 -185 -182 -453
q0 -265 182 -453q183 -186 451 -186t448 186q185 188 185 453q0 267 -183 453q-180 186 -450 186zM670 1636l-95 80q65 144 181 144q68 0 141 -43q77 -44 102 -41q48 -3 93 88l94 -80q-59 -148 -191 -148q-64 0 -135 41q-71 44 -110 41q-45 3 -80 -82z" />
    <glyph glyph-name="glyph346" unicode="&#x1ee1;" horiz-adv-x="1150" 
d="M575 -27q-214 0 -360 146q-145 145 -145 360t145 363q144 147 360 147q131 0 238 -55h45q47 -1 66.5 20.5t19.5 40.5q0 67 -29 111h166q19 -55 19 -113q-3 -148 -127 -192q108 -138 108 -322q0 -215 -145 -360q-146 -146 -361 -146zM575 838q-152 0 -247 -103t-95 -254
t95 -254q94 -102 247 -102q151 0 246 102q97 105 97 254t-97 254q-95 103 -246 103zM360 1069l-94 80q64 143 180 143q69 0 142 -43q77 -44 102 -41q47 -3 92 88l95 -79q-59 -148 -191 -148q-64 0 -135 41q-71 44 -111 41q-45 3 -80 -82z" />
    <glyph glyph-name="glyph347" unicode="&#x1ee2;" horiz-adv-x="1765" 
d="M883 1571q184 0 340 -72h75q91 -2 91 82q0 51 -29 111h174q18 -67 18 -115q-3 -162 -125 -215l25 -25q236 -230 236 -567t-236 -567q-233 -230 -569 -230t-572 230q-233 230 -233 567t233 567q237 234 572 234zM883 1411q-271 0 -451 -186q-182 -185 -182 -453
q0 -265 182 -453q183 -186 451 -186t448 186q185 188 185 453q0 267 -183 453q-180 186 -450 186zM883 -123q44 0 76 -31t32 -75q0 -45 -32 -78t-76 -33t-76.5 33.5t-32.5 77.5t32 75t77 31z" />
    <glyph glyph-name="glyph348" unicode="&#x1ee3;" horiz-adv-x="1150" 
d="M575 -27q-214 0 -360 146q-145 145 -145 360t145 363q144 147 360 147q131 0 238 -55h45q47 -1 66.5 20.5t19.5 40.5q0 67 -29 111h166q19 -55 19 -113q-3 -148 -127 -192q108 -138 108 -322q0 -215 -145 -360q-146 -146 -361 -146zM575 838q-152 0 -247 -103t-95 -254
t95 -254q94 -102 247 -102q151 0 246 102q97 105 97 254t-97 254q-95 103 -246 103zM578 -117q44 0 76 -31t32 -75q0 -45 -32 -78t-76 -33t-76.5 33.5t-32.5 77.5t32 75t77 31z" />
    <glyph glyph-name="glyph349" unicode="&#x1ee4;" horiz-adv-x="1402" 
d="M152 1544h172v-919q0 -133 6 -179q27 -196 200 -274q79 -39 172 -39q191 0 304 137q52 64 67 168q8 47 8 187v919h172v-966q0 -140 -22 -230q-29 -111 -113 -198q-171 -177 -416 -177q-233 0 -399 158q-92 89 -127 207q-24 82 -24 240v966zM700 -123q45 0 77 -31t32 -75
t-32.5 -77.5t-76.5 -33.5t-76 33t-32 78q0 44 32 75t76 31z" />
    <glyph glyph-name="glyph350" unicode="&#x1ee5;" horiz-adv-x="1048" 
d="M143 963h164v-537q0 -146 35 -211q50 -90 182 -90q133 0 183 90q34 64 34 211v537h164v-555q0 -435 -381 -435t-381 435v555zM526 -117q45 0 77 -31t32 -75t-32.5 -77.5t-76.5 -33.5t-76 33t-32 78q0 44 32 75t76 31z" />
    <glyph glyph-name="glyph351" unicode="&#x1ee6;" horiz-adv-x="1402" 
d="M152 1544h172v-919q0 -133 6 -179q27 -196 200 -274q79 -39 172 -39q191 0 304 137q52 64 67 168q8 47 8 187v919h172v-966q0 -140 -22 -230q-29 -111 -113 -198q-171 -177 -416 -177q-233 0 -399 158q-92 89 -127 207q-24 82 -24 240v966zM784 1679h-127q-3 57 7 90.5
t49 59.5q3 2 15.5 10.5t16.5 12t14.5 11.5t15 13.5t10 13.5t8 15.5t2.5 15.5q0 70 -82 70q-100 0 -90 -136l-115 46q-11 104 61 170q63 51 150 51q97 0 153 -56q56 -53 56 -147q-2 -31 -10.5 -54.5t-25.5 -42t-26 -25.5t-32 -23q-2 -2 -6 -5t-5 -4q-23 -16 -31 -32t-8 -54z
" />
    <glyph glyph-name="glyph352" unicode="&#x1ee7;" horiz-adv-x="1048" 
d="M143 963h164v-537q0 -146 35 -211q50 -90 182 -90q133 0 183 90q34 64 34 211v537h164v-555q0 -435 -381 -435t-381 435v555zM600 1067h-127q-4 58 6 91.5t49 58.5q3 2 15.5 10.5t16.5 12t14.5 11.5t15 13.5t10 13.5t8 15.5t2.5 15.5q0 69 -82 69q-100 0 -90 -135
l-114 45q-11 104 61 170q63 51 150 51q98 0 153 -55q55 -52 55 -147q-2 -31 -10.5 -55t-25.5 -42t-26.5 -26t-31.5 -23q-2 -2 -5.5 -4.5t-4.5 -3.5q-23 -16 -31 -32t-8 -54z" />
    <glyph glyph-name="glyph353" unicode="&#x1ee8;" horiz-adv-x="1484" 
d="M324 1544h-172v-966q0 -158 24 -240q35 -118 127 -207q166 -158 399 -158q245 0 416 177q84 87 113 198q22 90 22 230v808q225 12 228 236q0 44 -19 115h-174q29 -60 29 -111q0 -28 -19 -57q-13 -22 -47 -25h-170v-919q0 -140 -8 -187q-15 -104 -67 -168
q-113 -137 -304 -137q-93 0 -172 39q-173 78 -200 274q-6 47 -6 179v919zM569 1718l275 275l121 -133l-324 -228z" />
    <glyph glyph-name="glyph354" unicode="&#x1ee9;" horiz-adv-x="1095" 
d="M307 963h-164v-555q0 -435 381 -435t381 435v397q184 24 187 207q0 57 -19 112h-166q29 -44 29 -110q0 -8 -16 -37q-5 -7 -15 -14h-164v-537q0 -147 -34 -211q-50 -90 -183 -90q-132 0 -182 90q-35 65 -35 211v537zM395 1153l275 274l121 -133l-324 -227z" />
    <glyph glyph-name="glyph355" unicode="&#x1eea;" horiz-adv-x="1484" 
d="M152 1544h172v-919q0 -133 6 -179q27 -196 200 -274q79 -39 172 -39q191 0 304 137q52 64 67 168q8 47 8 187v919h170q34 3 47 25q19 29 19 57q0 51 -29 111h174q19 -71 19 -115q-3 -224 -228 -236v-808q0 -140 -22 -230q-29 -111 -113 -198q-171 -177 -416 -177
q-233 0 -399 158q-92 89 -127 207q-24 82 -24 240v966zM563 1942l264 -252l-59 -58l-311 201z" />
    <glyph glyph-name="glyph356" unicode="&#x1eeb;" horiz-adv-x="1095" 
d="M143 963h164v-537q0 -146 35 -211q50 -90 182 -90q133 0 183 90q34 64 34 211v537h164q10 7 15 14q16 29 16 37q0 66 -29 110h166q19 -55 19 -112q-3 -183 -187 -207v-397q0 -435 -381 -435t-381 435v555zM383 1427l274 -274l-71 -86l-324 227z" />
    <glyph glyph-name="glyph357" unicode="&#x1eec;" horiz-adv-x="1484" 
d="M152 1544h172v-919q0 -133 6 -179q27 -196 200 -274q79 -39 172 -39q191 0 304 137q52 64 67 168q8 47 8 187v919h170q34 3 47 25q19 29 19 57q0 51 -29 111h174q19 -71 19 -115q-3 -224 -228 -236v-808q0 -140 -22 -230q-29 -111 -113 -198q-171 -177 -416 -177
q-233 0 -399 158q-92 89 -127 207q-24 82 -24 240v966zM784 1679h-127q-3 57 7 90.5t49 59.5q3 2 15.5 10.5t16.5 12t14.5 11.5t15 13.5t10 13.5t8 15.5t2.5 15.5q0 70 -82 70q-100 0 -90 -136l-115 46q-11 104 61 170q63 51 150 51q97 0 153 -56q56 -53 56 -147
q-2 -31 -10.5 -54.5t-25.5 -42t-26 -25.5t-32 -23q-2 -2 -6 -5t-5 -4q-23 -16 -31 -32t-8 -54z" />
    <glyph glyph-name="glyph358" unicode="&#x1eed;" horiz-adv-x="1095" 
d="M143 963h164v-537q0 -146 35 -211q50 -90 182 -90q133 0 183 90q34 64 34 211v537h164q10 7 15 14q16 29 16 37q0 66 -29 110h166q19 -55 19 -112q-3 -183 -187 -207v-397q0 -435 -381 -435t-381 435v555zM600 1067h-127q-4 58 6 91.5t49 58.5q3 2 15.5 10.5t16.5 12
t14.5 11.5t15 13.5t10 13.5t8 15.5t2.5 15.5q0 69 -82 69q-100 0 -90 -135l-114 45q-11 104 61 170q63 51 150 51q98 0 153 -55q55 -52 55 -147q-2 -31 -10.5 -55t-25.5 -42t-26.5 -26t-31.5 -23q-2 -2 -5.5 -4.5t-4.5 -3.5q-23 -16 -31 -32t-8 -54z" />
    <glyph glyph-name="glyph359" unicode="&#x1eee;" horiz-adv-x="1484" 
d="M152 1544h172v-919q0 -133 6 -179q27 -196 200 -274q79 -39 172 -39q191 0 304 137q52 64 67 168q8 47 8 187v919h170q34 3 47 25q19 29 19 57q0 51 -29 111h174q19 -71 19 -115q-3 -224 -228 -236v-808q0 -140 -22 -230q-29 -111 -113 -198q-171 -177 -416 -177
q-233 0 -399 158q-92 89 -127 207q-24 82 -24 240v966zM496 1677l-95 80q65 144 181 144q68 0 141 -43q77 -44 102 -41q48 -3 93 88l94 -80q-59 -148 -191 -148q-64 0 -135 41q-71 44 -111 41q-44 3 -79 -82z" />
    <glyph glyph-name="glyph360" unicode="&#x1eef;" horiz-adv-x="1095" 
d="M143 963h164v-537q0 -146 35 -211q50 -90 182 -90q133 0 183 90q34 64 34 211v537h164q10 7 15 14q16 29 16 37q0 66 -29 110h166q19 -55 19 -112q-3 -183 -187 -207v-397q0 -435 -381 -435t-381 435v555zM324 1069l-95 80q64 143 181 143q68 0 141 -43q77 -44 102 -41
q47 -3 92 88l95 -79q-59 -148 -191 -148q-64 0 -135 41q-71 44 -111 41q-44 3 -79 -82z" />
    <glyph glyph-name="glyph361" unicode="&#x1ef0;" horiz-adv-x="1484" 
d="M152 1544h172v-919q0 -133 6 -179q27 -196 200 -274q79 -39 172 -39q191 0 304 137q52 64 67 168q8 47 8 187v919h170q34 3 47 25q19 29 19 57q0 51 -29 111h174q19 -71 19 -115q-3 -224 -228 -236v-808q0 -140 -22 -230q-29 -111 -113 -198q-171 -177 -416 -177
q-233 0 -399 158q-92 89 -127 207q-24 82 -24 240v966zM700 -123q45 0 77 -31t32 -75t-32.5 -77.5t-76.5 -33.5t-76 33t-32 78q0 44 32 75t76 31z" />
    <glyph glyph-name="glyph362" unicode="&#x1ef1;" horiz-adv-x="1095" 
d="M143 963h164v-537q0 -146 35 -211q50 -90 182 -90q133 0 183 90q34 64 34 211v537h164q10 7 15 14q16 29 16 37q0 66 -29 110h166q19 -55 19 -112q-3 -183 -187 -207v-397q0 -435 -381 -435t-381 435v555zM526 -117q45 0 77 -31t32 -75t-32.5 -77.5t-76.5 -33.5t-76 33
t-32 78q0 44 32 75t76 31z" />
    <glyph glyph-name="glyph363" unicode="&#x1ef2;" horiz-adv-x="1214" 
d="M522 0v664l-506 880h199l393 -688l393 688h199l-506 -880v-664h-172zM510 1993l274 -275l-71 -86l-324 228z" />
    <glyph glyph-name="glyph364" unicode="&#x1ef3;" horiz-adv-x="1019" 
d="M127 -541l311 631l-442 873h190l340 -691l312 691h186l-711 -1504h-186zM391 1427l275 -274l-72 -86l-324 227z" />
    <glyph glyph-name="glyph365" unicode="&#x1ef4;" horiz-adv-x="1214" 
d="M522 0v664l-506 880h199l393 -688l393 688h199l-506 -880v-664h-172zM610 -92q44 0 76.5 -31.5t32.5 -75.5t-32.5 -77t-76.5 -33t-76 33t-32 77t32 75.5t76 31.5z" />
    <glyph glyph-name="glyph366" unicode="&#x1ef5;" horiz-adv-x="1019" 
d="M127 -541l311 631l-442 873h190l340 -691l312 691h186l-711 -1504h-186zM684 -117q45 0 77 -31t32 -75t-32.5 -77.5t-76.5 -33.5t-76.5 33.5t-32.5 77.5t32 75t77 31z" />
    <glyph glyph-name="glyph367" unicode="&#x1ef6;" horiz-adv-x="1214" 
d="M522 0v664l-506 880h199l393 -688l393 688h199l-506 -880v-664h-172zM666 1679h-127q-4 58 6 91.5t49 58.5q3 2 15.5 10.5t16.5 12t14.5 11.5t15 13.5t10 13.5t8 15.5t2.5 15.5q0 70 -82 70q-100 0 -90 -136l-115 46q-11 103 62 170q63 51 149 51q98 0 154 -56
q55 -52 55 -147q-2 -31 -10.5 -54.5t-25.5 -42t-26 -25.5t-32 -23q-2 -2 -5.5 -5t-4.5 -4q-23 -16 -31 -32t-8 -54z" />
    <glyph glyph-name="glyph368" unicode="&#x1ef7;" horiz-adv-x="1019" 
d="M127 -541l311 631l-442 873h190l340 -691l312 691h186l-711 -1504h-186zM590 1067h-127q-4 58 6 91.5t49 58.5q3 2 15.5 10.5t16.5 12t14.5 11.5t15 13.5t10 13.5t8 15.5t2.5 15.5q0 69 -82 69q-100 0 -90 -135l-115 45q-11 103 62 170q63 51 149 51q99 0 154 -55
q55 -52 55 -147q-2 -31 -10.5 -55t-25.5 -42t-26.5 -26t-31.5 -23q-2 -2 -5.5 -4.5t-4.5 -3.5q-23 -16 -31 -32t-8 -54z" />
    <glyph glyph-name="glyph369" unicode="&#x1ef8;" horiz-adv-x="1214" 
d="M522 0v664l-506 880h199l393 -688l393 688h199l-506 -880v-664h-172zM397 1677l-94 80q64 144 180 144q69 0 142 -43q77 -44 102 -41q47 -3 92 88l94 -80q-59 -148 -190 -148q-64 0 -135 41q-71 44 -111 41q-45 3 -80 -82z" />
    <glyph glyph-name="glyph370" unicode="&#x1ef9;" horiz-adv-x="1019" 
d="M127 -541l311 631l-442 873h190l340 -691l312 691h186l-711 -1504h-186zM303 1069l-94 80q64 143 180 143q68 0 141 -43q77 -44 103 -41q47 -3 92 88l94 -79q-59 -148 -190 -148q-64 0 -135 41q-71 44 -111 41q-45 3 -80 -82z" />
    <glyph glyph-name="uni1EFA" unicode="&#x1efa;" horiz-adv-x="999" 
d="M610 756l-235 2q-3 45 -0.5 84t11 71.5t30.5 62t59 54.5q86 60 112 87q40 42 40 83q0 66 -39 98.5t-107 32.5q-37 0 -66.5 -11t-56 -37t-39 -78t-6.5 -126l-215 84q-17 193 115 310q116 98 279 98q174 0 282 -105q101 -98 98 -268q-3 -46 -16 -86t-27.5 -65t-41.5 -51
t-42.5 -37t-44.5 -31q-3 -2 -10 -7.5t-10 -7.5q-41 -29 -55.5 -59t-14.5 -98zM1315 1341l-111 -2v160h94q91 -2 91 82q0 51 -29 111h174q18 -67 18 -115q-3 -227 -237 -236z" />
    <glyph glyph-name="endash" unicode="&#x2013;" horiz-adv-x="1024" 
d="M0 418v151h1024v-151h-1024z" />
    <glyph glyph-name="emdash" unicode="&#x2014;" horiz-adv-x="2048" 
d="M0 418v151h2048v-151h-2048z" />
    <glyph glyph-name="quoteleft" unicode="&#x2018;" horiz-adv-x="591" 
d="M469 1528l-193 -535l-151 56l233 522z" />
    <glyph glyph-name="quoteright" unicode="&#x2019;" horiz-adv-x="591" 
d="M123 1036l192 535l152 -55l-234 -523z" />
    <glyph glyph-name="quotesinglbase" unicode="&#x201a;" horiz-adv-x="591" 
d="M125 -307l192 532l152 -53l-233 -524z" />
    <glyph glyph-name="quotedblleft" unicode="&#x201c;" horiz-adv-x="935" 
d="M813 1528l-192 -535l-152 56l233 522zM469 1528l-193 -535l-151 56l233 522z" />
    <glyph glyph-name="quotedblright" unicode="&#x201d;" horiz-adv-x="935" 
d="M125 1036l192 535l152 -55l-233 -523zM469 1036l193 535l151 -55l-233 -523z" />
    <glyph glyph-name="quotedblbase" unicode="&#x201e;" horiz-adv-x="950" 
d="M125 -307l192 532l152 -53l-233 -524zM483 -307l193 532l151 -53l-233 -524z" />
    <glyph glyph-name="dagger" unicode="&#x2020;" horiz-adv-x="1212" 
d="M522 1165v379h168v-379h342v-159h-342v-1340h-168v1340h-342v159h342z" />
    <glyph glyph-name="daggerdbl" unicode="&#x2021;" horiz-adv-x="1212" 
d="M522 1165v379h168v-379h342v-159h-342v-744h342v-160h-342v-436h-168v436h-342v160h342v744h-342v159h342z" />
    <glyph glyph-name="bullet" unicode="&#x2022;" horiz-adv-x="1212" 
d="M606 387q-160 0 -274 111q-111 114 -111 274q0 164 111 275q109 112 274 112q166 0 275 -112q112 -109 112 -275q0 -162 -112 -274q-111 -111 -275 -111z" />
    <glyph glyph-name="ellipsis" unicode="&#x2026;" horiz-adv-x="2048" 
d="M344 203q47 0 81 -33t34 -80t-34 -82t-81 -35t-81 35t-34 82t34 80t81 33zM1024 203q47 0 81 -33t34 -80t-34 -82t-81 -35t-81 35t-34 82t34 80t81 33zM1704 203q47 0 81 -33t34 -80t-34 -82t-81 -35t-81 35t-34 82t34 80t81 33z" />
    <glyph glyph-name="perthousand" unicode="&#x2030;" horiz-adv-x="2482" 
d="M414 1571q142 0 243 -98q101 -94 101 -240q0 -142 -101 -240q-104 -96 -243 -96q-140 0 -244 96q-100 93 -100 240t100 240q101 98 244 98zM414 1440q-87 0 -150 -60.5t-63 -146.5t63 -145.5t150 -59.5t150 59.5t63 145.5t-63 146.5t-150 60.5zM328 27l899 1544l82 -49
l-893 -1549zM1229 647q143 0 244 -98q100 -93 100 -240q0 -142 -100 -239q-105 -97 -244 -97t-244 97q-100 93 -100 239q0 147 100 240q101 98 244 98zM1229 516q-87 0 -150 -60.5t-63 -146.5t63 -145.5t150 -59.5t150 59.5t63 145.5t-63 146.5t-150 60.5zM2068 647
q143 0 244 -98q101 -94 101 -240q0 -141 -101 -239q-105 -97 -244 -97q-138 0 -243 97q-101 94 -101 239q0 146 101 240q101 98 243 98zM2068 516q-87 0 -150 -60.5t-63 -146.5t63 -145.5t150 -59.5t150 59.5t63 145.5t-63 146.5t-150 60.5z" />
    <glyph glyph-name="guilsinglleft" unicode="&#x2039;" horiz-adv-x="675" 
d="M537 842l-277 -350l277 -340l-109 -84l-344 424l344 436z" />
    <glyph glyph-name="guilsinglright" unicode="&#x203a;" horiz-adv-x="675" 
d="M248 68l-109 84l277 340l-277 350l109 86l344 -436z" />
    <glyph glyph-name="trademark" unicode="&#x2122;" horiz-adv-x="1925" 
d="M1649 1544h204v-862h-122v739h-5l-294 -739h-80l-287 739h-4v-739h-123v862h207l248 -620zM74 1544h698v-123h-287v-739h-123v739h-288v123z" />
    <glyph glyph-name="fi" unicode="&#xf001;" horiz-adv-x="1062" 
d="M553 811h-244v-811h-164v811h-90v152h90v383q0 179 43 249q74 121 248 121q56 0 117 -20v-166q-71 22 -111 22q-89 0 -116 -67q-17 -49 -17 -197v-325h244v-152zM713 963h164v-963h-164v963zM795 1442q47 0 81.5 -35t34.5 -82q0 -50 -33.5 -83.5t-82.5 -33.5t-83 34
t-34 83q0 47 35 82t82 35z" />
    <glyph glyph-name="fl" unicode="&#xf002;" horiz-adv-x="1026" 
d="M713 1690h164v-1690h-164v1690zM553 811h-244v-811h-164v811h-90v152h90v383q0 179 43 249q74 121 248 121q56 0 117 -20v-166q-71 22 -111 22q-89 0 -116 -67q-17 -49 -17 -197v-325h244v-152z" />
    <glyph glyph-name="NULL" horiz-adv-x="0" 
 />
    <glyph glyph-name="CR" horiz-adv-x="630" 
 />
    <glyph glyph-name="middot" horiz-adv-x="630" 
d="M315 637q47 0 81 -33t34 -80t-34 -81.5t-81 -34.5t-80.5 34.5t-33.5 81.5t33.5 80t80.5 33z" />
    <glyph glyph-name="HT" horiz-adv-x="630" 
 />
    <glyph glyph-name="CR.001" horiz-adv-x="630" 
 />
    <glyph glyph-name="glyph231" horiz-adv-x="630" 
 />
    <glyph glyph-name="glyph232" horiz-adv-x="630" 
 />
    <glyph glyph-name="glyph258" horiz-adv-x="569" 
 />
    <glyph glyph-name="glyph259" horiz-adv-x="569" 
 />
    <glyph glyph-name="glyph275" horiz-adv-x="509" 
 />
    <glyph glyph-name="glyph276" horiz-adv-x="509" 
 />
    <glyph glyph-name="glyph270" horiz-adv-x="509" 
 />
  </font>
</defs>
</svg>
