<?xml version="1.0" standalone="no"?>
<!DOCTYPE svg PUBLIC "-//W3C//DTD SVG 1.1//EN" "http://www.w3.org/Graphics/SVG/1.1/DTD/svg11.dtd" >
<svg xmlns="http://www.w3.org/2000/svg" xmlns:xlink="http://www.w3.org/1999/xlink" version="1.1">
<metadata>
Created by FontForge 20170731 at Sun Sep 19 04:00:46 2021
 By Aleksey,,,
Copyright (c) 1995 ParaGraph Intl., (c) 1998 ParaType Inc., ParaType Ltd. All rights reserved.
</metadata>
<defs>
<font id="SVN-FuturaDemiBoldItalic" horiz-adv-x="1171" >
  <font-face 
    font-family="SVN-Futura DemiBold"
    font-weight="600"
    font-style="italic"
    font-stretch="normal"
    units-per-em="2048"
    panose-1="2 11 7 2 2 2 4 9 3 3"
    ascent="1638"
    descent="-410"
    x-height="887"
    cap-height="1366"
    bbox="-575 -512 2380 2224"
    underline-thickness="102"
    underline-position="-307"
    slope="-7"
    unicode-range="U+0020-FB02"
  />
<missing-glyph horiz-adv-x="477" 
 />
    <glyph glyph-name=".notdef" horiz-adv-x="477" 
 />
    <glyph glyph-name=".null" horiz-adv-x="0" 
 />
    <glyph glyph-name="nonmarkingreturn" horiz-adv-x="682" 
 />
    <glyph glyph-name="space" unicode=" " horiz-adv-x="477" 
 />
    <glyph glyph-name="exclam" unicode="!" horiz-adv-x="518" 
d="M438 416h-254l117 950h254zM115 111q0 76 53 129t129 53q61 0 102 -41q39 -39 39 -102q0 -82 -51 -127q-50 -50 -127 -50q-65 0 -106 41q-39 39 -39 97z" />
    <glyph glyph-name="quotedbl" unicode="&#x22;" horiz-adv-x="794" 
d="M520 1366l-114 -549h-173l21 549h266zM877 1366l-115 -549h-172l20 549h267z" />
    <glyph glyph-name="numbersign" unicode="#" horiz-adv-x="1200" 
d="M825 0h-250l109 381h-192l-109 -381h-250l109 381h-209l61 213h209l57 207h-208l61 213h209l100 352h250l-100 -352h192l101 352h249l-100 -352h209l-61 -213h-209l-58 -207h209l-61 -213h-209zM745 594l58 207h-193l-57 -207h192z" />
    <glyph glyph-name="dollar" unicode="$" horiz-adv-x="1163" 
d="M692 1567h168l-24 -205q88 -10 165 -53q70 -38 129 -101l-155 -172q-46 50 -88 74q-63 37 -123 37q-80 0 -133 -41q-53 -46 -53 -113q0 -60 51 -96q21 -18 121 -63l73 -33q126 -57 183 -119q79 -83 79 -229q0 -209 -135 -334q-44 -44 -116.5 -77.5t-165.5 -37.5l-31 -229
h-168l31 225q-112 14 -215 80q-102 69 -156 164l172 157q55 -83 113 -125q76 -55 170 -55q103 0 161 47q68 52 68 146q0 65 -51 110q-28 25 -131 74l-70 33q-1 0 -15.5 7.5t-16.5 8.5t-15.5 8t-18 9.5t-16.5 9t-17.5 11t-16 11.5t-17.5 13t-15.5 14t-15.5 16q-80 80 -80 209
q0 186 115 301q93 93 236 113z" />
    <glyph glyph-name="percent" unicode="%" horiz-adv-x="1591" 
d="M551 1382q156 0 244 -88q90 -86 90 -223q0 -136 -88 -233q-96 -103 -273 -103q-162 0 -250 88q-84 84 -84 213q0 67 25.5 132.5t71.5 111.5q99 102 264 102zM524 883q84 0 135 51q54 54 54 141q0 74 -43 117t-121 43q-80 0 -129 -49q-55 -55 -55 -142q0 -73 45 -118
q43 -43 114 -43zM336 6l987 1405l100 -61l-985 -1407zM1233 627q156 0 244 -88q90 -90 90 -224q0 -136 -88 -233q-95 -102 -273 -102q-162 0 -250 88q-84 84 -84 213q0 67 25.5 132t71.5 111q100 103 264 103zM1206 127q84 0 135 51q54 54 54 141q0 74 -43 117t-121 43
q-80 0 -129 -49q-55 -55 -55 -141q0 -74 45 -119q43 -43 114 -43z" />
    <glyph glyph-name="ampersand" unicode="&#x26;" horiz-adv-x="1458" 
d="M1249 641l137 -154q-91 -104 -182 -174l238 -313h-330l-115 154q-87 -83 -184 -129q-52 -22 -114 -36t-97.5 -17t-60.5 -3q-188 0 -291 105q-98 98 -98 254q0 181 120 297q31 30 71.5 55.5t70 39t82.5 36.5l34 14q-104 116 -104 256q0 163 109 268q108 103 282 103
q171 0 270 -97q89 -85 89 -221q0 -129 -72 -211q-47 -54 -141 -104l-74 -39l186 -250q63 47 174 166zM868 322l-215 288q-107 -43 -164 -100q-67 -67 -67 -154q0 -63 43 -106q47 -47 137 -47q68 0 148 37q70 35 118 82zM723 948l49 -74l68 44q49 29 80 71q34 46 34 103
q0 49 -30 79q-33 33 -93 33q-71 0 -114 -43q-37 -37 -37 -94q0 -61 43 -119z" />
    <glyph glyph-name="quotesingle" unicode="'" horiz-adv-x="438" 
d="M520 1366l-114 -549h-173l21 549h266z" />
    <glyph glyph-name="parenleft" unicode="(" horiz-adv-x="694" 
d="M528 -260l-211 -109q-49 118 -90 291q-34 171 -34 346q0 253 55.5 478.5t132.5 398.5q86 196 192 371l187 -109q-107 -194 -185 -399q-135 -368 -135 -721q0 -182 25 -310q20 -112 63 -237z" />
    <glyph glyph-name="parenright" unicode=")" horiz-adv-x="694" 
d="M307 1407l211 109q62 -148 88 -281q39 -174 39 -381q0 -175 -34.5 -376t-104.5 -390q-89 -239 -227 -457l-185 109q112 203 187 434q118 367 118 690q0 166 -26 305q-20 116 -66 238z" />
    <glyph glyph-name="asterisk" unicode="*" horiz-adv-x="1173" 
d="M467 1346l205 -93l14 240h180l-47 -238l230 91l36 -168l-237 -58l129 -180l-156 -109l-102 199l-152 -199l-129 109l174 178l-225 56z" />
    <glyph glyph-name="plus" unicode="+" horiz-adv-x="1024" 
d="M152 580v229h319v319h250v-319h319v-229h-319v-320h-250v320h-319z" />
    <glyph glyph-name="comma" unicode="," horiz-adv-x="671" 
d="M-25 -268l285 551l225 -27l-354 -543z" />
    <glyph glyph-name="hyphen" unicode="-" horiz-adv-x="737" 
d="M145 356l29 230h533l-29 -230h-533z" />
    <glyph glyph-name="period" unicode="." horiz-adv-x="520" 
d="M115 111q0 76 53 129t129 53q61 0 102 -41q39 -39 39 -102q0 -82 -51 -127q-50 -50 -127 -50q-65 0 -106 41q-39 39 -39 97z" />
    <glyph glyph-name="slash" unicode="/" horiz-adv-x="1337" 
d="M-61 -348l1302 1902l178 -81l-1300 -1903z" />
    <glyph glyph-name="zero" unicode="0" horiz-adv-x="1163" 
d="M588 -31q-102 0 -174.5 25t-137.5 90q-159 159 -159 467q0 206 69 392t191 304q157 150 360 150q182 0 303 -121q154 -149 154 -447q0 -205 -60.5 -397t-187.5 -319q-81 -83 -162 -113.5t-196 -30.5zM727 1167q-99 0 -172 -73q-79 -79 -123.5 -237.5t-44.5 -305.5
q0 -213 88 -301q51 -51 129 -51q89 0 158 69q71 71 116.5 230.5t45.5 306.5q0 237 -84 321q-26 26 -51.5 33.5t-61.5 7.5z" />
    <glyph glyph-name="one" unicode="1" horiz-adv-x="1163" 
d="M467 0l139 1137h-196l28 229h463l-168 -1366h-266z" />
    <glyph glyph-name="two" unicode="2" horiz-adv-x="1163" 
d="M37 0l452 457q195 196 269 284q110 128 110 244q0 83 -57 137q-52 45 -137 45q-93 0 -150 -57q-28 -28 -48 -76t-25 -94h-275q19 180 129 303q141 154 387 154q219 0 340 -123q105 -108 105 -264q0 -149 -90 -283q-69 -96 -222 -242l-266 -256h494l-29 -229h-987z" />
    <glyph glyph-name="three" unicode="3" horiz-adv-x="1163" 
d="M479 1010h-250q26 163 125 262q122 125 326 125q118 0 199.5 -33.5t126.5 -81.5q96 -96 96 -248q0 -109 -62 -196q-58 -78 -135 -109q69 -25 121 -98q51 -72 51 -176q0 -203 -123 -340q-78 -86 -174 -116t-213 -30q-218 0 -340 115q-57 56 -93 136.5t-40 172.5h266
q10 -95 68 -147q54 -47 145 -47q110 0 175 65q63 63 63 178q0 94 -66 146q-49 41 -149 41h-23l23 192h37q102 0 153 51q58 58 58 150q0 76 -51 123q-48 43 -123 43q-88 0 -135 -51q-46 -46 -56 -127z" />
    <glyph glyph-name="four" unicode="4" horiz-adv-x="1163" 
d="M1128 1366l-110 -895h160l-27 -213h-160l-30 -258h-250l30 258h-667l16 119l799 989h239zM416 471h352l63 528z" />
    <glyph glyph-name="five" unicode="5" horiz-adv-x="1163" 
d="M1135 1366l-29 -229h-455l-76 -215q36 8 97 8q193 0 307 -117q111 -115 111 -307q0 -226 -132 -371q-147 -166 -423 -166q-150 0 -281 56q-22 10 -44 22t-38.5 22.5t-34.5 23.5t-27.5 20.5t-22.5 18t-15 11.5l114 230q58 -73 138 -121q90 -53 194 -53q143 0 223 80
t80 200q0 127 -78 195q-72 63 -206 63q-145 0 -283 -88l250 717h631z" />
    <glyph glyph-name="six" unicode="6" horiz-adv-x="1163" 
d="M795 1403l206 -117l-360 -401q16 2 57 2q230 0 353 -131q108 -119 108 -277q0 -113 -45.5 -218t-118.5 -169q-134 -123 -391 -123q-115 0 -204.5 27t-168.5 106q-120 120 -120 299q0 162 75 287q10 18 24 38t24 33.5t30.5 37.5t28 33.5t33 38t30.5 34.5zM618 182
q120 0 201 84q68 74 68 187q0 109 -68 172q-66 61 -168 61q-125 0 -196 -76q-76 -83 -76 -202q0 -99 65 -164q65 -62 174 -62z" />
    <glyph glyph-name="seven" unicode="7" horiz-adv-x="1163" 
d="M115 59l759 1078h-634l28 229h1053l-995 -1407z" />
    <glyph glyph-name="eight" unicode="8" horiz-adv-x="1163" 
d="M897 713q85 -29 141 -99q62 -78 62 -192q0 -199 -121 -320q-128 -133 -377 -133q-241 0 -358 125q-99 99 -99 248q0 83 29.5 154.5t79.5 121.5q76 73 180 95q-70 41 -117 106q-47 66 -47 166q0 183 115 291q129 121 342 121q185 0 291 -92q117 -95 117 -261
q0 -124 -68 -213q-67 -84 -170 -118zM684 823q92 0 147 49q29 28 45.5 73t16.5 89q0 86 -57 131q-46 39 -123 39q-87 0 -142 -55q-61 -61 -61 -158q0 -77 49 -123q50 -45 125 -45zM606 178q104 0 162 58q68 68 68 178q0 91 -66 145q-58 45 -135 45q-100 0 -160 -67
q-61 -61 -61 -168q0 -87 51 -138q48 -53 141 -53z" />
    <glyph glyph-name="nine" unicode="9" horiz-adv-x="1163" 
d="M520 -37l-205 115l349 395q-34 -6 -68 -6q-86 0 -166 32t-139 91q-121 117 -121 297q0 101 37.5 195.5t109.5 164.5q150 150 402 150q242 0 379 -137q116 -116 116 -295q0 -144 -77 -275q-60 -100 -195 -254zM700 1184q-104 0 -178 -74q-82 -82 -82 -207q0 -96 64 -160
q63 -63 178 -63q111 0 190 76q76 76 76 196q0 106 -63 164q-71 68 -185 68z" />
    <glyph glyph-name="colon" unicode=":" horiz-adv-x="518" 
d="M115 109q0 76 53 129t129 53q61 0 102 -41q39 -39 39 -103q0 -82 -51 -127q-49 -49 -127 -49q-65 0 -106 41q-39 39 -39 97zM188 733q0 75 54 129q53 53 129 53q61 0 102 -41q39 -39 39 -102q0 -82 -51 -127q-49 -49 -127 -49q-66 0 -107 41q-39 39 -39 96z" />
    <glyph glyph-name="semicolon" unicode=";" horiz-adv-x="671" 
d="M-25 -268l285 551l225 -27l-354 -543zM260 733q0 76 53 129t129 53q62 0 103 -41q39 -39 39 -102q0 -81 -52 -127q-49 -49 -126 -49q-66 0 -107 41q-39 39 -39 96z" />
    <glyph glyph-name="less" unicode="&#x3c;" horiz-adv-x="1024" 
d="M442 684l627 -307v-246l-889 447v213l889 446v-246z" />
    <glyph glyph-name="equal" unicode="=" horiz-adv-x="1024" 
d="M154 762v217h888v-217h-888zM154 410v217h888v-217h-888z" />
    <glyph glyph-name="greater" unicode="&#x3e;" horiz-adv-x="1024" 
d="M752 684l-627 307v246l889 -446v-213l-889 -447v246z" />
    <glyph glyph-name="question" unicode="?" horiz-adv-x="1005" 
d="M631 416h-254l49 401q41 -8 82 -8q134 0 199 61q71 64 71 164q0 64 -45 109q-42 33 -100 33q-71 0 -115 -48q-31 -36 -43 -122h-266q11 76 42.5 150.5t76.5 121.5q111 119 317 119q188 0 299 -103q100 -100 100 -252q0 -182 -106 -288q-111 -115 -281 -123zM307 106
q0 77 53 130t129 53q62 0 103 -41q39 -39 39 -103q0 -82 -51 -127q-49 -49 -127 -49q-66 0 -107 41q-39 39 -39 96z" />
    <glyph glyph-name="at" unicode="@" horiz-adv-x="1513" 
d="M1075 922l27 86h172l-133 -416q-19 -58 -19 -84t13 -39q16 -16 47 -16q51 0 100 49q51 55 80 149t29 174q0 173 -140 303q-130 107 -305 107q-263 0 -442 -182q-83 -88 -136 -209t-53 -244q0 -101 35.5 -190t95.5 -152q73 -73 168.5 -101t214.5 -28q188 0 375 68l19 -156
q-204 -66 -416 -66q-147 0 -273 39t-229 142q-155 159 -155 417q0 177 64.5 327.5t174.5 260.5q228 228 559 228q266 0 430 -158q164 -156 164 -400q0 -118 -37.5 -234t-113.5 -189q-95 -95 -240 -95q-76 0 -117 41q-28 28 -37 74q-1 -1 -10.5 -12t-16.5 -19t-19 -20
t-26 -23t-30 -20q-64 -37 -145 -37q-117 0 -191 74q-78 75 -78 198q0 94 37.5 184t106.5 162q109 115 254 115q138 0 196 -108zM795 471q76 0 135 59q32 37 54 92t22 105q0 57 -33 90t-88 33q-69 0 -127 -55q-38 -38 -61 -92.5t-23 -102.5q0 -71 39 -102q29 -27 82 -27z" />
    <glyph glyph-name="A" unicode="A" horiz-adv-x="1376" 
d="M1092 0l-86 287h-551l-156 -287h-295l764 1366h201l403 -1366h-280zM565 504h389l-131 491z" />
    <glyph glyph-name="B" unicode="B" horiz-adv-x="1169" 
d="M324 1366h338q107 0 188 -19.5t143 -80.5q88 -88 88 -234q0 -61 -12.5 -106.5t-44.5 -91.5q-55 -77 -133 -105q99 -31 162 -100q73 -84 73 -203q0 -185 -110 -295q-65 -68 -160 -99.5t-250 -31.5h-450zM563 1149l-43 -350h58q71 0 117 11.5t81 49.5q51 51 51 129
q0 80 -59 125q-50 35 -139 35h-66zM496 594l-47 -377h114q86 0 144.5 11t95.5 46q53 53 53 140q0 76 -45 121q-61 59 -217 59h-98z" />
    <glyph glyph-name="C" unicode="C" horiz-adv-x="1243" 
d="M1198 360l-39 -311q-142 -80 -338 -80q-167 0 -281.5 49.5t-183.5 118.5q-182 174 -182 459q0 186 59.5 337.5t159.5 254.5q209 209 561 209q199 0 361 -84l-37 -307q-131 149 -348 149q-213 0 -342 -141q-66 -70 -101.5 -171t-35.5 -208q0 -181 114 -307
q116 -119 295 -119q72 0 133.5 16t101.5 42.5t63.5 48.5t39.5 44z" />
    <glyph glyph-name="D" unicode="D" horiz-adv-x="1378" 
d="M324 1366h356q342 0 522 -174q77 -74 123.5 -187.5t46.5 -259.5q0 -112 -21.5 -208t-56.5 -161t-63.5 -102.5t-59.5 -66.5q-114 -112 -268.5 -159.5t-378.5 -47.5h-106h-262zM561 1137l-110 -908h90q146 0 252 33t180 115q63 69 94 164t31 198q0 186 -119 291
q-121 107 -336 107h-82z" />
    <glyph glyph-name="E" unicode="E" horiz-adv-x="1015" 
d="M1081 1366l-28 -229h-492l-37 -306h471l-28 -229h-471l-45 -373h491l-29 -229h-491h-266l168 1366h757z" />
    <glyph glyph-name="F" unicode="F" horiz-adv-x="954" 
d="M1049 1366l-29 -229h-459l-37 -306h430l-28 -229h-430l-74 -602h-266l168 1366h725z" />
    <glyph glyph-name="G" unicode="G" horiz-adv-x="1568" 
d="M913 502l29 229h627q-38 -379 -232 -573q-189 -189 -497 -189q-294 0 -480 178q-82 77 -134 194t-52 275q0 177 63.5 323.5t168.5 246.5q221 211 557 211q210 0 362 -97q128 -79 205 -213l-240 -137q-55 96 -137 146q-95 59 -221 59q-201 0 -334 -133q-71 -71 -110 -175
t-39 -216q0 -189 118 -307q113 -113 293 -113q173 0 279 92q85 74 127 199h-353z" />
    <glyph glyph-name="H" unicode="H" horiz-adv-x="1421" 
d="M590 1366l-66 -528h578l65 528h267l-168 -1366h-267l74 608h-577l-74 -608h-266l168 1366h266z" />
    <glyph glyph-name="I" unicode="I" horiz-adv-x="577" 
d="M324 1366h266l-168 -1366h-266z" />
    <glyph glyph-name="J" unicode="J" horiz-adv-x="798" 
d="M545 1366h266l-113 -915q-8 -57 -10 -68t-10 -59.5t-13 -63.5t-16.5 -51.5t-23 -55t-29.5 -43.5t-39 -44q-104 -97 -278 -97q-125 0 -203 41q-58 27 -117 86l184 195q44 -74 127 -74q60 0 99 39q11 11 20.5 28t15 31t10.5 39.5t7.5 39.5t7 46.5t6.5 44.5z" />
    <glyph glyph-name="K" unicode="K" horiz-adv-x="1263" 
d="M590 1366l-70 -545l559 545h310l-654 -637l518 -729h-319l-393 592l-52 -49l-67 -543h-266l168 1366h266z" />
    <glyph glyph-name="L" unicode="L" horiz-adv-x="872" 
d="M324 1366h266l-139 -1137h421l-28 -229h-420h-268z" />
    <glyph glyph-name="M" unicode="M" horiz-adv-x="1781" 
d="M86 0l424 1366h192l254 -868l488 868h192l60 -1366h-266l-21 842l-475 -842h-82l-250 842l-242 -842h-274z" />
    <glyph glyph-name="N" unicode="N" horiz-adv-x="1593" 
d="M422 0h-266l168 1366h188l715 -911l112 911h267l-168 -1366h-189l-714 915z" />
    <glyph glyph-name="O" unicode="O" horiz-adv-x="1650" 
d="M991 1397q143 0 265.5 -47.5t207.5 -128.5q181 -171 181 -455q0 -165 -58 -316t-162 -257q-94 -98 -236 -161t-333 -63q-311 0 -502 191q-86 86 -133 204.5t-47 247.5q0 167 64 317.5t172 252.5q109 103 260 159t321 56zM870 211q198 0 336 135q75 73 118.5 178.5
t43.5 220.5q0 176 -108 289q-111 119 -312 119q-198 0 -340 -131q-77 -72 -117 -174t-40 -215q0 -189 108 -297q116 -125 311 -125z" />
    <glyph glyph-name="P" unicode="P" horiz-adv-x="1095" 
d="M324 1366h368q244 0 367 -111q110 -103 110 -290q0 -108 -34 -195.5t-95 -144.5q-127 -119 -374 -119h-183l-61 -506h-266zM561 1137l-49 -402h113q41 0 68.5 2.5t67 16t68.5 39.5q66 59 66 161q0 100 -74 146q-59 37 -166 37h-94z" />
    <glyph glyph-name="Q" unicode="Q" horiz-adv-x="1650" 
d="M1333 -53l-98 121q-162 -99 -395 -99q-301 0 -482 181q-184 184 -184 460q0 162 58 313.5t165 258.5q215 215 570 215q316 0 503 -187q175 -182 175 -462q0 -179 -72 -330q-66 -138 -174 -221l192 -224zM1100 549l137 -162q131 134 131 342q0 204 -129 320
q-114 106 -293 106q-208 0 -346 -141q-72 -72 -110.5 -169t-38.5 -202q0 -183 108 -301q55 -61 136 -96t177 -35q116 0 203 49l-244 266z" />
    <glyph glyph-name="R" unicode="R" horiz-adv-x="1179" 
d="M324 1366h395q228 0 340 -119q96 -100 96 -262q0 -187 -113 -295q-47 -44 -115 -76t-136 -43l348 -571h-320l-297 549h-33l-67 -549h-266zM563 1149l-51 -412h94q59 0 118 18t95 54q60 60 60 156q0 84 -56 133q-54 51 -176 51h-84z" />
    <glyph glyph-name="S" unicode="S" horiz-adv-x="1093" 
d="M1118 1237l-162 -182q-82 116 -219 116q-94 0 -145 -47q-53 -50 -53 -114q0 -66 57 -105q10 -7 129 -61l92 -39q99 -41 170 -115q46 -48 65 -99t19 -120q0 -111 -39 -210t-106 -163q-136 -129 -373 -129q-161 0 -281 78q-99 64 -174 180l195 166q54 -92 96 -125
q67 -57 172 -57q115 0 178 68q52 52 52 141q0 74 -62 125q-21 18 -40.5 28t-52.5 21.5t-46 17.5l-78 33q-119 53 -166 100q-84 84 -84 226q0 178 117 295q131 131 371 131q225 0 368 -160z" />
    <glyph glyph-name="T" unicode="T" horiz-adv-x="905" 
d="M1032 1137h-307l-139 -1137h-267l140 1137h-307l28 229h881z" />
    <glyph glyph-name="U" unicode="U" horiz-adv-x="1404" 
d="M319 1366h267l-92 -756q-15 -108 -15 -151q0 -115 70 -185q69 -63 186 -63q116 0 193 57q35 26 58 59.5t36.5 84.5t19 82.5t13.5 99.5l96 772h266l-98 -801q-25 -172 -41 -233q-39 -136 -121 -219q-46 -46 -102.5 -77t-116 -44.5t-105.5 -18t-100 -4.5q-268 0 -405 137
q-113 116 -113 316q0 96 18 231z" />
    <glyph glyph-name="V" unicode="V" horiz-adv-x="1318" 
d="M172 1366h287l252 -917l477 917h295l-750 -1366h-151z" />
    <glyph glyph-name="W" unicode="W" horiz-adv-x="2002" 
d="M1100 866l-428 -866h-189l-311 1366h279l190 -930l451 930h147l199 -930l442 930h287l-686 -1366h-189z" />
    <glyph glyph-name="X" unicode="X" horiz-adv-x="1298" 
d="M16 0l572 721l-328 645h307l187 -424l305 424h319l-499 -645l378 -721h-307l-237 500l-377 -500h-320z" />
    <glyph glyph-name="Y" unicode="Y" horiz-adv-x="1208" 
d="M465 0l76 625l-377 741h303l233 -475l353 475h327l-573 -741l-76 -625h-266z" />
    <glyph glyph-name="Z" unicode="Z" horiz-adv-x="1196" 
d="M1319 1366l-803 -1137h631l-29 -229h-1073l803 1137h-559l28 229h1002z" />
    <glyph glyph-name="bracketleft" unicode="[" horiz-adv-x="716" 
d="M774 1280h-192l-174 -1436h192l-27 -213h-430l228 1862h430z" />
    <glyph glyph-name="backslash" unicode="\" horiz-adv-x="1378" 
d="M1341 -348l-178 -82l-823 1903l178 81z" />
    <glyph glyph-name="bracketright" unicode="]" horiz-adv-x="716" 
d="M88 -156h193l176 1436h-193l27 213h430l-229 -1862h-431z" />
    <glyph glyph-name="asciicircum" unicode="^" horiz-adv-x="1024" 
d="M598 1182l-236 -494h-260l332 678h328l332 -678h-260z" />
    <glyph glyph-name="underscore" unicode="_" horiz-adv-x="1024" 
d="M0 -324v213h1024v-213h-1024z" />
    <glyph glyph-name="grave" unicode="`" horiz-adv-x="1024" 
d="M629 1044l-275 275l195 115l205 -308z" />
    <glyph glyph-name="a" unicode="a" 
d="M897 772l14 115h250l-108 -887h-250l14 115q-49 -62 -112 -101q-76 -43 -166 -43q-178 0 -291 113q-119 119 -119 313q0 235 137 379q135 139 350 139q98 0 177 -43q65 -36 104 -100zM651 694q-106 0 -174 -63q-88 -85 -88 -205q0 -108 68 -176q64 -57 164 -57
q108 0 176 63q43 40 65.5 97t22.5 116q0 96 -62 158q-67 67 -172 67z" />
    <glyph glyph-name="b" unicode="b" 
d="M553 1493l-90 -721q40 61 110 98q81 45 187 45q167 0 272 -98q121 -114 121 -311q0 -123 -40 -228.5t-114 -179.5q-71 -71 -153 -99t-184 -28q-124 0 -189 43q-57 33 -90 101l-14 -115h-250l184 1493h250zM668 694q-122 0 -195 -76q-76 -76 -76 -194q0 -106 62 -168
q63 -63 170 -63q49 0 99.5 18.5t84.5 52.5q39 39 59.5 98t20.5 119q0 93 -62 152q-61 61 -163 61z" />
    <glyph glyph-name="c" unicode="c" horiz-adv-x="860" 
d="M897 862l-31 -246q-87 78 -211 78q-115 0 -184 -69q-40 -40 -61 -95t-21 -108q0 -100 62 -162q64 -67 167 -67q122 0 205 77l-28 -243q-98 -56 -234 -56q-198 0 -323 125q-111 116 -111 299q0 227 143 373q143 147 381 147q135 0 246 -53z" />
    <glyph glyph-name="d" unicode="d" horiz-adv-x="1167" 
d="M897 772l90 721h250l-184 -1493h-250l14 115q-2 -5 -15 -21.5t-40 -41t-55 -40.5q-74 -41 -181 -41q-167 0 -274 107q-123 123 -123 330q0 118 38 214.5t101 159.5q57 60 145.5 96.5t180.5 36.5q100 0 184 -41q1 -1 8 -4.5t10 -5.5t10.5 -6.5t12 -7.5t12 -8.5t13 -10.5
t13.5 -12t14 -13.5t13 -15.5t13 -18zM647 694q-111 0 -178 -67q-80 -74 -80 -197q0 -113 70 -180q61 -57 162 -57q113 0 184 71q36 36 59 91.5t23 113.5q0 99 -66 162q-68 63 -174 63z" />
    <glyph glyph-name="e" unicode="e" horiz-adv-x="1077" 
d="M805 289l215 -51q-72 -140 -189 -207q-108 -60 -266 -60q-101 0 -181.5 26.5t-147.5 96.5q-107 111 -107 287q0 118 40.5 224.5t113.5 178.5q131 131 354 131q194 0 303 -102q115 -110 115 -321q0 -73 -4 -91h-664q-14 -113 51 -178q55 -55 146 -55q85 0 135 29
q53 31 86 92zM416 561h420q-3 76 -56 129q-52 49 -139 49q-88 0 -152 -57q-54 -54 -73 -121z" />
    <glyph glyph-name="f" unicode="f" horiz-adv-x="593" 
d="M684 674h-229l-82 -674h-250l82 674h-94l26 213h94l29 219q22 216 117 317q91 95 233 95q102 0 176 -31l-28 -227q-59 36 -103 36q-49 0 -84 -30q-47 -44 -69 -215l-21 -164h230z" />
    <glyph glyph-name="g" unicode="g" horiz-adv-x="1155" 
d="M881 772l14 115h250l-105 -846q-7 -71 -16 -124.5t-40 -131t-79 -127.5q-125 -129 -381 -129q-217 0 -331 119q-43 45 -72.5 111t-36.5 137h262q11 -75 51 -109q45 -45 135 -45q107 0 173 59q61 61 79 193l17 125q-46 -65 -111 -105q-71 -43 -166 -43q-182 0 -291 109
q-116 116 -116 317q0 124 42.5 226t116.5 170q130 122 316 122q111 0 186 -43q65 -38 103 -100zM639 694q-111 0 -178 -63q-86 -80 -86 -213q0 -99 65 -164q61 -61 156 -61q125 0 190 65q41 38 63.5 96t22.5 119q0 97 -67 164q-67 57 -166 57z" />
    <glyph glyph-name="h" unicode="h" horiz-adv-x="1097" 
d="M119 0l184 1493h250l-90 -721q42 64 108 102q67 41 172 41q157 0 238 -81q70 -72 70 -195q0 -22 -2 -43.5t-7.5 -56t-7.5 -52.5l-59 -487h-250l51 412q0 6 6 64t6 77q0 77 -40 113q-39 36 -107 36q-88 0 -141 -53q-59 -59 -76 -196l-55 -453h-250z" />
    <glyph glyph-name="i" unicode="i" horiz-adv-x="487" 
d="M227 887h250l-108 -887h-250zM252 1167q0 61 45 109q47 47 111 47q58 0 88 -35q36 -36 36 -90q0 -56 -45 -106q-51 -48 -110 -48q-53 0 -88 35q-37 37 -37 88z" />
    <glyph glyph-name="j" unicode="j" horiz-adv-x="487" 
d="M227 887h250l-166 -1356h-250zM252 1167q0 61 45 109q47 47 111 47q58 0 88 -35q36 -36 36 -90q0 -56 -45 -106q-51 -48 -110 -48q-53 0 -88 35q-37 37 -37 88z" />
    <glyph glyph-name="k" unicode="k" horiz-adv-x="1030" 
d="M303 1493h250l-113 -913l369 307h305l-473 -393l383 -494h-299l-260 365l-57 -46l-39 -319h-250z" />
    <glyph glyph-name="l" unicode="l" horiz-adv-x="483" 
d="M303 1493h250l-184 -1493h-250z" />
    <glyph glyph-name="m" unicode="m" horiz-adv-x="1611" 
d="M119 0l108 887h250l-12 -101q43 51 106 88q74 41 160 41q93 0 166 -47q67 -45 94 -114q36 67 105 112q76 49 176 49q143 0 225 -73q44 -42 58 -92t14 -115q0 -58 -10 -146l-60 -489h-250l51 422q13 89 13 129q0 86 -39 119q-32 32 -94 32q-66 0 -111 -45
q-66 -66 -84 -225l-51 -432h-250l51 412q0 10 6.5 65.5t6.5 73.5q0 80 -35 117q-34 34 -95 34q-73 0 -120 -51q-60 -66 -78 -229l-51 -422h-250z" />
    <glyph glyph-name="n" unicode="n" horiz-adv-x="1097" 
d="M119 0l108 887h250l-14 -115q42 64 108 102q67 41 172 41q157 0 238 -81q70 -72 70 -195q0 -22 -2 -43.5t-7.5 -56t-7.5 -52.5l-59 -487h-250l51 412q0 6 6 64t6 77q0 77 -40 113q-36 36 -109 36q-86 0 -139 -53q-59 -61 -76 -196l-55 -453h-250z" />
    <glyph glyph-name="o" unicode="o" 
d="M688 915q223 0 350 -127q115 -119 115 -294q0 -218 -158 -373q-84 -81 -183 -115.5t-224 -34.5q-219 0 -342 123q-117 112 -117 301q0 107 42 205t112 166q149 149 405 149zM612 193q118 0 195 77q39 39 61.5 92t22.5 107q0 43 -17.5 88.5t-48.5 75.5q-64 61 -161 61
q-115 0 -189 -71q-88 -80 -88 -211q0 -42 16.5 -84.5t45.5 -71.5q30 -30 74.5 -46.5t88.5 -16.5z" />
    <glyph glyph-name="p" unicode="p" 
d="M383 115l-72 -584h-250l166 1356h250l-14 -115q55 66 131 105q70 38 164 38q175 0 278 -98q117 -112 117 -313q0 -254 -152 -406q-127 -127 -321 -127q-131 0 -207 52q-48 28 -90 92zM668 694q-114 0 -187 -73q-84 -81 -84 -199q0 -94 56 -160q60 -69 176 -69
q111 0 182 71q82 82 82 211q0 103 -66 162q-64 57 -159 57z" />
    <glyph glyph-name="q" unicode="q" horiz-adv-x="1173" 
d="M899 772l14 115h250l-166 -1356h-249l71 578q-51 -72 -114 -101q-75 -37 -177 -37q-179 0 -286 113q-113 121 -113 311q0 113 42 218t112 175q127 127 323 127q116 0 187 -41q66 -39 106 -102zM666 694q-120 0 -193 -73q-37 -38 -59.5 -93.5t-22.5 -115.5q0 -90 60 -154
q65 -65 165 -65q106 0 181 67q90 80 90 215q0 96 -66 162q-57 57 -155 57z" />
    <glyph glyph-name="r" unicode="r" horiz-adv-x="737" 
d="M119 0l108 887h250l-16 -127q42 72 110 117q63 38 156 38q61 0 117 -20l-74 -223q-49 22 -96 22q-95 0 -156 -61q-39 -39 -66.5 -111.5t-35.5 -144.5l-47 -377h-250z" />
    <glyph glyph-name="s" unicode="s" horiz-adv-x="819" 
d="M817 825l-129 -153q-31 31 -63 45q-35 18 -84 18q-58 0 -84 -28q-19 -24 -19 -54q0 -29 19 -45q23 -19 71 -33l76 -24q85 -28 137 -80q62 -67 62 -168q0 -135 -92 -227q-105 -105 -291 -105q-121 0 -209 43q-59 29 -135 105l149 151q35 -47 82 -73q56 -29 103 -29
q62 0 96 27q35 27 35 77q0 33 -23 56q-22 19 -88 43l-61 24q-70 25 -117 72q-59 59 -59 151q0 126 88 211q90 86 251 86q113 0 175 -28q51 -18 110 -62z" />
    <glyph glyph-name="t" unicode="t" horiz-adv-x="552" 
d="M623 674h-172l-82 -674h-250l82 674h-99l27 213h98l37 303h250l-37 -303h172z" />
    <glyph glyph-name="u" unicode="u" horiz-adv-x="1099" 
d="M229 887h250l-53 -443q-10 -90 -10 -106q0 -72 37 -109q39 -45 125 -45q81 0 137 49q32 32 45 73.5t22 113.5l58 467h250l-60 -490q-20 -140 -60 -226t-132 -140q-102 -60 -265 -60q-185 0 -292 76q-47 31 -83 93t-36 151q0 45 12 139z" />
    <glyph glyph-name="v" unicode="v" horiz-adv-x="1032" 
d="M113 887h270l172 -500l295 500h287l-562 -887h-118z" />
    <glyph glyph-name="w" unicode="w" horiz-adv-x="1622" 
d="M874 518l-299 -518h-122l-340 887h272l170 -512l299 512h117l174 -512l297 512h284l-557 -887h-122z" />
    <glyph glyph-name="x" unicode="x" horiz-adv-x="1142" 
d="M4 0l469 483l-297 404h301l158 -230l213 230h326l-396 -404l361 -483h-305l-216 309l-284 -309h-330z" />
    <glyph glyph-name="y" unicode="y" horiz-adv-x="1101" 
d="M43 -469l399 602l-329 754h282l213 -504l307 504h291l-880 -1356h-283z" />
    <glyph glyph-name="z" unicode="z" horiz-adv-x="991" 
d="M1075 887l-586 -674h469l-26 -213h-907l585 674h-426l27 213h864z" />
    <glyph glyph-name="braceleft" unicode="{" horiz-adv-x="1028" 
d="M735 1139l-39 -322q-13 -115 -53 -168q-38 -53 -102 -88q53 -28 80 -88q18 -42 18 -98q0 -57 -8 -90l-35 -281q-8 -65 -8 -72q0 -44 35 -65q37 -19 131 -19h37l-27 -213q-62 -4 -131 -4q-174 0 -242 68q-51 49 -51 137q0 27 12 121l41 317q4 46 4 58q0 48 -16 74
q-25 41 -80 49l27 213q56 11 82 37q16 16 30 53t19 69l49 387q19 138 80 199q80 80 276 80q69 0 131 -4l-26 -213h-37q-40 0 -62 -1t-52 -8.5t-46 -21.5q-10 -9 -16 -19.5t-10.5 -29.5t-5.5 -25t-5 -32z" />
    <glyph glyph-name="bar" unicode="|" horiz-adv-x="772" 
d="M324 -512v2048h249v-2048h-249z" />
    <glyph glyph-name="braceright" unicode="}" horiz-adv-x="1028" 
d="M414 -27l37 314q14 115 43 166q37 66 112 108q-48 36 -65 62q-31 48 -31 122t22.5 251t22.5 194q0 44 -20 61q-25 25 -105 25h-78l27 213q62 4 121 4q184 0 250 -66q53 -53 53 -149q0 -42 -26.5 -237t-26.5 -244q0 -69 32 -101q29 -25 66 -28l-27 -213q-53 -10 -82 -39
q-6 -6 -11 -12.5t-9 -12.5t-7.5 -15t-5.5 -14t-4.5 -15.5t-4 -14.5t-3.5 -15t-2.5 -14t-2 -14.5t-1.5 -12.5l-43 -352q-6 -44 -11 -71t-23.5 -69t-47.5 -71q-82 -82 -274 -82q-71 0 -133 4l26 213h68q94 0 125 25q33 27 39 100z" />
    <glyph glyph-name="asciitilde" unicode="~" horiz-adv-x="1024" 
d="M956 758l136 -82q-48 -91 -119 -166q-52 -55 -103 -78.5t-122 -23.5q-80 0 -183 43l-63 26q-86 37 -135 37q-58 0 -101 -37q-41 -35 -67 -92l-133 82q61 125 131 195q45 47 91.5 69.5t114.5 22.5q74 0 172 -39l68 -27q98 -41 148 -41q52 0 96 29q36 25 69 82z" />
    <glyph glyph-name="uni00A0" unicode="&#xa0;" horiz-adv-x="477" 
 />
    <glyph glyph-name="exclamdown" unicode="&#xa1;" horiz-adv-x="516" 
d="M207 479h254l-117 -950h-254zM207 739q0 76 53 129q54 54 129 54q62 0 103 -41q38 -38 38 -103q0 -82 -51 -127q-49 -49 -127 -49q-65 0 -106 41q-39 39 -39 96z" />
    <glyph glyph-name="cent" unicode="&#xa2;" horiz-adv-x="1163" 
d="M1049 1106l-31 -246q-87 78 -211 78q-114 0 -184 -70q-40 -40 -61 -94.5t-21 -107.5q0 -101 61 -162q65 -68 168 -68q121 0 205 78l-29 -244q-81 -46 -172 -49l-22 -194h-168l24 198q-141 26 -237 137q-92 112 -92 277q0 227 143 373q123 123 297 143l22 186h168
l-22 -190q83 -3 162 -45z" />
    <glyph glyph-name="sterling" unicode="&#xa3;" horiz-adv-x="1163" 
d="M373 504h-230l23 180h133q-16 35 -31.5 101t-15.5 141q0 101 34 186.5t93 144.5q140 140 393 140q206 0 326 -113q119 -119 119 -321q0 -27 -3 -62h-272q2 14 2 43q0 111 -57 168q-51 51 -142 51q-98 0 -159 -61q-70 -70 -70 -189q0 -14 1 -28t2 -23.5t5.5 -26.5t6 -24
t8 -29t8.5 -28t11.5 -34t12.5 -36h303l-22 -180h-246q2 -16 2 -49q0 -99 -37 -189q21 -8 73 -28.5t76.5 -29t60 -17.5t61.5 -9q54 0 92 35q20 15 51 76l176 -39q-42 -134 -106 -201q-80 -84 -211 -84q-101 0 -226 45l-71 27q-86 33 -148 33q-48 0 -86.5 -22.5t-54.5 -69.5
l-188 34q30 94 86 158q78 93 186 109q37 72 37 143q0 34 -6 78z" />
    <glyph glyph-name="currency" unicode="&#xa4;" horiz-adv-x="1366" 
d="M279 1397l210 -211q70 55 137 73.5t142 18.5q91 0 162 -18.5t137 -73.5l211 211l135 -135l-211 -211q92 -115 92 -285t-92 -285l211 -211l-135 -135l-211 211q-120 -92 -289 -92t-289 92l-210 -211l-136 135l211 211q-92 115 -92 285t92 285l-211 211zM778 475
q59 0 114.5 22.5t94.5 61.5q78 78 78 207q0 133 -82 211q-86 80 -205 80q-122 0 -207 -82q-79 -79 -79 -209q0 -128 77 -205q82 -86 209 -86z" />
    <glyph glyph-name="yen" unicode="&#xa5;" horiz-adv-x="1163" 
d="M1040 1366h295l-317 -436h180l-22 -185h-291l-90 -129h364l-22 -184h-365l-53 -432h-246l53 432h-364l22 184h365l-57 129h-291l22 185h180l-210 436h294l218 -479z" />
    <glyph glyph-name="brokenbar" unicode="&#xa6;" horiz-adv-x="772" 
d="M324 799v737h249v-737h-249zM324 -512v737h249v-737h-249z" />
    <glyph glyph-name="section" unicode="&#xa7;" horiz-adv-x="1161" 
d="M184 20h250q0 -78 35 -124q37 -52 106 -52q66 0 107 41q17 17 29 47t12 56q0 61 -59 108q-42 30 -129 70l-70 33q-117 53 -174 129q-70 90 -70 217q0 125 78 225q69 90 190 129q-57 34 -94 86q-47 65 -47 150q0 148 103 251q61 61 131 84t155 23q181 0 277 -92
q46 -45 74 -115t28 -153v-9h-246v9q0 75 -34 112q-38 43 -105 43q-65 0 -104 -39q-37 -37 -37 -88q0 -52 47 -90q16 -14 34.5 -24.5t52 -26t42.5 -19.5l84 -38q90 -41 156 -107q51 -51 70.5 -108t19.5 -130q0 -158 -70 -251q-63 -87 -178 -129q63 -42 88 -97q31 -58 31 -137
q0 -163 -103 -266q-107 -107 -297 -107q-177 0 -276 101q-50 52 -78.5 127.5t-28.5 160.5zM647 395q82 0 135 56q47 53 47 137q0 80 -53 125q-45 39 -110 39q-87 0 -140 -60q-41 -52 -41 -137q0 -76 47 -119q41 -41 115 -41z" />
    <glyph glyph-name="dieresis" unicode="&#xa8;" horiz-adv-x="1024" 
d="M725 1184q0 65 49 114q50 50 119 50q53 0 94 -41q33 -42 33 -90q0 -59 -45 -111q-48 -53 -121 -53q-56 0 -90 34q-39 39 -39 97zM299 1184q0 65 49 114q50 50 119 50q53 0 94 -41q33 -42 33 -90q0 -59 -45 -111q-48 -53 -121 -53q-56 0 -90 34q-39 39 -39 97z" />
    <glyph glyph-name="copyright" unicode="&#xa9;" horiz-adv-x="1556" 
d="M1130 1057v-223q-52 52 -81 69q-59 39 -136 39q-112 0 -178 -63q-40 -35 -61 -90t-21 -113q0 -102 68 -180q65 -74 190 -74q82 0 140 37q31 18 79 69v-223q-100 -51 -243 -51q-197 0 -318 123q-112 112 -112 291q0 198 121 319q123 123 323 123q132 0 229 -53zM1573 682
q0 -301 -211 -512q-211 -201 -500 -201t-500 201q-210 210 -210 514q0 166 59.5 295t150.5 217q211 201 500 201t500 -201q211 -211 211 -514zM862 1270q-222 0 -383 -152q-83 -80 -133.5 -192.5t-50.5 -241.5q0 -120 46.5 -234t137.5 -202q161 -152 383 -152q217 0 383 152
q91 88 138 202.5t47 233.5q0 129 -51 241.5t-134 192.5q-166 152 -383 152z" />
    <glyph glyph-name="ordfeminine" unicode="&#xaa;" horiz-adv-x="702" 
d="M643 1280l8 70h152l-68 -541h-151l10 72q-28 -43 -68 -64q-44 -26 -110 -26q-108 0 -172 67q-70 70 -70 184q0 70 25.5 131.5t68.5 104.5q88 88 211 88q57 0 94 -18q41 -17 70 -68zM489 1229q-65 0 -108 -43q-49 -49 -49 -123q0 -56 37 -96q37 -39 100 -39q67 0 111 39
q55 47 55 123q0 61 -37 98q-41 41 -109 41zM143 596l15 115h567l-14 -115h-568z" />
    <glyph glyph-name="guillemotleft" unicode="&#xab;" horiz-adv-x="1052" 
d="M354 444l209 -331l-155 -103l-271 439l377 438l131 -107zM756 444l209 -331l-156 -103l-270 439l376 438l132 -107z" />
    <glyph glyph-name="logicalnot" unicode="&#xac;" horiz-adv-x="1024" 
d="M995 0h-250v322h-639v229h889v-551z" />
    <glyph glyph-name="uni00AD" unicode="&#xad;" horiz-adv-x="737" 
d="M145 356l29 230h533l-29 -230h-533z" />
    <glyph glyph-name="registered" unicode="&#xae;" horiz-adv-x="1556" 
d="M862 1397q294 0 502 -203q209 -209 209 -514q0 -290 -193 -496q-83 -93 -215 -154t-303 -61q-144 0 -276 52t-234 155q-200 200 -200 508q0 316 219 522q200 191 491 191zM862 1270q-232 0 -393 -164q-174 -174 -174 -420q0 -128 46 -239t122 -187q74 -74 179.5 -119
t219.5 -45q110 0 210.5 42.5t180.5 119.5q177 177 177 420q0 253 -177 430q-162 162 -391 162zM623 1079h241q38 0 64 -2.5t66 -18t69 -44.5q61 -61 61 -170q0 -90 -53 -148q-45 -50 -131 -63l248 -320h-182l-228 293v-293h-155v766zM778 944v-211h62q63 0 94 31
q29 29 29 78t-29 78q-26 24 -88 24h-68z" />
    <glyph glyph-name="macron" unicode="&#xaf;" horiz-adv-x="1024" 
d="M279 1104l20 164h745l-20 -164h-745z" />
    <glyph glyph-name="degree" unicode="&#xb0;" horiz-adv-x="1030" 
d="M643 743q-130 0 -222.5 92.5t-92.5 221.5q0 128 92.5 218.5t222.5 90.5q132 0 225 -90.5t93 -218.5q0 -129 -93 -221.5t-225 -92.5zM643 1210q-66 0 -111 -45t-45 -108q0 -66 45 -111t111 -45t112 45.5t46 108.5q0 66 -46 110.5t-112 44.5z" />
    <glyph glyph-name="plusminus" unicode="&#xb1;" horiz-adv-x="1024" 
d="M133 727v229h320v320h249v-320h320v-229h-320v-319h-249v319h-320zM133 106v230h889v-230h-889z" />
    <glyph glyph-name="twosuperior" unicode="&#xb2;" horiz-adv-x="778" 
d="M117 547l336 332q104 104 122 127q52 63 52 124q0 58 -35 82q-25 25 -84 25q-62 0 -92 -37q-34 -37 -37 -90h-172q15 111 84 184q86 90 225 90q138 0 217 -79q66 -66 66 -164q0 -92 -58 -174q-30 -43 -127 -140l-143 -133h279l-19 -147h-614z" />
    <glyph glyph-name="threesuperior" unicode="&#xb3;" horiz-adv-x="778" 
d="M393 1143h-160q18 102 84 168q73 73 207 73q139 0 205 -73q55 -61 55 -150q0 -73 -41 -125q-41 -45 -88 -57q47 -21 72 -53q39 -48 39 -123q0 -115 -72 -191q-84 -84 -239 -84q-146 0 -226 80q-73 73 -73 185h172q3 -52 37 -86q34 -31 96 -31q58 0 98 37q37 37 37 92
q0 58 -43 86q-26 20 -96 20h-25l17 136h18q76 0 106 22q41 27 41 86q0 48 -26 68q-26 26 -80 26q-50 0 -80 -30q-23 -23 -35 -76z" />
    <glyph glyph-name="acute" unicode="&#xb4;" horiz-adv-x="1024" 
d="M827 1434l166 -115l-340 -275l-104 82z" />
    <glyph glyph-name="mu" unicode="&#xb5;" horiz-adv-x="1146" 
d="M311 -471h-250l166 1358h250l-45 -381q0 -4 -5 -53t-5 -72q0 -97 47 -152q49 -57 137 -57q94 0 148 57q27 28 44 70.5t23 76t15 101.5l51 410h250l-109 -887h-250l13 111q-43 -73 -86 -103q-50 -37 -127 -37q-80 0 -134 54q-42 42 -59 110z" />
    <glyph glyph-name="paragraph" unicode="&#xb6;" horiz-adv-x="1343" 
d="M641 -190h-213l102 845h-14q-63 0 -131.5 20t-112.5 58q-96 79 -96 236q0 171 96 274q69 73 165 98t245 25h682l-25 -192h-143l-166 -1364h-213l166 1364h-176z" />
    <glyph glyph-name="periodcentered" unicode="&#xb7;" horiz-adv-x="413" 
d="M88 666q0 85 64 149t149 64q75 0 123 -48q45 -45 45 -116q0 -92 -59 -154q-54 -59 -150 -59q-82 0 -127 47q-45 52 -45 117z" />
    <glyph glyph-name="cedilla" unicode="&#xb8;" horiz-adv-x="1024" 
d="M532 -94l181 -90l-291 -299l-131 73z" />
    <glyph glyph-name="onesuperior" unicode="&#xb9;" horiz-adv-x="778" 
d="M408 547l81 672h-163l18 147h336l-100 -819h-172z" />
    <glyph glyph-name="ordmasculine" unicode="&#xba;" horiz-adv-x="681" 
d="M453 791q-136 0 -211 73q-78 74 -78 197q0 125 86 215q85 90 235 90q131 0 215 -84q72 -72 72 -190q0 -129 -86 -215q-89 -86 -233 -86zM475 1229q-75 0 -115 -45q-41 -47 -41 -117q0 -60 35 -98q39 -41 101 -41q79 0 123 49q38 44 38 110q0 74 -45 109q-38 33 -96 33z
M147 711h562l-13 -115h-561z" />
    <glyph glyph-name="guillemotright" unicode="&#xbb;" horiz-adv-x="1052" 
d="M408 453l-209 331l155 103l271 -438l-377 -439l-131 107zM809 453l-209 331l156 103l270 -438l-377 -439l-131 107z" />
    <glyph glyph-name="onequarter" unicode="&#xbc;" horiz-adv-x="1765" 
d="M408 547l81 672h-163l18 147h336l-100 -819h-172zM463 6l987 1405l100 -61l-985 -1407zM1706 819l-64 -524h97l-19 -139h-96l-18 -156h-164l18 156h-407l10 71l479 592h164zM1284 295h195l34 297z" />
    <glyph glyph-name="onehalf" unicode="&#xbd;" horiz-adv-x="1763" 
d="M408 547l81 672h-163l18 147h336l-100 -819h-172zM381 6l987 1405l100 -61l-985 -1407zM1032 0l336 332q109 109 123 127q51 61 51 125q0 55 -35 82q-24 24 -84 24q-62 0 -92 -37q-34 -37 -37 -90h-172q15 112 84 185q86 90 226 90q137 0 217 -80q65 -65 65 -164
q0 -94 -57 -174q-28 -40 -127 -139l-144 -134h279l-18 -147h-615z" />
    <glyph glyph-name="threequarters" unicode="&#xbe;" horiz-adv-x="1761" 
d="M393 1143h-160q18 102 84 168q73 73 207 73q139 0 205 -73q55 -61 55 -150q0 -73 -41 -125q-41 -45 -88 -57q47 -21 72 -53q39 -48 39 -121q0 -121 -72 -193q-84 -84 -239 -84q-146 0 -226 80q-73 73 -73 185h172q3 -52 37 -86q34 -31 96 -31q58 0 98 37q37 37 37 92
q0 58 -43 86q-26 20 -96 20h-25l17 136h18q76 0 106 22q41 27 41 86q0 48 -26 68q-26 26 -80 26q-50 0 -80 -30q-23 -23 -35 -76zM483 6l987 1405l101 -61l-985 -1407zM1280 295h195l34 297zM1702 819l-64 -524h97l-19 -139h-96l-18 -156h-164l18 156h-407l10 71l479 592
h164z" />
    <glyph glyph-name="questiondown" unicode="&#xbf;" horiz-adv-x="1007" 
d="M504 485h254l-49 -401q-36 8 -91 8q-124 0 -196 -65q-66 -66 -66 -152q0 -79 43 -113q39 -36 107 -36q85 0 123 55q30 40 30 115h267q-5 -71 -33.5 -145.5t-77.5 -127.5q-112 -119 -319 -119q-194 0 -299 101q-109 105 -109 264q0 84 28.5 159t76.5 126q11 16 41.5 39.5
t98.5 50t144 26.5zM504 739q0 76 53 129q54 54 129 54q61 0 102 -41q39 -39 39 -103q0 -82 -51 -127q-49 -49 -127 -49q-65 0 -106 41q-39 39 -39 96z" />
    <glyph glyph-name="Agrave" unicode="&#xc0;" horiz-adv-x="1376" 
d="M1092 0l-86 287h-551l-156 -287h-295l764 1366h201l403 -1366h-280zM565 504h389l-131 491zM930 1489l-260 246l145 133l215 -283z" />
    <glyph glyph-name="Aacute" unicode="&#xc1;" horiz-adv-x="1376" 
d="M1092 0l-86 287h-551l-156 -287h-295l764 1366h201l403 -1366h-280zM565 504h389l-131 491zM1204 1745l-342 -256l-90 92l287 287z" />
    <glyph glyph-name="Acircumflex" unicode="&#xc2;" horiz-adv-x="1376" 
d="M1092 0l-86 287h-551l-156 -287h-295l764 1366h201l403 -1366h-280zM565 504h389l-131 491zM897 1642l-197 -153l-106 100l330 258l262 -258l-133 -100z" />
    <glyph glyph-name="Atilde" unicode="&#xc3;" horiz-adv-x="1376" 
d="M1092 0l-86 287h-551l-156 -287h-295l764 1366h201l403 -1366h-280zM565 504h389l-131 491zM1104 1737l100 -76q-25 -37 -51.5 -63t-38.5 -33q-53 -47 -113 -47q-39 -2 -100 22q-4 1 -29.5 12t-51.5 20t-38 9q-7 0 -12.5 -1t-11 -4t-8.5 -4.5t-9.5 -6.5t-7.5 -6
q-6 -4 -12 -10.5t-15 -19t-12 -16.5l-94 76q52 70 74 92q63 54 131 54q29 0 78 -17l86 -32q51 -17 55 -13q30 0 49 19q7 6 31 45z" />
    <glyph glyph-name="Adieresis" unicode="&#xc4;" horiz-adv-x="1376" 
d="M1092 0l-86 287h-551l-156 -287h-295l764 1366h201l403 -1366h-280zM565 504h389l-131 491zM963 1638q0 74 47 121q46 49 116 49q59 0 95 -36t36 -93q0 -69 -49 -118q-48 -48 -112 -48q-62 0 -99 37q-34 34 -34 88zM504 1638q0 74 47 121q46 49 117 49q58 0 94 -36
q37 -37 37 -93q0 -69 -49 -118q-48 -48 -113 -48q-61 0 -98 37q-35 35 -35 88z" />
    <glyph glyph-name="Aring" unicode="&#xc5;" horiz-adv-x="1376" 
d="M1092 0l-86 287h-551l-156 -287h-295l764 1366h201l403 -1366h-280zM565 504h389l-131 491zM690 1655q0 88 66 160q66 69 162 69q80 0 131 -51t51 -133q0 -90 -68 -158q-66 -63 -155 -63q-91 0 -136 51q-51 51 -51 125zM813 1669q0 -29 16 -45q25 -25 58 -25q39 0 65 29
q25 28 25 68q0 28 -21 49q-18 18 -51 18q-37 0 -63 -26q-29 -23 -29 -68z" />
    <glyph glyph-name="AE" unicode="&#xc6;" horiz-adv-x="1884" 
d="M1092 0l-86 287h-551l-156 -287h-287l760 1366h721l61 -229h-501l86 -306h493l66 -229h-496l105 -373h503l62 -229h-780zM565 504h389l-127 491z" />
    <glyph glyph-name="Ccedilla" unicode="&#xc7;" horiz-adv-x="1243" 
d="M1198 360l-39 -311q-142 -80 -338 -80q-167 0 -281.5 49.5t-183.5 118.5q-182 174 -182 459q0 186 59.5 337.5t159.5 254.5q209 209 561 209q199 0 361 -84l-37 -307q-131 149 -348 149q-213 0 -342 -141q-66 -70 -101.5 -171t-35.5 -208q0 -181 114 -307
q116 -119 295 -119q72 0 133.5 16t101.5 42.5t63.5 48.5t39.5 44zM766 -94l197 -90l-308 -316l-143 74z" />
    <glyph glyph-name="Egrave" unicode="&#xc8;" horiz-adv-x="1015" 
d="M1081 1366l-28 -229h-492l-37 -306h471l-28 -229h-471l-45 -373h491l-29 -229h-491h-266l168 1366h757zM774 1489l-260 246l145 133l215 -283z" />
    <glyph glyph-name="Eacute" unicode="&#xc9;" horiz-adv-x="1015" 
d="M1081 1366l-28 -229h-492l-37 -306h471l-28 -229h-471l-45 -373h491l-29 -229h-491h-266l168 1366h757zM1051 1745l-342 -256l-91 92l287 287z" />
    <glyph glyph-name="Ecircumflex" unicode="&#xca;" horiz-adv-x="1015" 
d="M1081 1366l-28 -229h-492l-37 -306h471l-28 -229h-471l-45 -373h491l-29 -229h-491h-266l168 1366h757zM737 1642l-196 -153l-107 100l330 258l262 -258l-133 -100z" />
    <glyph glyph-name="Edieresis" unicode="&#xcb;" horiz-adv-x="1015" 
d="M1081 1366l-28 -229h-492l-37 -306h471l-28 -229h-471l-45 -373h491l-29 -229h-491h-266l168 1366h757zM819 1638q0 74 47 121q46 49 117 49q58 0 94 -36q37 -37 37 -93q0 -69 -49 -118q-48 -48 -113 -48q-61 0 -98 37q-35 35 -35 88zM360 1638q0 73 48 121q46 49 116 49
q58 0 94 -36q37 -37 37 -93q0 -69 -49 -118q-48 -48 -112 -48q-62 0 -99 37q-35 35 -35 88z" />
    <glyph glyph-name="Igrave" unicode="&#xcc;" horiz-adv-x="577" 
d="M324 1366h266l-168 -1366h-266zM543 1489l-260 246l145 133l215 -283z" />
    <glyph glyph-name="Iacute" unicode="&#xcd;" horiz-adv-x="577" 
d="M324 1366h266l-168 -1366h-266zM786 1745l-342 -256l-90 92l287 287z" />
    <glyph glyph-name="Icircumflex" unicode="&#xce;" horiz-adv-x="577" 
d="M324 1366h266l-168 -1366h-266zM496 1683l-209 -163l-97 110l330 254l268 -254l-124 -110z" />
    <glyph glyph-name="Idieresis" unicode="&#xcf;" horiz-adv-x="577" 
d="M324 1366h266l-168 -1366h-266zM522 1634q0 82 56 138q36 36 84 36q46 0 75 -41q27 -37 27 -86q0 -78 -51 -129q-39 -39 -86 -39q-41 0 -70 33q-35 38 -35 88zM215 1634q0 83 55 138q36 36 84 36q47 0 76 -41q27 -37 27 -86q0 -78 -51 -129q-39 -39 -87 -39q-40 0 -69 33
q-35 38 -35 88z" />
    <glyph glyph-name="Eth" unicode="&#xd0;" horiz-adv-x="1378" 
d="M324 1366h356q342 0 522 -174q77 -74 123.5 -187.5t46.5 -259.5q0 -112 -21.5 -208t-56.5 -161t-63.5 -102.5t-59.5 -66.5q-114 -112 -268.5 -159.5t-378.5 -47.5h-102h-266l80 647h-177l25 205h176zM561 1137l-35 -285h250l-24 -205h-250l-51 -418h90q146 0 252 33
t180 115q63 69 94 164t31 198q0 186 -119 291q-121 107 -336 107h-82z" />
    <glyph glyph-name="Ntilde" unicode="&#xd1;" horiz-adv-x="1593" 
d="M422 0h-266l168 1366h188l715 -911l112 911h267l-168 -1366h-189l-714 915zM1284 1780l127 -99q-61 -81 -108 -125q-67 -57 -144 -57q-68 0 -151 39l-68 29q-9 4 -27.5 11.5t-27.5 11t-22 6.5t-25 3q-39 0 -76 -32q-9 -9 -39 -49l-131 98q26 41 54 71.5t42 41.5
q78 69 168 69q16 0 30.5 -2t32 -7.5t25 -8t28.5 -11.5t23 -10l78 -33q68 -28 103 -28q39 0 69 28q20 20 39 54z" />
    <glyph glyph-name="Ograve" unicode="&#xd2;" horiz-adv-x="1650" 
d="M991 1397q143 0 265.5 -47.5t207.5 -128.5q181 -171 181 -455q0 -165 -58 -316t-162 -257q-94 -98 -236 -161t-333 -63q-311 0 -502 191q-86 86 -133 204.5t-47 247.5q0 167 64 317.5t172 252.5q109 103 260 159t321 56zM870 211q198 0 336 135q75 73 118.5 178.5
t43.5 220.5q0 176 -108 289q-111 119 -312 119q-198 0 -340 -131q-77 -72 -117 -174t-40 -215q0 -189 108 -297q116 -125 311 -125zM1067 1489l-260 246l145 133l215 -283z" />
    <glyph glyph-name="Oacute" unicode="&#xd3;" horiz-adv-x="1650" 
d="M991 1397q143 0 265.5 -47.5t207.5 -128.5q181 -171 181 -455q0 -165 -58 -316t-162 -257q-94 -98 -236 -161t-333 -63q-311 0 -502 191q-86 86 -133 204.5t-47 247.5q0 167 64 317.5t172 252.5q109 103 260 159t321 56zM870 211q198 0 336 135q75 73 118.5 178.5
t43.5 220.5q0 176 -108 289q-111 119 -312 119q-198 0 -340 -131q-77 -72 -117 -174t-40 -215q0 -189 108 -297q116 -125 311 -125zM1333 1745l-342 -256l-90 92l287 287z" />
    <glyph glyph-name="Ocircumflex" unicode="&#xd4;" horiz-adv-x="1650" 
d="M991 1397q143 0 265.5 -47.5t207.5 -128.5q181 -171 181 -455q0 -165 -58 -316t-162 -257q-94 -98 -236 -161t-333 -63q-311 0 -502 191q-86 86 -133 204.5t-47 247.5q0 167 64 317.5t172 252.5q109 103 260 159t321 56zM870 211q198 0 336 135q75 73 118.5 178.5
t43.5 220.5q0 176 -108 289q-111 119 -312 119q-198 0 -340 -131q-77 -72 -117 -174t-40 -215q0 -189 108 -297q116 -125 311 -125zM1061 1642l-197 -153l-106 100l329 258l263 -258l-133 -100z" />
    <glyph glyph-name="Otilde" unicode="&#xd5;" horiz-adv-x="1650" 
d="M991 1397q143 0 265.5 -47.5t207.5 -128.5q181 -171 181 -455q0 -165 -58 -316t-162 -257q-94 -98 -236 -161t-333 -63q-311 0 -502 191q-86 86 -133 204.5t-47 247.5q0 167 64 317.5t172 252.5q109 103 260 159t321 56zM870 211q198 0 336 135q75 73 118.5 178.5
t43.5 220.5q0 176 -108 289q-111 119 -312 119q-198 0 -340 -131q-77 -72 -117 -174t-40 -215q0 -189 108 -297q116 -125 311 -125zM1253 1737l101 -76q-25 -37 -51.5 -63t-38.5 -33q-53 -47 -113 -47q-39 -2 -100 22q-4 1 -29.5 12t-51.5 20t-38 9q-7 0 -12.5 -1t-11 -4
t-8.5 -4.5t-9.5 -6.5t-7.5 -6q-6 -4 -12 -10.5t-15 -19t-12 -16.5l-94 76q55 74 73 92q63 54 131 54q29 0 78 -17l87 -32q51 -17 55 -13q30 0 49 19q5 4 30 45z" />
    <glyph glyph-name="Odieresis" unicode="&#xd6;" horiz-adv-x="1650" 
d="M991 1397q143 0 265.5 -47.5t207.5 -128.5q181 -171 181 -455q0 -165 -58 -316t-162 -257q-94 -98 -236 -161t-333 -63q-311 0 -502 191q-86 86 -133 204.5t-47 247.5q0 167 64 317.5t172 252.5q109 103 260 159t321 56zM870 211q198 0 336 135q75 73 118.5 178.5
t43.5 220.5q0 176 -108 289q-111 119 -312 119q-198 0 -340 -131q-77 -72 -117 -174t-40 -215q0 -189 108 -297q116 -125 311 -125zM1065 1638q0 74 47 121q46 49 117 49q58 0 94 -36q37 -37 37 -93q0 -69 -49 -118q-48 -48 -113 -48q-61 0 -98 37q-35 35 -35 88zM606 1638
q0 74 47 121q46 49 117 49q58 0 94 -36q37 -37 37 -93q0 -69 -49 -118q-48 -48 -113 -48q-61 0 -98 37q-35 35 -35 88z" />
    <glyph glyph-name="multiply" unicode="&#xd7;" horiz-adv-x="1024" 
d="M172 440l254 254l-254 254l168 168l254 -254l254 254l168 -168l-254 -254l254 -254l-168 -168l-254 254l-254 -254z" />
    <glyph glyph-name="Oslash" unicode="&#xd8;" horiz-adv-x="1720" 
d="M92 63l215 193q-104 162 -104 367q0 335 235 559q229 215 561 215q132 0 237.5 -32.5t205.5 -100.5l211 186l131 -150l-207 -184q96 -168 96 -356q0 -161 -57.5 -311.5t-161.5 -255.5q-93 -98 -235.5 -161t-333.5 -63q-133 0 -237 32t-206 108l-219 -195zM1360 924
l-717 -637q124 -76 256 -76q100 0 187 36.5t149 98.5q76 73 119 178t43 221q0 93 -37 179zM518 442l717 637q-124 74 -258 74q-197 0 -340 -131q-158 -158 -158 -389q0 -109 39 -191z" />
    <glyph glyph-name="Ugrave" unicode="&#xd9;" horiz-adv-x="1404" 
d="M319 1366h267l-92 -756q-15 -108 -15 -151q0 -115 70 -185q69 -63 186 -63q116 0 193 57q35 26 58 59.5t36.5 84.5t19 82.5t13.5 99.5l96 772h266l-98 -801q-25 -172 -41 -233q-39 -136 -121 -219q-46 -46 -102.5 -77t-116 -44.5t-105.5 -18t-100 -4.5q-268 0 -405 137
q-113 116 -113 316q0 96 18 231zM924 1489l-260 246l145 133l215 -283z" />
    <glyph glyph-name="Uacute" unicode="&#xda;" horiz-adv-x="1404" 
d="M319 1366h267l-92 -756q-15 -108 -15 -151q0 -115 70 -185q69 -63 186 -63q116 0 193 57q35 26 58 59.5t36.5 84.5t19 82.5t13.5 99.5l96 772h266l-98 -801q-25 -172 -41 -233q-39 -136 -121 -219q-46 -46 -102.5 -77t-116 -44.5t-105.5 -18t-100 -4.5q-268 0 -405 137
q-113 116 -113 316q0 96 18 231zM1198 1745l-342 -256l-90 92l287 287z" />
    <glyph glyph-name="Ucircumflex" unicode="&#xdb;" horiz-adv-x="1404" 
d="M319 1366h267l-92 -756q-15 -108 -15 -151q0 -115 70 -185q69 -63 186 -63q116 0 193 57q35 26 58 59.5t36.5 84.5t19 82.5t13.5 99.5l96 772h266l-98 -801q-25 -172 -41 -233q-39 -136 -121 -219q-46 -46 -102.5 -77t-116 -44.5t-105.5 -18t-100 -4.5q-268 0 -405 137
q-113 116 -113 316q0 96 18 231zM907 1679l-268 -180l-111 131l402 275l336 -275l-136 -131z" />
    <glyph glyph-name="Udieresis" unicode="&#xdc;" horiz-adv-x="1404" 
d="M319 1366h267l-92 -756q-15 -108 -15 -151q0 -115 70 -185q69 -63 186 -63q116 0 193 57q35 26 58 59.5t36.5 84.5t19 82.5t13.5 99.5l96 772h266l-98 -801q-25 -172 -41 -233q-39 -136 -121 -219q-46 -46 -102.5 -77t-116 -44.5t-105.5 -18t-100 -4.5q-268 0 -405 137
q-113 116 -113 316q0 96 18 231zM983 1638q0 74 47 121q46 49 117 49q58 0 94 -36q37 -37 37 -93q0 -69 -49 -118q-48 -48 -113 -48q-61 0 -98 37q-35 35 -35 88zM524 1638q0 74 47 121q46 49 117 49q58 0 94 -36q37 -37 37 -93q0 -69 -49 -118q-48 -48 -113 -48
q-61 0 -98 37q-35 35 -35 88z" />
    <glyph glyph-name="Yacute" unicode="&#xdd;" horiz-adv-x="1208" 
d="M465 0l76 625l-377 741h303l233 -475l353 475h327l-573 -741l-76 -625h-266zM1085 1745l-342 -256l-90 92l287 287z" />
    <glyph glyph-name="Thorn" unicode="&#xde;" horiz-adv-x="1093" 
d="M324 1366h266l-23 -184h123q286 0 391 -158q64 -94 64 -254q0 -213 -125 -330q-127 -118 -383 -118h-176l-39 -322h-266zM539 952l-50 -401h113q42 0 69 2.5t67 15.5t69 39q65 58 65 160t-73 147q-62 37 -166 37h-94z" />
    <glyph glyph-name="germandbls" unicode="&#xdf;" horiz-adv-x="1167" 
d="M369 0h-250l129 1036q8 58 14.5 92.5t21.5 86t41 96t64 84.5q123 123 330 123q194 0 309 -109q98 -92 98 -254q0 -107 -53 -184q-65 -90 -155 -125q98 -39 159 -119q72 -94 72 -235q0 -216 -152 -365q-164 -156 -454 -156h-19l29 222q75 -1 140 24t108 68q84 88 84 213
q0 97 -58 155q-76 68 -202 68h-11l27 213q111 -3 178 61q60 54 60 140q0 73 -50 120q-45 41 -120 41q-84 0 -138 -51q-58 -54 -77 -211z" />
    <glyph glyph-name="agrave" unicode="&#xe0;" 
d="M897 772l14 115h250l-108 -887h-250l14 115q-49 -62 -112 -101q-76 -43 -166 -43q-178 0 -291 113q-119 119 -119 313q0 235 137 379q135 139 350 139q98 0 177 -43q65 -36 104 -100zM651 694q-106 0 -174 -63q-88 -85 -88 -205q0 -108 68 -176q64 -57 164 -57
q108 0 176 63q43 40 65.5 97t22.5 116q0 96 -62 158q-67 67 -172 67zM823 1024l-260 246l146 133l215 -283z" />
    <glyph glyph-name="aacute" unicode="&#xe1;" 
d="M897 772l14 115h250l-108 -887h-250l14 115q-49 -62 -112 -101q-76 -43 -166 -43q-178 0 -291 113q-119 119 -119 313q0 235 137 379q135 139 350 139q98 0 177 -43q65 -36 104 -100zM651 694q-106 0 -174 -63q-88 -85 -88 -205q0 -108 68 -176q64 -57 164 -57
q108 0 176 63q43 40 65.5 97t22.5 116q0 96 -62 158q-67 67 -172 67zM1069 1280l-342 -256l-90 92l287 287z" />
    <glyph glyph-name="acircumflex" unicode="&#xe2;" 
d="M897 772l14 115h250l-108 -887h-250l14 115q-49 -62 -112 -101q-76 -43 -166 -43q-178 0 -291 113q-119 119 -119 313q0 235 137 379q135 139 350 139q98 0 177 -43q65 -36 104 -100zM651 694q-106 0 -174 -63q-88 -85 -88 -205q0 -108 68 -176q64 -57 164 -57
q108 0 176 63q43 40 65.5 97t22.5 116q0 96 -62 158q-67 67 -172 67zM766 1178l-197 -154l-106 100l330 258l262 -258l-133 -100z" />
    <glyph glyph-name="atilde" unicode="&#xe3;" 
d="M897 772l14 115h250l-108 -887h-250l14 115q-49 -62 -112 -101q-76 -43 -166 -43q-178 0 -291 113q-119 119 -119 313q0 235 137 379q135 139 350 139q98 0 177 -43q65 -36 104 -100zM651 694q-106 0 -174 -63q-88 -85 -88 -205q0 -108 68 -176q64 -57 164 -57
q108 0 176 63q43 40 65.5 97t22.5 116q0 96 -62 158q-67 67 -172 67zM989 1284l101 -76q-25 -37 -51.5 -62.5t-39.5 -33.5q-53 -47 -112 -47q-40 -2 -101 22q-4 1 -29 12t-51 20t-38 9q-19 0 -50 -22q-6 -4 -12 -10t-14 -18t-12 -17l-95 76q52 70 74 92q62 53 131 53
q32 0 78 -16l86 -32q51 -17 55 -13q31 0 49 18q7 6 31 45z" />
    <glyph glyph-name="adieresis" unicode="&#xe4;" 
d="M897 772l14 115h250l-108 -887h-250l14 115q-49 -62 -112 -101q-76 -43 -166 -43q-178 0 -291 113q-119 119 -119 313q0 235 137 379q135 139 350 139q98 0 177 -43q65 -36 104 -100zM651 694q-106 0 -174 -63q-88 -85 -88 -205q0 -108 68 -176q64 -57 164 -57
q108 0 176 63q43 40 65.5 97t22.5 116q0 96 -62 158q-67 67 -172 67zM807 1184q0 65 49 114q50 50 119 50q53 0 94 -41q33 -42 33 -90q0 -59 -45 -111q-48 -53 -121 -53q-56 0 -90 34q-39 39 -39 97zM381 1184q0 65 49 114q50 50 119 50q53 0 94 -41q33 -42 33 -90
q0 -59 -45 -111q-48 -53 -121 -53q-56 0 -90 34q-39 39 -39 97z" />
    <glyph glyph-name="aring" unicode="&#xe5;" 
d="M897 772l14 115h250l-108 -887h-250l14 115q-49 -62 -112 -101q-76 -43 -166 -43q-178 0 -291 113q-119 119 -119 313q0 235 137 379q135 139 350 139q98 0 177 -43q65 -36 104 -100zM651 694q-106 0 -174 -63q-88 -85 -88 -205q0 -108 68 -176q64 -57 164 -57
q108 0 176 63q43 40 65.5 97t22.5 116q0 96 -62 158q-67 67 -172 67zM489 1206q0 83 60 150q65 65 158 65q68 0 116 -45q54 -54 54 -133q0 -89 -62 -151q-56 -56 -141 -56q-84 0 -135 51q-50 50 -50 119zM604 1219q0 -24 17 -48q17 -22 53 -22q44 0 65 27q25 25 25 61
q0 30 -21 51t-51 21q-33 0 -59 -23q-29 -23 -29 -67z" />
    <glyph glyph-name="ae" unicode="&#xe6;" horiz-adv-x="1658" 
d="M891 766q43 54 121 100q92 49 217 49q193 0 297 -104q134 -129 106 -410h-659q0 -50 17 -100.5t48 -79.5q53 -53 160 -53q73 0 125 39q42 31 61 78l226 -37q-53 -133 -150 -199q-108 -78 -276 -78q-59 0 -113.5 10.5t-78 19.5t-38.5 17q-64 32 -125 99q-52 -70 -139 -109
q-86 -37 -221 -37q-195 0 -289 92q-76 73 -76 193q0 159 125 238q93 61 263 61q144 0 253 -61v43q0 99 -63 145q-48 37 -152 37q-117 0 -241 -47l24 198q131 45 269 45q111 0 188 -38q79 -36 121 -111zM350 258q0 -47 41 -76q50 -35 131 -35q80 0 129 29q62 35 62 96
q0 50 -54 82q-48 25 -122 25q-88 0 -134 -29q-53 -35 -53 -92zM997 561h420q-12 92 -67 139q-55 39 -129 39q-99 0 -154 -55q-44 -44 -70 -123z" />
    <glyph glyph-name="ccedilla" unicode="&#xe7;" horiz-adv-x="860" 
d="M897 862l-31 -246q-87 78 -211 78q-115 0 -184 -69q-40 -40 -61 -95t-21 -108q0 -100 62 -162q64 -67 167 -67q122 0 205 77l-28 -243q-98 -56 -234 -56q-198 0 -323 125q-111 116 -111 299q0 227 143 373q143 147 381 147q135 0 246 -53zM492 -94l180 -90l-291 -299
l-131 73z" />
    <glyph glyph-name="egrave" unicode="&#xe8;" horiz-adv-x="1077" 
d="M805 289l215 -51q-72 -140 -189 -207q-108 -60 -266 -60q-101 0 -181.5 26.5t-147.5 96.5q-107 111 -107 287q0 118 40.5 224.5t113.5 178.5q131 131 354 131q194 0 303 -102q115 -110 115 -321q0 -73 -4 -91h-664q-14 -113 51 -178q55 -55 146 -55q85 0 135 29
q53 31 86 92zM416 561h420q-3 76 -56 129q-52 49 -139 49q-88 0 -152 -57q-54 -54 -73 -121zM721 1024l-260 246l145 133l215 -283z" />
    <glyph glyph-name="eacute" unicode="&#xe9;" horiz-adv-x="1077" 
d="M805 289l215 -51q-72 -140 -189 -207q-108 -60 -266 -60q-101 0 -181.5 26.5t-147.5 96.5q-107 111 -107 287q0 118 40.5 224.5t113.5 178.5q131 131 354 131q194 0 303 -102q115 -110 115 -321q0 -73 -4 -91h-664q-14 -113 51 -178q55 -55 146 -55q85 0 135 29
q53 31 86 92zM416 561h420q-3 76 -56 129q-52 49 -139 49q-88 0 -152 -57q-54 -54 -73 -121zM991 1280l-342 -256l-90 92l287 287z" />
    <glyph glyph-name="ecircumflex" unicode="&#xea;" horiz-adv-x="1077" 
d="M805 289l215 -51q-72 -140 -189 -207q-108 -60 -266 -60q-101 0 -181.5 26.5t-147.5 96.5q-107 111 -107 287q0 118 40.5 224.5t113.5 178.5q131 131 354 131q194 0 303 -102q115 -110 115 -321q0 -73 -4 -91h-664q-14 -113 51 -178q55 -55 146 -55q85 0 135 29
q53 31 86 92zM416 561h420q-3 76 -56 129q-52 49 -139 49q-88 0 -152 -57q-54 -54 -73 -121zM688 1178l-196 -154l-107 100l330 258l262 -258l-133 -100z" />
    <glyph glyph-name="edieresis" unicode="&#xeb;" horiz-adv-x="1077" 
d="M805 289l215 -51q-72 -140 -189 -207q-108 -60 -266 -60q-101 0 -181.5 26.5t-147.5 96.5q-107 111 -107 287q0 118 40.5 224.5t113.5 178.5q131 131 354 131q194 0 303 -102q115 -110 115 -321q0 -73 -4 -91h-664q-14 -113 51 -178q55 -55 146 -55q85 0 135 29
q53 31 86 92zM416 561h420q-3 76 -56 129q-52 49 -139 49q-88 0 -152 -57q-54 -54 -73 -121zM725 1184q0 65 49 114q50 50 119 50q53 0 94 -41q33 -42 33 -90q0 -59 -45 -111q-48 -53 -121 -53q-56 0 -90 34q-39 39 -39 97zM299 1184q0 65 49 114q50 50 119 50q53 0 94 -41
q33 -42 33 -90q0 -59 -45 -111q-48 -53 -121 -53q-56 0 -90 34q-39 39 -39 97z" />
    <glyph glyph-name="igrave" unicode="&#xec;" horiz-adv-x="487" 
d="M227 887h250l-108 -887h-250zM412 1024l-260 246l145 133l215 -283z" />
    <glyph glyph-name="iacute" unicode="&#xed;" horiz-adv-x="487" 
d="M227 887h250l-108 -887h-250zM653 1280l-342 -256l-90 92l287 287z" />
    <glyph glyph-name="icircumflex" unicode="&#xee;" horiz-adv-x="487" 
d="M227 887h250l-108 -887h-250zM395 1233l-200 -160l-103 115l328 262l262 -262l-127 -115z" />
    <glyph glyph-name="idieresis" unicode="&#xef;" horiz-adv-x="487" 
d="M227 887h250l-108 -887h-250zM444 1184q0 64 50 114t118 50q54 0 95 -41q32 -41 32 -90q0 -59 -45 -111q-48 -53 -121 -53q-56 0 -90 34q-39 39 -39 97zM18 1184q0 64 50 114t118 50q54 0 95 -41q32 -41 32 -90q0 -59 -45 -111q-48 -53 -121 -53q-56 0 -90 34
q-39 39 -39 97z" />
    <glyph glyph-name="eth" unicode="&#xf0;" horiz-adv-x="1122" 
d="M285 1204l92 193q274 -25 450 -135l299 94l50 -139l-226 -66q74 -85 121 -213q49 -140 49 -283q0 -63 -7.5 -127.5t-25 -142.5t-55.5 -150.5t-92 -123.5q-145 -140 -377 -140q-193 0 -311 111q-125 117 -125 307q0 105 37 203.5t102 163.5q131 131 336 131
q167 0 260 -103q-9 75 -49 152.5t-119 134.5l-420 -149l-41 127l310 102q-128 53 -258 53zM635 674q-115 0 -176 -72q-72 -75 -72 -209q0 -90 59 -149q54 -51 144 -51q110 0 168 67q36 37 56 96.5t20 118.5q0 93 -62 150q-53 49 -137 49z" />
    <glyph glyph-name="ntilde" unicode="&#xf1;" horiz-adv-x="1097" 
d="M119 0l108 887h250l-14 -115q42 64 108 102q67 41 172 41q157 0 238 -81q70 -72 70 -195q0 -22 -2 -43.5t-7.5 -56t-7.5 -52.5l-59 -487h-250l51 412q0 6 6 64t6 77q0 77 -40 113q-36 36 -109 36q-86 0 -139 -53q-59 -61 -76 -196l-55 -453h-250zM977 1325l110 -98
q-50 -76 -90 -111q-61 -55 -141 -55q-63 0 -143 37l-66 28q-68 29 -100 29q-68 0 -123 -84l-113 98q26 45 84 103q72 63 170 63q56 0 129 -30l74 -31q70 -33 106 -33q62 0 103 84z" />
    <glyph glyph-name="ograve" unicode="&#xf2;" 
d="M688 915q223 0 350 -127q115 -119 115 -294q0 -218 -158 -373q-84 -81 -183 -115.5t-224 -34.5q-219 0 -342 123q-117 112 -117 301q0 107 42 205t112 166q149 149 405 149zM612 193q118 0 195 77q39 39 61.5 92t22.5 107q0 43 -17.5 88.5t-48.5 75.5q-64 61 -161 61
q-115 0 -189 -71q-88 -80 -88 -211q0 -42 16.5 -84.5t45.5 -71.5q30 -30 74.5 -46.5t88.5 -16.5zM774 1024l-260 246l145 133l215 -283z" />
    <glyph glyph-name="oacute" unicode="&#xf3;" 
d="M688 915q223 0 350 -127q115 -119 115 -294q0 -218 -158 -373q-84 -81 -183 -115.5t-224 -34.5q-219 0 -342 123q-117 112 -117 301q0 107 42 205t112 166q149 149 405 149zM612 193q118 0 195 77q39 39 61.5 92t22.5 107q0 43 -17.5 88.5t-48.5 75.5q-64 61 -161 61
q-115 0 -189 -71q-88 -80 -88 -211q0 -42 16.5 -84.5t45.5 -71.5q30 -30 74.5 -46.5t88.5 -16.5zM1020 1280l-342 -256l-90 92l286 287z" />
    <glyph glyph-name="ocircumflex" unicode="&#xf4;" 
d="M688 915q223 0 350 -127q115 -119 115 -294q0 -218 -158 -373q-84 -81 -183 -115.5t-224 -34.5q-219 0 -342 123q-117 112 -117 301q0 107 42 205t112 166q149 149 405 149zM612 193q118 0 195 77q39 39 61.5 92t22.5 107q0 43 -17.5 88.5t-48.5 75.5q-64 61 -161 61
q-115 0 -189 -71q-88 -80 -88 -211q0 -42 16.5 -84.5t45.5 -71.5q30 -30 74.5 -46.5t88.5 -16.5zM748 1178l-197 -154l-107 100l330 258l262 -258l-133 -100z" />
    <glyph glyph-name="otilde" unicode="&#xf5;" 
d="M688 915q223 0 350 -127q115 -119 115 -294q0 -218 -158 -373q-84 -81 -183 -115.5t-224 -34.5q-219 0 -342 123q-117 112 -117 301q0 107 42 205t112 166q149 149 405 149zM612 193q118 0 195 77q39 39 61.5 92t22.5 107q0 43 -17.5 88.5t-48.5 75.5q-64 61 -161 61
q-115 0 -189 -71q-88 -80 -88 -211q0 -42 16.5 -84.5t45.5 -71.5q30 -30 74.5 -46.5t88.5 -16.5zM963 1284l100 -76q-25 -37 -51.5 -63t-38.5 -33q-53 -47 -113 -47q-39 -2 -100 22q-4 1 -29.5 12t-51.5 20t-38 9q-7 0 -12.5 -1t-11 -4t-8.5 -4.5t-9.5 -6.5t-7.5 -6
q-6 -4 -12 -10t-15.5 -19t-11.5 -16l-94 76q55 74 73 92q62 53 132 53q31 0 77 -16l87 -32q51 -17 55 -13q31 0 49 18q7 6 31 45z" />
    <glyph glyph-name="odieresis" unicode="&#xf6;" 
d="M688 915q223 0 350 -127q115 -119 115 -294q0 -218 -158 -373q-84 -81 -183 -115.5t-224 -34.5q-219 0 -342 123q-117 112 -117 301q0 107 42 205t112 166q149 149 405 149zM612 193q118 0 195 77q39 39 61.5 92t22.5 107q0 43 -17.5 88.5t-48.5 75.5q-64 61 -161 61
q-115 0 -189 -71q-88 -80 -88 -211q0 -42 16.5 -84.5t45.5 -71.5q30 -30 74.5 -46.5t88.5 -16.5zM766 1184q0 65 49 114q50 50 119 50q53 0 94 -41q33 -42 33 -90q0 -59 -45 -111q-48 -53 -121 -53q-56 0 -90 34q-39 39 -39 97zM340 1184q0 65 49 114q50 50 119 50
q53 0 94 -41q33 -42 33 -90q0 -59 -45 -111q-48 -53 -121 -53q-56 0 -90 34q-39 39 -39 97z" />
    <glyph glyph-name="divide" unicode="&#xf7;" horiz-adv-x="1024" 
d="M453 1047q0 60 42.5 102.5t102.5 42.5t102.5 -42.5t42.5 -102.5t-42.5 -103t-102.5 -43t-102.5 43t-42.5 103zM453 342q0 60 42.5 102.5t102.5 42.5t102.5 -42.5t42.5 -102.5t-42.5 -102.5t-102.5 -42.5t-102.5 42.5t-42.5 102.5zM154 580v229h888v-229h-888z" />
    <glyph glyph-name="oslash" unicode="&#xf8;" horiz-adv-x="1204" 
d="M70 16l149 134q-72 110 -72 241q0 225 154 375q149 149 397 149q170 0 301 -79l160 141l90 -105l-151 -135q73 -110 73 -248q0 -214 -157 -368q-150 -150 -391 -150q-172 0 -299 76l-154 -137zM893 555l-375 -334q61 -28 113 -28q117 0 194 77q40 37 62 90.5t22 108.5
q0 43 -16 86zM424 328l379 336q-53 30 -121 30q-111 0 -188 -71q-88 -88 -88 -207q0 -48 18 -88z" />
    <glyph glyph-name="ugrave" unicode="&#xf9;" horiz-adv-x="1099" 
d="M229 887h250l-53 -443q-10 -90 -10 -106q0 -72 37 -109q39 -45 125 -45q81 0 137 49q32 32 45 73.5t22 113.5l58 467h250l-60 -490q-20 -140 -60 -226t-132 -140q-102 -60 -265 -60q-185 0 -292 76q-47 31 -83 93t-36 151q0 45 12 139zM725 1024l-260 246l145 133
l215 -283z" />
    <glyph glyph-name="uacute" unicode="&#xfa;" horiz-adv-x="1099" 
d="M229 887h250l-53 -443q-10 -90 -10 -106q0 -72 37 -109q39 -45 125 -45q81 0 137 49q32 32 45 73.5t22 113.5l58 467h250l-60 -490q-20 -140 -60 -226t-132 -140q-102 -60 -265 -60q-185 0 -292 76q-47 31 -83 93t-36 151q0 45 12 139zM985 1280l-342 -256l-90 92
l287 287z" />
    <glyph glyph-name="ucircumflex" unicode="&#xfb;" horiz-adv-x="1099" 
d="M229 887h250l-53 -443q-10 -90 -10 -106q0 -72 37 -109q39 -45 125 -45q81 0 137 49q32 32 45 73.5t22 113.5l58 467h250l-60 -490q-20 -140 -60 -226t-132 -140q-102 -60 -265 -60q-185 0 -292 76q-47 31 -83 93t-36 151q0 45 12 139zM705 1233l-248 -189l-113 123
l383 283l313 -283l-133 -123z" />
    <glyph glyph-name="udieresis" unicode="&#xfc;" horiz-adv-x="1099" 
d="M229 887h250l-53 -443q-10 -90 -10 -106q0 -72 37 -109q39 -45 125 -45q81 0 137 49q32 32 45 73.5t22 113.5l58 467h250l-60 -490q-20 -140 -60 -226t-132 -140q-102 -60 -265 -60q-185 0 -292 76q-47 31 -83 93t-36 151q0 45 12 139zM762 1184q0 65 49 114
q50 50 119 50q53 0 94 -41q33 -42 33 -90q0 -59 -45 -111q-48 -53 -121 -53q-56 0 -90 34q-39 39 -39 97zM336 1184q0 65 49 114q50 50 119 50q53 0 94 -41q33 -42 33 -90q0 -59 -45 -111q-48 -53 -121 -53q-56 0 -90 34q-39 39 -39 97z" />
    <glyph glyph-name="yacute" unicode="&#xfd;" horiz-adv-x="1101" 
d="M43 -469l399 602l-329 754h282l213 -504l307 504h291l-880 -1356h-283zM971 1280l-342 -256l-90 92l286 287z" />
    <glyph glyph-name="thorn" unicode="&#xfe;" 
d="M383 115l-72 -584h-250l240 1962h250l-88 -721q55 66 131 105q70 38 164 38q175 0 278 -98q117 -112 117 -313q0 -254 -152 -406q-127 -127 -321 -127q-131 0 -207 52q-48 28 -90 92zM668 694q-114 0 -187 -73q-84 -81 -84 -199q0 -94 56 -160q60 -69 176 -69
q111 0 182 71q82 82 82 211q0 103 -66 162q-64 57 -159 57z" />
    <glyph glyph-name="ydieresis" unicode="&#xff;" horiz-adv-x="1101" 
d="M43 -469l399 602l-329 754h282l213 -504l307 504h291l-880 -1356h-283zM766 1184q0 65 49 114q50 50 119 50q53 0 94 -41q33 -42 33 -90q0 -59 -45 -111q-48 -53 -121 -53q-56 0 -90 34q-39 39 -39 97zM340 1184q0 65 49 114q50 50 119 50q53 0 94 -41q33 -42 33 -90
q0 -59 -45 -111q-48 -53 -121 -53q-56 0 -90 34q-39 39 -39 97z" />
    <glyph glyph-name="Abreve" unicode="&#x102;" horiz-adv-x="1376" 
d="M1092 0l-86 287h-551l-156 -287h-295l764 1366h201l403 -1366h-280zM565 504h389l-131 491zM1057 1747h164q-21 -84 -86 -162q-105 -98 -248 -98t-221 98q-45 68 -45 162h163q0 -53 27 -80q35 -35 94 -35t105 35q35 30 47 80z" />
    <glyph glyph-name="abreve" unicode="&#x103;" 
d="M897 772l14 115h250l-108 -887h-250l14 115q-49 -62 -112 -101q-76 -43 -166 -43q-178 0 -291 113q-119 119 -119 313q0 235 137 379q135 139 350 139q98 0 177 -43q65 -36 104 -100zM651 694q-106 0 -174 -63q-88 -85 -88 -205q0 -108 68 -176q64 -57 164 -57
q108 0 176 63q43 40 65.5 97t22.5 116q0 96 -62 158q-67 67 -172 67zM961 1284h163q-21 -84 -86 -162q-105 -98 -247 -98q-144 0 -222 98q-45 68 -45 162h164q0 -53 27 -80q35 -35 94 -35q58 0 104 35q36 32 48 80z" />
    <glyph glyph-name="Dcroat" unicode="&#x110;" horiz-adv-x="1378" 
d="M324 1366h356q342 0 522 -174q77 -74 123.5 -187.5t46.5 -259.5q0 -112 -21.5 -208t-56.5 -161t-63.5 -102.5t-59.5 -66.5q-114 -112 -268.5 -159.5t-378.5 -47.5h-102h-266l67 555h-127l25 205h127zM561 1137l-47 -377h219l-24 -205h-220l-38 -326h90q146 0 252 33
t180 115q63 69 94 164t31 198q0 186 -119 291q-121 107 -336 107h-82z" />
    <glyph glyph-name="dcroat" unicode="&#x111;" horiz-adv-x="1167" 
d="M897 772l49 373h-256l19 160h256l24 188h246l-25 -188h179l-19 -160h-178l-139 -1145h-250l14 115q-2 -5 -15 -21.5t-40 -41t-55 -40.5q-74 -41 -181 -41q-167 0 -274 107q-123 123 -123 330q0 118 38 214.5t101 159.5q57 60 145.5 96.5t180.5 36.5q100 0 184 -41
q1 -1 8 -4.5t10 -5.5t10.5 -6.5t12 -7.5t12 -8.5t13 -10.5t13.5 -12t14 -13.5t13 -15.5t13 -18zM647 694q-111 0 -178 -67q-80 -74 -80 -197q0 -113 70 -180q61 -57 162 -57q113 0 184 71q39 39 60.5 99.5t21.5 115.5q0 89 -66 152q-68 63 -174 63z" />
    <glyph glyph-name="Itilde" unicode="&#x128;" horiz-adv-x="577" 
d="M686 1737l100 -76q-25 -37 -51.5 -63t-38.5 -33q-53 -47 -112 -47q-40 -2 -101 22q-4 1 -29 12t-51 20t-38 9q-19 0 -50 -22q-6 -4 -12 -10.5t-15 -19t-12 -16.5l-94 76q52 70 74 92q63 54 131 54q29 0 78 -17l86 -32q51 -17 55 -13q30 0 49 19q7 6 31 45zM324 1366h266
l-168 -1366h-266z" />
    <glyph glyph-name="itilde" unicode="&#x129;" horiz-adv-x="487" 
d="M227 887h250l-108 -887h-250zM575 1284l101 -76q-25 -37 -51.5 -63t-38.5 -33q-53 -47 -113 -47q-39 -2 -100 22q-4 1 -29.5 12t-51.5 20t-38 9q-7 0 -12.5 -1t-11 -4t-8.5 -4.5t-9.5 -6.5t-7.5 -6q-6 -4 -12 -10t-15.5 -19t-11.5 -16l-94 76q55 74 73 92q62 53 131 53
q32 0 78 -16l87 -32q51 -17 55 -13q31 0 49 18q5 4 30 45z" />
    <glyph glyph-name="OE" unicode="&#x152;" horiz-adv-x="2131" 
d="M2198 1366l-29 -229h-479l-37 -306h458l-28 -229h-459l-45 -373h479l-28 -229h-480h-266l23 184q-63 -81 -172 -147q-133 -68 -326 -68q-137 0 -247.5 36t-203.5 128q-184 181 -184 471q0 183 62 334t170 258q109 107 239 154t295 47q173 0 307 -62q122 -60 183 -153
l22 184h746zM852 211q210 0 346 139q69 69 108.5 169t39.5 220q0 188 -115 303q-113 113 -295 113q-209 0 -342 -133q-145 -148 -145 -395q0 -181 104 -295q116 -121 299 -121z" />
    <glyph glyph-name="oe" unicode="&#x153;" horiz-adv-x="1806" 
d="M1532 285l225 -37q-53 -134 -149 -199q-108 -78 -277 -78q-131 0 -229 47q-84 41 -141 125q-63 -76 -148 -123q-96 -49 -248 -49q-96 0 -176.5 26.5t-148.5 98.5q-111 119 -111 307q0 107 37 205.5t108 169.5q137 137 375 137q121 0 219 -45q90 -43 152 -116
q52 74 135 114q87 47 227 47q183 0 291 -104q135 -130 107 -410h-660q0 -50 17.5 -100t48.5 -80q53 -53 160 -53q72 0 124 39q44 32 62 78zM604 193q118 0 189 71q79 73 79 207q0 97 -65 162q-61 61 -160 61q-117 0 -184 -73q-74 -80 -74 -203q0 -91 57 -158q59 -67 158 -67
zM1147 561h420q-12 91 -68 139q-55 39 -129 39q-98 0 -153 -55q-44 -44 -70 -123z" />
    <glyph glyph-name="Scaron" unicode="&#x160;" horiz-adv-x="1093" 
d="M1118 1237l-162 -182q-82 116 -219 116q-94 0 -145 -47q-53 -50 -53 -114q0 -66 57 -105q10 -7 129 -61l92 -39q99 -41 170 -115q46 -48 65 -99t19 -120q0 -111 -39 -210t-106 -163q-136 -129 -373 -129q-161 0 -281 78q-99 64 -174 180l195 166q54 -92 96 -125
q67 -57 172 -57q115 0 178 68q52 52 52 141q0 74 -62 125q-21 18 -40.5 28t-52.5 21.5t-46 17.5l-78 33q-119 53 -166 100q-84 84 -84 226q0 178 117 295q131 131 371 131q225 0 368 -160zM760 1724l268 181l111 -131l-402 -275l-336 275l136 131z" />
    <glyph glyph-name="scaron" unicode="&#x161;" horiz-adv-x="819" 
d="M817 825l-129 -153q-31 31 -63 45q-35 18 -84 18q-58 0 -84 -28q-19 -24 -19 -54q0 -29 19 -45q23 -19 71 -33l76 -24q85 -28 137 -80q62 -67 62 -168q0 -135 -92 -227q-105 -105 -291 -105q-121 0 -209 43q-59 29 -135 105l149 151q35 -47 82 -73q56 -29 103 -29
q62 0 96 27q35 27 35 77q0 33 -23 56q-22 19 -88 43l-61 24q-70 25 -117 72q-59 59 -59 151q0 126 88 211q90 86 251 86q113 0 175 -28q51 -18 110 -62zM582 1262l247 188l113 -123l-383 -283l-313 283l133 123z" />
    <glyph glyph-name="Utilde" unicode="&#x168;" horiz-adv-x="1404" 
d="M319 1366h267l-92 -756q-15 -108 -15 -151q0 -115 70 -185q69 -63 186 -63q116 0 193 57q35 26 58 59.5t36.5 84.5t19 82.5t13.5 99.5l96 772h266l-98 -801q-25 -172 -41 -233q-39 -136 -121 -219q-46 -46 -102.5 -77t-116 -44.5t-105.5 -18t-100 -4.5q-268 0 -405 137
q-113 116 -113 316q0 96 18 231zM1085 1737l101 -76q-25 -37 -51.5 -63t-38.5 -33q-53 -47 -113 -47q-39 -2 -100 22q-4 1 -29.5 12t-51.5 20t-38 9q-7 0 -12.5 -1t-11 -4t-8.5 -4.5t-9.5 -6.5t-7.5 -6q-6 -4 -12 -10.5t-15 -19t-12 -16.5l-94 76q55 74 73 92q63 54 131 54
q29 0 78 -17l87 -32q51 -17 55 -13q30 0 49 19q5 4 30 45z" />
    <glyph glyph-name="utilde" unicode="&#x169;" horiz-adv-x="1099" 
d="M229 887h250l-53 -443q-10 -90 -10 -106q0 -72 37 -109q39 -45 125 -45q81 0 137 49q32 32 45 73.5t22 113.5l58 467h250l-60 -490q-20 -140 -60 -226t-132 -140q-102 -60 -265 -60q-185 0 -292 76q-47 31 -83 93t-36 151q0 45 12 139zM889 1284l100 -76
q-25 -37 -51.5 -63t-38.5 -33q-53 -47 -113 -47q-39 -2 -100 22q-4 1 -29.5 12t-51.5 20t-38 9q-7 0 -12.5 -1t-11 -4t-8.5 -4.5t-9.5 -6.5t-7.5 -6q-6 -4 -12 -10t-15.5 -19t-11.5 -16l-94 76q52 70 74 92q62 53 131 53q32 0 78 -16l86 -32q51 -17 55 -13q31 0 49 18
q7 6 31 45z" />
    <glyph glyph-name="Ydieresis" unicode="&#x178;" horiz-adv-x="1208" 
d="M465 0l76 625l-377 741h303l233 -475l353 475h327l-573 -741l-76 -625h-266zM868 1638q0 74 47 121q46 49 117 49q58 0 94 -36q37 -37 37 -93q0 -69 -49 -118q-48 -48 -113 -48q-61 0 -98 37q-35 35 -35 88zM410 1638q0 74 47 121q46 49 116 49q59 0 95 -36
q37 -37 37 -93q0 -68 -50 -118q-48 -48 -112 -48q-62 0 -99 37q-34 34 -34 88z" />
    <glyph glyph-name="Zcaron" unicode="&#x17d;" horiz-adv-x="1196" 
d="M1319 1366l-803 -1137h631l-29 -229h-1073l803 1137h-559l28 229h1002zM842 1724l268 181l111 -131l-402 -275l-336 275l135 131z" />
    <glyph glyph-name="zcaron" unicode="&#x17e;" horiz-adv-x="991" 
d="M1075 887l-586 -674h469l-26 -213h-907l585 674h-426l27 213h864zM664 1262l247 188l113 -123l-383 -283l-313 283l133 123z" />
    <glyph glyph-name="florin" unicode="&#x192;" horiz-adv-x="1163" 
d="M557 711h-123l45 176h123l70 266q16 56 27.5 89.5t41 85.5t68.5 89q99 99 262 99q99 0 174 -39l-55 -220q-60 31 -111 31q-61 0 -96 -35q-34 -34 -61 -123l-66 -243h221l-45 -176h-221l-133 -545q-40 -163 -83 -258t-112 -158q-70 -64 -157.5 -91.5t-206.5 -27.5
q-55 0 -101 9l56 229q35 -6 65 -6q106 0 168 53q31 25 56 76t36 89.5t27 102.5z" />
    <glyph glyph-name="Ohorn" unicode="&#x1a0;" horiz-adv-x="1650" 
d="M991 1397q93 0 178 -21q113 -19 267 -10q33 0 47 14q20 18 24 82q0 5 6 56h187l-6 -54q-11 -121 -61.5 -180.5t-162.5 -69.5q79 -79 127 -193t48 -255q0 -165 -58 -316t-162 -257q-94 -98 -236 -161t-333 -63q-311 0 -502 191q-86 86 -133 204.5t-47 247.5
q0 167 64 317.5t172 252.5q109 103 260 159t321 56zM870 211q198 0 336 135q75 73 118.5 178.5t43.5 220.5q0 176 -108 289q-111 119 -312 119q-198 0 -340 -131q-77 -72 -117 -174t-40 -215q0 -189 108 -297q116 -125 311 -125z" />
    <glyph glyph-name="ohorn" unicode="&#x1a1;" 
d="M688 915q93 0 160 -20q103 -18 149 -6q38 5 47 14q21 19 25 82q0 4 6 55h187l-7 -53q-11 -110 -51 -167t-129 -77q78 -107 78 -249q0 -218 -158 -373q-84 -81 -183 -115.5t-224 -34.5q-219 0 -342 123q-117 112 -117 301q0 107 42 205t112 166q149 149 405 149zM612 193
q118 0 195 77q39 39 61.5 92t22.5 107q0 43 -17.5 88.5t-48.5 75.5q-64 61 -161 61q-115 0 -189 -71q-88 -80 -88 -211q0 -42 16.5 -84.5t45.5 -71.5q30 -30 74.5 -46.5t88.5 -16.5z" />
    <glyph glyph-name="Uhorn" unicode="&#x1af;" horiz-adv-x="1404" 
d="M319 1366h267l-92 -756q-15 -108 -15 -151q0 -115 70 -185q69 -63 186 -63q116 0 193 57q35 26 58 59.5t36.5 84.5t19 82.5t13.5 99.5l96 772h219q38 5 47 14q21 19 25 82q0 5 6 56h186l-6 -54q-11 -122 -63 -181t-166 -69l-80 -649q-25 -172 -41 -233
q-39 -136 -121 -219q-46 -46 -102.5 -77t-116 -44.5t-105.5 -18t-100 -4.5q-268 0 -405 137q-113 116 -113 316q0 96 18 231z" />
    <glyph glyph-name="uhorn" unicode="&#x1b0;" horiz-adv-x="1136" 
d="M229 887h250l-53 -443q-10 -90 -10 -106q0 -72 37 -109q39 -45 125 -45q81 0 137 49q32 32 45 73.5t22 113.5l58 467h188q6 0 8 2q38 5 47 14q21 19 25 82q0 4 6 55h186l-6 -53q-11 -121 -61 -180.5t-162 -69.5l-41 -340q-20 -140 -60 -226t-132 -140q-102 -60 -265 -60
q-185 0 -292 76q-47 31 -83 93t-36 151q0 45 12 139z" />
    <glyph glyph-name="afii57929" unicode="&#x2bc;" horiz-adv-x="1024" 
d="M328 979l217 434l233 -41l-278 -426z" />
    <glyph glyph-name="circumflex" unicode="&#x2c6;" horiz-adv-x="1024" 
d="M668 1233l-248 -189l-113 123l383 283l314 -283l-134 -123z" />
    <glyph glyph-name="caron" unicode="&#x2c7;" horiz-adv-x="1024" 
d="M664 1262l247 188l113 -123l-383 -283l-313 283l133 123z" />
    <glyph glyph-name="uni02C9" unicode="&#x2c9;" horiz-adv-x="1024" 
d="M279 1104l20 164h745l-20 -164h-745z" />
    <glyph glyph-name="breve" unicode="&#x2d8;" horiz-adv-x="1024" 
d="M831 1331h181q-19 -117 -101 -192q-100 -97 -258 -97q-147 0 -231 84q-79 79 -82 205h164q11 -58 43 -90q39 -39 110 -39q70 0 117 37q43 36 57 92z" />
    <glyph glyph-name="dotaccent" unicode="&#x2d9;" horiz-adv-x="1024" 
d="M502 1192q0 74 49 123t121 49q65 0 106 -41q39 -50 39 -106q0 -74 -47 -117q-51 -47 -121 -47q-67 0 -106 39q-41 41 -41 100z" />
    <glyph glyph-name="ring" unicode="&#x2da;" horiz-adv-x="1024" 
d="M469 1206q0 84 59 150q65 65 158 65q69 0 117 -45q53 -53 53 -133q0 -90 -61 -151q-56 -56 -142 -56q-84 0 -135 51q-49 49 -49 119zM584 1219q0 -26 16 -48t53 -22q45 0 66 27q24 24 24 61q0 31 -20 51q-21 21 -51 21q-34 0 -60 -23q-28 -22 -28 -67z" />
    <glyph glyph-name="ogonek" unicode="&#x2db;" horiz-adv-x="1024" 
d="M573 0h119q-56 -33 -88 -68q-45 -45 -45 -100q0 -35 25 -49q16 -14 55 -14q57 0 102 24l-47 -137q-61 -35 -135 -35q-82 0 -127 45q-39 39 -39 101q0 82 78 157q45 45 102 76z" />
    <glyph glyph-name="tilde" unicode="&#x2dc;" horiz-adv-x="1024" 
d="M936 1325l111 -98q-49 -74 -91 -111q-61 -55 -141 -55q-63 0 -143 37l-66 28q-68 29 -100 29q-68 0 -123 -84l-113 98q26 45 84 103q72 63 170 63q56 0 129 -30l74 -31q70 -33 107 -33q61 0 102 84z" />
    <glyph glyph-name="hungarumlaut" unicode="&#x2dd;" horiz-adv-x="1024" 
d="M592 1413l153 -119l-305 -274l-92 82zM977 1411l153 -117l-305 -274l-92 82z" />
    <glyph glyph-name="acutecomb" unicode="&#x301;" horiz-adv-x="4" 
d="M-297 1434l166 -115l-340 -275l-104 82z" />
    <glyph glyph-name="uni1EA0" unicode="&#x1ea0;" horiz-adv-x="1376" 
d="M532 -317q0 57 41 98q39 43 101 43q47 0 78 -31q32 -32 32 -80q0 -55 -41 -96q-43 -43 -100 -43q-38 0 -78 31q-33 33 -33 78zM1092 0l-86 287h-551l-156 -287h-295l764 1366h201l403 -1366h-280zM565 504h389l-131 491z" />
    <glyph glyph-name="uni1EA1" unicode="&#x1ea1;" 
d="M414 -317q0 57 41 98q39 43 100 43q47 0 78 -31q33 -33 33 -80q0 -55 -41 -96q-43 -43 -101 -43q-38 0 -78 31q-32 32 -32 78zM897 772l14 115h250l-108 -887h-250l14 115q-49 -62 -112 -101q-76 -43 -166 -43q-178 0 -291 113q-119 119 -119 313q0 235 137 379
q135 139 350 139q98 0 177 -43q65 -36 104 -100zM651 694q-106 0 -174 -63q-88 -85 -88 -205q0 -108 68 -176q64 -57 164 -57q108 0 176 63q43 40 65.5 97t22.5 116q0 96 -62 158q-67 67 -172 67z" />
    <glyph glyph-name="uni1EA2" unicode="&#x1ea2;" horiz-adv-x="1376" 
d="M954 1489h-125l23 162q32 -4 65.5 0.5t47.5 15.5q30 23 36 55q7 58 -57 58q-58 0 -70 -51h-126q18 77 51 110q18 23 60 43.5t102 20.5q102 0 145 -48.5t29 -136.5q-11 -69 -61 -113t-109 -49zM1092 0l-86 287h-551l-156 -287h-295l764 1366h201l403 -1366h-280zM565 504
h389l-131 491z" />
    <glyph glyph-name="uni1EA3" unicode="&#x1ea3;" 
d="M815 1024h-125l23 162q32 -4 65 0.5t47 15.5q12 9 17 14t11 15.5t9 25.5q7 58 -57 58q-58 0 -70 -51h-127q18 77 51 110q18 23 60 43.5t102 20.5q102 0 145 -48.5t29 -136.5q-11 -69 -61 -112.5t-109 -48.5zM897 772l14 115h250l-108 -887h-250l14 115q-49 -62 -112 -101
q-76 -43 -166 -43q-178 0 -291 113q-119 119 -119 313q0 235 137 379q135 139 350 139q98 0 177 -43q65 -36 104 -100zM651 694q-106 0 -174 -63q-88 -85 -88 -205q0 -108 68 -176q64 -57 164 -57q108 0 176 63q43 40 65.5 97t22.5 116q0 96 -62 158q-67 67 -172 67z" />
    <glyph glyph-name="uni1EA4" unicode="&#x1ea4;" horiz-adv-x="1376" 
d="M1507 2015l-342 -256l-90 92l287 287zM1092 0l-86 287h-551l-156 -287h-295l764 1366h201l403 -1366h-280zM565 504h389l-131 491zM897 1642l-197 -153l-106 100l330 258l262 -258l-133 -100z" />
    <glyph glyph-name="uni1EA5" unicode="&#x1ea5;" 
d="M1376 1550l-342 -256l-90 92l287 287zM897 772l14 115h250l-108 -887h-250l14 115q-49 -62 -112 -101q-76 -43 -166 -43q-178 0 -291 113q-119 119 -119 313q0 235 137 379q135 139 350 139q98 0 177 -43q65 -36 104 -100zM651 694q-106 0 -174 -63q-88 -85 -88 -205
q0 -108 68 -176q64 -57 164 -57q108 0 176 63q43 40 65.5 97t22.5 116q0 96 -62 158q-67 67 -172 67zM766 1178l-197 -154l-106 100l330 258l262 -258l-133 -100z" />
    <glyph glyph-name="uni1EA6" unicode="&#x1ea6;" horiz-adv-x="1376" 
d="M1186 1759l-260 246l145 133l215 -283zM1092 0l-86 287h-551l-156 -287h-295l764 1366h201l403 -1366h-280zM565 504h389l-131 491zM897 1642l-197 -153l-106 100l330 258l262 -258l-133 -100z" />
    <glyph glyph-name="uni1EA7" unicode="&#x1ea7;" 
d="M1055 1294l-260 246l145 133l215 -282zM897 772l14 115h250l-108 -887h-250l14 115q-49 -62 -112 -101q-76 -43 -166 -43q-178 0 -291 113q-119 119 -119 313q0 235 137 379q135 139 350 139q98 0 177 -43q65 -36 104 -100zM651 694q-106 0 -174 -63q-88 -85 -88 -205
q0 -108 68 -176q64 -57 164 -57q108 0 176 63q43 40 65.5 97t22.5 116q0 96 -62 158q-67 67 -172 67zM766 1178l-197 -154l-106 100l330 258l262 -258l-133 -100z" />
    <glyph glyph-name="uni1EA8" unicode="&#x1ea8;" horiz-adv-x="1376" 
d="M1245 1759h-125l23 162q32 -4 65 0.5t47 15.5q31 24 37 56q7 57 -57 57q-58 0 -70 -51h-127q18 76 52 110q18 23 59.5 43.5t101.5 20.5q102 0 145 -48t29 -136q-11 -69 -61 -113t-109 -49zM1092 0l-86 287h-551l-156 -287h-295l764 1366h201l403 -1366h-280zM565 504h389
l-131 491zM897 1642l-197 -153l-106 100l330 258l262 -258l-133 -100z" />
    <glyph glyph-name="uni1EA9" unicode="&#x1ea9;" 
d="M1114 1294h-125l23 162q32 -4 65 1t47 16q12 9 17 14t11 15.5t9 25.5q7 57 -57 57q-58 0 -70 -51h-127q18 78 51 111q18 23 60 43t102 20q102 0 145 -48t29 -136q-11 -69 -61 -113t-109 -49zM897 772l14 115h250l-108 -887h-250l14 115q-49 -62 -112 -101
q-76 -43 -166 -43q-178 0 -291 113q-119 119 -119 313q0 235 137 379q135 139 350 139q98 0 177 -43q65 -36 104 -100zM651 694q-106 0 -174 -63q-88 -85 -88 -205q0 -108 68 -176q64 -57 164 -57q108 0 176 63q43 40 65.5 97t22.5 116q0 96 -62 158q-67 67 -172 67z
M766 1178l-197 -154l-106 100l330 258l262 -258l-133 -100z" />
    <glyph glyph-name="uni1EAA" unicode="&#x1eaa;" horiz-adv-x="1376" 
d="M1151 2122l100 -76q-25 -37 -51.5 -63t-38.5 -33q-53 -47 -112 -47q-40 -2 -101 22q-4 1 -29.5 12t-51.5 20t-38 9q-7 0 -12.5 -1t-11 -4t-8.5 -4.5t-9.5 -6.5t-7.5 -6q-6 -4 -12 -10.5t-15 -19t-12 -16.5l-94 76q52 70 74 92q63 54 131 54q29 0 78 -17l86 -32
q51 -17 55 -13q30 0 49 19q7 6 31 45zM1092 0l-86 287h-551l-156 -287h-295l764 1366h201l403 -1366h-280zM565 504h389l-131 491zM897 1642l-197 -153l-106 100l330 258l262 -258l-133 -100z" />
    <glyph glyph-name="uni1EAB" unicode="&#x1eab;" 
d="M1020 1657l100 -76q-25 -37 -51.5 -63t-38.5 -33q-53 -47 -112 -47q-40 -2 -101 22q-4 1 -29.5 12t-51.5 20t-38 9q-7 0 -12.5 -1t-11 -4t-8.5 -4.5t-9.5 -6.5t-7.5 -6q-6 -4 -12 -10t-15.5 -19t-11.5 -16l-94 75q55 74 74 93q62 53 131 53q29 0 78 -17l86 -32
q51 -17 55 -13q30 0 49 19q7 6 31 45zM897 772l14 115h250l-108 -887h-250l14 115q-49 -62 -112 -101q-76 -43 -166 -43q-178 0 -291 113q-119 119 -119 313q0 235 137 379q135 139 350 139q98 0 177 -43q65 -36 104 -100zM651 694q-106 0 -174 -63q-88 -85 -88 -205
q0 -108 68 -176q64 -57 164 -57q108 0 176 63q43 40 65.5 97t22.5 116q0 96 -62 158q-67 67 -172 67zM766 1178l-197 -154l-106 100l330 258l262 -258l-133 -100z" />
    <glyph glyph-name="uni1EAC" unicode="&#x1eac;" horiz-adv-x="1376" 
d="M532 -317q0 57 41 98q39 43 101 43q47 0 78 -31q32 -32 32 -80q0 -55 -41 -96q-43 -43 -100 -43q-38 0 -78 31q-33 33 -33 78zM1092 0l-86 287h-551l-156 -287h-295l764 1366h201l403 -1366h-280zM565 504h389l-131 491zM897 1642l-197 -153l-106 100l330 258l262 -258
l-133 -100z" />
    <glyph glyph-name="uni1EAD" unicode="&#x1ead;" 
d="M414 -317q0 57 41 98q39 43 100 43q47 0 78 -31q33 -33 33 -80q0 -55 -41 -96q-43 -43 -101 -43q-38 0 -78 31q-32 32 -32 78zM897 772l14 115h250l-108 -887h-250l14 115q-49 -62 -112 -101q-76 -43 -166 -43q-178 0 -291 113q-119 119 -119 313q0 235 137 379
q135 139 350 139q98 0 177 -43q65 -36 104 -100zM651 694q-106 0 -174 -63q-88 -85 -88 -205q0 -108 68 -176q64 -57 164 -57q108 0 176 63q43 40 65.5 97t22.5 116q0 96 -62 158q-67 67 -172 67zM766 1178l-197 -154l-106 100l330 258l262 -258l-133 -100z" />
    <glyph glyph-name="uni1EAE" unicode="&#x1eae;" horiz-adv-x="1376" 
d="M1245 2066l-342 -256l-90 93l287 286zM1092 0l-86 287h-551l-156 -287h-295l764 1366h201l403 -1366h-280zM565 504h389l-131 491zM1057 1747h164q-21 -84 -86 -162q-105 -98 -248 -98t-221 98q-45 68 -45 162h163q0 -53 27 -80q35 -35 94 -35t105 35q35 30 47 80z" />
    <glyph glyph-name="uni1EAF" unicode="&#x1eaf;" 
d="M1149 1604l-342 -256l-90 92l287 286zM897 772l14 115h250l-108 -887h-250l14 115q-49 -62 -112 -101q-76 -43 -166 -43q-178 0 -291 113q-119 119 -119 313q0 235 137 379q135 139 350 139q98 0 177 -43q65 -36 104 -100zM651 694q-106 0 -174 -63q-88 -85 -88 -205
q0 -108 68 -176q64 -57 164 -57q108 0 176 63q43 40 65.5 97t22.5 116q0 96 -62 158q-67 67 -172 67zM961 1284h163q-21 -84 -86 -162q-105 -98 -247 -98q-144 0 -222 98q-45 68 -45 162h164q0 -53 27 -80q35 -35 94 -35q58 0 104 35q36 32 48 80z" />
    <glyph glyph-name="uni1EB0" unicode="&#x1eb0;" horiz-adv-x="1376" 
d="M944 1810l-260 246l145 133l215 -282zM1092 0l-86 287h-551l-156 -287h-295l764 1366h201l403 -1366h-280zM565 504h389l-131 491zM1057 1747h164q-21 -84 -86 -162q-105 -98 -248 -98t-221 98q-45 68 -45 162h163q0 -53 27 -80q35 -35 94 -35t105 35q35 30 47 80z" />
    <glyph glyph-name="uni1EB1" unicode="&#x1eb1;" 
d="M848 1348l-260 245l145 133l215 -282zM897 772l14 115h250l-108 -887h-250l14 115q-49 -62 -112 -101q-76 -43 -166 -43q-178 0 -291 113q-119 119 -119 313q0 235 137 379q135 139 350 139q98 0 177 -43q65 -36 104 -100zM651 694q-106 0 -174 -63q-88 -85 -88 -205
q0 -108 68 -176q64 -57 164 -57q108 0 176 63q43 40 65.5 97t22.5 116q0 96 -62 158q-67 67 -172 67zM961 1284h163q-21 -84 -86 -162q-105 -98 -247 -98q-144 0 -222 98q-45 68 -45 162h164q0 -53 27 -80q35 -35 94 -35q58 0 104 35q36 32 48 80z" />
    <glyph glyph-name="uni1EB2" unicode="&#x1eb2;" horiz-adv-x="1376" 
d="M991 1810h-125l23 162q32 -4 65 1t47 16q12 9 17 14t11 15.5t9 25.5q7 57 -57 57q-58 0 -70 -51h-127q18 77 52 111q18 23 59.5 43t101.5 20q102 0 145 -48t29 -136q-11 -69 -61 -113t-109 -49zM1092 0l-86 287h-551l-156 -287h-295l764 1366h201l403 -1366h-280z
M565 504h389l-131 491zM1057 1747h164q-21 -84 -86 -162q-105 -98 -248 -98t-221 98q-45 68 -45 162h163q0 -53 27 -80q35 -35 94 -35t105 35q35 30 47 80z" />
    <glyph glyph-name="uni1EB3" unicode="&#x1eb3;" 
d="M895 1348h-125l23 161q32 -4 65 1t47 16q12 9 17 14t11 15.5t9 25.5q7 57 -57 57q-58 0 -70 -51h-127q18 78 51 111q18 23 60 43t102 20q102 0 145 -48t29 -136q-11 -69 -61 -113t-109 -49zM897 772l14 115h250l-108 -887h-250l14 115q-49 -62 -112 -101
q-76 -43 -166 -43q-178 0 -291 113q-119 119 -119 313q0 235 137 379q135 139 350 139q98 0 177 -43q65 -36 104 -100zM651 694q-106 0 -174 -63q-88 -85 -88 -205q0 -108 68 -176q64 -57 164 -57q108 0 176 63q43 40 65.5 97t22.5 116q0 96 -62 158q-67 67 -172 67z
M961 1284h163q-21 -84 -86 -162q-105 -98 -247 -98q-144 0 -222 98q-45 68 -45 162h164q0 -53 27 -80q35 -35 94 -35q58 0 104 35q36 32 48 80z" />
    <glyph glyph-name="uni1EB4" unicode="&#x1eb4;" horiz-adv-x="1376" 
d="M1124 2034l101 -76q-25 -37 -51.5 -63t-38.5 -33q-53 -47 -113 -47q-39 -2 -100 22q-4 1 -29.5 12t-51.5 20t-38 9q-8 0 -16 -2.5t-11 -4.5t-12 -8.5t-10 -7.5q-6 -4 -12 -10t-15.5 -19t-11.5 -16l-94 76q55 74 73 92q63 54 131 54q29 0 78 -17l86 -32q51 -17 55 -13
q31 0 50 19q5 4 30 45zM1092 0l-86 287h-551l-156 -287h-295l764 1366h201l403 -1366h-280zM565 504h389l-131 491zM1057 1747h164q-21 -84 -86 -162q-105 -98 -248 -98t-221 98q-45 68 -45 162h163q0 -53 27 -80q35 -35 94 -35t105 35q35 30 47 80z" />
    <glyph glyph-name="uni1EB5" unicode="&#x1eb5;" 
d="M1028 1571l100 -76q-25 -37 -51.5 -63t-38.5 -33q-53 -47 -112 -47q-40 -2 -101 22q-4 1 -29 12t-51 20t-38 9q-19 0 -50 -22q-6 -4 -12 -10t-15.5 -19t-11.5 -16l-94 75q55 74 74 93q62 53 131 53q29 0 78 -17l86 -32q51 -17 55 -13q30 0 49 19q7 6 31 45zM897 772
l14 115h250l-108 -887h-250l14 115q-49 -62 -112 -101q-76 -43 -166 -43q-178 0 -291 113q-119 119 -119 313q0 235 137 379q135 139 350 139q98 0 177 -43q65 -36 104 -100zM651 694q-106 0 -174 -63q-88 -85 -88 -205q0 -108 68 -176q64 -57 164 -57q108 0 176 63
q43 40 65.5 97t22.5 116q0 96 -62 158q-67 67 -172 67zM961 1284h163q-21 -84 -86 -162q-105 -98 -247 -98q-144 0 -222 98q-45 68 -45 162h164q0 -53 27 -80q35 -35 94 -35q58 0 104 35q36 32 48 80z" />
    <glyph glyph-name="uni1EB6" unicode="&#x1eb6;" horiz-adv-x="1376" 
d="M532 -317q0 57 41 98q39 43 101 43q47 0 78 -31q32 -32 32 -80q0 -55 -41 -96q-43 -43 -100 -43q-38 0 -78 31q-33 33 -33 78zM1092 0l-86 287h-551l-156 -287h-295l764 1366h201l403 -1366h-280zM565 504h389l-131 491zM1057 1747h164q-21 -84 -86 -162
q-105 -98 -248 -98t-221 98q-45 68 -45 162h163q0 -53 27 -80q35 -35 94 -35t105 35q35 30 47 80z" />
    <glyph glyph-name="uni1EB7" unicode="&#x1eb7;" 
d="M414 -317q0 57 41 98q39 43 100 43q47 0 78 -31q33 -33 33 -80q0 -55 -41 -96q-43 -43 -101 -43q-38 0 -78 31q-32 32 -32 78zM897 772l14 115h250l-108 -887h-250l14 115q-49 -62 -112 -101q-76 -43 -166 -43q-178 0 -291 113q-119 119 -119 313q0 235 137 379
q135 139 350 139q98 0 177 -43q65 -36 104 -100zM651 694q-106 0 -174 -63q-88 -85 -88 -205q0 -108 68 -176q64 -57 164 -57q108 0 176 63q43 40 65.5 97t22.5 116q0 96 -62 158q-67 67 -172 67zM961 1284h163q-21 -84 -86 -162q-105 -98 -247 -98q-144 0 -222 98
q-45 68 -45 162h164q0 -53 27 -80q35 -35 94 -35q58 0 104 35q36 32 48 80z" />
    <glyph glyph-name="uni1EB8" unicode="&#x1eb8;" horiz-adv-x="1015" 
d="M360 -317q0 57 41 98q39 43 101 43q47 0 78 -31q32 -32 32 -80q0 -55 -41 -96q-43 -43 -100 -43q-38 0 -78 31q-33 33 -33 78zM1081 1366l-28 -229h-492l-37 -306h471l-28 -229h-471l-45 -373h491l-29 -229h-491h-266l168 1366h757z" />
    <glyph glyph-name="uni1EB9" unicode="&#x1eb9;" horiz-adv-x="1077" 
d="M385 -317q0 57 41 98q39 43 100 43q47 0 78 -31q33 -33 33 -80q0 -55 -41 -96q-43 -43 -100 -43q-38 0 -78 31q-33 33 -33 78zM805 289l215 -51q-72 -140 -189 -207q-108 -60 -266 -60q-101 0 -181.5 26.5t-147.5 96.5q-107 111 -107 287q0 118 40.5 224.5t113.5 178.5
q131 131 354 131q194 0 303 -102q115 -110 115 -321q0 -73 -4 -91h-664q-14 -113 51 -178q55 -55 146 -55q85 0 135 29q53 31 86 92zM416 561h420q-3 76 -56 129q-52 49 -139 49q-88 0 -152 -57q-54 -54 -73 -121z" />
    <glyph glyph-name="uni1EBA" unicode="&#x1eba;" horiz-adv-x="1015" 
d="M782 1489h-125l23 162q32 -4 65.5 0.5t47.5 15.5q30 23 36 55q7 58 -57 58q-58 0 -70 -51h-127q18 76 52 110q18 23 59.5 43.5t101.5 20.5q102 0 145.5 -48.5t29.5 -136.5q-11 -69 -61 -113t-109 -49zM1081 1366l-28 -229h-492l-37 -306h471l-28 -229h-471l-45 -373h491
l-29 -229h-491h-266l168 1366h757z" />
    <glyph glyph-name="uni1EBB" unicode="&#x1ebb;" horiz-adv-x="1077" 
d="M739 1024h-125l23 162q32 -4 65.5 0.5t47.5 15.5q30 23 36 55q7 58 -57 58q-58 0 -70 -51h-127q18 76 52 110q18 23 59.5 43.5t101.5 20.5q102 0 145.5 -48.5t29.5 -136.5q-11 -69 -61 -112.5t-109 -48.5zM805 289l215 -51q-72 -140 -189 -207q-108 -60 -266 -60
q-101 0 -181.5 26.5t-147.5 96.5q-107 111 -107 287q0 118 40.5 224.5t113.5 178.5q131 131 354 131q194 0 303 -102q115 -110 115 -321q0 -73 -4 -91h-664q-14 -113 51 -178q55 -55 146 -55q85 0 135 29q53 31 86 92zM416 561h420q-3 76 -56 129q-52 49 -139 49
q-88 0 -152 -57q-54 -54 -73 -121z" />
    <glyph glyph-name="uni1EBC" unicode="&#x1ebc;" horiz-adv-x="1015" 
d="M924 1737l100 -76q-25 -37 -51.5 -63t-38.5 -33q-53 -47 -113 -47q-39 -2 -100 22q-4 1 -29.5 12t-51.5 20t-38 9q-7 0 -12.5 -1t-11 -4t-8.5 -4.5t-9.5 -6.5t-7.5 -6q-6 -4 -12 -10.5t-15 -19t-12 -16.5l-94 76q52 70 74 92q63 54 131 54q28 0 77 -17l87 -32
q51 -17 55 -13q30 0 49 19q7 6 31 45zM1081 1366l-28 -229h-492l-37 -306h471l-28 -229h-471l-45 -373h491l-29 -229h-491h-266l168 1366h757z" />
    <glyph glyph-name="uni1EBD" unicode="&#x1ebd;" horiz-adv-x="1077" 
d="M897 1284l100 -76q-25 -37 -51.5 -63t-38.5 -33q-53 -47 -112 -47q-40 -2 -101 22q-4 1 -29.5 12t-51.5 20t-38 9q-7 0 -12.5 -1t-11 -4t-8.5 -4.5t-9.5 -6.5t-7.5 -6q-6 -4 -12 -10t-15.5 -19t-11.5 -16l-94 76q52 70 74 92q62 53 131 53q32 0 78 -16l86 -32
q51 -17 55 -13q31 0 49 18q7 6 31 45zM805 289l215 -51q-72 -140 -189 -207q-108 -60 -266 -60q-101 0 -181.5 26.5t-147.5 96.5q-107 111 -107 287q0 118 40.5 224.5t113.5 178.5q131 131 354 131q194 0 303 -102q115 -110 115 -321q0 -73 -4 -91h-664q-14 -113 51 -178
q55 -55 146 -55q85 0 135 29q53 31 86 92zM416 561h420q-3 76 -56 129q-52 49 -139 49q-88 0 -152 -57q-54 -54 -73 -121z" />
    <glyph glyph-name="uni1EBE" unicode="&#x1ebe;" horiz-adv-x="1015" 
d="M1348 2015l-342 -256l-91 92l287 287zM1081 1366l-28 -229h-492l-37 -306h471l-28 -229h-471l-45 -373h491l-29 -229h-491h-266l168 1366h757zM737 1642l-196 -153l-107 100l330 258l262 -258l-133 -100z" />
    <glyph glyph-name="uni1EBF" unicode="&#x1ebf;" horiz-adv-x="1077" 
d="M1298 1550l-342 -256l-90 92l287 287zM805 289l215 -51q-72 -140 -189 -207q-108 -60 -266 -60q-101 0 -181.5 26.5t-147.5 96.5q-107 111 -107 287q0 118 40.5 224.5t113.5 178.5q131 131 354 131q194 0 303 -102q115 -110 115 -321q0 -73 -4 -91h-664q-14 -113 51 -178
q55 -55 146 -55q85 0 135 29q53 31 86 92zM416 561h420q-3 76 -56 129q-52 49 -139 49q-88 0 -152 -57q-54 -54 -73 -121zM688 1178l-196 -154l-107 100l330 258l262 -258l-133 -100z" />
    <glyph glyph-name="uni1EC0" unicode="&#x1ec0;" horiz-adv-x="1015" 
d="M1026 1759l-260 246l145 133l215 -283zM1081 1366l-28 -229h-492l-37 -306h471l-28 -229h-471l-45 -373h491l-29 -229h-491h-266l168 1366h757zM737 1642l-196 -153l-107 100l330 258l262 -258l-133 -100z" />
    <glyph glyph-name="uni1EC1" unicode="&#x1ec1;" horiz-adv-x="1077" 
d="M977 1294l-260 246l145 133l215 -282zM805 289l215 -51q-72 -140 -189 -207q-108 -60 -266 -60q-101 0 -181.5 26.5t-147.5 96.5q-107 111 -107 287q0 118 40.5 224.5t113.5 178.5q131 131 354 131q194 0 303 -102q115 -110 115 -321q0 -73 -4 -91h-664q-14 -113 51 -178
q55 -55 146 -55q85 0 135 29q53 31 86 92zM416 561h420q-3 76 -56 129q-52 49 -139 49q-88 0 -152 -57q-54 -54 -73 -121zM688 1178l-196 -154l-107 100l330 258l262 -258l-133 -100z" />
    <glyph glyph-name="uni1EC2" unicode="&#x1ec2;" horiz-adv-x="1015" 
d="M1085 1759h-124l22 162q32 -4 65.5 0.5t47.5 15.5q31 24 37 56q4 32 -13 44.5t-45 12.5q-57 0 -69 -51h-127q18 77 51 110q18 23 60 43.5t102 20.5q102 0 145 -48t29 -136q-11 -69 -61 -113t-109 -49zM1081 1366l-28 -229h-492l-37 -306h471l-28 -229h-471l-45 -373h491
l-29 -229h-491h-266l168 1366h757zM737 1642l-196 -153l-107 100l330 258l262 -258l-133 -100z" />
    <glyph glyph-name="uni1EC3" unicode="&#x1ec3;" horiz-adv-x="1077" 
d="M1036 1294h-125l23 162q32 -4 65.5 1t47.5 16q30 23 36 55q7 57 -57 57q-58 0 -70 -51h-127q18 77 52 111q18 23 59.5 43t101.5 20q102 0 145.5 -48t29.5 -136q-11 -69 -61 -113t-109 -49zM805 289l215 -51q-72 -140 -189 -207q-108 -60 -266 -60q-101 0 -181.5 26.5
t-147.5 96.5q-107 111 -107 287q0 118 40.5 224.5t113.5 178.5q131 131 354 131q194 0 303 -102q115 -110 115 -321q0 -73 -4 -91h-664q-14 -113 51 -178q55 -55 146 -55q85 0 135 29q53 31 86 92zM416 561h420q-3 76 -56 129q-52 49 -139 49q-88 0 -152 -57
q-54 -54 -73 -121zM688 1178l-196 -154l-107 100l330 258l262 -258l-133 -100z" />
    <glyph glyph-name="uni1EC4" unicode="&#x1ec4;" horiz-adv-x="1015" 
d="M991 2122l101 -76q-25 -37 -51.5 -62.5t-39.5 -33.5q-53 -47 -112 -47q-40 -2 -101 22q-4 1 -29 12t-51 20t-38 9q-7 0 -12.5 -1t-11 -4t-8.5 -4.5t-9.5 -6.5t-7.5 -6q-6 -4 -12 -10.5t-15 -19t-12 -16.5l-95 76q52 70 74 92q63 54 131 54q29 0 78 -17l86 -32
q51 -17 55 -13q31 0 50 19q5 4 30 45zM1081 1366l-28 -229h-492l-37 -306h471l-28 -229h-471l-45 -373h491l-29 -229h-491h-266l168 1366h757zM737 1642l-196 -153l-107 100l330 258l262 -258l-133 -100z" />
    <glyph glyph-name="uni1EC5" unicode="&#x1ec5;" horiz-adv-x="1077" 
d="M942 1657l100 -76q-25 -37 -51.5 -63t-38.5 -33q-53 -47 -112 -47q-40 -2 -101 22q-4 1 -29 12t-51 20t-38 9q-19 0 -50 -22q-6 -4 -12 -10t-15.5 -19t-11.5 -16l-94 75q55 74 74 93q62 53 131 53q29 0 78 -17l86 -32q51 -17 55 -13q30 0 49 19q7 6 31 45zM805 289
l215 -51q-72 -140 -189 -207q-108 -60 -266 -60q-101 0 -181.5 26.5t-147.5 96.5q-107 111 -107 287q0 118 40.5 224.5t113.5 178.5q131 131 354 131q194 0 303 -102q115 -110 115 -321q0 -73 -4 -91h-664q-14 -113 51 -178q55 -55 146 -55q85 0 135 29q53 31 86 92z
M416 561h420q-3 76 -56 129q-52 49 -139 49q-88 0 -152 -57q-54 -54 -73 -121zM688 1178l-196 -154l-107 100l330 258l262 -258l-133 -100z" />
    <glyph glyph-name="uni1EC6" unicode="&#x1ec6;" horiz-adv-x="1015" 
d="M360 -317q0 57 41 98q39 43 101 43q47 0 78 -31q32 -32 32 -80q0 -55 -41 -96q-43 -43 -100 -43q-38 0 -78 31q-33 33 -33 78zM1081 1366l-28 -229h-492l-37 -306h471l-28 -229h-471l-45 -373h491l-29 -229h-491h-266l168 1366h757zM737 1642l-196 -153l-107 100l330 258
l262 -258l-133 -100z" />
    <glyph glyph-name="uni1EC7" unicode="&#x1ec7;" horiz-adv-x="1077" 
d="M385 -317q0 57 41 98q39 43 100 43q47 0 78 -31q33 -33 33 -80q0 -55 -41 -96q-43 -43 -100 -43q-38 0 -78 31q-33 33 -33 78zM805 289l215 -51q-72 -140 -189 -207q-108 -60 -266 -60q-101 0 -181.5 26.5t-147.5 96.5q-107 111 -107 287q0 118 40.5 224.5t113.5 178.5
q131 131 354 131q194 0 303 -102q115 -110 115 -321q0 -73 -4 -91h-664q-14 -113 51 -178q55 -55 146 -55q85 0 135 29q53 31 86 92zM416 561h420q-3 76 -56 129q-52 49 -139 49q-88 0 -152 -57q-54 -54 -73 -121zM688 1178l-196 -154l-107 100l330 258l262 -258l-133 -100z
" />
    <glyph glyph-name="uni1EC8" unicode="&#x1ec8;" horiz-adv-x="577" 
d="M539 1489h-125l22 162q32 -4 65.5 0.5t47.5 15.5q12 9 17 14t11 15.5t9 25.5q7 58 -58 58q-57 0 -69 -51h-127q18 77 51 110q18 23 60 43.5t102 20.5q102 0 145 -48.5t29 -136.5q-11 -69 -61 -113t-109 -49zM324 1366h266l-168 -1366h-266z" />
    <glyph glyph-name="uni1EC9" unicode="&#x1ec9;" horiz-adv-x="487" 
d="M227 887h250l-108 -887h-250zM432 1024h-125l23 162q32 -4 65 0.5t47 15.5q12 9 17 14t11 15.5t9 25.5q7 58 -57 58q-58 0 -70 -51h-127q18 77 51 110q18 23 60 43.5t102 20.5q102 0 145 -48.5t29 -136.5q-11 -69 -61 -112.5t-109 -48.5z" />
    <glyph glyph-name="uni1ECA" unicode="&#x1eca;" horiz-adv-x="577" 
d="M133 -317q0 57 41 98q39 43 100 43q47 0 78 -31q33 -33 33 -80q0 -55 -41 -96q-43 -43 -100 -43q-38 0 -78 31q-33 33 -33 78zM324 1366h266l-168 -1366h-266z" />
    <glyph glyph-name="uni1ECB" unicode="&#x1ecb;" horiz-adv-x="487" 
d="M227 887h250l-108 -887h-250zM240 1176q0 67 49 116q49 51 119 51q58 0 94 -36q39 -39 39 -97q0 -65 -49 -114q-52 -52 -119 -52q-54 0 -94 37q-39 39 -39 95zM76 -317q0 57 41 98q39 43 100 43q47 0 78 -31q33 -33 33 -80q0 -55 -41 -96q-43 -43 -101 -43q-37 0 -77 31
q-33 33 -33 78z" />
    <glyph glyph-name="uni1ECC" unicode="&#x1ecc;" horiz-adv-x="1650" 
d="M647 -317q0 57 41 98q39 43 100 43q47 0 78 -31q33 -33 33 -80q0 -55 -41 -96q-43 -43 -100 -43q-38 0 -78 31q-33 33 -33 78zM991 1397q143 0 265.5 -47.5t207.5 -128.5q181 -171 181 -455q0 -165 -58 -316t-162 -257q-94 -98 -236 -161t-333 -63q-311 0 -502 191
q-86 86 -133 204.5t-47 247.5q0 167 64 317.5t172 252.5q109 103 260 159t321 56zM870 211q198 0 336 135q75 73 118.5 178.5t43.5 220.5q0 176 -108 289q-111 119 -312 119q-198 0 -340 -131q-77 -72 -117 -174t-40 -215q0 -189 108 -297q116 -125 311 -125z" />
    <glyph glyph-name="uni1ECD" unicode="&#x1ecd;" 
d="M387 -317q0 57 41 98q39 43 100 43q47 0 78 -31q33 -33 33 -80q0 -55 -41 -96q-43 -43 -100 -43q-38 0 -78 31q-33 33 -33 78zM688 915q223 0 350 -127q115 -119 115 -294q0 -218 -158 -373q-84 -81 -183 -115.5t-224 -34.5q-219 0 -342 123q-117 112 -117 301
q0 107 42 205t112 166q149 149 405 149zM612 193q118 0 195 77q39 39 61.5 92t22.5 107q0 43 -17.5 88.5t-48.5 75.5q-64 61 -161 61q-115 0 -189 -71q-88 -80 -88 -211q0 -42 16.5 -84.5t45.5 -71.5q30 -30 74.5 -46.5t88.5 -16.5z" />
    <glyph glyph-name="uni1ECE" unicode="&#x1ece;" horiz-adv-x="1650" 
d="M1102 1489h-125l22 162q32 -4 65.5 0.5t47.5 15.5q12 9 17 14t11 15.5t9 25.5q7 58 -57 58q-58 0 -70 -51h-127q18 77 51 110q18 23 60 43.5t102 20.5q102 0 145 -48.5t29 -136.5q-11 -69 -61 -113t-109 -49zM991 1397q143 0 265.5 -47.5t207.5 -128.5q181 -171 181 -455
q0 -165 -58 -316t-162 -257q-94 -98 -236 -161t-333 -63q-311 0 -502 191q-86 86 -133 204.5t-47 247.5q0 167 64 317.5t172 252.5q109 103 260 159t321 56zM870 211q198 0 336 135q75 73 118.5 178.5t43.5 220.5q0 176 -108 289q-111 119 -312 119q-198 0 -340 -131
q-77 -72 -117 -174t-40 -215q0 -189 108 -297q116 -125 311 -125z" />
    <glyph glyph-name="uni1ECF" unicode="&#x1ecf;" 
d="M795 1024h-125l22 162q32 -4 65.5 0.5t47.5 15.5q12 9 17 14t11 15.5t9 25.5q7 58 -58 58q-57 0 -69 -51h-127q18 77 51 110q18 23 60 43.5t102 20.5q102 0 145 -48.5t29 -136.5q-11 -69 -61 -112.5t-109 -48.5zM688 915q223 0 350 -127q115 -119 115 -294
q0 -218 -158 -373q-84 -81 -183 -115.5t-224 -34.5q-219 0 -342 123q-117 112 -117 301q0 107 42 205t112 166q149 149 405 149zM612 193q118 0 195 77q39 39 61.5 92t22.5 107q0 43 -17.5 88.5t-48.5 75.5q-64 61 -161 61q-115 0 -189 -71q-88 -80 -88 -211
q0 -42 16.5 -84.5t45.5 -71.5q30 -30 74.5 -46.5t88.5 -16.5z" />
    <glyph glyph-name="uni1ED0" unicode="&#x1ed0;" horiz-adv-x="1650" 
d="M1671 2015l-342 -256l-90 92l287 287zM991 1397q143 0 265.5 -47.5t207.5 -128.5q181 -171 181 -455q0 -165 -58 -316t-162 -257q-94 -98 -236 -161t-333 -63q-311 0 -502 191q-86 86 -133 204.5t-47 247.5q0 167 64 317.5t172 252.5q109 103 260 159t321 56zM870 211
q198 0 336 135q75 73 118.5 178.5t43.5 220.5q0 176 -108 289q-111 119 -312 119q-198 0 -340 -131q-77 -72 -117 -174t-40 -215q0 -189 108 -297q116 -125 311 -125zM1061 1642l-197 -153l-106 100l329 258l263 -258l-133 -100z" />
    <glyph glyph-name="uni1ED1" unicode="&#x1ed1;" 
d="M1358 1550l-342 -256l-90 92l286 287zM688 915q223 0 350 -127q115 -119 115 -294q0 -218 -158 -373q-84 -81 -183 -115.5t-224 -34.5q-219 0 -342 123q-117 112 -117 301q0 107 42 205t112 166q149 149 405 149zM612 193q118 0 195 77q39 39 61.5 92t22.5 107
q0 43 -17.5 88.5t-48.5 75.5q-64 61 -161 61q-115 0 -189 -71q-88 -80 -88 -211q0 -42 16.5 -84.5t45.5 -71.5q30 -30 74.5 -46.5t88.5 -16.5zM748 1178l-197 -154l-107 100l330 258l262 -258l-133 -100z" />
    <glyph glyph-name="uni1ED2" unicode="&#x1ed2;" horiz-adv-x="1650" 
d="M1350 1759l-260 246l145 133l215 -283zM991 1397q143 0 265.5 -47.5t207.5 -128.5q181 -171 181 -455q0 -165 -58 -316t-162 -257q-94 -98 -236 -161t-333 -63q-311 0 -502 191q-86 86 -133 204.5t-47 247.5q0 167 64 317.5t172 252.5q109 103 260 159t321 56zM870 211
q198 0 336 135q75 73 118.5 178.5t43.5 220.5q0 176 -108 289q-111 119 -312 119q-198 0 -340 -131q-77 -72 -117 -174t-40 -215q0 -189 108 -297q116 -125 311 -125zM1061 1642l-197 -153l-106 100l329 258l263 -258l-133 -100z" />
    <glyph glyph-name="uni1ED3" unicode="&#x1ed3;" 
d="M1036 1294l-260 246l146 133l215 -282zM688 915q223 0 350 -127q115 -119 115 -294q0 -218 -158 -373q-84 -81 -183 -115.5t-224 -34.5q-219 0 -342 123q-117 112 -117 301q0 107 42 205t112 166q149 149 405 149zM612 193q118 0 195 77q39 39 61.5 92t22.5 107
q0 43 -17.5 88.5t-48.5 75.5q-64 61 -161 61q-115 0 -189 -71q-88 -80 -88 -211q0 -42 16.5 -84.5t45.5 -71.5q30 -30 74.5 -46.5t88.5 -16.5zM748 1178l-197 -154l-107 100l330 258l262 -258l-133 -100z" />
    <glyph glyph-name="uni1ED4" unicode="&#x1ed4;" horiz-adv-x="1650" 
d="M1409 1759h-125l23 162q32 -4 65 0.5t47 15.5q31 24 37 56q7 57 -57 57q-58 0 -70 -51h-127q18 77 51 110q18 23 60 43.5t102 20.5q102 0 145 -48t29 -136q-11 -69 -61 -113t-109 -49zM991 1397q143 0 265.5 -47.5t207.5 -128.5q181 -171 181 -455q0 -165 -58 -316
t-162 -257q-94 -98 -236 -161t-333 -63q-311 0 -502 191q-86 86 -133 204.5t-47 247.5q0 167 64 317.5t172 252.5q109 103 260 159t321 56zM870 211q198 0 336 135q75 73 118.5 178.5t43.5 220.5q0 176 -108 289q-111 119 -312 119q-198 0 -340 -131q-77 -72 -117 -174
t-40 -215q0 -189 108 -297q116 -125 311 -125zM1061 1642l-197 -153l-106 100l329 258l263 -258l-133 -100z" />
    <glyph glyph-name="uni1ED5" unicode="&#x1ed5;" 
d="M1096 1294h-125l22 162q32 -4 65.5 1t47.5 16q12 9 17 14t11 15.5t9 25.5q4 32 -13 44.5t-45 12.5q-57 0 -69 -51h-127q18 78 51 111q18 23 60 43t102 20q102 0 145 -48t29 -136q-11 -69 -61 -113t-109 -49zM688 915q223 0 350 -127q115 -119 115 -294q0 -218 -158 -373
q-84 -81 -183 -115.5t-224 -34.5q-219 0 -342 123q-117 112 -117 301q0 107 42 205t112 166q149 149 405 149zM612 193q118 0 195 77q39 39 61.5 92t22.5 107q0 43 -17.5 88.5t-48.5 75.5q-64 61 -161 61q-115 0 -189 -71q-88 -80 -88 -211q0 -42 16.5 -84.5t45.5 -71.5
q30 -30 74.5 -46.5t88.5 -16.5zM748 1178l-197 -154l-107 100l330 258l262 -258l-133 -100z" />
    <glyph glyph-name="uni1ED6" unicode="&#x1ed6;" horiz-adv-x="1650" 
d="M1315 2122l100 -76q-25 -37 -51.5 -63t-38.5 -33q-53 -47 -113 -47q-39 -2 -100 22q-4 1 -29.5 12t-51.5 20t-38 9q-7 0 -12.5 -1t-11 -4t-8.5 -4.5t-9.5 -6.5t-7.5 -6q-6 -4 -12 -10.5t-15 -19t-12 -16.5l-94 76q52 70 74 92q63 54 131 54q29 0 78 -17l86 -32
q51 -17 55 -13q30 0 49 19q7 6 31 45zM991 1397q143 0 265.5 -47.5t207.5 -128.5q181 -171 181 -455q0 -165 -58 -316t-162 -257q-94 -98 -236 -161t-333 -63q-311 0 -502 191q-86 86 -133 204.5t-47 247.5q0 167 64 317.5t172 252.5q109 103 260 159t321 56zM870 211
q198 0 336 135q75 73 118.5 178.5t43.5 220.5q0 176 -108 289q-111 119 -312 119q-198 0 -340 -131q-77 -72 -117 -174t-40 -215q0 -189 108 -297q116 -125 311 -125zM1061 1642l-197 -153l-106 100l329 258l263 -258l-133 -100z" />
    <glyph glyph-name="uni1ED7" unicode="&#x1ed7;" 
d="M1001 1657l101 -76q-25 -37 -51.5 -63t-38.5 -33q-53 -47 -113 -47q-39 -2 -100 22q-4 1 -29.5 12t-51.5 20t-38 9q-7 0 -12.5 -1t-11 -4t-8.5 -4.5t-9.5 -6.5t-7.5 -6q-6 -4 -12 -10t-15.5 -19t-11.5 -16l-94 75q58 78 73 93q62 53 131 53q29 0 78 -17l87 -32
q51 -17 55 -13q30 0 49 19q5 4 30 45zM688 915q223 0 350 -127q115 -119 115 -294q0 -218 -158 -373q-84 -81 -183 -115.5t-224 -34.5q-219 0 -342 123q-117 112 -117 301q0 107 42 205t112 166q149 149 405 149zM612 193q118 0 195 77q39 39 61.5 92t22.5 107
q0 43 -17.5 88.5t-48.5 75.5q-64 61 -161 61q-115 0 -189 -71q-88 -80 -88 -211q0 -42 16.5 -84.5t45.5 -71.5q30 -30 74.5 -46.5t88.5 -16.5zM748 1178l-197 -154l-107 100l330 258l262 -258l-133 -100z" />
    <glyph glyph-name="uni1ED8" unicode="&#x1ed8;" horiz-adv-x="1650" 
d="M647 -317q0 57 41 98q39 43 100 43q47 0 78 -31q33 -33 33 -80q0 -55 -41 -96q-43 -43 -100 -43q-38 0 -78 31q-33 33 -33 78zM991 1397q143 0 265.5 -47.5t207.5 -128.5q181 -171 181 -455q0 -165 -58 -316t-162 -257q-94 -98 -236 -161t-333 -63q-311 0 -502 191
q-86 86 -133 204.5t-47 247.5q0 167 64 317.5t172 252.5q109 103 260 159t321 56zM870 211q198 0 336 135q75 73 118.5 178.5t43.5 220.5q0 176 -108 289q-111 119 -312 119q-198 0 -340 -131q-77 -72 -117 -174t-40 -215q0 -189 108 -297q116 -125 311 -125zM1061 1642
l-197 -153l-106 100l329 258l263 -258l-133 -100z" />
    <glyph glyph-name="uni1ED9" unicode="&#x1ed9;" 
d="M387 -317q0 57 41 98q39 43 100 43q47 0 78 -31q33 -33 33 -80q0 -55 -41 -96q-43 -43 -100 -43q-38 0 -78 31q-33 33 -33 78zM688 915q223 0 350 -127q115 -119 115 -294q0 -218 -158 -373q-84 -81 -183 -115.5t-224 -34.5q-219 0 -342 123q-117 112 -117 301
q0 107 42 205t112 166q149 149 405 149zM612 193q118 0 195 77q39 39 61.5 92t22.5 107q0 43 -17.5 88.5t-48.5 75.5q-64 61 -161 61q-115 0 -189 -71q-88 -80 -88 -211q0 -42 16.5 -84.5t45.5 -71.5q30 -30 74.5 -46.5t88.5 -16.5zM748 1178l-197 -154l-107 100l330 258
l262 -258l-133 -100z" />
    <glyph glyph-name="uni1EDA" unicode="&#x1eda;" horiz-adv-x="1650" 
d="M1333 1745l-342 -256l-90 92l287 287zM991 1397q93 0 178 -21q113 -19 267 -10q33 0 47 14q20 18 24 82q0 5 6 56h187l-6 -54q-11 -121 -61.5 -180.5t-162.5 -69.5q79 -79 127 -193t48 -255q0 -165 -58 -316t-162 -257q-94 -98 -236 -161t-333 -63q-311 0 -502 191
q-86 86 -133 204.5t-47 247.5q0 167 64 317.5t172 252.5q109 103 260 159t321 56zM870 211q198 0 336 135q75 73 118.5 178.5t43.5 220.5q0 176 -108 289q-111 119 -312 119q-198 0 -340 -131q-77 -72 -117 -174t-40 -215q0 -189 108 -297q116 -125 311 -125z" />
    <glyph glyph-name="uni1EDB" unicode="&#x1edb;" 
d="M1020 1280l-342 -256l-90 92l286 287zM688 915q93 0 160 -20q103 -18 149 -6q38 5 47 14q21 19 25 82q0 4 6 55h187l-7 -53q-11 -110 -51 -167t-129 -77q78 -107 78 -249q0 -218 -158 -373q-84 -81 -183 -115.5t-224 -34.5q-219 0 -342 123q-117 112 -117 301
q0 107 42 205t112 166q149 149 405 149zM612 193q118 0 195 77q39 39 61.5 92t22.5 107q0 43 -17.5 88.5t-48.5 75.5q-64 61 -161 61q-115 0 -189 -71q-88 -80 -88 -211q0 -42 16.5 -84.5t45.5 -71.5q30 -30 74.5 -46.5t88.5 -16.5z" />
    <glyph glyph-name="uni1EDC" unicode="&#x1edc;" horiz-adv-x="1650" 
d="M1067 1489l-260 246l145 133l215 -283zM991 1397q93 0 178 -21q113 -19 267 -10q33 0 47 14q20 18 24 82q0 5 6 56h187l-6 -54q-11 -121 -61.5 -180.5t-162.5 -69.5q79 -79 127 -193t48 -255q0 -165 -58 -316t-162 -257q-94 -98 -236 -161t-333 -63q-311 0 -502 191
q-86 86 -133 204.5t-47 247.5q0 167 64 317.5t172 252.5q109 103 260 159t321 56zM870 211q198 0 336 135q75 73 118.5 178.5t43.5 220.5q0 176 -108 289q-111 119 -312 119q-198 0 -340 -131q-77 -72 -117 -174t-40 -215q0 -189 108 -297q116 -125 311 -125z" />
    <glyph glyph-name="uni1EDD" unicode="&#x1edd;" 
d="M774 1024l-260 246l145 133l215 -283zM688 915q93 0 160 -20q103 -18 149 -6q38 5 47 14q21 19 25 82q0 4 6 55h187l-7 -53q-11 -110 -51 -167t-129 -77q78 -107 78 -249q0 -218 -158 -373q-84 -81 -183 -115.5t-224 -34.5q-219 0 -342 123q-117 112 -117 301
q0 107 42 205t112 166q149 149 405 149zM612 193q118 0 195 77q39 39 61.5 92t22.5 107q0 43 -17.5 88.5t-48.5 75.5q-64 61 -161 61q-115 0 -189 -71q-88 -80 -88 -211q0 -42 16.5 -84.5t45.5 -71.5q30 -30 74.5 -46.5t88.5 -16.5z" />
    <glyph glyph-name="uni1EDE" unicode="&#x1ede;" horiz-adv-x="1650" 
d="M1102 1489h-125l22 162q32 -4 65.5 0.5t47.5 15.5q12 9 17 14t11 15.5t9 25.5q7 58 -57 58q-58 0 -70 -51h-127q18 77 51 110q18 23 60 43.5t102 20.5q102 0 145 -48.5t29 -136.5q-11 -69 -61 -113t-109 -49zM991 1397q93 0 178 -21q113 -19 267 -10q33 0 47 14
q20 18 24 82q0 5 6 56h187l-6 -54q-11 -121 -61.5 -180.5t-162.5 -69.5q79 -79 127 -193t48 -255q0 -165 -58 -316t-162 -257q-94 -98 -236 -161t-333 -63q-311 0 -502 191q-86 86 -133 204.5t-47 247.5q0 167 64 317.5t172 252.5q109 103 260 159t321 56zM870 211
q198 0 336 135q75 73 118.5 178.5t43.5 220.5q0 176 -108 289q-111 119 -312 119q-198 0 -340 -131q-77 -72 -117 -174t-40 -215q0 -189 108 -297q116 -125 311 -125z" />
    <glyph glyph-name="uni1EDF" unicode="&#x1edf;" 
d="M795 1024h-125l22 162q32 -4 65.5 0.5t47.5 15.5q12 9 17 14t11 15.5t9 25.5q7 58 -58 58q-57 0 -69 -51h-127q18 77 51 110q18 23 60 43.5t102 20.5q102 0 145 -48.5t29 -136.5q-11 -69 -61 -112.5t-109 -48.5zM688 915q93 0 160 -20q103 -18 149 -6q38 5 47 14
q21 19 25 82q0 4 6 55h187l-7 -53q-11 -110 -51 -167t-129 -77q78 -107 78 -249q0 -218 -158 -373q-84 -81 -183 -115.5t-224 -34.5q-219 0 -342 123q-117 112 -117 301q0 107 42 205t112 166q149 149 405 149zM612 193q118 0 195 77q39 39 61.5 92t22.5 107
q0 43 -17.5 88.5t-48.5 75.5q-64 61 -161 61q-115 0 -189 -71q-88 -80 -88 -211q0 -42 16.5 -84.5t45.5 -71.5q30 -30 74.5 -46.5t88.5 -16.5z" />
    <glyph glyph-name="uni1EE0" unicode="&#x1ee0;" horiz-adv-x="1650" 
d="M1253 1737l101 -76q-25 -37 -51.5 -63t-38.5 -33q-53 -47 -113 -47q-39 -2 -100 22q-4 1 -29.5 12t-51.5 20t-38 9q-7 0 -12.5 -1t-11 -4t-8.5 -4.5t-9.5 -6.5t-7.5 -6q-6 -4 -12 -10.5t-15 -19t-12 -16.5l-94 76q55 74 73 92q63 54 131 54q29 0 78 -17l87 -32
q51 -17 55 -13q30 0 49 19q5 4 30 45zM991 1397q93 0 178 -21q113 -19 267 -10q33 0 47 14q20 18 24 82q0 5 6 56h187l-6 -54q-11 -121 -61.5 -180.5t-162.5 -69.5q79 -79 127 -193t48 -255q0 -165 -58 -316t-162 -257q-94 -98 -236 -161t-333 -63q-311 0 -502 191
q-86 86 -133 204.5t-47 247.5q0 167 64 317.5t172 252.5q109 103 260 159t321 56zM870 211q198 0 336 135q75 73 118.5 178.5t43.5 220.5q0 176 -108 289q-111 119 -312 119q-198 0 -340 -131q-77 -72 -117 -174t-40 -215q0 -189 108 -297q116 -125 311 -125z" />
    <glyph glyph-name="uni1EE1" unicode="&#x1ee1;" 
d="M963 1284l100 -76q-25 -37 -51.5 -63t-38.5 -33q-53 -47 -113 -47q-39 -2 -100 22q-4 1 -29.5 12t-51.5 20t-38 9q-7 0 -12.5 -1t-11 -4t-8.5 -4.5t-9.5 -6.5t-7.5 -6q-6 -4 -12 -10t-15.5 -19t-11.5 -16l-94 76q55 74 73 92q62 53 132 53q31 0 77 -16l87 -32
q51 -17 55 -13q31 0 49 18q7 6 31 45zM688 915q93 0 160 -20q103 -18 149 -6q38 5 47 14q21 19 25 82q0 4 6 55h187l-7 -53q-11 -110 -51 -167t-129 -77q78 -107 78 -249q0 -218 -158 -373q-84 -81 -183 -115.5t-224 -34.5q-219 0 -342 123q-117 112 -117 301q0 107 42 205
t112 166q149 149 405 149zM612 193q118 0 195 77q39 39 61.5 92t22.5 107q0 43 -17.5 88.5t-48.5 75.5q-64 61 -161 61q-115 0 -189 -71q-88 -80 -88 -211q0 -42 16.5 -84.5t45.5 -71.5q30 -30 74.5 -46.5t88.5 -16.5z" />
    <glyph glyph-name="uni1EE2" unicode="&#x1ee2;" horiz-adv-x="1650" 
d="M647 -317q0 57 41 98q39 43 100 43q47 0 78 -31q33 -33 33 -80q0 -55 -41 -96q-43 -43 -100 -43q-38 0 -78 31q-33 33 -33 78zM991 1397q93 0 178 -21q113 -19 267 -10q33 0 47 14q20 18 24 82q0 5 6 56h187l-6 -54q-11 -121 -61.5 -180.5t-162.5 -69.5q79 -79 127 -193
t48 -255q0 -165 -58 -316t-162 -257q-94 -98 -236 -161t-333 -63q-311 0 -502 191q-86 86 -133 204.5t-47 247.5q0 167 64 317.5t172 252.5q109 103 260 159t321 56zM870 211q198 0 336 135q75 73 118.5 178.5t43.5 220.5q0 176 -108 289q-111 119 -312 119
q-198 0 -340 -131q-77 -72 -117 -174t-40 -215q0 -189 108 -297q116 -125 311 -125z" />
    <glyph glyph-name="uni1EE3" unicode="&#x1ee3;" 
d="M387 -317q0 57 41 98q39 43 100 43q47 0 78 -31q33 -33 33 -80q0 -55 -41 -96q-43 -43 -100 -43q-38 0 -78 31q-33 33 -33 78zM688 915q93 0 160 -20q103 -18 149 -6q38 5 47 14q21 19 25 82q0 4 6 55h187l-7 -53q-11 -110 -51 -167t-129 -77q78 -107 78 -249
q0 -218 -158 -373q-84 -81 -183 -115.5t-224 -34.5q-219 0 -342 123q-117 112 -117 301q0 107 42 205t112 166q149 149 405 149zM612 193q118 0 195 77q39 39 61.5 92t22.5 107q0 43 -17.5 88.5t-48.5 75.5q-64 61 -161 61q-115 0 -189 -71q-88 -80 -88 -211
q0 -42 16.5 -84.5t45.5 -71.5q30 -30 74.5 -46.5t88.5 -16.5z" />
    <glyph glyph-name="uni1EE4" unicode="&#x1ee4;" horiz-adv-x="1404" 
d="M541 -317q0 57 41 98q39 43 100 43q47 0 78 -31q33 -33 33 -80q0 -55 -41 -96q-43 -43 -101 -43q-38 0 -78 31q-32 32 -32 78zM319 1366h267l-92 -756q-15 -108 -15 -151q0 -115 70 -185q69 -63 186 -63q116 0 193 57q35 26 58 59.5t36.5 84.5t19 82.5t13.5 99.5l96 772
h266l-98 -801q-25 -172 -41 -233q-39 -136 -121 -219q-46 -46 -102.5 -77t-116 -44.5t-105.5 -18t-100 -4.5q-268 0 -405 137q-113 116 -113 316q0 96 18 231z" />
    <glyph glyph-name="uni1EE5" unicode="&#x1ee5;" horiz-adv-x="1099" 
d="M381 -317q0 57 41 98q39 43 100 43q47 0 78 -31q33 -33 33 -80q0 -55 -41 -96q-43 -43 -100 -43q-38 0 -78 31q-33 33 -33 78zM229 887h250l-53 -443q-10 -90 -10 -106q0 -72 37 -109q39 -45 125 -45q81 0 137 49q32 32 45 73.5t22 113.5l58 467h250l-60 -490
q-20 -140 -60 -226t-132 -140q-102 -60 -265 -60q-185 0 -292 76q-47 31 -83 93t-36 151q0 45 12 139z" />
    <glyph glyph-name="uni1EE6" unicode="&#x1ee6;" horiz-adv-x="1404" 
d="M942 1489h-125l23 162q32 -4 65 0.5t47 15.5q12 9 17 14t11 15.5t9 25.5q7 58 -57 58q-58 0 -70 -51h-127q18 77 51 110q18 23 60 43.5t102 20.5q102 0 145 -48.5t29 -136.5q-11 -69 -61 -113t-109 -49zM319 1366h267l-92 -756q-15 -108 -15 -151q0 -115 70 -185
q69 -63 186 -63q116 0 193 57q35 26 58 59.5t36.5 84.5t19 82.5t13.5 99.5l96 772h266l-98 -801q-25 -172 -41 -233q-39 -136 -121 -219q-46 -46 -102.5 -77t-116 -44.5t-105.5 -18t-100 -4.5q-268 0 -405 137q-113 116 -113 316q0 96 18 231z" />
    <glyph glyph-name="uni1EE7" unicode="&#x1ee7;" horiz-adv-x="1099" 
d="M743 1024h-125l23 162q32 -4 65.5 0.5t47.5 15.5q12 9 17 14t11 15.5t9 25.5q7 58 -58 58q-57 0 -69 -51h-127q18 77 51 110q18 23 60 43.5t102 20.5q102 0 145 -48.5t29 -136.5q-11 -69 -61 -112.5t-109 -48.5zM229 887h250l-53 -443q-10 -90 -10 -106q0 -72 37 -109
q39 -45 125 -45q81 0 137 49q32 32 45 73.5t22 113.5l58 467h250l-60 -490q-20 -140 -60 -226t-132 -140q-102 -60 -265 -60q-185 0 -292 76q-47 31 -83 93t-36 151q0 45 12 139z" />
    <glyph glyph-name="uni1EE8" unicode="&#x1ee8;" horiz-adv-x="1404" 
d="M1198 1745l-342 -256l-90 92l287 287zM319 1366h267l-92 -756q-15 -108 -15 -151q0 -115 70 -185q69 -63 186 -63q116 0 193 57q35 26 58 59.5t36.5 84.5t19 82.5t13.5 99.5l96 772h219q38 5 47 14q21 19 25 82q0 5 6 56h186l-6 -54q-11 -122 -63 -181t-166 -69l-80 -649
q-25 -172 -41 -233q-39 -136 -121 -219q-46 -46 -102.5 -77t-116 -44.5t-105.5 -18t-100 -4.5q-268 0 -405 137q-113 116 -113 316q0 96 18 231z" />
    <glyph glyph-name="uni1EE9" unicode="&#x1ee9;" horiz-adv-x="1136" 
d="M985 1280l-342 -256l-90 92l287 287zM229 887h250l-53 -443q-10 -90 -10 -106q0 -72 37 -109q39 -45 125 -45q81 0 137 49q32 32 45 73.5t22 113.5l58 467h188q6 0 8 2q38 5 47 14q21 19 25 82q0 4 6 55h186l-6 -53q-11 -121 -61 -180.5t-162 -69.5l-41 -340
q-20 -140 -60 -226t-132 -140q-102 -60 -265 -60q-185 0 -292 76q-47 31 -83 93t-36 151q0 45 12 139z" />
    <glyph glyph-name="uni1EEA" unicode="&#x1eea;" horiz-adv-x="1404" 
d="M924 1489l-260 246l145 133l215 -283zM319 1366h267l-92 -756q-15 -108 -15 -151q0 -115 70 -185q69 -63 186 -63q116 0 193 57q35 26 58 59.5t36.5 84.5t19 82.5t13.5 99.5l96 772h219q38 5 47 14q21 19 25 82q0 5 6 56h186l-6 -54q-11 -122 -63 -181t-166 -69l-80 -649
q-25 -172 -41 -233q-39 -136 -121 -219q-46 -46 -102.5 -77t-116 -44.5t-105.5 -18t-100 -4.5q-268 0 -405 137q-113 116 -113 316q0 96 18 231z" />
    <glyph glyph-name="uni1EEB" unicode="&#x1eeb;" horiz-adv-x="1136" 
d="M725 1024l-260 246l145 133l215 -283zM229 887h250l-53 -443q-10 -90 -10 -106q0 -72 37 -109q39 -45 125 -45q81 0 137 49q32 32 45 73.5t22 113.5l58 467h188q6 0 8 2q38 5 47 14q21 19 25 82q0 4 6 55h186l-6 -53q-11 -121 -61 -180.5t-162 -69.5l-41 -340
q-20 -140 -60 -226t-132 -140q-102 -60 -265 -60q-185 0 -292 76q-47 31 -83 93t-36 151q0 45 12 139z" />
    <glyph glyph-name="uni1EEC" unicode="&#x1eec;" horiz-adv-x="1404" 
d="M942 1489h-125l23 162q32 -4 65 0.5t47 15.5q12 9 17 14t11 15.5t9 25.5q7 58 -57 58q-58 0 -70 -51h-127q18 77 51 110q18 23 60 43.5t102 20.5q102 0 145 -48.5t29 -136.5q-11 -69 -61 -113t-109 -49zM319 1366h267l-92 -756q-15 -108 -15 -151q0 -115 70 -185
q69 -63 186 -63q116 0 193 57q35 26 58 59.5t36.5 84.5t19 82.5t13.5 99.5l96 772h219q38 5 47 14q21 19 25 82q0 5 6 56h186l-6 -54q-11 -122 -63 -181t-166 -69l-80 -649q-25 -172 -41 -233q-39 -136 -121 -219q-46 -46 -102.5 -77t-116 -44.5t-105.5 -18t-100 -4.5
q-268 0 -405 137q-113 116 -113 316q0 96 18 231z" />
    <glyph glyph-name="uni1EED" unicode="&#x1eed;" horiz-adv-x="1136" 
d="M743 1024h-125l23 162q32 -4 65.5 0.5t47.5 15.5q12 9 17 14t11 15.5t9 25.5q7 58 -58 58q-57 0 -69 -51h-127q18 77 51 110q18 23 60 43.5t102 20.5q102 0 145 -48.5t29 -136.5q-11 -69 -61 -112.5t-109 -48.5zM229 887h250l-53 -443q-10 -90 -10 -106q0 -72 37 -109
q39 -45 125 -45q81 0 137 49q32 32 45 73.5t22 113.5l58 467h188q6 0 8 2q38 5 47 14q21 19 25 82q0 4 6 55h186l-6 -53q-11 -121 -61 -180.5t-162 -69.5l-41 -340q-20 -140 -60 -226t-132 -140q-102 -60 -265 -60q-185 0 -292 76q-47 31 -83 93t-36 151q0 45 12 139z" />
    <glyph glyph-name="uni1EEE" unicode="&#x1eee;" horiz-adv-x="1404" 
d="M1085 1737l101 -76q-25 -37 -51.5 -63t-38.5 -33q-53 -47 -113 -47q-39 -2 -100 22q-4 1 -29.5 12t-51.5 20t-38 9q-7 0 -12.5 -1t-11 -4t-8.5 -4.5t-9.5 -6.5t-7.5 -6q-6 -4 -12 -10.5t-15 -19t-12 -16.5l-94 76q55 74 73 92q63 54 131 54q29 0 78 -17l87 -32
q51 -17 55 -13q30 0 49 19q5 4 30 45zM319 1366h267l-92 -756q-15 -108 -15 -151q0 -115 70 -185q69 -63 186 -63q116 0 193 57q35 26 58 59.5t36.5 84.5t19 82.5t13.5 99.5l96 772h219q38 5 47 14q21 19 25 82q0 5 6 56h186l-6 -54q-11 -122 -63 -181t-166 -69l-80 -649
q-25 -172 -41 -233q-39 -136 -121 -219q-46 -46 -102.5 -77t-116 -44.5t-105.5 -18t-100 -4.5q-268 0 -405 137q-113 116 -113 316q0 96 18 231z" />
    <glyph glyph-name="uni1EEF" unicode="&#x1eef;" horiz-adv-x="1136" 
d="M889 1284l100 -76q-25 -37 -51.5 -63t-38.5 -33q-53 -47 -113 -47q-39 -2 -100 22q-4 1 -29.5 12t-51.5 20t-38 9q-7 0 -12.5 -1t-11 -4t-8.5 -4.5t-9.5 -6.5t-7.5 -6q-6 -4 -12 -10t-15.5 -19t-11.5 -16l-94 76q52 70 74 92q62 53 131 53q32 0 78 -16l86 -32
q51 -17 55 -13q31 0 49 18q7 6 31 45zM229 887h250l-53 -443q-10 -90 -10 -106q0 -72 37 -109q39 -45 125 -45q81 0 137 49q32 32 45 73.5t22 113.5l58 467h188q6 0 8 2q38 5 47 14q21 19 25 82q0 4 6 55h186l-6 -53q-11 -121 -61 -180.5t-162 -69.5l-41 -340
q-20 -140 -60 -226t-132 -140q-102 -60 -265 -60q-185 0 -292 76q-47 31 -83 93t-36 151q0 45 12 139z" />
    <glyph glyph-name="uni1EF0" unicode="&#x1ef0;" horiz-adv-x="1404" 
d="M541 -317q0 57 41 98q39 43 100 43q47 0 78 -31q33 -33 33 -80q0 -55 -41 -96q-43 -43 -101 -43q-38 0 -78 31q-32 32 -32 78zM319 1366h267l-92 -756q-15 -108 -15 -151q0 -115 70 -185q69 -63 186 -63q116 0 193 57q35 26 58 59.5t36.5 84.5t19 82.5t13.5 99.5l96 772
h219q38 5 47 14q21 19 25 82q0 5 6 56h186l-6 -54q-11 -122 -63 -181t-166 -69l-80 -649q-25 -172 -41 -233q-39 -136 -121 -219q-46 -46 -102.5 -77t-116 -44.5t-105.5 -18t-100 -4.5q-268 0 -405 137q-113 116 -113 316q0 96 18 231z" />
    <glyph glyph-name="uni1EF1" unicode="&#x1ef1;" horiz-adv-x="1136" 
d="M381 -317q0 57 41 98q39 43 100 43q47 0 78 -31q33 -33 33 -80q0 -55 -41 -96q-43 -43 -100 -43q-38 0 -78 31q-33 33 -33 78zM229 887h250l-53 -443q-10 -90 -10 -106q0 -72 37 -109q39 -45 125 -45q81 0 137 49q32 32 45 73.5t22 113.5l58 467h188q6 0 8 2q38 5 47 14
q21 19 25 82q0 4 6 55h186l-6 -53q-11 -121 -61 -180.5t-162 -69.5l-41 -340q-20 -140 -60 -226t-132 -140q-102 -60 -265 -60q-185 0 -292 76q-47 31 -83 93t-36 151q0 45 12 139z" />
    <glyph glyph-name="Ygrave" unicode="&#x1ef2;" horiz-adv-x="1208" 
d="M788 1489l-260 246l146 133l215 -283zM465 0l76 625l-377 741h303l233 -475l353 475h327l-573 -741l-76 -625h-266z" />
    <glyph glyph-name="ygrave" unicode="&#x1ef3;" horiz-adv-x="1101" 
d="M684 1024l-260 246l145 133l215 -283zM43 -469l399 602l-329 754h282l213 -504l307 504h291l-880 -1356h-283z" />
    <glyph glyph-name="uni1EF4" unicode="&#x1ef4;" horiz-adv-x="1208" 
d="M428 -317q0 57 41 98q39 43 100 43q47 0 78 -31q33 -33 33 -80q0 -55 -41 -96q-43 -43 -100 -43q-38 0 -78 31q-33 33 -33 78zM465 0l76 625l-377 741h303l233 -475l353 475h327l-573 -741l-76 -625h-266z" />
    <glyph glyph-name="uni1EF5" unicode="&#x1ef5;" horiz-adv-x="1101" 
d="M651 -317q0 57 41 98q39 43 101 43q46 0 77 -31q33 -33 33 -80q0 -55 -41 -96q-43 -43 -100 -43q-38 0 -78 31q-33 33 -33 78zM43 -469l399 602l-329 754h282l213 -504l307 504h291l-880 -1356h-283z" />
    <glyph glyph-name="uni1EF6" unicode="&#x1ef6;" horiz-adv-x="1208" 
d="M831 1489h-124l22 162q32 -4 65.5 0.5t47.5 15.5q12 9 17 14t11 15.5t9 25.5q7 58 -58 58q-57 0 -69 -51h-127q18 77 51 110q18 23 60 43.5t102 20.5q102 0 145 -48.5t29 -136.5q-11 -69 -61 -113t-109 -49zM465 0l76 625l-377 741h303l233 -475l353 475h327l-573 -741
l-76 -625h-266z" />
    <glyph glyph-name="uni1EF7" unicode="&#x1ef7;" horiz-adv-x="1101" 
d="M725 1024h-125l23 162q32 -4 65 0.5t47 15.5q12 9 17 14t11 15.5t9 25.5q7 58 -57 58q-58 0 -70 -51h-127q18 77 51 110q18 23 60 43.5t102 20.5q102 0 145 -48.5t29 -136.5q-11 -69 -61 -112.5t-109 -48.5zM43 -469l399 602l-329 754h282l213 -504l307 504h291
l-880 -1356h-283z" />
    <glyph glyph-name="uni1EF8" unicode="&#x1ef8;" horiz-adv-x="1208" 
d="M983 1737l100 -76q-25 -37 -51.5 -63t-38.5 -33q-53 -47 -112 -47q-40 -2 -101 22q-4 1 -29 12t-51 20t-38 9q-19 0 -50 -22q-6 -4 -12 -10.5t-15 -19t-12 -16.5l-94 76q52 70 74 92q63 54 131 54q29 0 78 -17l86 -32q51 -17 55 -13q30 0 49 19q7 6 31 45zM465 0l76 625
l-377 741h303l233 -475l353 475h327l-573 -741l-76 -625h-266z" />
    <glyph glyph-name="uni1EF9" unicode="&#x1ef9;" horiz-adv-x="1101" 
d="M872 1284l101 -76q-25 -37 -51.5 -63t-38.5 -33q-53 -47 -113 -47q-39 -2 -100 22q-4 1 -29.5 12t-51.5 20t-38 9q-7 0 -12.5 -1t-11 -4t-8.5 -4.5t-9.5 -6.5t-7.5 -6q-6 -4 -12 -10t-15.5 -19t-11.5 -16l-94 76q55 74 73 92q62 53 131 53q32 0 78 -16l87 -32
q51 -17 55 -13q31 0 49 18q5 4 30 45zM43 -469l399 602l-329 754h282l213 -504l307 504h291l-880 -1356h-283z" />
    <glyph glyph-name="uni1EFA" unicode="&#x1efa;" horiz-adv-x="0" 
 />
    <glyph glyph-name="uni2010" unicode="&#x2010;" horiz-adv-x="737" 
d="M145 356l29 230h533l-29 -230h-533z" />
    <glyph glyph-name="uni2011" unicode="&#x2011;" horiz-adv-x="737" 
d="M145 356l29 230h533l-29 -230h-533z" />
    <glyph glyph-name="figuredash" unicode="&#x2012;" horiz-adv-x="1310" 
d="M188 592l27 213h1024l-27 -213h-1024z" />
    <glyph glyph-name="endash" unicode="&#x2013;" horiz-adv-x="1310" 
d="M188 365l27 213h1024l-27 -213h-1024z" />
    <glyph glyph-name="emdash" unicode="&#x2014;" horiz-adv-x="1720" 
d="M188 365l27 213h1434l-27 -213h-1434z" />
    <glyph glyph-name="afii00208" unicode="&#x2015;" horiz-adv-x="1720" 
d="M188 365l27 213h1434l-27 -213h-1434z" />
    <glyph glyph-name="quoteleft" unicode="&#x2018;" horiz-adv-x="622" 
d="M700 1366l-284 -551l-226 27l355 542z" />
    <glyph glyph-name="quoteright" unicode="&#x2019;" horiz-adv-x="757" 
d="M188 842l285 551l227 -27l-356 -543z" />
    <glyph glyph-name="quotesinglbase" unicode="&#x201a;" horiz-adv-x="757" 
d="M53 -268l285 551l225 -27l-354 -543z" />
    <glyph glyph-name="quotedblleft" unicode="&#x201c;" horiz-adv-x="1007" 
d="M1085 1366l-284 -551l-226 27l355 542zM700 1366l-284 -551l-226 27l355 542z" />
    <glyph glyph-name="quotedblright" unicode="&#x201d;" horiz-adv-x="1167" 
d="M188 842l285 551l227 -27l-356 -543zM573 842l285 551l227 -27l-356 -543z" />
    <glyph glyph-name="quotedblbase" unicode="&#x201e;" horiz-adv-x="1167" 
d="M53 -268l285 551l225 -27l-354 -543zM438 -268l285 551l225 -27l-354 -543z" />
    <glyph glyph-name="dagger" unicode="&#x2020;" horiz-adv-x="1165" 
d="M612 1067l54 426h237l-53 -426h324l-27 -213h-324l-149 -1223h-238l150 1223h-324l27 213h323z" />
    <glyph glyph-name="daggerdbl" unicode="&#x2021;" 
d="M618 1067l54 426h237l-53 -426h324l-27 -213h-324l-59 -494h324l-27 -213h-324l-63 -516h-238l64 516h-324l27 213h323l60 494h-324l27 213h323z" />
    <glyph glyph-name="bullet" unicode="&#x2022;" horiz-adv-x="2048" 
d="M821 664q0 116 88 213q101 106 236 106q104 0 180 -72q74 -71 74 -182q0 -121 -94 -219q-95 -100 -230 -100q-115 0 -182 73q-72 72 -72 181z" />
    <glyph glyph-name="ellipsis" unicode="&#x2026;" horiz-adv-x="1732" 
d="M145 111q0 75 54 129q53 53 129 53q61 0 102 -41q39 -39 39 -102q0 -82 -51 -127q-50 -50 -127 -50q-66 0 -107 41q-39 39 -39 97zM721 111q0 76 53 129t129 53q62 0 103 -41q38 -38 38 -102q0 -82 -51 -127q-50 -50 -127 -50q-65 0 -106 41q-39 39 -39 97zM1296 111
q0 75 54 129q53 53 129 53q61 0 102 -41q39 -39 39 -102q0 -82 -51 -127q-50 -50 -127 -50q-66 0 -107 41q-39 39 -39 97z" />
    <glyph glyph-name="perthousand" unicode="&#x2030;" horiz-adv-x="2404" 
d="M551 1382q152 0 244 -88q90 -90 90 -223q0 -136 -88 -233q-96 -103 -273 -103q-162 0 -250 88q-84 84 -84 213q0 67 25.5 132.5t71.5 111.5q99 102 264 102zM524 883q84 0 135 51q54 54 54 141q0 74 -43 117t-121 43q-80 0 -129 -49q-55 -55 -55 -142q0 -73 45 -118
q43 -43 114 -43zM336 6l987 1405l100 -61l-985 -1407zM1233 627q152 0 244 -88q90 -90 90 -224q0 -136 -88 -233q-95 -102 -273 -102q-162 0 -250 88q-84 84 -84 213q0 67 25.5 132t71.5 111q100 103 264 103zM1206 127q84 0 135 51q54 54 54 141q0 74 -43 117t-121 43
q-80 0 -129 -49q-55 -55 -55 -141q0 -74 45 -119q43 -43 114 -43zM2046 627q152 0 244 -88q90 -90 90 -224q0 -136 -88 -233q-95 -102 -273 -102q-162 0 -250 88q-83 83 -83 213q0 68 25 132.5t71 110.5q100 103 264 103zM2019 127q84 0 135 51q54 54 54 141q0 74 -43 117
t-121 43q-80 0 -129 -49q-55 -55 -55 -141q0 -74 45 -119q43 -43 114 -43z" />
    <glyph glyph-name="guilsinglleft" unicode="&#x2039;" horiz-adv-x="651" 
d="M354 444l209 -331l-155 -103l-271 439l377 438l131 -107z" />
    <glyph glyph-name="guilsinglright" unicode="&#x203a;" horiz-adv-x="651" 
d="M408 453l-209 331l155 103l271 -438l-377 -439l-131 107z" />
    <glyph glyph-name="fraction" unicode="&#x2044;" horiz-adv-x="473" 
d="M-205 6l987 1405l101 -61l-985 -1407z" />
    <glyph glyph-name="uni2080" unicode="&#x2080;" horiz-adv-x="778" 
d="M401 -18q-64 0 -114 15.5t-99 65.5q-92 99 -92 271q0 117 42.5 229t111.5 180q95 95 239 95q116 0 187 -66q96 -87 96 -283q0 -117 -35.5 -230t-105.5 -187q-51 -51 -104.5 -70.5t-125.5 -19.5zM467 690q-60 0 -102 -47q-43 -48 -69 -133.5t-26 -171.5q0 -130 56 -180
q33 -29 73 -29q57 0 97 37q47 44 74.5 133.5t27.5 179.5q0 129 -49 178q-33 33 -82 33z" />
    <glyph glyph-name="uni2081" unicode="&#x2081;" horiz-adv-x="778" 
d="M340 0l82 672h-164l18 147h336l-100 -819h-172z" />
    <glyph glyph-name="uni2082" unicode="&#x2082;" horiz-adv-x="778" 
d="M49 0l334 332q100 100 123 127q51 61 51 125q0 58 -35 82q-24 24 -84 24q-62 0 -92 -37q-34 -37 -37 -90h-172q15 112 84 185q86 90 225 90q138 0 218 -80q65 -65 65 -164q0 -94 -57 -174q-28 -40 -127 -139l-144 -134h279l-18 -147h-613z" />
    <glyph glyph-name="uni2083" unicode="&#x2083;" horiz-adv-x="778" 
d="M326 596h-160q18 102 84 168q74 74 207 74q138 0 205 -74q55 -61 55 -150q0 -73 -41 -125q-41 -45 -88 -57q46 -21 71 -53q39 -48 39 -123q0 -115 -71 -190q-84 -84 -240 -84q-146 0 -225 79q-74 74 -74 185h172q3 -52 37 -86q34 -31 96 -31q59 0 99 37q36 36 36 92
q0 58 -43 86q-27 21 -96 21h-24l16 135h18q77 0 107 22q41 27 41 86q0 47 -27 68q-26 26 -80 26q-50 0 -80 -30q-22 -22 -34 -76z" />
    <glyph glyph-name="uni2084" unicode="&#x2084;" horiz-adv-x="778" 
d="M723 834l-68 -549h97l-17 -140h-96l-18 -145h-164l18 145h-407l8 72l483 617h164zM297 285h195l36 305z" />
    <glyph glyph-name="uni2085" unicode="&#x2085;" horiz-adv-x="778" 
d="M727 819l-18 -147h-277l-41 -119q32 4 60 4q114 0 182 -68q67 -67 67 -178q0 -147 -90 -237q-30 -33 -65 -53t-74.5 -27.5t-63.5 -9.5t-65 -2q-73 0 -137 21t-129 83l71 147q74 -104 203 -104q81 0 127 43q49 46 49 123q0 68 -49 102q-1 0 -7 4t-10 6t-12.5 6t-17 6.5
t-19.5 5t-24.5 4t-28.5 1.5q-88 0 -163 -53h-11l152 442h391z" />
    <glyph glyph-name="uni2086" unicode="&#x2086;" horiz-adv-x="778" 
d="M514 864l121 -96l-219 -244q30 13 82 13q103 0 172 -66q75 -64 75 -182q0 -133 -86 -219q-88 -88 -256 -88q-136 0 -213 55q-98 71 -98 207q0 87 43 162q29 51 84 114zM406 117q63 0 110 37q53 41 53 118q0 59 -34 93q-38 38 -107 38q-72 0 -117 -45t-45 -116
q0 -53 33 -86q39 -39 107 -39z" />
    <glyph glyph-name="uni2087" unicode="&#x2087;" horiz-adv-x="778" 
d="M113 53l446 619h-407l18 147h688l-600 -842z" />
    <glyph glyph-name="uni2088" unicode="&#x2088;" horiz-adv-x="778" 
d="M293 428q-43 15 -72 64q-26 39 -26 98q0 107 75 176q77 72 217 72q118 0 183 -58q67 -67 67 -162q0 -76 -39 -122q-38 -51 -102 -72q56 -20 82 -57q39 -44 39 -117q0 -127 -92 -203q-73 -65 -230 -65q-121 0 -192 51q-84 58 -84 174q0 87 49 147q47 54 125 74zM473 702
q-58 0 -90 -32q-33 -33 -33 -86q0 -41 29 -68q30 -27 78 -27q57 0 92 35q33 33 33 86q0 46 -31 68q-26 24 -78 24zM430 354q-63 0 -98 -35q-37 -37 -37 -94q0 -51 31 -80q28 -28 84 -28q63 0 98 35q37 34 37 98q0 45 -29 74q-28 30 -86 30z" />
    <glyph glyph-name="uni2089" unicode="&#x2089;" horiz-adv-x="778" 
d="M360 -45l-122 96l215 238q-33 -8 -84 -8q-99 0 -164 59q-76 65 -76 170q0 148 92 240q93 88 254 88q154 0 236 -82q69 -69 69 -181q0 -88 -32 -153q-22 -47 -103 -141zM465 702q-72 0 -117 -45q-45 -42 -45 -116q0 -55 35 -90t106 -35q73 0 119 41q47 44 47 121
q0 51 -39 90q-37 34 -106 34z" />
    <glyph glyph-name="Euro" unicode="&#x20ac;" horiz-adv-x="1163" 
d="M1096 352l-37 -299q-150 -84 -387 -84q-294 0 -441 178q-97 122 -106 285h-154l97 184h61q0 60 16 129h-135l96 185h87q25 73 67.5 140t65 91.5t59.5 61.5q192 174 502 174q200 0 346 -90l-131 -224q-103 72 -258 72q-131 0 -225 -59t-142 -166h549l-96 -185h-510
q-17 -80 -17 -129h474l-97 -184h-360q16 -111 104 -166t207 -55q224 0 365 141z" />
    <glyph glyph-name="trademark" unicode="&#x2122;" horiz-adv-x="1474" 
d="M655 1210h-168l-77 -622h-174l77 622h-168l19 156h510zM778 588h-174l238 778h127l131 -459l260 459h127l26 -778h-174l-6 428l-233 -428h-78l-123 428z" />
    <glyph glyph-name="fi" unicode="&#xfb01;" horiz-adv-x="1071" 
d="M684 674h-229l-82 -674h-250l82 674h-94l26 213h94l29 221q7 44 12 69t17.5 69.5t34 82.5t51.5 70q114 119 325 119q205 0 312 -103q64 -61 81 -137.5t5 -175.5l-6 -53h-250l6 38q23 120 -39 170q-43 35 -113 35q-73 0 -125 -45q-29 -28 -41 -63.5t-20 -87.5l-29 -209
h230zM821 887h250l-108 -887h-250z" />
    <glyph glyph-name="fl" unicode="&#xfb02;" horiz-adv-x="1073" 
d="M684 674h-229l-82 -674h-250l82 674h-94l26 213h94l29 221q7 48 12.5 76t17 69t32 76t49.5 66q113 123 329 123q201 0 304 -99q100 -93 100 -256q0 -36 -23 -215l-118 -948h-250l123 1001q14 130 14 140q0 81 -49 119q-43 32 -113 32q-71 0 -119 -43q-24 -23 -38.5 -59.5
t-17.5 -56t-9 -68.5l-23 -178h230z" />
    <glyph glyph-name="CR" horiz-adv-x="477" 
 />
    <glyph glyph-name="nbspace" horiz-adv-x="477" 
 />
    <glyph glyph-name="hyphenminus" horiz-adv-x="737" 
d="M145 356l29 230h533l-29 -230h-533z" />
    <glyph glyph-name="dotlessi1" horiz-adv-x="487" 
d="M227 887h250l-108 -887h-250z" />
    </font>
</defs>
</svg>
