<svg xmlns="http://www.w3.org/2000/svg" viewBox="0 0 40.58 35.04"><g id="Home_page" data-name="Home page"><path d="M33.45,25A15.16,15.16,0,0,0,35,13.24,14.83,14.83,0,0,0,29.5,5.05,15.26,15.26,0,0,0,7.12,25a6.45,6.45,0,0,1-.91.3c-.88.13-1.77.25-2.66.33A2.47,2.47,0,0,1,.83,23.34q-.4-3.24-.8-6.5a2.5,2.5,0,0,1,2.34-2.95c.35,0,.78,0,1-.19s.19-.62.29-.94C5.79,5.86,10.35,1.56,17.46.27A17,17,0,0,1,37,13.33c.09.35.24.48.57.49a6.36,6.36,0,0,1,.75.08,2.49,2.49,0,0,1,2.21,2.86c-.14,1.28-.31,2.56-.47,3.85-.11.92-.23,1.84-.34,2.77a2.46,2.46,0,0,1-2.68,2.2c-.91-.08-1.82-.2-2.73-.33A5.49,5.49,0,0,1,33.45,25Z"/><path d="M20.36,4.08a13.17,13.17,0,0,0-.16,26.34c.38,0,.76,0,1.14-.05V35a32.11,32.11,0,0,0,9.91-10.15,41.79,41.79,0,0,1-7,1.16.57.57,0,0,0-.38.22,1.27,1.27,0,0,1-1.15.65c-1,0-1.91,0-2.87,0a1.23,1.23,0,1,1,0-2.45h2.94a1.11,1.11,0,0,1,.95.44.48.48,0,0,0,.48.2,39.05,39.05,0,0,0,7.66-1.36,14,14,0,0,0,.79-1.93,13,13,0,0,0,.82-4.56A13.21,13.21,0,0,0,20.36,4.08ZM15.58,18.19a1.14,1.14,0,0,1,0-2.27,1.14,1.14,0,1,1,0,2.27Zm4.75,0A1.14,1.14,0,1,1,21.43,17,1.16,1.16,0,0,1,20.33,18.19Zm4.63,0A1.14,1.14,0,1,1,26.11,17,1.14,1.14,0,0,1,25,18.19Z"/></g></svg>