<?xml version="1.0" encoding="utf-8"?>
<!-- Generator: Adobe Illustrator 24.1.2, SVG Export Plug-In . SVG Version: 6.00 Build 0)  -->
<svg version="1.1" id="Layer_1" xmlns="http://www.w3.org/2000/svg" xmlns:xlink="http://www.w3.org/1999/xlink" x="0px" y="0px"
	 viewBox="0 0 52 32" style="enable-background:new 0 0 52 32;" xml:space="preserve">
<style type="text/css">
	.st0{fill:#FF5F00;}
	.st1{fill:none;stroke:#000000;stroke-width:0.46;stroke-miterlimit:10;}
	.st2{fill:#EB001B;}
	.st3{fill:#F79E1B;}
</style>
<g>
	<rect x="20.2" y="5.4" class="st0" width="11.8" height="21.2"/>
	<g>
		<rect x="1.2" y="0.2" class="st1" width="49.7" height="31.5"/>
		<path class="st2" d="M20.9,16.1c0-4.2,1.9-8,5.1-10.6C20.2,0.8,11.7,1.9,7.1,7.7c-4.6,5.8-3.6,14.3,2.2,18.9
			c4.9,3.8,11.8,3.8,16.7,0C22.8,24.1,20.9,20.2,20.9,16.1z"/>
		<path class="st3" d="M47.9,16.1c0,7.4-6.1,13.5-13.5,13.5c-3,0-6-1-8.4-2.9c5.9-4.6,6.9-13,2.3-18.9c-0.7-0.9-1.4-1.6-2.3-2.3
			C31.9,0.8,40.4,1.9,45,7.7C46.8,10.1,47.9,13,47.9,16.1z"/>
	</g>
</g>
</svg>
