<?xml version="1.0" encoding="utf-8"?>
<!-- Generator: Adobe Illustrator 24.1.2, SVG Export Plug-In . SVG Version: 6.00 Build 0)  -->
<svg version="1.1"
	 id="svg3052" xmlns:cc="http://creativecommons.org/ns#" xmlns:dc="http://purl.org/dc/elements/1.1/" xmlns:inkscape="http://www.inkscape.org/namespaces/inkscape" xmlns:rdf="http://www.w3.org/1999/02/22-rdf-syntax-ns#" xmlns:sodipodi="http://sodipodi.sourceforge.net/DTD/sodipodi-0.dtd" xmlns:svg="http://www.w3.org/2000/svg"
	 xmlns="http://www.w3.org/2000/svg" xmlns:xlink="http://www.w3.org/1999/xlink" x="0px" y="0px" viewBox="0 0 48 32"
	 style="enable-background:new 0 0 48 32;" xml:space="preserve">
<style type="text/css">
	.st0{fill:#005A9B;}
	.st1{fill-rule:evenodd;clip-rule:evenodd;fill:#FFFFFF;}
	.st2{fill-rule:evenodd;clip-rule:evenodd;fill:#005A9B;}
	.st3{fill-rule:evenodd;clip-rule:evenodd;fill:#FAA929;}
</style>
<sodipodi:namedview  bordercolor="#666666" borderopacity="1" gridtolerance="10" guidetolerance="10" id="namedview3054" inkscape:current-layer="svg3052" inkscape:cx="2929.9452" inkscape:cy="708.7338" inkscape:pageopacity="0" inkscape:pageshadow="2" inkscape:window-height="706" inkscape:window-maximized="1" inkscape:window-width="1366" inkscape:window-x="-8" inkscape:window-y="-8" inkscape:zoom="0.14039817" objecttolerance="10" pagecolor="#ffffff" showgrid="false">
	</sodipodi:namedview>
<g>
	<polygon class="st0" points="46.8,31.9 1.2,31.9 0.4,31.9 0.4,31.1 0.4,0.9 0.4,0.1 1.2,0.1 46.8,0.1 47.6,0.1 47.6,0.9 47.6,31.1 
		47.6,31.9 46.8,31.9 	"/>
	<polygon class="st1" points="46.8,31.1 1.2,31.1 1.2,0.9 46.8,0.9 46.8,31.1 	"/>
	<polygon class="st2" points="17.7,20.9 20.6,11.1 23.3,11.1 20.3,20.9 17.7,20.9 	"/>
	<path class="st2" d="M16.5,11.1l-2.4,4.1c-0.6,1.1-1,1.6-1.1,2.3h0c0-0.9-0.1-1.9-0.1-2.5l-0.3-3.9H8.1l0,0.3c1.1,0,1.8,0.6,2,1.8
		l0.9,7.8h2.7l5.5-9.8H16.5L16.5,11.1z"/>
	<path class="st2" d="M37.1,20.9L37,19.5l-3.3,0L33,20.9h-2.9l5.2-9.8h3.5l0.9,9.8H37.1L37.1,20.9z M36.8,15.1c0-0.7-0.1-1.7,0-2.3
		h0c-0.2,0.5-0.9,1.9-1.2,2.7l-1,2.1h2.3L36.8,15.1L36.8,15.1z"/>
	<path class="st2" d="M26.1,21.2c-1.9,0-3.1-0.6-4-1.1l1.3-1.9c0.8,0.4,1.4,1,2.9,1c0.5,0,0.9-0.1,1.2-0.6c0.4-0.6-0.1-1-1.1-1.6
		l-0.5-0.3c-1.5-1-2.2-2-1.5-3.8c0.5-1.1,1.7-2,3.7-2c1.4,0,2.7,0.6,3.4,1.2l-1.4,1.7c-0.7-0.6-1.4-0.9-2.1-0.9
		c-0.6,0-1,0.2-1.1,0.5c-0.3,0.5,0.1,0.9,0.9,1.4l0.6,0.4c1.9,1.2,2.3,2.4,1.8,3.6C29.3,20.7,27.7,21.2,26.1,21.2L26.1,21.2z"/>
	<path class="st2" d="M40.6,12.5h-0.1v-0.7h0.3c0.2,0,0.3,0.1,0.3,0.2c0,0.1-0.1,0.2-0.2,0.2l0.2,0.3h-0.1l-0.2-0.3h-0.1V12.5
		L40.6,12.5z M40.7,12.1c0.1,0,0.2,0,0.2-0.1c0-0.1-0.1-0.1-0.2-0.1h-0.1v0.2H40.7L40.7,12.1z M40.7,12.7c-0.4,0-0.6-0.3-0.6-0.6
		c0-0.4,0.3-0.6,0.6-0.6c0.3,0,0.6,0.3,0.6,0.6C41.3,12.5,41,12.7,40.7,12.7L40.7,12.7z M40.7,11.6c-0.3,0-0.5,0.2-0.5,0.5
		c0,0.3,0.2,0.5,0.5,0.5c0.3,0,0.5-0.2,0.5-0.5C41.2,11.8,40.9,11.6,40.7,11.6L40.7,11.6z"/>
	<polygon class="st3" points="45.7,23.9 2.4,23.9 2.4,29.7 45.7,29.7 45.7,23.9 	"/>
	<polygon class="st2" points="45.6,2.3 2.3,2.3 2.3,8.1 45.6,8.1 45.6,2.3 	"/>
	<path class="st2" d="M44.6,29.3h-0.1v-0.7h0.3c0.2,0,0.3,0.1,0.3,0.2c0,0.1-0.1,0.2-0.2,0.2l0.2,0.3h-0.1L44.8,29h-0.1V29.3
		L44.6,29.3z M44.8,28.9c0.1,0,0.2,0,0.2-0.1c0-0.1-0.1-0.1-0.2-0.1h-0.1v0.2H44.8L44.8,28.9z M44.8,29.6c-0.4,0-0.6-0.3-0.6-0.6
		c0-0.4,0.3-0.6,0.6-0.6c0.3,0,0.6,0.3,0.6,0.6C45.4,29.4,45.1,29.6,44.8,29.6L44.8,29.6z M44.8,28.5c-0.3,0-0.5,0.2-0.5,0.5
		c0,0.3,0.2,0.5,0.5,0.5c0.3,0,0.5-0.2,0.5-0.5C45.3,28.7,45,28.5,44.8,28.5L44.8,28.5z"/>
</g>
</svg>
